<svg width="71" height="71" viewBox="0 0 71 71" fill="none" xmlns="http://www.w3.org/2000/svg">
<path d="M21.875 29.0465L22.187 28.9492C22.187 28.9492 22.0889 28.9492 21.875 29.0465Z" fill="#8E8E8E"/>
<path d="M34.1957 28.084H34.1779L34.0977 28.1032L34.1957 28.084Z" fill="#8E8E8E"/>
<path d="M19.2104 32.0534C20.8505 30.8776 22.0895 30.4267 23.3196 29.9759C24.5586 29.5515 25.8422 29.1802 27.9458 28.747C29.9603 28.3934 32.162 28.1636 34.1854 28.084C35.1481 27.9072 36.8506 28.0575 37.9916 27.9779L38.4283 28.084C38.8205 28.0575 39.2841 28.0663 39.6763 28.1371L39.6495 28.1636C40.2378 28.1459 40.8885 28.2431 41.1827 28.252L41.1559 28.2697L41.8601 28.3404L41.7353 28.3581C42.7515 28.4111 43.7855 28.5968 44.6769 28.8266L44.6234 28.7117C46.5042 29.2686 47.2618 29.2863 48.8485 30.0643H48.8128C49.8914 30.3914 50.6401 30.8599 51.3621 31.355C52.0752 31.8678 52.7349 32.4247 53.6351 33.1143C53.4212 32.9375 53.6797 33.2381 53.644 33.2381C54.4106 33.9276 55.0346 34.8294 55.2129 34.7321C55.6407 35.3598 55.4892 35.2891 55.4803 35.404C55.5605 35.351 55.9349 35.8991 56.1844 36.4384L56.0329 36.2085C56.3092 36.7036 56.5053 37.234 56.7104 37.7644C56.7371 37.6407 56.746 37.5169 56.7549 37.3931C57.0045 38.2683 56.6391 37.676 56.9332 38.4894L57.0669 38.4452C57.3432 39.6828 57.2719 40.4431 57.2452 41.6543C57.3611 44.165 57.2274 46.8437 56.2736 49.1864C55.8012 50.3622 55.097 51.4143 54.2769 52.3337C53.8491 52.7669 53.3855 53.1824 52.9131 53.5449C52.3961 53.8631 51.9415 54.2433 51.3978 54.482H51.166C51.0145 54.3847 50.1588 55.3306 49.9003 55.2334L49.4189 55.5075C49.2674 55.5428 48.9554 55.6401 49.1961 55.5075C48.7237 55.6931 48.7237 55.7285 48.4028 55.9053L47.8501 55.976C47.3599 56.1086 46.9053 56.2501 46.4507 56.3915C45.9872 56.5065 45.5326 56.6214 45.0691 56.7275C44.1509 56.9927 43.1883 57.1165 42.1275 57.2668C40.835 57.311 38.981 57.4878 37.0824 57.532C36.6099 57.5496 36.1375 57.5762 35.6651 57.5938C35.1927 57.5938 34.7381 57.5938 34.2835 57.5938C33.3921 57.5938 32.5542 57.6292 31.85 57.5762C27.8656 57.532 23.382 56.1705 19.9502 54.3847C19.8433 54.314 19.5491 54.1726 19.5402 54.1814C18.5686 53.5095 17.6237 52.7669 16.9017 51.8475C16.9017 51.8475 16.7324 51.6442 16.4471 51.3082C16.2332 50.9281 15.8321 50.4507 15.5379 49.8141C14.8516 48.5942 14.3791 46.8968 14.1652 45.553C13.9245 44.2181 13.8354 43.2544 13.6571 43.4931C13.5769 43.608 13.4967 44.0236 13.4165 44.8634C13.3897 45.2789 13.4076 45.7917 13.4165 46.437C13.4967 47.0647 13.5234 47.8338 13.773 48.6914L13.7106 48.6118C13.8532 49.1246 14.0048 49.5843 14.2098 49.9909C14.397 50.3976 14.5485 50.7955 14.7892 51.1137C15.0031 51.4497 15.217 51.7591 15.431 52.0508C15.6806 52.3249 15.9391 52.5813 16.2065 52.8288C16.1619 53.1824 17.4366 54.0753 17.7753 54.4378L17.7307 54.4201C18.319 54.7207 18.8182 55.1804 19.3797 55.5252C19.9502 55.8523 20.494 56.2589 21.1001 56.4092C21.0466 56.4092 21.002 56.4446 20.7346 56.3385C21.5903 56.6567 22.7402 57.1165 22.7759 57.2049C24.826 57.9298 27.7854 58.4602 29.1581 58.4337L29.06 58.4514C29.8444 58.4514 30.0584 58.5398 30.9319 58.5575C30.9765 58.5751 31.0389 58.5928 31.03 58.5928C31.4578 58.5575 32.0729 58.6105 32.6612 58.6547C33.2584 58.6724 33.8289 58.6989 34.1676 58.6812L34.2122 58.7608C34.7737 58.7608 35.3264 58.7873 35.8879 58.7785C35.6829 58.7785 35.469 58.7608 35.264 58.752C35.4779 58.5575 36.5297 58.8846 37.7509 58.7078C38.8919 58.7343 40.0239 58.1331 41.2005 58.1508C41.7531 58.0094 40.7281 58.3541 41.5571 58.2127C41.5927 58.3188 41.1738 58.3188 41.3966 58.3895C42.2167 58.2746 42.7604 58.3276 43.7677 58.1154L43.8211 58.195C44.4718 58.0447 45.0869 57.9033 45.6574 57.8149C46.2278 57.7088 46.7537 57.6646 47.1549 57.4347C47.8056 57.196 48.0462 57.1872 48.2958 57.1695C48.5365 57.143 48.8039 57.143 49.4457 56.7628L50.0162 56.6567C50.5956 56.4181 50.3816 56.3827 51.0234 56.1086C51.0234 56.197 51.8256 55.7373 51.5047 56.0026C51.8702 55.8346 52.2268 55.6578 52.5744 55.4367C52.9042 55.1892 53.2429 54.9328 53.5906 54.6676C53.956 54.4201 54.2591 54.0753 54.6156 53.7659C54.7939 53.6068 54.9722 53.4476 55.1683 53.2796C55.3376 53.094 55.5159 52.9083 55.712 52.7227C55.7922 52.4928 56.0597 52.2188 56.2379 51.9005C56.4251 51.5911 56.6123 51.2905 56.6569 51.1137C56.8084 51.1314 57.6196 49.2306 57.2363 50.3711C57.2006 50.4683 57.1204 50.6363 57.1026 50.6098L57.1204 50.7778C57.8246 49.7611 57.9583 48.7356 58.2613 47.604C58.1722 47.9399 58.0207 48.382 58.0652 48.0726C58.1633 47.7189 58.2346 47.3653 58.3237 47.0117L58.3416 47.2504C58.4931 46.7199 58.5822 46.1895 58.6625 45.6502L58.5466 45.8624C58.707 45.0844 58.8675 44.8104 58.7873 43.9175C58.7338 43.5108 58.6268 44.6512 58.6446 43.8291C58.7427 42.7947 58.8318 41.2123 58.609 39.8508C58.5198 39.9923 58.4931 39.6298 58.3861 39.2673L58.4664 39.2054C58.0296 37.8263 58.5555 38.6396 58.0563 37.2694L58.1544 37.3755C58.0563 37.2694 57.9672 37.1721 57.8602 37.0749C57.2184 35.9344 57.7889 36.3323 56.9243 35.1388C57.1917 35.6427 56.8975 35.457 56.5677 34.847L56.7282 34.9531C56.5143 34.626 56.4251 34.5376 56.2914 34.3078C56.4519 34.4757 56.4697 34.3431 56.1221 33.8834L56.434 34.1398C56.1755 33.8746 55.9349 33.6005 55.6675 33.353C55.2307 32.6192 54.1878 31.7794 54.0006 31.4788C54.0006 31.4788 53.6797 31.1605 53.2697 30.8688C52.8775 30.5505 52.3961 30.2853 52.1911 30.2146C52.5387 30.3383 51.7187 29.7814 52.0128 29.8521C51.5672 29.6841 50.3281 29.0918 49.8646 28.8089L49.9627 28.8443C48.1443 27.9249 46.6914 27.7657 44.9799 27.2441C45.0423 27.3591 44.1242 27.1115 44.3292 27.2884C42.5108 27.0585 41.0401 26.5281 40.3448 26.8728C39.5158 26.8198 39.3732 26.7049 38.9453 26.6518H39.1414C37.5815 26.5899 37.1269 26.5899 35.9771 26.5723C35.3977 26.6165 35.3085 26.7933 34.2835 26.7756C34.6133 26.696 34.1943 26.7137 33.811 26.7314C34.0606 26.7137 34.1319 26.6783 33.6238 26.6518C33.5525 26.6783 33.4456 26.696 33.3386 26.7137C33.3386 26.7137 33.3119 26.7049 33.3208 26.696C32.679 26.7579 32.7949 26.7756 33.089 26.7668C33.0712 26.7756 33.0979 26.7933 33.196 26.811C32.5185 26.7402 31.333 26.9347 31.2439 26.811C29.3096 27.0143 27.9458 27.3679 26.3859 27.7657C26.1898 27.7392 26.5464 27.5978 27.001 27.474L25.8778 27.7481C25.86 27.6508 26.5107 27.5447 26.8494 27.4475C25.4678 27.5801 24.1308 28.2608 22.5887 28.7205L22.3034 28.915L22.2054 28.9415C22.2054 28.9415 21.9201 29.1714 21.7062 29.2863C21.4655 29.3128 21.6349 29.0918 20.9129 29.4631C20.2979 29.6576 19.3441 30.3825 18.6934 30.9041C19.0678 30.6566 18.9786 30.7804 18.836 30.9041C18.5151 31.1428 18.2834 31.2224 18.0605 31.4434L17.9625 31.3815C18.1497 31.355 17.2405 32.1595 17.1781 32.301C16.9463 32.3982 17.5792 31.8236 17.6237 31.7175C17.0087 32.2479 16.9017 32.4247 16.7502 32.5662C16.6076 32.7076 16.465 32.8579 15.9569 33.4856C15.5023 34.2282 16.1262 33.4149 15.9569 33.8127C15.529 34.4315 15.1903 35.0857 14.7535 35.8284L14.9585 35.625C14.3791 36.8981 14.1563 37.6937 13.7908 38.5778C13.3986 41.1681 13.6839 42.5825 13.7998 43.2544C13.9424 43.9263 14.0672 43.8821 14.1385 43.502C14.2365 43.1395 14.2722 42.4676 14.3524 41.9018C14.3881 41.6101 14.4237 41.3537 14.4505 41.1681C14.4683 40.9736 14.495 40.8586 14.495 40.8586C14.8427 38.9756 15.2616 37.6141 15.8856 36.235C16.2065 35.5543 16.5898 34.8736 17.1246 34.1752C17.6416 33.4679 18.319 32.7607 19.2193 32.0534H19.2104Z" fill="#8E8E8E"/>
<path d="M2.22755 25.4695L2.15625 25.3457C2.15625 25.3457 2.15624 25.3987 2.22755 25.4695Z" fill="#8E8E8E"/>
<path d="M1.49805 20.6582L1.51588 20.6847L1.49805 20.6582Z" fill="#8E8E8E"/>
<path d="M4.18053 25.3705C3.88638 25.1495 3.6368 24.9816 3.44961 24.7959C3.28025 24.6014 3.13763 24.4158 2.9861 24.239C2.73651 23.85 2.4691 23.4787 2.12147 22.8068C1.96993 22.4797 1.87189 22.1084 1.73818 21.7548C1.66687 21.3835 1.52425 21.021 1.50642 20.6497C1.41728 20.4817 1.39055 20.243 1.37272 19.9866C1.37272 19.7303 1.39054 19.4739 1.32815 19.2617L1.41729 19.1026C1.38164 18.9523 1.38163 18.7843 1.44403 18.6429H1.47077C1.43512 18.4307 1.4886 18.192 1.4886 18.0859L1.51534 18.1036L1.5599 17.8472L1.58664 17.9003C1.58664 17.5201 1.6847 17.14 1.83624 16.8394H1.72926C1.88971 16.5034 1.97885 16.2824 2.06799 16.0614C2.15712 15.8227 2.22843 15.6282 2.41562 15.5575V15.5752C2.51367 15.3188 2.76325 15.2834 2.96827 15.3542C3.19111 15.4249 3.38722 15.5221 3.75268 15.6017C3.66354 15.5752 3.75267 15.6636 3.73485 15.6813C4.02009 15.8316 4.26076 16.1056 4.42121 15.9819C4.65296 16.2382 4.56383 16.2382 4.53709 16.3266C4.59948 16.2736 4.84015 16.4769 5.0719 16.6449L4.94711 16.5918C5.15213 16.7687 5.40171 16.9013 5.64238 17.025C5.61564 16.9543 5.60673 16.8748 5.5889 16.804C5.92762 17.0427 5.5889 17.0339 5.9811 17.1753L6.02568 17.0427C6.55159 17.2637 6.85465 17.5378 7.46969 17.6527C8.73544 17.6793 10.0101 16.9543 10.6875 15.8934C10.8658 15.6459 10.9995 15.3277 11.1065 15.0978C11.1867 14.9033 11.3026 14.7265 11.4363 14.5674C11.6948 14.2491 12.0692 14.0369 12.3633 14.0458L12.4257 14.1342C12.4435 14.2756 12.6931 13.8955 12.7199 14.0634C12.7644 14.0458 12.809 14.0458 12.8536 14.0369C12.8803 14.0723 12.9249 14.1342 12.8536 14.1342C12.9427 14.2049 12.9605 14.1695 13.0586 14.2049L13.1032 14.3817C13.5043 14.974 14.0124 15.4072 14.2976 16.1587C14.4046 16.6361 14.6185 17.2814 14.7968 17.9533C14.8859 18.2892 14.9394 18.6429 15.0196 18.9611C15.0553 19.2882 15.0998 19.5976 15.1266 19.854C15.1622 20.2165 15.1266 20.6055 15.0553 20.9856C14.9305 21.3569 14.8413 21.7459 14.6363 22.0819C14.5472 22.2587 14.458 22.4266 14.3689 22.5946C14.253 22.7537 14.1461 22.904 14.0391 23.0632C13.8608 23.3991 13.5934 23.6466 13.4241 23.9737C13.3795 23.9914 13.3349 24.124 13.3527 24.1329C13.1834 24.2831 13.0051 24.4158 12.8357 24.5572C12.6664 24.6987 12.497 24.8401 12.292 24.9374C12.292 24.9374 12.2029 24.9904 12.0602 25.07C11.9087 25.1495 11.7215 25.291 11.472 25.4059C10.9639 25.6092 10.3666 25.9187 9.84965 26.0689C9.35048 26.2634 9.00286 26.4579 9.11873 26.6082C9.18113 26.6789 9.35939 26.7408 9.70703 26.785C10.0457 26.8027 10.5806 26.9 11.3026 26.7497L11.2759 26.7939C12.1227 26.5905 12.6129 26.29 13.0408 25.8479C13.2547 25.9982 13.6202 25.4324 13.8252 25.3529V25.3794C14.1461 24.955 14.6987 24.6721 14.9305 24.1859C14.9305 24.2124 14.9661 24.2566 14.8948 24.345C15.1266 24.0445 15.3138 23.5405 15.4475 23.5847C15.697 23.1958 15.8575 22.6653 16.0447 22.1968C16.1606 21.7106 16.2319 21.2508 16.1873 20.9591L16.214 21.0033C16.116 20.6674 16.2408 20.5878 16.214 20.2253C16.2319 20.2076 16.2408 20.1811 16.2497 20.19C16.1695 19.8363 16.2229 19.1821 16.1695 18.8992L16.2497 18.8727L16.1427 18.192L16.1606 18.4484C15.9199 18.3953 16.2497 17.9091 15.9734 17.4494C15.9021 16.972 15.2959 16.6714 15.2335 16.2029C15.0642 16.0261 15.4564 16.3266 15.2692 16.0437C15.3672 15.9907 15.3851 16.1675 15.4475 16.0437C15.2781 15.752 15.3227 15.4956 15.082 15.142L15.1533 15.089C14.7433 14.6911 14.7344 14.1165 14.3511 13.922C13.9143 13.533 14.3778 13.4269 13.6469 13.0821C13.5845 12.9937 13.5132 12.9053 13.4241 12.8258C13.0943 12.6755 13.1388 12.8611 12.7733 12.7374C12.809 12.649 12.2831 12.6755 12.5059 12.5959C12.0335 12.5517 11.6057 12.755 11.258 13.0026C10.9015 13.259 10.6073 13.5684 10.2329 13.9132C10.2329 14.1519 9.91205 14.5762 9.97444 14.7088C9.93879 14.7088 9.85856 14.8414 9.80508 14.9387C9.73377 15.0271 9.6803 15.0624 9.71595 14.8856C9.71595 14.8503 9.74269 14.8061 9.76943 14.8237L9.71595 14.7442C9.4218 14.9563 9.45745 15.31 9.16329 15.531C9.26134 15.4956 9.3594 15.3895 9.33265 15.4956L9.07416 15.699V15.5929C8.94937 15.6813 8.80675 15.752 8.65522 15.805L8.76218 15.8581C8.52151 15.92 8.40563 15.8139 8.1917 16.0084C8.09365 16.1145 8.44129 16.0526 8.20953 16.1587C7.87081 16.1852 7.38055 16.141 7.00618 16.0349C7.024 16.141 6.91704 16.1233 6.80116 16.1145V16.0261C6.37331 16.0261 6.72986 15.805 6.32874 15.7432L6.39114 15.699C6.32875 15.7432 6.26634 15.7785 6.21286 15.8139C5.79391 15.752 6.15047 15.5752 5.67804 15.4868C5.82958 15.5752 5.59782 15.699 5.48194 15.4956L5.57999 15.4779C5.49085 15.3984 5.42845 15.3984 5.3928 15.3277C5.46411 15.3277 5.53542 15.31 5.36606 15.1243C5.42845 15.142 5.50868 15.1774 5.55325 15.1774C5.42846 15.1243 5.26801 14.9917 5.10757 14.921C4.90255 14.5674 4.30532 14.3287 4.20727 14.1607C4.20727 14.1607 4.02009 14.0458 3.77051 13.975C3.52984 13.8955 3.22676 13.8778 3.1198 13.9397C3.32481 13.869 2.78109 13.8159 2.93262 13.7275C2.79891 13.7717 2.54041 13.8336 2.273 13.9308C2.0145 14.0281 1.76492 14.1695 1.60447 14.2226L1.64904 14.1784C1.11422 14.4878 0.864639 15.0182 0.775502 15.3011C0.641796 15.6371 0.525917 15.9553 0.356557 16.2913C0.463521 16.2913 0.285244 16.6537 0.436777 16.6007C0.338726 17.3521 -0.169356 17.9003 0.213934 18.2362C0.196107 18.5721 0.0713086 18.6252 0.02674 18.802V18.7224C0.00891262 19.3766 0.00891371 19.5534 0 20.0308C0.062396 20.2695 0.249588 20.2961 0.240674 20.7116C0.151537 20.579 0.187189 20.7558 0.196103 20.9149C0.178275 20.8176 0.142624 20.7823 0.115883 21.0033C0.142624 21.0298 0.160458 21.074 0.178285 21.1094C0.178285 21.1094 0.178281 21.1182 0.160454 21.1094C0.240677 21.3658 0.249588 21.3127 0.240674 21.1978C0.249588 21.1978 0.267423 21.1978 0.276336 21.1536C0.231768 21.4365 0.436777 21.905 0.311985 21.9669C0.552655 22.7449 0.882457 23.24 1.23901 23.7881C1.21226 23.8853 1.09639 23.7792 0.980514 23.6113L1.22119 24.0268C1.14096 24.071 1.05182 23.8058 0.962682 23.682C1.02508 23.9737 1.18553 24.2301 1.41729 24.4511C1.64905 24.6721 1.82731 24.9374 2.02342 25.2114L2.17495 25.2556L2.19278 25.291C2.19278 25.291 2.36214 25.3263 2.44236 25.3882C2.45128 25.512 2.30865 25.5208 2.54932 25.7507C2.69194 25.9982 3.20003 26.1574 3.50309 26.3253C3.35156 26.2104 3.43179 26.2016 3.50309 26.2192C3.6368 26.3076 3.68136 26.4403 3.81507 26.4491L3.77942 26.5552C3.7705 26.4403 4.2251 26.6259 4.30532 26.6082C4.35881 26.7232 4.03792 26.5729 3.97552 26.6082C4.59948 26.8558 4.27859 26.7585 4.91146 26.9707C5.27692 26.9707 4.88472 26.8558 5.0719 26.8027C5.37497 26.8558 5.67804 26.8469 6.00784 26.9884L5.9187 26.8646C6.48027 26.9088 6.81009 26.8911 7.18446 27.0326C9.26136 26.6082 9.36832 26.2281 9.07416 26.1132C8.7711 25.954 8.02234 25.9363 8.02234 25.9363C7.64796 25.9363 7.32707 25.8745 7.03292 25.8479C6.73876 25.8126 6.44462 25.8479 6.1683 25.8037C5.89197 25.7684 5.5889 25.733 5.2591 25.6888C4.95603 25.5916 4.59948 25.4943 4.21619 25.3175L4.18053 25.3705Z" fill="#8E8E8E"/>
<path d="M66.1288 51.0696L66.1466 51.0254C66.1466 51.0254 66.1199 51.0519 66.1288 51.0696Z" fill="#8E8E8E"/>
<path d="M66.6543 49.2754L66.6721 49.2842L66.6543 49.2754Z" fill="#8E8E8E"/>
<path d="M67.4312 50.7428C67.253 50.3538 67.3599 50.1593 67.0658 49.8233C66.9766 49.6377 66.8162 49.4609 66.6557 49.2752C66.4686 49.2752 66.4953 49.0189 66.3081 49.0012L66.3438 48.9128C66.2814 48.9039 66.2279 48.8774 66.2368 48.8155H66.2546C66.1655 48.789 66.1477 48.7094 66.1031 48.7006L66.1209 48.6829L66.0585 48.6299H66.0942C65.9694 48.568 65.8892 48.4796 65.8446 48.3912L65.7733 48.4619C65.7109 48.2232 65.497 48.3116 65.4613 48.0729L65.4791 48.0552C65.1048 48.0729 65.3098 47.6486 64.9443 47.6574C64.9889 47.6574 64.9711 47.6044 64.9889 47.5867C64.873 47.5336 64.766 47.4629 64.6323 47.622C64.5699 47.569 64.6145 47.5336 64.6591 47.4629C64.6056 47.5336 64.5254 47.516 64.463 47.4806H64.5076L64.3382 47.3745L64.2669 47.5336C64.2134 47.4364 64.3738 47.348 64.2669 47.3303L64.1867 47.4452C64.0886 47.348 64.1421 47.127 64.0797 46.9679C63.6251 46.5877 62.9209 46.6319 62.5287 46.2252L62.5465 46.1191C62.5911 45.9777 62.3237 46.2783 62.3593 46.1368L62.2791 46.181C62.2791 46.181 62.2435 46.1103 62.288 46.0926C62.2346 46.0661 62.2256 46.0926 62.1722 46.1191L62.1454 46.0131C61.9493 45.8716 61.7086 45.9954 61.4947 45.8981C61.263 45.6417 60.6836 45.7125 60.3716 45.7832C59.9348 45.96 59.4446 45.3412 58.99 45.6241C58.9721 45.6064 58.9365 45.6506 58.9365 45.6683C58.8028 45.6683 58.6602 45.6771 58.5264 45.686C58.5264 45.686 58.0273 45.7213 57.7599 45.9335C57.4746 46.1368 57.4925 46.4374 58.2501 46.9325V46.9679C58.4462 47.0121 58.5621 47.0297 58.678 46.8441C58.7225 47.0474 58.8384 46.8441 58.883 46.906V46.9236C58.99 46.7557 59.1237 47.0474 59.2306 46.8971C59.2306 46.9148 59.2306 46.9678 59.2039 46.9767C59.2841 46.9502 59.3911 46.8971 59.4 47.0209C59.5961 46.9855 59.8546 47.0651 59.9972 46.8794V46.9148C60.0685 46.791 60.0774 46.8971 60.1666 46.8441C60.1666 46.8618 60.1666 46.8706 60.1666 46.8794C60.2557 46.7645 60.3983 46.8883 60.4696 46.8441V46.9236H60.6212L60.5677 46.8971C60.6212 46.6849 60.6568 47.0474 60.7994 46.9325C60.8975 46.9767 61.1025 46.5347 61.2006 46.6673C61.2808 46.5789 61.1114 46.8175 61.2095 46.7557C61.1827 46.8617 61.156 46.8176 61.156 46.906C61.2451 46.8706 61.254 47.0474 61.361 47.0032L61.3432 47.0916C61.5036 46.9678 61.5304 47.2684 61.6552 47.1446C61.8067 47.1093 61.6552 47.4187 61.8334 47.3038V47.4364C61.8869 47.4718 61.9315 47.3126 61.9671 47.3922C61.9404 47.4629 62.0206 47.4718 61.9671 47.5248C62.0474 47.6751 62.297 47.4718 62.3772 47.737C62.4752 47.622 62.5198 47.737 62.6 47.6486C62.5733 47.7104 62.7605 47.737 62.6 47.8165C62.5911 47.8165 62.5733 47.8165 62.5822 47.79L62.5287 47.8607C62.5465 48.0464 62.7337 47.8607 62.8139 47.9403C62.805 47.9049 62.7605 47.8873 62.8139 47.8519L62.8942 47.9049L62.8407 47.958L62.9387 48.0641L62.9655 47.9757C63.0011 48.0464 62.9476 48.1967 63.0814 48.1171C63.1527 48.0729 63.0814 47.9845 63.1705 47.9934C63.2151 48.0994 63.2775 48.2497 63.3666 48.3381C63.4112 48.2497 63.4379 48.2674 63.4825 48.2674L63.4379 48.3381C63.6162 48.3116 63.3666 48.515 63.5181 48.515L63.4736 48.5591L63.6073 48.4354C63.8034 48.3647 63.5449 48.621 63.7855 48.5061C63.741 48.4884 63.8836 48.3381 63.9103 48.4089L63.8479 48.4619C63.8479 48.4619 63.9192 48.4442 63.9282 48.4796C63.8836 48.5061 63.839 48.568 63.8925 48.5857L63.8034 48.6476L63.9727 48.5857C63.9727 48.7006 64.1332 48.6917 64.0708 48.7978C64.0708 48.7978 64.1421 48.9481 64.258 48.8774C64.1777 48.9128 64.2223 48.9923 64.1332 49.0454C64.2223 49.0012 64.3649 49.0277 64.3293 49.1338H64.3114C64.356 49.3283 64.6145 49.2576 64.6323 49.4521C64.7037 49.3813 64.7215 49.4786 64.8017 49.3725C65.0156 49.4167 64.7839 49.7703 65.1404 49.567C65.2028 49.6112 65.1226 49.6996 65.1315 49.735H65.1048C65.2206 49.8234 65.2474 49.8587 65.3009 49.9471C65.3633 49.9648 65.5237 49.8676 65.5415 49.9736C65.4613 49.9913 65.497 50.0178 65.5148 50.0444C65.4881 50.0355 65.4613 50.0444 65.4524 50.1062C65.4791 50.1062 65.497 50.1062 65.5059 50.1062C65.5059 50.1062 65.5059 50.1063 65.4881 50.1151C65.5415 50.1505 65.5594 50.1328 65.5505 50.0974C65.5594 50.0974 65.5683 50.0797 65.5861 50.0621C65.5415 50.1681 65.6842 50.2035 65.5861 50.2742C65.7109 50.4157 65.8981 50.4687 66.0229 50.5836C65.9783 50.6367 65.907 50.6278 65.8624 50.6013L65.9427 50.6897C65.8624 50.7339 65.8624 50.6632 65.8268 50.6455C65.7644 50.84 66.1031 50.8046 66.0675 51.008H66.1477C66.1833 50.9903 66.2457 50.9903 66.2725 51.008C66.2101 51.0699 66.1031 51.1052 66.1566 51.1671C66.1209 51.2644 66.2814 51.2997 66.3616 51.3439C66.3527 51.2997 66.3972 51.2909 66.4329 51.2909C66.4596 51.3262 66.3973 51.3881 66.4418 51.3881L66.3438 51.45C66.424 51.3793 66.4953 51.4765 66.5399 51.4677C66.4775 51.5296 66.4507 51.45 66.3883 51.4677L66.522 51.6622C66.6379 51.6887 66.6023 51.5915 66.7092 51.5826C66.7627 51.6357 66.8697 51.6533 66.8608 51.7594L66.9321 51.6887C67.0747 51.7683 67.1014 51.8478 67.0658 51.9804C68.2959 52.449 68.1265 51.6003 68.1265 51.6003C68.0998 51.1406 67.7432 51.1052 67.4312 50.7339V50.7428Z" fill="#8E8E8E"/>
<path d="M67.0929 44.4222V44.3691C67.0929 44.3691 67.0729 44.4045 67.0929 44.4222Z" fill="#8E8E8E"/>
<path d="M68.2062 43.6785C67.9031 43.3691 67.9387 43.1481 67.5465 42.9359C67.4039 42.7945 67.19 42.6795 66.9761 42.5558C66.7978 42.6088 66.7354 42.3701 66.5571 42.4055V42.3082C66.5036 42.3171 66.4412 42.3082 66.4323 42.2552L66.4502 42.2375C66.361 42.2552 66.3164 42.1845 66.2719 42.1933L66.2897 42.1756L66.2184 42.1403L66.2451 42.1137C66.1114 42.1137 66.0134 42.0519 65.9332 41.9811L65.8886 42.0784C65.746 41.8751 65.5766 42.0253 65.4607 41.8132V41.7955C65.1309 41.9369 65.1755 41.4684 64.8368 41.601C64.8813 41.5833 64.8368 41.548 64.8546 41.5214C64.7298 41.5038 64.605 41.4861 64.5337 41.6717C64.4535 41.6452 64.4891 41.5921 64.507 41.5126C64.4802 41.5921 64.4 41.6098 64.3287 41.5921L64.3643 41.5656L64.1772 41.5303L64.1593 41.6982C64.0791 41.6187 64.195 41.4949 64.088 41.5037L64.0524 41.6364C63.9276 41.5745 63.9008 41.3535 63.7939 41.2209C63.2323 41.0175 62.5905 41.2916 62.0824 41.0352L62.0646 40.9291C62.0646 40.7788 61.9131 41.1501 61.8952 41.0087L61.8329 41.0794C61.8329 41.0794 61.7794 41.0264 61.8061 40.991C61.7526 40.991 61.7437 41.0087 61.7081 41.0529L61.6457 40.9556C61.4139 40.8937 61.2267 41.0882 60.995 41.0617C60.6919 40.9026 60.166 41.1501 59.8986 41.3269C59.5509 41.6364 58.8735 41.2209 58.5437 41.6364C58.5259 41.6187 58.508 41.6805 58.517 41.6982C58.3833 41.7336 58.2674 41.7955 58.1337 41.8485C58.1337 41.8485 57.6791 42.0519 57.4919 42.3348C57.2958 42.6177 57.4117 42.8917 58.2941 43.1127V43.1481C58.508 43.1216 58.6239 43.0951 58.6685 42.8829C58.7755 43.0597 58.82 42.8298 58.8913 42.8829V42.9006C58.9359 42.7061 59.1677 42.9359 59.2122 42.7591C59.2122 42.7768 59.2301 42.8298 59.2122 42.8387C59.2746 42.7856 59.3638 42.7061 59.4083 42.8122C59.5777 42.7149 59.854 42.6972 59.9164 42.4762V42.5116C59.9521 42.3701 59.9966 42.4674 60.059 42.3878C60.059 42.4055 60.0769 42.4055 60.0769 42.4143C60.1214 42.2729 60.2997 42.3436 60.3443 42.2817L60.3621 42.3613L60.5136 42.3082H60.4512C60.4334 42.0872 60.5938 42.4143 60.683 42.264C60.7899 42.2729 60.8345 41.7866 60.9682 41.8751C61.0128 41.769 60.9415 42.043 61.0128 41.9546C61.0306 42.0695 60.9861 42.0342 61.0128 42.1137C61.0841 42.043 61.1465 42.2198 61.2356 42.1314V42.2198C61.3604 42.0519 61.4852 42.3259 61.5565 42.1668C61.6813 42.0872 61.6457 42.4232 61.7794 42.2552L61.8329 42.379C61.8863 42.3967 61.8774 42.2375 61.9398 42.2906C61.9398 42.3613 62.02 42.3524 61.9755 42.4232C62.1092 42.5381 62.2696 42.264 62.4301 42.4851C62.4836 42.3436 62.5638 42.4408 62.6083 42.3348C62.6083 42.3966 62.7955 42.3613 62.6707 42.4851C62.6618 42.4939 62.644 42.4851 62.6529 42.4674L62.6262 42.5558C62.7064 42.7237 62.8223 42.4939 62.9203 42.5381C62.8936 42.5027 62.8579 42.5027 62.8936 42.4497L62.9827 42.4762L62.9471 42.5469L63.0808 42.6088V42.5204C63.1432 42.5735 63.1343 42.7326 63.2323 42.6177C63.2858 42.5558 63.1877 42.485 63.268 42.4762C63.3482 42.5558 63.4641 42.6884 63.5621 42.7414C63.5799 42.6442 63.6067 42.653 63.6423 42.6442L63.6245 42.7326C63.776 42.6442 63.6245 42.9271 63.7582 42.8652L63.7315 42.9182L63.8117 42.7503C63.9721 42.6177 63.8117 42.9448 64.0078 42.7503C63.9543 42.7503 64.0435 42.5558 64.0969 42.6177L64.0524 42.6972C64.0524 42.6972 64.1148 42.6619 64.1326 42.6884C64.0969 42.7238 64.0791 42.8033 64.1326 42.8033L64.0613 42.8917L64.2039 42.7768C64.2395 42.8829 64.3911 42.821 64.3733 42.9448C64.3733 42.9448 64.4891 43.0597 64.5783 42.9448C64.5159 43.0066 64.5783 43.0685 64.5248 43.1481C64.5961 43.0774 64.7387 43.0597 64.7387 43.1658H64.7298C64.8368 43.3426 65.0596 43.1923 65.1398 43.3691C65.1844 43.2807 65.229 43.3691 65.2736 43.2365C65.4875 43.2011 65.3894 43.6166 65.6568 43.3072C65.7371 43.3337 65.6836 43.4398 65.7014 43.4752H65.6747C65.8173 43.5282 65.8529 43.5459 65.9332 43.6255C65.9956 43.6255 66.1204 43.4752 66.1649 43.5725C66.0936 43.6167 66.1382 43.6255 66.1649 43.6432C66.1382 43.6432 66.1203 43.6608 66.1203 43.7227C66.1382 43.705 66.156 43.705 66.1738 43.6962C66.1738 43.6962 66.1738 43.705 66.1649 43.7139C66.2273 43.7316 66.2362 43.7051 66.2184 43.6785C66.2184 43.6785 66.2362 43.6608 66.2362 43.6343C66.2273 43.7492 66.3788 43.7316 66.3075 43.8377C66.4769 43.9349 66.6641 43.9172 66.8245 43.9791C66.7978 44.041 66.7265 44.0587 66.6819 44.0498L66.7889 44.1029C66.7265 44.1736 66.6997 44.1029 66.6641 44.1029C66.6641 44.3062 66.9761 44.1559 67.0117 44.3681L67.083 44.3327V44.3504C67.083 44.3504 67.1722 44.2974 67.1989 44.3062C67.1632 44.3858 67.0741 44.4565 67.1365 44.5007C67.1365 44.598 67.297 44.5803 67.3861 44.5979C67.3594 44.5626 67.4039 44.5361 67.4307 44.5184C67.4663 44.5449 67.4307 44.6156 67.4752 44.6068L67.4039 44.6952C67.4574 44.6068 67.5555 44.6687 67.6 44.6422C67.5644 44.7217 67.5109 44.6598 67.4574 44.704C67.5822 44.7925 67.5198 44.7482 67.6535 44.8367C67.7694 44.8278 67.707 44.7482 67.805 44.6952C67.8763 44.7217 67.9833 44.7129 68.0011 44.819L68.0457 44.7217C68.2062 44.7482 68.2596 44.8101 68.2686 44.9516C69.5878 44.9781 69.1421 44.2355 69.1421 44.2355C68.9638 43.8111 68.6162 43.8996 68.1883 43.652L68.2062 43.6785Z" fill="#8E8E8E"/>
<path d="M5.42773 52.0352H5.48121C5.48121 52.0352 5.44556 52.0175 5.42773 52.0352Z" fill="#8E8E8E"/>
<path d="M7.26478 51.7246H7.25586L7.26478 51.7439V51.7246Z" fill="#8E8E8E"/>
<path d="M6.32825 53.016C6.59566 52.6801 6.8185 52.6801 6.97894 52.2645C7.10373 52.0877 7.18396 51.8844 7.25526 51.7253C7.18396 51.575 7.38006 51.5219 7.34441 51.3716L7.44246 51.3893C7.43355 51.3363 7.43354 51.2833 7.49594 51.2833L7.51377 51.3009C7.49594 51.2214 7.56726 51.1948 7.55834 51.1506L7.57616 51.1683L7.61182 51.1064L7.62965 51.1418C7.62965 51.0269 7.69204 50.9473 7.77226 50.9031L7.69204 50.8412C7.90597 50.7882 7.7901 50.5937 8.00403 50.5583L8.02184 50.576C7.98619 50.2401 8.38731 50.4876 8.36948 50.1516C8.36948 50.1958 8.41405 50.187 8.43188 50.2047C8.48536 50.1163 8.56559 50.0456 8.43188 49.8864C8.49428 49.8422 8.52102 49.8953 8.5745 49.9572C8.52102 49.8864 8.54775 49.8157 8.59232 49.7803V49.8245L8.7082 49.7008L8.58341 49.5859C8.68146 49.5682 8.71712 49.7361 8.77061 49.6566L8.69037 49.5417C8.81516 49.4975 8.99345 49.6301 9.14498 49.6477C9.56393 49.4356 9.87591 48.8786 10.4018 48.9405L10.4553 49.0289C10.5177 49.1703 10.491 48.7725 10.5533 48.9051L10.5801 48.8256C10.5801 48.8256 10.6425 48.8609 10.6336 48.9051C10.6781 48.8963 10.6692 48.8698 10.687 48.8167L10.7673 48.8874C10.9723 48.9051 11.0703 48.6841 11.2754 48.6664C11.5517 48.799 11.9528 48.5338 12.2113 48.4101C12.5768 48.136 13.0224 48.7283 13.3879 48.4896C13.3968 48.5073 13.4325 48.4631 13.4325 48.4454C13.5484 48.4454 13.6642 48.4808 13.7712 48.4985C13.7712 48.4985 14.1812 48.5515 14.4665 48.4719C14.7428 48.3747 14.9745 48.1183 14.3684 47.3669L14.3862 47.3403C14.1812 47.2166 14.0386 47.1989 13.8693 47.3403C13.8693 47.137 13.691 47.2961 13.6464 47.2254V47.2077C13.5127 47.3492 13.379 47.0663 13.2453 47.2077C13.2453 47.1901 13.2542 47.137 13.2899 47.137C13.1918 47.1635 13.067 47.1989 13.0581 47.084C12.8263 47.1105 12.5054 47.084 12.3717 47.2785V47.2431C12.3093 47.3757 12.2737 47.2696 12.1846 47.3492C12.1846 47.3315 12.1667 47.3315 12.1667 47.3227C12.0954 47.4553 11.9082 47.3757 11.8458 47.4376L11.828 47.358L11.6497 47.4022H11.721C11.73 47.6232 11.5606 47.2962 11.4625 47.4641C11.3377 47.4641 11.3199 47.9503 11.1773 47.8708C11.1417 47.9769 11.1862 47.7028 11.1238 47.7912C11.0971 47.6851 11.1506 47.7117 11.106 47.6321C11.0347 47.7028 10.9366 47.5614 10.8564 47.6586L10.8297 47.5791C10.7405 47.7735 10.5355 47.5437 10.4909 47.7117C10.3751 47.8177 10.3127 47.4906 10.2235 47.7117L10.1255 47.6232C10.0542 47.6232 10.1255 47.7735 10.0453 47.747C10.0185 47.6763 9.9383 47.7205 9.94721 47.6409C9.74219 47.5879 9.69763 47.915 9.4213 47.8266C9.43913 47.9769 9.30542 47.9503 9.32325 48.0564C9.2876 48.0034 9.11824 48.1449 9.17172 47.968C9.17172 47.9504 9.19846 47.9504 9.20737 47.968L9.18063 47.8885C8.98453 47.7912 9.02019 48.0741 8.8954 48.1095C8.93997 48.1095 8.98453 48.083 8.98453 48.1537L8.87757 48.1979L8.85974 48.1183L8.69037 48.1625L8.75278 48.2244C8.65472 48.2244 8.54776 48.1095 8.52993 48.2686C8.52993 48.3482 8.66364 48.3305 8.60124 48.4012C8.47645 48.4012 8.28926 48.4277 8.14664 48.4808C8.21795 48.5603 8.18229 48.578 8.16447 48.6134L8.11099 48.5427C8.0575 48.7283 7.95055 48.4101 7.87924 48.5869L7.8525 48.525L7.93272 48.7018C7.93272 48.9228 7.76335 48.6045 7.79009 48.8874C7.82575 48.8344 7.93272 49.0201 7.8525 49.0377L7.81683 48.9582C7.81683 48.9582 7.81683 49.0289 7.77226 49.0377C7.76335 48.9847 7.70096 48.9317 7.6653 48.9847L7.62965 48.8786V49.0731C7.51377 49.0554 7.47811 49.2322 7.38006 49.1703C7.38006 49.1703 7.20178 49.2587 7.25526 49.3825C7.22852 49.2941 7.13048 49.3472 7.08592 49.2588C7.11266 49.356 7.05917 49.5151 6.9522 49.4798V49.4621C6.72936 49.5505 6.80067 49.8245 6.57783 49.8864C6.65805 49.9483 6.55109 49.9837 6.66697 50.0544C6.64023 50.2843 6.23019 50.1693 6.50652 50.4699C6.47086 50.5495 6.3639 50.4964 6.31934 50.5141V50.4876C6.23911 50.6379 6.21236 50.6821 6.14105 50.7793C6.14105 50.8501 6.2926 50.965 6.19455 51.0269C6.14998 50.9561 6.14105 51.0004 6.11431 51.0269C6.11431 51.0004 6.09649 50.9738 6.02518 50.9915C6.04301 51.0092 6.04301 51.0269 6.05192 51.0445C6.05192 51.0445 6.043 51.0445 6.03409 51.0445C6.01626 51.1153 6.04301 51.1153 6.06975 51.0976C6.06975 51.0976 6.09648 51.1153 6.11431 51.1153C5.98952 51.1153 6.01627 51.2833 5.90039 51.2214C5.82017 51.3982 5.86473 51.5838 5.82908 51.7518C5.76668 51.7341 5.73103 51.6722 5.73103 51.6192L5.69537 51.7253C5.61514 51.6722 5.68646 51.6457 5.68646 51.6015C5.48144 51.6369 5.67754 51.9198 5.47252 51.9816L5.51709 52.0524H5.49928C5.49928 52.0524 5.56167 52.1319 5.56167 52.1585C5.48144 52.1319 5.40122 52.0612 5.36556 52.1319C5.26751 52.1408 5.31209 52.2999 5.30317 52.3972C5.33883 52.3706 5.37448 52.3972 5.38339 52.4325C5.36557 52.4679 5.28534 52.4414 5.29425 52.4856L5.1962 52.4325C5.29425 52.4767 5.24078 52.5828 5.27643 52.6182C5.19621 52.5916 5.24968 52.5298 5.1962 52.4856C5.12489 52.627 5.16055 52.5563 5.08924 52.6977C5.11598 52.8127 5.18728 52.7419 5.24968 52.8215C5.23185 52.8922 5.2586 52.9983 5.16055 53.0337L5.2586 53.0602C5.2586 53.2193 5.19621 53.2812 5.0625 53.3077C5.22295 54.6073 5.90039 54.0592 5.90039 54.0592C6.30151 53.8205 6.15889 53.4934 6.34608 53.0425L6.32825 53.016Z" fill="#8E8E8E"/>
<path d="M4.07422 46.147H4.1277C4.1277 46.147 4.09205 46.137 4.07422 46.147Z" fill="#8E8E8E"/>
<path d="M4.7432 47.3035C5.07301 47.0294 5.29584 47.0825 5.54543 46.7023C5.70587 46.552 5.82176 46.3664 5.93763 46.2338C5.90198 46.0658 6.107 46.057 6.09809 45.9067L6.18722 45.942C6.18722 45.889 6.19613 45.8359 6.25853 45.8536L6.27636 45.8713C6.27636 45.7917 6.34767 45.7829 6.34767 45.7387L6.36549 45.7564L6.41006 45.7033L6.42789 45.7387C6.45463 45.6238 6.52594 45.5619 6.62399 45.5354L6.55268 45.4558C6.76661 45.4469 6.70422 45.2348 6.91815 45.2436V45.2701C6.96272 44.9342 7.31035 45.2702 7.36383 44.9254C7.36383 44.9696 7.39949 44.9696 7.4084 44.9872C7.47971 44.9165 7.56884 44.8547 7.4797 44.6778C7.55101 44.6513 7.55992 44.7044 7.60449 44.7751C7.56884 44.6955 7.6045 44.6336 7.65799 44.6071V44.6513L7.78278 44.5541L7.68473 44.4126C7.78278 44.4126 7.79169 44.5894 7.85409 44.5187L7.8006 44.3949C7.92539 44.3773 8.07692 44.5452 8.21954 44.5983C8.67414 44.4833 9.102 44.006 9.60117 44.1739L9.63683 44.2712C9.67249 44.4214 9.72597 44.0325 9.76162 44.1651L9.80618 44.0855C9.80618 44.0855 9.85967 44.1386 9.84184 44.1739C9.88641 44.1739 9.88641 44.1474 9.91315 44.0944L9.97554 44.1827C10.1716 44.2358 10.3143 44.0502 10.5193 44.0678C10.7599 44.2535 11.2056 44.0855 11.482 44.0148C11.892 43.8291 12.204 44.501 12.614 44.3419C12.614 44.3684 12.6675 44.3242 12.6675 44.3065C12.7745 44.333 12.8814 44.3861 12.9884 44.4303C12.9884 44.4303 13.3717 44.5717 13.6747 44.5541C13.96 44.5187 14.2452 44.3154 13.8173 43.449L13.8352 43.4225C13.6658 43.2633 13.5232 43.2103 13.3271 43.3164C13.3717 43.1131 13.1577 43.2368 13.131 43.1573V43.1396C12.9706 43.2545 12.9082 42.9451 12.7388 43.0512C12.7477 43.0335 12.7655 42.9804 12.7923 42.9893C12.6942 42.9893 12.5605 43.007 12.5783 42.8832C12.3466 42.8567 12.0346 42.7594 11.8653 42.9274L11.8831 42.892C11.785 43.007 11.7761 42.892 11.6781 42.9539C11.6781 42.9362 11.6781 42.9274 11.6781 42.9274C11.58 43.0423 11.4196 42.9274 11.3393 42.9716V42.892H11.1611L11.2235 42.9185C11.1878 43.1307 11.0987 42.7771 10.9561 42.9185C10.8313 42.892 10.7154 43.3694 10.5906 43.2633C10.5371 43.3606 10.6352 43.0954 10.5549 43.1749C10.5549 43.06 10.5906 43.1042 10.5728 43.0158C10.4925 43.0689 10.4301 42.9097 10.3232 42.9893V42.9009C10.1806 43.0688 10.0379 42.8036 9.95773 42.9628C9.82402 43.0423 9.83293 42.7152 9.69922 42.9009L9.62791 42.7948C9.5566 42.786 9.60117 42.9451 9.52095 42.9009C9.52095 42.8302 9.4229 42.8567 9.44964 42.7771C9.26245 42.6798 9.14657 42.9893 8.88807 42.8478C8.87024 42.9981 8.74545 42.9362 8.73654 43.0512C8.71871 42.9893 8.52261 43.0865 8.60284 42.9274C8.60284 42.9097 8.62957 42.9097 8.63849 42.9274V42.839C8.46021 42.7064 8.43348 42.9893 8.30868 42.9981C8.35325 43.0158 8.39782 42.9981 8.37999 43.06L8.26411 43.0865V43.007L8.08584 43.0158L8.13932 43.0954C8.04127 43.0777 7.96996 42.9362 7.91648 43.0954C7.89865 43.1749 8.03236 43.1838 7.96105 43.2368C7.83626 43.2191 7.64907 43.1926 7.49753 43.2191C7.55101 43.3075 7.51536 43.3164 7.4797 43.3518L7.44405 43.2722C7.35492 43.4401 7.31035 43.113 7.2123 43.2722V43.2103L7.23904 43.3959C7.19447 43.617 7.09642 43.2634 7.06077 43.5462C7.10534 43.5109 7.16773 43.7054 7.08751 43.7054L7.06968 43.617C7.06968 43.617 7.04294 43.6877 7.0162 43.6877C7.0162 43.6346 6.97162 43.5728 6.92706 43.6081V43.4932L6.88248 43.6789C6.75769 43.6346 6.6953 43.8026 6.60616 43.7142C6.60616 43.7142 6.41007 43.7584 6.44572 43.891C6.43681 43.8026 6.32984 43.8291 6.3031 43.7319C6.3031 43.838 6.22288 43.9706 6.12483 43.9175V43.8999C5.89307 43.9352 5.90198 44.2181 5.67022 44.2358C5.74153 44.3154 5.62566 44.3242 5.72371 44.4215C5.64349 44.6336 5.27802 44.4391 5.47412 44.7927C5.42063 44.8635 5.3315 44.7927 5.28694 44.7927V44.7662C5.17997 44.8988 5.14432 44.9342 5.05518 45.0138C5.03736 45.0845 5.16215 45.2259 5.05518 45.2701C5.02844 45.1906 5.00169 45.2348 4.97495 45.2701C4.98386 45.2436 4.97495 45.2171 4.89473 45.2171C4.90364 45.2348 4.90364 45.2613 4.90364 45.2701C4.90364 45.2701 4.89474 45.2701 4.88582 45.2613C4.85908 45.3232 4.88582 45.332 4.91256 45.3232C4.91256 45.332 4.93039 45.3409 4.95713 45.3497C4.84126 45.332 4.82342 45.4912 4.72537 45.4116C4.60949 45.5707 4.61841 45.7652 4.53819 45.9155C4.47579 45.8802 4.45796 45.8183 4.47579 45.7652L4.4134 45.8625C4.34209 45.8006 4.41339 45.7741 4.43121 45.7387C4.2262 45.7387 4.35099 46.0481 4.13706 46.0658L4.17272 46.1365H4.15489C4.15489 46.1365 4.19947 46.2249 4.19055 46.2515C4.11033 46.2073 4.04793 46.1188 4.00336 46.1807C3.90531 46.1719 3.91422 46.331 3.88748 46.4283C3.93205 46.4106 3.94988 46.4459 3.95879 46.4813C3.93205 46.5078 3.86074 46.4725 3.86074 46.5167L3.78052 46.446C3.86965 46.5078 3.78943 46.5962 3.81617 46.6405C3.73594 46.5962 3.80726 46.552 3.77161 46.499C3.67356 46.6228 3.71813 46.5609 3.62008 46.6846C3.62008 46.7996 3.70921 46.7465 3.75378 46.8438C3.71812 46.9145 3.72704 47.0206 3.62008 47.0294L3.70921 47.0736C3.67355 47.2239 3.60224 47.2769 3.46853 47.2769C3.34374 48.5765 4.12815 48.1876 4.12815 48.1876C4.57384 48.0461 4.50252 47.6925 4.77885 47.2858L4.7432 47.3035Z" fill="#8E8E8E"/>
<path d="M14.4073 34.7405V34.6875C14.4073 34.6875 14.3873 34.7229 14.4073 34.7405Z" fill="#8E8E8E"/>
<path d="M13.9238 32.9639H13.9327L13.9416 32.9551L13.9238 32.9639Z" fill="#8E8E8E"/>
<path d="M15.3145 33.7598C14.9491 33.53 14.9313 33.3089 14.4945 33.1852C14.2984 33.0791 14.0934 33.026 13.924 32.9642C13.7725 33.0526 13.7101 32.8581 13.5585 32.9111V32.8139C13.5585 32.8139 13.4605 32.8316 13.4605 32.7785L13.4783 32.7608C13.3981 32.7874 13.3714 32.7255 13.3268 32.7343L13.3446 32.7166L13.2822 32.6901L13.309 32.6636C13.1931 32.6724 13.1039 32.6194 13.0594 32.5398L13.0059 32.6282C12.9257 32.4249 12.7474 32.5575 12.6939 32.3453L12.7117 32.3276C12.373 32.3984 12.5869 31.974 12.2482 32.0182C12.2928 32.0182 12.275 31.974 12.2928 31.9563C12.2037 31.9121 12.1145 31.8414 11.9719 31.9829C11.9184 31.9298 11.9719 31.8945 12.0254 31.8326C11.963 31.8945 11.8917 31.8768 11.8471 31.8326H11.8917L11.7491 31.7265L11.651 31.8591C11.6243 31.7618 11.7847 31.7088 11.7045 31.6734L11.5975 31.7618C11.5351 31.6469 11.651 31.4524 11.6599 31.3021C11.4103 30.9131 10.822 30.6479 10.8309 30.1263L10.9112 30.0645C11.0449 29.9937 10.6527 30.0556 10.7775 29.976L10.6883 29.9584C10.6883 29.9584 10.7151 29.8965 10.7596 29.9053C10.7418 29.8611 10.724 29.87 10.6616 29.8611L10.724 29.7727C10.724 29.5694 10.4922 29.4898 10.4476 29.2953C10.5546 29.0036 10.2515 28.6411 10.1 28.4024C9.78803 28.0665 10.3496 27.5714 10.0644 27.2355C10.0822 27.2266 10.0376 27.1913 10.0198 27.1913C10.0198 27.0763 10.0376 26.9614 10.0376 26.8465C10.0376 26.8465 10.0554 26.4398 9.94848 26.1658C9.8326 25.9005 9.54737 25.6972 8.84319 26.3691H8.80753C8.70056 26.5724 8.70056 26.7139 8.86101 26.8642C8.65599 26.8907 8.83428 27.041 8.77188 27.094H8.75405C8.9145 27.2178 8.63816 27.3681 8.7897 27.4918C8.77187 27.4918 8.71839 27.4918 8.70948 27.4565C8.74513 27.5537 8.79862 27.6775 8.67383 27.6952C8.7184 27.9162 8.7273 28.2433 8.93232 28.3582H8.89667C9.03038 28.4113 8.93233 28.4555 9.02146 28.535C9.00363 28.535 9.00364 28.5527 8.99472 28.5527C9.13734 28.6146 9.07494 28.8003 9.13733 28.8621L9.05711 28.8887L9.11059 29.0566V28.9859C9.32452 28.9505 9.01255 29.1539 9.19082 29.2334C9.19974 29.3572 9.6989 29.3307 9.62759 29.4721C9.74347 29.4898 9.45823 29.4721 9.55628 29.534C9.44931 29.5694 9.47606 29.5163 9.39584 29.5694C9.46715 29.6313 9.33344 29.7374 9.44932 29.8169L9.3691 29.8523C9.57411 29.923 9.36018 30.144 9.53846 30.1705C9.65434 30.2766 9.33344 30.365 9.5652 30.4358L9.48497 30.5418C9.49388 30.6126 9.63651 30.5242 9.61868 30.6126C9.54737 30.6391 9.60976 30.7187 9.52063 30.7187C9.48497 30.922 9.8237 30.9397 9.7613 31.2226C9.91283 31.1872 9.895 31.3287 10.002 31.3021C9.94848 31.3375 10.1089 31.4966 9.92174 31.4613C9.90391 31.4613 9.895 31.4436 9.92174 31.4259L9.84152 31.4613C9.7613 31.6646 10.0465 31.6027 10.0911 31.7176C10.0911 31.6734 10.0554 31.6381 10.1268 31.6292L10.1802 31.7265L10.1089 31.7442L10.1713 31.9121L10.2337 31.8414C10.2426 31.9387 10.1357 32.0536 10.2961 32.0536C10.3763 32.0536 10.3496 31.9121 10.4209 31.974C10.4387 32.0978 10.4744 32.2834 10.5457 32.4161C10.617 32.3365 10.6348 32.3718 10.6794 32.3895L10.617 32.4514C10.8131 32.4868 10.5011 32.6194 10.6794 32.6724L10.6259 32.7078L10.7953 32.6105C11.0181 32.5929 10.7151 32.7874 10.9914 32.7343C10.9379 32.699 11.1162 32.584 11.134 32.6548L11.0627 32.6989C11.0627 32.6989 11.1429 32.699 11.1429 32.7343C11.0894 32.752 11.0449 32.8139 11.0984 32.8404L10.9914 32.8846L11.1786 32.8581C11.1786 32.9907 11.3569 32.9995 11.3034 33.1056C11.3034 33.1056 11.4014 33.2736 11.5262 33.2029C11.446 33.2382 11.4995 33.3355 11.4193 33.3797C11.5173 33.3443 11.6777 33.3797 11.6599 33.4946H11.6421C11.7491 33.7068 12.0165 33.6095 12.0967 33.8217C12.1502 33.7333 12.1947 33.8394 12.2571 33.7156C12.4889 33.7156 12.4087 34.1311 12.6939 33.8305C12.783 33.8571 12.7296 33.9632 12.7563 34.0074H12.7296C12.89 34.0781 12.9346 34.0958 13.0326 34.1576C13.1039 34.1576 13.202 33.9897 13.2822 34.0781C13.2198 34.1311 13.2644 34.14 13.3 34.1576C13.2733 34.1576 13.2555 34.1753 13.2733 34.246C13.2911 34.2284 13.309 34.2195 13.3268 34.2195C13.3268 34.2195 13.3268 34.2284 13.3268 34.2372C13.3981 34.2372 13.3981 34.2195 13.3803 34.193C13.3803 34.1842 13.3892 34.1665 13.3892 34.1488C13.407 34.2637 13.5674 34.2372 13.514 34.3521C13.7012 34.414 13.8794 34.3521 14.0488 34.3698C14.0399 34.4405 13.9775 34.4759 13.924 34.4759L14.0399 34.5024C13.9953 34.5908 13.9596 34.5201 13.9151 34.5289C13.9686 34.7234 14.236 34.5113 14.3162 34.7058L14.3786 34.6527V34.6704C14.3786 34.6704 14.4499 34.5997 14.4766 34.5997C14.4588 34.6881 14.3964 34.7676 14.4677 34.803C14.4856 34.9003 14.646 34.8472 14.7351 34.8384C14.6995 34.803 14.7352 34.7676 14.7619 34.75C14.7975 34.7676 14.7797 34.8472 14.8243 34.8295L14.7797 34.9356C14.8154 34.8384 14.9223 34.8737 14.958 34.8472C14.9402 34.9356 14.8688 34.8826 14.8332 34.9356C14.9758 34.9975 14.9045 34.9621 15.056 35.024C15.1719 34.9887 15.0917 34.9179 15.163 34.8472C15.2432 34.8561 15.3413 34.8207 15.3859 34.9179L15.4037 34.8207C15.5641 34.8118 15.6354 34.8561 15.6711 34.9887C16.9636 34.7058 16.3485 34.0869 16.3485 34.0869C16.0722 33.7156 15.7602 33.8836 15.2878 33.7421L15.3145 33.7598Z" fill="#8E8E8E"/>
<path d="M62.2363 55.8069L62.272 55.7715C62.272 55.7715 62.2363 55.7892 62.2363 55.8069Z" fill="#8E8E8E"/>
<path d="M63.5634 55.791C63.501 55.402 63.6614 55.2517 63.4653 54.8804C63.4208 54.6859 63.3316 54.5091 63.2336 54.3146C63.0553 54.2704 63.1444 54.0583 62.984 53.9875L63.0464 53.9168C62.9929 53.8903 62.9483 53.8638 62.9751 53.8107H63.0018C62.9216 53.7753 62.9305 53.6958 62.8859 53.6781H62.9127L62.877 53.6074H62.9127C62.8057 53.5366 62.7701 53.4394 62.7522 53.3422L62.6631 53.3952C62.6809 53.1653 62.4492 53.1919 62.4937 52.9708H62.5205C62.1728 52.8913 62.5027 52.5553 62.155 52.4758C62.1996 52.4758 62.1907 52.4404 62.2174 52.4227C62.1372 52.3432 62.057 52.2548 61.8876 52.3697C61.843 52.3078 61.9054 52.2813 61.9678 52.2282C61.8965 52.2813 61.8252 52.2459 61.7896 52.1929H61.8341L61.7093 52.0691L61.5934 52.1929C61.5845 52.0868 61.745 52.0514 61.6648 52.0072L61.5489 52.0868C61.4954 51.9719 61.6202 51.7862 61.6202 51.6271C61.3349 51.1674 60.6932 51.0171 60.4971 50.522L60.5505 50.4336C60.6397 50.3098 60.301 50.5132 60.3812 50.3983L60.292 50.4159C60.292 50.4159 60.292 50.3452 60.3366 50.3364C60.301 50.301 60.2831 50.3187 60.2207 50.3275L60.2386 50.2214C60.1227 50.0358 59.8642 50.08 59.7127 49.9209C59.6057 49.6114 59.0798 49.4965 58.7856 49.4611C58.3489 49.4788 58.1706 48.7451 57.6714 48.8423C57.6714 48.8158 57.6179 48.8423 57.609 48.8688C57.4931 48.8158 57.3773 48.7804 57.2614 48.7362C57.2614 48.7362 56.8246 48.5859 56.5215 48.6743C56.2096 48.7539 56.1026 49.0368 56.5483 49.7794L56.5305 49.8059C56.682 49.9209 56.78 49.9827 56.9405 49.8501C56.8959 50.0535 57.0742 49.912 57.092 49.9828V50.0004C57.2346 49.8855 57.2436 50.2038 57.3862 50.1065C57.3773 50.1242 57.3505 50.1684 57.3327 50.1684C57.4129 50.1684 57.5288 50.1684 57.4842 50.2745C57.6625 50.3098 57.8586 50.469 58.0458 50.3452L58.028 50.3717C58.1438 50.2833 58.1082 50.3894 58.2062 50.3717C58.2062 50.3894 58.2062 50.3983 58.2062 50.3983C58.331 50.3187 58.4023 50.4778 58.4826 50.4601L58.4469 50.5309L58.5806 50.5839L58.545 50.5397C58.6787 50.3629 58.5628 50.7165 58.7321 50.6458C58.7945 50.7165 59.1511 50.3717 59.1778 50.522C59.2759 50.469 59.0441 50.6369 59.1511 50.6104C59.0887 50.7077 59.0798 50.6546 59.0441 50.7342C59.1333 50.7342 59.0709 50.8933 59.1867 50.8845L59.1333 50.9552C59.3205 50.8933 59.2313 51.1762 59.3918 51.0966C59.5344 51.1143 59.2848 51.353 59.4898 51.2911L59.4452 51.4149C59.472 51.4591 59.57 51.3265 59.579 51.4149C59.5255 51.468 59.5968 51.5033 59.5255 51.5387C59.5433 51.7066 59.8374 51.5917 59.8196 51.8481C59.9444 51.7685 59.9444 51.8923 60.0425 51.8304C59.9979 51.8746 60.1583 51.9542 59.989 51.9896C59.9711 51.9896 59.9622 51.9807 59.989 51.963L59.9177 52.0161C59.8642 52.1929 60.0959 52.078 60.1494 52.1664C60.1494 52.1222 60.1227 52.1045 60.1851 52.078L60.2386 52.1487L60.1672 52.184L60.2207 52.3078L60.2742 52.2371C60.2742 52.3167 60.1851 52.4316 60.3277 52.4051C60.399 52.3874 60.3812 52.2813 60.4436 52.3167C60.4436 52.4227 60.4525 52.5819 60.4971 52.6791C60.5684 52.6084 60.5862 52.6349 60.6219 52.6437L60.5505 52.6968C60.7199 52.7145 60.4258 52.8471 60.5684 52.8825L60.5149 52.909L60.6842 52.8294C60.8893 52.8117 60.5595 52.9797 60.8269 52.9355C60.7912 52.909 60.9784 52.8117 60.9784 52.8736L60.8982 52.909C60.8982 52.909 60.9695 52.909 60.9606 52.9443C60.9071 52.9532 60.8536 53.0062 60.8893 53.0327L60.7823 53.0681L60.9606 53.0504C60.9249 53.1565 61.0675 53.183 60.9784 53.2714C60.9784 53.2714 60.9962 53.4217 61.1299 53.3864C61.0408 53.404 61.0586 53.4836 60.9606 53.5101C61.0586 53.4925 61.1834 53.5543 61.1121 53.6427H61.0943C61.0765 53.8284 61.3439 53.8284 61.2904 54.0052C61.3795 53.961 61.3617 54.0494 61.4776 53.9787C61.6558 54.0671 61.335 54.3323 61.7361 54.2351C61.7806 54.2881 61.6826 54.35 61.6737 54.3853H61.6469C61.7272 54.4826 61.7361 54.5268 61.7628 54.6152C61.8163 54.6506 61.9946 54.5975 61.9857 54.6948C61.9054 54.6948 61.9322 54.7213 61.9411 54.7478C61.9233 54.7301 61.8965 54.7301 61.8609 54.792C61.8876 54.792 61.9054 54.792 61.9143 54.792C61.9143 54.792 61.9054 54.792 61.8965 54.792C61.9411 54.8362 61.9589 54.8185 61.9589 54.792C61.9678 54.792 61.9857 54.792 62.0035 54.7743C61.9322 54.8539 62.057 54.9246 61.9411 54.9688C62.0213 55.128 62.1817 55.2164 62.2709 55.3401C62.2085 55.3755 62.1461 55.3578 62.1104 55.3224L62.1639 55.4109C62.0748 55.4374 62.0926 55.3667 62.0659 55.3401C61.95 55.4993 62.2887 55.5435 62.1907 55.7203H62.2709L62.262 55.738C62.2976 55.7291 62.36 55.738 62.3779 55.7556C62.3065 55.7999 62.1907 55.8087 62.2174 55.8794C62.155 55.959 62.2976 56.0209 62.3689 56.0827C62.3689 56.0385 62.4224 56.0385 62.4492 56.0474C62.4581 56.0827 62.3868 56.127 62.4313 56.1446L62.3244 56.18C62.4224 56.1358 62.4581 56.2419 62.5116 56.2419C62.4402 56.2861 62.4313 56.2065 62.36 56.2154C62.4135 56.348 62.3868 56.2861 62.4402 56.4187C62.5472 56.4717 62.5383 56.3745 62.6453 56.3833C62.6898 56.4452 62.779 56.4806 62.7344 56.5778L62.8235 56.5248C62.9305 56.622 62.9483 56.7016 62.8681 56.8165C63.9199 57.4972 63.9912 56.7016 63.9912 56.7016C64.0982 56.2772 63.7595 56.18 63.5634 55.7733V55.791Z" fill="#8E8E8E"/>
<path d="M9.22656 57.0114L9.27113 56.9922C9.27113 56.9922 9.23548 56.9922 9.22656 57.0114Z" fill="#8E8E8E"/>
<path d="M10.8848 56.3301V56.3397L10.8937 56.3493L10.8848 56.3301Z" fill="#8E8E8E"/>
<path d="M10.3587 57.7092C10.5191 57.3467 10.733 57.3025 10.7687 56.8958C10.84 56.719 10.8578 56.498 10.8846 56.3389C10.7687 56.2151 10.9559 56.1267 10.8667 55.9941H10.9648C10.938 55.9411 10.9291 55.8969 10.9826 55.888H11.0093C10.9648 55.8261 11.0272 55.7908 11.0093 55.7554H11.0272L11.0361 55.7112L11.0628 55.7377C11.0361 55.6316 11.0628 55.5432 11.1252 55.4902L11.0272 55.4548C11.2055 55.3576 11.045 55.2073 11.2322 55.1277L11.25 55.1454C11.0985 54.8448 11.562 54.9774 11.4372 54.6769C11.455 54.7122 11.4907 54.6945 11.5085 54.7122C11.5263 54.615 11.5709 54.5354 11.4016 54.4205C11.4461 54.3674 11.4818 54.4116 11.5531 54.447C11.4818 54.4028 11.4818 54.3321 11.5085 54.279L11.5263 54.3144L11.5887 54.1729L11.4372 54.1022C11.5263 54.058 11.6155 54.1995 11.6244 54.1111L11.5085 54.0315C11.5977 53.9608 11.8116 54.0315 11.9542 54.0138C12.2573 53.7132 12.3553 53.1209 12.8277 53.0148L12.908 53.0855C13.0149 53.1916 12.8456 52.8469 12.9525 52.9353V52.8557C12.9525 52.8557 13.0149 52.8734 13.0149 52.9087C13.0506 52.8822 13.0328 52.8645 13.0328 52.8115L13.1308 52.8557C13.3091 52.8027 13.3269 52.5816 13.4963 52.4932C13.7904 52.5286 14.0311 52.1661 14.2094 51.9628C14.4144 51.5915 15.0294 51.9893 15.2523 51.6357C15.2701 51.6534 15.279 51.6003 15.279 51.5827C15.3771 51.5473 15.484 51.5296 15.591 51.5031C15.591 51.5031 15.9565 51.4058 16.1704 51.2202C16.3665 51.0257 16.4556 50.6986 15.6534 50.2389V50.2035C15.4395 50.1682 15.3058 50.2035 15.2255 50.398C15.1453 50.2124 15.0562 50.4245 14.9938 50.3803V50.3627C14.9314 50.5483 14.7085 50.3273 14.6461 50.5041C14.6461 50.4864 14.6283 50.4334 14.6461 50.4245C14.5748 50.4776 14.4768 50.566 14.4233 50.4599C14.245 50.566 13.9509 50.6456 13.9152 50.8666V50.8312C13.8974 50.9727 13.8261 50.8931 13.7815 50.9903C13.7726 50.9815 13.7637 50.9727 13.7548 50.9727C13.7459 51.123 13.5587 51.1053 13.523 51.1848L13.4785 51.1141L13.3447 51.2113L13.4071 51.1937C13.4963 51.3882 13.2289 51.1406 13.2021 51.3263C13.0952 51.3616 13.2645 51.8213 13.113 51.7948C13.1219 51.9098 13.0595 51.6357 13.0328 51.7418C12.9704 51.6534 13.0328 51.6622 12.9525 51.6003C12.9169 51.6887 12.7832 51.5826 12.7475 51.6976L12.694 51.6269C12.694 51.8302 12.4266 51.6799 12.4534 51.8479C12.391 51.9893 12.2216 51.6976 12.2216 51.9274L12.1057 51.8744C12.0433 51.9009 12.1681 52.0158 12.079 52.0158C12.0344 51.954 11.972 52.0247 11.9542 51.9451C11.7581 51.954 11.8383 52.2722 11.5531 52.2722C11.6244 52.4048 11.4907 52.4137 11.5531 52.5109C11.4996 52.4667 11.4016 52.6435 11.3837 52.4667C11.3837 52.449 11.3926 52.4402 11.4105 52.4667L11.357 52.396C11.152 52.3695 11.2768 52.617 11.1876 52.6789C11.2322 52.6789 11.2589 52.6347 11.2768 52.6966L11.1965 52.7673L11.1609 52.7054L11.0183 52.7938L11.0985 52.838C11.0094 52.8645 10.8756 52.785 10.9202 52.9353C10.9469 53.0148 11.0628 52.9529 11.0272 53.0414C10.9202 53.0856 10.7508 53.1474 10.6439 53.2358C10.733 53.2889 10.7063 53.3154 10.7063 53.3508L10.635 53.2977C10.6528 53.4834 10.4478 53.2182 10.4389 53.395L10.3943 53.3508L10.528 53.4922C10.5993 53.6956 10.3408 53.448 10.4567 53.6955C10.4745 53.6425 10.635 53.784 10.5637 53.8193L10.5013 53.7574C10.5013 53.7574 10.5191 53.8282 10.4924 53.837C10.4656 53.7928 10.3943 53.7574 10.3765 53.8105L10.3052 53.7221L10.3765 53.89C10.2517 53.9077 10.2873 54.0757 10.1715 54.0403C10.1715 54.0403 10.0288 54.1641 10.1269 54.2614C10.0734 54.1906 10.0021 54.2613 9.93078 54.1906C9.99318 54.279 9.98427 54.4205 9.8773 54.4293V54.4116C9.69012 54.5442 9.84165 54.7741 9.65446 54.8802C9.75251 54.9155 9.65447 54.9774 9.78818 55.0128C9.84166 55.225 9.4138 55.2161 9.77034 55.4283C9.76143 55.5079 9.64554 55.4813 9.60989 55.5167V55.4902C9.56532 55.6405 9.56533 55.6847 9.52076 55.7908C9.53859 55.8615 9.71686 55.9234 9.64555 56.003C9.58316 55.9499 9.58315 55.9941 9.57424 56.0295C9.57424 56.003 9.54749 55.9853 9.4851 56.0206C9.50293 56.0383 9.51185 56.0471 9.52076 56.0648C9.52076 56.0648 9.51184 56.0648 9.50293 56.0648C9.50293 56.1355 9.53858 56.1267 9.55641 56.1002C9.56532 56.1002 9.58315 56.1002 9.60098 56.1002C9.4851 56.1355 9.55641 56.2682 9.43162 56.2416C9.41379 56.4184 9.50294 56.5776 9.51185 56.7279C9.44054 56.7279 9.39596 56.6748 9.38705 56.6306V56.7367C9.289 56.7102 9.34248 56.666 9.33357 56.6306C9.14638 56.7102 9.40488 56.9224 9.23552 57.0196L9.29792 57.0727H9.28009C9.28009 57.0727 9.36032 57.1345 9.36923 57.1611C9.28009 57.1611 9.18204 57.108 9.17313 57.1787C9.08399 57.2141 9.17313 57.3467 9.19096 57.4263C9.2177 57.3909 9.25335 57.4174 9.28009 57.4439C9.28009 57.4793 9.19096 57.4793 9.2177 57.5147L9.11072 57.4882C9.21769 57.5058 9.19095 57.6119 9.23552 57.6384C9.14638 57.6384 9.18204 57.5677 9.12856 57.5412C9.10181 57.6827 9.11073 57.6119 9.08398 57.7534C9.14638 57.8506 9.19095 57.771 9.27118 57.8329C9.27118 57.9037 9.33358 57.9921 9.24444 58.0451H9.34249C9.37814 58.1954 9.34249 58.2661 9.22661 58.3192C9.73469 59.4596 10.2339 58.8231 10.2339 58.8231C10.5548 58.5225 10.323 58.2573 10.3765 57.8153L10.3587 57.7092Z" fill="#8E8E8E"/>
<path d="M28.8281 26.9314C30.2164 26.9314 31.3418 25.8152 31.3418 24.4383C31.3418 23.0615 30.2164 21.9453 28.8281 21.9453C27.4399 21.9453 26.3145 23.0615 26.3145 24.4383C26.3145 25.8152 27.4399 26.9314 28.8281 26.9314Z" fill="#8E8E8E"/>
<path d="M31.1875 22.5664V22.6283C31.1875 22.6283 31.2075 22.5929 31.1875 22.5664Z" fill="#8E8E8E"/>
<path d="M30.4484 24.3585L30.4395 24.3496L30.4484 24.3585Z" fill="#8E8E8E"/>
<path d="M29.9493 23.113C30.19 23.4136 30.083 23.5904 30.297 23.8644C30.3504 24.0236 30.4218 24.1827 30.4574 24.3595C30.6179 24.4391 30.4574 24.5805 30.5733 24.6955L30.4842 24.722C30.4842 24.722 30.5465 24.8104 30.4842 24.8281H30.4574C30.502 24.8811 30.4574 24.9341 30.4752 24.9607H30.4485L30.4396 25.0137L30.4128 24.996C30.4485 25.1021 30.4128 25.1905 30.3504 25.2524L30.4485 25.2966C30.2613 25.3939 30.395 25.5707 30.1722 25.6149L30.1543 25.5972C30.1989 25.9508 29.8067 25.6856 29.78 26.0039C29.78 25.9597 29.7443 25.9685 29.7354 25.942C29.673 26.0215 29.5749 26.0746 29.6552 26.2602C29.5839 26.2956 29.566 26.2249 29.5304 26.163C29.566 26.2426 29.5125 26.3044 29.4591 26.331L29.4769 26.2868C29.4234 26.3221 29.3699 26.3398 29.3164 26.3663L29.3967 26.5166C29.2897 26.4989 29.3254 26.3221 29.2451 26.384L29.2719 26.5166C29.1204 26.5166 29.0223 26.3221 28.8975 26.216C28.6568 26.1983 28.4072 26.2337 28.1488 26.1807C27.8903 26.1365 27.6407 26.0039 27.5605 25.7563L27.6228 25.6679C27.7298 25.5618 27.3733 25.7298 27.4624 25.6237H27.3733C27.3733 25.6237 27.3911 25.553 27.4357 25.553C27.4089 25.5088 27.3911 25.5265 27.3287 25.5265L27.3733 25.4292C27.3376 25.2436 27.0969 25.1817 27.0702 24.9695C27.1772 24.6955 26.9721 24.3065 26.9543 23.997C26.883 23.776 27.0702 23.5904 27.2485 23.4666C27.4357 23.334 27.6139 23.2633 27.6763 23.0511C27.6942 23.0511 27.6942 23.0069 27.6763 22.9892C27.7744 22.9185 27.8724 22.8655 27.9794 22.8213C27.9794 22.8213 28.3538 22.6533 28.6212 22.4942C28.7549 22.4146 28.8619 22.2997 28.8351 22.1317C28.7995 21.9726 28.6479 21.6985 28.0507 21.5217V21.4863C27.7209 21.4863 27.5159 21.5747 27.4 21.8134C27.2663 21.6543 27.1593 21.9284 27.0702 21.9107V21.893C27.0078 22.1228 26.6602 22.0433 26.6156 22.282C26.6156 22.2643 26.571 22.2201 26.5978 22.1936C26.5176 22.3173 26.4284 22.4853 26.3304 22.4146C26.1343 22.6886 25.8579 23.0953 25.9649 23.3694L25.9382 23.3428C26.0184 23.502 25.8936 23.4931 25.9292 23.6346C25.9114 23.6346 25.9025 23.6434 25.8936 23.6346C25.9738 23.7849 25.8312 23.9971 25.8758 24.112H25.7955V24.3684L25.8134 24.2711C26.0273 24.3065 25.6618 24.4568 25.8134 24.6424C25.7955 24.8281 26.2947 24.9165 26.2323 25.0756C26.3482 25.1198 26.054 25.0491 26.161 25.1463C26.054 25.1817 26.0808 25.111 26.0006 25.164C26.0808 25.2613 25.9471 25.3939 26.0719 25.5088L25.9916 25.5441C26.2145 25.6591 26.0451 25.942 26.259 25.9862C26.4284 26.1188 26.1164 26.2514 26.3927 26.331L26.3571 26.4724C26.4106 26.5608 26.5175 26.4282 26.5443 26.5431C26.4819 26.5873 26.5889 26.6846 26.4997 26.6846C26.6067 26.9498 26.9721 26.8968 27.1415 27.2239C27.2752 27.1354 27.3733 27.2946 27.4713 27.215C27.4446 27.2769 27.7655 27.3565 27.5426 27.4095C27.5248 27.4095 27.498 27.4007 27.507 27.3742L27.4535 27.4449C27.5694 27.6747 27.81 27.4979 27.9794 27.5686C27.9348 27.5244 27.8635 27.5156 27.9259 27.4714L28.0864 27.5244L28.0329 27.5863C28.1131 27.6217 28.1933 27.657 28.2825 27.6836L28.2646 27.5863C28.3805 27.6482 28.4072 27.8162 28.5677 27.7013C28.639 27.6305 28.4607 27.5775 28.5944 27.551C28.7549 27.6305 29.0045 27.7189 29.2273 27.7189C29.1917 27.6217 29.2541 27.6128 29.3075 27.5863L29.3254 27.6747C29.5304 27.5156 29.4502 27.8604 29.6552 27.7101V27.772L29.6641 27.5775C29.8067 27.3565 29.8334 27.7278 29.9672 27.4272C29.8869 27.4714 29.8602 27.2592 29.9672 27.2592V27.3476C30.0206 27.3123 30.0296 27.2681 30.0652 27.2681C30.0474 27.3211 30.1009 27.3918 30.1722 27.3388V27.4626L30.2435 27.2504C30.4039 27.2769 30.5198 27.0647 30.6268 27.1443C30.6268 27.1443 30.8942 27.0205 30.8585 26.8791C30.8674 26.9763 31.0101 26.8968 31.0368 27.0028C31.0368 26.8791 31.1348 26.6846 31.2685 26.6846V26.7023C31.5716 26.5255 31.5003 26.1895 31.7499 26.0039C31.6518 25.9685 31.7677 25.8536 31.634 25.8359C31.634 25.5442 32.0886 25.4292 31.7232 25.2171C31.7232 25.0933 31.8569 25.0933 31.8836 25.0314L31.9014 25.0668C31.9014 24.8192 31.9193 24.7573 31.9282 24.5717C31.8925 24.4833 31.7053 24.4656 31.741 24.3153C31.8212 24.3595 31.8034 24.2976 31.7945 24.2446C31.8123 24.2799 31.839 24.2888 31.8836 24.2092C31.8569 24.2004 31.8479 24.1827 31.8301 24.1739C31.8301 24.1739 31.839 24.1739 31.8479 24.1739C31.8123 24.0766 31.7855 24.1031 31.7855 24.1473C31.7766 24.1473 31.7588 24.1473 31.741 24.165C31.8301 24.0589 31.6964 23.891 31.8212 23.8556C31.7232 23.5727 31.536 23.4136 31.3844 23.2279C31.429 23.1749 31.5092 23.2014 31.5627 23.2544L31.4647 23.113C31.5538 23.0688 31.5538 23.1749 31.5984 23.2191C31.6429 22.9539 31.2775 22.9097 31.2507 22.6444H31.1616V22.6268C31.1259 22.6533 31.0546 22.6444 31.0279 22.6268C31.0725 22.5472 31.1794 22.503 31.0903 22.4234C31.0903 22.2908 30.8763 22.2555 30.7516 22.2112C30.7872 22.2643 30.7516 22.282 30.707 22.2908C30.6624 22.2555 30.6892 22.1671 30.6357 22.1671L30.6981 22.0786C30.6535 22.1759 30.502 22.0786 30.4574 22.1052C30.4752 22.0168 30.5733 22.1052 30.6179 22.061C30.4218 21.9284 30.5198 21.9902 30.3148 21.8753C30.1633 21.8753 30.2791 21.9814 30.1811 22.0344C30.083 21.9991 29.9582 22.0344 29.878 21.9195V22.0256C29.6641 22.0256 29.5749 21.9814 29.4769 21.8576C29.0847 21.9637 28.9153 22.1494 28.8351 22.282C28.7549 22.4234 28.7549 22.5384 28.8084 22.6179C28.8797 22.7947 29.0312 22.8831 29.0312 22.8831C29.2897 23.1484 29.5125 22.9185 29.9315 23.1218L29.9493 23.113Z" fill="#8E8E8E"/>
<path d="M42.6367 26.9314C44.025 26.9314 45.1504 25.8152 45.1504 24.4383C45.1504 23.0615 44.025 21.9453 42.6367 21.9453C41.2484 21.9453 40.123 23.0615 40.123 24.4383C40.123 25.8152 41.2484 26.9314 42.6367 26.9314Z" fill="#8E8E8E"/>
<path d="M44.9961 22.5664V22.6283C44.9961 22.6283 45.0161 22.5929 44.9961 22.5664Z" fill="#8E8E8E"/>
<path d="M44.257 24.3585L44.248 24.3496L44.257 24.3585Z" fill="#8E8E8E"/>
<path d="M43.7579 23.113C43.9986 23.4136 43.8916 23.5904 44.1056 23.8644C44.159 24.0236 44.2303 24.1827 44.266 24.3595C44.4264 24.4391 44.266 24.5805 44.3819 24.6955L44.2927 24.722C44.2927 24.722 44.3551 24.8104 44.2927 24.8281H44.266C44.3106 24.8811 44.266 24.9341 44.2838 24.9607H44.2571L44.2482 25.0137L44.2214 24.996C44.2571 25.1021 44.2214 25.1905 44.159 25.2524L44.2571 25.2966C44.0699 25.3939 44.2036 25.5707 43.9808 25.6149L43.9629 25.5972C44.0075 25.9508 43.6153 25.6856 43.5886 26.0039C43.5886 25.9597 43.5529 25.9685 43.544 25.942C43.4816 26.0215 43.3835 26.0746 43.4638 26.2602C43.3925 26.2956 43.3746 26.2249 43.339 26.163C43.3746 26.2426 43.3211 26.3044 43.2677 26.331L43.2855 26.2868C43.232 26.3221 43.1785 26.3398 43.125 26.3663L43.2053 26.5166C43.0983 26.4989 43.134 26.3221 43.0537 26.384L43.0805 26.5166C42.9289 26.5166 42.8309 26.3221 42.7061 26.216C42.4654 26.1983 42.2158 26.2337 41.9573 26.1807C41.6988 26.1365 41.4493 26.0039 41.369 25.7563L41.4314 25.6679C41.5384 25.5618 41.1818 25.7298 41.271 25.6237H41.1819C41.1819 25.6237 41.1997 25.553 41.2442 25.553C41.2175 25.5088 41.1997 25.5265 41.1373 25.5265L41.1819 25.4292C41.1462 25.2436 40.9055 25.1817 40.8788 24.9695C40.9857 24.6955 40.7807 24.3065 40.7629 23.997C40.6916 23.776 40.8788 23.5904 41.0571 23.4666C41.2443 23.334 41.4225 23.2633 41.4849 23.0511C41.5027 23.0511 41.5027 23.0069 41.4849 22.9892C41.583 22.9185 41.681 22.8655 41.788 22.8213C41.788 22.8213 42.1624 22.6533 42.4298 22.4942C42.5635 22.4146 42.6704 22.2997 42.6437 22.1317C42.608 21.9726 42.4565 21.6985 41.8593 21.5217V21.4863C41.5295 21.4863 41.3245 21.5747 41.2086 21.8134C41.0749 21.6543 40.9679 21.9284 40.8788 21.9107V21.893C40.8164 22.1228 40.4688 22.0433 40.4242 22.282C40.4242 22.2643 40.3796 22.2201 40.4064 22.1936C40.3261 22.3173 40.237 22.4853 40.1389 22.4146C39.9428 22.6886 39.6665 23.0953 39.7735 23.3694L39.7467 23.3428C39.827 23.502 39.7022 23.4931 39.7378 23.6346C39.72 23.6346 39.7111 23.6434 39.7022 23.6346C39.7824 23.7849 39.6398 23.9971 39.6843 24.112H39.6041V24.3684L39.622 24.2711C39.8359 24.3065 39.4704 24.4568 39.622 24.6424C39.6041 24.8281 40.1033 24.9165 40.0409 25.0756C40.1568 25.1198 39.8626 25.0491 39.9696 25.1463C39.8626 25.1817 39.8894 25.111 39.8091 25.164C39.8894 25.2613 39.7557 25.3939 39.8804 25.5088L39.8002 25.5441C40.0231 25.6591 39.8537 25.942 40.0676 25.9862C40.237 26.1188 39.925 26.2514 40.2013 26.331L40.1657 26.4724C40.2192 26.5608 40.3261 26.4282 40.3529 26.5431C40.2905 26.5873 40.3974 26.6846 40.3083 26.6846C40.4153 26.9498 40.7807 26.8968 40.9501 27.2239C41.0838 27.1354 41.1819 27.2946 41.2799 27.215C41.2532 27.2769 41.574 27.3565 41.3512 27.4095C41.3334 27.4095 41.3066 27.4007 41.3156 27.3742L41.2621 27.4449C41.378 27.6747 41.6186 27.4979 41.788 27.5686C41.7434 27.5244 41.6721 27.5156 41.7345 27.4714L41.8949 27.5244L41.8415 27.5863C41.9217 27.6217 42.0019 27.657 42.091 27.6836L42.0732 27.5863C42.1891 27.6482 42.2158 27.8162 42.3763 27.7013C42.4476 27.6305 42.2693 27.5775 42.403 27.551C42.5635 27.6305 42.8131 27.7189 43.0359 27.7189C43.0002 27.6217 43.0626 27.6128 43.1161 27.5863L43.1339 27.6747C43.339 27.5156 43.2587 27.8604 43.4638 27.7101V27.772L43.4727 27.5775C43.6153 27.3565 43.642 27.7278 43.7757 27.4272C43.6955 27.4714 43.6688 27.2592 43.7757 27.2592V27.3476C43.8292 27.3123 43.8381 27.2681 43.8738 27.2681C43.856 27.3211 43.9095 27.3918 43.9808 27.3388V27.4626L44.0521 27.2504C44.2125 27.2769 44.3284 27.0647 44.4354 27.1443C44.4354 27.1443 44.7028 27.0205 44.6671 26.8791C44.676 26.9763 44.8187 26.8968 44.8454 27.0028C44.8454 26.8791 44.9434 26.6846 45.0771 26.6846V26.7023C45.3802 26.5255 45.3089 26.1895 45.5585 26.0039C45.4604 25.9685 45.5763 25.8536 45.4426 25.8359C45.4426 25.5442 45.8972 25.4292 45.5317 25.2171C45.5317 25.0933 45.6654 25.0933 45.6922 25.0314L45.71 25.0668C45.71 24.8192 45.7278 24.7573 45.7368 24.5717C45.7011 24.4833 45.5139 24.4656 45.5496 24.3153C45.6298 24.3595 45.612 24.2976 45.603 24.2446C45.6209 24.2799 45.6476 24.2888 45.6922 24.2092C45.6654 24.2004 45.6565 24.1827 45.6387 24.1739C45.6387 24.1739 45.6476 24.1739 45.6565 24.1739C45.6209 24.0766 45.5941 24.1031 45.5941 24.1473C45.5852 24.1473 45.5674 24.1473 45.5496 24.165C45.6387 24.0589 45.505 23.891 45.6298 23.8556C45.5317 23.5727 45.3446 23.4136 45.193 23.2279C45.2376 23.1749 45.3178 23.2014 45.3713 23.2544L45.2732 23.113C45.3624 23.0688 45.3624 23.1749 45.4069 23.2191C45.4515 22.9539 45.0861 22.9097 45.0593 22.6444H44.9702V22.6268C44.9345 22.6533 44.8632 22.6444 44.8365 22.6268C44.881 22.5472 44.988 22.503 44.8989 22.4234C44.8989 22.2908 44.6849 22.2555 44.5601 22.2112C44.5958 22.2643 44.5601 22.282 44.5156 22.2908C44.471 22.2555 44.4977 22.1671 44.4443 22.1671L44.5067 22.0786C44.4621 22.1759 44.3106 22.0786 44.266 22.1052C44.2838 22.0168 44.3819 22.1052 44.4264 22.061C44.2303 21.9284 44.3284 21.9902 44.1234 21.8753C43.9718 21.8753 44.0877 21.9814 43.9897 22.0344C43.8916 21.9991 43.7668 22.0344 43.6866 21.9195V22.0256C43.4727 22.0256 43.3835 21.9814 43.2855 21.8576C42.8933 21.9637 42.7239 22.1494 42.6437 22.282C42.5635 22.4234 42.5635 22.5384 42.617 22.6179C42.6883 22.7947 42.8398 22.8831 42.8398 22.8831C43.0983 23.1484 43.3211 22.9185 43.7401 23.1218L43.7579 23.113Z" fill="#8E8E8E"/>
<path d="M62.6191 15.0527L62.7172 15.1146C62.7172 15.1146 62.6994 15.0704 62.6191 15.0527Z" fill="#8E8E8E"/>
<path d="M55.4974 22.2941C55.4974 22.2941 55.4796 22.2764 55.4707 22.2676C55.4885 22.2853 55.4974 22.2941 55.4974 22.2941Z" fill="#8E8E8E"/>
<path d="M67.1643 14.4434L67.1465 14.4626L67.1643 14.4434Z" fill="#8E8E8E"/>
<path d="M60.6495 15.468C61.4429 16.1399 62.1025 16.3609 62.7621 16.5112C63.4217 16.6261 64.1972 16.6527 65.2045 16.1311C65.6858 15.8924 66.1493 15.5564 66.4791 15.1232L66.6841 14.8845C66.7287 14.8227 66.7822 14.7696 66.8357 14.7166C66.9426 14.6105 67.0496 14.5221 67.1655 14.4425C67.3348 14.1596 67.8073 14.1773 68.0034 14.1419C68.0301 14.1685 68.039 14.2127 68.0479 14.248C68.1281 14.2215 68.2173 14.248 68.2351 14.3364L68.2173 14.3541C68.3421 14.3806 68.3956 14.5132 68.4669 14.584H68.4401L68.556 14.8138L68.5025 14.7873C68.6095 14.9376 68.7075 15.0879 68.7878 15.2558C68.8502 15.4327 68.9036 15.6006 68.9393 15.7686L69.0284 15.7067C69.1086 16.0603 69.1532 16.3079 69.2335 16.5377C69.3137 16.7676 69.3672 16.9974 69.3404 17.3422H69.3137C69.5187 17.7401 69.4652 18.0848 69.4206 18.4208C69.3939 18.7567 69.2869 19.0838 69.385 19.5258C69.3582 19.4109 69.3315 19.5612 69.3047 19.5524C69.278 19.9502 69.1889 20.3569 69.3939 20.4099C69.3315 20.7016 69.2869 20.6309 69.1978 20.6486C69.2869 20.6663 69.2334 20.9227 69.171 21.1348V21.0287C69.1087 21.2321 69.073 21.4531 68.9749 21.6476L69.1889 21.5945C68.9839 21.8863 68.9571 21.5945 68.8502 21.904L68.9749 21.957C68.7521 22.399 68.3956 22.514 68.0568 22.7969C67.4596 23.4687 66.7822 24.1672 65.873 24.5296C65.668 24.6534 65.4362 24.7329 65.1955 24.786C64.9549 24.8479 64.732 24.9098 64.5003 24.9628C64.0189 25.007 63.5465 25.0158 63.0919 24.9805L63.0117 24.8744C62.9849 24.7241 62.5036 25.0601 62.4412 24.9186L62.2273 24.9716C62.1738 24.9451 62.049 24.9009 62.156 24.8744C61.9599 24.8567 61.9509 24.8744 61.8083 24.9186C61.7459 24.8832 61.6746 24.8567 61.6122 24.8037C60.8902 24.5561 60.2039 24.6092 59.4819 24.2467C59.3838 24.176 59.259 24.1229 59.1342 24.0522C59.0183 23.9727 58.8935 23.8843 58.7598 23.8047C58.5013 23.6367 58.1804 23.4953 57.9309 23.2654C57.6634 23.0621 57.3604 22.8764 57.1554 22.6289C56.9325 22.399 56.6919 22.2045 56.5582 21.9835C56.3264 21.7006 56.1125 21.3912 56.0144 21.0111C55.9609 20.8254 55.8896 20.6486 55.854 20.4541C55.8272 20.2596 55.8094 20.0651 55.7827 19.8706C55.7203 19.4816 55.7827 19.0838 55.7381 18.7037C55.7648 18.3147 55.7381 17.9345 55.7203 17.5632C55.747 17.519 55.7203 17.3864 55.7024 17.3864C55.747 16.9267 55.8718 16.4847 55.9877 16.0427C55.9877 16.0427 56.0055 15.9366 56.0679 15.7774C56.1214 15.6183 56.2016 15.3885 56.2818 15.1321C56.3888 14.8845 56.4958 14.6016 56.6205 14.3188C56.7542 14.0535 56.888 13.7883 56.9949 13.5496C57.2534 13.1164 57.396 12.754 57.2178 12.7098C57.0573 12.6832 56.4244 12.8866 55.4796 14.027V13.974C55.0072 14.7077 54.8289 15.2382 54.8289 15.8482C54.615 15.8924 54.6328 16.5201 54.5436 16.7057L54.5258 16.688C54.6061 17.2273 54.2406 17.74 54.3921 18.2616C54.3743 18.244 54.3208 18.2263 54.3208 18.1114C54.3208 18.4827 54.3921 18.9866 54.2852 19.0219C54.3297 19.9148 54.6595 21.1702 55.0785 21.6211L55.0339 21.5945C55.2657 21.8509 55.2211 21.9747 55.4618 22.2576C55.4618 22.2841 55.4618 22.3106 55.4618 22.3106C55.6133 22.4256 55.7292 22.6554 55.8718 22.8588C56.0322 23.0532 56.1749 23.2477 56.2907 23.3361L56.2462 23.398C56.4066 23.5748 56.5582 23.7605 56.7543 23.8931L56.5671 23.7074C56.7899 23.6102 56.879 24.1495 57.3693 24.3793C57.7437 24.6976 58.4211 24.4943 58.7688 24.8302C59.0183 24.8302 58.5102 24.9009 58.8579 24.9628C58.8222 25.0689 58.6796 24.9628 58.7242 25.0777C59.0629 25.1485 59.1966 25.3872 59.6156 25.4667L59.5977 25.5551C60.1504 25.6258 60.5693 25.9353 60.9615 25.8911C61.5231 25.9441 61.2913 26.2624 61.9064 26.1298L62.1292 26.2624C62.3877 26.2977 62.3253 26.1298 62.6016 26.2093C62.5838 26.28 62.9582 26.2889 62.7888 26.3508C63.1097 26.448 63.4395 26.3685 63.7961 26.3154C64.1526 26.2358 64.527 26.2535 64.9638 26.227C65.1153 26.0414 65.561 26.0237 65.668 25.8822C65.7125 25.9706 66.4969 25.5993 66.0869 25.9176C66.0512 25.9441 65.9799 25.9706 65.9799 25.9441L65.9532 26.0414C66.488 26.0148 66.7822 25.6082 67.2368 25.4137C67.0942 25.4667 66.9159 25.5374 67.005 25.4402C67.1566 25.3872 67.2813 25.2987 67.4061 25.2192L67.3616 25.3341L67.9677 24.9805L67.834 24.9628C68.146 24.8213 68.3421 24.8567 68.5293 24.4854C68.6006 24.3174 68.2173 24.618 68.449 24.3528C68.6273 24.2113 68.8769 24.0611 69.0819 23.8401C69.2869 23.619 69.4919 23.3803 69.6702 23.1505C69.5454 23.1417 69.6524 23.0179 69.697 22.8676L69.7861 22.8941C69.9555 22.2929 70.0624 22.788 70.2496 22.1957L70.2853 22.2664L70.1872 22.0454C70.205 21.4796 70.4546 21.8332 70.419 21.1879C70.3566 21.4177 70.1961 21.2321 70.3209 20.9757L70.3833 21.0641C70.419 20.9138 70.3833 20.8519 70.4279 20.7547C70.4546 20.8608 70.5349 20.8343 70.5705 20.6044L70.6418 20.7812L70.5794 20.3127C70.7577 19.9944 70.6864 19.4463 70.8201 19.3225C70.8201 19.3225 70.9449 18.5976 70.7934 18.4296C70.8736 18.5799 70.9003 18.1732 70.9984 18.2882C70.9003 18.0937 70.8201 17.5456 70.8736 17.3157L70.8914 17.3599C70.9003 16.5112 70.5438 15.9896 70.4368 15.2382C70.3477 15.3 70.2764 14.9111 70.1783 15.0437C70.0089 14.6989 69.902 14.3629 69.8039 14.0801C69.7237 13.8237 69.5454 13.5408 69.2691 13.5496C68.966 13.249 68.9482 13.1253 68.7521 12.9838L68.8591 13.0192C68.4669 12.807 68.1727 12.7717 67.932 12.7628C67.6825 12.7451 67.4774 12.7628 67.1833 12.8247C66.9159 12.9485 66.9337 13.1164 66.4969 13.2932C66.595 13.1606 66.4256 13.249 66.283 13.3551C66.3721 13.2844 66.39 13.2402 66.1582 13.3286C66.1404 13.364 66.1047 13.4082 66.078 13.4435C66.078 13.4435 66.0602 13.4435 66.0602 13.4347C65.8462 13.6469 65.8997 13.6292 66.0156 13.5496C66.0156 13.5585 66.0334 13.5673 66.078 13.5496C65.766 13.6469 65.4808 14.1508 65.3738 14.0801C64.9905 14.5751 64.6607 14.9376 64.1348 15.1586C64.0546 15.1144 64.1615 15.026 64.2952 14.9464C64.1794 14.9995 64.0546 15.0348 63.9387 15.0879C63.9209 14.9906 64.1348 14.9729 64.2329 14.9199C63.7961 14.9199 63.3415 15.3 62.8067 15.0702L62.6819 15.1232L62.6551 15.1056C62.6551 15.1056 62.5125 15.1763 62.4323 15.1674C62.3788 15.0614 62.4858 14.9818 62.2362 14.9111C62.0757 14.7696 61.6924 14.7077 61.4429 14.5663C61.5498 14.6724 61.4874 14.6812 61.4161 14.6635C61.3092 14.5751 61.3002 14.469 61.2022 14.4248L61.2735 14.3364C61.2378 14.4514 60.9526 14.1596 60.8902 14.1508C60.8991 14.0447 61.0863 14.2569 61.1576 14.2392C60.9704 14.0535 60.9437 13.9916 60.8991 13.9386C60.8635 13.8856 60.8011 13.8414 60.6852 13.6027C60.4802 13.3817 60.6139 13.6999 60.4624 13.6203C60.3197 13.3905 60.1147 13.1164 59.9454 12.807V12.9573C59.5264 12.5418 59.2679 12.3473 58.9559 12.0732C58.4033 11.9053 57.9487 12.0467 57.7169 12.2235C57.4763 12.4092 57.396 12.586 57.3693 12.7186C57.3069 12.975 57.3871 13.0634 57.5565 13.0103C57.8506 12.9396 58.1002 12.9661 58.1002 12.9838C58.3587 13.0722 58.7064 13.2756 59.0094 13.5938C59.0896 13.6734 59.161 13.7618 59.2323 13.859L59.3481 14.0358C59.4105 14.1331 59.464 14.2303 59.5264 14.3276C59.776 14.7166 60.1147 15.1144 60.5871 15.468H60.6495Z" fill="#8E8E8E"/>
<path d="M61.8063 26.4121L61.7617 26.4386C61.7617 26.4386 61.7974 26.4386 61.8063 26.4121Z" fill="#8E8E8E"/>
<path d="M60.2179 27.3584L60.209 27.3496L60.2179 27.3584Z" fill="#8E8E8E"/>
<path d="M60.5494 25.944C60.478 26.3242 60.273 26.3949 60.2908 26.7927C60.2463 26.9695 60.2374 27.1729 60.2195 27.3585C60.3443 27.4823 60.1482 27.5884 60.2463 27.721H60.1571C60.1839 27.7829 60.2017 27.8271 60.1571 27.8536H60.1304C60.175 27.9155 60.1215 27.9597 60.1393 27.995H60.1126L60.0948 28.0481L60.068 28.0216C60.0947 28.1277 60.068 28.2249 60.0056 28.2868L60.1037 28.3221C59.9343 28.4459 60.0948 28.5962 59.8987 28.6846H59.8808C60.0324 28.9852 59.5778 28.8791 59.6847 29.1885C59.6669 29.1532 59.6312 29.1708 59.6134 29.1532C59.5867 29.2504 59.551 29.3565 59.7204 29.4626C59.6758 29.5245 59.6401 29.4803 59.5688 29.4449C59.6491 29.4891 59.6402 29.5687 59.6134 29.6129V29.5687L59.5332 29.719L59.6936 29.7897C59.6045 29.8339 59.5154 29.6924 59.4975 29.7897L59.6134 29.8692C59.5154 29.9576 59.3103 29.8958 59.1588 29.9134C58.829 30.2405 58.7131 30.8682 58.1961 30.9831L58.1159 30.9213C58.0089 30.8063 58.1694 31.1776 58.0624 31.0804V31.1688C58.0624 31.1688 57.9911 31.1511 57.9911 31.1069C57.9466 31.1335 57.9644 31.1511 57.9644 31.2042L57.8663 31.16C57.6702 31.213 57.6524 31.4605 57.4563 31.5313C57.1532 31.5048 56.8591 31.8584 56.6541 32.0794C56.3867 32.4595 55.7092 32.1147 55.4507 32.5214C55.4329 32.5037 55.4151 32.5656 55.424 32.5833L55.0763 32.7247C55.0763 32.7247 53.4006 33.4585 55.2011 33.9978V34.0332C55.424 34.0155 55.5488 33.9801 55.6111 33.7679C55.7181 33.9448 55.7716 33.7149 55.8429 33.7503V33.7679C55.8875 33.5734 56.1371 33.7679 56.1816 33.6C56.1816 33.6176 56.2084 33.6707 56.1816 33.6795C56.2529 33.6176 56.3421 33.5292 56.3956 33.6265C56.5738 33.5116 56.8591 33.432 56.9036 33.2021V33.2375C56.9215 33.0872 56.9928 33.1756 57.0373 33.0784C57.0463 33.0872 57.0552 33.0961 57.0552 33.1049C57.073 32.9546 57.2691 32.9723 57.3137 32.8927L57.3582 32.9634L57.5098 32.8662L57.4474 32.8839C57.3672 32.6805 57.6346 32.9369 57.6791 32.7601C57.8039 32.7336 57.6524 32.2474 57.8128 32.2739C57.8128 32.159 57.8574 32.4418 57.8931 32.3269C57.9555 32.4242 57.8931 32.4065 57.9644 32.4684C58.0089 32.38 58.1516 32.4861 58.1961 32.3711L58.2496 32.4419C58.2764 32.2385 58.5349 32.38 58.517 32.2032C58.5883 32.0617 58.7577 32.3534 58.7755 32.1236L58.9003 32.1766C58.9627 32.1501 58.8468 32.0352 58.936 32.0352C58.9805 32.0971 59.0429 32.0175 59.0608 32.1059C59.2658 32.0794 59.2034 31.7611 59.5064 31.7611C59.4441 31.6197 59.5777 31.602 59.5243 31.5048C59.5777 31.549 59.6847 31.3545 59.7026 31.5401C59.7026 31.5578 59.6847 31.5666 59.6758 31.549L59.7293 31.6197C59.9343 31.6462 59.8273 31.3898 59.9254 31.3191C59.8808 31.3191 59.8541 31.3633 59.8273 31.3014L59.9165 31.2307L59.9521 31.2926C60.0056 31.2661 60.0502 31.2219 60.0948 31.1865L60.0145 31.1423C60.1037 31.1069 60.2374 31.1865 60.2017 31.0274C60.175 30.9478 60.0591 31.0097 60.0948 30.9213C60.2106 30.8771 60.3978 30.8063 60.5048 30.7003C60.4156 30.6472 60.4424 30.6207 60.4424 30.5765L60.5137 30.6207C60.5048 30.4262 60.7009 30.6914 60.7098 30.5058L60.7544 30.55L60.6207 30.4085C60.5494 30.1963 60.8168 30.4527 60.7009 30.1963C60.6831 30.2494 60.5226 30.1168 60.5939 30.0726L60.6563 30.1345C60.6563 30.1345 60.6385 30.0637 60.6652 30.0461C60.692 30.0903 60.7633 30.1256 60.7811 30.0637L60.8524 30.1521L60.7811 29.9753C60.9059 29.9488 60.8792 29.772 60.995 29.7985C60.995 29.7985 61.1466 29.6659 61.0485 29.5687C61.102 29.6394 61.1822 29.5687 61.2535 29.6305C61.1911 29.5421 61.1911 29.383 61.307 29.3742V29.3919C61.5031 29.2416 61.3516 29.0117 61.5299 28.8791C61.4318 28.8437 61.5209 28.773 61.3872 28.7465C61.3338 28.5255 61.7705 28.5078 61.414 28.3045C61.414 28.2161 61.5388 28.2337 61.5655 28.1984L61.5833 28.2249C61.6012 28.0569 61.6101 28.0127 61.6547 27.8978C61.6368 27.8271 61.4585 27.774 61.5299 27.6768C61.5922 27.7298 61.5922 27.6768 61.6012 27.6414C61.6012 27.6679 61.6279 27.6856 61.6903 27.6414C61.6725 27.6326 61.6546 27.6149 61.6457 27.5972C61.6457 27.5972 61.6547 27.5972 61.6636 27.5972C61.6547 27.5265 61.6279 27.5265 61.6101 27.5619C61.6012 27.5619 61.5833 27.5619 61.5655 27.5619C61.6725 27.5176 61.6012 27.3674 61.7349 27.3939C61.7527 27.1905 61.6546 27.0226 61.619 26.8458C61.6903 26.8458 61.7438 26.8811 61.7616 26.9342V26.8104C61.8508 26.8281 61.7973 26.89 61.8151 26.9253C61.9934 26.8016 61.7081 26.6071 61.8686 26.4656L61.7973 26.4214H61.8062C61.8062 26.4214 61.717 26.3684 61.6992 26.3418C61.7794 26.3242 61.8864 26.3595 61.8953 26.28C61.9755 26.2181 61.8686 26.0855 61.8329 26.0059C61.8151 26.0501 61.7705 26.0324 61.7438 26.0059C61.7438 25.9617 61.824 25.944 61.7973 25.9087H61.9131C61.8062 25.9175 61.8062 25.7937 61.7616 25.7849C61.8418 25.7672 61.8329 25.8468 61.8953 25.8645C61.8864 25.6965 61.8953 25.7849 61.8775 25.6169C61.7884 25.5285 61.7705 25.6346 61.6725 25.5904C61.6457 25.5108 61.5744 25.4401 61.6368 25.3517L61.5388 25.3782C61.4586 25.2368 61.4675 25.1572 61.5566 25.0511C61.102 24.5649 60.8257 24.5649 60.6563 24.6621C60.487 24.7505 60.4335 24.9362 60.4335 24.9362C60.2552 25.3075 60.5404 25.4666 60.6117 25.9087L60.5494 25.944Z" fill="#8E8E8E"/>
</svg>
