<svg width="71" height="71" viewBox="0 0 71 71" fill="none" xmlns="http://www.w3.org/2000/svg">
<path d="M61.3602 43.1861L61.2402 42.9961C61.2402 42.9961 61.2502 43.0661 61.3602 43.1861Z" fill="#8E8E8E"/>
<path d="M53.252 61.1665C53.252 61.1665 53.282 61.1565 53.302 61.1465C53.262 61.1465 53.252 61.1665 53.252 61.1665Z" fill="#8E8E8E"/>
<path d="M55.2715 36.6272H55.2815C55.3015 36.6272 55.3215 36.6372 55.3415 36.6472L55.2715 36.6172V36.6272Z" fill="#8E8E8E"/>
<path d="M64.291 44.2169C63.801 43.6169 63.391 43.1269 63.001 42.7169C62.621 42.2969 62.311 41.9069 61.951 41.5569C61.601 41.2069 61.241 40.8469 60.811 40.4569C60.371 40.0869 59.851 39.6669 59.211 39.1869C57.981 38.2569 56.601 37.3569 55.281 36.6469C54.581 36.4369 53.551 35.6869 52.721 35.4669L52.461 35.2369C52.181 35.1469 51.851 35.0469 51.601 34.8969L51.631 34.8769C51.201 34.7769 50.761 34.5469 50.541 34.5169L50.571 34.4969L50.061 34.3269H50.161C49.911 34.2569 49.681 34.1969 49.451 34.1369C49.041 34.0169 48.651 33.9069 48.271 33.7969C47.951 34.1269 47.651 34.4369 47.351 34.7469L47.481 34.7869C46.391 35.8169 46.261 36.3969 45.371 37.3769V37.3469C44.651 38.8869 43.731 39.4569 43.151 41.1169C43.211 40.9069 43.061 41.1669 43.041 41.1469C42.711 41.8669 42.341 42.6369 42.561 42.7469C42.321 43.2669 42.301 43.1469 42.191 43.1769C42.281 43.2169 42.121 43.6869 41.941 44.0969L41.991 43.8969C41.821 44.2869 41.691 44.6969 41.541 45.1069L41.811 44.9369C41.521 45.5469 41.531 45.0169 41.341 45.6369L41.491 45.6869C41.141 46.5569 40.771 47.0169 40.371 47.8569C39.261 51.5369 39.191 55.6869 39.251 59.2269L39.151 59.3969C38.991 59.4969 39.491 60.2869 39.371 60.7069C39.431 60.9069 39.421 61.1669 39.551 61.2969C39.691 61.3769 40.051 61.5469 39.701 61.4569C40.001 61.5669 40.151 61.6169 40.291 61.6569C40.431 61.6969 40.561 61.7169 40.681 61.7369L41.041 61.9869C41.761 62.3069 42.471 62.3869 43.181 62.5369C43.891 62.6269 44.611 62.6969 45.401 62.8169C45.871 62.9069 46.451 62.9769 47.091 63.0269C47.731 63.0569 48.421 63.0269 49.121 63.0169C50.521 62.9269 51.921 62.7169 52.921 62.4969C55.711 61.8469 59.181 61.5869 61.801 60.0069C61.901 59.9969 62.101 59.8269 62.091 59.8069C62.891 59.3669 63.731 58.9969 64.481 58.4569C64.481 58.4569 64.651 58.3369 64.941 58.1469C65.231 57.9569 65.631 57.6869 66.031 57.3069C66.891 56.6269 67.821 55.5969 68.401 54.7269C68.931 53.8069 69.231 53.1569 68.961 53.2069C68.831 53.2269 68.561 53.4269 68.121 53.8269C67.891 54.0169 67.671 54.2969 67.311 54.5569C66.951 54.8369 66.551 55.1469 66.091 55.5069L66.111 55.4369C65.561 55.8669 65.101 56.1969 64.711 56.5369C64.301 56.8469 63.931 57.1269 63.581 57.4769C63.451 57.4169 63.221 57.5869 62.951 57.7569C62.681 57.9169 62.401 58.1069 62.241 58.1469L62.261 58.1169C61.591 58.7169 60.611 58.7869 59.911 59.2569C59.931 59.2269 59.921 59.1569 60.101 59.0769C59.571 59.3669 58.791 59.6769 58.701 59.5669C58.031 59.8269 57.201 60.1069 56.421 60.3069C55.651 60.5469 54.941 60.7369 54.501 60.9269L54.561 60.8769C54.061 61.1169 53.891 61.0469 53.311 61.2169C53.271 61.2069 53.231 61.1969 53.241 61.1969C52.681 61.4069 51.561 61.4669 51.101 61.5569L51.061 61.4669L49.911 61.5669H50.341C50.201 61.7969 49.461 61.4969 48.631 61.6369C47.851 61.6169 47.021 62.1569 46.201 61.9569C45.801 62.0469 46.561 61.7969 45.971 61.8469C45.971 61.7169 46.251 61.7869 46.111 61.6769C45.531 61.7069 45.191 61.4769 44.491 61.4469V61.3469C43.531 61.4169 42.831 60.8869 42.201 60.9169C41.731 60.8569 41.621 60.6969 41.481 60.5969C41.411 60.5369 41.351 60.4869 41.241 60.4369C41.181 60.4169 41.121 60.3869 41.041 60.3669C41.001 60.3669 40.961 60.3669 40.891 60.3669C40.871 60.3069 40.861 60.2669 40.871 60.2169C40.871 60.0669 40.711 60.2569 40.741 59.9169C40.831 59.9369 40.751 59.3269 40.861 59.5869C40.861 58.5369 40.541 57.4669 40.761 56.0769C40.611 55.7669 40.751 55.0769 40.641 54.8469C40.701 54.8169 40.751 53.4469 40.841 54.2469C40.841 54.3169 40.841 54.4369 40.811 54.4269L40.901 54.5269C41.131 53.7569 40.961 53.0969 41.081 52.3269C41.021 52.5469 40.991 52.8569 40.951 52.6469C40.991 52.4069 41.011 52.1669 41.071 51.9269L41.121 52.0869L41.371 51.0369L41.241 51.1669C41.401 50.6569 41.581 50.5069 41.581 49.8969C41.571 49.6169 41.321 50.3569 41.431 49.8069C41.671 49.1369 42.031 48.1269 42.361 47.2869C42.221 47.3269 42.301 47.0969 42.361 46.8569H42.461C42.631 45.9069 42.781 46.6069 43.011 45.6769L43.041 45.7769L42.941 45.4669C43.071 44.5869 43.281 45.1069 43.421 44.1269C43.281 44.4769 43.151 44.2069 43.381 43.7969L43.421 43.9469C43.511 43.7069 43.501 43.6069 43.591 43.4569C43.571 43.6169 43.681 43.5869 43.821 43.2369V43.5169C43.871 43.2769 43.921 43.0369 43.971 42.7969C44.311 42.3469 44.591 41.5069 44.831 41.3769C44.831 41.3769 45.461 40.3769 45.491 40.0669C45.441 40.3169 45.821 39.7769 45.811 39.9969C45.881 39.6869 46.291 38.8669 46.601 38.6369L46.571 38.6969C47.411 37.6569 47.801 36.7569 48.691 35.9569C48.651 35.8369 48.751 35.8169 48.661 35.6969C48.681 35.6669 48.701 35.6269 48.721 35.5969C48.771 35.5969 48.821 35.6169 48.861 35.6369L49.071 35.7169C49.301 35.7969 49.511 35.9169 49.701 35.9969C50.081 36.1569 50.391 36.2569 50.661 36.1469C51.201 36.3469 51.241 36.5069 51.501 36.6369L51.371 36.6069C52.351 37.0269 52.641 37.1469 53.331 37.5269C53.701 37.6769 53.871 37.4969 54.461 37.9069C54.221 37.8669 54.481 37.9969 54.711 38.1369C54.561 38.0569 54.501 38.0569 54.771 38.2869C54.831 38.2869 54.901 38.3169 54.971 38.3369V38.3569C55.371 38.5569 55.321 38.4969 55.141 38.3769C55.161 38.3769 55.141 38.3469 55.111 38.2969C55.461 38.6069 56.201 38.9869 56.171 39.1269C56.721 39.4569 57.221 39.7569 57.701 40.0569C58.181 40.3269 58.621 40.6069 59.071 40.9469C59.121 41.0869 58.881 40.9669 58.611 40.7869L59.241 41.2669C59.171 41.3469 58.851 41.0269 58.651 40.8969C58.961 41.2669 59.371 41.5269 59.781 41.8169C60.181 42.1169 60.611 42.4369 60.961 42.8669L61.191 42.9569L61.231 43.0169C61.231 43.0169 61.471 43.1169 61.601 43.2269C61.641 43.4069 61.441 43.3769 61.831 43.7569C62.071 44.1169 62.721 44.5969 63.111 45.0069C62.921 44.7669 63.031 44.8069 63.141 44.8869C63.321 45.0969 63.351 45.2669 63.521 45.4069L63.441 45.5069C63.461 45.3469 64.011 45.9569 64.101 46.0169C64.121 46.1969 63.781 45.7269 63.671 45.7269C64.361 46.5769 64.011 46.1569 64.691 47.0169C65.121 47.4269 64.721 46.8569 64.981 47.0169C65.331 47.4069 65.661 47.7969 65.931 48.3369V48.1169C66.221 48.5069 66.461 48.8269 66.641 49.1169C66.811 49.4269 66.931 49.7169 67.041 50.0369C67.311 50.3969 67.551 50.7269 67.781 51.0269C67.981 51.3169 68.151 51.5869 68.311 51.8269C68.631 52.2869 68.861 52.5969 69.041 52.7869C69.391 53.1769 69.481 53.0969 69.481 52.8169C69.441 52.2469 68.891 50.8469 68.891 50.8469C68.311 49.4669 67.751 48.4669 67.021 47.5069C66.671 47.0169 66.301 46.5169 65.841 46.0069C65.391 45.4769 64.911 44.8869 64.301 44.2469L64.291 44.2169Z" fill="#8E8E8E"/>
<path d="M56.6504 48.8262L56.6704 48.8862C56.6704 48.8862 56.6704 48.8462 56.6504 48.8262Z" fill="#8E8E8E"/>
<path d="M55.7704 50.0659C56.2404 50.2759 56.3004 50.5159 56.8304 50.5959C57.0604 50.6859 57.3404 50.7159 57.5804 50.7659C57.7404 50.6359 57.8904 50.8559 58.0604 50.7659L58.0804 50.8759C58.1404 50.8459 58.2004 50.8259 58.2304 50.8959V50.9259C58.3104 50.8759 58.3704 50.9459 58.4204 50.9259V50.9559L58.4904 50.9659L58.4604 50.9959C58.6004 50.9559 58.7204 50.9959 58.8204 51.0559L58.8504 50.9459C59.0404 51.1459 59.2004 50.9459 59.3604 51.1459V51.1759C59.7004 50.9659 59.7004 51.5059 60.0604 51.3159C60.0204 51.3359 60.0604 51.3759 60.0504 51.4059C60.1804 51.4059 60.3204 51.4359 60.3904 51.2259C60.4804 51.2559 60.4404 51.3159 60.4304 51.4059C60.4604 51.3059 60.5504 51.2959 60.6204 51.3159L60.5804 51.3459L60.7904 51.3759L60.8104 51.1859C60.9004 51.2759 60.7704 51.4159 60.8904 51.4059L60.9404 51.2559C61.0804 51.3359 61.1004 51.5859 61.2104 51.7359C61.7904 51.9859 62.5504 51.8059 63.0304 52.2459V52.3659C62.9804 52.5359 63.2504 52.1759 63.2204 52.3259L63.3104 52.2759C63.3104 52.2759 63.3504 52.3559 63.3104 52.3759C63.3704 52.3959 63.3804 52.3759 63.4404 52.3359L63.4704 52.4559C63.6804 52.6059 63.9404 52.4759 64.1804 52.5959C64.4104 52.8959 65.0404 52.8859 65.4004 52.8759C65.9304 52.7759 66.2604 53.5959 66.8104 53.4559C66.8104 53.4859 66.8704 53.4459 66.8804 53.4259L67.3004 53.5859C67.3004 53.5859 69.3504 54.2959 68.2004 52.4459L68.2204 52.4159C68.0104 52.2559 67.8704 52.1859 67.6604 52.3159C67.7004 52.0859 67.4804 52.2359 67.4404 52.1459V52.1259C67.2604 52.2459 67.2004 51.8959 67.0204 52.0059C67.0304 51.9859 67.0504 51.9259 67.0904 51.9359C66.9804 51.9359 66.8304 51.9359 66.8604 51.8059C66.6104 51.7659 66.3004 51.5959 66.0804 51.7559L66.1004 51.7259C65.9704 51.8359 65.9804 51.7059 65.8604 51.7459C65.8604 51.7259 65.8604 51.7159 65.8604 51.7059C65.7204 51.8159 65.5804 51.6359 65.4804 51.6759L65.5004 51.5859L65.3004 51.5459L65.3704 51.5859C65.2704 51.8159 65.2704 51.3959 65.0904 51.5059C64.9704 51.4359 64.6804 51.9059 64.5804 51.7559C64.4804 51.8459 64.6904 51.5959 64.5804 51.6459C64.6104 51.5259 64.6504 51.5859 64.6504 51.4759C64.5404 51.5059 64.5404 51.3059 64.3904 51.3459L64.4204 51.2459C64.2204 51.3759 64.1804 51.0359 64.0204 51.1659C63.8404 51.1959 64.0004 50.8559 63.7804 50.9859L63.7604 50.8359C63.7004 50.7959 63.6604 50.9759 63.6004 50.8959C63.6304 50.8159 63.5204 50.8059 63.6004 50.7359C63.4704 50.5559 63.1904 50.8059 63.0304 50.5159C62.9304 50.6559 62.8504 50.5259 62.7704 50.6359C62.7904 50.5659 62.5404 50.5559 62.7204 50.4459C62.7304 50.4459 62.7504 50.4459 62.7404 50.4759L62.7804 50.3859C62.7104 50.1659 62.5104 50.4059 62.3904 50.3459C62.4204 50.3859 62.4704 50.3959 62.4204 50.4459L62.3004 50.3959L62.3504 50.3259L62.1904 50.2259V50.3259C62.1104 50.2459 62.1304 50.0759 61.9904 50.1759C61.9204 50.2359 62.0304 50.3359 61.9304 50.3359C61.8304 50.2359 61.6904 50.0759 61.5504 50.0059C61.5304 50.1159 61.4904 50.1059 61.4404 50.1159L61.4604 50.0159C61.2604 50.0959 61.4604 49.7859 61.2804 49.8459L61.3104 49.7859L61.2104 49.9759C61.0104 50.1159 61.2004 49.7559 60.9604 49.9659C61.0304 49.9659 60.9204 50.1859 60.8604 50.1159L60.9104 50.0259C60.9104 50.0259 60.8404 50.0659 60.8104 50.0359C60.8504 49.9959 60.8704 49.9059 60.8004 49.9059L60.8804 49.8059L60.7104 49.9359C60.6504 49.8059 60.4704 49.8859 60.4704 49.7459C60.4704 49.7459 60.2904 49.6259 60.2104 49.7459C60.2804 49.6659 60.1804 49.6059 60.2404 49.5059C60.1604 49.5859 59.9804 49.6259 59.9604 49.5059H59.9804C59.7904 49.3159 59.5504 49.5259 59.4004 49.3359C59.3704 49.4459 59.2904 49.3559 59.2704 49.5059C59.0204 49.5859 58.9804 49.1059 58.7704 49.5059C58.6704 49.5059 58.6904 49.3659 58.6504 49.3359L58.6804 49.3159C58.4904 49.2959 58.4404 49.2859 58.3104 49.2359C58.2304 49.2559 58.1604 49.4559 58.0604 49.3759C58.1204 49.3059 58.0704 49.3059 58.0304 49.2959C58.0604 49.2959 58.0804 49.2659 58.0304 49.1959C58.0104 49.2159 58.0004 49.2259 57.9804 49.2359C57.9804 49.2359 57.9804 49.2259 57.9804 49.2159C57.9004 49.2159 57.9004 49.2459 57.9304 49.2759C57.9304 49.2859 57.9304 49.3059 57.9304 49.3259C57.8904 49.1959 57.7204 49.2659 57.7504 49.1259C57.5204 49.0859 57.3204 49.1859 57.1204 49.1759C57.1204 49.0959 57.1804 49.0459 57.2504 49.0359H57.1104C57.1404 48.9159 57.2004 48.9859 57.2504 48.9759C57.1504 48.7659 56.8804 49.0459 56.7504 48.8359L56.6904 48.9059V48.8859C56.6904 48.8859 56.6104 48.9759 56.5804 48.9759C56.5804 48.8759 56.6504 48.7659 56.5604 48.7459C56.5204 48.6359 56.3504 48.7259 56.2404 48.7459C56.2904 48.7759 56.2504 48.8259 56.2204 48.8459C56.1704 48.8359 56.1804 48.7359 56.1304 48.7659L56.1604 48.6459C56.1404 48.7659 56.0104 48.7359 55.9704 48.7759C55.9704 48.6759 56.0604 48.7159 56.1004 48.6559C55.9204 48.6159 56.0104 48.6359 55.8304 48.5859C55.7104 48.6459 55.8104 48.7059 55.7304 48.7959C55.6404 48.7959 55.5304 48.8559 55.4604 48.7459V48.8659C55.2704 48.8959 55.1804 48.8659 55.1104 48.7159C53.6604 49.2159 54.4904 49.8259 54.4904 49.8259C54.8804 50.2059 55.2204 49.9759 55.8004 50.0559L55.7704 50.0659Z" fill="#8E8E8E"/>
<path d="M49.3803 51.7773H49.3203C49.3203 51.7773 49.3603 51.7973 49.3803 51.7773Z" fill="#8E8E8E"/>
<path d="M48.6408 50.4468C48.2508 50.7768 48.0008 50.7268 47.7008 51.1668C47.5108 51.3368 47.3708 51.5668 47.2208 51.7668C47.2608 51.9668 47.0008 52.0068 47.0108 52.1968L46.9009 52.1668C46.9009 52.2368 46.8908 52.2968 46.8208 52.2968L46.8008 52.2769C46.8008 52.3769 46.7208 52.4069 46.7208 52.4569L46.7008 52.4369L46.6509 52.5069L46.6308 52.4669C46.6008 52.6069 46.5208 52.7069 46.4108 52.7669L46.5008 52.8368C46.2408 52.9268 46.3609 53.1468 46.0909 53.2068L46.0708 53.1869C46.1008 53.5969 45.6208 53.3569 45.6408 53.7669C45.6408 53.7169 45.5908 53.7369 45.5708 53.7169C45.5108 53.8369 45.4209 53.9469 45.5909 54.1069C45.5209 54.1769 45.4908 54.1068 45.4108 54.0668C45.4808 54.1368 45.4608 54.2269 45.4108 54.2769V54.2268L45.2808 54.4069L45.4508 54.5068C45.3308 54.5468 45.2608 54.3668 45.2208 54.4768L45.3308 54.5868C45.2008 54.6768 44.9708 54.5868 44.7808 54.6168C44.3008 55.0268 44.1308 55.7869 43.5308 56.0269L43.4309 55.9669C43.3009 55.8569 43.5009 56.2568 43.3709 56.1668V56.2669C43.3709 56.2669 43.2908 56.2669 43.2908 56.2169C43.2408 56.2569 43.2609 56.2769 43.2709 56.3469L43.1509 56.3269C42.9209 56.4469 42.9308 56.7469 42.7208 56.9069C42.3508 56.9869 42.0908 57.5469 41.9408 57.8769C41.8008 58.3969 40.9208 58.3369 40.8008 58.8869C40.7708 58.8869 40.7808 58.9469 40.8008 58.9669L40.4808 59.2769C40.4808 59.2769 38.9508 60.8068 41.1108 60.5868L41.1308 60.6168C41.3608 60.4968 41.4809 60.4068 41.4609 60.1468C41.6509 60.2868 41.6109 60.0169 41.7109 60.0269V60.0469C41.6909 59.8169 42.0409 59.9268 42.0209 59.7068C42.0209 59.7268 42.0708 59.7669 42.0508 59.7969C42.1008 59.6969 42.1608 59.5568 42.2608 59.6468C42.4108 59.4368 42.6908 59.2269 42.6408 58.9669L42.6608 58.9969C42.6208 58.8269 42.7309 58.8969 42.7409 58.7669C42.7609 58.7669 42.7709 58.7668 42.7709 58.7868C42.7309 58.6168 42.9509 58.5568 42.9609 58.4568L43.0308 58.5169L43.1509 58.3569L43.0909 58.3968C42.9309 58.2068 43.3008 58.3968 43.2908 58.1768C43.4008 58.0968 43.1108 57.6269 43.2908 57.6069C43.2508 57.4769 43.3908 57.7768 43.3908 57.6468C43.4908 57.7368 43.4208 57.7368 43.5108 57.7868C43.5308 57.6768 43.7108 57.7568 43.7308 57.6168L43.8109 57.6768C43.7909 57.4368 44.1108 57.5469 44.0508 57.3569C44.1008 57.1869 44.3409 57.4768 44.3109 57.2268L44.4508 57.2669C44.5208 57.2269 44.3708 57.1169 44.4708 57.1069C44.5308 57.1669 44.5909 57.0768 44.6209 57.1668C44.8409 57.1268 44.7409 56.7669 45.0609 56.7469C44.9809 56.5969 45.1309 56.5769 45.0609 56.4669C45.1209 56.5069 45.2308 56.2968 45.2508 56.5068C45.2508 56.5268 45.2408 56.5369 45.2208 56.5169L45.2808 56.5969C45.5108 56.6269 45.3809 56.3469 45.4909 56.2669C45.4409 56.2669 45.4108 56.3169 45.3808 56.2469L45.4808 56.1668L45.5209 56.2469L45.6809 56.1468L45.5909 56.0969C45.6909 56.0669 45.8408 56.1569 45.8008 55.9869C45.7708 55.8969 45.6409 55.9568 45.6809 55.8668C45.8109 55.8268 46.0208 55.7668 46.1408 55.6768C46.0508 55.6068 46.0809 55.5768 46.0909 55.5368L46.1708 55.5969C46.1808 55.3769 46.3709 55.7068 46.4009 55.5068L46.4408 55.5668L46.3208 55.3968C46.2808 55.1568 46.5308 55.4768 46.4408 55.1768C46.4108 55.2368 46.2608 55.0469 46.3508 55.0169L46.4108 55.0969C46.4108 55.0969 46.4108 55.0168 46.4408 55.0068C46.4608 55.0568 46.5309 55.1168 46.5609 55.0568L46.6209 55.1668L46.5808 54.9568C46.7208 54.9568 46.7308 54.7569 46.8508 54.8269C46.8508 54.8269 47.0409 54.7268 46.9609 54.5868C47.0009 54.6768 47.1008 54.6269 47.1608 54.7169C47.1208 54.6069 47.1608 54.4369 47.2908 54.4669V54.4869C47.5308 54.3969 47.4508 54.0868 47.6908 54.0368C47.6008 53.9668 47.7209 53.9269 47.5909 53.8469C47.6309 53.5869 48.0808 53.7668 47.8008 53.3968C47.8508 53.3068 47.9608 53.3868 48.0108 53.3668V53.3968C48.1108 53.2368 48.1409 53.1969 48.2409 53.1069C48.2509 53.0269 48.1108 52.8768 48.2308 52.8168C48.2608 52.9068 48.2908 52.8568 48.3208 52.8168C48.3108 52.8468 48.3208 52.8768 48.4108 52.8668C48.4008 52.8468 48.3908 52.8268 48.3908 52.8068C48.3908 52.8068 48.4008 52.8068 48.4108 52.8168C48.4408 52.7368 48.4108 52.7369 48.3808 52.7469C48.3808 52.7369 48.3608 52.7269 48.3308 52.7169C48.4608 52.7369 48.4809 52.5468 48.5909 52.6468C48.7209 52.4568 48.7309 52.2368 48.8109 52.0568C48.8809 52.0968 48.9008 52.1668 48.8808 52.2268L48.9508 52.1069C49.0308 52.1769 48.9509 52.2069 48.9309 52.2469C49.1709 52.2469 49.0308 51.8869 49.2808 51.8569L49.2508 51.7668H49.2709C49.2709 51.7668 49.2208 51.6669 49.2308 51.6369C49.3208 51.6769 49.3908 51.7869 49.4508 51.7169C49.5708 51.7169 49.5609 51.5369 49.5909 51.4269C49.5409 51.4569 49.5208 51.4068 49.5108 51.3668C49.5408 51.3268 49.6309 51.3669 49.6209 51.3169L49.7109 51.3969C49.6109 51.3269 49.7108 51.2169 49.6708 51.1769C49.7608 51.2169 49.6708 51.2868 49.7208 51.3368C49.8408 51.1968 49.7809 51.2668 49.9009 51.1168C49.9009 50.9768 49.8008 51.0469 49.7508 50.9369C49.7908 50.8569 49.7908 50.7369 49.9108 50.7069L49.8109 50.6568C49.8609 50.4768 49.9408 50.4168 50.1008 50.4068C50.2808 48.8868 49.3709 49.3668 49.3709 49.3668C48.8609 49.5468 48.9209 49.9569 48.5909 50.4369L48.6408 50.4468Z" fill="#8E8E8E"/>
<path d="M50.71 50.8267C50.89 50.9067 50.9299 51.1467 51.1399 51.0667C51.2399 51.0867 51.3499 51.0567 51.4399 51.0267C51.4899 50.8567 51.5599 51.0267 51.6099 50.8867L51.6299 50.9867C51.6299 50.9867 51.6699 50.9067 51.6899 50.9567V50.9867C51.7099 50.9167 51.7399 50.9567 51.7599 50.9167V50.9467L51.7899 50.9367V50.9767C51.8299 50.8967 51.8699 50.8867 51.9199 50.9167V50.7967C51.9999 50.9167 52.0099 50.6767 52.1099 50.8267V50.8567C52.1699 50.5367 52.2899 51.0467 52.3499 50.7367C52.3499 50.7767 52.36 50.7967 52.37 50.8267C52.41 50.7867 52.4599 50.7667 52.4199 50.5367C52.4499 50.5367 52.4599 50.5967 52.4799 50.6867C52.4599 50.5867 52.4799 50.5467 52.5099 50.5267V50.5667L52.5699 50.5167L52.5199 50.3367C52.5199 50.3367 52.5699 50.5567 52.5999 50.5067L52.5699 50.3567C52.6299 50.3767 52.7099 50.6067 52.7899 50.7067C53.0299 50.7067 53.1299 50.2667 53.4199 50.4567L53.4699 50.5667C53.5399 50.7267 53.4299 50.3067 53.4999 50.4567V50.3767C53.4999 50.3767 53.5399 50.4267 53.5399 50.4667C53.5599 50.4667 53.5499 50.4367 53.5399 50.3867L53.5999 50.4767C53.7199 50.5167 53.7 50.2967 53.81 50.2967C54.01 50.4367 54.1199 50.1567 54.1599 49.9767C54.1499 49.6867 54.75 50.0767 54.71 49.7167C54.73 49.7267 54.7099 49.6767 54.6899 49.6667L54.84 49.5467C54.84 49.5467 55.0099 49.3767 54.9499 49.1667C54.9099 48.9367 54.5799 48.8267 53.8899 48.5667L53.8599 48.5467C53.7699 48.5367 53.7299 48.5367 53.8499 48.6867C53.6699 48.5367 53.8 48.6967 53.74 48.6567H53.7299C53.8299 48.7867 53.5899 48.5867 53.6699 48.7167C53.6599 48.7067 53.62 48.6567 53.62 48.6467C53.62 48.6767 53.6299 48.7367 53.5399 48.6467C53.5199 48.7067 53.4399 48.6967 53.5299 48.8967L53.5099 48.8667C53.5799 48.9967 53.4999 48.8967 53.5199 48.9767C53.5099 48.9667 53.4999 48.9567 53.4999 48.9467C53.5599 49.0767 53.4499 49.0067 53.4699 49.0667L53.4199 48.9867L53.3899 49.0267H53.4199C53.5399 49.2467 53.3099 48.9167 53.3599 49.0767C53.3199 49.0667 53.5399 49.5567 53.4499 49.4767C53.4899 49.5867 53.38 49.3067 53.4 49.3967C53.34 49.2867 53.3699 49.3167 53.3199 49.2267C53.3199 49.2967 53.23 49.1267 53.24 49.2267L53.1999 49.1367C53.2399 49.3167 53.08 49.0467 53.12 49.2167C53.12 49.3067 52.9799 48.9567 53.0199 49.1567L52.9499 49.0367C52.9499 49.0367 52.9999 49.1967 52.9499 49.1467C52.9199 49.0667 52.8999 49.0967 52.8799 49.0167C52.7899 48.9067 52.8599 49.2267 52.7299 49.0267C52.7699 49.1867 52.71 49.1067 52.74 49.2267C52.72 49.1567 52.6799 49.2267 52.6699 49.0767C52.6699 49.0667 52.67 49.0667 52.68 49.0867L52.65 48.9967C52.57 48.8267 52.6199 49.1067 52.5799 49.0867C52.5999 49.1167 52.61 49.1067 52.62 49.1667H52.59L52.5699 49.0767L52.5099 49.0467L52.5399 49.1467C52.5399 49.1467 52.4499 48.9367 52.4699 49.0867C52.4699 49.1667 52.5199 49.2167 52.5099 49.2567C52.4599 49.1967 52.3999 49.1067 52.3499 49.0867C52.3799 49.1967 52.3699 49.1967 52.3599 49.2167L52.34 49.1167C52.33 49.2567 52.2799 48.9067 52.2599 49.0167V48.9467L52.2799 49.1567C52.2799 49.3567 52.2199 48.9567 52.2299 49.2267C52.2399 49.2067 52.2799 49.4367 52.2499 49.4067V49.3067C52.2499 49.3067 52.2299 49.3667 52.2199 49.3467C52.2199 49.2967 52.1999 49.2067 52.1899 49.2267V49.1067L52.18 49.2867C52.14 49.1867 52.12 49.3167 52.09 49.1867C52.09 49.1867 52.0299 49.1267 52.0399 49.2767C52.0399 49.1867 52.0099 49.1567 51.9999 49.0467C51.9999 49.1467 51.9699 49.2467 51.9399 49.1367C51.8699 49.0167 51.8599 49.2867 51.7999 49.1567C51.8099 49.2767 51.7799 49.2067 51.7999 49.3567C51.7499 49.5067 51.6899 49.0667 51.6899 49.5167C51.6599 49.5367 51.6599 49.4067 51.6399 49.3867V49.3667C51.6399 49.3667 51.5899 49.4067 51.5499 49.3967C51.5299 49.4367 51.5299 49.6567 51.4999 49.6067C51.5099 49.5267 51.5 49.5367 51.49 49.5367C51.49 49.5267 51.5 49.4967 51.49 49.4367C51.49 49.4667 51.4899 49.4767 51.4799 49.4967V49.4767C51.4799 49.4767 51.4599 49.5367 51.4799 49.5467C51.4799 49.5567 51.4799 49.5767 51.4799 49.5967C51.4599 49.4867 51.42 49.5967 51.43 49.4567C51.37 49.4867 51.3199 49.6367 51.2599 49.6867C51.2599 49.6167 51.2799 49.5467 51.2999 49.5167L51.2599 49.5367C51.2699 49.4267 51.2899 49.4767 51.2999 49.4567C51.2799 49.2867 51.1999 49.6167 51.1699 49.4567L51.15 49.5367C51.15 49.5367 51.1199 49.6267 51.1099 49.6367C51.1099 49.5467 51.1399 49.4267 51.1099 49.4267C51.1099 49.3367 51.0499 49.4667 51.0199 49.5067C51.0299 49.5267 51.0199 49.5767 50.9999 49.6067C50.9899 49.6067 50.9999 49.5167 50.9799 49.5567L50.9999 49.4367C50.9799 49.5567 50.95 49.5567 50.93 49.6067C50.94 49.5167 50.9599 49.5367 50.9799 49.4667C50.9299 49.4667 50.9599 49.4667 50.9099 49.4667C50.8599 49.5567 50.8899 49.5867 50.8499 49.6867C50.8199 49.7067 50.7799 49.7867 50.7699 49.7067L50.7499 49.8167C50.6799 49.8867 50.6499 49.8667 50.6599 49.7467C50.3499 50.1167 50.17 50.3767 50.12 50.5767C50.07 50.7667 50.15 50.8867 50.15 50.8867C50.29 51.2067 50.4999 50.9167 50.7299 50.8867L50.71 50.8267Z" fill="#8E8E8E"/>
<path d="M50.5723 44.7275L50.6123 44.6875C50.6123 44.6875 50.5723 44.7075 50.5723 44.7275Z" fill="#8E8E8E"/>
<path d="M52.0515 44.6766C51.9915 44.2766 52.1715 44.1166 51.9715 43.7366C51.9315 43.5466 51.8315 43.3566 51.7515 43.1766C51.5615 43.1366 51.6815 42.9365 51.5115 42.8665L51.5915 42.7965C51.5315 42.7765 51.4915 42.7366 51.5315 42.6866H51.5615C51.4715 42.6466 51.5015 42.5766 51.4615 42.5566H51.4915L51.4615 42.4866H51.5015C51.4015 42.4166 51.3715 42.3165 51.3815 42.2265L51.2715 42.2665C51.3415 42.0465 51.0915 42.0466 51.1915 41.8466H51.2215C50.8715 41.7166 51.3315 41.4566 50.9815 41.3266C51.0215 41.3466 51.0315 41.2965 51.0615 41.2965C51.0015 41.2065 50.9515 41.1066 50.7315 41.1666C50.7115 41.0966 50.7815 41.0866 50.8615 41.0566C50.7615 41.0866 50.7115 41.0365 50.6815 40.9765L50.7215 40.9966L50.6415 40.8466L50.4715 40.9266C50.5015 40.8266 50.6815 40.8366 50.6215 40.7766L50.4715 40.8166C50.4715 40.6866 50.6715 40.5565 50.7515 40.4065C50.6815 39.9165 50.1515 39.5166 50.2915 38.9966L50.4015 38.9465C50.5615 38.8865 50.1215 38.8965 50.2715 38.8365L50.1815 38.8065C50.1815 38.8065 50.2315 38.7466 50.2715 38.7566C50.2715 38.7066 50.2415 38.7165 50.1815 38.6965L50.2715 38.6165C50.3015 38.4065 50.0515 38.3066 50.0415 38.0966C50.1815 37.7966 49.8615 37.4066 49.6715 37.1866C49.3215 36.8966 49.8615 36.2866 49.4715 35.9966C49.4915 35.9766 49.4315 35.9666 49.4115 35.9666L49.3415 35.6265C49.3415 35.6265 48.9315 33.9666 47.9215 35.6066H47.8815C47.8515 35.8166 47.8615 35.9365 48.0815 36.0165C47.8615 36.0965 48.1015 36.1766 48.0415 36.2366H48.0215C48.2215 36.2966 47.9515 36.5066 48.1315 36.5766C48.1115 36.5766 48.0515 36.5966 48.0415 36.5766C48.0915 36.6466 48.1715 36.7466 48.0415 36.7866C48.1315 36.9666 48.1415 37.2465 48.3915 37.3065H48.3515C48.5115 37.3365 48.4015 37.3965 48.4915 37.4465C48.4715 37.4465 48.4715 37.4666 48.4615 37.4666C48.6215 37.5066 48.5415 37.6765 48.6215 37.7265L48.5415 37.7566L48.6015 37.8966V37.8365C48.8415 37.7865 48.4915 37.9965 48.6715 38.0565C48.6715 38.1665 49.2215 38.1266 49.1315 38.2566C49.2515 38.2766 48.9415 38.2566 49.0415 38.3166C48.9215 38.3566 48.9515 38.3066 48.8615 38.3466C48.9415 38.4066 48.7715 38.5066 48.8815 38.5666L48.7915 38.5966C49.0015 38.6666 48.7315 38.8566 48.9215 38.8866C49.0315 38.9866 48.6615 39.0465 48.8815 39.1265L48.7715 39.2166C48.7715 39.2766 48.9415 39.2166 48.8915 39.2866C48.8115 39.3066 48.8515 39.3865 48.7615 39.3665C48.6715 39.5365 49.0215 39.5965 48.8615 39.8365C49.0315 39.8365 48.9615 39.9465 49.0915 39.9465C49.0215 39.9665 49.1315 40.1366 48.9515 40.0766C48.9415 40.0766 48.9315 40.0565 48.9615 40.0465H48.8615C48.7115 40.2165 49.0115 40.2166 49.0115 40.3266C49.0315 40.2866 49.0115 40.2466 49.0815 40.2566V40.3566H49.0115V40.5066L49.1015 40.4566C49.0715 40.5366 48.9115 40.6166 49.0715 40.6466C49.1615 40.6566 49.1815 40.5466 49.2315 40.6066C49.1915 40.7166 49.1315 40.8865 49.1315 41.0165C49.2415 40.9765 49.2415 41.0166 49.2715 41.0366L49.1815 41.0666C49.3515 41.1566 48.9815 41.1765 49.1215 41.2665H49.0515L49.2615 41.2466C49.4815 41.3066 49.0815 41.3666 49.3715 41.4166C49.3415 41.3766 49.5715 41.3365 49.5515 41.4065H49.4515C49.4515 41.4065 49.5215 41.4465 49.5115 41.4765C49.4515 41.4765 49.3715 41.5065 49.4015 41.5465H49.2815L49.4815 41.5865C49.4015 41.6865 49.5615 41.7665 49.4415 41.8365C49.4415 41.8365 49.4215 42.0066 49.5715 42.0066C49.4715 42.0066 49.4615 42.0966 49.3515 42.1066C49.4615 42.1166 49.5815 42.2166 49.4815 42.2866H49.4715C49.4115 42.4866 49.7115 42.5366 49.6215 42.7366C49.7315 42.6966 49.6915 42.7966 49.8315 42.7366C50.0215 42.8566 49.6315 43.1165 50.0815 43.0465C50.1215 43.1165 50.0015 43.1666 49.9915 43.2066H49.9615C50.0415 43.3266 50.0515 43.3666 50.0715 43.4666C50.1315 43.5066 50.3315 43.4565 50.3115 43.5566C50.2215 43.5566 50.2515 43.5865 50.2615 43.6165C50.2415 43.5965 50.2115 43.5965 50.1715 43.6565C50.2015 43.6565 50.2215 43.6566 50.2315 43.6666C50.2315 43.6666 50.2215 43.6666 50.2115 43.6666C50.2615 43.7166 50.2815 43.6966 50.2815 43.6666C50.2915 43.6666 50.3115 43.6666 50.3315 43.6466C50.2415 43.7366 50.3915 43.8066 50.2515 43.8566C50.3315 44.0166 50.5115 44.1065 50.6115 44.2265C50.5415 44.2665 50.4715 44.2466 50.4315 44.2166L50.4915 44.3066C50.3915 44.3365 50.4115 44.2666 50.3815 44.2366C50.2515 44.4066 50.6215 44.4366 50.5115 44.6265H50.6015L50.5915 44.6466C50.6315 44.6366 50.7015 44.6466 50.7215 44.6666C50.6415 44.7166 50.5115 44.7265 50.5415 44.7965C50.4715 44.8765 50.6315 44.9466 50.7015 45.0066C50.7015 44.9666 50.7615 44.9566 50.7915 44.9666C50.8015 44.9966 50.7215 45.0466 50.7715 45.0666L50.6515 45.1066C50.7615 45.0566 50.8015 45.1666 50.8515 45.1666C50.7715 45.2166 50.7615 45.1366 50.6915 45.1466C50.7415 45.2866 50.7215 45.2166 50.7715 45.3566C50.8815 45.4066 50.8815 45.3066 51.0015 45.3166C51.0415 45.3766 51.1515 45.4165 51.1015 45.5165L51.2015 45.4566C51.3215 45.5566 51.3315 45.6366 51.2415 45.7566C52.3815 46.4366 52.4915 45.6066 52.4915 45.6066C52.6215 45.1666 52.2515 45.0665 52.0415 44.6565L52.0515 44.6766Z" fill="#8E8E8E"/>
<path d="M51.9807 47.3965L51.9707 47.4065L51.9807 47.3965Z" fill="#8E8E8E"/>
<path d="M51.6612 47.0973C51.7412 47.1973 51.6612 47.3973 51.8012 47.3673C51.8412 47.4073 51.9112 47.3873 51.9712 47.3973C52.0812 47.2673 52.0312 47.4273 52.1312 47.3273L52.0912 47.4173C52.0912 47.4173 52.1512 47.3573 52.1312 47.4173L52.1112 47.4373C52.1612 47.3873 52.1512 47.4373 52.1812 47.4073L52.1612 47.4273H52.1812L52.1612 47.4573C52.2212 47.4073 52.2512 47.4173 52.2512 47.4573L52.3112 47.3573C52.2812 47.4973 52.4412 47.3073 52.3912 47.4673L52.3712 47.4873C52.6012 47.2773 52.3212 47.7073 52.5512 47.5173C52.5212 47.5373 52.5212 47.5673 52.5012 47.5873C52.5412 47.5873 52.5812 47.5873 52.7212 47.4073C52.7412 47.4273 52.6912 47.4773 52.6412 47.5473C52.7012 47.4673 52.7412 47.4473 52.7612 47.4573L52.7312 47.4773H52.7912L52.9012 47.3273C52.8912 47.3873 52.7612 47.5073 52.8112 47.4873L52.9112 47.3673C52.9112 47.3673 52.7812 47.6073 52.7312 47.7173C52.7912 47.8573 53.1812 47.6873 53.0712 47.9773L52.9912 48.0573C52.8612 48.1773 53.2012 47.9173 53.0912 48.0273L53.1612 47.9873C53.1612 47.9873 53.1212 48.0373 53.0912 48.0573C53.0912 48.0773 53.1212 48.0573 53.1612 48.0273L53.0912 48.1073C53.0612 48.1973 53.2512 48.1073 53.2612 48.1773C53.1312 48.3673 53.3712 48.3473 53.5112 48.3473C53.7912 48.3073 53.2712 48.7673 53.5712 48.7073C53.5512 48.7173 53.6012 48.7073 53.6212 48.6973L53.6512 48.7973C53.6512 48.7973 53.6812 48.9073 53.8612 48.9173C54.0412 48.9173 54.3812 48.8573 54.9312 48.3373H54.9712C55.0212 48.2173 55.0212 48.1573 54.8312 48.1973C55.0312 48.0873 54.8312 48.1273 54.8812 48.0773H54.9012C54.7212 48.1173 54.9812 47.9173 54.8212 47.9473C54.8412 47.9473 54.8912 47.9073 54.9012 47.9173C54.8612 47.8973 54.7912 47.8873 54.9012 47.8173C54.8312 47.7673 54.8212 47.6373 54.6212 47.7073L54.6512 47.6873C54.5112 47.7373 54.6112 47.6673 54.5312 47.6873C54.5412 47.6773 54.5512 47.6673 54.5612 47.6673C54.4212 47.7173 54.4912 47.6073 54.4312 47.6173L54.5012 47.5673L54.4512 47.5273V47.5573C54.2412 47.6973 54.5512 47.4273 54.3912 47.4873C54.3912 47.4373 53.9312 47.7273 54.0112 47.6273C53.9112 47.6873 54.1712 47.5273 54.0812 47.5573C54.1812 47.4773 54.1512 47.5173 54.2312 47.4473C54.1712 47.4573 54.3012 47.3273 54.2112 47.3573L54.2912 47.2973C54.1212 47.3773 54.3312 47.1473 54.1812 47.2273C54.0912 47.2473 54.3812 47.0073 54.2012 47.0973L54.2912 46.9973C54.2912 46.9973 54.1612 47.0973 54.1912 47.0373C54.2512 46.9773 54.2212 46.9673 54.2912 46.9273C54.3512 46.7873 54.0712 46.9673 54.1812 46.7573C54.0512 46.8573 54.0912 46.7573 54.0012 46.8473C54.0512 46.7973 53.9612 46.7873 54.1012 46.7073C54.1112 46.7073 54.1112 46.7073 54.1012 46.7273L54.1712 46.6573C54.2712 46.4973 54.0412 46.6773 54.0312 46.6173C54.0212 46.6473 54.0312 46.6573 53.9812 46.6973L53.9612 46.6573L54.0212 46.6073V46.5273L53.9512 46.6073C53.9612 46.5473 54.0712 46.4173 53.9512 46.4973C53.8812 46.5473 53.8812 46.6173 53.8312 46.6173C53.8512 46.5373 53.8812 46.4273 53.8612 46.3673C53.7912 46.4573 53.7812 46.4473 53.7612 46.4573L53.8212 46.3773C53.6912 46.4473 53.9512 46.1973 53.8312 46.2473L53.8812 46.1973L53.7412 46.3473C53.5812 46.4673 53.8512 46.1673 53.6412 46.3473C53.6712 46.3473 53.5112 46.5273 53.5212 46.4773L53.5912 46.4073C53.5912 46.4073 53.5412 46.4473 53.5412 46.4173C53.5812 46.3773 53.6312 46.3073 53.6012 46.3073L53.6912 46.2273L53.5512 46.3373C53.5912 46.2373 53.4712 46.3073 53.5512 46.1973C53.5512 46.1973 53.5412 46.1073 53.4412 46.2173C53.5112 46.1473 53.5012 46.0973 53.5712 46.0173C53.4912 46.0873 53.4012 46.1273 53.4512 46.0273H53.4612C53.4612 45.8773 53.2712 46.0673 53.2912 45.9273C53.2312 46.0273 53.2312 45.9573 53.1612 46.0773C53.0312 46.1673 53.2212 45.7573 52.9612 46.1273C52.9212 46.1273 52.9912 46.0173 52.9912 45.9873L53.0112 45.9673C52.9412 45.9673 52.9312 45.9673 52.8912 45.9373C52.8512 45.9673 52.7412 46.1473 52.7312 46.0873C52.7812 46.0173 52.7612 46.0273 52.7512 46.0173C52.7612 46.0173 52.7812 45.9873 52.7912 45.9273C52.7712 45.9473 52.7612 45.9573 52.7512 45.9673C52.7512 45.9673 52.7512 45.9573 52.7512 45.9473C52.7212 45.9573 52.7112 45.9873 52.7112 45.9973C52.7112 46.0073 52.7012 46.0273 52.6912 46.0473C52.7212 45.9373 52.6312 46.0173 52.6912 45.8973C52.6112 45.8973 52.5012 46.0073 52.4212 46.0273C52.4512 45.9573 52.4912 45.9073 52.5212 45.8873H52.4712C52.5212 45.7973 52.5212 45.8473 52.5412 45.8373C52.5712 45.6573 52.3712 45.9473 52.3912 45.7773L52.3412 45.8473C52.3412 45.8473 52.2812 45.9273 52.2712 45.9373C52.3012 45.8473 52.3612 45.7473 52.3312 45.7373C52.3512 45.6473 52.2512 45.7473 52.2112 45.7873C52.2112 45.8073 52.1912 45.8573 52.1712 45.8773C52.1612 45.8773 52.1912 45.7873 52.1612 45.8173L52.2112 45.6973C52.1712 45.8073 52.1312 45.7973 52.1012 45.8473C52.1312 45.7573 52.1512 45.7773 52.1812 45.7173C52.1212 45.7073 52.1512 45.7173 52.0912 45.6973C52.0312 45.7773 52.0512 45.8073 52.0012 45.9073C51.9712 45.9173 51.9112 45.9973 51.9112 45.9073L51.8812 46.0173C51.8112 46.0873 51.7912 46.0573 51.7912 45.9473C51.4812 46.3273 51.4112 46.6373 51.3712 46.8273C51.3412 47.0273 51.3512 47.1173 51.3512 47.1173C51.3512 47.3773 51.4912 47.0873 51.6412 47.0473L51.6612 47.0973Z" fill="#8E8E8E"/>
<path d="M51.7002 46.936L51.6602 46.916C51.6602 46.916 51.6902 46.936 51.7002 46.936Z" fill="#8E8E8E"/>
<path d="M50.1604 46.4455L50.1504 46.4355L50.1604 46.4455Z" fill="#8E8E8E"/>
<path d="M50.6111 45.9864C50.4711 46.0864 50.2611 46.0064 50.2411 46.1964C50.1811 46.2564 50.1711 46.3564 50.1611 46.4364C50.2911 46.5564 50.1111 46.5264 50.2111 46.6364L50.1211 46.6064C50.1211 46.6064 50.1811 46.6764 50.1211 46.6664H50.1011C50.1511 46.7064 50.1011 46.7064 50.1311 46.7364H50.1111V46.7564L50.0811 46.7364C50.1311 46.8064 50.1211 46.8464 50.0711 46.8564L50.1811 46.9064C50.0311 46.9164 50.2411 47.0464 50.0711 47.0464H50.0411C50.2911 47.2364 49.7911 47.0764 50.0311 47.2764C50.0011 47.2564 49.9711 47.2564 49.9511 47.2464C49.9711 47.2964 49.9711 47.3464 50.1811 47.4264C50.1711 47.4564 50.1111 47.4264 50.0211 47.3964C50.1111 47.4364 50.1411 47.4664 50.1411 47.4964L50.1111 47.4764V47.5464L50.3011 47.5964C50.2411 47.6064 50.0811 47.5264 50.1111 47.5664L50.2611 47.6164C50.2611 47.6164 49.9811 47.5964 49.8611 47.6064C49.7311 47.7764 50.0611 48.0764 49.7611 48.1864L49.6411 48.1664C49.4711 48.1364 49.8811 48.2664 49.7211 48.2464L49.7911 48.2864C49.7911 48.2864 49.7211 48.2864 49.6911 48.2764C49.6811 48.2964 49.7111 48.2964 49.7611 48.3264H49.6511C49.5511 48.3864 49.7411 48.4864 49.6911 48.5664C49.4611 48.6364 49.6311 48.8564 49.7511 48.9664C49.9911 49.1164 49.3111 49.2764 49.6111 49.4364C49.5911 49.4364 49.6411 49.4564 49.6611 49.4564L49.6411 49.5964C49.6411 49.5964 49.6411 49.7764 49.8111 49.8564C49.9811 49.9464 50.3211 49.9064 51.0111 49.6364H51.0511C51.1411 49.5764 51.1511 49.5364 50.9611 49.5064C51.1911 49.4864 50.9811 49.4564 51.0611 49.4464H51.0811C50.9011 49.4164 51.2311 49.3764 51.0711 49.3464C51.0911 49.3464 51.1511 49.3464 51.1611 49.3464C51.1311 49.3264 51.0811 49.2864 51.2111 49.2864C51.1711 49.2264 51.2411 49.1564 51.0311 49.1064H51.0711C50.9311 49.0864 51.0511 49.0864 50.9811 49.0564C51.0011 49.0564 51.0111 49.0564 51.0111 49.0564C50.8711 49.0264 50.9911 48.9864 50.9311 48.9664H51.0211L51.0011 48.9264L50.9811 48.9464C50.7411 48.9164 51.1411 48.9264 50.9811 48.8764C51.0111 48.8464 50.4811 48.7464 50.6111 48.7264C50.5011 48.6964 50.7911 48.7664 50.7111 48.7264C50.8411 48.7464 50.7911 48.7464 50.8911 48.7564C50.8311 48.7264 51.0211 48.7364 50.9411 48.6964H51.0411C50.8711 48.6464 51.1811 48.6664 51.0211 48.6064C50.9511 48.5564 51.3211 48.6364 51.1311 48.5664H51.2611C51.2611 48.5664 51.1011 48.5364 51.1711 48.5264C51.2511 48.5464 51.2411 48.5264 51.3211 48.5464C51.4611 48.5464 51.1511 48.4264 51.3911 48.4264C51.2311 48.3764 51.3311 48.3764 51.2211 48.3364C51.2911 48.3564 51.2411 48.2864 51.3911 48.3564C51.4011 48.3564 51.3911 48.3564 51.3711 48.3564L51.4611 48.3864C51.6511 48.4064 51.3811 48.3064 51.4111 48.2864C51.3811 48.2864 51.3811 48.2964 51.3211 48.2764L51.3411 48.2564L51.4211 48.2864L51.4811 48.2564L51.3811 48.2364C51.4411 48.2364 51.6011 48.2764 51.4711 48.2164C51.4011 48.1864 51.3311 48.1964 51.3111 48.1664C51.3811 48.1664 51.5011 48.1564 51.5411 48.1364C51.4311 48.1064 51.4411 48.0964 51.4211 48.0764L51.5111 48.1064C51.3911 48.0264 51.7211 48.1664 51.6311 48.1064L51.6911 48.1364L51.5011 48.0564C51.3311 47.9564 51.7011 48.1164 51.4611 47.9864C51.4711 48.0064 51.2511 47.9164 51.3011 47.9164L51.3911 47.9564C51.3911 47.9564 51.3411 47.9264 51.3611 47.9264C51.4111 47.9464 51.4911 47.9764 51.4811 47.9564L51.5911 48.0064L51.4411 47.9164C51.5411 47.9364 51.4411 47.8564 51.5611 47.8964C51.5611 47.8964 51.6411 47.8764 51.5111 47.8164C51.5911 47.8564 51.6311 47.8564 51.7311 47.9064C51.6411 47.8564 51.5811 47.7864 51.6811 47.8164H51.6911C51.8111 47.8164 51.5811 47.6764 51.7311 47.6964C51.6311 47.6464 51.6911 47.6564 51.5611 47.5964C51.4511 47.4864 51.8711 47.6564 51.4711 47.4264C51.4611 47.3964 51.5811 47.4564 51.6011 47.4564L51.6211 47.4764C51.6111 47.4264 51.6211 47.4064 51.6411 47.3864C51.6111 47.3464 51.4311 47.2464 51.4911 47.2464C51.5611 47.2964 51.5511 47.2764 51.5611 47.2664C51.5611 47.2764 51.5911 47.2964 51.6511 47.3164C51.6311 47.2964 51.6211 47.2864 51.6111 47.2764C51.6111 47.2764 51.6211 47.2764 51.6311 47.2864C51.6111 47.2564 51.5911 47.2464 51.5711 47.2464C51.5611 47.2464 51.5411 47.2364 51.5211 47.2264C51.6211 47.2664 51.5411 47.1764 51.6711 47.2464C51.6711 47.1864 51.5611 47.0664 51.5411 46.9964C51.6111 47.0364 51.6511 47.0764 51.6711 47.1064V47.0664C51.7511 47.1264 51.7111 47.1164 51.7211 47.1364C51.8811 47.1964 51.6211 46.9764 51.7811 47.0264L51.7211 46.9664H51.7311C51.7311 46.9664 51.6511 46.9064 51.6411 46.8864C51.7211 46.9364 51.8211 47.0064 51.8211 46.9864C51.9011 47.0264 51.8211 46.9164 51.7811 46.8764C51.7611 46.8764 51.7211 46.8464 51.7011 46.8164C51.7011 46.8064 51.7811 46.8564 51.7611 46.8164L51.8611 46.8964C51.7611 46.8264 51.7811 46.7964 51.7411 46.7664C51.8211 46.8164 51.7911 46.8264 51.8511 46.8764C51.8711 46.8364 51.8511 46.8564 51.8811 46.8164C51.8211 46.7364 51.7811 46.7464 51.7011 46.6664C51.7011 46.6364 51.6411 46.5664 51.7111 46.5864L51.6211 46.5264C51.5811 46.4364 51.6111 46.4264 51.7111 46.4764C51.4811 46.0564 51.2911 45.8064 51.1311 45.6864C50.9711 45.5664 50.8411 45.5764 50.8411 45.5764C50.5311 45.5464 50.7211 45.8364 50.6811 46.0364L50.6111 45.9864Z" fill="#8E8E8E"/>
<path d="M28.3105 12.0645L28.2305 12.0844C28.2305 12.0844 28.2705 12.0945 28.3105 12.0645Z" fill="#8E8E8E"/>
<path d="M27.9104 10.4249C27.1804 11.0749 26.8504 11.1049 26.2004 11.8749C25.8504 12.2049 25.5204 12.6049 25.2104 12.9549C25.1704 13.2349 24.7704 13.3949 24.6904 13.6849H24.5504C24.5204 13.7849 24.4704 13.8849 24.3704 13.9149L24.3504 13.8949C24.3104 14.0449 24.1704 14.1249 24.1404 14.1949L24.1204 14.1749L24.0104 14.3049V14.2549C23.8904 14.4749 23.7204 14.6549 23.5404 14.7849L23.6304 14.8549C23.2104 15.0849 23.2604 15.3749 22.8604 15.5649L22.8404 15.5449C22.6904 16.1349 22.1104 15.9849 21.9304 16.5749C21.9504 16.5049 21.8704 16.5549 21.8504 16.5249C21.7004 16.7249 21.5204 16.9249 21.6804 17.0849C21.5504 17.2149 21.5204 17.1349 21.4504 17.0849C21.5204 17.1549 21.4404 17.2949 21.3404 17.4049L21.3604 17.3349L21.1004 17.6449L21.2904 17.7249C21.1004 17.8349 21.0904 17.6049 20.9704 17.7749L21.0804 17.8849C20.8504 18.0749 20.5604 18.0349 20.2704 18.1549C19.3704 18.9549 18.7404 20.1449 17.7604 20.7449L17.6404 20.6949C17.5004 20.5849 17.6004 21.0949 17.4604 21.0149L17.4204 21.1649C17.4204 21.1649 17.3004 21.2049 17.3104 21.1249C17.2204 21.2049 17.2404 21.2249 17.2104 21.3249L17.0404 21.3449C16.6504 21.6249 16.5104 22.0549 16.1304 22.3749C15.5504 22.6449 14.9004 23.5849 14.5204 24.1249C14.0604 24.9549 12.8204 25.2149 12.3704 26.0849C12.3304 26.0849 12.3104 26.1849 12.3304 26.1949L11.7104 26.7849C11.7104 26.7849 8.7304 29.6749 11.9604 28.4449V28.4849C12.3704 28.2149 12.5904 28.0249 12.6804 27.6649C12.8804 27.7949 12.9704 27.4149 13.1004 27.3849V27.4049C13.1804 27.0749 13.6304 27.0949 13.7104 26.7849C13.7104 26.8049 13.7604 26.8549 13.7104 26.9049C13.8304 26.7449 13.9904 26.5149 14.0904 26.5949C14.4004 26.2349 14.9204 25.8049 14.9904 25.4349V25.4749C15.0204 25.2449 15.1504 25.3049 15.2304 25.1049C15.2504 25.1049 15.2704 25.1049 15.2704 25.1049C15.3004 24.8649 15.6504 24.6949 15.7104 24.5449L15.7804 24.6049L16.0304 24.3249L15.9204 24.4149C15.7804 24.2049 16.2304 24.3249 16.3104 24.0149C16.5104 23.8549 16.3104 23.2849 16.5904 23.1849C16.5904 23.0149 16.6404 23.3949 16.7104 23.1949C16.8004 23.2849 16.7104 23.3149 16.8104 23.3549C16.9004 23.1849 17.1204 23.2349 17.2204 23.0049L17.3004 23.0649C17.3804 22.7249 17.7904 22.7549 17.8104 22.4949C17.9704 22.2149 18.1704 22.5549 18.2604 22.1949H18.4404C18.5504 22.1149 18.3904 22.0149 18.5504 21.9549C18.6004 22.0249 18.7404 21.8649 18.7304 21.9849C19.0704 21.8349 19.1004 21.3549 19.5804 21.1849C19.5304 20.9949 19.7704 20.9049 19.7304 20.7649C19.7904 20.8049 20.0604 20.4449 19.9904 20.7449C19.9904 20.7649 19.9504 20.7949 19.9404 20.7749L19.9904 20.8649C20.3004 20.8149 20.2504 20.4549 20.4604 20.2949C20.3804 20.3249 20.3204 20.4049 20.3204 20.3049L20.5004 20.1449L20.5204 20.2349L20.8104 20.0149L20.7004 19.9749C20.8604 19.8849 21.0304 19.9749 21.0604 19.7249C21.0604 19.6049 20.8504 19.7449 20.9504 19.5949C21.1604 19.4749 21.4904 19.3049 21.7204 19.1149C21.6204 19.0549 21.6804 18.9949 21.7204 18.9249L21.8004 18.9849C21.9304 18.6649 22.0404 19.0549 22.1804 18.7549L22.2104 18.8249L22.1204 18.6149C22.1804 18.2749 22.3704 18.6549 22.4104 18.2349C22.3304 18.3349 22.2104 18.1249 22.3504 18.0449L22.3904 18.1449C22.4404 18.0749 22.4304 18.0249 22.4804 17.9949C22.4804 18.0649 22.5604 18.1149 22.6404 18.0149L22.6704 18.1549L22.7104 17.8649C22.9104 17.8049 23.0204 17.5149 23.1704 17.5549C23.1704 17.5549 23.4904 17.3249 23.4504 17.1549C23.4504 17.2749 23.6404 17.1549 23.6704 17.2649C23.6704 17.1149 23.8204 16.8449 23.9804 16.8449V16.8649C24.3704 16.6349 24.4004 16.2149 24.7804 16.0349C24.6904 15.9649 24.8804 15.8649 24.7404 15.7949C24.9304 15.4049 25.4804 15.4749 25.2704 15.0449C25.3904 14.8949 25.5004 14.9649 25.5904 14.9149V14.9649C25.8004 14.6949 25.8704 14.6149 26.0604 14.4349C26.1204 14.3149 25.9904 14.1449 26.1904 14.0149C26.1904 14.1249 26.2504 14.0449 26.3104 13.9849C26.2804 14.0349 26.2904 14.0649 26.4104 14.0249C26.4104 13.9949 26.4104 13.9649 26.4104 13.9449C26.4104 13.9449 26.4204 13.9449 26.4304 13.9549C26.5104 13.8349 26.4804 13.8349 26.4204 13.8749C26.4204 13.8649 26.4004 13.8549 26.3704 13.8549C26.5504 13.8249 26.6604 13.5549 26.7804 13.6449C27.0704 13.3149 27.1804 12.9849 27.4004 12.6849C27.4804 12.7049 27.4704 12.8149 27.4104 12.9149L27.5704 12.7149C27.6404 12.7949 27.5104 12.8649 27.4704 12.9349C27.8104 12.8349 27.8004 12.3649 28.1604 12.2249V12.1149H28.1804C28.1504 12.0849 28.1604 11.9849 28.1804 11.9349C28.2804 11.9649 28.3304 12.0849 28.4504 11.9549C28.6104 11.9149 28.7004 11.6349 28.8004 11.4749C28.7204 11.5349 28.7004 11.4749 28.7104 11.4249C28.7704 11.3549 28.8704 11.3849 28.8904 11.3149L28.9904 11.3949C28.8804 11.3349 29.0604 11.1349 29.0504 11.0749C29.1504 11.1049 29.0104 11.2349 29.0504 11.2949L29.4204 10.9049C29.4904 10.7049 29.3104 10.8449 29.3004 10.7049C29.4004 10.5649 29.4604 10.3849 29.6504 10.3049L29.5304 10.2649C29.6904 9.97492 29.8404 9.85492 30.0704 9.78492C31.1004 7.47492 29.5404 8.55492 29.5404 8.55492C28.7104 9.03492 28.6004 9.60492 27.8804 10.4549L27.9104 10.4249Z" fill="#8E8E8E"/>
<path d="M17.6404 9.56516L17.4004 9.53516C17.4004 9.53516 17.4704 9.56516 17.6404 9.56516Z" fill="#8E8E8E"/>
<path d="M8.31055 10.4951H8.32054L8.37054 10.4551L8.31055 10.5051V10.4951Z" fill="#8E8E8E"/>
<path d="M20.4912 8.05567C19.6812 8.03567 19.0212 8.01567 18.4312 8.02567C17.8412 8.02567 17.3212 8.00566 16.7912 8.04566C15.7412 8.08566 14.6612 8.18567 12.9912 8.62567C12.2012 8.85567 11.3612 9.03566 10.5812 9.40566C10.1912 9.57566 9.80119 9.73567 9.41119 9.89567C9.03119 10.0757 8.68118 10.2957 8.32118 10.4957C8.03118 10.7657 7.54118 10.9757 7.10118 11.3057C6.65118 11.6157 6.19118 11.9457 5.87118 12.2657L5.53118 12.3957C5.31118 12.6257 5.08118 12.9057 4.81118 13.0757V13.0457C4.51118 13.4157 4.10118 13.7357 3.96118 13.9257V13.8957C3.82118 14.0257 3.68118 14.1457 3.56118 14.2957L3.59118 14.1957C3.12118 14.8657 2.60118 15.4957 2.10118 16.0357L2.23118 16.0557C2.08118 16.2157 1.99118 16.2657 1.82118 16.5257C1.68118 16.7457 1.60119 16.9757 1.55119 17.2057C1.46119 17.6557 1.56119 18.1257 1.74119 18.4457C1.99119 18.9057 2.23119 19.3257 2.52119 19.9757H2.49119C3.64119 21.3257 3.81119 22.4457 5.13119 23.7157C4.96119 23.5557 5.14119 23.8257 5.11119 23.8357C5.64119 24.4757 6.22118 25.1357 6.40118 25.0057C6.78118 25.4657 6.66118 25.4257 6.64118 25.5457C6.71118 25.4857 7.09118 25.8457 7.40118 26.1857L7.23118 26.0457C7.54118 26.3757 7.84118 26.7057 8.15118 27.0257L8.11119 26.7057C8.56118 27.2557 8.06118 26.9957 8.57118 27.4557L8.68118 27.3457C9.33118 28.0857 9.57118 28.6457 10.1712 29.4057C12.9812 32.2257 16.5712 34.5457 19.4512 36.8257L19.5212 37.0157C19.4812 37.1957 20.5112 37.3557 20.5412 37.5657L20.9412 37.7357C21.0212 37.8257 21.2212 37.9957 21.0212 37.9057C21.3612 38.1357 21.3512 38.0957 21.6612 38.2257C21.8312 38.3657 22.0312 38.4757 22.2412 38.5557C22.8512 38.7057 23.5112 38.5557 23.9812 38.1657C24.3312 37.8457 24.5212 37.6057 24.8012 37.3257C25.2912 36.7557 25.8612 36.2557 26.3812 35.5857C26.7412 35.2257 27.1512 34.7657 27.5812 34.2357C27.9612 33.6757 28.3412 33.0357 28.7212 32.3957C29.0812 31.7457 29.3412 31.0357 29.6212 30.3957C29.8912 29.7457 30.0212 29.1057 30.1912 28.5857C30.5612 27.0957 30.9612 25.4957 31.2612 23.8557C31.5112 22.2157 31.6712 20.5357 31.4612 18.9957C31.4812 18.8957 31.4212 18.6357 31.4012 18.6357C31.3812 17.6957 31.3412 16.7557 31.3012 15.8357C31.3012 15.8357 31.2612 14.9957 31.2012 13.8957C31.1312 12.7957 31.1012 11.4657 31.1112 10.4557C31.1512 9.45567 31.1812 8.74566 30.9512 8.86566C30.7712 8.98566 30.1512 9.98567 29.8212 12.6257L29.7812 12.5557C29.7112 14.1157 29.7512 15.0757 29.9912 16.1157C29.7712 16.2957 30.0312 17.3657 29.9712 17.7257L29.9512 17.6957C30.1712 18.6157 29.8712 19.5957 30.0212 20.4757C30.0012 20.4457 29.9412 20.4257 29.9412 20.2157C29.9612 20.8557 29.9912 21.7357 29.8612 21.7757C29.8212 23.3057 29.5212 25.3957 29.4712 26.3757L29.4512 26.3057C29.4612 26.8757 29.3012 27.0057 29.2312 27.6257C29.2112 27.6557 29.1812 27.6957 29.1812 27.6857C29.1112 28.2957 28.6512 29.3657 28.5012 29.8257H28.4012L27.9012 30.9157L28.1112 30.5157C28.2412 30.7557 27.6412 31.2957 27.2812 32.0857C26.8312 32.7557 26.8412 33.7957 26.1612 34.3757C25.9912 34.7657 26.2412 33.9757 25.9212 34.5157C25.8112 34.4557 26.0412 34.2457 25.8612 34.3057C25.5112 34.7957 25.1912 35.0157 24.7112 35.5757L24.6212 35.5257C24.3412 35.9257 24.0012 36.2257 23.6812 36.4857C23.3612 36.7357 23.0612 37.0357 22.9912 37.1357C22.7312 37.2857 22.5912 37.1657 22.5312 37.0957C22.4212 37.0057 22.5112 37.0157 21.9612 36.7657L21.6912 36.4257C21.3312 36.1657 21.3312 36.3857 20.9512 36.0657C21.0212 36.0157 20.4612 35.6657 20.7512 35.7557C19.8912 35.0257 18.7612 34.6357 17.7112 33.5757C17.3612 33.5157 16.8212 32.9957 16.5512 32.9457C16.5512 32.8757 15.3912 32.0057 16.1412 32.4057C16.2012 32.4357 16.3012 32.5257 16.2812 32.5357H16.4212C15.8812 31.8457 15.1612 31.6457 14.5412 31.0957C14.7012 31.2857 14.9712 31.4757 14.7512 31.3957L14.1712 30.8857L14.3512 30.9257L13.5112 30.1357L13.5612 30.3157C13.1612 29.9057 13.1412 29.6457 12.5712 29.3257C12.3012 29.1857 12.8712 29.7857 12.4112 29.4057C11.8912 28.8557 11.1612 27.9957 10.5012 27.2957C10.4812 27.4357 10.3012 27.2557 10.1012 27.0757L10.1512 26.9857C9.35118 26.3457 10.0512 26.5657 9.28118 25.9057L9.39118 25.9257L9.05119 25.8757C8.30119 25.3257 8.88118 25.3757 8.01118 24.7957C8.29118 25.0857 7.97118 25.0857 7.68118 24.6757L7.83119 24.7057C7.64119 24.5057 7.55118 24.4657 7.45118 24.3157C7.59118 24.4057 7.61118 24.2957 7.34118 23.9957L7.60118 24.1257L6.98118 23.6557C6.69118 23.1357 6.03119 22.4857 5.99119 22.2157C5.99119 22.2157 5.30118 21.1657 5.03118 21.0157C5.25118 21.1757 4.89118 20.5857 5.09118 20.6857C4.82118 20.4857 4.24118 19.7257 4.14118 19.3357L4.19119 19.3857C3.88119 18.7557 3.57118 18.2557 3.29118 17.7657L3.24119 17.6757C3.24119 17.6757 3.23118 17.6657 3.23118 17.6557C3.22118 17.6457 3.21118 17.6257 3.21118 17.6057C3.20118 17.5657 3.19118 17.5257 3.21118 17.4857C3.21118 17.4457 3.24119 17.3957 3.27119 17.3557C3.36119 17.2657 3.45119 17.1757 3.55119 17.0757C3.42119 17.0457 3.90118 16.5857 3.68118 16.6157C4.05118 16.0757 4.48119 15.6657 4.83119 15.3257C5.21119 15.0257 5.49118 14.7657 5.51118 14.4357C5.93118 14.0157 6.10119 14.0357 6.33119 13.8457L6.24119 13.9557C7.06119 13.2257 7.36118 13.0757 8.01118 12.5957C8.31118 12.3157 8.28118 12.1357 8.95118 11.8157C8.78118 12.0057 9.04118 11.8457 9.28118 11.7157C9.13118 11.8157 9.10119 11.8657 9.44119 11.7457C9.47119 11.6957 9.53118 11.6457 9.59118 11.5957C9.59118 11.5957 9.61119 11.5957 9.61119 11.6057C10.0012 11.3557 9.92118 11.3757 9.73118 11.4657C9.73118 11.4457 9.71118 11.4457 9.64118 11.4557C10.1012 11.3057 10.8712 10.9357 10.9712 11.0357C11.2812 10.8957 11.5712 10.7657 11.8612 10.6357C12.1412 10.5357 12.4212 10.4357 12.6912 10.3357C13.2212 10.1357 13.7312 9.92567 14.3012 9.81567C14.4412 9.86567 14.1912 9.97567 13.8612 10.0657L14.6612 9.88567C14.6712 9.99567 14.2112 10.0357 13.9612 10.0957C14.4612 10.0957 14.9412 9.95567 15.4512 9.81567C15.9612 9.69567 16.5112 9.60567 17.0912 9.62567L17.3212 9.51566H17.3912C17.3912 9.51566 17.6412 9.40567 17.8112 9.38567C17.9812 9.47567 17.8112 9.60567 18.3812 9.57567C18.8312 9.63567 19.6612 9.47567 20.2612 9.44567C19.9412 9.42567 20.0412 9.37567 20.1812 9.34567C20.4712 9.34567 20.6312 9.43567 20.8612 9.39567L20.8912 9.52567C20.7812 9.40567 21.6512 9.40566 21.7612 9.36566C21.9212 9.46566 21.3112 9.43567 21.2312 9.50567C22.3912 9.52567 21.8112 9.51567 22.9712 9.53567C23.6012 9.46567 22.8612 9.41567 23.1612 9.31567C23.7112 9.31567 24.2512 9.24567 24.8812 9.34567L24.6812 9.22566C25.7212 9.16566 26.3412 9.21567 27.0412 9.31567C28.0112 9.22567 28.7512 9.04567 29.3112 8.91567C29.8612 8.74567 30.2312 8.59566 30.4612 8.47566C30.9212 8.23566 30.8612 8.10567 30.5712 8.06567C30.2912 8.00567 29.8012 8.00567 29.3912 8.02567C28.9512 8.02567 28.6012 8.01566 28.6012 8.01566C25.7112 7.90566 24.1212 7.98566 20.4612 8.04566L20.4912 8.05567Z" fill="#8E8E8E"/>
</svg>
