<svg width="71" height="71" viewBox="0 0 71 71" fill="none" xmlns="http://www.w3.org/2000/svg">
<g clip-path="url(#clip0_2235_9819)">
<path d="M35.9045 58.4961L35.5645 58.6461C35.5645 58.6461 35.6745 58.6261 35.9045 58.4961Z" fill="#8E8E8E"/>
<path d="M34.9258 14.2656L34.9958 14.3256C34.9958 14.3256 34.9358 14.2656 34.9258 14.2656Z" fill="#8E8E8E"/>
<path fill-rule="evenodd" clip-rule="evenodd" d="M34.7662 17.8128C35.0576 17.3962 35.3549 16.9908 35.6579 16.5977C34.829 15.6816 34.0233 14.8996 33.4131 14.4851L33.5207 14.5301C33.1421 14.2745 32.926 14.0802 32.6963 13.8735C32.4775 13.6767 32.2463 13.4687 31.8504 13.186C31.8383 13.1652 31.822 13.1429 31.8085 13.1245C31.7919 13.1019 31.7797 13.0851 31.7851 13.0844C31.5047 12.9081 31.148 12.6595 30.7703 12.3963C30.0398 11.8872 29.2306 11.3232 28.7417 11.121L28.7273 11.0221C28.168 10.7192 27.572 10.4419 26.9521 10.2085C27.1785 10.307 27.4051 10.4056 27.6217 10.5055C27.4939 10.5568 27.2554 10.4413 26.9182 10.278C26.424 10.0387 25.7177 9.69665 24.8365 9.62629C23.8534 9.42411 22.8548 9.66634 21.8837 9.90191C21.5173 9.99077 21.1549 10.0787 20.7987 10.1414C20.5511 10.2659 20.5964 10.2265 20.6674 10.1647C20.7666 10.0785 20.9158 9.94858 20.3872 10.1607C20.3547 10.1064 20.452 10.0548 20.5297 10.0136C20.6115 9.97021 20.6716 9.93837 20.5352 9.92707C20.2926 10.0194 20.0664 10.0926 19.8461 10.1638C19.2488 10.3568 18.6952 10.5358 17.9793 11.0457L17.8802 10.9893C17.5645 11.2441 17.2512 11.483 16.9504 11.7124C16.0875 12.3705 15.327 12.9505 14.9047 13.6037C14.4815 14.15 14.2482 14.336 14.0517 14.4928C13.7978 14.6954 13.6051 14.849 13.1429 15.668L12.673 16.1202C12.4827 16.3975 12.4423 16.5276 12.4024 16.6556C12.3584 16.7971 12.3151 16.9362 12.0716 17.2685C12.0473 17.2298 11.9255 17.403 11.8177 17.5563C11.693 17.7336 11.587 17.8843 11.6722 17.6498C11.072 18.5463 10.6552 19.5444 10.1931 20.651C9.8879 21.3817 9.56299 22.1597 9.15251 22.9869C9.14008 23.2576 9.00762 23.6673 8.88209 24.0557C8.76229 24.4263 8.64881 24.7773 8.65199 24.9693C8.61423 24.9827 8.4966 25.3277 8.38213 25.6633C8.20532 26.1818 8.03604 26.6782 8.18026 25.8967C8.20405 25.7821 8.26871 25.6009 8.29138 25.6178L8.24574 25.4426C7.86722 26.2259 7.7308 26.9741 7.59022 27.7451C7.51434 28.1612 7.43725 28.584 7.32021 29.0226C7.34471 28.9455 7.36975 28.8632 7.39378 28.7843C7.48544 28.483 7.56233 28.2302 7.53828 28.5059C7.45654 28.8082 7.38164 29.1156 7.30759 29.4196C7.28633 29.5069 7.26514 29.5938 7.24387 29.6803L7.20654 29.423C7.06784 29.9987 6.93057 30.5843 6.79331 31.17L6.9426 30.9467C6.87612 31.1929 6.81119 31.3915 6.7516 31.5739C6.60496 32.0226 6.49063 32.3725 6.46505 33.0875C6.47229 33.304 6.5337 33.1287 6.58284 32.9884C6.63643 32.8354 6.67544 32.7241 6.6138 33.2074C6.35611 34.3563 6.03326 36.1007 5.9093 37.6142C6.00532 37.5133 6.006 37.7354 6.00692 38.0393C6.00718 38.1239 6.00746 38.2149 6.00982 38.3069L5.90526 38.3524C5.95131 39.1544 5.8876 39.3032 5.82568 39.4478C5.76303 39.5942 5.70221 39.7362 5.75876 40.5462L5.9008 40.8287C6.01541 41.4905 5.98282 41.7121 5.95329 41.9129C5.9186 42.1488 5.88814 42.3559 6.10544 43.2141C6.03333 42.5778 6.28152 42.8955 6.33414 43.676L6.21636 43.491C6.24586 43.6439 6.2688 43.7607 6.2885 43.8611C6.32327 44.0382 6.34798 44.164 6.38087 44.3462C6.28416 44.0975 6.21232 44.2292 6.35514 44.8653L6.15485 44.4599L6.56611 45.6229C6.58243 46.0277 6.72949 46.4991 6.86815 46.9435C6.89464 47.0284 6.92083 47.1124 6.94574 47.1946C7.11091 47.7062 7.22788 48.1642 7.2566 48.3621C7.2566 48.3621 7.44572 48.8298 7.65335 49.3554C7.84049 49.8543 8.13786 50.3643 8.31938 50.567C8.2182 50.4684 8.27077 50.63 8.32575 50.7989C8.38466 50.9799 8.44635 51.1695 8.32459 51.0567C8.39176 51.1532 8.48924 51.2881 8.60331 51.446C9.00972 52.0083 9.62679 52.8621 9.83427 53.3133L9.76054 53.2229C10.8292 54.7784 11.9216 55.7206 13.1122 56.7474C13.3915 56.9883 13.6762 57.2339 13.9673 57.4931C13.9591 57.4363 14.1225 57.5318 14.2966 57.6335C14.5169 57.7621 14.7543 57.9008 14.6821 57.7532C14.974 57.9364 15.2573 58.1184 15.5309 58.2941C16.9241 59.189 18.0646 59.9216 18.802 59.823C19.324 60.0404 19.5887 60.1676 19.8137 60.2758C19.9689 60.3504 20.1052 60.416 20.294 60.4958L20.0648 60.4482C20.2327 60.4982 20.3893 60.5439 20.536 60.5866C20.7678 60.6542 20.9749 60.7145 21.163 60.7739C21.2436 60.7899 21.3209 60.8052 21.3955 60.82C21.6194 60.8642 21.8184 60.9036 22.0062 60.9445C22.1947 60.976 22.3738 61.0169 22.5575 61.0589C22.8784 61.1321 23.2132 61.2086 23.6361 61.2436C23.8881 61.2446 24.062 61.2276 24.2419 61.21C24.5457 61.1803 24.8668 61.1489 25.6102 61.1997C25.2782 61.2649 25.5789 61.2672 25.9489 61.27C26.0168 61.2705 26.0871 61.2711 26.1563 61.272C25.8748 61.2825 25.7788 61.3167 26.3728 61.372C26.4605 61.3491 26.5792 61.3319 26.6994 61.3246C26.6994 61.3246 26.732 61.3401 26.7122 61.3429C27.456 61.3158 27.3286 61.2737 26.9751 61.2745C26.9935 61.2617 26.9708 61.2448 26.8562 61.221C27.2515 61.2722 27.8015 61.2216 28.2593 61.1795C28.6959 61.1393 29.0486 61.1069 29.1033 61.1779C29.2122 61.1551 29.3196 61.1327 29.4256 61.1107C30.388 60.9109 31.2301 60.7361 31.9951 60.4248C32.1424 60.3689 32.2878 60.3168 32.4318 60.2653C32.7092 60.1659 32.9811 60.0685 33.2499 59.9497C33.6565 59.7594 34.0639 59.5688 34.4804 59.3771C34.701 59.3653 34.3296 59.591 33.8379 59.824C33.981 59.7597 34.1255 59.6965 34.2704 59.6331C34.529 59.52 34.7886 59.4064 35.0431 59.2853C35.0747 59.3624 34.7573 59.4946 34.4343 59.6291C34.2774 59.6945 34.1192 59.7604 33.9991 59.8208C34.9869 59.5621 35.8602 58.9909 36.7733 58.3708C36.2255 58.0654 35.694 57.7343 35.1804 57.3793C34.4524 57.7721 33.6087 58.1755 32.5483 58.5964C30.4145 59.3506 27.9971 59.7519 25.7781 59.7101C25.36 59.8028 24.8187 59.7427 24.2355 59.6779C24.0813 59.6608 23.9241 59.6433 23.7654 59.6283C23.4156 59.5895 23.0657 59.5198 22.7277 59.4526C22.3414 59.3757 21.9707 59.302 21.6335 59.2808L21.1945 59.0414C20.7687 58.9617 20.2763 58.8412 19.8756 58.6568L19.9152 58.651C19.5625 58.5423 19.2003 58.3898 18.8967 58.262C18.6631 58.1637 18.4643 58.08 18.3314 58.0422L18.371 58.0364C18.2083 57.9671 18.0566 57.8832 17.9066 57.8002C17.8282 57.7568 17.7503 57.7137 17.6715 57.6731L17.8074 57.7039C16.7641 57.2692 15.7912 56.6222 14.9921 55.9904L14.9826 56.1332C14.6487 55.8298 14.3525 55.5751 14.084 55.3443C13.6972 55.0118 13.368 54.7288 13.0668 54.4206C12.5128 53.9452 12.0619 53.4145 11.4888 52.5983L11.5283 52.5926C10.6609 51.6979 10.1498 50.8222 9.75468 49.9094L9.43357 49.2285C9.33829 48.9897 9.24302 48.7509 9.1463 48.5022C9.05886 48.2889 8.96173 48.0733 8.8603 47.8481C8.72589 47.5497 8.58394 47.2346 8.44696 46.8859C8.5247 47.0715 8.51184 46.9629 8.50001 46.8629C8.49301 46.8037 8.48637 46.7477 8.499 46.7571C8.32055 46.3007 8.18607 45.8175 8.07227 45.4085C7.90946 44.8234 7.78895 44.3904 7.64248 44.4057C7.50379 43.7245 7.55739 43.6754 7.61663 43.6211C7.63249 43.6066 7.64876 43.5917 7.66185 43.5642C7.56288 43.5786 7.42406 42.8307 7.37447 42.1407L7.44021 42.4545C7.37513 41.7971 7.34117 41.1452 7.31567 40.482L7.12985 40.8727C7.14887 40.3534 7.20337 40.2806 7.24842 40.2204C7.29502 40.1581 7.33149 40.1094 7.30806 39.5939L7.14972 39.6168C7.19758 38.5919 7.35328 37.8733 7.52869 37.0637C7.60576 36.708 7.68664 36.3348 7.76384 35.9102C8.45119 30.1316 9.82318 23.7788 12.6512 19.1043L12.8715 18.951C12.9635 18.9474 13.088 18.6176 13.2202 18.2671C13.3624 17.8903 13.5136 17.4896 13.6432 17.4446L13.9149 16.8797C13.9371 16.8565 13.9631 16.828 13.99 16.7986C14.112 16.6652 14.2514 16.5128 14.1267 16.7379C14.4044 16.3357 14.4432 16.2621 14.5718 16.0182C14.594 15.9761 14.6189 15.9289 14.6481 15.874L15.1125 15.453C15.1547 15.4046 15.1969 15.3563 15.2389 15.3081C16.6516 13.6881 17.9234 12.2298 19.9981 11.3792C21.2855 10.9196 23.2336 10.6268 25.2061 11.1288C27.1715 11.5813 29.0547 12.6519 30.3366 13.5472C31.9601 14.6194 33.4388 16.1513 34.7662 17.8128Z" fill="#8E8E8E"/>
<path d="M56.6759 58.4961L56.3359 58.6461C56.3359 58.6461 56.4459 58.6261 56.6759 58.4961Z" fill="#8E8E8E"/>
<path d="M55.6953 14.2656L55.7653 14.3256C55.7653 14.3256 55.7053 14.2656 55.6953 14.2656Z" fill="#8E8E8E"/>
<path d="M59.2459 54.7152C57.5659 56.3152 56.2259 56.9752 54.9459 57.6652C53.6059 58.2652 52.2359 58.8752 49.9259 59.4252C47.7059 59.8652 45.2559 59.9152 43.0659 59.5552C42.5259 59.5952 41.8259 59.3652 41.0859 59.1852C40.3559 58.9952 39.6459 58.6652 39.0259 58.5352L38.6259 58.2352C38.2159 58.0952 37.7459 57.9052 37.3759 57.6652H37.4159C36.8259 57.3852 36.2259 56.9652 35.9359 56.8352H35.9759C35.7459 56.6952 35.5459 56.5252 35.3359 56.3752L35.4659 56.4252C34.4959 55.8452 33.6259 55.0652 32.9259 54.3252L32.8959 54.4652C32.1959 53.6152 31.6759 53.0852 31.2459 52.4952C30.7659 51.9452 30.3959 51.3552 29.9459 50.4652H29.9859C29.2559 49.4552 28.8759 48.5152 28.6159 47.5552L28.3959 46.8352C28.3359 46.5852 28.2759 46.3352 28.2159 46.0752C28.0859 45.5552 27.9059 45.0152 27.7559 44.3752C27.8359 44.6852 27.7959 44.2252 27.8259 44.2552C27.5559 43.0952 27.5659 41.8152 27.3159 41.8052C27.2659 40.9252 27.3759 41.0952 27.4559 40.9752C27.3559 40.9752 27.3259 40.2152 27.3759 39.5252L27.3959 39.8452C27.4259 39.1852 27.4859 38.5352 27.5559 37.8752L27.3159 38.2352C27.5059 37.1952 27.5759 38.0052 27.6759 36.9952H27.5159C27.7959 35.5452 28.2059 34.7552 28.6559 33.4152C30.1659 27.7952 32.4359 21.7052 35.9059 17.4852L36.1459 17.3652C36.3359 17.3852 36.8659 16.0352 37.1259 15.9852L37.4759 15.4652C37.6159 15.3552 37.8959 15.1052 37.7059 15.3552C38.0959 14.9352 38.0959 14.9152 38.3459 14.5752L38.8659 14.2252C40.5559 12.7752 42.0459 11.4552 44.2859 10.8952C45.6259 10.6252 47.5959 10.6152 49.4759 11.3952C51.3559 12.1252 53.0659 13.4552 54.2059 14.5252C55.8559 15.9952 57.2359 18.0252 58.4059 20.1352C59.5859 22.2552 60.5559 24.4852 61.5759 26.5352C61.6159 26.6852 61.8059 27.0152 61.8259 27.0052C62.3459 28.3052 62.7959 29.6252 63.2159 30.9552C63.2159 30.9552 63.6059 32.1652 64.0159 33.7752C64.4359 35.3852 64.8459 37.3952 65.0759 38.9352C65.3059 40.4852 65.4059 41.5652 65.6059 41.3052C65.7559 41.0452 66.1759 39.3752 65.7659 35.4052L65.8259 35.5052C65.4359 33.1752 65.0359 31.7352 64.3759 30.2452C64.5259 29.9252 63.7859 28.4052 63.6559 27.8652L63.6959 27.9052C63.0259 26.6252 62.7459 25.0952 62.0159 23.9052C62.0559 23.9452 62.1259 23.9452 62.2559 24.2352C61.8159 23.3252 61.1459 22.1152 61.2159 21.9952C60.1059 19.8452 58.2859 16.9652 57.1159 15.8952L57.2159 15.9552C56.5559 15.3552 56.4759 15.0752 55.7559 14.3852C55.7359 14.3352 55.6959 14.2752 55.7059 14.2752C54.9659 13.6452 53.6659 12.3052 52.9759 11.8952V11.7952C52.4659 11.4152 51.9159 11.0552 51.3359 10.7352C51.5459 10.8652 51.7559 10.9952 51.9559 11.1252C51.6259 11.2052 50.7759 10.1852 49.3259 9.85516C48.0259 9.38516 46.5759 9.74516 45.2559 9.78516C44.6259 9.99516 45.7959 9.51516 44.8459 9.74516C44.7959 9.62516 45.2859 9.59516 45.0259 9.53516C44.0759 9.74516 43.4059 9.72516 42.3359 10.2752L42.2459 10.2052C40.8959 11.0052 39.6159 11.5752 38.9259 12.3652C37.7859 13.4652 37.9059 12.8352 36.8859 14.1552L36.3559 14.5352C35.8759 15.0552 36.1459 15.0252 35.5959 15.5852C35.5559 15.4952 34.9259 16.3152 35.1459 15.9052C33.9459 17.2352 33.2059 18.9152 31.8859 20.8252C31.7859 21.3452 31.1559 22.3252 31.1059 22.7152C31.0059 22.7352 30.0859 24.8052 30.5059 23.5652C30.5459 23.4552 30.6359 23.2852 30.6559 23.3052L30.6359 23.1252C29.8859 24.2352 29.7159 25.3452 29.2059 26.5352C29.3759 26.1852 29.5759 25.7152 29.4959 26.0552C29.3359 26.4252 29.1859 26.8052 29.0359 27.1752V26.9152C28.8159 27.4652 28.5959 28.0252 28.3759 28.5852L28.5559 28.3852C28.2059 29.1952 27.9559 29.4452 27.7759 30.4352C27.7159 30.8852 28.1559 29.6752 27.9059 30.5752C27.4859 31.6752 26.9159 33.3552 26.5759 34.8352C26.7159 34.7252 26.6259 35.1152 26.5759 35.5352L26.4659 35.5652C26.3259 37.1752 26.1259 36.1052 26.0059 37.7152L25.9559 37.5652L26.1059 38.0152C26.1459 39.4752 25.7959 38.7752 25.9659 40.4052C25.9859 39.7652 26.1859 40.1152 26.1259 40.8952L26.0359 40.6952C26.0559 41.1252 26.0659 41.2752 26.0759 41.5652C26.0159 41.3052 25.9259 41.4252 25.9759 42.0752L25.8359 41.6452L26.0759 42.8552C26.0259 43.3352 26.1459 43.9352 26.2259 44.4652C26.3159 44.9952 26.3659 45.4652 26.3659 45.6652C26.3659 45.6652 26.4859 46.1552 26.6159 46.7052C26.7359 47.2552 26.9759 47.8352 27.1259 48.0352C26.8959 47.6852 27.2459 48.7452 27.0359 48.4852C27.2759 48.9652 28.0259 50.3252 28.2059 50.9352L28.1459 50.8352C29.1759 52.9252 30.3759 54.0952 31.6959 55.6652C31.6959 55.5352 32.4559 56.3052 32.3659 56.0252C33.9659 57.3852 35.2559 58.6552 36.1459 58.6652C36.9659 59.1552 37.0959 59.2852 37.5259 59.5452L37.3059 59.4652C37.7159 59.6552 38.0559 59.8052 38.3459 59.9452C38.6559 60.0552 38.9159 60.1452 39.1559 60.2352C39.6559 60.3952 40.0759 60.6152 40.7259 60.7652C41.3959 60.8652 41.5259 60.7552 42.6859 61.0052C42.2859 61.0252 42.7759 61.0852 43.2159 61.1552C42.9359 61.1252 42.8359 61.1452 43.4159 61.2852C43.5059 61.2752 43.6259 61.2752 43.7459 61.2852C43.7459 61.2852 43.7759 61.3052 43.7559 61.3052C44.4959 61.3852 44.3759 61.3252 44.0259 61.2752C44.0459 61.2652 44.0259 61.2452 43.9159 61.2052C44.6659 61.4152 46.0559 61.3252 46.1459 61.4852C47.2659 61.4152 48.2259 61.3752 49.1159 61.1552C49.5659 61.0552 49.9959 60.9852 50.4259 60.8652C50.8559 60.7352 51.2859 60.6052 51.7259 60.4752C51.9459 60.4952 51.5459 60.6652 51.0259 60.8252C51.4459 60.7052 51.8759 60.5952 52.2959 60.4652C52.3259 60.5852 51.5759 60.7152 51.1859 60.8452C52.7859 60.6652 54.2159 59.6752 55.9259 58.9852L56.2159 58.7152L56.3159 58.6752C56.3159 58.6752 56.6059 58.3752 56.8359 58.2152C57.1059 58.1552 56.9459 58.4252 57.7059 57.9052C58.0259 57.7252 58.4259 57.4052 58.8459 57.0552C59.2659 56.7152 59.6359 56.2652 59.9659 55.9352C59.5759 56.2652 59.6659 56.1152 59.8059 55.9452C60.1359 55.6352 60.4059 55.5452 60.6059 55.2452L60.7259 55.3052C60.5159 55.3552 61.4359 54.3352 61.5059 54.1752C61.7559 54.0452 61.0959 54.7452 61.0659 54.8852C61.6859 54.2052 61.8259 54.0352 61.9559 53.8452C62.0959 53.6652 62.2259 53.4752 62.7759 52.7452C63.2459 51.8852 62.5859 52.8252 62.7559 52.3852C63.1559 51.6352 63.5859 50.9152 64.0359 50.0552L63.8059 50.2852C64.4559 48.8252 64.7459 47.9352 65.1859 46.9552C65.7959 44.0352 65.5159 42.3852 65.4159 41.6252C65.2859 40.8552 65.1359 40.9052 65.0459 41.3352C64.9259 41.7452 64.8159 42.4952 64.7359 43.1452C64.6059 43.7952 64.4959 44.3252 64.4959 44.3252C63.9959 46.4552 63.4959 48.0252 62.7359 49.6152C61.9859 51.1952 61.0759 52.8852 59.2159 54.7552L59.2459 54.7152Z" fill="#8E8E8E"/>
<path d="M55.8047 33.6758L55.8847 33.8658C55.8847 33.8658 55.8847 33.7958 55.8047 33.6758Z" fill="#8E8E8E"/>
<path d="M56.885 40.7941C56.885 40.7941 56.885 40.7541 56.875 40.7441V40.7941H56.885Z" fill="#8E8E8E"/>
<path d="M53.2044 33.0751C53.6244 33.4751 53.9644 33.8051 54.2144 34.1551C54.4844 34.4751 54.6744 34.7951 54.8744 35.1051C55.2644 35.7251 55.6244 36.3751 56.1144 37.4551C56.5344 38.5051 56.8144 39.6851 56.8844 40.7951C56.9844 41.0551 57.0044 41.4251 56.9644 41.8051C56.9544 42.1851 56.9144 42.5751 56.9244 42.8951L56.7944 43.1251C56.8144 43.3451 56.7944 43.6051 56.6844 43.8051L56.6644 43.7851C56.6444 44.1151 56.5344 44.4651 56.5044 44.6251L56.4844 44.6051L56.3644 44.9751V44.8951C56.2544 45.4551 55.9844 45.9851 55.7344 46.4351L55.8544 46.4551C55.1844 47.3351 55.1544 47.8151 54.3844 48.4851V48.4551C53.7344 49.6151 52.8244 49.7051 51.9044 50.6251C52.0244 50.5051 51.8144 50.6051 51.8144 50.5751C51.3344 50.9351 50.7344 51.1751 50.8344 51.4051C50.4344 51.6051 50.4744 51.4751 50.3844 51.4251C50.4244 51.5151 50.0744 51.6851 49.7544 51.8151L49.8944 51.7251C49.5944 51.8651 49.2744 51.9451 48.9544 52.0351L49.1944 52.1651C48.6644 52.2451 49.0044 51.9751 48.5244 52.1451L48.5644 52.2951C47.8244 52.3751 47.3644 52.2251 46.6744 52.1251C45.2344 52.1451 43.7344 51.9851 42.3244 51.4951C40.9244 51.0151 39.6444 50.2051 38.7644 49.1651V49.0051C38.8344 48.8651 38.0744 48.6351 38.1144 48.4551L37.8444 48.2751C37.8144 48.1851 37.7344 48.0151 37.8444 48.1151C37.6744 47.8751 37.6544 47.8951 37.4844 47.7551L37.3844 47.4451C36.8344 46.4651 36.2144 45.6851 35.8744 44.5151C35.7944 43.7851 35.5344 42.7951 35.4944 41.7351C35.4244 41.2151 35.4744 40.6851 35.4544 40.1751C35.5144 39.6851 35.5044 39.2051 35.5944 38.8251C35.7044 37.7051 36.2844 36.5851 36.9944 35.6251C37.7144 34.6551 38.5644 33.8251 39.3244 32.9951C39.3944 32.9551 39.5144 32.8151 39.4944 32.7951C40.0444 32.3751 40.6244 32.0051 41.2344 31.6851C41.2344 31.6851 41.3744 31.6151 41.6044 31.5051C41.8344 31.3851 42.1644 31.2351 42.5444 31.0951C43.3044 30.7751 44.2944 30.5451 45.0644 30.3651C45.8344 30.2351 46.3944 30.0851 46.2644 29.8951C46.1244 29.7551 45.2844 29.3451 43.1144 29.5051L43.1644 29.4551C41.9044 29.6851 41.1444 30.0451 40.4544 30.5951C40.2244 30.4751 39.5444 31.1051 39.2644 31.2151V31.1851C39.0144 31.4951 38.6644 31.6851 38.3444 31.9151C38.0244 32.1551 37.6944 32.3851 37.4844 32.7051C37.4844 32.6751 37.4544 32.6051 37.5744 32.4851C37.2144 32.9051 36.7544 33.4951 36.6244 33.4451C35.7844 34.4651 34.8744 36.1051 34.8144 36.9751V36.9051C34.7844 37.4051 34.5844 37.4851 34.5344 38.0251C34.5144 38.0451 34.4944 38.0851 34.4844 38.0751C34.4644 38.6051 34.1944 39.5451 34.1944 39.9751L34.1044 39.9951C34.0844 40.3351 34.0744 40.6851 34.0644 41.0251L34.1044 40.6451C34.3344 40.7851 33.8944 41.4151 34.1144 42.1651C34.1044 42.5151 34.2944 42.8551 34.4544 43.1751C34.6144 43.5051 34.7744 43.8251 34.8244 44.1751C35.0144 44.4751 34.5744 43.9351 34.7844 44.3951C34.6644 44.4451 34.6444 44.1851 34.5844 44.3351C34.7544 44.8051 34.6844 45.1651 34.9844 45.7251L34.9044 45.7851C35.3744 46.4651 35.4244 47.2551 35.8644 47.6251C36.3644 48.2951 35.9244 48.2751 36.5944 48.8651L36.6944 49.2251C36.9344 49.5251 37.0044 49.3151 37.2344 49.6751C37.1544 49.7151 37.5444 50.1151 37.3244 49.9851C37.9244 50.7651 38.8544 51.1751 39.8144 52.0051C40.1244 52.0251 40.6344 52.4051 40.8844 52.3651C40.8844 52.4551 42.0344 52.9051 41.3144 52.7551C41.2544 52.7351 41.1544 52.6951 41.1744 52.6651L41.0544 52.7151C41.3344 52.9651 41.6744 53.0451 41.9944 53.1151C42.3144 53.1951 42.6444 53.2351 42.9944 53.3251C42.7944 53.2451 42.5244 53.1751 42.7244 53.1651L43.3644 53.3451L43.2144 53.3951C43.5244 53.4951 43.8444 53.5951 44.1744 53.6451L44.0544 53.5251C44.5244 53.6351 44.6744 53.8751 45.2344 53.7651C45.4844 53.6951 44.7944 53.6051 45.3044 53.5951C45.9344 53.7251 46.9044 53.8251 47.7344 53.7551C47.6444 53.6551 47.8644 53.6251 48.0844 53.5651L48.1244 53.6551C48.9644 53.3751 48.4944 53.8551 49.3244 53.5251L49.2644 53.6151L49.4344 53.3551C50.1344 52.9751 49.9144 53.4551 50.6444 52.9051C50.3244 53.0351 50.4144 52.7551 50.8244 52.6551L50.7644 52.7851C50.9744 52.6851 51.0344 52.6251 51.1744 52.5751C51.0744 52.6851 51.1644 52.7351 51.4644 52.5751L51.3044 52.7851L51.8144 52.3451C52.3244 52.2351 52.9144 51.6751 53.1744 51.6951C53.1744 51.6951 53.4044 51.5551 53.6444 51.3651C53.8844 51.1851 54.1444 50.9651 54.1844 50.8351C54.0844 51.0551 54.5444 50.6751 54.4944 50.8751C54.6444 50.6051 55.1944 49.9951 55.4844 49.8051L55.4544 49.8651C56.3944 49.0351 56.6444 48.1251 57.3144 47.2451C57.1944 47.2451 57.5044 46.7451 57.3144 46.8051C57.5044 46.2751 57.7644 45.8251 57.9344 45.4351C58.1244 45.0551 58.2044 44.7151 58.0344 44.4651C58.1344 43.9651 58.3044 43.9051 58.3644 43.6551V43.7851C58.4844 42.8251 58.5244 42.5551 58.5544 41.8451C58.5244 41.4851 58.3344 41.4351 58.3444 40.8051C58.4344 41.0051 58.4144 40.7451 58.3944 40.5151C58.4144 40.6651 58.4444 40.7151 58.4844 40.3951C58.4544 40.3551 58.4344 40.2851 58.4244 40.2251C58.4244 40.2251 58.4344 40.2051 58.4444 40.2151C58.3844 39.8251 58.3444 39.8951 58.3644 40.0751C58.3544 40.0751 58.3344 40.0751 58.3144 40.1451C58.3744 39.7251 58.1444 39.0251 58.2744 38.9451C57.9744 37.7851 57.5744 37.0251 57.1044 36.1751C57.1244 36.0451 57.2844 36.2251 57.4344 36.4651L57.1044 35.8451C57.2044 35.8051 57.3344 36.1751 57.4444 36.3651C57.2444 35.5251 56.5244 34.9051 56.0744 34.0451L55.8844 33.9351L55.8644 33.8751C55.8644 33.8751 55.6544 33.7651 55.5544 33.6651C55.5344 33.5051 55.7244 33.5351 55.3944 33.1751C55.2944 33.0051 55.1044 32.8051 54.8844 32.6151C54.6544 32.4551 54.3944 32.2651 54.1944 32.1251C54.3844 32.3151 54.2844 32.2951 54.1744 32.2451C53.9944 32.0851 53.9544 31.9151 53.7744 31.8451L53.8344 31.7351C53.8344 31.8851 53.2544 31.4551 53.1544 31.4451C53.0944 31.2851 53.4944 31.6051 53.5944 31.5851C52.8144 31.0151 53.2044 31.2951 52.3744 30.7951C51.8844 30.6151 52.3944 30.9451 52.1344 30.9151C51.7344 30.7051 51.2944 30.6251 50.8744 30.3251L50.9744 30.4951C50.1744 30.2651 49.7244 30.0851 49.2044 29.8551C47.6444 29.6951 46.8044 29.9251 46.4044 30.0551C46.0044 30.1951 46.0344 30.3351 46.2544 30.4351C46.6744 30.6451 47.7544 30.8051 47.7444 30.8351C48.8144 31.0951 49.5744 31.3551 50.4144 31.6151C51.2344 31.9251 52.1244 32.2751 53.1744 33.0851L53.2044 33.0751Z" fill="#8E8E8E"/>
</g>
<defs>
<clipPath id="clip0_2235_9819">
<rect width="60.87" height="51.93" fill="white" transform="translate(5.06445 9.53516)"/>
</clipPath>
</defs>
</svg>
