<svg width="109" height="73" viewBox="0 0 109 73" fill="none" xmlns="http://www.w3.org/2000/svg">
<g clip-path="url(#clip0_1772_3339)">
<path d="M23.3145 34.9404L23.5365 35.0694C23.5365 35.0077 23.4754 34.9572 23.3145 34.9404Z" fill="#E9E9E9"/>
<path d="M80.0312 34.8898C80.0312 34.8898 80.0707 34.8727 80.0876 34.8613C80.0481 34.8727 80.0369 34.8784 80.0312 34.8898Z" fill="#E9E9E9"/>
<path d="M32.0246 39.335H32.0133C32.0133 39.335 31.9739 39.3577 31.957 39.3691L32.0302 39.335H32.0246Z" fill="#E9E9E9"/>
<path d="M20.5931 38.9826C23.5906 39.1396 24.39 39.7506 27.4985 39.504C28.9807 39.5544 30.5627 39.4143 32.0115 39.3414C32.6999 38.8649 33.9155 39.3358 34.7315 38.9378L35.0479 39.2068C35.331 39.0723 35.6586 38.977 35.9417 39.1228L35.925 39.2012C36.3469 38.9994 36.8187 39.1171 37.0241 39.0162L37.0075 39.0947L37.5181 39.0611L37.4293 39.1732C38.1621 38.9602 38.9115 38.9434 39.5776 39.0443L39.5221 38.7191C40.9431 39.0835 41.4594 38.4108 42.7417 38.8425L42.725 38.9209C44.3459 38.0632 45.284 39.504 46.9549 38.6911C46.7495 38.792 47.0437 38.8593 47.0271 38.9378C47.7931 38.8425 48.6147 38.7976 48.6258 38.1585C49.1864 38.1697 49.0809 38.3603 49.1531 38.607C49.1531 38.3267 49.636 38.209 50.0746 38.1922L49.8747 38.2987L51.1293 38.2034L50.885 37.6764C51.5511 37.8278 51.0516 38.3211 51.6899 38.1922V37.7549C52.6003 37.839 53.1387 38.5061 54.0269 38.8256C57.7239 39.0106 61.6984 37.895 65.1345 38.6687L65.2844 38.9994C65.351 39.4815 66.2336 38.2875 66.3668 38.7303L66.7665 38.5117C66.8775 38.5958 67.1162 38.6911 66.9164 38.7976C67.2883 38.8144 67.2939 38.7359 67.5603 38.5902L67.96 38.8873C69.4199 39.1172 70.6633 38.5397 72.1954 38.6575C74.0384 39.2685 77.5133 38.7079 79.5172 38.3828C82.3316 37.6652 85.6012 39.5768 88.4821 38.7584C88.5765 38.8256 88.8208 38.6743 88.8152 38.6182L91.4519 38.6855C91.4519 38.6855 104.23 38.8705 94.5217 34.8846L94.5883 34.7781C93.145 34.5258 92.2346 34.4698 91.241 34.9967C91.0856 34.352 90.0531 34.9295 89.72 34.722L89.7533 34.6716C88.8707 35.1705 87.9381 34.2567 87.0944 34.7052C87.1277 34.6548 87.1443 34.4754 87.3386 34.4642C86.7225 34.5483 85.8732 34.6884 85.8287 34.3128C84.3522 34.4137 82.2927 34.2399 81.3435 34.8398L81.4101 34.7333C80.8717 35.1369 80.7107 34.7949 80.1112 34.9967C80.0779 34.9463 80.0335 34.9239 80.0446 34.9014C79.4562 35.2995 78.3293 34.9631 77.8575 35.1369L77.8242 34.8846L76.6529 34.9407L77.0914 34.9967C76.9416 35.6807 76.2088 34.5651 75.3595 35.0136C74.5657 34.9295 73.7497 36.4431 72.9282 36.1067C72.534 36.4263 73.2723 35.5854 72.6895 35.832C72.6728 35.4732 72.9615 35.6078 72.8116 35.3219C72.2343 35.4901 71.8679 34.9575 71.1518 35.1986L71.1241 34.9183C70.1971 35.4284 69.37 34.5539 68.7538 35.036C67.799 35.2658 68.1099 34.2063 67.1162 34.7557L66.7277 34.3801C66.3002 34.3184 66.4224 34.8398 65.9505 34.6604C65.9783 34.4249 65.351 34.4698 65.6286 34.2455C64.5572 33.8755 63.4581 34.7725 62.0481 34.1446C61.7428 34.6043 61.0323 34.3296 60.8047 34.6772C60.7659 34.4754 59.3837 34.6436 60.1774 34.2063C60.2441 34.1727 60.3662 34.1783 60.3606 34.2567L60.455 33.982C59.6501 33.4663 58.9951 34.268 58.1957 34.1895C58.4289 34.2792 58.7453 34.2567 58.5343 34.4473L57.7961 34.4081L57.9515 34.1783L56.8524 34.0437L57.0023 34.3296C56.4638 34.1839 56.2751 33.6961 55.6645 34.1054C55.3869 34.3296 56.1752 34.4922 55.6034 34.5819C54.8818 34.3857 53.8049 34.0942 52.8834 34.0101C52.9667 34.3296 52.7224 34.3184 52.4671 34.3857L52.4393 34.1054C51.4623 34.4922 52.084 33.4887 51.1126 33.8027L51.1959 33.6064L50.9405 34.1895C50.069 34.7445 50.4687 33.6121 49.4973 34.3633C49.8803 34.3184 49.6805 34.9799 49.2031 34.8566L49.3252 34.5875C49.0643 34.6436 48.9755 34.7557 48.8034 34.6996C48.9588 34.5539 48.8867 34.3072 48.5036 34.352L48.759 34.0157L48.0318 34.509C47.4711 34.2175 46.583 34.5819 46.3498 34.2007C46.3498 34.2007 45.1453 34.0157 44.8677 34.4305C45.112 34.1727 44.4458 34.0717 44.6346 33.769C44.3237 34.0605 43.3967 34.3016 43.0303 33.9877L43.1025 33.954C41.7369 33.6345 40.7655 34.3913 39.5387 34.0045C39.5942 34.3296 38.9448 34.1502 39.1057 34.5651C37.8346 34.9743 36.791 33.7242 36.3302 35.0023C35.7529 35.0696 35.6475 34.6996 35.3477 34.638L35.4865 34.5707C34.404 34.6772 34.0876 34.6884 33.2883 34.6604C32.8886 34.7837 32.822 35.3779 32.1059 35.2378C32.339 35.0023 32.0448 35.0472 31.7728 35.0472C31.9449 35.0079 32.0004 34.9239 31.6452 34.7669C31.5952 34.8398 31.5175 34.8846 31.4453 34.9239C31.4453 34.907 31.4287 34.8902 31.4342 34.8678C30.9846 34.9519 31.0623 35.0248 31.2732 35.0584C31.2621 35.092 31.2788 35.1425 31.3454 35.2042C30.8791 34.9014 30.0465 35.2266 29.991 34.8173C28.6421 34.9126 27.6762 35.3331 26.5549 35.4901C26.4272 35.2826 26.6936 35.0976 27.0156 35.0136L26.2163 35.092C26.2218 34.7893 26.6714 34.9183 26.9212 34.8566C25.972 34.3689 24.9673 35.3387 23.8515 34.8958L23.6184 35.1313L23.5518 35.092C23.5518 35.2154 23.3075 35.3892 23.141 35.4284C22.9856 35.1649 23.1521 34.8229 22.6025 34.8398C22.1696 34.5875 21.3647 34.9687 20.7929 35.1089C21.0982 35.1537 21.0038 35.2995 20.8706 35.3892C20.5931 35.4004 20.4376 35.1369 20.2211 35.249L20.1934 34.8958C20.3044 35.2266 19.4718 35.2546 19.3718 35.4004C19.2164 35.1369 19.7993 35.1761 19.8659 34.9799C18.7612 35.0136 19.3163 34.9967 18.2117 35.0304C17.6233 35.2939 18.3171 35.3667 18.0396 35.6751C17.5178 35.7423 17.0126 35.989 16.4131 35.776L16.6019 36.0899C15.6249 36.331 15.042 36.2973 14.3815 35.9778C7.09851 38.5341 12.8494 39.4647 12.8494 39.4647C15.7137 40.1599 17.1958 39.2461 20.6097 38.9994L20.5931 38.9826Z" fill="#E9E9E9"/>
<path d="M14.8477 19.0487L15.1696 18.8749C15.1197 18.8413 15.0253 18.8749 14.8477 19.0487Z" fill="#E9E9E9"/>
<path d="M86.9121 14.0815C86.9403 14.0815 86.9684 14.0929 86.9966 14.0929C86.9403 14.0758 86.9177 14.0758 86.9121 14.0815Z" fill="#E9E9E9"/>
<path d="M27.0515 16.3455C27.0515 16.3455 27.0402 16.3455 27.0346 16.3455C27.0177 16.3683 26.9895 16.3796 26.9727 16.3967L27.0515 16.3398V16.3455Z" fill="#E9E9E9"/>
<path d="M16.0241 24.441C17.0066 22.8321 17.9003 22.0472 18.7663 21.2848C19.66 20.5392 20.5315 19.8104 22.0359 18.7061C23.5624 17.8035 25.2888 16.9121 27.0318 16.3571C27.3815 15.9983 27.9866 15.8806 28.5916 15.7349C29.2189 15.634 29.8573 15.5218 30.3569 15.2584L30.8009 15.477C31.1451 15.3032 31.5614 15.1406 31.9444 15.264L31.9278 15.3424C32.4551 15.1014 33.088 15.1799 33.3544 15.0565L33.3378 15.135C33.3711 15.1294 33.4932 15.1238 33.5931 15.1182L33.8984 15.1014L34.509 15.0678L34.3203 15.1855C34.7588 15.1238 35.1863 15.0678 35.6137 15.0285L36.252 14.9781L36.5685 14.9556C36.6351 14.9724 36.6462 14.8996 36.6739 14.8491L36.7516 14.6921C37.1735 13.8793 37.5954 13.0776 38.0506 12.4049L37.7397 12.2928C38.0561 11.9844 38.256 11.6873 38.4447 11.4238C38.639 11.166 38.7889 10.9193 38.9332 10.6726C39.0775 10.426 39.2607 10.2129 39.4661 9.9831C39.6659 9.75326 39.9435 9.55144 40.3043 9.37205L40.3432 9.44493C40.5485 8.94039 40.8761 8.61524 41.2091 8.35736C41.5366 8.08267 41.9307 7.95373 42.2971 7.79116C43.0576 7.48843 43.8125 7.26419 44.6063 6.46253C44.4121 6.66995 44.7729 6.56905 44.784 6.65314C45.217 6.44571 45.661 6.21026 45.9941 5.99723C46.3272 5.78421 46.5326 5.53754 46.4493 5.22921C47.1487 5.01618 47.0766 5.26845 47.2264 5.47027C47.1487 5.20679 47.7316 4.92088 48.2922 4.79194L48.0535 4.94891C48.5864 4.82558 49.1082 4.66861 49.6522 4.57331L49.2526 4.09119C50.1574 4.13043 49.5634 4.70225 50.3794 4.46679L50.3239 4.03513C50.9401 4.0071 51.4452 4.18089 51.9226 4.36028C52.4055 4.57891 52.8718 4.79755 53.438 4.97694C54.6259 5.04421 55.825 5.14512 57.0351 5.27406C58.2397 5.44224 59.4554 5.63845 60.6266 5.97481C62.9581 6.63632 65.1785 7.79676 66.5329 9.52341L66.4607 9.89341C66.3331 10.1008 66.6717 10.1457 66.9992 10.2354C67.3323 10.3195 67.6931 10.4148 67.5876 10.6278C67.7597 10.6895 67.9151 10.7736 68.0761 10.852C68.1039 11.0146 68.2204 11.3005 67.9817 11.1828C68.2537 11.5472 68.337 11.4911 68.6423 11.6705L68.6812 12.2423C68.7311 12.3432 68.7866 12.4385 68.8421 12.5282L68.992 12.7805L69.1697 13.0944C69.3861 13.4813 69.6137 13.8569 69.8358 14.2269L70.1744 14.765C70.2077 14.8043 70.2243 14.8715 70.2688 14.8828H70.4297L70.7517 14.8659C71.1736 14.8491 71.5955 14.8323 72.0173 14.8099C72.639 14.7875 73.2663 14.7594 73.9047 14.737C74.3765 14.737 74.8706 14.7538 75.3757 14.8379C76.5692 15.264 78.29 15.5162 80.033 15.8358C81.7705 16.1497 83.5302 16.5365 84.7847 16.9346C86.6221 17.3494 88.243 18.6724 89.5308 20.1468C90.8575 21.6212 91.7957 23.2301 93.0668 24.5531C93.0668 24.6877 93.361 24.8727 93.4054 24.8446C93.9106 25.8425 94.3824 26.8572 94.7044 27.9447C94.7044 27.9447 94.7877 28.1858 94.9264 28.5894C95.0319 29.0043 95.2262 29.5649 95.3927 30.2264C95.7535 31.5438 96.0533 33.2256 96.3697 34.543C96.6528 35.8604 97.0081 36.8078 97.541 36.578C97.8074 36.4603 98.1127 36.0454 98.4624 35.1989C98.6456 34.7729 98.8066 34.2459 98.9676 33.5844C99.0453 33.2536 99.1397 32.8892 99.2007 32.4968C99.2618 32.0988 99.3228 31.6671 99.3784 31.1962L99.4949 31.2747C99.4949 30.7253 99.4228 30.232 99.3673 29.7667C99.3062 29.307 99.234 28.8866 99.1064 28.4941C98.9898 28.1017 98.851 27.7373 98.69 27.3954C98.5068 27.0534 98.2959 26.7339 98.0461 26.4199C98.5901 25.9546 97.441 24.7045 97.4022 24.1607L97.4744 24.1831C96.9415 23.6898 96.7361 23.0171 96.453 22.3724C96.2032 21.7109 95.8812 21.0718 95.3206 20.6682C95.3927 20.6794 95.5481 20.5953 95.7313 20.8419C95.4316 20.4607 95.0208 20.0515 94.7321 19.6983C94.449 19.3339 94.2548 19.0424 94.3658 18.891C93.5553 18.0501 92.545 17.0915 91.5181 16.3347C90.4801 15.5947 89.442 15.0453 88.6704 14.9556L88.8092 14.9164C87.9044 14.8603 87.86 14.4399 86.9551 14.2212C86.9329 14.154 86.8885 14.1035 86.9052 14.0867C85.9504 14.0587 84.5405 13.1113 83.8077 13.0664L83.8466 12.8141C83.2915 12.6347 82.7308 12.4946 82.1757 12.3488L82.7808 12.5843C82.3811 13.1785 81.6428 11.7826 80.3106 11.9452C79.1671 11.5976 77.7626 12.887 76.6635 12.4161C76.0696 12.6628 77.2186 11.962 76.3527 12.0966C76.3638 11.7378 76.769 11.9228 76.5858 11.6145C75.7421 11.6873 75.2536 11.0987 74.2044 11.2725L74.1767 10.9922C74.0046 11.0482 73.8325 11.0819 73.6715 11.0987C73.5883 11.1099 73.505 11.1099 73.4273 11.1099H73.2719C73.0998 11.1043 72.9166 11.0482 72.8056 10.9978C72.7501 10.9754 72.6946 10.9529 72.639 10.9305C72.5891 10.9081 72.5225 10.9193 72.5114 10.8464C72.4559 10.7455 72.3837 10.6895 72.2449 10.6895C72.1839 10.639 72.1395 10.5829 72.1117 10.5269C72.095 10.4933 72.095 10.482 72.1117 10.482C72.1173 10.482 72.0784 10.3979 72.0673 10.3587C72.0062 10.1737 72.0118 10.0167 72.0062 9.85977C71.984 9.56265 71.9563 9.22069 71.2346 8.80024L71.1236 8.08267C70.7239 7.51646 70.4575 8.03782 70.0745 7.37631C70.2743 7.24177 69.536 6.56905 70.0023 6.7148C69.4916 6.00284 68.7422 5.52072 67.9318 5.06664C67.1213 4.60134 66.2776 4.13604 65.4505 3.33999C64.8288 3.49695 63.9461 2.81863 63.4909 2.9756C63.5187 2.76817 61.4815 2.1403 62.7749 2.18515C62.8859 2.19076 63.058 2.26924 63.0191 2.33651L63.2578 2.1347C62.7693 1.65258 62.1976 1.51243 61.6202 1.46197C61.0429 1.3947 60.4545 1.41713 59.8717 1.22652C60.1992 1.40591 60.671 1.51243 60.3102 1.60773L59.2278 1.28258C59.3221 1.22092 59.4165 1.17046 59.5109 1.1144C58.9724 0.93501 58.4229 0.789254 57.8789 0.62668L58.0565 0.957434C57.2793 0.671528 57.0407 0.138957 56.0637 0.430469C55.6251 0.615468 56.7909 0.884556 55.9249 0.895768C54.8647 0.57062 53.2215 0.211835 51.7949 0.178199C51.9393 0.492136 51.5618 0.497742 51.1788 0.593044L51.1177 0.318349C49.6522 0.817284 50.5071 -0.264675 49.0361 0.223047L49.1415 0.015625L48.8307 0.643498C48.209 1.03031 48.0147 0.923798 47.7926 0.845314C47.5761 0.772436 47.3263 0.699558 46.6824 1.25455C47.2486 1.06395 47.0877 1.78712 46.3716 1.84318L46.4826 1.54046C46.1107 1.69743 46.0108 1.82637 45.7388 1.8544C45.9275 1.64137 45.7554 1.43955 45.2003 1.66379L45.489 1.22092L44.5564 2.03379C44.1012 2.03379 43.5794 2.26924 43.1187 2.45424C42.6579 2.65605 42.2694 2.84666 42.0196 2.75136C42.0196 2.75136 41.5644 2.89711 41.1036 3.17181C40.6374 3.43529 40.1489 3.77165 40.0823 4.07998C40.271 3.64832 39.3273 4.14725 39.4161 3.7268C39.1275 4.23134 38.1005 5.3077 37.4511 5.47588L37.5121 5.36936C37.0514 5.6889 36.6406 6.01966 36.3076 6.39526C35.98 6.77647 35.6914 7.15768 35.4194 7.53889C35.1696 7.93691 34.9253 8.32933 34.6478 8.71054C34.3869 9.10296 34.1205 9.48978 33.7596 9.87098C33.7985 9.8822 33.8262 9.90462 33.8373 9.93265V9.95507L33.8485 9.96629L33.8818 9.92704C33.9206 9.89341 33.904 9.92704 33.9151 9.92704C33.9373 9.96068 33.9428 9.99432 33.9484 10.028C33.965 10.0952 33.9872 10.1849 34.1538 10.3026C34.1538 10.4092 34.1371 10.4989 34.1038 10.5773C34.0871 10.6166 34.0705 10.6502 34.0483 10.6726C33.9983 10.6726 33.9484 10.6614 33.904 10.6558C33.7097 10.6222 33.5265 10.5493 33.3877 10.4989C33.3156 10.4764 33.2545 10.4596 33.199 10.454C33.0658 10.454 32.8992 10.482 32.7716 10.5269C32.5051 10.6166 32.2942 10.7904 32.1498 11.1211C31.3116 11.2445 31.1229 10.9025 30.6733 10.8913L30.8675 10.8016C29.28 11.0875 28.8248 11.2052 27.6368 11.3958C27.0762 11.6593 27.1151 12.2423 26.0604 12.3713C26.3324 12.0461 25.9216 12.2087 25.5386 12.3264C25.7717 12.2199 25.8272 12.1078 25.2777 12.1078C25.2277 12.1975 25.1278 12.276 25.039 12.3432C25.0279 12.3264 25.0057 12.3208 25.0057 12.2928C24.3839 12.5675 24.5283 12.6123 24.828 12.545C24.828 12.5843 24.8613 12.6179 24.9724 12.6572C24.2174 12.5843 23.1572 13.3243 22.9351 12.9991C21.0755 13.8905 19.9986 15.0005 18.7496 16.1105C18.4721 16.0488 18.6886 15.6732 19.0494 15.32C18.733 15.5779 18.4055 15.8134 18.1113 16.0937C17.9336 15.8414 18.5665 15.5274 18.844 15.2696C18.1002 15.477 17.5728 16.06 17.0566 16.6599C16.8068 16.9738 16.5514 17.2821 16.2739 17.5848C16.0074 17.8932 15.6966 18.1735 15.3247 18.4089L15.2692 18.835L15.1748 18.8854C15.2692 18.9639 15.1581 19.362 15.0305 19.575C14.6807 19.5918 14.5753 19.177 14.0757 19.8665C13.454 20.2477 13.0932 21.5147 12.7934 22.3331C13.0654 21.9519 13.1154 22.1594 13.0932 22.3724C12.8878 22.7312 12.5658 22.8265 12.5103 23.1628L12.1828 23.0339C12.3715 23.0339 12.316 23.3198 12.2438 23.6281C12.1717 23.9365 12.0662 24.2728 12.0995 24.3737C11.7665 24.4802 12.1606 23.6954 12.0329 23.516C11.3723 25.0577 11.6832 24.284 11.1114 25.8481C11.067 26.7731 11.4778 25.8089 11.6277 26.3134C11.4334 27.059 11.4556 27.8326 11.0393 28.6231L11.4112 28.4381C11.2891 29.8676 11.1114 30.6637 10.6562 31.5606C10.906 34.2571 11.4667 35.6698 11.8941 36.3425C12.3327 37.0153 12.6879 36.976 12.9599 36.6004C13.2375 36.2472 13.4429 35.6082 13.5927 35.0588C13.7537 34.5094 13.8425 34.0553 13.8425 34.0553C14.3421 32.239 14.5309 30.8991 14.7307 29.4416C14.9361 27.9952 15.1415 26.4143 16.0463 24.4634L16.0241 24.441Z" fill="#E9E9E9"/>
<path d="M1.04394 43.0492C1.04394 43.0492 1.02116 43.0203 1.00977 43.0088C1.02685 43.0376 1.03825 43.0492 1.04394 43.0492Z" fill="#E9E9E9"/>
<path d="M30.7612 76.022C29.7787 75.4839 29.1958 75.0634 28.6352 74.6037C28.069 74.1496 27.4584 73.7852 26.4203 73.3143C25.4933 72.7537 24.4553 72.238 23.5227 71.7166C22.8455 71.8119 22.3681 70.9262 21.6631 70.8813L21.6409 70.5226C21.3966 70.5057 21.1469 70.4273 21.0747 70.1862L21.1302 70.1301C20.7638 70.1021 20.564 69.7882 20.3753 69.777L20.4363 69.7265L20.131 69.5079L20.2476 69.463C19.7036 69.278 19.2706 68.9192 18.9597 68.5268L18.7766 68.7959C18.2603 67.8036 17.4998 68.0447 17.1279 67.0468L17.1945 67.002C16.4784 66.8674 16.2397 66.4246 16.0233 65.9649C15.8123 65.4996 15.618 65.0343 14.8964 64.8381C15.074 64.8885 14.9797 64.6811 15.0463 64.6362C14.6133 64.255 14.197 63.8066 13.6974 64.199C13.4365 63.8626 13.6363 63.8066 13.7917 63.6103C13.5752 63.7897 13.2533 63.5711 13.0479 63.3132L13.2255 63.3693L12.5872 62.6629L12.2763 63.1282C12.0931 62.6293 12.7148 62.6405 12.3263 62.3322L11.9766 62.5957C11.6379 61.9678 11.9599 61.2446 11.8489 60.5214C11.1772 59.3105 10.2446 58.2062 9.45083 57.0121C8.63483 55.8348 7.97981 54.5735 7.81883 53.228L8.07418 52.9982C8.49051 52.7739 7.15826 52.6058 7.53018 52.3479L7.21932 52.1461C7.26928 52.0339 7.28593 51.8377 7.44136 51.9386C7.3581 51.6752 7.28038 51.6976 7.07499 51.5574L7.25263 51.1706C7.0972 50.0662 6.25899 49.3655 6.03695 48.2106C6.20348 46.7138 5.07662 44.3369 4.51597 42.8793C4.20511 42.2963 4.11629 41.6404 4.14405 40.9621C4.14405 40.6257 4.19401 40.2781 4.23842 39.9362C4.26062 39.7232 4.29948 39.6895 4.33278 39.6279C4.37164 39.5718 4.40495 39.5213 4.44381 39.4765C4.63254 39.2242 4.75466 39.2018 4.76021 38.7813C4.82127 38.843 4.78242 38.6804 4.75466 38.6244C4.87679 38.6244 4.99336 38.6412 5.10438 38.6468L5.27091 38.6636H5.30977L5.33197 38.6692H5.39303L5.64838 38.6804C5.64838 38.6804 15.6291 38.8654 8.04642 34.8796L8.09638 34.773C6.96952 34.5208 6.25899 34.4647 5.48185 34.9917C5.43744 34.8291 5.40413 34.745 5.25426 34.7058C5.09883 34.6665 4.89899 34.6721 4.7047 34.689C4.30503 34.7226 3.91091 34.8179 3.67776 34.7394L3.69997 34.6834C3.25033 34.9805 2.75074 34.9637 2.20674 35.1262C1.67939 35.2664 1.16315 35.5691 1.02992 36.1185C1.01882 36.0568 0.885595 35.9223 1.03547 35.7317C0.80788 36.0456 0.613594 36.4549 0.485921 36.7856C0.347145 37.1108 0.252778 37.3462 0.0640425 37.2958C0.0140833 37.705 0.0251853 38.1759 -0.0136719 38.6412C0.0251853 39.0785 0.0529405 39.5325 0.1029 39.9586C0.130655 40.2109 0.147308 40.2781 0.169512 40.4239C0.191716 40.5528 0.21392 40.6818 0.241675 40.8051C0.352696 41.2984 0.53588 41.7245 0.802329 41.9936L0.691309 41.9543C1.14094 42.3355 0.830085 42.5093 1.10764 42.969C1.06323 43.0027 1.04657 43.0419 1.02437 43.0419C1.48511 43.4511 1.32968 44.4042 1.56837 44.7517L1.32968 44.8246C1.40739 45.1329 1.49621 45.4413 1.58502 45.744L1.55727 45.3852C2.25115 45.3572 1.29082 46.1813 1.87923 46.7587C1.96249 47.4146 3.55564 47.6613 3.42242 48.3732C3.81654 48.5862 2.85066 48.2499 3.21148 48.6367C2.87286 48.7488 2.93948 48.4853 2.70078 48.6815C2.99499 49.0796 2.55645 49.5225 2.96723 50.0046L2.71188 50.1111C3.41686 50.6717 2.8007 51.5855 3.43352 51.8994C3.91091 52.5497 2.82846 52.6842 3.6278 53.2504L3.39466 53.6821C3.46682 54.0297 3.91091 53.7438 3.88315 54.1698C3.65556 54.2371 3.8887 54.6968 3.60005 54.5735C3.61115 55.5377 4.76576 56.0086 4.71025 57.3148C5.23205 57.3428 5.23205 57.9931 5.63173 57.9987C5.46519 58.1165 6.14242 59.0471 5.45409 58.6715C5.39858 58.6378 5.35417 58.5481 5.42634 58.5145L5.14879 58.5705C5.01001 59.4002 5.94813 59.518 6.20903 60.1234C6.19238 59.9104 6.0425 59.6974 6.2923 59.7534L6.55875 60.3028H6.29785L6.63091 61.1661L6.81409 60.9139C6.90291 61.3736 6.5865 61.7604 7.19156 61.979C7.50242 62.0519 7.29148 61.4184 7.61344 61.7716C7.68561 62.0743 7.77997 62.4555 7.89655 62.8479C8.02422 63.2347 8.17965 63.6272 8.35728 63.9691C8.57932 63.7281 8.68479 63.9019 8.85687 64.042L8.64593 64.2214C9.41198 64.6643 8.31842 64.8212 9.04006 65.2978L8.84022 65.3538L9.43418 65.18C10.3001 65.4267 9.20659 65.8471 10.2835 66.0321C10.0559 65.8079 10.6721 65.5444 10.8164 65.9144L10.5444 66.0041C10.722 66.1387 10.8552 66.1218 10.8997 66.2676C10.7054 66.2564 10.5555 66.4582 10.7886 66.6768L10.3945 66.7217L11.155 66.8787C11.2161 67.428 11.971 67.7532 11.8156 68.14C11.8156 68.14 12.3429 69.0145 12.7926 68.908C12.4706 68.9361 12.7648 69.4126 12.4428 69.5023C12.837 69.4911 13.5364 69.8779 13.5308 70.3151L13.4642 70.2983C13.7418 70.8253 14.1692 71.0888 14.5855 71.3354C14.9963 71.5877 15.3849 71.8344 15.6347 72.3221C15.8123 72.053 16.101 72.5351 16.273 72.1371C17.3166 72.5015 17.189 74.0375 18.2825 73.2583C18.6933 73.4937 18.5379 73.8357 18.6933 74.0431L18.5656 74.0263C19.3261 74.4972 19.5426 74.6261 20.0644 75.0298C20.403 75.1195 20.7805 74.6598 21.1746 75.1083C20.8915 75.198 21.108 75.2989 21.2856 75.4222C21.1524 75.3717 21.0636 75.4222 21.219 75.7137C21.2912 75.6745 21.3689 75.6689 21.4411 75.6689C21.4355 75.6857 21.4355 75.7025 21.4133 75.7193C21.7686 75.8427 21.7519 75.7474 21.6298 75.6296C21.6575 75.6016 21.6686 75.5568 21.6631 75.4727C21.8185 75.9324 22.5624 76.0164 22.3847 76.3864C23.3562 76.9134 24.2665 76.8966 25.1103 77.2105C25.0992 77.446 24.8327 77.502 24.5607 77.446L25.1602 77.6982C25.0159 77.9617 24.755 77.6702 24.5552 77.6198C24.9937 78.4495 26.1816 77.9225 26.7811 78.7297L27.0476 78.6008L27.0809 78.6625C27.1309 78.5448 27.3807 78.4887 27.5194 78.4999C27.525 78.7858 27.2585 79.0437 27.6749 79.2119C27.8969 79.5875 28.6463 79.5034 29.1181 79.5594C28.9072 79.4193 29.0404 79.3184 29.1681 79.2735C29.3735 79.352 29.3901 79.6491 29.59 79.6099L29.4789 79.9463C29.5234 79.6043 30.1506 79.8229 30.2783 79.7164C30.3005 80.0079 29.8786 79.8005 29.7509 79.9631C30.5947 80.2546 30.1728 80.1088 31.0166 80.4003C31.5495 80.3219 31.0499 80.0584 31.3663 79.8453C31.7771 79.935 32.2323 79.8397 32.6153 80.1817L32.5709 79.8397C33.3813 79.8509 33.7976 80.0303 34.2029 80.4956C35.7683 80.2882 36.6509 79.9631 37.1172 79.6323C37.5835 79.296 37.6501 78.9428 37.5113 78.6232C37.2615 77.9785 36.3012 77.4684 36.3012 77.4684C34.4638 76.2239 33.187 76.7452 30.7224 76.022H30.7612Z" fill="#E9E9E9"/>
<path d="M104.684 42.5094C104.684 42.5094 104.672 42.4738 104.66 42.4619C104.666 42.4916 104.672 42.5035 104.684 42.5094Z" fill="#E9E9E9"/>
<path d="M80.0747 80.469C81.2293 80.0317 82.0342 79.9252 82.8002 79.6785C83.5718 79.4375 84.3601 79.1852 85.4203 78.4172C86.5305 77.8678 87.5686 77.0213 88.5344 76.3037C88.7343 75.5805 89.8334 75.3955 90.1387 74.6611L90.5051 74.7172C90.6105 74.4649 90.766 74.2239 91.038 74.1959L91.0713 74.2687C91.2211 73.8931 91.6042 73.7474 91.6763 73.5624L91.7152 73.6296L92.0149 73.3269L92.0316 73.4615C92.3535 72.9009 92.8143 72.486 93.2972 72.2001L93.0474 71.9871C94.141 71.4489 94.0078 70.6809 95.0458 70.238L95.0902 70.3053C95.2512 69.5204 95.7175 69.2513 96.1949 68.9654C96.6556 68.6683 97.133 68.3656 97.2829 67.5808C97.244 67.777 97.4549 67.6368 97.5105 67.6985C97.8435 67.1491 98.2265 66.5885 97.7436 66.1793C98.0378 65.8317 98.1322 66.0167 98.3598 66.1232C98.1433 65.9494 98.2987 65.5738 98.493 65.2711L98.4819 65.4673L99.0148 64.5872L98.4763 64.4358C98.9149 64.0938 99.0703 64.7105 99.2757 64.2172L98.9204 63.9649C99.4145 63.4099 100.192 63.4211 100.874 62.995C101.779 61.7617 102.401 60.2817 102.967 58.841C103.561 57.4059 104.094 55.9987 104.999 54.8551L105.349 54.8663C105.815 55.0009 104.988 53.8685 105.432 53.9413L105.349 53.5545C105.46 53.4985 105.615 53.3527 105.659 53.5433C105.787 53.2686 105.72 53.2294 105.659 52.9771L106.048 52.7753C106.675 51.7214 106.459 50.5665 106.925 49.3949C107.963 48.1167 108.085 45.1567 108.019 43.4974C107.924 42.791 108.052 42.1015 108.241 41.3951C108.352 41.0419 108.463 40.6887 108.574 40.3244C108.629 40.1842 108.707 39.8647 108.768 39.5732L108.951 38.665C108.979 38.2557 109.001 37.8353 109.001 37.4148C108.962 37.0224 108.846 36.63 108.657 36.2824C108.291 35.5761 107.636 35.0323 106.886 34.8529C106.82 34.7408 106.464 34.7576 106.442 34.8137C105.965 34.6287 105.443 34.5334 104.866 34.5165L103.356 34.4829C103.356 34.4829 93.3749 34.2923 100.958 38.2782L100.908 38.3847C102.035 38.6426 102.745 38.6986 103.522 38.1716C103.539 38.3342 103.65 38.4183 103.694 38.4576C103.733 38.4968 103.772 38.4912 103.828 38.4744C103.922 38.4351 104.066 38.3454 104.083 38.4463L104.055 38.4968C104.272 38.2501 104.421 38.3454 104.466 38.5024C104.527 38.6594 104.494 38.8163 104.771 38.7435C104.716 38.7771 104.555 38.906 104.51 38.878C104.699 38.906 104.877 39.1079 104.483 39.2816C104.505 39.3377 104.505 39.4106 104.505 39.4835V39.6965C104.505 39.6965 104.505 39.8815 104.499 39.988C104.499 40.1057 104.499 40.2234 104.499 40.3356C104.51 40.7953 104.566 41.2101 104.76 41.5184L104.666 41.4568C105.015 41.9165 104.649 41.9893 104.777 42.4715C104.727 42.4883 104.693 42.5163 104.677 42.5051C105.004 43.0152 104.51 43.8001 104.61 44.1869L104.366 44.1589C104.333 44.456 104.283 44.7475 104.238 45.039L104.36 44.7251C104.999 44.9829 103.8 45.2913 104.083 46.0145C103.85 46.5694 105.154 47.5785 104.649 48.1111C104.871 48.4923 104.227 47.7075 104.338 48.2176C103.994 48.1335 104.183 47.9541 103.877 47.9878C103.911 48.4643 103.339 48.582 103.4 49.1706L103.128 49.109C103.395 49.9443 102.379 50.2638 102.667 50.858C102.629 51.6261 101.746 51.0374 101.979 51.9288L101.524 52.0633C101.352 52.338 101.862 52.4501 101.568 52.7136C101.357 52.6015 101.23 53.0612 101.102 52.7809C100.447 53.3639 100.947 54.5076 99.9196 55.1915C100.23 55.6007 99.7642 55.9651 99.9862 56.2678C99.7975 56.2006 99.4644 57.204 99.3534 56.4697C99.3478 56.408 99.3923 56.3295 99.4589 56.3744L99.2479 56.1837C98.5152 56.4697 99.0092 57.2881 98.6318 57.7646C98.7983 57.6581 98.8927 57.4395 98.9759 57.6693L98.6706 58.1346L98.5263 57.9216L98.0045 58.5663L98.3043 58.6112C97.9823 58.8915 97.4883 58.7513 97.5993 59.3455C97.6825 59.6427 98.1266 59.2222 97.9767 59.6314C97.7547 59.8108 97.4716 60.0295 97.194 60.2761C96.9054 60.5116 96.6223 60.7639 96.3947 61.0217C96.6945 61.1507 96.5779 61.2964 96.5279 61.4926L96.2892 61.3525C96.1949 62.1766 95.6453 61.2179 95.4732 61.9748L95.3567 61.8066L95.7119 62.3055C95.7619 63.1632 95.0514 62.2382 95.2123 63.2753C95.3456 63.0175 95.7841 63.55 95.4621 63.7519L95.3067 63.5164C95.229 63.7014 95.2734 63.8247 95.1457 63.892C95.1069 63.7126 94.8793 63.6005 94.7349 63.8528L94.5962 63.494L94.6406 64.2284C94.1632 64.3741 94.0078 65.1141 93.6025 64.9908C93.6025 64.9908 92.8753 65.5346 93.0419 65.9718C92.9753 65.6635 92.5756 65.9662 92.4479 65.6523C92.5034 66.0167 92.1926 66.6782 91.7873 66.6558L91.7984 66.5941C91.3433 66.852 91.1157 67.2276 90.8714 67.5808C90.6383 67.9395 90.4051 68.2927 89.9444 68.4553C90.1886 68.6683 89.7113 68.8533 90.0721 69.0832C89.6113 70.0194 88.2402 69.5597 88.7565 70.7594C88.4567 71.0845 88.1681 70.8378 87.9516 70.9275L87.9904 70.8098C87.4187 71.3984 87.23 71.5386 86.7193 71.8581C86.5472 72.1328 86.8414 72.6486 86.314 72.8448C86.3251 72.5477 86.1697 72.7103 86.0032 72.828C86.0864 72.7215 86.0753 72.6318 85.77 72.643C85.7811 72.7215 85.7534 72.7943 85.7312 72.8504C85.7201 72.8336 85.7034 72.828 85.6923 72.8056C85.4536 73.0578 85.5424 73.0859 85.6923 73.0298C85.7034 73.0634 85.7423 73.0971 85.82 73.1251C85.3593 73.0578 84.9984 73.6689 84.7486 73.3493C83.9548 73.9884 83.4997 74.6724 82.8335 75.2498C82.6504 75.1152 82.7392 74.8517 82.9168 74.6611L82.4283 75.0255C82.2951 74.7564 82.6503 74.7004 82.778 74.5602C81.9454 74.4986 81.69 75.6702 80.7464 75.659L80.6908 75.9505L80.6298 75.9393C80.6853 76.0514 80.5909 76.2981 80.491 76.3822C80.2745 76.1916 80.2468 75.8328 79.8748 76.0122C79.4752 75.9169 79.0755 76.5055 78.7313 76.8082C78.9589 76.7522 78.9478 76.9204 78.8923 77.0437C78.7036 77.1334 78.4982 76.9484 78.3872 77.111L78.2373 76.7914C78.4371 77.0717 77.8598 77.3184 77.8432 77.481C77.6378 77.2792 78.0652 77.1558 78.043 76.954C77.277 77.2848 77.66 77.1222 76.8884 77.4529C76.5609 77.8622 77.0771 77.7388 76.9827 78.1032C76.6386 78.3163 76.3499 78.6807 75.8392 78.619L76.0779 78.8713C75.4396 79.3366 74.9899 79.4487 74.4126 79.3029C73.2469 80.3064 72.6085 81.0296 72.3476 81.5677C72.0867 82.1003 72.1978 82.4367 72.4642 82.6553C73.0082 83.0814 74.2072 82.9861 74.2072 82.9861C76.6774 82.9973 77.5878 81.7191 80.0802 80.4578L80.0747 80.469Z" fill="#E9E9E9"/>
</g>
<defs>
<clipPath id="clip0_1772_3339">
<rect width="109" height="92.443" fill="white"/>
</clipPath>
</defs>
</svg>
