<svg width="24" height="24" viewBox="0 0 24 24" fill="none" xmlns="http://www.w3.org/2000/svg">
<path d="M9.26872 2.55269C10.8061 1.11583 13.1939 1.11583 14.7313 2.55269L15.8219 3.57198C16.268 3.98897 16.8037 4.29826 17.3879 4.47616L18.816 4.91099C20.829 5.52398 22.0229 7.59185 21.5472 9.6417L21.2098 11.0958C21.0718 11.6907 21.0718 12.3093 21.2098 12.9042L21.5472 14.3583C22.0229 16.4081 20.829 18.476 18.816 19.089L17.3879 19.5238C16.8037 19.7017 16.268 20.011 15.8219 20.428L14.7313 21.4473C13.1939 22.8842 10.8061 22.8842 9.26872 21.4473L8.17813 20.428C7.73197 20.011 7.19626 19.7017 6.61205 19.5238L5.18403 19.089C3.17098 18.476 1.97709 16.4081 2.45275 14.3583L2.79018 12.9042C2.92823 12.3093 2.92823 11.6907 2.79018 11.0958L2.45275 9.6417C1.97709 7.59185 3.17098 5.52398 5.18403 4.91099L6.61205 4.47616C7.19626 4.29826 7.73197 3.98897 8.17813 3.57198L9.26872 2.55269Z" stroke="#8E8E8E" stroke-width="2"/>
<path d="M9 12C9 13.6569 10.3431 15 12 15C13.6569 15 15 13.6569 15 12C15 10.3431 13.6569 9 12 9C10.3431 9 9 10.3431 9 12Z" stroke="#8E8E8E" stroke-width="2" stroke-linecap="round"/>
</svg>
