<svg width="32" height="32" viewBox="0 0 32 32" fill="none" xmlns="http://www.w3.org/2000/svg">
<path d="M13.2687 6.55269C14.8061 5.11583 17.1939 5.11583 18.7313 6.55269L19.8219 7.57198C20.268 7.98897 20.8037 8.29826 21.3879 8.47616L22.816 8.91099C24.829 9.52398 26.0229 11.5919 25.5472 13.6417L25.2098 15.0958C25.0718 15.6907 25.0718 16.3093 25.2098 16.9042L25.5472 18.3583C26.0229 20.4081 24.829 22.476 22.816 23.089L21.3879 23.5238C20.8037 23.7017 20.268 24.011 19.8219 24.428L18.7313 25.4473C17.1939 26.8842 14.8061 26.8842 13.2687 25.4473L12.1781 24.428C11.732 24.011 11.1963 23.7017 10.6121 23.5238L9.18403 23.089C7.17098 22.476 5.97709 20.4081 6.45275 18.3583L6.79018 16.9042C6.92823 16.3093 6.92823 15.6907 6.79018 15.0958L6.45275 13.6417C5.97709 11.5919 7.17098 9.52398 9.18403 8.91099L10.6121 8.47616C11.1963 8.29826 11.732 7.98897 12.1781 7.57198L13.2687 6.55269Z" stroke="#1F1F1F" stroke-width="2"/>
<path d="M13 16C13 17.6569 14.3431 19 16 19C17.6569 19 19 17.6569 19 16C19 14.3431 17.6569 13 16 13C14.3431 13 13 14.3431 13 16Z" stroke="#1F1F1F" stroke-width="2" stroke-linecap="round"/>
</svg>
