<svg width="71" height="71" viewBox="0 0 71 71" fill="none" xmlns="http://www.w3.org/2000/svg">
<path d="M26.7598 7.68617L26.8098 7.57617C26.8098 7.57617 26.7698 7.59617 26.7598 7.68617Z" fill="#8E8E8E"/>
<path d="M28.2006 8.76672C28.2106 8.50672 28.2406 8.28672 28.2606 8.09672C28.2706 7.95672 28.2906 8.03672 28.3006 7.99672C28.3106 7.99672 28.3306 7.98672 28.3406 7.98672C28.3906 7.97672 28.4206 8.02672 28.3806 7.95672C28.3806 7.95672 28.4006 7.92672 28.4606 7.92672C28.6406 7.82672 29.0506 8.18672 29.3406 8.16672L29.4006 8.29672C29.5106 8.29672 29.6306 8.30672 29.7006 8.39672L29.6806 8.41672C29.8506 8.41672 29.9806 8.51672 30.0606 8.51672L30.0406 8.53672L30.2106 8.59672L30.1706 8.61672C30.4406 8.65672 30.6806 8.75672 30.8806 8.88672L30.9106 8.77672C31.3206 9.09672 31.5806 8.95672 31.9306 9.27672L31.9106 9.29672C32.5606 9.24672 32.6506 9.85672 33.3106 9.83672C33.2306 9.83672 33.3106 9.90672 33.3006 9.92672C33.5606 10.0067 33.8306 10.1067 33.9306 9.90672C34.1106 9.98672 34.0506 10.0367 34.0406 10.1267C34.0806 10.0367 34.2506 10.0667 34.4006 10.1267H34.3206L34.7406 10.2867V10.0767C34.9306 10.2267 34.7006 10.3067 34.9206 10.3667L34.9806 10.2267C35.2606 10.3867 35.3406 10.6867 35.5806 10.9167C36.7506 11.5167 38.2006 11.7267 39.2006 12.4767V12.6067C39.1506 12.7767 39.6106 12.5167 39.5906 12.6767H39.7506C39.7506 12.6767 39.8406 12.7667 39.7506 12.7767C39.8706 12.8367 39.8806 12.8167 39.9906 12.8067L40.0706 12.9567C40.5106 13.2467 40.9906 13.2367 41.4706 13.4967C41.9806 13.9667 43.1806 14.2867 43.8806 14.4667C44.0106 14.4667 44.1206 14.4967 44.2106 14.5567C44.1906 14.6567 44.1606 14.7667 44.1206 14.8467C44.0806 14.9367 44.0406 15.2267 44.0106 15.4067C43.9406 15.8167 43.9106 16.2267 44.0306 16.6167C44.0106 16.6467 44.0606 16.7367 44.0806 16.7367L44.0606 17.6667C44.0606 17.6667 43.9906 22.1967 45.4206 18.7567L45.4606 18.7767C45.5506 18.2667 45.5706 17.9467 45.3806 17.5867C45.6106 17.5267 45.4006 17.1667 45.4806 17.0467H45.5006C45.3206 16.7467 45.6506 16.4167 45.4906 16.1167C45.5106 16.1267 45.5706 16.1367 45.5806 16.2067C45.5506 15.9867 45.5006 15.6867 45.6306 15.6767C45.6306 15.4267 45.6106 15.1467 45.6106 14.8667C45.6006 14.3967 45.5706 13.9667 45.4906 13.7367C45.4306 13.7267 45.3806 13.7167 45.3406 13.7167H45.4106C45.0106 13.6867 45.0306 13.5567 44.6806 13.4867C44.6806 13.4667 44.6606 13.4467 44.6606 13.4467C44.5706 13.4467 44.4606 13.4167 44.3806 13.3967C44.3106 13.3767 44.2406 13.3467 44.1806 13.3167C44.0506 13.2567 43.9206 13.1767 43.8406 13.1767L43.8706 13.0867L43.4806 12.9367L43.6106 13.0167C43.4606 13.2167 43.3906 12.7467 43.0506 12.7667C42.8106 12.6267 42.3206 12.9967 42.1006 12.7667C41.9306 12.8167 42.2906 12.6467 42.0606 12.6467C42.1106 12.5267 42.1806 12.6167 42.1706 12.4967C41.9606 12.4667 41.9206 12.2367 41.6506 12.2167L41.6806 12.1167C41.3106 12.1467 41.1706 11.7467 40.9006 11.8167C40.5606 11.7567 40.8106 11.4567 40.4106 11.4867L40.3406 11.3067C40.2106 11.2267 40.1706 11.4167 40.0506 11.2867C40.0906 11.2167 39.8806 11.1367 40.0106 11.1067C39.7206 10.8267 39.2306 10.9667 38.8706 10.5567C38.7006 10.6667 38.5106 10.4667 38.3906 10.5567C38.4106 10.4867 37.9306 10.3367 38.2606 10.3167C38.2906 10.3167 38.3306 10.3367 38.3106 10.3567L38.3806 10.2767C38.2006 9.99672 37.8706 10.1567 37.6206 10.0167C37.6806 10.0767 37.7906 10.1167 37.6906 10.1467L37.4606 10.0267L37.5406 9.97672L37.2006 9.77672V9.89672C37.0506 9.76672 37.0606 9.58672 36.8106 9.62672C36.6906 9.65672 36.9206 9.82672 36.7206 9.77672C36.5206 9.60672 36.2106 9.35672 35.9206 9.19672C35.9006 9.31672 35.8206 9.27672 35.7306 9.25672L35.7606 9.15672C35.3906 9.13672 35.7306 8.90672 35.3806 8.86672L35.4406 8.81672L35.2706 8.96672C34.9106 9.01672 35.2006 8.70672 34.7806 8.81672C34.9106 8.85672 34.7506 9.04672 34.6106 8.93672L34.6906 8.86672C34.6006 8.84672 34.5506 8.86672 34.5006 8.82672C34.5706 8.80672 34.5806 8.70672 34.4506 8.66672L34.5806 8.59672L34.2706 8.65672C34.1306 8.47672 33.7906 8.46672 33.7706 8.31672C33.7706 8.31672 33.4106 8.07672 33.2606 8.17672C33.3806 8.12672 33.1806 7.99672 33.2806 7.92672C33.1406 7.97672 32.8006 7.92672 32.7306 7.76672H32.7606C32.3606 7.46672 31.9406 7.56672 31.6006 7.26672C31.5706 7.37672 31.3906 7.22672 31.3806 7.38672C30.9106 7.33672 30.7506 6.77672 30.4206 7.12672C30.2206 7.06672 30.2406 6.92672 30.1606 6.86672H30.2106C29.8406 6.74672 29.7406 6.69672 29.4906 6.57672C29.3306 6.55672 29.2506 6.74672 29.0106 6.57672C29.1506 6.54672 29.0106 6.49672 28.8706 6.43672C28.9606 6.45672 29.0006 6.43672 28.8306 6.30672C28.8006 6.31672 28.7606 6.31672 28.7206 6.31672V6.29672C28.4906 6.22672 28.5306 6.27672 28.6306 6.32672C28.6306 6.33672 28.6306 6.35672 28.6606 6.39672C28.4406 6.17672 28.0506 6.12672 27.9906 5.94672C27.4906 5.74672 27.1606 5.69672 26.8706 5.63672C26.8906 5.83672 26.9106 6.01672 26.9306 6.17672C26.8606 6.14672 26.7906 5.93672 26.7606 5.71672L26.7906 6.17672C26.6806 6.04672 26.7306 5.85672 26.7106 5.68672C26.6206 5.83672 26.6706 6.18672 26.7106 6.50672C26.7606 6.83672 26.8006 7.12672 26.7206 7.39672L26.8006 7.54672V7.57672C26.8006 7.57672 26.8906 7.72672 26.9106 7.80672C26.8206 7.86672 26.6906 7.78672 26.7006 8.05672C26.6106 8.20672 26.7506 8.49672 26.8006 8.69672C26.8206 8.58672 26.8706 8.62672 26.9006 8.66672C26.9006 8.76672 26.8106 8.81672 26.8506 8.89672H26.7206C26.8406 8.86672 26.8506 9.15672 26.9006 9.19672C26.8106 9.25672 26.8206 9.04672 26.7506 9.01672C26.7606 9.40672 26.7506 9.21672 26.7706 9.60672C26.8606 9.81672 26.8906 9.56672 27.0006 9.66672C27.0206 9.84672 27.1106 10.0267 27.0406 10.2467L27.1506 10.1767C27.2406 10.5267 27.2206 10.7267 27.1106 10.9667C28.0206 13.5467 28.3506 11.5067 28.3506 11.5067C28.6006 10.4867 28.2706 9.96672 28.1806 8.75672L28.2006 8.76672Z" fill="#8E8E8E"/>
<path d="M30.0801 12.7969L30.1101 12.8569C30.1101 12.8569 30.1101 12.8169 30.0801 12.7969Z" fill="#8E8E8E"/>
<path d="M28.9405 13.8659C29.5205 14.1859 29.5905 14.4559 30.2505 14.6559C30.5405 14.8059 30.8805 14.9059 31.1805 15.0059C31.3905 14.9159 31.5605 15.1759 31.7805 15.1159L31.8005 15.2359C31.8805 15.2159 31.9605 15.2159 31.9905 15.2859V15.3059C32.0905 15.2759 32.1705 15.3559 32.2205 15.3459V15.3659L32.3105 15.3959L32.2805 15.4259C32.4605 15.4259 32.6105 15.4859 32.7305 15.5759L32.7705 15.4659C33.0005 15.7159 33.2005 15.5359 33.4005 15.7959V15.8159C33.8305 15.6859 33.8105 16.2359 34.2705 16.1159C34.2105 16.1259 34.2705 16.1759 34.2505 16.2059C34.4205 16.2459 34.5905 16.3059 34.6905 16.0959C34.8005 16.1459 34.7505 16.2059 34.7305 16.2859C34.7705 16.1959 34.8805 16.1959 34.9705 16.2359L34.9105 16.2559L35.1805 16.3359L35.2105 16.1459C35.3205 16.2559 35.1505 16.3759 35.3005 16.3859L35.3605 16.2459C35.5305 16.3559 35.5405 16.6259 35.6705 16.8059C36.3805 17.1959 37.3405 17.1959 37.9205 17.7559L37.9005 17.8759C37.8405 18.0359 38.1905 17.7259 38.1605 17.8859L38.2705 17.8459C38.2705 17.8459 38.3105 17.9359 38.2605 17.9559C38.3305 17.9959 38.3405 17.9659 38.4205 17.9559L38.4605 18.0859C38.7205 18.2959 39.0505 18.2159 39.3405 18.3959C39.6205 18.7559 40.4005 18.8859 40.8505 18.9659C41.5205 18.9859 41.9005 19.9059 42.5905 19.8959C42.5905 19.9259 42.6705 19.8959 42.6805 19.8759L43.2005 20.1359C43.2005 20.1359 45.7405 21.3459 44.3705 19.1759L44.4005 19.1459C44.1505 18.9359 43.9705 18.8359 43.7005 18.9159C43.7605 18.6959 43.4705 18.7859 43.4305 18.6859H43.4405C43.1905 18.7559 43.1405 18.3759 42.9005 18.4459C42.9105 18.4359 42.9405 18.3759 42.9805 18.3859C42.8405 18.3559 42.6505 18.3259 42.7005 18.2059C42.3905 18.1059 42.0005 17.8659 41.7205 17.9759L41.7505 17.9459C41.5805 18.0259 41.6005 17.9059 41.4505 17.9159C41.4505 17.8959 41.4505 17.8859 41.4505 17.8759C41.2705 17.9559 41.1005 17.7459 40.9805 17.7559L41.0105 17.6759L40.7705 17.5859L40.8505 17.6459C40.7205 17.8559 40.7405 17.4259 40.5005 17.4959C40.3505 17.3959 39.9705 17.8159 39.8505 17.6359C39.7205 17.7059 40.0005 17.4959 39.8505 17.5259C39.9005 17.4059 39.9405 17.4759 39.9505 17.3759C39.8105 17.3759 39.8105 17.1759 39.6405 17.1859L39.6705 17.0959C39.4105 17.1759 39.3705 16.8159 39.1805 16.9259C38.9505 16.9159 39.1805 16.5959 38.8905 16.6859L38.8705 16.5259C38.7905 16.4659 38.7405 16.6459 38.6705 16.5459C38.7105 16.4759 38.5805 16.4259 38.6705 16.3859C38.5105 16.1659 38.1605 16.3659 37.9705 16.0359C37.8405 16.1559 37.7405 16.0059 37.6405 16.0959C37.6605 16.0259 37.3605 15.9559 37.5805 15.8859C37.6005 15.8859 37.6205 15.8859 37.6105 15.9159L37.6705 15.8359C37.5805 15.5959 37.3405 15.7959 37.1905 15.6959C37.2205 15.7459 37.2905 15.7659 37.2205 15.8059L37.0805 15.7259L37.1405 15.6659L36.9405 15.5259V15.6359C36.8405 15.5359 36.8705 15.3659 36.6905 15.4459C36.6005 15.4959 36.7405 15.6159 36.6105 15.5959C36.4905 15.4659 36.3205 15.2759 36.1505 15.1659C36.1205 15.2759 36.0705 15.2559 36.0105 15.2459L36.0405 15.1559C35.7905 15.1959 36.0605 14.9259 35.8205 14.9359L35.8705 14.8759L35.7305 15.0459C35.4705 15.1459 35.7205 14.8159 35.4205 14.9759C35.5005 14.9959 35.3705 15.1959 35.2905 15.1059L35.3505 15.0259C35.2905 15.0259 35.2605 15.0459 35.2305 15.0259C35.2805 14.9959 35.3005 14.9059 35.2205 14.8859L35.3205 14.7959L35.1005 14.8959C35.0305 14.7559 34.8005 14.7859 34.8105 14.6459C34.8105 14.6459 34.6005 14.4759 34.4805 14.5859C34.5705 14.5259 34.4505 14.4359 34.5305 14.3459C34.4205 14.4159 34.2005 14.4059 34.1805 14.2759H34.2005C33.9705 14.0459 33.6705 14.2059 33.4805 13.9659C33.4405 14.0759 33.3405 13.9659 33.3105 14.1059C33.0005 14.1259 32.9705 13.6259 32.6905 13.9959C32.5605 13.9659 32.6005 13.8359 32.5505 13.7859H32.5905C32.3605 13.7159 32.2905 13.6859 32.1405 13.6059C32.0405 13.6059 31.9405 13.7959 31.8205 13.6859C31.9005 13.6259 31.8405 13.6159 31.7805 13.5959C31.8205 13.5959 31.8405 13.5759 31.8005 13.4959C31.7805 13.5159 31.7605 13.5259 31.7405 13.5259C31.7405 13.5259 31.7405 13.5159 31.7405 13.5059C31.6405 13.4959 31.6405 13.5259 31.6805 13.5559C31.6805 13.5659 31.6705 13.5859 31.6805 13.6059C31.6305 13.4659 31.4205 13.4959 31.4605 13.3559C31.1805 13.2659 30.9205 13.3159 30.6705 13.2659C30.6705 13.1859 30.7505 13.1459 30.8305 13.1559L30.6605 13.1059C30.7105 13.0059 30.7805 13.0859 30.8405 13.0959C30.7205 12.8559 30.3805 13.0759 30.2205 12.8359L30.1405 12.8959V12.8759C30.1405 12.8759 30.0405 12.9459 30.0005 12.9459C30.0005 12.8459 30.0905 12.7459 29.9805 12.7059C29.9305 12.5859 29.7105 12.6359 29.5805 12.6259C29.6405 12.6659 29.5905 12.7059 29.5505 12.7259C29.4905 12.7059 29.5005 12.6059 29.4405 12.6259L29.4905 12.5059C29.4605 12.6259 29.2905 12.5559 29.2505 12.5959C29.2505 12.4959 29.3705 12.5659 29.4105 12.5059C29.1805 12.4159 29.3005 12.4659 29.0705 12.3759C28.9105 12.4059 29.0405 12.4959 28.9405 12.5659C28.8305 12.5459 28.6905 12.5759 28.6005 12.4559V12.5759C28.3605 12.5759 28.2505 12.5059 28.1605 12.3359C26.3305 12.5159 27.3405 13.3359 27.3405 13.3359C27.8105 13.8159 28.2405 13.6559 28.9605 13.8859L28.9405 13.8659Z" fill="#8E8E8E"/>
<path d="M54.4991 28.0561V27.9961C54.4991 27.9961 54.4791 28.0361 54.4991 28.0561Z" fill="#8E8E8E"/>
<path d="M55.7301 27.177C55.3601 26.827 55.3901 26.577 54.9201 26.337C54.7301 26.177 54.4901 26.057 54.2801 25.927C54.0901 25.997 54.0201 25.737 53.8301 25.767L53.8501 25.657C53.7801 25.667 53.7201 25.657 53.7101 25.587L53.7301 25.567C53.6301 25.587 53.5901 25.497 53.5401 25.507L53.5601 25.487L53.4801 25.447L53.5201 25.427C53.3801 25.417 53.2701 25.347 53.2001 25.247L53.1401 25.347C53.0301 25.097 52.8101 25.237 52.7401 24.987L52.7601 24.967C52.3601 25.047 52.5401 24.547 52.1501 24.607C52.2001 24.607 52.1701 24.547 52.1901 24.527C52.0701 24.477 51.9501 24.407 51.8101 24.587C51.7401 24.527 51.7901 24.487 51.8401 24.407C51.7801 24.487 51.6901 24.467 51.6301 24.427H51.6801L51.4901 24.317L51.4101 24.497C51.3501 24.387 51.5301 24.297 51.4101 24.267L51.3201 24.397C51.2201 24.277 51.2901 24.037 51.2401 23.857C50.7901 23.427 50.0101 23.347 49.7201 22.777L49.7701 22.667C49.8601 22.527 49.4901 22.777 49.5701 22.637L49.4701 22.657C49.4701 22.657 49.4701 22.567 49.5101 22.557C49.4601 22.517 49.4501 22.537 49.3801 22.557V22.427C49.2501 22.217 48.9601 22.257 48.7801 22.067C48.6601 21.707 48.0801 21.517 47.7401 21.407C47.2101 21.327 47.1801 20.457 46.6201 20.397C46.6201 20.367 46.5601 20.397 46.5501 20.397L46.2101 20.107C46.2101 20.107 44.5401 18.767 44.9801 20.877L44.9501 20.897C45.0901 21.117 45.2001 21.227 45.4401 21.177C45.3201 21.377 45.5801 21.317 45.5801 21.407H45.5601C45.7801 21.367 45.7101 21.717 45.9201 21.677C45.9001 21.687 45.8601 21.737 45.8401 21.717C45.9401 21.757 46.0801 21.797 46.0101 21.917C46.2301 22.037 46.4701 22.297 46.7201 22.217L46.6901 22.237C46.8501 22.177 46.8001 22.287 46.9201 22.297C46.9201 22.317 46.9201 22.327 46.9101 22.327C47.0701 22.277 47.1501 22.487 47.2501 22.477L47.2001 22.547L47.3701 22.647L47.3201 22.587C47.4901 22.407 47.3501 22.797 47.5501 22.757C47.6401 22.857 48.0701 22.517 48.1101 22.697C48.2301 22.647 47.9501 22.807 48.0801 22.797C48.0101 22.897 48.0001 22.837 47.9501 22.927C48.0601 22.927 48.0001 23.127 48.1501 23.127L48.0901 23.207C48.3201 23.157 48.2501 23.487 48.4301 23.417C48.6101 23.447 48.3401 23.717 48.5901 23.667L48.5601 23.817C48.6001 23.877 48.7001 23.717 48.7201 23.817C48.6701 23.877 48.7601 23.927 48.6701 23.967C48.7301 24.177 49.0701 24.037 49.1301 24.357C49.2701 24.257 49.3101 24.407 49.4101 24.327C49.3701 24.387 49.5901 24.477 49.3901 24.527C49.3701 24.527 49.3601 24.517 49.3801 24.497L49.3101 24.567C49.3101 24.797 49.5701 24.637 49.6601 24.737C49.6501 24.687 49.6001 24.667 49.6601 24.627L49.7501 24.707L49.6801 24.757L49.8001 24.907L49.8401 24.807C49.8801 24.907 49.8001 25.057 49.9701 25.007C50.0601 24.967 49.9801 24.847 50.0801 24.877C50.1301 25.007 50.2201 25.197 50.3201 25.317C50.3801 25.217 50.4101 25.247 50.4601 25.257L50.4001 25.337C50.6101 25.327 50.3201 25.547 50.5101 25.557L50.4601 25.607L50.6201 25.467C50.8601 25.397 50.5601 25.677 50.8501 25.567C50.7901 25.537 50.9601 25.377 51.0001 25.457L50.9301 25.517C50.9301 25.517 51.0101 25.507 51.0201 25.537C50.9701 25.567 50.9201 25.637 50.9901 25.667L50.8801 25.737L51.0801 25.667C51.0901 25.807 51.2901 25.797 51.2401 25.927C51.2401 25.927 51.3601 26.097 51.4901 26.007C51.4001 26.057 51.4701 26.147 51.3801 26.217C51.4801 26.167 51.6601 26.187 51.6401 26.317H51.6201C51.7301 26.547 52.0301 26.427 52.1101 26.667C52.1701 26.567 52.2201 26.687 52.2901 26.547C52.5501 26.557 52.4201 27.017 52.7601 26.707C52.8501 26.747 52.7901 26.857 52.8101 26.907H52.7801C52.9501 26.987 52.9901 27.017 53.0901 27.107C53.1701 27.107 53.3101 26.947 53.3701 27.067C53.2901 27.107 53.3401 27.127 53.3701 27.157C53.3401 27.157 53.3101 27.167 53.3301 27.247C53.3501 27.227 53.3701 27.227 53.3901 27.227C53.3901 27.227 53.3901 27.237 53.3801 27.247C53.4601 27.267 53.4601 27.247 53.4401 27.207C53.4401 27.207 53.4601 27.187 53.4601 27.157C53.4601 27.287 53.6401 27.277 53.5601 27.407C53.7601 27.517 53.9801 27.497 54.1601 27.567C54.1301 27.637 54.0601 27.667 54.0001 27.657L54.1201 27.717C54.0501 27.797 54.0201 27.717 53.9801 27.717C54.0001 27.947 54.3501 27.777 54.4001 28.017L54.4801 27.977V27.997C54.4801 27.997 54.5801 27.937 54.6101 27.947C54.5701 28.037 54.4801 28.117 54.5601 28.167C54.5601 28.287 54.7501 28.257 54.8601 28.277C54.8301 28.237 54.8701 28.207 54.9101 28.187C54.9501 28.217 54.9101 28.307 54.9701 28.297L54.9001 28.397C54.9601 28.287 55.0701 28.367 55.1201 28.337C55.0801 28.427 55.0101 28.357 54.9601 28.407C55.1101 28.507 55.0401 28.457 55.1901 28.557C55.3301 28.537 55.2501 28.447 55.3501 28.387C55.4301 28.417 55.5601 28.397 55.5901 28.517L55.6301 28.407C55.8101 28.437 55.8801 28.507 55.9001 28.667C57.4201 28.667 56.8601 27.827 56.8601 27.827C56.6301 27.337 56.2301 27.447 55.7201 27.177H55.7301Z" fill="#8E8E8E"/>
<path d="M33.5801 31.3956H33.6501C33.6501 31.3956 33.6101 31.3756 33.5801 31.3956Z" fill="#8E8E8E"/>
<path d="M34.2404 32.7963C34.7204 32.3663 34.9904 32.3863 35.3804 31.8363C35.6104 31.6163 35.8004 31.3363 35.9904 31.0863C35.9704 30.8663 36.2604 30.7863 36.2804 30.5663L36.4004 30.5863C36.4004 30.5063 36.4304 30.4363 36.5104 30.4263L36.5304 30.4463C36.5304 30.3363 36.6404 30.2863 36.6404 30.2263L36.6604 30.2463L36.7204 30.1563L36.7404 30.1963C36.7904 30.0263 36.8904 29.9063 37.0204 29.8263L36.9304 29.7563C37.2304 29.6263 37.1304 29.3763 37.4304 29.2763L37.4504 29.2963C37.4504 28.8363 37.9704 29.0363 38.0004 28.5763C38.0004 28.6363 38.0604 28.6063 38.0704 28.6263C38.1604 28.4863 38.2604 28.3463 38.1004 28.1863C38.1804 28.0963 38.2204 28.1663 38.2904 28.2063C38.2204 28.1363 38.2604 28.0363 38.3104 27.9663V28.0263L38.4704 27.8063L38.3004 27.7163C38.4404 27.6463 38.4904 27.8463 38.5504 27.7163L38.4304 27.6163C38.5904 27.4963 38.8404 27.5663 39.0504 27.5063C39.6304 26.9663 39.9204 26.0763 40.6204 25.7263L40.7304 25.7863C40.8704 25.8963 40.6804 25.4663 40.8204 25.5563V25.4363C40.8204 25.4363 40.9204 25.4263 40.9204 25.4863C40.9804 25.4363 40.9604 25.4163 40.9604 25.3363H41.1004C41.3704 25.1763 41.4004 24.8363 41.6504 24.6263C42.0804 24.4863 42.4304 23.8063 42.6404 23.4063C42.8604 22.7863 43.8304 22.7363 44.0404 22.0863C44.0704 22.0863 44.0704 22.0163 44.0504 21.9963L44.4504 21.5963C44.4504 21.5963 46.3504 19.6363 43.9004 20.1963L43.8804 20.1563C43.6004 20.3263 43.4604 20.4463 43.4504 20.7363C43.2604 20.6063 43.2604 20.9063 43.1604 20.9063V20.8863C43.1604 21.1463 42.7804 21.0763 42.7704 21.3163C42.7704 21.2963 42.7204 21.2563 42.7404 21.2163C42.6704 21.3363 42.5904 21.4963 42.4804 21.4163C42.2904 21.6763 41.9504 21.9563 41.9704 22.2463L41.9504 22.2063C41.9804 22.3863 41.8604 22.3263 41.8304 22.4763C41.8104 22.4763 41.8004 22.4763 41.7904 22.4663C41.8104 22.6563 41.5604 22.7463 41.5304 22.8663L41.4604 22.8063L41.3104 23.0063L41.3904 22.9463C41.5504 23.1363 41.1504 22.9763 41.1404 23.2263C41.0004 23.3263 41.2804 23.8263 41.0704 23.8763C41.1004 24.0163 40.9804 23.6963 40.9604 23.8463C40.8604 23.7663 40.9404 23.7463 40.8404 23.7063C40.8004 23.8363 40.6104 23.7663 40.5704 23.9363L40.4904 23.8763C40.4904 24.1463 40.1404 24.0663 40.1804 24.2763C40.1004 24.4863 39.8704 24.1763 39.8704 24.4663L39.7104 24.4363C39.6304 24.4863 39.7904 24.5963 39.6704 24.6263C39.6104 24.5663 39.5304 24.6763 39.5104 24.5763C39.2604 24.6563 39.3304 25.0463 38.9604 25.1163C39.0404 25.2763 38.8604 25.3163 38.9204 25.4363C38.8604 25.3963 38.7104 25.6563 38.7104 25.4163C38.7104 25.3963 38.7304 25.3763 38.7504 25.3963L38.6904 25.3163C38.4404 25.3163 38.5504 25.6163 38.4204 25.7163C38.4804 25.7063 38.5204 25.6463 38.5404 25.7163L38.4204 25.8263L38.3804 25.7463L38.1904 25.8863L38.2904 25.9363C38.1704 25.9863 38.0204 25.8963 38.0404 26.0863C38.0604 26.1863 38.2104 26.0963 38.1604 26.2063C38.0004 26.2763 37.7704 26.3663 37.6204 26.4963C37.7204 26.5563 37.6804 26.5963 37.6604 26.6563L37.5804 26.5963C37.5404 26.8463 37.3704 26.5063 37.3104 26.7263L37.2704 26.6663L37.3904 26.8463C37.4104 27.1163 37.1704 26.7763 37.2304 27.1163C37.2704 27.0463 37.4204 27.2363 37.3204 27.2863L37.2704 27.2063C37.2504 27.2563 37.2704 27.3063 37.2204 27.3163C37.2004 27.2563 37.1304 27.2063 37.0904 27.2763L37.0404 27.1563L37.0604 27.3863C36.9004 27.4063 36.8704 27.6363 36.7404 27.5763C36.7404 27.5763 36.5204 27.7163 36.5904 27.8663C36.5604 27.7663 36.4304 27.8463 36.3804 27.7463C36.4104 27.8663 36.3404 28.0663 36.2004 28.0563V28.0363C35.9204 28.1763 35.9804 28.5063 35.7004 28.6063C35.7904 28.6763 35.6504 28.7363 35.7804 28.8063C35.7004 29.1063 35.2204 28.9663 35.4904 29.3463C35.4204 29.4563 35.3104 29.3863 35.2504 29.4163V29.3763C35.1204 29.5763 35.0804 29.6263 34.9604 29.7463C34.9304 29.8363 35.0804 29.9963 34.9404 30.0663C34.9104 29.9763 34.8804 30.0263 34.8404 30.0663C34.8604 30.0263 34.8404 30.0063 34.7504 30.0163C34.7604 30.0463 34.7604 30.0663 34.7604 30.0863C34.7604 30.0863 34.7504 30.0863 34.7404 30.0763C34.7004 30.1663 34.7304 30.1763 34.7704 30.1463C34.7704 30.1563 34.7904 30.1663 34.8204 30.1663C34.6704 30.1663 34.6404 30.3763 34.5204 30.2863C34.3504 30.5163 34.3204 30.7763 34.2004 30.9863C34.1304 30.9563 34.1204 30.8663 34.1404 30.7963L34.0404 30.9363C33.9604 30.8663 34.0604 30.8263 34.0804 30.7663C33.8104 30.7963 33.9204 31.1863 33.6504 31.2563L33.6804 31.3463H33.6604C33.6604 31.3463 33.7004 31.4563 33.6904 31.4963C33.6004 31.4563 33.5304 31.3463 33.4604 31.4363C33.3304 31.4363 33.3104 31.6663 33.2704 31.7863C33.3304 31.7463 33.3504 31.7963 33.3504 31.8463C33.3104 31.8963 33.2204 31.8463 33.2204 31.9163L33.1204 31.8363C33.2204 31.8963 33.1104 32.0363 33.1304 32.0863C33.0404 32.0463 33.1304 31.9663 33.0904 31.9063C32.9404 32.0863 33.0104 31.9963 32.8604 32.1763C32.8404 32.3363 32.9604 32.2363 33.0004 32.3563C32.9404 32.4563 32.9304 32.5963 32.7904 32.6363L32.9004 32.6863C32.8204 32.8963 32.7304 32.9863 32.5504 33.0063C32.1704 34.7663 33.2404 34.0863 33.2404 34.0863C33.8404 33.8063 33.8104 33.3463 34.2404 32.7563V32.7963Z" fill="#8E8E8E"/>
<path d="M35.5605 32.4762L35.6306 32.5062C35.6306 32.5062 35.6105 32.4662 35.5605 32.4762Z" fill="#8E8E8E"/>
<path d="M51.3496 29.2756C51.3496 29.2756 51.3496 29.2756 51.3596 29.2656C51.3596 29.2656 51.3496 29.2656 51.3496 29.2756Z" fill="#8E8E8E"/>
<path d="M38.2893 33.5254C38.2893 33.5254 38.2793 33.5254 38.2793 33.5454L38.2993 33.5254H38.2893Z" fill="#8E8E8E"/>
<path d="M35.0797 34.036C35.9297 33.926 36.1897 34.096 37.0397 33.826C37.4597 33.756 37.8897 33.626 38.2897 33.516C38.4497 33.316 38.8197 33.406 39.0197 33.226L39.1297 33.306C39.1997 33.246 39.2797 33.196 39.3697 33.226V33.256C39.4697 33.166 39.6097 33.176 39.6597 33.126V33.156L39.7997 33.116L39.7797 33.156C39.9697 33.036 40.1797 32.996 40.3697 32.986L40.3297 32.876C40.7497 32.926 40.8497 32.656 41.2397 32.736V32.766C41.6297 32.376 41.9897 32.826 42.3997 32.446C42.3497 32.496 42.4397 32.496 42.4397 32.526C42.6497 32.446 42.8697 32.386 42.8297 32.166C42.9897 32.136 42.9697 32.206 43.0097 32.296C42.9897 32.196 43.1197 32.126 43.2397 32.096L43.1897 32.146L43.5297 32.046L43.4197 31.876C43.6197 31.896 43.5097 32.096 43.6797 32.016L43.6497 31.866C43.9097 31.846 44.1097 32.046 44.3797 32.106C45.4197 31.966 46.4497 31.346 47.4597 31.426L47.5297 31.536C47.5797 31.696 47.7397 31.236 47.8097 31.386L47.9097 31.286C47.9097 31.286 48.0197 31.326 47.9697 31.376C48.0697 31.366 48.0697 31.336 48.1397 31.266L48.2697 31.346C48.6897 31.346 48.9997 31.076 49.4297 31.026C49.9897 31.136 50.9197 30.746 51.4497 30.516C52.1797 30.106 53.2297 30.596 53.9697 30.146C53.9997 30.166 54.0597 30.096 54.0497 30.076L54.7897 29.956C54.7897 29.956 58.3597 29.306 55.3797 28.456V28.416C54.9697 28.416 54.7097 28.436 54.4697 28.676C54.3797 28.456 54.1397 28.716 54.0297 28.666V28.646C53.8197 28.866 53.4997 28.606 53.2997 28.806C53.2997 28.786 53.2997 28.726 53.3497 28.706C53.1797 28.766 52.9597 28.866 52.9197 28.736C52.5197 28.856 51.9297 28.906 51.7097 29.176V29.136C51.5997 29.306 51.5297 29.196 51.3797 29.306C51.3697 29.286 51.3497 29.286 51.3497 29.276C51.2097 29.446 50.8797 29.396 50.7597 29.476L50.7297 29.386L50.4097 29.476H50.5397C50.5397 29.716 50.2597 29.366 50.0597 29.576C49.8297 29.586 49.7097 30.166 49.4597 30.096C49.3697 30.226 49.5197 29.896 49.3697 30.016C49.3397 29.896 49.4297 29.926 49.3697 29.826C49.2197 29.916 49.0797 29.756 48.8997 29.876L48.8697 29.776C48.6497 30.006 48.3597 29.746 48.2197 29.946C47.9697 30.076 47.9797 29.696 47.7397 29.946L47.6097 29.836C47.4897 29.836 47.5597 30.016 47.4097 29.976C47.4097 29.896 47.2297 29.946 47.2897 29.846C46.9697 29.776 46.7197 30.156 46.2797 30.016C46.2297 30.196 46.0097 30.136 45.9697 30.276C45.9497 30.206 45.5697 30.346 45.7597 30.146C45.7797 30.126 45.8097 30.126 45.8097 30.146V30.046C45.5597 29.906 45.4297 30.226 45.1997 30.246C45.2697 30.266 45.3597 30.246 45.3097 30.316L45.0997 30.346L45.1297 30.256H44.8097L44.8697 30.366C44.7097 30.346 44.6197 30.186 44.4797 30.366C44.4197 30.456 44.6497 30.476 44.4997 30.536C44.2897 30.506 43.9597 30.466 43.6997 30.486C43.7497 30.596 43.6797 30.606 43.6097 30.636L43.5797 30.536C43.3397 30.726 43.4397 30.346 43.1897 30.506V30.436L43.1697 30.656C42.9697 30.896 42.9997 30.476 42.7797 30.796C42.8797 30.756 42.8697 31.006 42.7297 30.986V30.886C42.6797 30.916 42.6597 30.966 42.6097 30.956C42.6397 30.896 42.6097 30.816 42.4997 30.856L42.5497 30.726L42.3797 30.936C42.1997 30.866 41.9797 31.046 41.8897 30.926C41.8897 30.926 41.5397 30.926 41.4897 31.086C41.5397 30.986 41.3497 30.986 41.3797 30.866C41.3097 30.986 41.0697 31.126 40.9497 31.036L40.9697 31.016C40.5697 30.986 40.3497 31.296 39.9797 31.236C40.0197 31.346 39.8297 31.316 39.8997 31.456C39.5797 31.666 39.1997 31.296 39.1597 31.766C38.9997 31.826 38.9497 31.696 38.8597 31.696L38.8897 31.666C38.5997 31.766 38.5097 31.786 38.2797 31.816C38.1797 31.886 38.1997 32.096 37.9897 32.086C38.0397 31.986 37.9597 32.026 37.8797 32.036C37.9297 32.016 37.9297 31.976 37.8197 31.946C37.8197 31.976 37.7897 31.996 37.7797 32.016C37.7797 32.016 37.7797 32.006 37.7797 31.996C37.6597 32.046 37.6897 32.076 37.7497 32.076C37.7497 32.086 37.7497 32.106 37.7797 32.126C37.6297 32.046 37.4197 32.206 37.3797 32.066C37.0097 32.176 36.7697 32.376 36.4697 32.496C36.4197 32.426 36.4797 32.346 36.5697 32.306L36.3497 32.376C36.3297 32.266 36.4697 32.286 36.5297 32.256C36.2297 32.136 36.0197 32.536 35.6797 32.446L35.6297 32.546H35.6097C35.6097 32.546 35.5597 32.656 35.5197 32.676C35.4597 32.596 35.4797 32.466 35.3297 32.496C35.1897 32.436 34.9897 32.606 34.8497 32.686C34.9397 32.686 34.9197 32.736 34.8897 32.776C34.8097 32.796 34.7497 32.716 34.6997 32.766L34.6697 32.646C34.7197 32.756 34.4897 32.816 34.4797 32.866C34.4197 32.786 34.5797 32.766 34.5897 32.686C34.2797 32.756 34.4397 32.726 34.1297 32.796C33.9797 32.926 34.1797 32.906 34.1297 33.026C33.9897 33.076 33.8697 33.196 33.6797 33.156L33.7497 33.256C33.4897 33.396 33.3297 33.416 33.1197 33.346C31.2697 34.646 32.9397 34.656 32.9397 34.656C33.7897 34.736 34.1397 34.336 35.0697 34.056L35.0797 34.036Z" fill="#8E8E8E"/>
<path d="M39.8613 62.4161L40.0113 62.4361C40.0113 62.4361 39.9613 62.4061 39.8613 62.4161Z" fill="#8E8E8E"/>
<path d="M55.9104 40.3777C55.9104 40.3777 55.9104 40.3577 55.9004 40.3477C55.9004 40.3677 55.9104 40.3777 55.9104 40.3777Z" fill="#8E8E8E"/>
<path d="M45.6101 62.8574C45.6101 62.8574 45.5901 62.8674 45.5801 62.8774L45.6201 62.8574H45.6101Z" fill="#8E8E8E"/>
<path d="M38.4504 64.1768C40.3404 63.8568 40.8704 63.9668 42.8004 63.4868C43.7304 63.3168 44.7104 63.0668 45.6104 62.8568C46.0104 62.6068 46.8004 62.6168 47.2804 62.3768L47.5004 62.4268C47.6704 62.3468 47.8604 62.2668 48.0504 62.2868V62.3168C48.2904 62.1968 48.6004 62.1768 48.7204 62.1168V62.1468L49.0304 62.0668L48.9804 62.1168C49.4204 61.9468 49.8904 61.8468 50.3104 61.7968L50.2504 61.6868C51.1604 61.6368 51.4404 61.3368 52.2704 61.3268V61.3568C53.2204 60.8568 53.9004 61.2368 54.8904 60.7468C54.7704 60.8068 54.9604 60.7968 54.9504 60.8268C55.1904 60.7668 55.4304 60.6968 55.6104 60.6268C55.7504 60.5568 56.0204 60.4468 55.9704 60.3368C56.5004 60.2368 56.4404 60.3168 56.5704 60.3768C56.5204 60.3068 56.7804 60.2068 57.0904 60.1268C57.0904 60.0268 57.0904 59.9368 57.0904 59.8368L57.1304 60.0668L57.1004 58.8168C57.0404 58.8968 56.9704 58.9668 56.9104 59.0268C56.9404 58.7368 56.9904 58.7168 57.0404 58.6968C57.0804 58.6768 57.1204 58.6468 57.0904 58.4468H56.9304C56.9604 57.8668 57.2004 57.5268 57.3104 56.9568C57.3804 54.5968 56.9804 52.0668 57.2504 49.8768L57.3704 49.7768C57.5404 49.7368 57.1204 49.1768 57.2704 49.0868L57.1904 48.8368C57.2204 48.7668 57.2504 48.6168 57.2904 48.7368C57.2904 48.4968 57.2704 48.4968 57.2204 48.3268L57.3304 48.0768C57.4104 47.1468 57.2104 46.3568 57.2504 45.3768C57.4704 44.1968 57.2704 41.9868 57.1504 40.7068C56.8904 38.9168 57.5804 36.8268 57.2804 34.9968C57.3004 34.9368 57.2504 34.7868 57.2304 34.7868L57.2504 33.1068C57.2504 33.1068 57.3204 24.9668 55.8904 31.1468L55.8504 31.1068C55.7604 32.0268 55.7404 32.6068 55.9304 33.2368C55.7004 33.3368 55.9104 33.9868 55.8304 34.2068L55.8104 34.1868C55.9904 34.7468 55.6604 35.3468 55.8204 35.8868C55.8004 35.8668 55.7404 35.8568 55.7304 35.7268C55.7604 36.1168 55.8104 36.6568 55.6804 36.6868C55.7204 37.6268 55.6504 38.9368 55.8704 39.5468L55.8304 39.5068C55.9704 39.8468 55.8504 39.9468 55.9204 40.3368C55.9004 40.3568 55.8904 40.3868 55.8904 40.3768C56.0304 40.7468 55.9104 41.4668 55.9704 41.7668L55.8804 41.7868L55.9004 42.5368L55.9204 42.2568C56.1704 42.3568 55.7704 42.8168 55.9204 43.3568C55.8904 43.8668 56.4304 44.3868 56.3104 44.9068C56.4204 45.1568 56.1204 44.6868 56.2104 45.0568C56.0804 45.0668 56.1304 44.8868 56.0304 44.9768C56.0904 45.3468 55.9004 45.5768 55.9904 46.0368L55.8904 46.0568C56.0704 46.6468 55.7604 47.1768 55.9304 47.5668C56.0104 48.1768 55.6304 47.9768 55.8304 48.6068L55.7004 48.8568C55.6804 49.1268 55.8704 49.0468 55.8004 49.3568C55.7204 49.3368 55.7304 49.7368 55.6504 49.5568C55.5204 50.2368 55.8404 50.9368 55.6104 51.8368C55.7804 52.0268 55.6804 52.4868 55.8004 52.6268C55.7304 52.6468 55.7904 53.5368 55.6304 53.0268C55.6204 52.9868 55.6204 52.9068 55.6504 52.9068L55.5504 52.8468C55.3704 53.3568 55.6504 53.7768 55.6204 54.2868C55.6504 54.1368 55.6404 53.9368 55.7104 54.0668V54.5368L55.6104 54.4368L55.5604 55.1368L55.6604 55.0368C55.6104 55.3768 55.4304 55.4968 55.5804 55.8868C55.6604 56.0668 55.7204 55.5568 55.7504 55.9268C55.6804 56.3868 55.5804 57.0768 55.5504 57.6568C55.6604 57.6068 55.6604 57.7568 55.6804 57.9268L55.5804 57.9468C55.7204 58.5468 55.3604 58.2168 55.4704 58.7468C55.4504 58.7468 55.4204 58.7468 55.4004 58.7468C55.4704 58.7468 55.5404 58.7568 55.6104 58.7868C55.7804 58.9668 55.4904 58.8068 55.6104 58.9368C55.6104 58.9568 55.6204 58.9768 55.6304 59.0068C55.6804 58.9768 55.8804 59.1768 55.7004 59.1768C55.6904 59.1468 55.6804 59.1168 55.6604 59.0868C55.6204 59.1168 55.6204 59.1568 55.5704 59.1468C55.5804 59.0868 55.5204 59.0168 55.4704 59.0468C55.4704 59.0068 55.4704 58.9668 55.4704 58.9268C55.4704 58.9568 55.4704 58.9868 55.4504 59.0168L55.2404 59.1468C54.8704 59.1168 54.3404 59.3568 54.1704 59.2468C54.1704 59.2468 53.4004 59.3368 53.2604 59.5168C53.3904 59.3968 52.9704 59.4468 53.0704 59.3168C52.9004 59.4568 52.3404 59.6568 52.0804 59.5968L52.1204 59.5768C51.2404 59.6368 50.6904 60.0268 49.9004 60.0468C49.9604 60.1568 49.5404 60.1768 49.6704 60.2968C48.9104 60.5968 48.1604 60.2968 47.9704 60.7968C47.6104 60.8968 47.5204 60.7768 47.3304 60.7968L47.4104 60.7568C46.7404 60.9268 46.5504 60.9768 46.0404 61.0668C45.8004 61.1568 45.8004 61.3768 45.3404 61.4168C45.4704 61.3068 45.2904 61.3568 45.1204 61.3868C45.2204 61.3568 45.2504 61.3168 45.0204 61.3068C44.9904 61.3368 44.9504 61.3668 44.9104 61.3868C44.9104 61.3868 44.9004 61.3868 44.9004 61.3668C44.6304 61.4568 44.6804 61.4668 44.8104 61.4568C44.8104 61.4668 44.8204 61.4868 44.8604 61.4968C44.5504 61.4468 44.0504 61.6668 43.9904 61.5368C43.1504 61.7368 42.5804 62.0068 41.8904 62.2068C41.8004 62.1468 41.9504 62.0468 42.1504 61.9868L41.6604 62.1168C41.6404 62.0068 41.9304 61.9968 42.0804 61.9468C41.4504 61.8968 40.8904 62.3668 40.1704 62.3468L40.0404 62.4568H40.0004C40.0004 62.4568 39.8704 62.5868 39.7704 62.6168C39.6504 62.5468 39.7304 62.4068 39.3904 62.4768C39.1004 62.4468 38.6304 62.6768 38.2804 62.7968C38.4804 62.7768 38.4204 62.8368 38.3504 62.8868C38.1804 62.9268 38.0604 62.8568 37.9404 62.9168L37.9004 62.7968C37.9904 62.8968 37.4804 63.0168 37.4204 63.0768C37.3004 63.0068 37.6704 62.9468 37.7004 62.8668C37.0104 63.0168 37.3604 62.9468 36.6704 63.0968C36.3204 63.2668 36.7604 63.1968 36.6104 63.3468C36.2904 63.4368 35.9904 63.5868 35.6004 63.5868L35.7404 63.6768C35.1504 63.8868 34.7804 63.9468 34.3404 63.9168C29.9704 65.7268 33.6304 65.3268 33.6304 65.3268C35.4704 65.2068 36.3304 64.7068 38.4404 64.1868L38.4504 64.1768Z" fill="#8E8E8E"/>
<path d="M31.6191 60.1562L31.6691 60.0762C31.6691 60.0762 31.6291 60.0962 31.6191 60.1562Z" fill="#8E8E8E"/>
<path d="M31.6096 40.1352C31.6096 40.1352 31.6096 40.1252 31.5996 40.1152C31.5996 40.1252 31.5996 40.1352 31.6096 40.1352Z" fill="#8E8E8E"/>
<path d="M33.1895 57.0859C33.1895 57.0859 33.1894 57.1059 33.1994 57.1059V57.0859H33.1895Z" fill="#8E8E8E"/>
<path d="M33.0598 61.1158C33.1198 60.0558 33.3298 59.7758 33.2498 58.6758C33.2698 58.1558 33.2198 57.5958 33.1898 57.0858C33.0198 56.8458 33.1899 56.4158 33.0499 56.1258L33.1499 56.0158C33.0999 55.9158 33.0698 55.7958 33.1198 55.7058H33.1499C33.0799 55.5658 33.1198 55.3958 33.0798 55.3258H33.1098L33.0999 55.1558L33.1398 55.1858C33.0598 54.9258 33.0598 54.6658 33.0898 54.4258L32.9698 54.4458C33.0998 53.9458 32.8598 53.7658 33.0098 53.3058H33.0399C32.7299 52.7358 33.2499 52.4058 32.9599 51.8158C32.9999 51.8858 33.0199 51.7858 33.0499 51.7858C33.0199 51.5158 32.9999 51.2258 32.7699 51.2158C32.7699 51.0158 32.8399 51.0558 32.9299 51.0258C32.8299 51.0258 32.7898 50.8558 32.7798 50.6958L32.8199 50.7658L32.7899 50.3258L32.5999 50.4158C32.6499 50.1858 32.8298 50.3558 32.7798 50.1358H32.6198C32.6498 49.8158 32.8898 49.6258 32.9998 49.3058C33.0698 47.9958 32.6698 46.5958 32.9398 45.3858L33.0598 45.3358C33.2298 45.3158 32.8099 45.0058 32.9599 44.9558L32.8799 44.8158C32.8799 44.8158 32.9398 44.6958 32.9798 44.7658C32.9798 44.6358 32.9599 44.6358 32.9099 44.5358L33.0199 44.3958C33.0999 43.8758 32.8998 43.4458 32.9398 42.8958C33.1598 42.2458 32.9598 41.0158 32.8398 40.3158C32.5798 39.3258 33.2698 38.1658 32.9698 37.1458C32.9898 37.1158 32.9398 37.0258 32.9198 37.0258L32.9398 36.0958C32.9398 36.0958 33.0098 31.5858 31.5798 35.0158L31.5399 34.9958C31.4499 35.5058 31.4298 35.8258 31.6198 36.1758C31.3898 36.2358 31.5999 36.5958 31.5199 36.7158H31.4998C31.6798 37.0158 31.3498 37.3458 31.5098 37.6458C31.4898 37.6358 31.4298 37.6258 31.4198 37.5558C31.4498 37.7758 31.4998 38.0758 31.3698 38.0858C31.4098 38.6058 31.3398 39.3358 31.5598 39.6658L31.5199 39.6458C31.6599 39.8358 31.5398 39.8958 31.6098 40.1058C31.5898 40.1158 31.5798 40.1358 31.5798 40.1258C31.7198 40.3358 31.5999 40.7358 31.6599 40.8958H31.5699L31.5898 41.3158L31.6098 41.1658C31.8498 41.2158 31.4598 41.4758 31.6098 41.7758C31.5798 42.0558 32.1198 42.3458 31.9998 42.6358C32.1098 42.7758 31.8099 42.5158 31.8999 42.7258C31.7699 42.7258 31.8198 42.6258 31.7198 42.6858C31.7798 42.8858 31.5899 43.0158 31.6799 43.2758H31.5798C31.7598 43.6158 31.4498 43.9058 31.6198 44.1258C31.6998 44.4658 31.3199 44.3558 31.5199 44.7058L31.3898 44.8458C31.3698 44.9958 31.5599 44.9558 31.4899 45.1158C31.4099 45.1058 31.4198 45.3258 31.3398 45.2258C31.2098 45.6058 31.5299 45.9958 31.2999 46.4958C31.4599 46.6058 31.3699 46.8558 31.4899 46.9358C31.4199 46.9458 31.4799 47.4358 31.3199 47.1558C31.3099 47.1358 31.3098 47.0858 31.3398 47.0958L31.2399 47.0658C31.0599 47.3458 31.3398 47.5858 31.3098 47.8658C31.3398 47.7858 31.3299 47.6758 31.3999 47.7458V48.0058L31.2999 47.9558L31.2498 48.3458L31.3499 48.2958C31.2999 48.4858 31.1199 48.5558 31.2699 48.7658C31.3499 48.8658 31.4098 48.5858 31.4398 48.7858C31.3698 49.0358 31.2699 49.4258 31.2399 49.7458C31.3499 49.7158 31.3498 49.8058 31.3698 49.8958H31.2699C31.4099 50.2458 31.0499 50.0358 31.1599 50.3758L31.0898 50.3458L31.2999 50.4358C31.4999 50.7458 31.0898 50.6058 31.3598 50.9458C31.3398 50.8058 31.5799 50.8858 31.5399 51.0458L31.4398 51.0058C31.4598 51.0958 31.4998 51.1258 31.4798 51.1958C31.4298 51.1358 31.3398 51.1658 31.3598 51.3058L31.2399 51.2158L31.4198 51.4758C31.3198 51.6758 31.4498 51.9858 31.3098 52.0658C31.3098 52.0658 31.2398 52.4958 31.3898 52.5858C31.2998 52.4958 31.2599 52.7358 31.1499 52.6658C31.2499 52.7758 31.3398 53.1058 31.2298 53.2358V53.2158C31.0998 53.6958 31.3698 54.0458 31.2298 54.4758C31.3498 54.4558 31.2799 54.6858 31.4299 54.6258C31.5799 55.0758 31.1298 55.4458 31.5898 55.6058C31.6098 55.8058 31.4799 55.8458 31.4599 55.9558L31.4398 55.9058C31.4798 56.2858 31.4798 56.3958 31.4698 56.6858C31.5098 56.8258 31.7299 56.8458 31.6799 57.1058C31.5999 57.0258 31.6098 57.1258 31.6098 57.2258C31.5998 57.1658 31.5698 57.1458 31.5098 57.2758C31.5398 57.2958 31.5499 57.3158 31.5699 57.3458C31.5699 57.3458 31.5599 57.3458 31.5499 57.3458C31.5799 57.5058 31.6098 57.4758 31.6198 57.4058C31.6298 57.4058 31.6498 57.4058 31.6698 57.3758C31.5598 57.5358 31.6698 57.8358 31.5298 57.8558C31.5598 58.3358 31.7099 58.6758 31.7699 59.0658C31.6999 59.1058 31.6299 59.0158 31.5999 58.9058L31.6299 59.1858C31.5199 59.1858 31.5699 59.0258 31.5499 58.9358C31.3799 59.2658 31.7198 59.6258 31.5598 60.0158L31.6398 60.0958V60.1158C31.6398 60.1158 31.7298 60.2058 31.7498 60.2658C31.6598 60.3258 31.5299 60.2658 31.5399 60.4558C31.4499 60.6058 31.5898 60.8958 31.6398 61.0958C31.6598 60.9858 31.7099 61.0258 31.7399 61.0658C31.7399 61.1658 31.6498 61.2158 31.6898 61.2958H31.5598C31.6798 61.2658 31.6899 61.5558 31.7399 61.5958C31.6499 61.6558 31.6598 61.4458 31.5898 61.4158C31.5998 61.8058 31.5898 61.6058 31.6098 61.9958C31.6998 62.2058 31.7298 61.9558 31.8398 62.0558C31.8598 62.2358 31.9499 62.4158 31.8799 62.6258L31.9899 62.5558C32.0799 62.9058 32.0598 63.1058 31.9498 63.3358C32.8598 65.9058 33.1898 63.8758 33.1898 63.8758C33.4398 62.8658 33.1099 62.3458 33.0199 61.1358L33.0598 61.1158Z" fill="#8E8E8E"/>
<path d="M16.0781 23.5655H16.1481C16.1481 23.5655 16.1081 23.5455 16.0781 23.5655Z" fill="#8E8E8E"/>
<path d="M16.7391 24.9662C17.2191 24.5362 17.4891 24.5562 17.8791 24.0062C18.1091 23.7862 18.2991 23.5062 18.4891 23.2562C18.4691 23.0362 18.759 22.9562 18.779 22.7362L18.8991 22.7562C18.8991 22.6762 18.929 22.6062 19.009 22.5962L19.029 22.6163C19.029 22.5063 19.139 22.4562 19.139 22.3962L19.1591 22.4162L19.219 22.3262L19.2391 22.3663C19.2891 22.1962 19.3891 22.0762 19.5191 21.9962L19.4291 21.9262C19.7291 21.7962 19.6291 21.5462 19.9291 21.4462L19.949 21.4662C19.949 21.0062 20.469 21.2062 20.499 20.7462C20.499 20.8062 20.559 20.7762 20.579 20.7963C20.669 20.6562 20.769 20.5162 20.609 20.3562C20.689 20.2662 20.7291 20.3362 20.7991 20.3762C20.7291 20.3062 20.7691 20.2062 20.8191 20.1362V20.1962L20.979 19.9763L20.809 19.8862C20.949 19.8162 20.999 20.0162 21.059 19.8862L20.9391 19.7862C21.0991 19.6662 21.349 19.7362 21.559 19.6762C22.139 19.1362 22.4291 18.2462 23.1291 17.8962L23.2391 17.9562C23.3791 18.0662 23.189 17.6363 23.3291 17.7263V17.6062C23.3291 17.6062 23.4291 17.5963 23.4291 17.6563C23.4891 17.6063 23.469 17.5862 23.469 17.5062H23.609C23.879 17.3462 23.9091 17.0063 24.1591 16.7963C24.5891 16.6563 24.9391 15.9762 25.1491 15.5762C25.3691 14.9562 26.3491 14.9062 26.5491 14.2562C26.5791 14.2562 26.579 14.1862 26.559 14.1662L26.9591 13.7663C26.9591 13.7663 28.8591 11.8062 26.4091 12.3662L26.389 12.3262C26.109 12.4962 25.9691 12.6163 25.9591 12.9063C25.7691 12.7763 25.769 13.0762 25.669 13.0762V13.0562C25.669 13.3162 25.289 13.2462 25.279 13.4862C25.279 13.4662 25.229 13.4262 25.249 13.3862C25.179 13.5062 25.0991 13.6663 24.9891 13.5863C24.7991 13.8463 24.459 14.1262 24.479 14.4162L24.4591 14.3762C24.4891 14.5562 24.369 14.4962 24.339 14.6462C24.319 14.6462 24.309 14.6462 24.309 14.6362C24.329 14.8262 24.0791 14.9162 24.0491 15.0362L23.979 14.9763L23.8291 15.1762L23.9091 15.1163C24.0691 15.3063 23.6691 15.1462 23.6591 15.3962C23.5191 15.4962 23.799 15.9963 23.589 16.0463C23.619 16.1863 23.499 15.8663 23.479 16.0163C23.379 15.9363 23.459 15.9162 23.359 15.8762C23.319 16.0062 23.129 15.9362 23.089 16.1062L23.009 16.0463C23.009 16.3163 22.659 16.2362 22.699 16.4462C22.619 16.6562 22.389 16.3462 22.389 16.6362L22.229 16.6062C22.149 16.6562 22.3091 16.7663 22.1891 16.7963C22.1291 16.7363 22.049 16.8462 22.029 16.7462C21.779 16.8262 21.849 17.2162 21.479 17.2862C21.559 17.4462 21.3791 17.4862 21.4391 17.6062C21.3791 17.5662 21.229 17.8263 21.229 17.5863C21.229 17.5663 21.2491 17.5462 21.2691 17.5662L21.2091 17.4862C20.9591 17.4862 21.0691 17.7862 20.9391 17.8862C20.9991 17.8762 21.039 17.8162 21.059 17.8862L20.9391 17.9962L20.8991 17.9162L20.7091 18.0562L20.809 18.1062C20.689 18.1562 20.539 18.0662 20.559 18.2562C20.579 18.3562 20.7291 18.2662 20.6791 18.3762C20.5191 18.4462 20.289 18.5362 20.139 18.6662C20.239 18.7262 20.1991 18.7662 20.1791 18.8262L20.0991 18.7663C20.0591 19.0163 19.889 18.6762 19.829 18.8962L19.7891 18.8363L19.9091 19.0163C19.9291 19.2863 19.689 18.9462 19.749 19.2862C19.789 19.2162 19.939 19.4062 19.839 19.4562L19.7891 19.3762C19.7691 19.4262 19.7891 19.4762 19.7391 19.4862C19.7191 19.4262 19.649 19.3762 19.609 19.4462L19.559 19.3262L19.579 19.5562C19.419 19.5762 19.389 19.8062 19.259 19.7462C19.259 19.7462 19.039 19.8862 19.109 20.0362C19.079 19.9362 18.9591 20.0162 18.8991 19.9162C18.9291 20.0362 18.859 20.2363 18.729 20.2263V20.2062C18.449 20.3462 18.509 20.6762 18.229 20.7762C18.319 20.8462 18.179 20.9063 18.309 20.9763C18.229 21.2763 17.7491 21.1363 18.0191 21.5163C17.9491 21.6263 17.839 21.5563 17.779 21.5863V21.5463C17.649 21.7463 17.6091 21.7962 17.4891 21.9162C17.4591 22.0062 17.609 22.1662 17.469 22.2462C17.439 22.1562 17.409 22.2062 17.369 22.2462C17.389 22.2062 17.369 22.1762 17.279 22.1962C17.289 22.2262 17.2891 22.2463 17.2891 22.2663C17.2891 22.2663 17.2791 22.2662 17.2691 22.2562C17.2291 22.3462 17.2591 22.3562 17.2991 22.3262C17.2991 22.3362 17.3191 22.3462 17.3491 22.3462C17.1991 22.3462 17.1691 22.5562 17.0491 22.4662C16.8791 22.6962 16.849 22.9562 16.729 23.1662C16.659 23.1362 16.649 23.0463 16.669 22.9763L16.5691 23.1163C16.4891 23.0463 16.589 23.0062 16.609 22.9462C16.349 22.9762 16.4491 23.3663 16.1791 23.4362L16.2091 23.5262H16.1891C16.1891 23.5262 16.229 23.6362 16.219 23.6762C16.129 23.6362 16.0591 23.5262 15.9891 23.6163C15.8591 23.6163 15.8391 23.8362 15.7991 23.9662C15.8591 23.9262 15.8791 23.9762 15.8791 24.0262C15.8391 24.0762 15.749 24.0262 15.749 24.0962L15.6491 24.0163C15.7491 24.0763 15.6391 24.2163 15.6591 24.2663C15.5691 24.2263 15.659 24.1463 15.619 24.0863L15.389 24.3562C15.369 24.5162 15.489 24.4162 15.529 24.5362C15.469 24.6362 15.4591 24.7762 15.3191 24.8162L15.4291 24.8663C15.3491 25.0763 15.259 25.1662 15.079 25.1862C14.689 26.9462 15.7691 26.2663 15.7691 26.2663C16.3691 25.9863 16.3391 25.5262 16.7691 24.9362L16.7391 24.9662Z" fill="#8E8E8E"/>
<path d="M17.4395 26.498L17.4695 26.558C17.4695 26.558 17.4695 26.518 17.4395 26.498Z" fill="#8E8E8E"/>
<path d="M16.3002 27.5673C16.8802 27.8873 16.9501 28.1573 17.6101 28.3573C17.9001 28.5073 18.2402 28.6073 18.5402 28.7073C18.7502 28.6173 18.9201 28.8773 19.1401 28.8173L19.1602 28.9373C19.2402 28.9173 19.3202 28.9173 19.3502 28.9873V29.0073C19.4502 28.9773 19.5301 29.0573 19.5802 29.0473V29.0673L19.6701 29.0973L19.6401 29.1273C19.8201 29.1273 19.9701 29.1873 20.0901 29.2773L20.1302 29.1673C20.3602 29.4173 20.5601 29.2373 20.7601 29.4973V29.5173C21.1901 29.3873 21.1702 29.9373 21.6302 29.8173C21.5702 29.8273 21.6301 29.8773 21.6101 29.9073C21.7801 29.9473 21.9502 30.0073 22.0402 29.7973C22.1502 29.8473 22.1002 29.9073 22.0802 29.9873C22.1202 29.8973 22.2302 29.8973 22.3202 29.9373L22.2601 29.9573L22.5301 30.0373L22.5601 29.8473C22.6701 29.9573 22.5002 30.0773 22.6502 30.0873L22.7102 29.9473C22.8802 30.0573 22.8902 30.3273 23.0202 30.5073C23.7302 30.8973 24.6902 30.8973 25.2702 31.4573L25.2501 31.5773C25.1901 31.7373 25.5401 31.4273 25.5101 31.5773L25.6201 31.5373C25.6201 31.5373 25.6601 31.6273 25.6101 31.6473C25.6801 31.6873 25.6902 31.6573 25.7702 31.6473L25.8101 31.7773C26.0701 31.9873 26.4002 31.9073 26.6902 32.0873C26.9701 32.4473 27.7501 32.5773 28.2001 32.6573C28.8701 32.6773 29.2502 33.5973 29.9402 33.5873C29.9402 33.6173 30.0201 33.5873 30.0301 33.5673L30.5502 33.8273C30.5502 33.8273 33.0902 35.0373 31.7201 32.8673L31.7501 32.8373C31.5001 32.6273 31.3202 32.5273 31.0502 32.6073C31.1102 32.3873 30.8201 32.4773 30.7801 32.3773H30.7902C30.5402 32.4473 30.4901 32.0673 30.2501 32.1373C30.2601 32.1273 30.2901 32.0673 30.3301 32.0773C30.1901 32.0473 30.0002 32.0173 30.0502 31.8973C29.7402 31.7973 29.3502 31.5573 29.0702 31.6673L29.1002 31.6373C28.9302 31.7173 28.9502 31.5973 28.8002 31.6073C28.8002 31.5873 28.8002 31.5773 28.8002 31.5673C28.6202 31.6473 28.4501 31.4373 28.3301 31.4473L28.3601 31.3673L28.1201 31.2773L28.2001 31.3373C28.0701 31.5473 28.0902 31.1173 27.8502 31.1873C27.7002 31.0873 27.3201 31.5073 27.2001 31.3273C27.0701 31.3973 27.3501 31.1873 27.2001 31.2173C27.2501 31.0973 27.2902 31.1673 27.3002 31.0673C27.1602 31.0673 27.1602 30.8673 26.9902 30.8773L27.0202 30.7873C26.7602 30.8673 26.7201 30.5073 26.5301 30.6173C26.3001 30.6073 26.5302 30.2873 26.2402 30.3773L26.2201 30.2173C26.1401 30.1573 26.0902 30.3373 26.0202 30.2373C26.0602 30.1673 25.9302 30.1173 26.0202 30.0773C25.8602 29.8573 25.5102 30.0573 25.3202 29.7273C25.1902 29.8473 25.0902 29.6973 24.9902 29.7873C25.0102 29.7173 24.7102 29.6473 24.9302 29.5773C24.9502 29.5773 24.9702 29.5773 24.9602 29.6073L25.0202 29.5273C24.9302 29.2873 24.6902 29.4873 24.5402 29.3873C24.5702 29.4373 24.6402 29.4573 24.5702 29.4973L24.4302 29.4173L24.4902 29.3573L24.2902 29.2173V29.3273C24.1902 29.2273 24.2302 29.0573 24.0402 29.1373C23.9502 29.1873 24.0902 29.3073 23.9602 29.2873C23.8402 29.1573 23.6701 28.9673 23.5001 28.8573C23.4701 28.9673 23.4201 28.9473 23.3601 28.9373L23.3901 28.8473C23.1401 28.8873 23.4101 28.6173 23.1701 28.6273L23.2201 28.5673L23.0801 28.7373C22.8201 28.8373 23.0702 28.5073 22.7702 28.6673C22.8502 28.6873 22.7201 28.8873 22.6401 28.7973L22.7001 28.7173C22.6401 28.7173 22.6101 28.7373 22.5801 28.7173C22.6301 28.6873 22.6502 28.5973 22.5702 28.5773L22.6701 28.4873L22.4501 28.5873C22.3801 28.4473 22.1502 28.4773 22.1602 28.3373C22.1602 28.3373 21.9402 28.1673 21.8302 28.2773C21.9202 28.2173 21.8002 28.1273 21.8802 28.0373C21.7702 28.1073 21.5501 28.0973 21.5301 27.9673H21.5502C21.3202 27.7373 21.0202 27.8973 20.8302 27.6573C20.7902 27.7673 20.6902 27.6573 20.6602 27.7973C20.3502 27.8173 20.3202 27.3173 20.0402 27.6873C19.9102 27.6573 19.9502 27.5273 19.9002 27.4773H19.9402C19.7102 27.4073 19.6402 27.3773 19.4902 27.2973C19.3902 27.2973 19.2901 27.4873 19.1701 27.3773C19.2501 27.3173 19.1902 27.3073 19.1302 27.2873C19.1702 27.2873 19.1902 27.2673 19.1502 27.1873C19.1302 27.2073 19.1101 27.2173 19.0901 27.2173C19.0901 27.2173 19.0901 27.2073 19.0901 27.1973C18.9901 27.1873 18.9901 27.2173 19.0301 27.2473C19.0301 27.2573 19.0201 27.2773 19.0301 27.2973C18.9801 27.1573 18.7701 27.1873 18.8101 27.0473C18.5301 26.9573 18.2702 27.0073 18.0202 26.9573C18.0202 26.8773 18.1002 26.8373 18.1802 26.8473L18.0101 26.7973C18.0601 26.6973 18.1302 26.7773 18.1902 26.7873C18.0702 26.5473 17.7302 26.7673 17.5702 26.5273L17.4902 26.5873V26.5673C17.4902 26.5673 17.3902 26.6373 17.3502 26.6373C17.3502 26.5373 17.4402 26.4373 17.3302 26.3973C17.2802 26.2773 17.0602 26.3273 16.9302 26.3173C16.9902 26.3573 16.9402 26.3973 16.9002 26.4173C16.8402 26.3973 16.8502 26.2973 16.7902 26.3173L16.8401 26.1973C16.8101 26.3173 16.6402 26.2473 16.6002 26.2873C16.6002 26.1873 16.7201 26.2473 16.7601 26.1973C16.5301 26.1073 16.6501 26.1573 16.4201 26.0673C16.2601 26.0973 16.3902 26.1873 16.2902 26.2573C16.1802 26.2373 16.0401 26.2673 15.9501 26.1473V26.2673C15.7101 26.2673 15.6001 26.1973 15.5101 26.0273C13.6801 26.2073 14.6902 27.0273 14.6902 27.0273C15.1602 27.5073 15.5901 27.3473 16.3101 27.5673H16.3002Z" fill="#8E8E8E"/>
<path d="M15.2902 33.0371L15.2402 33.1671C15.2402 33.1671 15.2802 33.1371 15.2902 33.0371Z" fill="#8E8E8E"/>
<path d="M13.719 38.0263C13.719 38.0263 13.719 37.9963 13.709 37.9863V38.0263H13.719Z" fill="#8E8E8E"/>
<path d="M13.8497 31.477C13.7897 33.197 13.5797 33.647 13.6597 35.427C13.6397 36.277 13.6897 37.187 13.7197 38.017C13.8897 38.407 13.7197 39.107 13.8597 39.577L13.7597 39.757C13.8097 39.917 13.8397 40.107 13.7897 40.267H13.7597C13.8297 40.497 13.7897 40.767 13.8297 40.887H13.7997L13.8097 41.167L13.7697 41.117C13.8497 41.537 13.8497 41.967 13.8197 42.347L13.9397 42.317C13.8097 43.127 14.0497 43.427 13.8997 44.157H13.8697C14.1797 45.077 13.6597 45.617 13.9497 46.567C13.9097 46.447 13.8897 46.617 13.8597 46.607C13.8897 47.047 13.9097 47.517 14.1397 47.527C14.1397 47.847 14.0697 47.787 13.9797 47.827C14.0797 47.827 14.1197 48.107 14.1297 48.357L14.0897 48.237L14.1197 48.957L14.3097 48.817C14.2597 49.197 14.0797 48.917 14.1297 49.277H14.2897C14.2597 49.797 14.0197 50.107 13.9097 50.617C13.8797 51.627 13.9497 52.677 14.0097 53.707C14.0397 54.227 14.0597 54.737 14.0697 55.237C14.0697 55.487 14.0697 55.737 14.0597 55.987C14.0397 56.367 14.0297 56.757 14.0097 57.177C14.1297 57.247 14.2597 57.317 14.3897 57.377L14.4397 57.527C14.4097 57.607 14.6897 57.667 14.9397 57.707C15.1697 57.737 15.2797 57.707 15.2997 57.807L15.5397 57.827C15.5897 57.877 15.6997 57.967 15.5797 57.957C15.7697 58.047 15.7897 58.027 15.9497 58.037L16.1097 58.227C16.8397 58.647 17.5697 58.747 18.3597 59.147C19.2397 59.777 21.1297 60.407 22.2297 60.767C23.8097 61.187 25.2397 62.577 26.8597 62.987C26.8997 63.027 27.0497 63.037 27.0597 63.017L28.4297 63.657C28.4297 63.657 35.0897 66.707 30.5897 63.137L30.6397 63.117C29.9197 62.697 29.4597 62.467 28.8597 62.407C28.8697 62.157 28.2497 62.107 28.0997 61.957H28.1197C27.5897 61.907 27.2297 61.387 26.7197 61.337C26.7397 61.337 26.7797 61.277 26.8797 61.317C26.5397 61.197 26.0797 61.047 26.1097 60.917C25.3197 60.607 24.2697 60.067 23.6897 60.037L23.7397 60.017C23.3997 60.017 23.3697 59.877 23.0197 59.797C23.0097 59.777 22.9897 59.757 22.9997 59.747C22.6297 59.747 22.0897 59.367 21.8197 59.307L21.8397 59.217L21.2197 58.967L21.4397 59.087C21.2597 59.277 21.0397 58.737 20.5297 58.687C20.1297 58.477 19.4797 58.777 19.0997 58.477C18.8497 58.487 19.3597 58.387 19.0097 58.327C19.0497 58.207 19.1897 58.327 19.1497 58.187C18.8197 58.107 18.7097 57.847 18.2997 57.757L18.3297 57.657C17.7697 57.607 17.4697 57.127 17.0697 57.137C16.5397 56.987 16.8597 56.717 16.2497 56.657L16.0997 56.447C15.8897 56.327 15.8697 56.527 15.6497 56.357C15.6497 56.267 15.5797 56.247 15.6497 56.197C15.6297 56.147 15.6097 56.137 15.5597 56.127C15.5397 56.087 15.5097 56.047 15.4897 55.977C15.4797 55.727 15.4897 55.467 15.5697 55.177C15.3997 54.997 15.4997 54.597 15.3797 54.467C15.4497 54.447 15.3897 53.657 15.5497 54.107C15.5597 54.147 15.5597 54.217 15.5297 54.207L15.6297 54.257C15.8097 53.797 15.5297 53.417 15.5597 52.967C15.5297 53.097 15.5397 53.277 15.4697 53.157V52.737L15.5697 52.827L15.6197 52.197L15.5197 52.287C15.5697 51.977 15.7497 51.867 15.5997 51.517C15.5197 51.357 15.4597 51.807 15.4297 51.487C15.4997 51.077 15.5997 50.457 15.6297 49.927C15.5197 49.977 15.5197 49.837 15.4997 49.687L15.5997 49.667C15.4597 49.107 15.8197 49.457 15.7097 48.907L15.7797 48.957L15.5697 48.807C15.3697 48.307 15.7797 48.537 15.5097 47.977C15.5297 48.197 15.2897 48.077 15.3297 47.807L15.4297 47.877C15.4097 47.727 15.3697 47.677 15.3897 47.577C15.4397 47.667 15.5297 47.627 15.5097 47.407L15.6297 47.557L15.4497 47.137C15.5497 46.817 15.4197 46.307 15.5597 46.177C15.5597 46.177 15.6297 45.487 15.4797 45.327C15.5697 45.467 15.6097 45.087 15.7197 45.197C15.6197 45.017 15.5297 44.487 15.6397 44.277V44.317C15.7697 43.537 15.4997 42.977 15.6397 42.277C15.5197 42.307 15.5897 41.937 15.4397 42.027C15.2897 41.297 15.7397 40.697 15.2797 40.437C15.2597 40.107 15.3897 40.047 15.4097 39.877L15.4297 39.957C15.3897 39.337 15.3897 39.157 15.3997 38.697C15.3597 38.467 15.1397 38.427 15.1897 38.017C15.2697 38.147 15.2597 37.977 15.2597 37.827C15.2697 37.927 15.2997 37.957 15.3597 37.757C15.3297 37.727 15.3197 37.687 15.2997 37.647C15.2997 37.647 15.3097 37.647 15.3197 37.647C15.2897 37.387 15.2597 37.437 15.2497 37.557C15.2397 37.557 15.2197 37.557 15.1997 37.597C15.3097 37.327 15.1997 36.857 15.3397 36.817C15.3097 36.047 15.1597 35.487 15.0997 34.847C15.1697 34.777 15.2397 34.927 15.2697 35.107L15.2397 34.647C15.3497 34.647 15.2997 34.907 15.3197 35.047C15.4897 34.507 15.1497 33.927 15.3097 33.287L15.2297 33.157V33.117C15.2297 33.117 15.1397 32.977 15.1197 32.877C15.2097 32.787 15.3397 32.877 15.3297 32.567C15.4197 32.317 15.2797 31.857 15.2297 31.527C15.2097 31.707 15.1597 31.647 15.1297 31.567C15.1297 31.407 15.2197 31.317 15.1797 31.197L15.3097 31.177C15.1897 31.237 15.1797 30.767 15.1297 30.707C15.2197 30.617 15.2097 30.947 15.2797 30.987C15.2697 30.357 15.2797 30.667 15.2597 30.037C15.1697 29.697 15.1397 30.097 15.0297 29.937C15.0097 29.637 14.9197 29.347 14.9897 29.007L14.8797 29.117C14.7897 28.557 14.8097 28.217 14.9197 27.847C14.0097 23.677 13.6797 26.967 13.6797 26.967C13.4297 28.607 13.7597 29.457 13.8497 31.407V31.477Z" fill="#8E8E8E"/>
</svg>
