<svg width="24" height="24" viewBox="0 0 24 24" fill="none" xmlns="http://www.w3.org/2000/svg">
<path d="M14 7H17M17 7H20M17 7V10M17 7V4M5.00002 10.5H9.5C10.0523 10.5 10.5 10.0523 10.5 9.50002L10.5 5.00001C10.5 4.44772 10.0523 4 9.50001 4L5.00002 4.00002C4.44773 4.00002 4.00002 4.44773 4.00002 5.00002V9.50002C4.00002 10.0523 4.44774 10.5 5.00002 10.5ZM14.5 19.9999H19C19.5523 19.9999 20 19.5522 20 18.9999L20 14.4999C20 13.9476 19.5523 13.4999 19 13.4999L14.5 13.4999C13.9477 13.4999 13.5 13.9476 13.5 14.4999V18.9999C13.5 19.5522 13.9477 19.9999 14.5 19.9999ZM5 19.9999H9.49998C10.0523 19.9999 10.5 19.5522 10.5 18.9999L10.5 14.4999C10.5 13.9476 10.0523 13.4999 9.49999 13.4999L5 13.4999C4.44771 13.4999 4 13.9476 4 14.4999V18.9999C4 19.5522 4.44771 19.9999 5 19.9999Z" stroke="#1F1F1F" stroke-width="1.5" stroke-linecap="round" stroke-linejoin="round"/>
</svg>
