<svg width="71" height="71" viewBox="0 0 71 71" fill="none" xmlns="http://www.w3.org/2000/svg">
<path d="M16.1494 37.2754L16.1094 37.3254C16.1094 37.3254 16.1494 37.3054 16.1494 37.2754Z" fill="#8E8E8E"/>
<path d="M14.77 39.3459L14.75 39.3359L14.77 39.3459Z" fill="#8E8E8E"/>
<path d="M14.6894 36.7252C14.6594 37.4152 14.4494 37.6152 14.5994 38.3252C14.5994 38.6652 14.7094 39.0252 14.7694 39.3552C14.9494 39.4952 14.8294 39.7852 14.9994 39.9552L14.9194 40.0352C14.9794 40.0952 15.0194 40.1652 14.9794 40.2352H14.9494C15.0394 40.3152 15.0094 40.4352 15.0494 40.4752H15.0194L15.0494 40.5852H15.0094C15.1094 40.7252 15.1494 40.8952 15.1394 41.0452L15.2494 41.0152C15.1794 41.3552 15.4394 41.4252 15.3394 41.7452H15.3094C15.6794 42.0452 15.2294 42.3552 15.5994 42.6652C15.5494 42.6252 15.5494 42.6952 15.5194 42.7052C15.5894 42.8652 15.6494 43.0452 15.8694 42.9952C15.8994 43.1152 15.8194 43.1152 15.7394 43.1452C15.8394 43.1252 15.8994 43.2152 15.9394 43.3152L15.8894 43.2853L15.9994 43.5452L16.1694 43.4453C16.1594 43.6053 15.9594 43.5352 16.0394 43.6652L16.1894 43.6252C16.2094 43.8352 16.0194 44.0152 15.9594 44.2352C16.1294 45.0652 16.7694 45.7952 16.7794 46.6152L16.6794 46.6852C16.5194 46.7552 16.9894 46.8052 16.8494 46.8852L16.9494 46.9453C16.9494 46.9453 16.9194 47.0452 16.8694 47.0152C16.8894 47.0952 16.9194 47.0852 16.9894 47.1252L16.9194 47.2452C16.9594 47.5852 17.2594 47.7652 17.3494 48.1052C17.2994 48.5752 17.7994 49.2252 18.0894 49.5852C18.5694 50.0552 18.2994 51.0152 18.8494 51.4652C18.8394 51.4952 18.9094 51.5153 18.9294 51.5053C19.0094 51.6853 19.0894 51.8652 19.1894 52.0452C19.1894 52.0452 19.5294 52.6852 19.8894 52.9952C20.2494 53.3052 20.6194 53.2652 20.7094 51.9852H20.7494C20.6694 51.6552 20.5994 51.4752 20.3194 51.3852C20.5094 51.2452 20.2094 51.1452 20.2494 51.0452H20.2694C20.0294 50.9552 20.2194 50.6253 19.9994 50.5353C20.0194 50.5353 20.0794 50.5053 20.0994 50.5353C20.0094 50.4253 19.8794 50.2852 19.9994 50.2152C19.8194 49.9452 19.6794 49.5252 19.3994 49.4252H19.4394C19.2594 49.3752 19.3594 49.2952 19.2394 49.2052C19.2494 49.1952 19.2594 49.1752 19.2594 49.1752C19.0794 49.1152 19.0894 48.8452 18.9894 48.7752L19.0694 48.7352L18.9494 48.5152L18.9694 48.6052C18.7294 48.6752 19.0294 48.3652 18.8094 48.2652C18.7694 48.0952 18.2094 48.1352 18.2494 47.9152C18.1094 47.8752 18.4494 47.9152 18.3194 47.8252C18.4394 47.7752 18.4194 47.8553 18.4994 47.7853C18.3994 47.6953 18.5394 47.5452 18.4094 47.4352L18.4994 47.3952C18.2494 47.2752 18.4794 46.9952 18.2694 46.9352C18.1194 46.7652 18.4994 46.7052 18.2394 46.5652L18.3394 46.4352C18.3294 46.3452 18.1594 46.4352 18.1894 46.3152C18.2694 46.2952 18.2094 46.1653 18.3094 46.1953C18.3594 45.9353 17.9694 45.8152 18.0794 45.4552C17.8994 45.4552 17.9494 45.2653 17.8194 45.2553C17.8894 45.2253 17.7394 44.9552 17.9394 45.0752C17.9594 45.0852 17.9594 45.1152 17.9394 45.1152H18.0394C18.1594 44.8852 17.8494 44.8352 17.8294 44.6652C17.8094 44.7252 17.8394 44.7852 17.7594 44.7652L17.7294 44.6052H17.8194L17.7994 44.3752L17.7094 44.4352C17.7294 44.3052 17.8794 44.2252 17.7094 44.1352C17.6094 44.1052 17.6094 44.2752 17.5394 44.1752C17.5594 44.0052 17.6094 43.7552 17.5794 43.5552C17.4694 43.6052 17.4594 43.5553 17.4294 43.5053L17.5194 43.4753C17.3294 43.3053 17.7094 43.3452 17.5494 43.1752H17.6194H17.3994C17.1594 43.0452 17.5694 43.0252 17.2594 42.8852C17.2994 42.9652 17.0594 42.9752 17.0694 42.8652H17.1694C17.1694 42.8652 17.0894 42.8052 17.1094 42.7652C17.1694 42.7852 17.2494 42.7452 17.2094 42.6752L17.3394 42.7052L17.1294 42.5952C17.1994 42.4552 17.0294 42.2952 17.1594 42.2152C17.1594 42.2152 17.1594 41.9452 17.0094 41.9152C17.1094 41.9452 17.1094 41.7952 17.2294 41.8152C17.1094 41.7752 16.9794 41.5952 17.0794 41.4952H17.0994C17.1594 41.1952 16.8494 41.0452 16.9394 40.7552C16.8294 40.7852 16.8594 40.6352 16.7294 40.6952C16.5294 40.4452 16.9494 40.1552 16.4794 40.1252C16.4394 40.0052 16.5594 39.9652 16.5794 39.8952L16.6094 39.9252C16.5394 39.6952 16.5194 39.6352 16.5094 39.4552C16.4494 39.3752 16.2394 39.3852 16.2794 39.2252C16.3694 39.2652 16.3494 39.2052 16.3394 39.1452C16.3594 39.1852 16.3894 39.1852 16.4394 39.1052C16.4094 39.1052 16.3994 39.0852 16.3794 39.0652C16.3794 39.0652 16.3894 39.0652 16.3994 39.0652C16.3594 38.9752 16.3394 38.9952 16.3294 39.0352C16.3194 39.0352 16.2994 39.0352 16.2794 39.0552C16.3794 38.9452 16.2394 38.7752 16.3794 38.7452C16.3094 38.4552 16.1394 38.2652 16.0694 38.0252C16.1394 37.9952 16.2094 38.0452 16.2494 38.1152L16.2094 37.9452C16.3194 37.9452 16.2794 38.0352 16.2994 38.0952C16.4594 37.8752 16.0894 37.6852 16.2394 37.4352L16.1494 37.3852V37.3652C16.1494 37.3652 16.0594 37.3152 16.0394 37.2852C16.1294 37.2452 16.2594 37.2852 16.2494 37.1552C16.3394 37.0552 16.1894 36.8952 16.1394 36.7652C16.1294 36.8352 16.0694 36.8152 16.0394 36.7852C16.0394 36.7252 16.1294 36.6852 16.0794 36.6452H16.2094C16.0894 36.6652 16.0794 36.4852 16.0294 36.4652C16.1194 36.4352 16.1094 36.5552 16.1794 36.5652C16.1694 36.3252 16.1794 36.4452 16.1594 36.2052C16.0694 36.0752 16.0394 36.2252 15.9294 36.1652C15.9094 36.0552 15.8194 35.9352 15.8894 35.8152L15.7794 35.8552C15.6994 35.6352 15.7194 35.5052 15.8394 35.3752C15.4394 34.5552 15.1594 34.3952 14.9494 34.4952C14.7394 34.5952 14.6194 34.9352 14.6194 34.9352C14.3194 35.6152 14.6394 35.9752 14.7394 36.7652L14.6894 36.7252Z" fill="#8E8E8E"/>
<path d="M10.8391 27.5469L10.7891 27.5669C10.7891 27.5669 10.8291 27.5669 10.8391 27.5469Z" fill="#8E8E8E"/>
<path d="M9.00024 28.5764L8.99023 28.5664L9.00024 28.5764Z" fill="#8E8E8E"/>
<path d="M9.55939 26.7562C9.36939 27.2262 9.13939 27.3062 9.09939 27.8262C9.02939 28.0662 9.01939 28.3362 8.99939 28.5762C9.14939 28.7162 8.94939 28.8862 9.05939 29.0462L8.95939 29.0762C8.99939 29.1262 9.01939 29.1862 8.95939 29.2262H8.92939C8.98939 29.2962 8.92939 29.3662 8.95939 29.4062H8.92939V29.4862L8.88939 29.4662C8.94939 29.5962 8.92939 29.7262 8.88939 29.8262H9.00939C8.84939 30.0462 9.06939 30.1662 8.88939 30.3562H8.85939C9.12939 30.6562 8.59939 30.7462 8.85939 31.0562C8.82939 31.0162 8.79939 31.0562 8.76939 31.0562C8.78939 31.1862 8.78939 31.3262 9.01939 31.3462C9.00939 31.4362 8.93939 31.4162 8.84939 31.4162C8.94939 31.4162 8.97939 31.5062 8.98939 31.5762L8.94939 31.5362L8.96939 31.7462L9.15939 31.7262C9.09939 31.8262 8.92939 31.7262 8.96939 31.8462H9.12939C9.08939 32.0062 8.83939 32.0762 8.71939 32.2162C8.61939 32.8362 8.99939 33.4862 8.73939 34.0562L8.61939 34.0862C8.44939 34.0962 8.86939 34.2362 8.71939 34.2662L8.79939 34.3262C8.79939 34.3262 8.73939 34.3862 8.69939 34.3562C8.69939 34.4162 8.71939 34.4162 8.77939 34.4562L8.67939 34.5262C8.60939 34.7762 8.82939 34.9662 8.79939 35.2262C8.60939 35.5462 8.86939 36.1162 9.01939 36.4262C9.34939 36.8462 8.74939 37.5062 9.15939 37.9262C9.13939 37.9462 9.19939 37.9762 9.21939 37.9662L9.28939 38.4062C9.28939 38.4062 9.42939 38.9362 9.67939 39.1962C9.92939 39.4762 10.2794 39.4462 10.7394 38.5162H10.7794C10.8094 38.2762 10.7794 38.1462 10.5594 38.0362C10.7794 37.9562 10.5394 37.8562 10.5994 37.7862H10.6194C10.4194 37.6962 10.6994 37.4862 10.5194 37.3862C10.5394 37.3862 10.5994 37.3862 10.6094 37.4062C10.5594 37.3162 10.4794 37.2062 10.6094 37.1662C10.5294 36.9562 10.5494 36.6262 10.3094 36.5162H10.3494C10.1894 36.4562 10.3094 36.4162 10.2194 36.3362C10.2394 36.3362 10.2394 36.3162 10.2494 36.3162C10.0894 36.2462 10.1894 36.0562 10.1194 35.9862L10.2094 35.9662L10.1694 35.7862V35.8562C9.90939 35.8562 10.2994 35.7062 10.1294 35.5862C10.1494 35.4662 9.59939 35.3762 9.69939 35.2362C9.57939 35.1862 9.88939 35.2762 9.78939 35.1862C9.91939 35.1762 9.86939 35.2262 9.96939 35.1862C9.89939 35.0962 10.0894 35.0262 9.99939 34.9262H10.0994C9.90939 34.7762 10.2194 34.6362 10.0394 34.5462C9.94939 34.3962 10.3294 34.4362 10.1294 34.2862L10.2594 34.2262C10.2794 34.1562 10.0894 34.1862 10.1594 34.1062C10.2394 34.1062 10.2294 34.0162 10.3094 34.0562C10.4394 33.8862 10.1194 33.7262 10.3394 33.5062C10.1694 33.4562 10.2694 33.3462 10.1494 33.3162C10.2194 33.3162 10.1694 33.0962 10.3194 33.2262C10.3294 33.2362 10.3194 33.2562 10.2994 33.2562L10.3994 33.2762C10.5894 33.1562 10.3094 33.0462 10.3394 32.9262C10.3094 32.9662 10.3094 33.0062 10.2494 32.9762L10.2694 32.8662L10.3494 32.8962L10.3994 32.7262L10.2994 32.7462C10.3594 32.6662 10.5294 32.6462 10.3894 32.5462C10.3094 32.4962 10.2494 32.6162 10.2194 32.5262C10.2894 32.4162 10.4094 32.2562 10.4494 32.1162C10.3294 32.1162 10.3394 32.0862 10.3194 32.0462H10.4194C10.2894 31.8862 10.6394 32.0062 10.5394 31.8562L10.6094 31.8762L10.4094 31.8162C10.2194 31.6662 10.6194 31.7562 10.3594 31.5862C10.3694 31.6462 10.1394 31.5862 10.1894 31.5262L10.2794 31.5562C10.2794 31.5562 10.2194 31.4962 10.2494 31.4762C10.2994 31.5062 10.3894 31.5062 10.3794 31.4362L10.4994 31.4862L10.3294 31.3562C10.4394 31.2762 10.3294 31.1262 10.4694 31.1062C10.4694 31.1062 10.5594 30.9262 10.4094 30.8662C10.4994 30.9162 10.5394 30.8162 10.6494 30.8662C10.5494 30.8062 10.4794 30.6562 10.5994 30.6062H10.6094C10.7494 30.4262 10.5094 30.2362 10.6694 30.0662C10.5494 30.0662 10.6294 29.9662 10.4794 29.9662C10.3594 29.7462 10.8294 29.6562 10.3894 29.5162C10.3894 29.4262 10.5094 29.4262 10.5494 29.3862L10.5694 29.4162C10.5694 29.2462 10.5694 29.1962 10.5994 29.0762C10.5694 29.0062 10.3594 28.9562 10.4294 28.8562C10.5094 28.9062 10.4994 28.8562 10.5094 28.8162C10.5094 28.8462 10.5494 28.8562 10.6094 28.8162C10.5894 28.8062 10.5694 28.7862 10.5594 28.7762C10.5594 28.7762 10.5694 28.7762 10.5794 28.7762C10.5694 28.7062 10.5394 28.7062 10.5194 28.7362C10.5094 28.7362 10.4894 28.7362 10.4694 28.7362C10.5894 28.6862 10.5094 28.5362 10.6494 28.5562C10.6594 28.3462 10.5494 28.1662 10.5294 27.9762C10.6094 27.9762 10.6594 28.0262 10.6794 28.0862V27.9562C10.7894 27.9862 10.7194 28.0362 10.7394 28.0862C10.9394 27.9862 10.6394 27.7462 10.8394 27.6162L10.7694 27.5562H10.7894C10.7894 27.5562 10.6994 27.4862 10.6894 27.4562C10.7894 27.4562 10.8994 27.5062 10.9094 27.4262C11.0094 27.3862 10.9094 27.2262 10.8894 27.1262C10.8594 27.1662 10.8194 27.1362 10.7894 27.1062C10.7894 27.0662 10.8994 27.0662 10.8694 27.0262L10.9894 27.0562C10.8694 27.0362 10.8994 26.9162 10.8494 26.8862C10.9494 26.8862 10.9094 26.9762 10.9694 27.0062C11.0094 26.8362 10.9894 26.9262 11.0194 26.7562C10.9494 26.6362 10.8994 26.7362 10.8094 26.6662C10.8094 26.5762 10.7494 26.4762 10.8494 26.4062H10.7294C10.6894 26.2262 10.7294 26.1462 10.8694 26.0762C10.6294 25.3862 10.3694 25.1962 10.1494 25.2162C9.93939 25.2262 9.76939 25.4362 9.76939 25.4362C9.37939 25.8262 9.60939 26.1662 9.53939 26.7362L9.55939 26.7562Z" fill="#8E8E8E"/>
<path d="M23.2207 15.0059L23.4007 15.0759C23.4007 15.0759 23.3507 15.0259 23.2207 15.0059Z" fill="#8E8E8E"/>
<path d="M42.7112 50.7266C42.7112 50.7266 42.7112 50.7565 42.7012 50.7665C42.7112 50.7365 42.7112 50.7266 42.7112 50.7266Z" fill="#8E8E8E"/>
<path d="M29.3798 18.5063C29.3798 18.5063 29.3498 18.4963 29.3398 18.4863L29.3898 18.5063H29.3798Z" fill="#8E8E8E"/>
<path d="M7.07945 23.2656L6.93945 23.3656C6.93945 23.3656 6.99945 23.3656 7.07945 23.2656Z" fill="#8E8E8E"/>
<path d="M7.58023 20.7557C7.13023 21.1057 6.70023 21.4957 6.35023 21.7757C6.04023 22.1157 5.76023 22.4157 5.48023 22.7157C4.98023 23.3557 4.50023 24.0357 4.01023 25.2157C3.74023 25.7657 3.56023 26.3657 3.35023 26.9457C3.20023 27.5357 3.04023 28.1357 2.90023 28.6957C2.96023 29.2757 2.56023 30.1857 2.63023 30.8557L2.50023 31.0857C2.52023 31.3157 2.51023 31.5757 2.43023 31.7957L2.40023 31.7757C2.42023 32.1157 2.35023 32.4857 2.37023 32.6557L2.34023 32.6357L2.32023 33.0357L2.29023 32.9657C2.31023 33.5457 2.27023 34.1457 2.24023 34.6657L2.36023 34.6257C2.19023 35.7457 2.44023 36.1457 2.32023 37.1657H2.29023C2.45023 37.7857 2.45023 38.2857 2.44023 38.7957C2.43023 39.3057 2.41023 39.8257 2.65023 40.4557C2.59023 40.2957 2.60023 40.5357 2.57023 40.5257C2.69023 41.1257 2.79023 41.7557 3.02023 41.7257C3.10023 42.1557 3.02023 42.0857 2.94023 42.1557C3.04023 42.1357 3.15023 42.5057 3.22023 42.8357L3.15023 42.6857L3.38023 43.6457L3.52023 43.4157C3.58023 43.9357 3.32023 43.5957 3.49023 44.0657L3.64023 44.0257C3.80023 44.7257 3.64023 45.1957 3.75023 45.9057C4.53023 48.7457 6.21023 51.4257 7.56023 53.7957L7.53023 53.9657C7.42023 54.1157 8.17023 54.4357 8.12023 54.6057L8.38023 54.8057C8.41023 54.8957 8.51023 55.0657 8.38023 54.9657C8.56023 55.1957 8.59023 55.1857 8.76023 55.3157L8.88023 55.6257C9.62023 56.5457 10.4502 57.1257 11.4002 57.9057C11.6502 58.1857 11.9902 58.4957 12.4102 58.7657C12.8302 59.0357 13.2702 59.3557 13.7702 59.5857C14.2702 59.8157 14.7802 60.0257 15.2502 60.2257C15.7402 60.3757 16.2102 60.4957 16.5902 60.6057C17.1302 60.7557 17.7102 60.8557 18.2902 61.0157C18.5702 61.0957 18.8602 61.1757 19.1602 61.2657C19.4602 61.3157 19.7602 61.3757 20.0602 61.4357C21.2702 61.7157 22.5202 61.7357 23.6602 61.5657C23.7402 61.5857 23.9202 61.5057 23.9202 61.4857L26.0002 61.2457C26.0002 61.2457 26.6102 61.1057 27.4202 60.9157C28.2402 60.7457 29.1902 60.3957 29.9102 60.0757C31.3602 59.4357 31.7302 58.9757 28.0202 59.4057L28.0602 59.3557C26.9802 59.4957 26.3202 59.6457 25.6202 59.9757C25.4702 59.7657 24.7402 60.0557 24.4702 60.0157L24.4902 59.9957C24.1702 60.1257 23.8302 60.1257 23.5002 60.1357C23.1602 60.1057 22.8302 60.0657 22.5202 60.1557C22.5402 60.1357 22.5602 60.0757 22.7002 60.0657C22.2402 60.1057 21.6102 60.1657 21.5802 60.0257C21.0402 60.0357 20.3902 59.9357 19.7902 59.8957C19.1902 59.8757 18.6502 59.7257 18.2802 59.7757L18.3402 59.7457C17.9202 59.7957 17.8202 59.6757 17.3802 59.6157C17.3602 59.5957 17.3302 59.5757 17.3402 59.5657C16.8902 59.5657 16.1302 59.1657 15.7802 59.1057V59.0157L15.0102 58.6557L15.2902 58.8157C15.0802 58.9857 14.7702 58.3957 14.1402 58.2457C13.6702 57.8957 12.8502 58.0357 12.4002 57.5657C12.1002 57.4657 12.7102 57.5857 12.3202 57.3757C12.3902 57.2657 12.5302 57.4457 12.5002 57.2857C12.1302 57.0557 12.0302 56.7357 11.5702 56.4657L11.6202 56.3757C10.9602 56.0657 10.7802 55.3657 10.3202 55.1757C9.76023 54.7157 10.2302 54.6257 9.60023 54.1857L9.52024 53.8757C9.34024 53.6157 9.25023 53.8057 9.07023 53.4957C9.15023 53.4657 8.87023 53.0857 9.05023 53.2057C8.72023 52.4757 7.96023 51.9857 7.66023 50.9457C7.41023 50.8257 7.22023 50.3257 7.04023 50.2257C7.09023 50.1657 6.59023 49.2557 6.99023 49.7257C7.02023 49.7657 7.06023 49.8457 7.03023 49.8557L7.15023 49.8757C7.07023 49.2557 6.57023 48.9457 6.38023 48.3757C6.41023 48.5557 6.51023 48.7657 6.38023 48.6457L6.19023 48.1257L6.31023 48.2057L6.05023 47.4257L6.00023 47.5657C5.91023 47.1657 6.00023 46.9857 5.73023 46.6057C5.59023 46.4357 5.72023 47.0157 5.56023 46.6157C5.45023 46.0557 5.28023 45.2257 5.16023 44.6057C5.07023 44.6957 5.02023 44.5157 4.95023 44.3357L5.04023 44.2857C4.72023 43.6057 5.19023 43.9757 4.90023 43.2957L4.98023 43.3457L4.73023 43.2057C4.41023 42.6057 4.86023 42.8157 4.46023 42.1557C4.53023 42.4357 4.27023 42.3357 4.24023 41.9757L4.35023 42.0457C4.29023 41.8557 4.24023 41.7957 4.23023 41.6657C4.30023 41.7757 4.38023 41.7057 4.31023 41.4257L4.46023 41.5957C4.36023 41.4257 4.29023 41.2557 4.20023 41.0857C4.24023 40.6557 4.02023 40.0057 4.13023 39.8157C4.13023 39.8157 4.11023 39.5857 4.09023 39.3357C4.07023 39.0857 4.02023 38.8057 3.94023 38.7157C4.05023 38.8857 4.04023 38.3857 4.16023 38.5257C4.04023 38.3057 3.89023 37.6157 4.00023 37.3257V37.3757C4.09023 36.3457 3.81023 35.6257 3.98023 34.7057C3.86023 34.7457 3.94023 34.2557 3.79023 34.3757C3.69023 33.4057 4.22023 32.6657 3.79023 32.2757C3.83023 31.8357 3.97023 31.7757 4.02023 31.5557V31.6657C4.11023 30.8557 4.13023 30.6157 4.27023 30.0357C4.29023 29.7357 4.09023 29.6457 4.25023 29.1157C4.30023 29.3057 4.32023 29.0857 4.38023 28.8857C4.36023 29.0157 4.38023 29.0557 4.50023 28.8157C4.49023 28.7757 4.49023 28.7157 4.49023 28.6557H4.51023C4.57023 28.3257 4.53023 28.3757 4.48023 28.5257C4.47023 28.5157 4.45023 28.5257 4.41023 28.5657C4.61023 28.2557 4.67023 27.6257 4.82023 27.6257C5.12023 26.6657 5.24023 25.9357 5.58023 25.1657C5.69023 25.1157 5.66023 25.3257 5.58023 25.5557L5.81023 25.0157C5.90023 25.0757 5.72023 25.3457 5.66023 25.5257C6.10023 24.9757 6.19023 24.1657 6.80023 23.5957L6.84023 23.4157L6.88023 23.3857C6.88023 23.3857 6.91023 23.1757 6.98023 23.0757C7.12023 23.0457 7.14023 23.2257 7.38023 22.9057C7.67023 22.7457 7.98023 22.2857 8.27023 21.9557C8.08023 22.0957 8.11023 22.0057 8.16023 21.9157C8.33023 21.7757 8.48023 21.7757 8.59023 21.6357L8.69023 21.7257C8.55023 21.6857 9.04023 21.2657 9.07023 21.1757C9.22023 21.1757 8.86023 21.4557 8.87023 21.5457C9.53023 20.9757 9.20023 21.2657 9.85023 20.6757C10.1302 20.2857 9.71024 20.6457 9.79024 20.4157C10.0702 20.1257 10.2902 19.7757 10.6702 19.4957L10.4902 19.5257C10.9502 18.9157 11.2402 18.5757 11.6502 18.2457C12.9802 15.7357 12.9802 15.3257 12.5602 15.5057C12.1402 15.7057 11.3902 16.5457 11.3902 16.5457C10.6202 17.3657 10.1702 17.9757 9.64023 18.6257C9.11023 19.2657 8.53023 19.9557 7.55023 20.7857L7.58023 20.7557Z" fill="#8E8E8E"/>
<path d="M19.9102 19.0859L19.9802 19.2159C19.9802 19.2159 19.9802 19.1659 19.9102 19.0859Z" fill="#8E8E8E"/>
<path d="M34.7109 49.0469C34.7109 49.0469 34.7109 49.0669 34.7209 49.0769C34.7209 49.0569 34.7109 49.0469 34.7109 49.0469Z" fill="#8E8E8E"/>
<path d="M22.3796 23.8852V23.8752L22.3496 23.8652L22.3796 23.8852Z" fill="#8E8E8E"/>
<path d="M59.6797 15.1875L59.9497 15.5075C59.9497 15.5075 59.8997 15.3975 59.6797 15.1875Z" fill="white"/>
<path d="M65.7685 29.3075V29.2875L65.7285 29.1875L65.7685 29.3075Z" fill="white"/>
<path fill-rule="evenodd" clip-rule="evenodd" d="M30.2431 17.3084C30.2016 17.285 30.1574 17.2576 30.11 17.2257C30.32 17.2457 30.11 17.1357 29.9 17.0357C30.03 17.0857 30.09 17.0757 29.85 16.9057C29.8 16.9057 29.74 16.9057 29.68 16.8857V16.8657C29.33 16.7357 29.38 16.7857 29.53 16.8657C29.52 16.8657 29.53 16.8957 29.56 16.9357C29.4207 16.815 29.1996 16.7115 29.0045 16.6203C28.7795 16.515 28.5893 16.4261 28.6 16.3457C28.2032 16.1667 27.8184 16.0786 27.4599 15.9964C27.3577 15.973 27.2576 15.9501 27.16 15.9257C26.72 15.8157 26.29 15.7257 25.83 15.6557C25.75 15.5557 25.97 15.5457 26.25 15.5857L25.6 15.4557C25.6213 15.3847 25.8089 15.4296 25.9875 15.4724C26.0605 15.4899 26.132 15.507 26.19 15.5157C25.7631 15.3138 25.2896 15.265 24.7925 15.2137C24.428 15.1761 24.0508 15.1372 23.67 15.0357L23.47 15.0957L23.42 15.0757C23.42 15.0757 23.21 15.1557 23.07 15.1557C23.0339 15.1256 23.0223 15.0929 23.0111 15.0614C22.9851 14.9884 22.9617 14.9227 22.64 14.9157C22.3636 14.8466 21.8986 14.9072 21.4803 14.9617C21.3538 14.9782 21.2315 14.9941 21.12 15.0057C21.38 15.0257 21.3 15.0757 21.19 15.1057C21.1027 15.1057 21.0297 15.0956 20.963 15.0864C20.8541 15.0713 20.7617 15.0585 20.65 15.0957L20.628 15.0075C20.632 14.9971 20.6298 14.9865 20.62 14.9757L20.628 15.0075C20.6056 15.0647 20.3932 15.1158 20.2129 15.1592C20.0919 15.1883 19.9854 15.214 19.96 15.2357C19.8802 15.1901 20.002 15.1575 20.1308 15.123C20.2277 15.0971 20.3285 15.0701 20.35 15.0357C19.7635 15.113 19.7461 15.1156 19.5642 15.1425C19.4639 15.1573 19.3135 15.1795 18.99 15.2257C18.7549 15.3132 18.8068 15.3349 18.8694 15.3611C18.9213 15.3829 18.9807 15.4077 18.89 15.4757C18.8294 15.4881 18.7685 15.5015 18.7072 15.515C18.374 15.5884 18.027 15.6648 17.63 15.6057L17.78 15.7157C17 15.8157 16.53 15.7657 16.01 15.6257C14.8389 15.7279 14.1002 15.9351 13.6775 16.1308C13.4871 16.1672 13.3497 16.2199 13.2605 16.2662C13.0005 16.4062 13.0005 16.5462 13.1605 16.6362C13.2805 16.7562 13.4905 16.8462 13.6605 16.9062C13.8505 17.0062 14.0105 17.0762 14.0105 17.0762L14.2782 17.2125C14.7924 17.4744 15.2432 17.7039 15.7305 17.9262L15.8091 17.9648C16.3585 18.2343 16.9671 18.5328 17.7305 19.0862L17.7505 19.1462C18.4145 19.7433 18.7897 20.1522 19.1775 20.5749C19.5431 20.9734 19.9199 21.3842 20.5605 21.9762C20.8184 22.2563 21.094 22.5384 21.3699 22.8207C21.7145 23.1733 22.0595 23.5263 22.3705 23.8762C22.582 23.9847 22.7788 24.2225 22.9784 24.4637C23.1469 24.6674 23.3174 24.8735 23.5005 25.0062L23.5405 25.2062C23.6805 25.3062 23.8305 25.4362 23.8905 25.5962H23.8605C23.9869 25.6925 24.0879 25.8177 24.1701 25.9197C24.2245 25.9871 24.2707 26.0444 24.3105 26.0762H24.2805L24.4705 26.3162L24.4105 26.2962C24.4459 26.3294 24.4805 26.3632 24.5145 26.3975C24.7558 25.8581 25.0081 25.3264 25.2703 24.8035C25.245 24.8023 25.2185 24.8031 25.1905 24.8062C25.0401 24.6433 25.0115 24.5314 24.9864 24.4337C24.9715 24.3755 24.9579 24.3222 24.9205 24.2662L24.9905 24.3162C24.6706 23.96 24.5252 23.7835 24.3505 23.5715C24.2849 23.4918 24.2152 23.4072 24.1305 23.3062C24.0597 23.2466 23.9889 23.2245 23.9155 23.2015C23.7919 23.1629 23.6611 23.122 23.5105 22.8962C23.6408 22.9396 23.5675 22.8549 23.4739 22.7467C23.4597 22.7303 23.445 22.7134 23.4305 22.6962C23.5105 22.7662 23.5505 22.7662 23.4605 22.5762C23.4305 22.5762 23.4005 22.5594 23.3705 22.5425C23.3605 22.5369 23.3505 22.5312 23.3405 22.5262C23.3405 22.5262 23.3405 22.5062 23.3505 22.5062C23.1505 22.3162 23.1605 22.3762 23.2405 22.4762C23.2305 22.4762 23.2205 22.4962 23.2305 22.5462C23.1834 22.4096 23.063 22.2729 22.9582 22.154C22.8407 22.0206 22.743 21.9097 22.7905 21.8462C22.4169 21.466 22.069 21.1975 21.7272 20.9337C21.5476 20.7951 21.3697 20.6578 21.1905 20.5062C21.1905 20.3962 21.3505 20.4662 21.5105 20.5862L21.1505 20.2662C21.2065 20.2173 21.3017 20.3103 21.3949 20.4014C21.4349 20.4405 21.4745 20.4792 21.5105 20.5062C21.3652 20.2259 21.112 20.0452 20.8475 19.8566C20.6026 19.6819 20.348 19.5003 20.1605 19.2262L20.0005 19.1962L19.9805 19.1562C19.9805 19.1562 19.8005 19.1362 19.7205 19.0762C19.7175 19.0373 19.7298 19.0074 19.7414 18.9789C19.7687 18.9121 19.7927 18.8534 19.6105 18.7062C19.4987 18.5144 19.1825 18.3354 18.9069 18.1794C18.8375 18.1402 18.7708 18.1024 18.7105 18.0662C18.8505 18.1962 18.7605 18.1962 18.6805 18.1762C18.6234 18.1323 18.5875 18.0825 18.5541 18.0362C18.5117 17.9774 18.4734 17.9242 18.4005 17.8962L18.4472 17.8107C18.4542 17.8054 18.4588 17.7974 18.4605 17.7862L18.4472 17.8107C18.4034 17.8437 18.2653 17.7714 18.1438 17.7078C18.0582 17.663 17.9808 17.6225 17.9505 17.6262C17.9391 17.5521 18.0221 17.5918 18.1103 17.6341C18.1767 17.6659 18.2462 17.6991 18.2805 17.6862C18.0647 17.5332 17.9782 17.4679 17.9184 17.4228C17.8257 17.3528 17.7969 17.3311 17.4505 17.1062C17.2587 17.0405 17.2742 17.0859 17.2927 17.1403C17.308 17.1852 17.3254 17.2362 17.2305 17.2362C17.1606 17.1987 17.09 17.1638 17.0191 17.1286C16.9263 17.0826 16.833 17.0364 16.7398 16.9839C17.068 16.9904 17.3983 16.9828 17.74 16.9557C18.25 16.9157 18.78 16.8357 19.36 16.6957C19.86 16.5957 20.4 16.4957 21.04 16.3957L21.03 16.3757C21.4216 16.3895 21.7613 16.4079 22.0685 16.4246C22.2085 16.4322 22.3417 16.4395 22.47 16.4457C22.7349 16.4586 22.9747 16.5133 23.2084 16.5665C23.3364 16.5957 23.4626 16.6245 23.59 16.6457C24.031 16.7131 24.4645 16.8217 24.9984 16.9555C25.3363 17.0402 25.7144 17.1349 26.16 17.2357C26.3873 17.3215 26.6201 17.3999 26.8545 17.4788C27.1666 17.584 27.4816 17.69 27.79 17.8157C28.0176 17.9187 28.2488 18.0163 28.4782 18.113C28.7511 18.2281 29.0213 18.342 29.2797 18.4629C29.5957 18.0647 29.9171 17.6795 30.2431 17.3084ZM30.7731 58.2098C30.578 58.6679 30.5192 59.0191 30.7773 58.9832C30.9105 59.0615 31.3092 59.056 32.0869 58.9219C31.6328 58.6946 31.195 58.457 30.7731 58.2098Z" fill="#8E8E8E"/>
<path d="M38.3278 31.6465L38.2578 31.6765C38.2578 31.6765 38.2978 31.6765 38.3278 31.6465Z" fill="#8E8E8E"/>
<path d="M37.378 30.3559C36.958 31.0159 36.668 31.1059 36.408 31.8859C36.228 32.2259 36.118 32.6259 35.988 32.9859C36.068 33.2159 35.798 33.4459 35.858 33.6959L35.738 33.7359C35.758 33.8259 35.758 33.9159 35.678 33.9659H35.658C35.688 34.0759 35.598 34.1759 35.618 34.2359H35.598L35.558 34.3459L35.528 34.3059C35.528 34.5059 35.478 34.6959 35.378 34.8459L35.488 34.8759C35.248 35.1759 35.428 35.3859 35.178 35.6459H35.148C35.298 36.1259 34.748 36.1959 34.898 36.6959C34.878 36.6359 34.838 36.6959 34.808 36.6959C34.778 36.8959 34.738 37.1059 34.958 37.1659C34.908 37.3059 34.858 37.2559 34.768 37.2459C34.858 37.2759 34.868 37.4059 34.848 37.5159L34.828 37.4559L34.778 37.7759H34.978C34.878 37.9159 34.748 37.7459 34.748 37.9159L34.898 37.9559C34.808 38.1759 34.548 38.2459 34.368 38.4359C34.068 39.3459 34.228 40.4159 33.818 41.2359L33.698 41.2559C33.528 41.2459 33.908 41.5459 33.738 41.5459L33.798 41.6559C33.798 41.6559 33.718 41.7359 33.688 41.6759C33.668 41.7659 33.688 41.7759 33.728 41.8559L33.608 41.9359C33.458 42.2959 33.628 42.6459 33.528 43.0259C33.238 43.4659 33.328 44.3759 33.408 44.8959C33.578 45.6259 32.858 46.4159 33.108 47.1759C33.078 47.1959 33.138 47.2659 33.158 47.2659C33.138 47.4859 33.118 47.7159 33.108 47.9359C33.108 47.9359 33.078 48.7559 33.238 49.2659C33.398 49.7759 33.728 49.9459 34.458 48.7359L34.498 48.7559C34.588 48.3959 34.618 48.1759 34.428 47.9259C34.658 47.8959 34.458 47.6359 34.538 47.5459H34.558C34.388 47.3259 34.728 47.1159 34.588 46.8959C34.608 46.8959 34.668 46.9159 34.668 46.9559C34.648 46.8059 34.608 46.5859 34.738 46.5859C34.718 46.2159 34.808 45.7159 34.628 45.4659L34.668 45.4859C34.538 45.3359 34.668 45.3159 34.608 45.1559C34.628 45.1559 34.638 45.1359 34.648 45.1459C34.518 44.9859 34.668 44.7159 34.618 44.5959H34.708V44.3059L34.678 44.4158C34.438 44.3558 34.848 44.2159 34.718 43.9859C34.778 43.7959 34.268 43.5259 34.418 43.3359C34.318 43.2259 34.588 43.4459 34.528 43.2859C34.658 43.2959 34.598 43.3659 34.708 43.3459C34.668 43.1959 34.868 43.1259 34.808 42.9459H34.908C34.758 42.6959 35.098 42.5459 34.948 42.3659C34.908 42.1159 35.268 42.2559 35.118 41.9859L35.268 41.9158C35.308 41.8158 35.118 41.8159 35.208 41.7059C35.288 41.7259 35.298 41.5759 35.368 41.6559C35.548 41.4259 35.278 41.0959 35.568 40.7959C35.418 40.6859 35.558 40.5359 35.448 40.4559C35.518 40.4559 35.538 40.1159 35.648 40.3359C35.648 40.3559 35.648 40.3859 35.618 40.3759L35.708 40.4159C35.928 40.2659 35.688 40.0459 35.758 39.8559C35.718 39.9059 35.708 39.9859 35.648 39.9159L35.698 39.7359L35.768 39.7959L35.878 39.5459H35.768C35.848 39.4459 36.028 39.4359 35.918 39.2559C35.858 39.1659 35.758 39.3459 35.758 39.2059C35.868 39.0459 36.038 38.8159 36.128 38.6059C36.008 38.6059 36.028 38.5359 36.028 38.4759L36.128 38.4959C36.058 38.2259 36.358 38.4659 36.318 38.2059L36.378 38.2459L36.198 38.1259C36.068 37.8659 36.428 38.0659 36.228 37.7659C36.228 37.8659 36.008 37.7459 36.078 37.6459L36.158 37.7059C36.158 37.6359 36.128 37.6059 36.158 37.5659C36.198 37.6159 36.288 37.6259 36.298 37.5259L36.398 37.6159L36.278 37.3959C36.418 37.2959 36.358 37.0459 36.508 37.0259C36.508 37.0259 36.658 36.7659 36.538 36.6559C36.608 36.7359 36.688 36.5959 36.778 36.6759C36.698 36.5759 36.688 36.3259 36.828 36.2759V36.2959C37.048 36.0159 36.878 35.7059 37.108 35.4659C36.998 35.4359 37.108 35.3059 36.958 35.2959C36.918 34.9459 37.438 34.8659 37.058 34.5959C37.088 34.4559 37.218 34.4759 37.268 34.4159V34.4559C37.338 34.1959 37.368 34.1159 37.448 33.9359C37.448 33.8259 37.258 33.7359 37.378 33.5859C37.428 33.6759 37.448 33.5959 37.478 33.5359C37.478 33.5759 37.498 33.6059 37.588 33.5459C37.568 33.5259 37.558 33.4959 37.558 33.4759C37.558 33.4759 37.568 33.4759 37.578 33.4759C37.598 33.3659 37.568 33.3659 37.528 33.4159C37.518 33.4159 37.498 33.4159 37.468 33.4159C37.618 33.3559 37.588 33.1159 37.728 33.1659C37.828 32.8459 37.788 32.5659 37.868 32.2859C37.948 32.2859 37.978 32.3759 37.968 32.4659L38.028 32.2759C38.128 32.3259 38.028 32.4059 38.028 32.4659C38.288 32.3259 38.078 31.9559 38.348 31.7759L38.298 31.6859H38.318C38.318 31.6859 38.248 31.5759 38.258 31.5359C38.358 31.5359 38.448 31.6359 38.508 31.5159C38.638 31.4659 38.608 31.2259 38.628 31.0759C38.578 31.1359 38.548 31.0859 38.528 31.0459C38.558 30.9859 38.658 30.9959 38.648 30.9259L38.758 30.9759C38.638 30.9459 38.738 30.7559 38.698 30.7159C38.798 30.7259 38.718 30.8459 38.768 30.8959C38.898 30.6559 38.828 30.7759 38.958 30.5359C38.958 30.3659 38.838 30.4959 38.778 30.3859C38.818 30.2659 38.808 30.1059 38.948 30.0159L38.828 29.9959C38.888 29.7459 38.978 29.6259 39.158 29.5559C39.288 28.5459 39.138 28.2659 38.888 28.2559C38.648 28.2559 38.348 28.5259 38.348 28.5259C37.698 29.0359 37.768 29.5559 37.418 30.3659L37.378 30.3559Z" fill="#8E8E8E"/>
<path d="M38.6381 19.0176H38.5781C38.5781 19.0176 38.6181 19.0376 38.6381 19.0176Z" fill="#8E8E8E"/>
<path d="M36.3984 19.1272H36.4084L36.3984 19.1172V19.1272Z" fill="#8E8E8E"/>
<path d="M37.9689 17.6471C37.5289 18.0071 37.2689 17.9671 36.9289 18.4571C36.7289 18.6571 36.5589 18.9071 36.3989 19.1271C36.4389 19.3371 36.1689 19.3971 36.1789 19.6071L36.0689 19.5871C36.0689 19.6571 36.0589 19.7271 35.9789 19.7371L35.9589 19.7171C35.9589 19.8271 35.8689 19.8671 35.8789 19.9171L35.8589 19.8971L35.8089 19.9771L35.7889 19.9371C35.7589 20.0971 35.6789 20.2071 35.5789 20.2871L35.6789 20.3471C35.4089 20.4771 35.5389 20.6971 35.2689 20.7971L35.2489 20.7771C35.3089 21.2071 34.7989 21.0371 34.8389 21.4671C34.8389 21.4171 34.7789 21.4471 34.7589 21.4271C34.6989 21.5671 34.6189 21.6971 34.8089 21.8271C34.7489 21.9071 34.6989 21.8571 34.6189 21.8171C34.6989 21.8771 34.6789 21.9771 34.6389 22.0471V21.9971L34.5289 22.2071L34.7089 22.2771C34.5989 22.3471 34.4989 22.1771 34.4689 22.2971L34.5989 22.3871C34.4789 22.5071 34.2289 22.4571 34.0289 22.5371C33.5889 23.0871 33.5489 23.9271 32.9989 24.3571L32.8789 24.3271C32.7189 24.2571 33.0089 24.6071 32.8589 24.5471L32.8889 24.6471C32.8889 24.6471 32.7989 24.6771 32.7889 24.6271C32.7489 24.6871 32.7789 24.6971 32.7889 24.7671L32.6589 24.7871C32.4589 24.9971 32.5389 25.2971 32.3689 25.5371C32.0189 25.7571 31.9289 26.4471 31.8989 26.8371C31.9489 27.4171 31.0789 27.7671 31.1989 28.3971C31.1689 28.3971 31.2089 28.4671 31.2289 28.4771L31.0589 28.9471C31.0589 28.9471 30.8989 29.5371 30.9689 29.9371C31.0389 30.3471 31.3489 30.5071 32.2389 29.8371L32.2689 29.8571C32.4189 29.6371 32.4589 29.4871 32.3389 29.2671C32.5689 29.3071 32.4189 29.0771 32.5089 29.0371H32.5289C32.4089 28.8471 32.7689 28.7871 32.6589 28.5971C32.6789 28.6071 32.7289 28.6271 32.7289 28.6671C32.7289 28.5571 32.7289 28.3971 32.8589 28.4371C32.9089 28.1771 33.0989 27.8671 32.9589 27.6371L32.9889 27.6571C32.8889 27.5171 33.0089 27.5371 32.9889 27.4071C33.0089 27.4071 33.0189 27.4071 33.0289 27.4071C32.9289 27.2571 33.1189 27.1171 33.0989 27.0171L33.1789 27.0471L33.2489 26.8471L33.1989 26.9071C32.9889 26.7871 33.3989 26.8271 33.3189 26.6271C33.3989 26.5171 32.9789 26.1471 33.1489 26.0671C33.0789 25.9571 33.2889 26.2071 33.2589 26.0671C33.3789 26.1171 33.3089 26.1471 33.4089 26.1671C33.4089 26.0471 33.5989 26.0771 33.5789 25.9171L33.6689 25.9571C33.5789 25.7271 33.9289 25.7371 33.8189 25.5571C33.8189 25.3671 34.1289 25.5971 34.0389 25.3471H34.1889C34.2389 25.2971 34.0689 25.2271 34.1689 25.1771C34.2389 25.2271 34.2789 25.1171 34.3289 25.1971C34.5389 25.0971 34.3589 24.7671 34.6689 24.6671C34.5489 24.5371 34.6989 24.4771 34.6189 24.3771C34.6789 24.4071 34.7589 24.1671 34.8189 24.3771C34.8189 24.3971 34.8189 24.4071 34.7889 24.3971L34.8689 24.4571C35.0989 24.4371 34.9189 24.1871 35.0189 24.0771C34.9689 24.0971 34.9489 24.1471 34.9089 24.0771L34.9889 23.9771L35.0489 24.0471L35.1889 23.9071L35.0889 23.8771C35.1889 23.8271 35.3489 23.8871 35.2789 23.7171C35.2389 23.6371 35.1189 23.7171 35.1389 23.6171C35.2589 23.5471 35.4589 23.4471 35.5789 23.3271C35.4789 23.2771 35.4989 23.2471 35.5089 23.1871L35.5989 23.2371C35.5789 23.0171 35.8189 23.3071 35.8189 23.1071L35.8689 23.1571L35.7189 22.9971C35.6489 22.7571 35.9389 23.0471 35.8089 22.7471C35.7889 22.8171 35.6089 22.6471 35.6989 22.6071L35.7689 22.6771C35.7689 22.6771 35.7589 22.5871 35.7889 22.5771C35.8189 22.6271 35.8989 22.6671 35.9189 22.6071L35.9889 22.7171L35.9189 22.5071C36.0589 22.4871 36.0489 22.2871 36.1889 22.3271C36.1889 22.3271 36.3689 22.1971 36.2789 22.0671C36.3289 22.1571 36.4289 22.0871 36.4889 22.1771C36.4389 22.0671 36.4689 21.8871 36.5989 21.8971V21.9171C36.8389 21.7971 36.7389 21.4971 36.9789 21.4071C36.8789 21.3471 36.9989 21.2871 36.8689 21.2171C36.8989 20.9471 37.3589 21.0871 37.0589 20.7371C37.1089 20.6471 37.2189 20.7171 37.2689 20.6871V20.7171C37.3689 20.5471 37.3989 20.4971 37.4989 20.3971C37.5089 20.3171 37.3589 20.1671 37.4789 20.0971C37.5189 20.1871 37.5389 20.1371 37.5689 20.0971C37.5589 20.1271 37.5689 20.1571 37.6589 20.1471C37.6489 20.1271 37.6389 20.1071 37.6389 20.0871C37.6389 20.0871 37.6489 20.0871 37.6589 20.0971C37.6889 20.0171 37.6589 20.0071 37.6289 20.0271C37.6289 20.0171 37.6089 20.0071 37.5789 19.9971C37.7189 19.9971 37.7289 19.8171 37.8489 19.9071C37.9889 19.7071 37.9889 19.4771 38.0889 19.2871C38.1589 19.3171 38.1689 19.3971 38.1589 19.4671L38.2389 19.3471C38.3189 19.4171 38.2289 19.4471 38.2089 19.4971C38.4489 19.4971 38.3289 19.1271 38.5789 19.0871L38.5489 18.9971H38.5689C38.5689 18.9971 38.5189 18.8971 38.5389 18.8571C38.6289 18.8971 38.6889 19.0071 38.7589 18.9371C38.8789 18.9371 38.8789 18.7471 38.9189 18.6471C38.8689 18.6771 38.8489 18.6271 38.8389 18.5871C38.8689 18.5471 38.9589 18.5871 38.9589 18.5371L39.0489 18.6271C38.9489 18.5571 39.0489 18.4471 39.0289 18.3971C39.1089 18.4471 39.0289 18.5071 39.0689 18.5671C39.1989 18.4171 39.1389 18.4971 39.2689 18.3471C39.2789 18.2071 39.1689 18.2771 39.1289 18.1571C39.1789 18.0771 39.1889 17.9471 39.3189 17.9271L39.2189 17.8671C39.2889 17.6871 39.3789 17.6171 39.5389 17.6271C39.7389 16.8571 39.6089 16.5571 39.3989 16.4671C39.1989 16.3771 38.9289 16.4971 38.9289 16.4971C38.3489 16.6771 38.3489 17.1171 37.9589 17.6271L37.9689 17.6471Z" fill="#8E8E8E"/>
<path d="M57.9883 13.8262L58.1283 13.9962C58.1283 13.9962 58.1083 13.9262 57.9883 13.8262Z" fill="#8E8E8E"/>
<path d="M56.8681 59.9551L56.8281 59.9851L56.8681 59.9551Z" fill="#8E8E8E"/>
<path d="M62.2177 20.6359L62.2077 20.6259L62.1777 20.5859L62.2177 20.6359Z" fill="#8E8E8E"/>
<path d="M55.1386 13.7658C55.6986 14.1058 56.1386 14.3958 56.5386 14.6558C56.9386 14.9058 57.2186 15.2258 57.5486 15.4858C58.1986 15.9958 58.7786 16.6158 59.7686 17.5358C60.1786 18.0358 60.6386 18.5158 61.0486 19.0458C61.4386 19.5858 61.8586 20.1058 62.2086 20.6358C62.6386 21.0858 63.0886 22.0658 63.5086 22.6558L63.5486 22.9558C63.6986 23.1558 63.8586 23.4058 63.9186 23.6558H63.8886C64.1186 23.9558 64.2486 24.3558 64.3486 24.5158H64.3186L64.4986 24.9258L64.4286 24.8658C64.7286 25.4458 65.0186 26.0558 65.1386 26.6458L65.2386 26.5658C65.4886 27.8158 65.8786 28.1858 65.9786 29.3458H65.9486C66.2686 30.0058 66.3486 30.5758 66.3786 31.1658C66.4086 31.7458 66.4886 32.3258 66.6986 33.0458C66.6486 32.8658 66.6486 33.1358 66.6186 33.1258C66.7186 33.8058 66.8086 34.5358 67.0386 34.5258C67.0886 35.0258 67.0086 34.9358 66.9186 35.0158C67.0186 35.0158 67.0786 35.4458 67.0986 35.8358L67.0586 35.6558L67.1286 36.7858L67.3086 36.5558C67.2686 37.1558 67.0886 36.7158 67.1386 37.2858H67.2986C67.2386 38.1158 66.9886 38.5958 66.8486 39.3758C66.5886 42.6458 66.1586 46.2758 64.6786 49.0058L64.5186 49.0858C64.3386 49.0658 64.4186 49.9658 64.2286 50.0058C64.2086 50.1258 64.1686 50.2358 64.1386 50.3558C64.0586 50.4258 63.9286 50.5958 63.9786 50.4258C63.8186 50.7058 63.8386 50.7258 63.7686 50.9658L63.5086 51.2258C63.1886 51.7858 62.8786 52.2958 62.5586 52.8058C62.2586 53.3358 61.9486 53.8658 61.4786 54.3558C61.1686 54.6258 60.8486 55.0058 60.4686 55.3858C60.0686 55.7558 59.6486 56.1658 59.2386 56.5858C58.3386 57.3558 57.4386 58.1658 56.6786 58.6258C56.1786 58.9958 55.6286 59.3558 54.9886 59.5658C54.3586 59.7858 53.7486 60.0858 53.0686 60.1958C52.3986 60.3258 51.7586 60.5258 51.0986 60.6358C50.4386 60.7358 49.7986 60.8658 49.1786 61.0558C49.0986 61.0558 48.8886 61.1358 48.8886 61.1458L46.5486 61.2858C46.5486 61.2858 46.3686 61.3058 46.0786 61.2858C45.7886 61.2858 45.3686 61.2658 44.9086 61.2558C44.4386 61.2358 43.9186 61.2558 43.3986 61.2358C42.8786 61.1858 42.3686 61.1558 41.9186 61.1358C40.1486 61.0658 39.2986 61.3258 43.7086 62.5658L43.6486 62.6058C44.9886 62.7258 45.8586 62.8258 46.7786 62.5958C46.9386 62.8158 47.8886 62.5458 48.2086 62.5958L48.1786 62.6158C48.9886 62.4158 49.8986 62.5658 50.6586 62.2658C50.6286 62.2858 50.6286 62.3558 50.4486 62.3958C51.0186 62.2558 51.7986 62.0858 51.8686 62.1758C52.5486 61.9658 53.3386 61.7158 54.0886 61.4758C54.7986 61.1558 55.4386 60.8258 55.8086 60.5558L55.7686 60.6158C56.1786 60.2958 56.3586 60.3258 56.8186 59.9658C56.8586 59.9658 56.8886 59.9558 56.8886 59.9658C57.2886 59.5458 58.2886 59.1558 58.5886 58.7958L58.6586 58.8458L59.5286 58.1558L59.1886 58.3858C59.1286 58.0858 59.9886 58.0458 60.4386 57.3358C60.9886 56.8158 61.2086 55.9658 61.7486 55.4458C61.8986 55.0958 61.6786 55.8158 61.9686 55.3358C62.0786 55.4058 61.8686 55.5858 62.0286 55.5458C62.3286 55.0858 62.7086 54.9558 63.0486 54.3758L63.1486 54.4158C63.4886 53.5858 64.1886 53.1258 64.3486 52.5358C64.7086 51.7058 64.8986 52.1458 65.1686 51.2358L65.4586 50.9758C65.6786 50.6358 65.4386 50.6458 65.6786 50.2658C65.7486 50.3258 65.9686 49.7758 65.9286 50.0458C66.1886 49.6058 66.3586 49.1158 66.5286 48.5958C66.6686 48.0558 66.8386 47.4958 67.1586 46.8958C67.1086 46.5758 67.3586 45.9558 67.2886 45.7158C67.3686 45.6958 67.6286 44.4258 67.5986 45.1858C67.5986 45.2558 67.5686 45.3658 67.5386 45.3458L67.6086 45.4558C67.9786 44.7658 67.8486 44.0958 67.9886 43.3658C67.9186 43.5758 67.8786 43.8758 67.8486 43.6658L67.9786 42.9858L68.0386 43.1458L68.2586 42.1258L68.1386 42.2558C68.2886 41.7658 68.4486 41.6058 68.3686 41.0158C68.3186 40.7458 68.1886 41.4758 68.2086 40.9458C68.3586 40.2858 68.5586 39.2758 68.5886 38.4158C68.4686 38.4958 68.4786 38.2558 68.4686 38.0258L68.5686 37.9958C68.4486 37.0758 68.8286 37.6658 68.6886 36.7458L68.7586 36.8258L68.5386 36.5858C68.3086 35.7758 68.7286 36.1358 68.4286 35.2358C68.4586 35.5958 68.2186 35.4158 68.2386 34.9758L68.3386 35.0858C68.3086 34.8458 68.2686 34.7658 68.2686 34.6058C68.3386 34.7458 68.4186 34.6758 68.3586 34.3158L68.4986 34.5458L68.2586 33.8858C68.3086 33.3558 68.1086 32.5358 68.1986 32.3058C68.1986 32.3058 68.0786 31.1758 67.8886 30.9458C68.0186 31.1558 67.9486 30.5358 68.0886 30.6858C67.9586 30.4058 67.6786 29.5858 67.6986 29.2158L67.7286 29.2758C67.5686 27.9858 67.0386 27.1858 66.8186 26.0458C66.7286 26.1358 66.5986 25.5258 66.5086 25.7258C65.9386 24.6758 66.0186 23.5758 65.4086 23.3658C65.1486 22.8858 65.2286 22.7458 65.1286 22.4758L65.2086 22.5858C64.7386 21.6858 64.6086 21.4158 64.2186 20.7658C63.9886 20.4658 63.7786 20.5158 63.4786 19.9158C63.6586 20.0558 63.5086 19.8258 63.3786 19.6158C63.4786 19.7458 63.5386 19.7658 63.3986 19.4658C63.3486 19.4458 63.2986 19.3958 63.2486 19.3458C63.2486 19.3458 63.2486 19.3258 63.2586 19.3258C62.9886 18.9958 63.0086 19.0758 63.1186 19.2358C63.0986 19.2358 63.0986 19.2558 63.1186 19.3158C62.9586 18.8958 62.4086 18.3258 62.4986 18.1958C62.1286 17.6758 61.6986 17.3258 61.3386 16.9558C60.9686 16.5858 60.6086 16.2558 60.1986 15.9258C60.1686 15.7958 60.3886 15.9158 60.6386 16.1058L60.0786 15.6058C60.1586 15.5358 60.4386 15.8558 60.6186 16.0058C60.0786 15.2658 59.1886 14.8358 58.4186 14.1158L58.1986 14.0558L58.1586 14.0058C58.1586 14.0058 57.9086 13.9558 57.7786 13.8658C57.7086 13.7058 57.9286 13.6758 57.4786 13.4058C57.1686 13.1158 56.4386 12.8458 55.9486 12.6258C56.1886 12.7858 56.0886 12.7858 55.9686 12.7558C55.7486 12.6158 55.6486 12.4958 55.4386 12.4458L55.4686 12.3258C55.5086 12.4758 54.7886 12.1758 54.6786 12.1858C54.5786 12.0458 55.0786 12.2658 55.1686 12.2358C54.2086 11.8458 54.6886 12.0358 53.7286 11.6458C53.2186 11.5558 53.7686 11.7858 53.4986 11.8058C53.0686 11.6558 52.6086 11.5458 52.1786 11.2158L52.2786 11.3958C51.4586 11.0458 51.0186 10.7258 50.5786 10.3058C49.0486 9.55582 48.1186 9.38582 47.6686 9.40582C47.2186 9.40582 47.1886 9.54582 47.3986 9.71582C47.5786 9.88582 47.9186 10.0758 48.2086 10.2758C48.5186 10.4858 48.7586 10.6358 48.7586 10.6358C49.7386 11.3458 50.5786 11.9558 51.6186 12.4458C52.1286 12.6958 52.6886 12.9258 53.3386 13.1158C53.8986 13.3058 54.4786 13.5258 55.1686 13.7958L55.1386 13.7658Z" fill="#8E8E8E"/>
<path d="M37.399 12.6465L37.209 12.6665C37.209 12.6665 37.269 12.6865 37.399 12.6465Z" fill="#8E8E8E"/>
<path d="M26.8691 54.3672L26.9091 54.3972L26.8691 54.3672Z" fill="#8E8E8E"/>
<path d="M30.3184 15.7963C30.3184 15.7963 30.3384 15.7563 30.3484 15.7363L30.3184 15.7963Z" fill="#8E8E8E"/>
<path d="M39.3687 10.6463C38.7187 10.7363 38.0987 10.8763 37.5887 10.9563C37.0987 11.1163 36.6587 11.2563 36.2187 11.3963C35.3787 11.7463 34.5287 12.1363 33.3787 13.0163C32.8087 13.3963 32.2887 13.8863 31.7487 14.3363C31.2587 14.8263 30.7687 15.3263 30.3087 15.7963C30.0287 16.3863 29.1287 17.0563 28.8087 17.7463L28.5587 17.9063C28.4387 18.1363 28.2887 18.3863 28.0887 18.5563V18.5263C27.8887 18.8563 27.6287 19.1863 27.5487 19.3663V19.3363L27.2887 19.7163V19.6263C26.9887 20.2063 26.6087 20.7663 26.2787 21.2663L26.3987 21.2863C25.6087 22.2963 25.5987 22.8263 24.9287 23.7563L24.9087 23.7263C24.6887 24.4263 24.4187 24.9263 24.1187 25.4263C23.8187 25.9263 23.5187 26.4263 23.3787 27.1863C23.4187 26.9963 23.2887 27.2363 23.2687 27.2163C23.0387 27.8663 22.7787 28.5463 22.9987 28.6463C22.8387 29.1163 22.7987 29.0063 22.6987 29.0363C22.7987 29.0663 22.6987 29.4863 22.5687 29.8563L22.5887 29.6763L22.2587 30.7463L22.5087 30.5963C22.2787 31.1363 22.2487 30.6663 22.1287 31.2263L22.2787 31.2663C22.0387 32.0463 21.6487 32.4363 21.3687 33.1863C20.5387 36.4163 20.6087 40.0063 20.6287 43.0963L20.5187 43.2463C20.3487 43.3263 20.8387 44.0763 20.7187 44.2063L20.8587 44.5563C20.8487 44.6563 20.8487 44.8763 20.7787 44.7063C20.8287 45.0363 20.8587 45.0463 20.9487 45.2663L20.8987 45.6363C21.1087 46.9563 21.5787 47.9963 22.0687 49.3063C22.1587 49.7263 22.3187 50.2163 22.5887 50.7163C22.8487 51.2163 23.0987 51.7863 23.4587 52.2863C23.8187 52.7763 24.1887 53.2763 24.5387 53.7563C24.9287 54.1863 25.3187 54.5663 25.6287 54.8963C26.0687 55.3563 26.5787 55.7863 27.0587 56.2563C27.2887 56.4963 27.5287 56.7363 27.7787 56.9863C28.0387 57.2063 28.3087 57.4263 28.5687 57.6563C29.5987 58.5963 30.8187 59.3263 32.0287 59.8163C32.0987 59.8763 32.3187 59.9063 32.3287 59.8863L34.5087 60.8263C34.5087 60.8263 35.1887 61.0363 36.0887 61.3063C36.9787 61.6063 38.1287 61.8063 39.0087 61.9063C40.7887 62.1263 41.4187 61.9263 37.4887 60.3363L37.5487 60.3163C36.3887 59.8563 35.6587 59.6163 34.7887 59.5263C34.7487 59.2563 33.8687 59.1063 33.6287 58.9263H33.6587C33.2787 58.8563 32.9387 58.6663 32.5987 58.4863C32.2787 58.2763 31.9687 58.0463 31.6187 57.9463C31.6487 57.9463 31.6987 57.8963 31.8387 57.9763C31.3687 57.7463 30.7187 57.4463 30.7487 57.3063C30.1987 57.0063 29.6287 56.5363 29.0487 56.1563C28.4587 55.7863 28.0287 55.3263 27.6387 55.1563H27.7087C27.2787 54.9563 27.2387 54.7963 26.8387 54.4763C26.8387 54.4463 26.8187 54.4063 26.8287 54.4063C26.3987 54.1263 25.8687 53.3163 25.5587 53.0463L25.6187 52.9663L25.0487 52.1563L25.2387 52.4763C24.9687 52.5063 24.9387 51.7763 24.4287 51.2563C24.1587 50.6463 23.3387 50.2763 23.1387 49.5663C22.9087 49.2963 23.4187 49.7763 23.1587 49.3363C23.2687 49.2763 23.3187 49.5263 23.3687 49.3663C23.1387 48.9263 23.1987 48.5663 22.9087 48.0263L22.9887 47.9663C22.5387 47.2763 22.7187 46.4963 22.3987 46.0363C22.1187 45.2563 22.5787 45.4463 22.2387 44.6463L22.3187 44.2963C22.2787 43.9363 22.1087 44.0663 22.1087 43.6563C22.1987 43.6663 22.1387 43.1463 22.2387 43.3663C22.3087 42.4563 21.8787 41.5363 22.1487 40.3363C21.9887 40.0763 22.0687 39.4663 21.9787 39.2663C22.0487 39.2363 22.0887 38.0563 22.1887 38.7463C22.1887 38.8063 22.1887 38.9063 22.1587 38.8963L22.2487 38.9863C22.4987 38.3263 22.2187 37.7363 22.3487 37.0663C22.2887 37.2663 22.2587 37.5263 22.2187 37.3463L22.3287 36.7263L22.3887 36.8663L22.5787 35.9463L22.4587 36.0563C22.5887 35.6063 22.7587 35.4763 22.7287 34.9463C22.6987 34.6963 22.4987 35.3463 22.5687 34.8663C22.7787 34.2763 23.0287 33.3863 23.2887 32.6463C23.1587 32.6863 23.2187 32.4863 23.2587 32.2663H23.3587C23.4487 31.4263 23.6487 32.0363 23.7687 31.2063L23.8187 31.2963L23.6887 31.0263C23.7487 30.2563 24.0187 30.7063 24.0287 29.8363C23.9387 30.1563 23.7687 29.9163 23.9487 29.5363L24.0087 29.6663C24.0587 29.4463 24.0487 29.3663 24.1187 29.2263C24.1187 29.3763 24.2287 29.3363 24.3187 29.0263L24.3587 29.2763C24.3587 29.0563 24.3987 28.8463 24.4187 28.6363C24.6987 28.2263 24.8587 27.4663 25.0587 27.3363C25.0587 27.3363 25.1687 27.0963 25.2887 26.8363C25.4087 26.5763 25.5287 26.2763 25.5087 26.1363C25.5087 26.3663 25.7787 25.8663 25.8087 26.0563C25.8287 25.7663 26.0787 25.0063 26.3487 24.7863L26.3287 24.8463C26.9687 23.8663 27.1387 23.0063 27.8187 22.1863C27.6987 22.1663 28.0387 21.7263 27.8387 21.7663C28.3087 20.7663 29.1987 20.3063 29.0587 19.7063C29.3487 19.2963 29.5087 19.3063 29.6887 19.1263L29.6387 19.2363C30.1787 18.4863 30.3387 18.2663 30.8187 17.7663C31.0187 17.4863 30.8987 17.2963 31.3487 16.8763C31.2787 17.0863 31.4287 16.8763 31.5987 16.7163C31.4987 16.8263 31.4887 16.8763 31.7487 16.7163C31.7587 16.6663 31.7987 16.6163 31.8287 16.5563H31.8487C32.0987 16.2663 32.0387 16.2963 31.8987 16.4163C31.8987 16.3963 31.8687 16.3963 31.8187 16.4163C32.1787 16.2163 32.6187 15.6363 32.7487 15.7063C33.5987 14.9363 34.1387 14.2963 34.9187 13.7263C35.0487 13.7263 34.8987 13.9063 34.6887 14.0863L35.2287 13.6863C35.2787 13.7763 34.9387 13.9563 34.7787 14.0863C35.5187 13.7663 36.0987 13.0663 37.0087 12.8263L37.1587 12.6763H37.2187C37.2187 12.6763 37.3687 12.4963 37.4987 12.4363C37.6487 12.4763 37.5587 12.6463 37.9887 12.4763C38.3587 12.4763 38.9487 12.2063 39.4187 12.0563C39.1487 12.0863 39.2287 12.0163 39.3387 11.9663C39.5787 11.9263 39.7287 11.9963 39.9087 11.9263L39.9487 12.0463C39.8387 11.9463 40.5587 11.8163 40.6387 11.7463C40.7887 11.8163 40.2787 11.8863 40.2287 11.9663C41.1987 11.7863 40.7187 11.8763 41.6787 11.6663C42.1687 11.4563 41.5587 11.5663 41.7787 11.4063C42.2287 11.2863 42.6387 11.0763 43.1687 10.9963L42.9787 10.9363C43.7787 10.6063 44.2587 10.4363 44.8487 10.3263C47.6087 8.66633 47.8587 8.30633 47.3387 8.26633C46.8187 8.24633 45.6087 8.65633 45.6087 8.65633C44.3987 9.03633 43.5887 9.38633 42.6887 9.71633C41.7887 10.0463 40.8187 10.3763 39.3787 10.6363L39.3687 10.6463Z" fill="#8E8E8E"/>
<path d="M52.3789 15.9277V16.0877C52.3789 16.0877 52.4089 16.0377 52.3789 15.9277Z" fill="#8E8E8E"/>
<path d="M52.2895 22.0068C52.2895 22.0068 52.2795 21.9768 52.2695 21.9668L52.2895 22.0068Z" fill="#8E8E8E"/>
<path d="M50.3991 14.6869C51.0291 16.5669 50.9891 17.1169 51.5891 19.0869C51.8091 20.0469 52.0991 21.0569 52.2891 21.9969C52.5391 22.4169 52.5291 23.2369 52.7391 23.7569L52.6791 23.9769C52.7591 24.1569 52.8191 24.3669 52.7991 24.5569H52.7691C52.8791 24.8169 52.8891 25.1369 52.9391 25.2669H52.9091L52.9591 25.5969L52.9091 25.5469C53.0391 26.0269 53.0991 26.5269 53.1191 26.9669L53.2291 26.9169C53.1891 27.8769 53.4491 28.1969 53.3591 29.0669H53.3291C53.6791 30.1269 53.2191 30.7769 53.5191 31.8769C53.4791 31.7369 53.4591 31.9369 53.4291 31.9269C53.4691 32.4369 53.4891 32.9869 53.7191 32.9969C53.7191 33.3769 53.6491 33.3069 53.5591 33.3469C53.6591 33.3469 53.6891 33.6769 53.6891 33.9669L53.6591 33.8269V34.6669L53.8591 34.5069C53.7891 34.9569 53.6291 34.6169 53.6591 35.0369H53.8191C53.7791 35.6569 53.4991 36.0069 53.3491 36.5869C53.1191 39.0269 53.1391 41.7369 52.3591 43.9169L52.2191 43.9869C52.0391 43.9869 52.3091 44.6569 52.1291 44.7069V44.9869C52.0891 45.0469 52.0191 45.1969 52.0191 45.0569C51.9491 45.2969 51.9791 45.3069 51.9791 45.4869L51.8091 45.7169C51.4391 46.6169 51.4191 47.4669 51.0091 48.4069C50.3991 49.4769 49.6391 51.6369 49.0291 52.8169C48.2791 54.5669 46.4791 55.9069 45.3191 57.3469C45.2591 57.3769 45.1891 57.5269 45.1991 57.5369C44.7891 57.9369 44.3091 58.2569 43.8691 58.6269C43.8691 58.6269 43.7691 58.7069 43.5991 58.8469C43.4291 58.9869 43.1691 59.1369 42.8991 59.3369C42.6291 59.5369 42.3191 59.7569 41.9991 59.9769C41.6791 60.1769 41.3591 60.3669 41.0891 60.5569C40.5491 60.9269 40.1891 61.2469 40.3691 61.3769C40.5391 61.4869 41.2791 61.4769 42.9291 60.9269L42.9091 60.9869C43.7891 60.4969 44.3791 60.1969 44.7791 59.5869C45.0091 59.6969 45.4391 59.0769 45.6691 58.9869V59.0169C46.0291 58.5069 46.6791 58.2369 46.9991 57.7169C46.9991 57.7469 47.0291 57.7969 46.9391 57.8969C47.2291 57.5769 47.5991 57.1069 47.7091 57.1569C48.0391 56.7469 48.4191 56.2669 48.7791 55.8169C49.0891 55.3369 49.3591 54.8769 49.4491 54.5469V54.6069C49.5391 54.2169 49.7291 54.2069 49.8691 53.7969C49.8991 53.7869 49.9191 53.7669 49.9191 53.7769C49.9991 53.3469 50.4891 52.7369 50.5991 52.4169L50.6891 52.4369C50.8291 52.2069 50.9191 51.9469 51.0291 51.7069L50.8791 51.9669C50.7091 51.7669 51.2791 51.4869 51.3891 50.8869C51.6691 50.4069 51.3691 49.6769 51.6791 49.1969C51.6791 48.9069 51.7691 49.4869 51.8291 49.0769C51.9491 49.1069 51.8291 49.2769 51.9691 49.2169C52.0491 48.8269 52.3391 48.6569 52.4191 48.1669H52.5191C52.5391 47.5169 53.0091 47.0669 52.9791 46.6169C53.0991 45.9669 53.3891 46.2769 53.3791 45.5569L53.5791 45.3369C53.6791 45.0569 53.4691 45.0869 53.6191 44.7969C53.6991 44.8369 53.7891 44.4169 53.8191 44.6169C54.1291 43.9269 53.9491 43.1069 54.3691 42.1969C54.2491 41.9569 54.4091 41.4969 54.3191 41.3169C54.3891 41.3069 54.4791 40.3469 54.5491 40.9169C54.5491 40.9669 54.5491 41.0469 54.5091 41.0369L54.5991 41.1169C54.8591 40.5969 54.6691 40.1069 54.7491 39.5669C54.6991 39.7269 54.6891 39.9369 54.6291 39.7869L54.6991 39.2869L54.7691 39.3969L54.8991 38.6469L54.7891 38.7369C54.8791 38.3769 55.0691 38.2569 54.9691 37.8269C54.9091 37.6269 54.7991 38.1669 54.8091 37.7669C54.9091 37.2769 55.0691 36.5469 55.1391 35.9169C55.0191 35.9669 55.0391 35.7969 55.0291 35.6269L55.1291 35.6069C55.0191 34.9269 55.3591 35.3669 55.2691 34.6969L55.3391 34.7569L55.1391 34.5769C54.9591 33.9669 55.3591 34.2569 55.0991 33.5869C55.0991 33.8469 54.8791 33.7069 54.9291 33.3869L55.0191 33.4669C55.0091 33.2869 54.9591 33.2269 54.9791 33.1069C55.0291 33.2169 55.1191 33.1669 55.0991 32.8969L55.2191 33.0769L55.0391 32.5769C55.1391 32.1869 54.9991 31.5869 55.1391 31.4169C55.1391 31.4169 55.1791 30.5869 55.0191 30.3969C55.1191 30.5569 55.1291 30.0969 55.2491 30.2269C55.1391 30.0169 55.0191 29.3869 55.1191 29.1269V29.1769C55.1791 28.2269 54.8591 27.5869 54.9191 26.7369C54.8091 26.7869 54.8191 26.3369 54.6891 26.4669C54.4391 25.6169 54.8191 24.8469 54.3091 24.5969C54.2291 24.2069 54.3491 24.1169 54.3391 23.9169L54.3791 24.0069C54.2291 23.2769 54.2091 23.0669 54.1191 22.5169C54.0291 22.2569 53.8091 22.2469 53.7691 21.7569C53.8791 21.8969 53.8291 21.7069 53.7991 21.5169C53.8291 21.6269 53.8691 21.6569 53.8791 21.4169C53.8491 21.3869 53.8191 21.3369 53.7991 21.2969C53.7991 21.2969 53.7991 21.2869 53.8191 21.2869C53.7391 20.9869 53.7191 21.0469 53.7291 21.1869C53.7191 21.1869 53.6991 21.1969 53.6891 21.2469C53.7491 20.9069 53.4991 20.3769 53.6291 20.3069C53.4091 19.4069 53.0991 18.7969 52.8491 18.0769C52.8991 17.9769 53.0091 18.1269 53.0891 18.3369L52.9291 17.8169C53.0291 17.7969 53.0691 18.1069 53.1291 18.2669C53.1391 17.5869 52.6091 17.0169 52.5291 16.2469L52.3991 16.1169V16.0669C52.3991 16.0669 52.2491 15.9369 52.1991 15.8369C52.2491 15.7069 52.4091 15.7769 52.2691 15.4169C52.2491 15.1069 51.9391 14.6269 51.7591 14.2769C51.8191 14.4769 51.7491 14.4369 51.6891 14.3569C51.6091 14.1869 51.6591 14.0469 51.5591 13.9269L51.6691 13.8669C51.5891 13.9769 51.3591 13.4569 51.2891 13.4169C51.3291 13.2769 51.4791 13.6569 51.5591 13.6769C51.2391 12.9769 51.4291 13.3169 51.0791 12.6369C50.8091 12.3069 51.0091 12.7569 50.8191 12.6369C50.6291 12.3269 50.4191 12.0469 50.2791 11.6569L50.2491 11.8269C49.8291 11.2969 49.6591 10.9369 49.4691 10.5169C48.5591 9.59688 47.8491 9.39688 47.5391 9.35688C47.2091 9.31688 47.1391 9.44688 47.2591 9.62688C47.3291 9.80688 47.4891 10.0169 47.6391 10.1669C47.7791 10.3769 47.8991 10.5369 47.8991 10.5369C48.3591 11.2069 48.7191 11.7869 49.1391 12.3869C49.5391 12.9969 49.9791 13.6669 50.4391 14.6969L50.3991 14.6869Z" fill="#8E8E8E"/>
</svg>
