<svg width="32" height="32" viewBox="0 0 32 32" fill="none" xmlns="http://www.w3.org/2000/svg">
<path d="M6 16.9868C6 16.2452 6.41029 15.5646 7.066 15.2183L16 10.5L24.934 15.2183C25.5897 15.5646 26 16.2452 26 16.9868V25.7812C26 26.8858 25.1046 27.7812 24 27.7812H8C6.89543 27.7812 6 26.8858 6 25.7812V16.9868Z" stroke="black" stroke-width="2"/>
<circle cx="16" cy="18" r="2" stroke="black" stroke-width="2"/>
<path d="M15 5.99653C15 5.01469 15.7959 4.21875 16.7778 4.21875C17.3313 4.21875 17.5075 4.965 17.0124 5.21256L16.7663 5.33562C16.5533 5.44211 16.5072 5.72597 16.6756 5.89435C16.741 5.95977 16.7778 6.04851 16.7778 6.14103V10.3299C16.7778 10.8208 16.3798 11.2188 15.8889 11.2188C15.398 11.2188 15 10.8208 15 10.3299V5.99653Z" fill="black"/>
<path d="M16 7.21875C16 7.77103 16.4477 8.21875 17 8.21875H21C21.5523 8.21875 22 7.77103 22 7.21875V6.21875C22 5.66647 21.5523 5.21875 21 5.21875H17C16.4477 5.21875 16 5.66647 16 6.21875V7.21875Z" stroke="black" stroke-width="2" stroke-linejoin="round"/>
</svg>
