<svg width="71" height="71" viewBox="0 0 71 71" fill="none" xmlns="http://www.w3.org/2000/svg">
<path d="M12.0664 54.2402L12.1964 54.3802C12.1964 54.3802 12.1764 54.3202 12.0664 54.2402Z" fill="#8E8E8E"/>
<path d="M59.1152 43.6299C59.1152 43.6299 59.1352 43.6098 59.1452 43.5898C59.1252 43.6198 59.1152 43.6299 59.1152 43.6299Z" fill="#8E8E8E"/>
<path d="M19.1967 57.4004H19.1867C19.1867 57.4004 19.1567 57.4004 19.1367 57.4104H19.1967V57.4004Z" fill="#8E8E8E"/>
<path d="M9.29578 53.6598C10.2358 54.7098 10.9158 55.3498 11.7158 55.9098C12.1158 56.1898 12.5758 56.4198 13.1358 56.6298C13.6658 56.7998 14.2758 56.9798 15.0058 57.0598C16.3958 57.3298 17.8558 57.3698 19.1858 57.3898C19.8158 57.2398 20.9258 57.4198 21.6658 57.2598L21.9557 57.3498C22.2057 57.2998 22.5057 57.2598 22.7657 57.2998L22.7458 57.3298C23.1258 57.2398 23.5558 57.2598 23.7458 57.2198V57.2498L24.1958 57.2198L24.1158 57.2598C24.7758 57.1498 25.4558 57.0798 26.0558 57.0698L25.9958 56.9598C27.2858 56.9798 27.7258 56.6798 28.8958 56.7098V56.7398C30.2958 56.2398 31.2058 56.6398 32.6558 56.0998C32.4758 56.1698 32.7458 56.1498 32.7358 56.1798C33.4158 56.0398 34.1458 55.8698 34.1058 55.6498C34.6058 55.5598 34.5258 55.6498 34.6058 55.7198C34.5858 55.6198 35.0058 55.4998 35.3958 55.4198L35.2258 55.4898C35.5958 55.4098 35.9557 55.3098 36.3257 55.2198L36.0658 55.0798C36.6558 54.9998 36.2658 55.2698 36.8158 55.0998L36.7758 54.9498C37.5858 54.7998 38.1158 54.9298 38.9258 54.8298C42.1958 54.0798 45.4958 52.5998 48.4658 51.6498L48.6358 51.7098C48.7558 51.8398 49.3358 51.1398 49.5058 51.2398L49.8058 51.0198C49.9058 50.9998 50.1158 50.9398 49.9758 51.0498C50.2858 50.9098 50.2758 50.8797 50.4758 50.7297L50.8458 50.6698C52.0958 50.1898 52.9858 49.4598 54.2258 48.8098C55.8158 48.1798 58.3258 46.1698 59.6158 44.8598C60.0458 44.3698 60.5258 43.8998 61.0358 43.4398C61.5058 42.9698 62.0158 42.4598 62.5258 41.9497C63.0058 41.4298 63.4458 40.8598 63.8758 40.2998C64.2758 39.7198 64.5858 39.0798 64.8558 38.4698C64.9258 38.4098 64.9857 38.1798 64.9557 38.1698C65.2658 37.4098 65.6458 36.6798 65.8858 35.8898C65.8858 35.8898 66.0758 35.1698 66.3358 34.2198C66.4458 33.2498 66.6758 32.0498 66.5458 31.1298C66.4858 30.2098 66.3658 29.5898 66.1758 29.7498C66.0758 29.8298 65.9558 30.0998 65.8158 30.6198C65.6658 31.1298 65.5558 31.8898 65.1758 32.8998L65.1458 32.8398C64.9258 34.0698 64.6058 34.7798 64.5858 35.6698C64.3658 35.7398 64.1758 36.6098 64.0058 36.8598V36.8298C63.9058 37.6198 63.1958 38.1698 62.9758 38.8798C62.9758 38.8498 62.9258 38.7998 63.0058 38.6498C62.8858 38.8898 62.7558 39.1798 62.6158 39.3898C62.4658 39.5998 62.3358 39.7398 62.2758 39.7198C61.6058 40.7998 60.3858 42.0898 59.9458 42.8198V42.7498C59.7258 43.1798 59.5358 43.1898 59.2057 43.5998C59.1758 43.5998 59.1358 43.6298 59.1358 43.6198C58.8758 44.0998 58.0058 44.6098 57.7258 44.9298L57.6458 44.8798C57.3858 45.0998 57.1358 45.3298 56.8458 45.5298C56.9558 45.4598 57.0658 45.3998 57.1658 45.3198C57.2158 45.5998 56.4358 45.6498 55.9258 46.2098C55.3558 46.5998 55.0157 47.4198 54.3257 47.6998C54.0857 47.9798 54.4958 47.3797 54.0958 47.7297C54.0158 47.6297 54.2658 47.5298 54.0958 47.5198C53.6958 47.8398 53.3158 47.8498 52.8058 48.2098L52.7358 48.1298C52.0958 48.6698 51.3258 48.7598 50.8958 49.1398C50.1658 49.5798 50.2558 49.1198 49.5458 49.6698L49.1858 49.6898C48.8358 49.8198 49.0058 49.9498 48.5958 50.0498C48.5858 49.9598 48.0858 50.1898 48.2758 50.0198C47.8158 50.1398 47.3958 50.3698 46.9258 50.5998C46.4558 50.8198 45.9358 51.0298 45.3158 51.1398C45.1158 51.3898 44.4958 51.5198 44.3458 51.6898C44.2858 51.6298 43.1457 52.0698 43.7657 51.6998C43.8157 51.6698 43.9258 51.6398 43.9258 51.6698L43.9758 51.5498C43.2458 51.5898 42.7858 52.0597 42.0958 52.2297C42.3058 52.2097 42.5658 52.1097 42.4158 52.2297L41.7858 52.3998L41.8958 52.2798L40.9458 52.5098L41.1058 52.5698C40.6358 52.6498 40.4258 52.5298 39.9458 52.8198C39.7358 52.9598 40.4158 52.8398 39.9458 52.9998C39.3058 53.0898 38.3558 53.2298 37.5558 53.3898C37.6558 53.4898 37.4458 53.5298 37.2258 53.5998L37.1758 53.5098C36.3658 53.8298 36.8158 53.3698 36.0058 53.6598L36.0658 53.5798L35.8858 53.8298C35.1658 54.1898 35.4358 53.7198 34.6458 54.1498C34.9758 54.0698 34.8458 54.3398 34.4258 54.3698L34.5157 54.2598C34.2957 54.3198 34.2258 54.3798 34.0658 54.3898C34.1958 54.3098 34.1158 54.2398 33.7758 54.3198L33.9758 54.1598L33.3758 54.4598C32.8658 54.4598 32.1058 54.6998 31.8858 54.5998C31.8858 54.5998 30.8258 54.7098 30.5958 54.8898C30.7958 54.7698 30.2058 54.8098 30.3558 54.6798C30.0958 54.8198 29.2957 55.0098 28.9557 54.9498L29.0157 54.9298C27.8057 54.9598 26.9758 55.3298 25.8758 55.2798C25.9358 55.3898 25.3557 55.3698 25.5157 55.5098C24.4057 55.7598 23.4558 55.3398 23.0658 55.8198C22.5558 55.8698 22.4558 55.7498 22.1858 55.7198L22.3058 55.6898C21.3458 55.7398 21.0758 55.7598 20.3658 55.7398C20.0158 55.7798 19.9558 55.9898 19.3158 55.9198C19.5258 55.8398 19.2658 55.8498 19.0258 55.8498C19.1758 55.8398 19.2258 55.8098 18.9158 55.7498C18.8658 55.7798 18.8058 55.7898 18.7358 55.7998C18.7358 55.7998 18.7258 55.7898 18.7358 55.7798C18.3358 55.7798 18.4058 55.8198 18.5858 55.8398C18.5858 55.8498 18.5858 55.8698 18.6458 55.8998C18.2458 55.7698 17.4958 55.8398 17.4658 55.6898C16.2858 55.6198 15.4258 55.6598 14.4658 55.4898C14.3858 55.3798 14.6058 55.3998 14.8858 55.4098C14.6558 55.3898 14.4458 55.3198 14.2158 55.2798C14.2458 55.1798 14.6058 55.3198 14.8158 55.3498C14.0758 54.9798 13.1558 55.1398 12.4658 54.4698L12.2558 54.4298L12.2158 54.3898C12.2158 54.3898 11.9858 54.3598 11.8558 54.2898C11.8058 54.1298 11.9958 54.1198 11.6258 53.8398C11.3958 53.5498 10.8158 53.1698 10.4358 52.8498C10.6058 53.0498 10.5158 53.0298 10.4058 52.9698C10.2358 52.7998 10.2158 52.6298 10.0658 52.5198L10.1458 52.4198C10.1158 52.5698 9.63578 52.0298 9.54578 51.9898C9.53578 51.8198 9.84579 52.2297 9.93579 52.2297C9.32579 51.4897 9.61576 51.8698 9.02576 51.1098C8.63576 50.7498 8.98579 51.2598 8.74579 51.1198C8.45579 50.7598 8.12576 50.4398 7.90576 49.9498V50.1498C7.35576 49.4698 7.10577 48.9998 6.91577 48.4398C5.93577 47.1298 5.41576 46.3598 5.09576 46.0198C4.77576 45.6698 4.67578 45.7498 4.67578 46.0098C4.67578 46.2698 4.78577 46.7198 4.91577 47.0998C5.03577 47.4798 5.16577 47.7898 5.16577 47.7898C5.64577 49.0398 6.17579 49.9098 6.80579 50.7798C7.44579 51.6498 8.17577 52.5298 9.28577 53.6898L9.29578 53.6598Z" fill="#8E8E8E"/>
<path d="M13.2246 51.6504L13.3846 51.7504C13.3846 51.7504 13.3546 51.7004 13.2246 51.6504Z" fill="#8E8E8E"/>
<path d="M57.5742 41.5007L57.6042 41.4707L57.5742 41.5007Z" fill="#8E8E8E"/>
<path d="M10.5551 52.1202C11.1451 52.4102 11.6251 52.6402 12.0651 52.8602C12.5051 53.0302 12.9051 53.1802 13.2951 53.3402C14.0751 53.6802 14.9151 53.8302 16.2451 54.0702C17.5151 54.2402 18.8751 54.4002 20.1251 54.3702C20.7151 54.2102 21.7551 54.4502 22.4451 54.2602L22.7151 54.3502C22.9551 54.2902 23.2351 54.2502 23.4751 54.2902V54.3202C23.8151 54.2302 24.2151 54.2602 24.3951 54.2202V54.2502L24.8151 54.2202L24.7451 54.2602C25.3551 54.1302 25.9851 54.0602 26.5551 54.0402L26.4951 53.9302C27.7051 53.9302 28.1151 53.6702 29.1951 53.6402V53.6702C30.4751 53.1402 31.3651 53.5802 32.6851 52.9902C32.5251 53.0602 32.7651 53.0302 32.7651 53.0602C33.3951 52.8902 34.0651 52.7302 34.0251 52.5102C34.4851 52.4202 34.4151 52.5102 34.4951 52.5702C34.4751 52.4702 34.8651 52.3502 35.2151 52.2702L35.0551 52.3402C35.3951 52.2602 35.7351 52.1802 36.0751 52.0702L35.8351 51.9402C36.3851 51.8502 36.0251 52.1302 36.5351 51.9502L36.4951 51.8002C37.2451 51.6402 37.7451 51.7502 38.4951 51.6802C40.0151 51.3502 41.5251 50.7702 43.0251 50.2702C43.4051 50.1402 43.7751 50.0202 44.1451 49.8902L44.4251 49.8002C44.5051 49.7802 44.6851 49.7102 44.7451 49.6802L45.2751 49.4502C45.9851 49.1502 46.6751 48.8802 47.3651 48.6602L47.5251 48.7202C47.6451 48.8602 48.1451 48.1502 48.3151 48.2502L48.5851 48.0402C48.6851 48.0302 48.8751 47.9702 48.7451 48.0802C49.0251 47.9502 49.0251 47.9302 49.2051 47.7802L49.5551 47.7402C50.7051 47.3002 51.5351 46.6202 52.7151 46.0702C54.1851 45.5102 56.6551 43.8902 57.9451 42.7702C58.4051 42.3902 58.8851 42.0002 59.4051 41.6202C59.9351 41.2602 60.4451 40.8702 60.9751 40.4602C62.0251 39.6702 63.0051 38.7202 63.6651 37.6502C63.7351 37.6002 63.8051 37.3902 63.7951 37.3802L64.4551 36.4402C64.6651 36.1202 64.8451 35.7702 65.0351 35.4402C65.0351 35.4402 65.1151 35.2902 65.2551 35.0302C65.3651 34.7602 65.5251 34.3902 65.7051 33.9702C65.8751 33.5402 65.9951 33.0402 66.1451 32.5602C66.2551 32.0702 66.3251 31.5702 66.3851 31.1502C66.4351 30.2902 66.3851 29.6902 66.1751 29.8102C65.9351 29.9102 65.6751 30.7902 64.7751 32.5502L64.7551 32.4902C64.5451 33.0302 64.3651 33.4502 64.1851 33.8302C64.0351 34.2202 63.9151 34.5802 63.7851 34.9702C63.5251 34.9702 63.3151 35.7902 63.0751 35.9602V35.9302C62.9451 36.2702 62.7251 36.5602 62.4751 36.8202C62.2151 37.0702 61.9551 37.3202 61.8051 37.6402C61.8051 37.6102 61.7651 37.5602 61.8651 37.4302C61.5951 37.8402 61.1351 38.3502 61.0151 38.2902C60.2451 39.1902 58.9151 40.2102 58.4251 40.8402L58.4451 40.7802C58.1851 41.1602 58.0151 41.1502 57.6551 41.5002C57.6251 41.5002 57.5851 41.5102 57.5851 41.5002C57.2751 41.8902 56.4351 42.3202 56.1551 42.5902L56.0851 42.5302L55.2751 43.0502L55.5951 42.8802C55.6151 43.1502 54.8951 43.1302 54.3851 43.6302C53.8151 43.9402 53.4751 44.7302 52.8251 44.9602C52.5951 45.2202 52.9851 44.6602 52.6051 44.9702C52.5351 44.8702 52.7651 44.7902 52.6051 44.7602C52.2151 45.0502 51.8551 45.0202 51.3751 45.3602L51.3051 45.2802C50.7051 45.7902 49.9551 45.8202 49.5751 46.2002C48.8951 46.6102 48.9651 46.1602 48.3051 46.6802H47.9551C47.6251 46.8202 47.7951 46.9502 47.4151 47.0602C47.4051 46.9702 46.9351 47.2102 47.1151 47.0402C46.2551 47.2802 45.5351 47.9302 44.3751 48.1802C44.3351 48.2402 44.2651 48.3002 44.1851 48.3502C44.0751 48.4102 44.1051 48.4102 43.9751 48.4602C43.7851 48.5302 43.6051 48.5902 43.5251 48.6802C43.4751 48.6202 42.3951 49.0102 42.9751 48.6802C43.0251 48.6502 43.1251 48.6202 43.1251 48.6502L43.1751 48.5302C42.4851 48.5502 42.0451 48.9802 41.4051 49.1402C41.6051 49.1102 41.8451 49.0302 41.7051 49.1402L41.1151 49.3002L41.2151 49.1802L40.3251 49.4002L40.4751 49.4602C40.0351 49.5402 39.8351 49.4302 39.3951 49.6902C39.1951 49.8202 39.8451 49.7202 39.3951 49.8702C38.7951 49.9502 37.9051 50.0702 37.1651 50.2402C37.2651 50.3302 37.0651 50.3802 36.8651 50.4602L36.8151 50.3702C36.0651 50.7102 36.4751 50.2302 35.7251 50.5402L35.7751 50.4502L35.6151 50.7102C34.9551 51.0702 35.1851 50.5902 34.4651 51.0302C34.7751 50.9502 34.6551 51.2102 34.2651 51.2502L34.3451 51.1402C34.1351 51.2002 34.0751 51.2602 33.9351 51.2702C34.0451 51.1902 33.9751 51.1202 33.6651 51.2002L33.8451 51.0402L33.2951 51.3402C32.8251 51.3402 32.1251 51.6102 31.9151 51.5202C31.9151 51.5202 31.6651 51.5602 31.3951 51.6102C31.1251 51.6602 30.8251 51.7202 30.7251 51.8102C30.9051 51.6902 30.3551 51.7402 30.4951 51.6102C30.2551 51.7502 29.5151 51.9602 29.2051 51.8902L29.2651 51.8702C28.1451 51.9502 27.3851 52.2902 26.3651 52.2502C26.4251 52.3602 25.8851 52.3502 26.0351 52.4802C25.0051 52.7502 24.1251 52.3402 23.7651 52.8002C23.2951 52.8402 23.1951 52.7102 22.9551 52.7002L23.0651 52.6702C22.1751 52.7302 21.9151 52.7802 21.2651 52.7302C20.9351 52.7602 20.8751 52.9702 20.2851 52.9002C20.4751 52.8202 20.2351 52.8302 20.0151 52.8202C20.1551 52.8202 20.2051 52.7802 19.9151 52.7202C19.8751 52.7402 19.8051 52.7602 19.7451 52.7702C19.7451 52.7702 19.7351 52.7602 19.7451 52.7502C19.3751 52.7702 19.4351 52.8002 19.6051 52.8102C19.6051 52.8202 19.6051 52.8402 19.6651 52.8602C19.2851 52.7602 18.6051 52.8002 18.5651 52.6402C17.4751 52.5402 16.6551 52.6402 15.7451 52.4702C15.6551 52.3802 15.8851 52.3502 16.1451 52.3802L15.5051 52.2702C15.5351 52.1702 15.8851 52.2902 16.0851 52.3102C15.3751 51.9702 14.4751 52.2002 13.6651 51.7302L13.4651 51.7502L13.4151 51.7202C13.4151 51.7202 13.1951 51.7602 13.0551 51.7302C12.9651 51.6002 13.1351 51.5302 12.7051 51.4002C12.4051 51.2002 11.7851 51.0502 11.3351 50.9102C11.5551 51.0202 11.4651 51.0402 11.3451 51.0302C11.1351 50.9402 11.0651 50.8102 10.8851 50.7702L10.9251 50.6502C10.9451 50.8002 10.3751 50.4602 10.2751 50.4702C10.2151 50.3202 10.6051 50.5802 10.6851 50.5502C9.92512 50.1002 10.3051 50.3302 9.5451 49.8802C9.1051 49.6902 9.5451 50.0402 9.2951 49.9902C8.9551 49.7502 8.57512 49.5502 8.24512 49.1902L8.2951 49.3702C7.6151 48.9302 7.3451 48.5002 7.0451 48.0502C6.5451 47.5102 6.07511 47.1102 5.80511 46.7402C5.51511 46.3802 5.29513 46.1302 5.13513 45.9702C4.81513 45.6502 4.72508 45.7302 4.70508 45.9702C4.73508 46.4602 5.22509 47.7102 5.27509 47.6802C5.88509 48.8602 6.60511 49.6102 7.42511 50.2602C7.86511 50.5602 8.28511 50.9002 8.80511 51.1902C9.34511 51.4502 9.89508 51.8102 10.5851 52.1002L10.5551 52.1202Z" fill="#8E8E8E"/>
<path d="M6.61523 33.9996L6.78522 33.8496C6.78522 33.8496 6.71523 33.8796 6.61523 33.9996Z" fill="#8E8E8E"/>
<path d="M55.627 16.4492C55.627 16.4492 55.6569 16.4492 55.6769 16.4592C55.6469 16.4492 55.627 16.4492 55.627 16.4492Z" fill="#8E8E8E"/>
<path d="M13.9662 30.0195H13.9562L13.9062 30.0595L13.9662 30.0195Z" fill="#8E8E8E"/>
<path d="M6.586 36.9598C7.196 35.7498 7.73601 35.0598 8.28601 34.3998C8.85601 33.7498 9.43601 33.0998 10.476 32.1798C11.526 31.3298 12.656 30.6498 13.956 30.0198C14.476 29.5798 15.606 29.2098 16.256 28.7198L16.576 28.6599C16.796 28.4899 17.066 28.3098 17.336 28.2198V28.2498C17.666 27.9898 18.086 27.7998 18.246 27.6698V27.6998L18.676 27.4398L18.626 27.5198C19.216 27.0898 19.836 26.6798 20.406 26.3298L20.296 26.2698C21.526 25.5698 21.796 24.9798 22.806 24.3098V24.3398C23.286 23.7198 23.786 23.3698 24.306 23.0498C24.816 22.7098 25.336 22.3899 25.896 21.8199C25.756 21.9599 25.996 21.8199 26.006 21.8499C26.566 21.3899 27.226 20.9698 27.106 20.7698C27.556 20.4798 27.506 20.5899 27.616 20.6299C27.566 20.5499 27.916 20.2499 28.276 20.0399L28.136 20.1698L29.146 19.5399L28.846 19.4998C29.416 19.2298 29.096 19.6198 29.596 19.2698L29.516 19.1398C30.306 18.7498 30.866 18.7198 31.666 18.4498C34.806 17.0098 38.306 15.3798 41.576 15.2698L41.736 15.3698C41.816 15.5298 42.586 15.0099 42.726 15.1599C42.846 15.1199 42.966 15.0698 43.096 15.0498C43.206 15.0798 43.426 15.0998 43.246 15.1498C43.586 15.1498 43.596 15.1198 43.846 15.0598L44.216 15.1498C44.916 15.1498 45.506 15.1498 46.156 15.1498C46.796 15.1198 47.436 15.1899 48.136 15.3199C48.346 15.3799 48.576 15.4298 48.826 15.4898C49.076 15.5598 49.336 15.6398 49.606 15.7198C50.156 15.8698 50.756 15.9998 51.356 16.1998C52.566 16.5598 53.776 17.0099 54.656 17.3499C55.906 17.8199 57.126 18.6098 58.256 19.4898C59.386 20.3898 60.426 21.3398 61.476 22.1698C61.526 22.2398 61.716 22.3698 61.726 22.3598C61.996 22.6598 62.276 22.9598 62.536 23.2698L63.266 24.2298C63.266 24.2298 63.366 24.3798 63.526 24.6398C63.686 24.8998 63.936 25.2299 64.136 25.6599C64.626 26.4799 64.986 27.5799 65.236 28.4398C65.426 29.3098 65.576 29.9399 65.766 29.7899C65.886 29.6399 66.346 28.6298 65.836 26.1698L65.896 26.2198C65.696 25.5098 65.396 24.9798 65.156 24.4998C64.856 24.0498 64.576 23.6498 64.206 23.3098C64.286 23.0598 63.516 22.3398 63.326 22.0598H63.366C62.656 21.5298 62.216 20.6598 61.486 20.2098C61.526 20.2098 61.576 20.1798 61.726 20.3098C61.246 19.9198 60.556 19.4398 60.606 19.2998C59.436 18.4198 57.726 17.2798 56.796 17.0298H56.866C56.336 16.8898 56.246 16.7298 55.686 16.5198C55.666 16.4898 55.636 16.4598 55.636 16.4598C55.066 16.3098 54.106 15.7698 53.646 15.6398V15.5498L52.576 15.1498L52.966 15.3199C52.746 15.4899 52.206 14.8598 51.366 14.7498C50.616 14.4798 49.696 14.8298 48.966 14.5198C48.566 14.5798 49.336 14.3898 48.756 14.3898C48.756 14.2598 49.036 14.3498 48.906 14.2298C48.336 14.2098 48.006 13.9598 47.296 13.9498L47.276 13.8499C46.356 13.9299 45.556 13.6098 44.936 13.7498C43.996 13.8698 44.296 13.4798 43.316 13.7098L42.926 13.5898C42.506 13.6098 42.636 13.7898 42.166 13.7698C42.186 13.6798 41.566 13.7699 41.836 13.6599C40.756 13.6299 39.736 14.1598 38.336 14.2498C38.086 14.4898 37.386 14.5698 37.196 14.7498C37.136 14.6698 35.856 15.1398 36.556 14.7498C36.616 14.7098 36.736 14.6798 36.736 14.7098L36.796 14.5898C35.976 14.6498 35.456 15.1399 34.696 15.3499C34.926 15.3099 35.216 15.1998 35.046 15.3298C34.816 15.3998 34.586 15.4799 34.356 15.5699L34.466 15.4398L33.436 15.7998L33.616 15.8398C33.106 15.9898 32.856 15.8798 32.366 16.2698C32.156 16.4598 32.876 16.1898 32.386 16.4498C31.716 16.6798 30.696 17.0198 29.896 17.4298C30.026 17.4898 29.806 17.5998 29.596 17.7398L29.526 17.6698C28.746 18.2398 29.106 17.6398 28.336 18.2098L28.376 18.1098L28.266 18.4198C27.626 19.0298 27.756 18.4698 27.086 19.1998C27.396 18.9798 27.346 19.2898 26.936 19.4998L26.986 19.3499C26.786 19.5099 26.736 19.5899 26.576 19.6599C26.676 19.5299 26.576 19.4998 26.256 19.7198L26.406 19.4798L25.906 20.0198C25.386 20.2298 24.756 20.8599 24.496 20.8799C24.496 20.8799 24.246 21.0398 23.976 21.2398C23.716 21.4498 23.446 21.6898 23.386 21.8298C23.516 21.6098 22.976 21.9899 23.056 21.7899C22.866 22.0499 22.226 22.6998 21.886 22.8598L21.926 22.8098C21.656 23.0098 21.416 23.2099 21.186 23.4099C20.996 23.5999 20.796 23.7798 20.606 23.9598C20.226 24.3098 19.846 24.6498 19.336 24.9198C19.446 24.9898 18.916 25.2698 19.116 25.3098C18.196 26.0898 17.116 26.1799 16.956 26.7899C16.486 27.0699 16.336 27.0098 16.066 27.1198L16.166 27.0399C15.276 27.5499 15.006 27.6898 14.306 28.0198C13.986 28.2298 14.016 28.4498 13.376 28.6998C13.536 28.5298 13.296 28.6598 13.056 28.7798C13.196 28.6998 13.236 28.6498 12.896 28.7398C12.866 28.7798 12.806 28.8298 12.746 28.8698C12.746 28.8698 12.726 28.8698 12.726 28.8598C12.346 29.0798 12.426 29.0698 12.616 28.9898C12.616 29.0098 12.636 29.0099 12.706 29.0099C12.256 29.0899 11.576 29.6099 11.456 29.5099C10.286 30.2099 9.616 30.9398 8.836 31.7298C8.696 31.7698 8.83603 31.5299 9.05603 31.2899C8.85603 31.4699 8.68603 31.6698 8.49603 31.8598C8.42603 31.7798 8.78605 31.4998 8.94604 31.3098C8.12604 31.8398 7.666 32.7999 6.896 33.5999L6.82599 33.8398L6.776 33.8898C6.776 33.8898 6.71605 34.1499 6.63605 34.2899C6.47605 34.3699 6.46603 34.1599 6.17603 34.6299C6.02603 34.7899 5.86602 35.0598 5.73602 35.3598C5.62602 35.6598 5.496 35.9999 5.396 36.2599C5.546 35.9899 5.54599 36.0998 5.51599 36.2398C5.39599 36.4798 5.25599 36.5898 5.20599 36.8098L5.07599 36.7899C5.22599 36.7399 4.92604 37.5098 4.93604 37.6198C4.78604 37.7298 5.01601 37.1998 4.97601 37.1098C4.58601 38.1498 4.79601 37.6299 4.47601 38.6898C4.43601 39.2899 4.60601 38.6099 4.65601 38.9099C4.58601 39.4199 4.52602 39.9198 4.41602 40.4998L4.54602 40.3298C4.50602 41.2898 4.51602 41.8498 4.41602 42.4998C4.75602 44.2798 5.35604 45.0998 5.62604 45.4698C5.92604 45.8398 6.04601 45.7598 6.03601 45.4898C6.05601 45.2298 5.98601 44.7999 5.90601 44.4398C5.86601 44.0499 5.82599 43.7599 5.82599 43.7599C5.73599 42.5199 5.68599 41.5899 5.76599 40.5699C5.84599 39.5599 5.96603 38.4498 6.55603 37.0198L6.586 36.9598Z" fill="#8E8E8E"/>
<path d="M8.82709 41.5898L8.78711 41.7698C8.78711 41.7698 8.82709 41.7198 8.82709 41.5898Z" fill="#8E8E8E"/>
<path d="M28.1474 35.9299C28.1474 35.9299 28.1174 35.9299 28.1074 35.9199C28.1374 35.9299 28.1474 35.9299 28.1474 35.9299Z" fill="#8E8E8E"/>
<path d="M11.2277 48.7195C11.2277 48.7195 11.1977 48.6995 11.1777 48.6895L11.2377 48.7195H11.2277Z" fill="#8E8E8E"/>
<path d="M7.60711 39.1101C7.28711 40.4901 7.25711 41.4101 7.29711 42.3301C7.34711 43.2501 7.5471 44.2301 8.2871 45.5601C8.9571 46.8501 10.0771 47.9601 11.2171 48.7201C11.8271 48.9801 12.7371 49.6701 13.4871 49.8301L13.7171 50.0401C13.9671 50.1101 14.2671 50.1601 14.4971 50.3001L14.4771 50.3201C14.8671 50.3701 15.2571 50.5701 15.4471 50.5701L15.4271 50.5901L15.8771 50.6901L15.7871 50.7101C16.4471 50.8201 17.1071 50.9401 17.6871 51.0701L17.6571 50.9501C18.2671 51.1401 18.7071 51.1401 19.1171 51.1601C19.5371 51.1701 19.9271 51.2201 20.4871 51.3001L20.4671 51.3301C21.9071 51.1001 22.7271 51.5901 24.1971 51.2401C24.0171 51.2901 24.2771 51.2901 24.2671 51.3201C24.9371 51.2401 25.6571 51.1701 25.6471 50.9401C26.1371 50.9101 26.0471 50.9801 26.1271 51.0601C26.1171 50.9601 26.5271 50.8701 26.9071 50.8201L26.7371 50.8801L27.8171 50.7101L27.5771 50.5501C28.1571 50.5301 27.7571 50.7601 28.2971 50.6501L28.2671 50.5001C29.0571 50.4001 29.5571 50.5601 30.3471 50.5401C30.5371 50.5001 30.7371 50.5101 31.0171 50.4101L31.6171 50.2201C32.0171 50.0801 32.4171 49.9701 32.8071 49.7801C33.1971 49.6001 33.5871 49.4201 33.9771 49.2401C34.3471 49.0101 34.7271 48.7901 35.0971 48.5601C35.4471 48.3001 35.7971 48.0201 36.1271 47.7401C36.4171 47.3901 36.7671 47.1201 36.9971 46.7201C37.5571 46.0001 37.7871 45.0601 37.8571 44.1801L37.9571 44.0201C38.0371 43.9801 37.9571 43.7301 37.8471 43.4901C37.7671 43.2401 37.5871 43.0401 37.6571 42.9501L37.4671 42.6001C37.4671 42.4801 37.4171 42.2501 37.5171 42.4201C37.3771 42.0901 37.3371 42.1001 37.1871 41.8901L37.1071 41.5001C36.4571 40.2501 35.5171 39.5401 34.5371 38.5801C33.9971 37.9401 33.0571 37.1901 32.0371 36.5601C31.0171 35.9301 29.9271 35.4001 29.1171 35.0501C27.9671 34.5901 26.7971 33.9601 25.5771 33.3701C24.3471 32.8101 23.0771 32.2901 21.7971 32.1501C21.7271 32.1101 21.4971 32.1101 21.4971 32.1301C20.7371 31.9601 19.9771 31.8001 19.1871 31.7101C19.1871 31.7101 19.0071 31.6801 18.7171 31.6501C18.4171 31.6301 18.0071 31.6101 17.5371 31.5801C16.5871 31.6001 15.4071 31.6601 14.5271 31.9801C13.6471 32.2701 13.1271 32.6601 13.3471 32.7701C13.5671 32.9301 14.4871 32.6801 16.4871 32.9301L16.4371 32.9701C17.6271 33.0401 18.3571 33.1001 19.2071 33.0301C19.3071 33.2701 20.1871 33.1901 20.4471 33.3301H20.4171C21.1771 33.3001 21.8671 33.8201 22.5871 33.8501C22.5571 33.8601 22.5271 33.9201 22.3671 33.8701C22.8671 33.9901 23.5671 34.1501 23.5671 34.2901C24.7571 34.6401 26.3371 35.3401 27.1471 35.5001H27.0771C27.5571 35.5601 27.6271 35.7401 28.1071 35.9001C28.1271 35.9301 28.1571 35.9501 28.1471 35.9601C28.6671 36.0401 29.4371 36.6201 29.8171 36.7601L29.7971 36.8501C30.0871 37.0001 30.3671 37.1801 30.6471 37.3501L30.3471 37.1401C30.5771 37.0101 30.9071 37.6501 31.5771 37.9301C32.1071 38.3201 32.9771 38.3201 33.4571 38.8601C33.7771 38.9901 33.1171 38.8101 33.5471 39.0701C33.4771 39.1801 33.3171 38.9801 33.3471 39.1401C33.7471 39.4201 33.8671 39.7501 34.3371 40.1101L34.2871 40.2001C34.6271 40.4001 34.8471 40.7001 35.0271 40.9701C35.2171 41.2401 35.3671 41.4901 35.5671 41.6501C36.0771 42.2501 35.5971 42.2201 36.1171 42.8201C36.1271 42.9301 36.1071 43.0401 36.0971 43.1401C36.1671 43.4401 36.3271 43.3101 36.3571 43.6601C36.2671 43.6601 36.3371 44.0901 36.2371 43.9101C36.2371 44.2801 36.2471 44.6201 36.2071 45.0101C36.1471 45.1901 36.1371 45.4001 36.0171 45.5901C35.8871 45.7701 35.7771 45.9701 35.5671 46.1201C35.5271 46.3701 35.1371 46.7201 35.0471 46.9001C34.9771 46.8601 34.1571 47.5601 34.5571 47.0601C34.5871 47.0201 34.6671 46.9601 34.6771 46.9901V46.8701C34.1171 47.1001 33.7771 47.5501 33.2171 47.8501C33.3971 47.8001 33.6071 47.6601 33.4971 47.8001C33.3271 47.9001 33.1371 47.9701 32.9471 48.0401L33.0271 47.9201L32.1871 48.2201L32.3371 48.2701C31.9171 48.4001 31.7071 48.2701 31.2771 48.5601C31.0871 48.7101 31.7271 48.5601 31.2771 48.7401C31.1271 48.7701 30.9671 48.8001 30.7871 48.8401C30.6971 48.8601 30.6071 48.8801 30.5171 48.9001C30.4671 48.9001 30.4671 48.9001 30.4371 48.9001H30.2871C29.8871 48.9401 29.4571 48.9701 29.0671 49.0201C29.1571 49.1201 28.9471 49.1501 28.7371 49.2101L28.6971 49.1201C27.8971 49.3901 28.3671 48.9701 27.5671 49.1801L27.6271 49.1001L27.4371 49.3301C26.7271 49.6201 27.0171 49.1701 26.2371 49.5401C26.5571 49.4801 26.4171 49.7401 26.0071 49.7501L26.0971 49.6401C25.8771 49.6901 25.8071 49.7301 25.6571 49.7201C25.7871 49.6601 25.7171 49.5801 25.3871 49.6201L25.5971 49.4801L24.9971 49.7001C24.5171 49.6301 23.7771 49.8301 23.5771 49.6801C23.5771 49.6801 22.5671 49.6301 22.3271 49.7901C22.5271 49.6901 21.9671 49.6701 22.1271 49.5601C21.8671 49.6901 21.0871 49.7201 20.7871 49.6001H20.8471C20.2771 49.5201 19.7971 49.5201 19.3271 49.5001C18.8571 49.5001 18.3971 49.4801 17.9071 49.3101C17.9371 49.4301 17.4171 49.2801 17.5171 49.4501C16.9771 49.4501 16.5371 49.2301 16.1571 49.1101C15.7771 48.9901 15.4971 48.8901 15.2471 49.0401C14.7871 48.9101 14.7471 48.7501 14.5271 48.6501H14.6471C13.8271 48.3501 13.5671 48.2701 13.0171 47.9301C12.7271 47.7901 12.5371 47.9901 12.0971 47.5901C12.2971 47.6301 12.0971 47.5001 11.9171 47.3801C12.0371 47.4501 12.0871 47.4501 11.8971 47.2401C11.8471 47.2401 11.7871 47.2101 11.7371 47.1901V47.1701C11.4371 46.9701 11.4771 47.0201 11.5871 47.1501C11.5671 47.1501 11.5771 47.1801 11.5971 47.2301C11.3871 46.9001 10.8071 46.5301 10.8871 46.3901C10.1271 45.6301 9.60712 45.0301 9.18712 44.2101C9.22712 44.0801 9.33712 44.2701 9.49712 44.4801C9.37712 44.3001 9.3171 44.0901 9.2271 43.9001C9.3371 43.8701 9.40708 44.2201 9.51708 44.3901C9.38708 43.6501 8.79712 42.9801 8.86712 42.0501C8.82712 41.9901 8.79708 41.9301 8.76708 41.8701V41.8201C8.76708 41.8201 8.66709 41.6301 8.64709 41.4901C8.73709 41.3601 8.8471 41.4901 8.8471 41.0501C8.9071 40.8801 8.90709 40.6301 8.89709 40.3701C8.89709 40.1201 8.90711 39.8201 8.91711 39.5901C8.86711 39.8301 8.82712 39.7501 8.80712 39.6301C8.83712 39.4101 8.9771 39.3001 8.9771 39.1301H9.10711C8.96711 39.2001 9.12713 38.5401 9.12713 38.4501C9.26713 38.3601 9.07709 38.8001 9.14709 38.8801C9.43709 38.0301 9.24711 38.4401 9.60711 37.6201C9.71711 37.1401 9.46708 37.6501 9.45708 37.3901C9.61708 36.9901 9.7571 36.5701 10.0971 36.2001L9.91711 36.2701C10.3071 35.5401 10.6471 35.1501 11.1171 34.8401C12.0471 33.6001 12.8071 33.0601 13.1271 32.7201C13.4571 32.3801 13.3671 32.3001 13.1271 32.2901C12.8671 32.3201 12.3971 32.4401 12.0271 32.6301C11.6571 32.8201 11.3571 32.9901 11.3571 32.9901C10.1671 33.7301 9.46711 34.5701 8.91711 35.5201C8.37711 36.4801 7.92711 37.5701 7.60711 39.1401V39.1101Z" fill="#8E8E8E"/>
<path d="M24.7076 25.5703L24.5977 25.5903C24.5977 25.5903 24.6476 25.6103 24.7076 25.5703Z" fill="#8E8E8E"/>
<path d="M34.5571 28.8696L34.5371 28.8496L34.5571 28.8696Z" fill="#8E8E8E"/>
<path d="M20.4572 27.0305C20.4572 27.0305 20.4672 27.0005 20.4772 26.9805L20.4473 27.0305H20.4572Z" fill="#8E8E8E"/>
<path d="M24.967 23.6501C23.717 24.4001 23.277 24.4701 22.147 25.4701C21.867 25.6901 21.577 25.9301 21.307 26.1901L20.907 26.5701L20.717 26.7601L20.617 26.8601L20.467 27.0301C20.347 27.2901 20.127 27.6301 20.037 28.0401C19.947 28.4401 19.987 28.8701 20.157 29.1501C20.157 29.2401 20.157 29.3201 20.157 29.4101C20.297 29.5901 20.457 29.7801 20.557 29.9701H20.527C20.787 30.1801 21.067 30.4001 21.217 30.4501L21.197 30.4701C21.317 30.5301 21.427 30.5801 21.547 30.6201L21.467 30.6401C21.597 30.6701 21.767 30.7001 21.847 30.7101C21.927 30.7101 22.017 30.7301 22.097 30.7501C22.257 30.7801 22.417 30.8301 22.557 30.8801V30.7601C23.147 31.0501 23.4469 30.8901 23.9569 31.2201L23.937 31.2401C24.747 31.1801 24.977 31.8201 25.787 31.8201C25.687 31.8201 25.807 31.8901 25.787 31.9101C26.127 32.0101 26.4869 32.1401 26.5769 31.9301C26.8169 32.0301 26.747 32.0801 26.737 32.1701C26.777 32.0801 26.997 32.1301 27.187 32.2001H27.087L27.637 32.4001L27.607 32.1801C27.867 32.3601 27.587 32.4201 27.877 32.5001L27.937 32.3601C28.317 32.5701 28.437 32.8901 28.757 33.1701C29.517 33.5701 30.347 33.9001 31.147 34.2701C31.547 34.4501 31.937 34.6401 32.317 34.8501C32.507 34.9501 32.687 35.0601 32.857 35.1801C33.047 35.3101 33.377 35.4801 33.677 35.5401L33.777 35.6701C33.797 35.7501 33.997 35.7101 34.167 35.6201C34.347 35.5401 34.497 35.4201 34.567 35.4801C34.657 35.4301 34.737 35.3601 34.807 35.2901C34.897 35.2901 35.0669 35.2101 34.9569 35.3301C35.2069 35.1901 35.187 35.1501 35.307 34.9701C35.407 34.9301 35.497 34.8701 35.587 34.8101C35.777 34.5901 35.897 34.3201 35.947 34.0501C35.967 33.8801 35.987 33.7101 35.997 33.5301C36.007 33.1801 36.057 32.8501 36.097 32.4601C36.457 31.5601 36.167 29.7601 35.807 28.8201C35.677 28.4901 35.577 28.1401 35.467 27.7801C35.387 27.4101 35.277 27.0401 35.157 26.6701C34.927 25.9201 34.557 25.1801 33.967 24.7001C33.957 24.6501 33.827 24.5901 33.817 24.6001C33.537 24.2501 33.207 23.9301 32.887 23.6201C32.887 23.6201 32.807 23.5601 32.667 23.4501C32.527 23.3501 32.347 23.1901 32.107 23.0601C31.647 22.7701 31.017 22.4801 30.497 22.4001C29.967 22.3101 29.597 22.3901 29.647 22.5901C29.687 22.8201 30.167 23.1101 30.917 23.9101L30.877 23.9301C31.367 24.3101 31.637 24.5601 32.097 24.6901C31.997 24.9101 32.457 25.0601 32.507 25.2201H32.487C32.867 25.4001 32.897 25.9001 33.217 26.1101C33.197 26.1101 33.137 26.1401 33.087 26.0701C33.267 26.2601 33.517 26.5501 33.397 26.6401C33.777 27.1601 34.037 28.0001 34.357 28.3301L34.317 28.3101C34.527 28.4901 34.447 28.5901 34.567 28.8301C34.557 28.8501 34.547 28.8701 34.537 28.8701C34.737 29.0901 34.737 29.6001 34.797 29.8101L34.7069 29.8401L34.787 30.3501V30.1601C35.037 30.2101 34.677 30.5601 34.837 30.9301C34.827 31.2801 35.357 31.6601 35.197 32.0501C35.297 32.2401 35.027 31.8801 35.087 32.1501C34.957 32.1501 35.017 32.0201 34.907 32.0801C34.937 32.3501 34.767 32.4901 34.787 32.8201H34.687C34.797 33.2401 34.427 33.6201 34.547 33.8201C34.507 34.0901 34.257 33.7901 34.247 34.0601C34.197 34.0401 34.157 34.0201 34.117 33.9801C34.047 33.9801 34.117 34.1601 33.997 34.1201C33.987 34.0401 33.867 34.0601 33.917 33.9801C33.817 33.9101 33.757 33.9501 33.617 33.9201C33.357 33.8201 33.087 33.6901 32.847 33.4301C32.637 33.5001 32.387 33.2601 32.237 33.3101C32.257 33.2401 31.647 32.9801 32.057 33.0201C32.087 33.0201 32.137 33.0501 32.127 33.0801L32.217 33.0201C31.967 32.6701 31.557 32.7801 31.237 32.5801C31.317 32.6601 31.457 32.7201 31.337 32.7401L31.027 32.5701L31.127 32.5301L30.687 32.2501L30.7069 32.3701C30.5069 32.2001 30.497 32.0101 30.177 32.0101C30.027 32.0201 30.3369 32.2401 30.0769 32.1501C29.8069 31.9301 29.387 31.6101 28.997 31.4001C28.987 31.5201 28.877 31.4701 28.757 31.4401L28.787 31.3401C28.307 31.2701 28.727 31.0701 28.257 30.9701L28.3269 30.9201L28.127 31.0601C27.667 31.0701 28.007 30.7801 27.467 30.8401C27.647 30.9001 27.4669 31.0801 27.2669 30.9501L27.357 30.8801C27.237 30.8501 27.177 30.8801 27.107 30.8201C27.197 30.8001 27.1969 30.7101 27.0169 30.6501L27.177 30.5901L26.787 30.6201C26.577 30.4301 26.1369 30.3801 26.0769 30.2201C26.0769 30.2201 25.557 29.9501 25.377 30.0501C25.517 30.0001 25.227 29.8601 25.347 29.7901C25.167 29.8401 24.717 29.7701 24.587 29.6101H24.627C24.027 29.2901 23.4969 29.4201 22.9569 29.1301C22.9569 29.2501 22.6669 29.1101 22.7069 29.2701C22.4069 29.2701 22.077 29.1201 22.037 29.0601C21.947 28.9901 21.907 28.9501 21.697 29.0801C21.557 28.9801 21.647 28.8701 21.637 28.8001L21.677 28.8201C21.517 28.6201 21.527 28.5301 21.557 28.3801C21.547 28.3101 21.337 28.1801 21.507 28.0401C21.527 28.1401 21.567 28.0701 21.627 28.0201C21.607 28.0601 21.607 28.1001 21.737 28.0601C21.737 28.0301 21.7569 27.9901 21.7669 27.9601C21.7669 27.9601 21.777 27.9601 21.787 27.9701C21.917 27.8101 21.877 27.8101 21.797 27.8701C21.797 27.8601 21.777 27.8501 21.737 27.8501C21.967 27.7901 22.177 27.4401 22.297 27.5401C22.747 27.1101 22.997 26.7101 23.377 26.3401C23.467 26.3601 23.417 26.4901 23.317 26.6101L23.587 26.3601C23.647 26.4501 23.457 26.5401 23.387 26.6301C23.837 26.4901 23.997 25.9401 24.507 25.7601L24.547 25.6301H24.5769C24.5769 25.6301 24.607 25.4701 24.657 25.4101C24.767 25.4401 24.777 25.5901 24.977 25.4401C25.197 25.4001 25.417 25.0801 25.617 24.9001C25.487 24.9601 25.497 24.9001 25.537 24.8301C25.647 24.7601 25.757 24.8001 25.817 24.7101L25.897 24.8101C25.787 24.7301 26.107 24.5301 26.127 24.4601C26.237 24.5001 25.997 24.6301 26.007 24.7001C26.437 24.4401 26.217 24.5701 26.647 24.3001C26.837 24.0901 26.547 24.2201 26.607 24.0601C26.807 23.9201 26.967 23.7301 27.257 23.6901L27.127 23.6301C27.497 23.3501 27.7669 23.2601 28.0769 23.2701C28.7769 22.7801 29.2769 22.5801 29.5769 22.4601C29.8569 22.3301 29.837 22.2101 29.747 22.0901C29.417 21.8201 28.477 21.8401 28.507 21.8601C27.657 21.9201 27.127 22.1801 26.617 22.4901C26.107 22.8001 25.627 23.1901 24.947 23.6701L24.967 23.6501Z" fill="#8E8E8E"/>
<path d="M36.5369 25.8701L36.4969 25.6602C36.4969 25.6602 36.4869 25.7301 36.5369 25.8701Z" fill="#8E8E8E"/>
<path d="M51.4365 42.6406L51.3965 42.6806C51.3965 42.6806 51.4365 42.6506 51.4365 42.6406Z" fill="#8E8E8E"/>
<path d="M38.0458 19.2207C38.0458 19.2207 38.0159 19.2507 38.0059 19.2607L38.0558 19.2207H38.0458Z" fill="#8E8E8E"/>
<path d="M38.7064 28.0003C38.3864 26.4803 38.0764 25.5403 37.7264 24.6103C37.5464 24.1503 37.3264 23.6803 37.0864 23.2003C36.8764 22.7903 36.6764 22.3003 36.5564 21.7203C36.4764 21.1603 36.5364 20.6503 36.7564 20.2903C36.9164 19.9603 37.5264 19.5503 38.0364 19.2303C38.4764 18.7803 39.5464 18.5603 40.2264 18.3003L40.5264 18.3403C40.7564 18.2303 41.0564 18.1903 41.3164 18.2003V18.2303C41.6664 18.1003 42.1064 18.1603 42.2964 18.1103L42.2764 18.1403C42.4264 18.1303 42.5864 18.1203 42.7464 18.1303L42.6664 18.1703C43.3364 18.1003 44.0364 18.1703 44.6464 18.2803L44.6164 18.1603C45.9064 18.5103 46.4364 18.3803 47.5664 18.8603L47.5464 18.8803C49.1164 19.0203 49.7764 19.8503 51.3564 20.1903C51.1564 20.1503 51.4064 20.2803 51.3864 20.3003C52.0664 20.5803 52.7864 20.9003 52.8964 20.7003C53.3864 20.9303 53.2564 20.9603 53.2864 21.0703C53.3264 20.9803 53.7664 21.1603 54.1364 21.3503L53.9464 21.2903C54.3064 21.4603 54.6664 21.6403 55.0164 21.8403L54.9064 21.5603C55.4364 21.9303 54.9364 21.8403 55.4864 22.1103L55.5564 21.9703C56.2964 22.4603 56.6164 22.9303 57.2064 23.5203C58.5864 24.5603 59.9464 25.7503 60.7364 27.2303C61.5564 28.6903 61.5064 30.4603 60.7564 31.8103L60.5964 31.8903C60.4164 31.8703 60.4564 32.7703 60.2364 32.7903L60.1164 33.1503C60.0364 33.2203 59.8864 33.3803 59.9564 33.2103C59.7564 33.4903 59.7764 33.5103 59.6864 33.7403C59.5964 33.8203 59.4864 33.9003 59.3764 33.9703C58.4964 34.9903 57.8364 35.9803 56.7164 36.9403C55.2964 37.9703 52.7464 40.1903 51.1964 41.3303C50.6664 41.7203 50.1064 42.1403 49.4464 42.3703C49.1264 42.5003 48.7964 42.6503 48.4664 42.7503C48.1264 42.8303 47.7864 42.9003 47.4364 42.9803C46.0464 43.2103 44.6964 43.1703 43.4064 43.0603C43.3364 43.0103 43.1064 43.0103 43.1064 43.0303C42.3464 42.8303 41.5964 42.5403 40.9364 42.1203C40.9364 42.1203 40.7864 42.0303 40.5264 41.8803C40.2864 41.7103 39.9564 41.4603 39.5964 41.1603C38.8764 40.5603 38.1764 39.6303 37.8764 38.8703C37.7364 38.5003 37.6364 38.1603 37.6364 37.9603C37.5964 37.7503 37.5464 37.6003 37.4364 37.6503C37.3864 37.6703 37.3264 37.7403 37.2464 37.8803C37.1664 38.0203 37.0564 38.2303 37.0564 38.5303C36.9664 39.1403 37.1464 40.0903 37.8164 41.2103L37.7464 41.1803C37.9564 41.5103 38.1864 41.7603 38.4064 42.0003C38.6164 42.2503 38.8364 42.4503 39.0664 42.6103C39.5064 42.9703 39.9564 43.2003 40.4564 43.3703C40.4664 43.7003 41.5664 43.9203 41.8564 44.1303H41.8164C42.2864 44.1803 42.7264 44.3503 43.1764 44.5003C43.6364 44.6003 44.0964 44.7203 44.5464 44.6803C44.5064 44.7003 44.4864 44.7703 44.2864 44.7403C44.9364 44.7603 45.8264 44.6703 45.8864 44.8103C47.4564 44.6803 49.5264 43.9903 50.2864 43.3403L50.2464 43.4003C50.6964 43.0603 50.8664 43.0503 51.3564 42.6703C51.3964 42.6703 51.4364 42.6503 51.4364 42.6703C51.8864 42.2503 52.8664 41.7203 53.1964 41.3803L53.2764 41.4303L54.1964 40.7303L53.8364 40.9703C53.8064 40.6803 54.6264 40.5803 55.1964 39.9303C55.8364 39.4703 56.1164 38.5403 56.8064 38.1103C57.0164 37.7703 56.6764 38.4803 57.0464 38.0303C57.1464 38.1103 56.8964 38.2703 57.0764 38.2503C57.4664 37.8303 57.8664 37.7203 58.3164 37.1703L58.4064 37.2203C58.9364 36.4403 59.7264 36.0503 59.9864 35.4503C60.5164 34.6403 60.6464 35.1303 61.0564 34.1703C61.1664 34.0803 61.2864 34.0003 61.3864 33.9003C61.6264 33.5203 61.4164 33.5503 61.6964 33.1403C61.7564 33.2103 62.0364 32.6003 61.9764 32.9003C62.5764 31.9003 62.6964 30.6603 62.8164 29.0903C62.6564 28.7603 62.5964 27.9703 62.3964 27.7703C62.4264 27.7403 62.3164 27.3703 62.2264 27.1103C62.1264 26.8603 62.0864 26.7003 62.3364 27.0703C62.3864 27.1303 62.4164 27.2603 62.3864 27.2603L62.5064 27.3303C62.3664 26.4103 61.7564 25.8803 61.2764 25.2003C61.3964 25.4203 61.6064 25.6903 61.4164 25.5403L60.9664 24.9003L61.1264 24.9803C60.9064 24.6503 60.6464 24.3703 60.4064 24.0603L60.4364 24.2503C60.0964 23.8003 60.0564 23.5503 59.4964 23.2203C59.2264 23.0903 59.7964 23.6703 59.3364 23.3103C58.8264 22.7803 58.0164 22.0103 57.2464 21.4803C57.2464 21.6203 57.0464 21.4803 56.8164 21.3603L56.8464 21.2603C55.9464 20.8503 56.6564 20.8803 55.7564 20.4803L55.8664 20.4603L55.5364 20.5103C54.6764 20.2503 55.2164 20.1003 54.2364 19.8803C54.5864 20.0403 54.2964 20.1603 53.8964 19.9003L54.0464 19.8703C53.8064 19.7703 53.7164 19.7603 53.5664 19.6703C53.7264 19.6903 53.7064 19.5803 53.3464 19.4303H53.6364L52.9064 19.2803C52.4464 18.9403 51.5864 18.7003 51.4164 18.4903C51.4164 18.4903 50.3264 17.9503 50.0064 18.0203C50.2664 18.0203 49.6464 17.7603 49.8664 17.7203C49.5364 17.7003 48.6364 17.4803 48.3064 17.2803H48.3764C47.0764 16.7603 46.0464 16.8403 44.8364 16.5003C44.8764 16.6203 44.2264 16.4903 44.3664 16.6503C43.0864 16.6303 41.9864 16.2503 41.5364 16.7203C40.9564 16.8003 40.8264 16.6903 40.5164 16.7003L40.6564 16.6603C39.5464 16.8703 39.2364 16.9703 38.4364 17.2403C38.0564 17.4403 38.0764 17.6403 37.3864 17.9303C37.5664 17.7503 37.2864 17.8803 37.0564 18.0403C37.2064 17.9403 37.2364 17.8803 36.8864 18.0203C36.8564 18.0703 36.7964 18.1303 36.7364 18.1803C36.7364 18.1803 36.7164 18.1803 36.7164 18.1703C36.3364 18.4603 36.4264 18.4403 36.6064 18.3203C36.6064 18.3403 36.6264 18.3403 36.6964 18.3203C36.4664 18.4203 36.1964 18.6103 35.9564 18.8103C35.7064 19.0203 35.5464 19.2403 35.4664 19.2103C34.9764 19.9003 34.8864 20.6303 34.9264 21.2403C34.9664 21.8603 35.1464 22.3903 35.3564 22.9403C35.3364 23.0903 35.1664 22.8603 35.0564 22.5203C35.1364 22.8003 35.2364 23.0603 35.3464 23.3203C35.2464 23.3603 35.1064 22.8903 35.0264 22.6303C35.0764 23.1503 35.3264 23.6403 35.6264 24.0903C35.8964 24.5003 36.1664 24.9303 36.3064 25.4403L36.4664 25.6103V25.6703C36.5164 25.6503 36.6764 25.8403 36.7364 25.9903C36.7064 26.1603 36.5364 26.0603 36.7264 26.5403C36.7764 26.9503 37.1364 27.6303 37.2964 28.1403C37.2464 27.8503 37.3164 27.9303 37.3764 28.0503C37.4364 28.3103 37.3764 28.4703 37.4564 28.6603L37.3364 28.7103C37.4464 28.5803 37.5764 29.3603 37.6364 29.4503C37.5664 29.6103 37.4964 29.0603 37.4164 29.0103C37.5864 30.0303 37.5064 29.5203 37.6164 30.5603C37.7364 31.1103 37.7264 30.4503 37.8564 30.7103C37.9164 31.2003 37.9964 31.7003 37.9064 32.2703L38.0264 32.0903C38.0764 33.0403 37.9864 33.6103 37.7864 34.2203C37.7364 36.0003 37.5864 37.0003 37.6164 37.5103C37.6364 38.0203 37.7564 38.0203 37.9364 37.8003C38.1064 37.5703 38.3064 37.1203 38.4664 36.7103C38.6164 36.3003 38.7164 35.9503 38.7164 35.9503C39.1564 34.5403 39.2764 33.4103 39.2664 32.2103C39.2464 31.0103 39.0964 29.7303 38.6864 28.0203L38.7064 28.0003Z" fill="#8E8E8E"/>
<path d="M53.2559 30.4023V30.4623C53.2559 30.4623 53.2659 30.4223 53.2559 30.4023Z" fill="#8E8E8E"/>
<path d="M54.3052 32.3906H54.2952L54.2852 32.4006L54.3052 32.3906Z" fill="#8E8E8E"/>
<path d="M51.8758 31.0615C52.3258 31.6215 52.3857 31.9515 53.1657 32.2015C53.5157 32.3615 53.9358 32.3915 54.3058 32.3815C54.4758 32.2215 54.7857 32.3815 54.9657 32.2015L55.0558 32.2815C55.1158 32.2215 55.1857 32.1815 55.2657 32.2115V32.2415C55.3557 32.1415 55.4757 32.1615 55.5157 32.1115V32.1415L55.6358 32.0915V32.1315C55.7758 32.0015 55.9357 31.9215 56.0957 31.8715L56.0257 31.7715C56.3857 31.7115 56.3558 31.4415 56.6758 31.3715L56.6958 31.3915C56.7558 30.9215 57.2957 31.0815 57.2757 30.5715C57.2757 30.6315 57.3357 30.5815 57.3557 30.6015C57.4257 30.4315 57.4857 30.2315 57.2857 30.1415C57.3457 30.0315 57.3957 30.0715 57.4757 30.0915C57.3857 30.0515 57.3857 29.9315 57.4057 29.8415L57.4258 29.9015C57.4458 29.8115 57.4557 29.7115 57.4757 29.6215H57.2757C57.3657 29.5015 57.5058 29.6515 57.4958 29.5015L57.3457 29.4715C57.4057 29.2915 57.6657 29.2015 57.7857 28.9915C57.8357 28.5515 57.6757 28.0815 57.4657 27.7015C57.2557 27.3115 57.0057 26.9915 56.8257 26.6015L56.8858 26.4915C56.9958 26.3515 56.5458 26.5215 56.6258 26.3815H56.5058C56.5058 26.3815 56.4757 26.2815 56.5457 26.2815C56.4757 26.2215 56.4558 26.2415 56.3758 26.2515V26.1115C56.1058 25.8415 55.7457 25.8915 55.4157 25.7415C55.0457 25.3815 54.1257 25.5315 53.7357 25.7815C53.4557 25.9715 53.1158 26.0015 52.7558 26.1015C52.3958 26.2015 52.0257 26.3915 51.9157 26.7515C51.8857 26.7515 51.8857 26.8315 51.9057 26.8415C51.7757 27.0015 51.6557 27.1715 51.5457 27.3515C51.5457 27.3515 51.4458 27.5115 51.3858 27.7515C51.3058 27.9915 51.2857 28.3015 51.3357 28.5315C51.3957 28.7615 51.5257 28.9115 51.7157 28.8715C51.9157 28.8515 52.1657 28.6215 52.5957 28.3715L52.6258 28.3915C52.7658 28.2215 52.8257 28.1515 52.7257 27.9315C52.9357 28.0215 52.8258 27.8015 52.9258 27.8015H52.9358C52.8658 27.6115 53.1957 27.7215 53.1557 27.5315C53.1657 27.5515 53.2058 27.5915 53.1958 27.6115C53.2358 27.5415 53.2858 27.4215 53.3758 27.5215C53.4958 27.3715 53.7457 27.3115 53.7857 27.0715V27.1115C53.8157 26.9515 53.8658 27.0515 53.9358 26.9615C53.9358 26.9815 53.9557 26.9815 53.9557 26.9915C53.9957 26.8315 54.1858 26.9215 54.2458 26.8515V26.9415L54.4258 26.9115L54.3658 26.8915C54.3858 26.6415 54.4958 27.0315 54.6158 26.8915C54.7058 26.9315 54.9257 26.4115 55.0457 26.5715C55.1357 26.4815 54.9458 26.7415 55.0558 26.6715C55.0258 26.7915 54.9958 26.7415 54.9958 26.8415C55.0958 26.8015 55.0957 27.0015 55.2157 26.9615L55.1858 27.0515C55.3858 26.9315 55.3458 27.2715 55.5058 27.1615C55.6758 27.1615 55.4158 27.4515 55.6358 27.3715L55.5957 27.5015C55.6157 27.5515 55.7357 27.4015 55.7357 27.5015C55.6757 27.5615 55.7457 27.6015 55.6657 27.6315C55.6557 27.8015 56.0057 27.7115 55.9057 27.9915C56.0657 27.9415 56.0257 28.0615 56.1457 28.0415C56.0857 28.0815 56.2157 28.2115 56.0257 28.1815C56.0057 28.1815 56.0057 28.1615 56.0257 28.1515L55.9358 28.1815C55.8058 28.3315 56.0957 28.3015 56.0957 28.4015C56.1157 28.3615 56.0958 28.3315 56.1758 28.3315V28.4215H56.1057C56.1057 28.4715 56.1057 28.5115 56.0857 28.5615L56.1858 28.5215C56.1458 28.6015 55.9758 28.6315 56.1258 28.6915C56.2058 28.7215 56.2557 28.6115 56.2957 28.6915C56.2357 28.7915 56.1257 28.9215 56.0857 29.0215C56.2057 29.0215 56.1957 29.0515 56.2057 29.0915H56.1057C56.2257 29.2215 55.8857 29.0915 55.9657 29.2115L55.8957 29.1815L56.0857 29.2615C56.2457 29.4215 55.8757 29.2515 56.0857 29.4515C56.0857 29.4015 56.2957 29.5015 56.2357 29.5515L56.1557 29.5015C56.1557 29.5015 56.1957 29.5715 56.1657 29.5815C56.1257 29.5415 56.0457 29.5215 56.0357 29.5615L55.9358 29.4814L56.0558 29.6415C55.9358 29.6615 55.9857 29.8115 55.8557 29.7715C55.8557 29.7715 55.7158 29.8415 55.8158 29.9715C55.7658 29.8915 55.6858 29.9315 55.6158 29.8415C55.6758 29.9315 55.6557 30.0815 55.5457 30.0215C55.3657 30.0215 55.4257 30.3015 55.2257 30.2615C55.2857 30.3615 55.1857 30.3415 55.2657 30.4615C55.1657 30.6815 54.9057 30.2915 54.9657 30.7415C54.8957 30.7815 54.8458 30.6615 54.8058 30.6415V30.6115C54.6858 30.6715 54.6457 30.6815 54.5357 30.6715C54.4857 30.7215 54.4758 30.9315 54.3658 30.8815C54.4058 30.8015 54.3657 30.8115 54.3257 30.8115C54.3557 30.8015 54.3558 30.7715 54.3158 30.7115C54.3158 30.7415 54.2957 30.7515 54.2857 30.7615C54.2857 30.7615 54.2857 30.7515 54.2857 30.7415C54.2257 30.7615 54.2258 30.7915 54.2558 30.8115C54.2558 30.8215 54.2558 30.8415 54.2558 30.8615C54.2058 30.7415 54.0657 30.8415 54.0857 30.7015C53.9057 30.7015 53.7257 30.7915 53.5357 30.7715C53.5557 30.6915 53.6157 30.6515 53.6657 30.6515L53.5558 30.6315C53.6058 30.5315 53.6358 30.6015 53.6758 30.6015C53.6458 30.3915 53.3458 30.6315 53.3058 30.4015L53.2257 30.4515V30.4315C53.2257 30.4315 53.1357 30.4915 53.1057 30.4915C53.1457 30.4015 53.2458 30.3215 53.1858 30.2815C53.1958 30.1815 53.0358 30.2015 52.9358 30.1715C52.9558 30.2115 52.9058 30.2415 52.8658 30.2415C52.8358 30.2115 52.8857 30.1415 52.8457 30.1315L52.9458 30.0515C52.8658 30.1415 52.7857 30.0515 52.7257 30.0615C52.7857 29.9915 52.8257 30.0615 52.8957 30.0315C52.7957 29.9115 52.8458 29.9715 52.7558 29.8415C52.6258 29.8115 52.6657 29.9115 52.5457 29.9315C52.4857 29.8715 52.3757 29.8315 52.3957 29.7115L52.3058 29.7815C52.1658 29.6615 52.1357 29.5515 52.2257 29.4115C51.9257 29.1715 51.7357 28.9715 51.5757 28.8715C51.4157 28.7715 51.2858 28.7915 51.1858 28.8315C50.9858 28.9515 50.9458 29.3315 50.9458 29.3315C50.8358 30.1115 51.3058 30.4415 51.8758 31.0215V31.0615Z" fill="#8E8E8E"/>
</svg>
