<svg width="71" height="71" viewBox="0 0 71 71" fill="none" xmlns="http://www.w3.org/2000/svg">
<path d="M56.2012 47.1132L56.3012 47.0332C56.3012 47.0332 56.2512 47.0332 56.2012 47.1132Z" fill="#8E8E8E"/>
<path d="M45.5508 42.5234C45.5508 42.5234 45.5508 42.5434 45.5608 42.5534C45.5608 42.5334 45.5508 42.5234 45.5508 42.5234Z" fill="#8E8E8E"/>
<path d="M58.5215 42.5527C58.5215 42.5527 58.5215 42.5827 58.5315 42.5927V42.5527H58.5215Z" fill="#8E8E8E"/>
<path d="M56.2211 49.2634C56.9911 48.6134 57.4111 48.1134 57.7811 47.5634C58.1211 47.0034 58.4311 46.3634 58.5311 45.2934C58.5711 45.0434 58.5711 44.7734 58.5811 44.5234C58.5811 44.3034 58.5711 44.0834 58.5711 43.8634C58.5511 43.4234 58.5411 42.9834 58.5211 42.5634C58.3511 42.1634 58.5211 41.4634 58.3811 40.9934L58.4811 40.8134C58.4311 40.6534 58.401 40.4634 58.451 40.2934H58.4811C58.4111 40.0634 58.4511 39.7834 58.4111 39.6634H58.4411L58.4311 39.3834L58.4711 39.4334C58.3911 39.0134 58.3911 38.5734 58.4211 38.1934L58.3011 38.2234C58.4311 37.4034 58.1911 37.1034 58.3411 36.3634H58.3711C58.2911 36.1434 58.2711 35.9334 58.2711 35.7334C58.2711 35.4534 58.2411 35.1434 58.1511 34.8634C57.9811 34.3134 57.491 33.7334 56.701 33.6734C56.891 33.6834 56.6411 33.5934 56.6611 33.5734C56.4911 33.5434 56.2711 33.5334 56.1511 33.5534C56.0411 33.5534 55.9411 33.5734 55.8511 33.5934C55.6711 33.6334 55.5511 33.6934 55.5511 33.8034C55.2311 33.8034 55.2911 33.7334 55.2411 33.6434C55.2411 33.7434 54.9611 33.7834 54.7111 33.7934L54.8311 33.7534L54.1011 33.7834L54.2411 33.9734C53.8611 33.9234 54.1411 33.7434 53.7711 33.7934V33.9534C53.2411 33.9234 52.9311 33.6834 52.4211 33.5734C51.3511 33.5434 50.2411 33.6234 49.1511 33.6834C48.6011 33.7134 48.0611 33.7334 47.5311 33.7334C47.2711 33.7334 47.0011 33.7334 46.7511 33.7134C46.6211 33.7134 46.5011 33.6934 46.3711 33.6834C46.2511 33.6634 46.0011 33.6634 45.8311 33.6934L45.6611 33.6134C45.6111 33.5434 45.4011 33.6734 45.2311 33.8434C45.0611 34.0134 44.9411 34.2134 44.8511 34.1934C44.7811 34.2934 44.7211 34.4034 44.6711 34.5134C44.5811 34.5734 44.451 34.7434 44.511 34.5634C44.331 34.8534 44.3611 34.8834 44.3311 35.1234C44.2611 35.2234 44.2011 35.3334 44.1511 35.4534C44.1311 35.5334 44.1311 35.6234 44.1211 35.7034V35.8634C44.1211 35.9634 44.1211 36.0634 44.1211 36.1634C44.1211 36.3634 44.1411 36.5634 44.1611 36.7634C44.2011 37.1634 44.2411 37.5634 44.2211 38.0034C44.0011 39.0734 44.2011 41.0834 44.3211 42.2434C44.4511 43.0734 44.3211 43.9034 44.2511 44.8634C44.1911 45.8634 44.4211 46.9534 45.0411 47.6934C45.0511 47.7634 45.181 47.8634 45.201 47.8534C45.511 48.3334 45.8711 48.8034 46.3111 49.1734C46.3111 49.1734 46.6911 49.5434 47.3011 49.8734C47.9011 50.2134 48.7311 50.4534 49.3811 50.4734C50.0311 50.4934 50.4511 50.3434 50.3511 50.1634C50.2711 49.9434 49.5911 49.7834 48.5411 48.9934L48.5911 48.9734C47.9411 48.6034 47.6111 48.3234 47.1011 48.1234C47.1911 47.9134 46.6811 47.6834 46.6411 47.4834H46.6611C46.2211 47.2334 46.2811 46.6434 45.9711 46.3334C45.9911 46.3334 46.0511 46.3334 46.1011 46.4134C45.9511 46.1434 45.7811 45.7434 45.9111 45.6934C45.7911 45.3434 45.7611 44.9234 45.7411 44.4934C45.7211 44.0234 45.6911 43.5834 45.5811 43.3134L45.6211 43.3534C45.4811 43.0434 45.6011 42.9534 45.5311 42.6034C45.5511 42.5834 45.5611 42.5634 45.5611 42.5634C45.4211 42.2234 45.5411 41.5734 45.4811 41.2934L45.5711 41.2734L45.5511 40.5934L45.5311 40.8434C45.2911 40.7534 45.6811 40.3334 45.5311 39.8434C45.5611 39.3834 45.0211 38.9134 45.1411 38.4334C45.0311 38.2034 45.3311 38.6334 45.2411 38.2934C45.3711 38.2834 45.3211 38.4534 45.4211 38.3634C45.3611 38.0334 45.5511 37.8134 45.4611 37.4034L45.5611 37.3834C45.3811 36.8434 45.6911 36.3734 45.5211 36.0134C45.5011 35.8734 45.5111 35.7734 45.5211 35.7234C45.5511 35.6834 45.5711 35.6534 45.6111 35.6334C45.6811 35.5834 45.7211 35.5734 45.6911 35.4034C45.7511 35.3934 45.8011 35.3834 45.8611 35.3934C45.9411 35.3334 45.7911 35.2134 45.9411 35.1834C45.9811 35.2534 46.1111 35.1734 46.0811 35.2734C46.1511 35.2734 46.2011 35.2734 46.2511 35.2534C46.2611 35.2534 46.2811 35.2534 46.2911 35.2434H46.4111C46.4911 35.2234 46.5811 35.2134 46.6611 35.2034C47.0011 35.1634 47.3611 35.1434 47.7711 35.2534C47.9511 35.0834 48.3611 35.1834 48.4911 35.0634C48.5111 35.1334 49.3111 35.0734 48.8511 35.2334C48.8111 35.2434 48.7411 35.2434 48.7511 35.2134L48.6911 35.3134C49.1611 35.4934 49.5411 35.2134 50.0011 35.2434C49.8611 35.2134 49.6811 35.2234 49.8011 35.1534H50.2311L50.1411 35.2534L50.7811 35.3034L50.6911 35.2034C51.0011 35.2534 51.1111 35.4334 51.4611 35.2834C51.6211 35.2034 51.1611 35.1434 51.4911 35.1134C51.9111 35.1834 52.5311 35.2834 53.0711 35.3134C53.0211 35.2034 53.1611 35.2034 53.3111 35.1834L53.3311 35.2834C53.9011 35.1434 53.5411 35.5034 54.1011 35.3934L54.0511 35.4634L54.201 35.2534C54.7111 35.0534 54.4711 35.4634 55.0411 35.1934C54.8211 35.2134 54.9411 34.9734 55.2111 35.0134L55.1411 35.1134C55.2911 35.0934 55.3411 35.0534 55.4411 35.0734C55.3511 35.1234 55.3911 35.2134 55.6211 35.1934L55.4711 35.3134L55.8911 35.1334C55.9711 35.1634 56.0611 35.1734 56.1611 35.1734H56.2911C56.3711 35.1934 56.4311 35.2334 56.4211 35.3034C56.4411 35.3034 56.5611 35.4934 56.7111 35.4934C56.6111 35.4934 56.631 35.6234 56.511 35.6234C56.571 35.6234 56.6311 35.6634 56.6511 35.7434C56.6711 35.9234 56.6611 36.1134 56.6111 36.2234V36.1834C56.4811 36.9734 56.7511 37.5334 56.6111 38.2534C56.7311 38.2234 56.6611 38.5934 56.8111 38.5034C56.9611 39.2434 56.5111 39.8434 56.9711 40.1134C56.9911 40.4434 56.8611 40.5134 56.8411 40.6834L56.8211 40.6034C56.8611 41.2334 56.8611 41.4134 56.8511 41.8734C56.8911 42.1034 57.1111 42.1434 57.0611 42.5634C56.9811 42.4334 56.9911 42.6034 56.9911 42.7534C56.9811 42.6534 56.9511 42.6234 56.8911 42.8234C56.9211 42.8534 56.931 42.8934 56.951 42.9334C56.951 42.9334 56.9411 42.9334 56.9311 42.9334C56.9611 43.1934 56.9911 43.1434 57.0011 43.0234C57.0111 43.0234 57.0311 43.0234 57.0511 42.9834C56.9411 43.2534 57.0511 43.7334 56.9111 43.7734C56.9511 44.5834 57.1011 45.0534 57.0211 45.6734C56.9311 45.7234 56.9111 45.5734 56.9011 45.4034C56.9011 45.5434 56.8611 45.6734 56.8411 45.8134C56.7311 45.7834 56.8511 45.5734 56.8411 45.4434C56.5811 45.8634 56.7511 46.4734 56.3211 46.9234V47.0634L56.3011 47.0834C56.3411 47.1034 56.3211 47.2534 56.2911 47.3334C56.1711 47.3534 56.111 47.2134 55.951 47.4434C55.751 47.5734 55.5911 47.9634 55.3911 48.1934C55.5211 48.0934 55.5211 48.1734 55.4911 48.2434C55.3811 48.3434 55.271 48.3334 55.201 48.4334L55.1111 48.3434C55.2311 48.4034 54.8911 48.6734 54.8711 48.7434C54.7511 48.7134 55.0111 48.5534 55.0011 48.4734C54.5311 48.8034 54.7711 48.6534 54.2811 48.9334C54.0411 49.1534 54.3811 49.0134 54.3011 49.1834C54.0611 49.3234 53.8211 49.5134 53.4811 49.5234L53.6111 49.6034C53.1111 49.8334 52.7511 49.8634 52.3811 49.7634C48.1811 50.6934 51.5011 51.0234 51.5011 51.0234C51.7111 51.0534 51.9011 51.0734 52.0911 51.0934C52.2811 51.1034 52.5211 51.0934 52.7211 51.0934C53.1311 51.0534 53.5211 50.9734 53.9011 50.8334C54.6511 50.5434 55.4011 50.1234 56.2411 49.3534L56.2211 49.2634Z" fill="#8E8E8E"/>
<path d="M50.6114 53.1829C50.6914 53.2429 50.7115 53.4529 50.8015 53.3729C50.8415 53.3929 50.8814 53.3429 50.9214 53.3129C50.9414 53.1429 50.9715 53.3129 50.9915 53.1729V53.2729C50.9915 53.2729 51.0214 53.1929 51.0214 53.2429V53.2729C51.0314 53.2029 51.0415 53.2429 51.0515 53.2029V53.2329L51.0615 53.2229V53.2629C51.0815 53.1829 51.1015 53.1829 51.1215 53.2129V53.0929C51.1615 53.2229 51.1714 52.9829 51.2114 53.1329V53.1629C51.2514 52.8529 51.2814 53.3729 51.3314 53.0829C51.3314 53.1229 51.3314 53.1429 51.3314 53.1729C51.3514 53.1429 51.3715 53.1229 51.3715 52.8929C51.3915 52.8929 51.3815 52.9629 51.3815 53.0529C51.3815 52.9529 51.3914 52.9129 51.4114 52.9029V52.9429L51.4415 52.9129V52.7229C51.4515 52.7729 51.4414 52.9529 51.4614 52.9029V52.7429C51.4614 52.7429 51.5014 53.0129 51.5214 53.1229C51.6214 53.1929 51.7314 52.7929 51.8314 53.0629V53.1829C51.8314 53.3529 51.8614 52.9329 51.8614 53.0829V53.0029C51.8614 53.0029 51.8815 53.0629 51.8815 53.1029C51.8915 53.1029 51.8914 53.0829 51.9014 53.0329V53.1429C51.9514 53.2229 51.9914 53.0229 52.0314 53.0629C52.0814 53.2829 52.1814 53.0829 52.2314 52.9629C52.3114 52.7029 52.4014 53.3929 52.4814 53.0929C52.4814 53.1129 52.4814 53.0629 52.4814 53.0429L52.5515 53.0629C52.5515 53.0629 52.9015 53.1329 52.6315 51.7029V51.6629C52.5915 51.5729 52.5714 51.5529 52.5414 51.7429C52.5414 51.5129 52.5115 51.7229 52.5015 51.6429V51.6229C52.4815 51.8029 52.4515 51.4729 52.4315 51.6329C52.4315 51.6129 52.4315 51.5529 52.4315 51.5429C52.4115 51.5729 52.3914 51.6229 52.3914 51.4929C52.3514 51.5329 52.2914 51.4629 52.2714 51.6829V51.6429C52.2614 51.7829 52.2515 51.6629 52.2415 51.7329C52.2415 51.7129 52.2415 51.7029 52.2415 51.7029C52.2215 51.8429 52.1915 51.7229 52.1815 51.7829V51.6929L52.1514 51.7129V51.7329C52.1514 51.9829 52.1414 51.5829 52.1114 51.7329C52.0914 51.7029 52.0714 52.2429 52.0414 52.1229C52.0314 52.2329 52.0414 51.9329 52.0414 52.0229C52.0414 51.8929 52.0414 51.9429 52.0414 51.8429C52.0214 51.9029 52.0115 51.7129 51.9915 51.8029V51.7029C51.9615 51.8829 51.9414 51.5729 51.9214 51.7429C51.8914 51.8229 51.9015 51.4429 51.8715 51.6429V51.5129C51.8715 51.5129 51.8514 51.6729 51.8414 51.6129C51.8414 51.5329 51.8214 51.5429 51.8414 51.4629C51.8114 51.3329 51.7815 51.6529 51.7415 51.4229C51.7415 51.5929 51.7114 51.4929 51.7114 51.6129C51.7114 51.5429 51.6715 51.6029 51.6915 51.4429C51.6915 51.4329 51.6915 51.4329 51.6915 51.4629V51.3629C51.6715 51.1829 51.6515 51.4629 51.6315 51.4329C51.6315 51.4629 51.6515 51.4529 51.6315 51.5229H51.6114V51.4229L51.5814 51.3729V51.4729C51.5714 51.4229 51.5615 51.2429 51.5515 51.3929C51.5515 51.4729 51.5615 51.5329 51.5515 51.5629C51.5315 51.4929 51.5014 51.3929 51.4814 51.3629C51.4814 51.4729 51.4814 51.4729 51.4714 51.4929V51.3929C51.4414 51.5329 51.4615 51.1729 51.4315 51.2829V51.2129V51.4229C51.4115 51.6229 51.4214 51.2129 51.3914 51.4829C51.4014 51.4629 51.3914 51.7029 51.3914 51.6629V51.5629C51.3914 51.5629 51.3915 51.6229 51.3815 51.6029C51.3815 51.5529 51.3815 51.4629 51.3815 51.4829V51.3629L51.3715 51.5429C51.3515 51.4429 51.3315 51.5729 51.3215 51.4329C51.3215 51.4329 51.2914 51.3629 51.2814 51.5129C51.2814 51.4229 51.2714 51.3829 51.2814 51.2729C51.2814 51.3729 51.2515 51.4629 51.2415 51.3529C51.2015 51.2229 51.1814 51.4929 51.1414 51.3529C51.1414 51.4729 51.1215 51.4029 51.1315 51.5529C51.1015 51.7029 51.0715 51.2529 51.0515 51.7129C51.0315 51.7329 51.0314 51.6029 51.0214 51.5829V51.5629C51.0214 51.5629 50.9914 51.6029 50.9614 51.5929C50.9514 51.6329 50.9515 51.8529 50.9315 51.8029C50.9315 51.7229 50.9315 51.7329 50.9315 51.7329C50.9315 51.7229 50.9315 51.6929 50.9315 51.6329C50.9315 51.6629 50.9315 51.6729 50.9315 51.6929C50.9315 51.6929 50.9315 51.6829 50.9315 51.6729C50.9215 51.7029 50.9215 51.7329 50.9315 51.7429C50.9315 51.7529 50.9315 51.7729 50.9315 51.7929C50.9215 51.6829 50.8914 51.7929 50.8914 51.6529C50.8514 51.6829 50.8315 51.8329 50.8015 51.8929C50.8015 51.8229 50.8015 51.7529 50.8115 51.7229L50.7914 51.7529C50.7914 51.6429 50.8015 51.6929 50.8115 51.6729C50.7815 51.5029 50.7614 51.8429 50.7314 51.6829V51.7629V51.7529C50.7314 51.7929 50.7314 51.8629 50.7214 51.8729C50.7214 51.7829 50.7214 51.6529 50.7114 51.6629C50.7014 51.5729 50.6814 51.7129 50.6614 51.7629C50.6614 51.7829 50.6614 51.8329 50.6614 51.8629C50.6614 51.8629 50.6514 51.7729 50.6414 51.8129V51.6829C50.6414 51.8029 50.6215 51.8129 50.6215 51.8629C50.6215 51.7729 50.6315 51.7829 50.6315 51.7129C50.6015 51.7229 50.6114 51.7129 50.5814 51.7329C50.5614 51.8229 50.5814 51.8529 50.5814 51.9629C50.5714 51.9829 50.5514 52.0729 50.5414 52.0029V52.1129C50.5214 52.2029 50.5014 52.1829 50.4814 52.0729C50.2814 52.9829 50.4415 53.3229 50.4415 53.3229C50.5215 53.5729 50.5614 53.2429 50.6514 53.1529L50.6114 53.1829Z" fill="#8E8E8E"/>
<path d="M50.9308 58.8438L50.8809 58.9637C50.8809 58.9637 50.9208 58.9338 50.9308 58.8438Z" fill="#8E8E8E"/>
<path d="M52.1408 61.8132C52.1408 61.8132 52.1409 61.7932 52.1309 61.7832C52.1309 61.8032 52.1408 61.8132 52.1408 61.8132Z" fill="#8E8E8E"/>
<path d="M49.3596 63.2444L49.3496 63.2344L49.3596 63.2444Z" fill="#8E8E8E"/>
<path d="M49.4905 57.4235C49.4305 58.9935 49.2205 59.4135 49.3005 61.0435C49.3005 61.4335 49.3005 61.8335 49.3105 62.2335L49.3305 62.8335C49.3305 63.0035 49.3505 63.3035 49.3505 63.2435C49.4305 63.2735 49.4305 63.3335 49.4305 63.3735C49.4305 63.4335 49.3605 63.3935 49.3605 63.4735C49.3305 63.4435 49.3105 63.4135 49.2905 63.3735C49.2605 63.4235 49.3205 63.4535 49.1105 63.4035V63.3735C48.9005 63.4435 48.6505 63.4035 48.5405 63.4435V63.4135L48.2805 63.4235L48.3305 63.3835C48.1405 63.4235 47.9405 63.4435 47.7505 63.4535H47.3305H47.1005L47.1605 63.5635C46.5405 63.5635 46.1505 63.8635 45.9005 64.1635C45.6505 64.4735 45.4705 64.8235 45.3405 65.3635L45.3105 65.3435C45.4205 66.0535 45.6305 66.5535 46.0005 66.9835C46.1905 67.1935 46.4305 67.3735 46.7305 67.4635C47.0305 67.5635 47.4106 67.5435 47.5706 67.4635C47.4606 67.5035 47.6205 67.5235 47.6105 67.5535C48.0105 67.5235 48.4405 67.5035 48.4505 67.2735C48.7405 67.2735 48.6905 67.3435 48.7305 67.4335C48.7305 67.3335 48.9805 67.2935 49.2105 67.2835L49.1005 67.3235L49.7605 67.2935L49.6306 67.1035C49.9806 67.1535 49.7205 67.3335 50.0505 67.2835V67.1235C50.5305 67.1535 50.8105 67.3935 51.2805 67.5035C52.2505 67.5335 53.2505 67.4535 54.2405 67.3935C54.7305 67.3635 55.2205 67.3435 55.7005 67.3435C56.4205 67.3635 57.1405 66.9435 57.4905 66.3035C57.5405 66.2835 57.6005 66.2535 57.6505 66.2235C57.7405 66.2235 57.7605 65.9935 57.7205 65.7635C57.6905 65.5335 57.6005 65.3435 57.6705 65.2735C57.6305 65.1635 57.5805 65.0535 57.5305 64.9635C57.5305 64.8635 57.4905 64.6635 57.5905 64.8135C57.4705 64.5135 57.4305 64.5235 57.2605 64.3635C57.2205 64.2535 57.1705 64.1435 57.1105 64.0335C56.8905 63.7935 56.6105 63.6335 56.3105 63.5535C56.0205 63.4635 55.6605 63.4835 55.5305 63.5035C55.1705 63.5435 54.8105 63.5835 54.4005 63.5635C54.2805 63.5335 54.1405 63.5135 54.0005 63.5035L53.8005 63.4835H53.7405C53.6905 63.4435 53.5405 63.5235 53.5305 63.4235L53.5005 63.3035L53.4805 63.2335L53.4605 62.9935C53.4305 62.6635 53.3905 62.3535 53.3605 62.0835C53.1005 60.6135 53.7905 58.8935 53.4905 57.3835C53.5105 57.3335 53.4606 57.2035 53.4406 57.2035L53.4605 55.8235C53.4605 55.8235 53.5305 49.1235 52.1005 54.2135L52.0605 54.1835C51.9705 54.9435 51.9505 55.4135 52.1405 55.9335C51.9105 56.0135 52.1205 56.5535 52.0405 56.7335L52.0205 56.7135C52.2005 57.1735 51.8705 57.6635 52.0305 58.1135C52.0105 58.0935 51.9506 58.0835 51.9406 57.9835C51.9706 58.3035 52.0205 58.7535 51.8905 58.7735C51.9305 59.5435 51.8605 60.6235 52.0805 61.1235L52.0405 61.0935C52.1805 61.3735 52.0606 61.4635 52.1306 61.7735C52.1106 61.7935 52.1005 61.8135 52.1005 61.8135C52.2405 62.1235 52.1205 62.7135 52.1805 62.9635L52.0905 62.9835L52.1105 63.7935L52.1306 63.4435C52.2506 63.4935 52.2105 63.6535 52.1605 63.9135C52.1205 64.1835 52.1105 64.4935 52.3405 64.6635C52.5405 64.8635 52.8905 64.7735 53.2205 64.6635C53.5505 64.5435 53.7905 64.4435 53.9905 64.5035C54.2005 64.3935 53.8105 64.6935 54.1205 64.6035C54.1305 64.7335 53.9805 64.6835 54.0605 64.7835C54.3605 64.7235 54.5605 64.9135 54.9305 64.8235L54.9505 64.9235C55.1905 64.8335 55.4206 64.8635 55.6306 64.9035C55.8106 64.9335 55.8305 64.9835 55.9505 64.9435C56.2405 65.0335 55.9105 65.2335 56.1805 65.3035C56.1505 65.3535 56.1205 65.3935 56.0805 65.4235C56.0805 65.4935 56.2606 65.4535 56.1906 65.5735C56.1106 65.5735 56.1005 65.6735 56.0405 65.6135C55.9605 65.6735 55.9705 65.7435 55.9105 65.8435C55.8805 65.8835 55.8405 65.9235 55.7805 65.9335C55.7505 65.9335 55.7206 65.9335 55.6906 65.9235C55.6306 65.9135 55.5205 65.8935 55.4305 65.8635C55.2705 66.0335 54.9005 65.9335 54.7805 66.0535C54.7605 65.9835 54.0305 66.0435 54.4505 65.8835C54.4905 65.8735 54.5505 65.8735 54.5405 65.9035L54.5905 65.8035C54.1705 65.6235 53.8205 65.9035 53.4105 65.8735C53.5305 65.9035 53.7005 65.8935 53.5905 65.9635H53.2005L53.2805 65.8635L52.7005 65.8135L52.7805 65.9135C52.5005 65.8635 52.4005 65.6835 52.0805 65.8335C51.9405 65.9135 52.3505 65.9735 52.0505 66.0035C51.6705 65.9335 51.1105 65.8335 50.6205 65.8035C50.6605 65.9135 50.5405 65.9135 50.4005 65.9335L50.3806 65.8335C49.8706 65.9735 50.1905 65.6135 49.6805 65.7235L49.7205 65.6535L49.5905 65.8635C49.1305 66.0635 49.3405 65.6535 48.8305 65.9235C49.0305 65.9035 48.9205 66.1435 48.6805 66.1035L48.7405 66.0035C48.6005 66.0235 48.5605 66.0635 48.4705 66.0435C48.5505 65.9935 48.5105 65.9035 48.3105 65.9235L48.4505 65.8035L48.0706 65.9835C47.8006 65.8835 47.2505 66.0135 47.2505 65.8735C47.2305 65.8735 47.1205 65.7835 46.9905 65.8535C47.0705 65.8135 47.0306 65.7135 47.1306 65.6635C47.0306 65.7335 46.8805 65.6035 47.0005 65.5435H47.0105C47.0605 65.4735 47.0405 65.4335 47.0605 65.3435C47.0705 65.2635 47.1505 65.1835 47.2405 65.2535C47.2405 65.1935 47.2405 65.1835 47.2905 65.1635C47.3605 65.1435 47.4206 65.1235 47.3806 65.0535C48.0506 64.9035 48.5905 65.3535 48.8305 64.8935C48.9805 64.8835 49.0705 64.9035 49.1405 64.9435C49.2305 64.9735 49.3305 65.0135 49.4605 65.0235L49.3405 65.0435C49.8105 65.0235 50.1106 65.0335 50.3206 64.9435C50.4306 64.9035 50.5105 64.8835 50.6005 64.8135C50.7005 64.7435 50.7806 64.6335 50.8206 64.5135C50.8806 64.2235 50.6805 64.0635 50.7205 63.5435C50.8005 63.7435 50.7905 63.5135 50.7905 63.2935C50.8005 63.4335 50.8305 63.4735 50.8905 63.2035C50.8605 63.1735 50.8505 63.1335 50.8305 63.1035C50.8305 63.1035 50.8405 63.1035 50.8505 63.1035C50.8205 62.8635 50.7905 62.9135 50.7805 63.0135C50.7705 63.0135 50.7505 63.0135 50.7305 63.0535C50.8405 62.8135 50.7305 62.3735 50.8705 62.3435C50.8405 61.6335 50.6906 61.1335 50.6306 60.5435C50.7006 60.4735 50.7705 60.6135 50.8005 60.7835L50.7705 60.3635C50.8805 60.3635 50.8305 60.6035 50.8505 60.7335C51.0205 60.2335 50.6805 59.7035 50.8405 59.1235L50.7605 59.0035V58.9735C50.7605 58.9735 50.6705 58.8435 50.6505 58.7535C50.7405 58.6735 50.8705 58.7535 50.8605 58.4735C50.9505 58.2435 50.8205 57.8235 50.7605 57.5235C50.7405 57.6835 50.6905 57.6335 50.6605 57.5635C50.6605 57.4235 50.7505 57.3335 50.7105 57.2235H50.8405C50.7205 57.2635 50.7105 56.8335 50.6605 56.7835C50.7505 56.7035 50.7405 57.0035 50.8105 57.0435C50.8005 56.4635 50.8105 56.7535 50.7905 56.1735C50.7005 55.8635 50.6705 56.2335 50.5605 56.0835C50.5405 55.8135 50.4505 55.5435 50.5205 55.2335L50.4105 55.3335C50.3205 54.8235 50.3405 54.5135 50.4505 54.1735C49.5405 50.3535 49.2105 53.3735 49.2105 53.3735C48.9605 54.8735 49.2906 55.6535 49.3806 57.4435L49.4905 57.4235Z" fill="#8E8E8E"/>
<path d="M42.3004 46.823V46.623C42.3004 46.623 42.2704 46.683 42.3004 46.823Z" fill="#8E8E8E"/>
<path d="M60.5312 41.7734C60.5312 41.7734 60.5313 41.8034 60.5413 41.8134C60.5413 41.7834 60.5312 41.7734 60.5312 41.7734Z" fill="#8E8E8E"/>
<path d="M43.541 39.6445C43.541 39.6445 43.541 39.6845 43.551 39.7045V39.6445H43.541Z" fill="#8E8E8E"/>
<path d="M44.4807 48.2136C43.9407 47.2736 43.8107 46.5836 43.7007 45.9236C43.6207 45.2336 43.6307 44.6236 43.6007 43.3136C43.6207 42.1136 43.5707 40.8336 43.5407 39.6536C43.3707 39.0936 43.5407 38.1136 43.4007 37.4536L43.5007 37.1936C43.4507 36.9636 43.4207 36.7036 43.4707 36.4736H43.5007C43.4307 36.1536 43.4707 35.7636 43.4307 35.5936H43.4607L43.4507 35.1936L43.4907 35.2636C43.4107 34.6736 43.4107 34.0636 43.4407 33.5236L43.3207 33.5636C43.4507 32.4136 43.2107 31.9936 43.3607 30.9536H43.3907C43.3207 30.5536 43.2707 30.5436 43.3207 30.4536C43.3607 30.3736 43.4507 30.3336 43.5307 30.3436C43.5707 30.3436 43.6107 30.3636 43.6407 30.3736C43.7407 30.3836 43.9007 30.3936 44.0307 30.3936C44.3107 30.3936 44.6107 30.3736 44.9507 30.3036C44.7807 30.3436 45.0207 30.3636 45.0107 30.3936C45.6307 30.3636 46.3007 30.3436 46.3107 30.1136C46.7607 30.1136 46.6807 30.1836 46.7407 30.2736C46.7407 30.1736 47.1307 30.1336 47.4907 30.1236L47.3307 30.1636L48.3407 30.1336L48.1407 29.9436C48.6807 29.9936 48.2807 30.1736 48.7907 30.1236V29.9636C49.5307 29.9936 49.9607 30.2336 50.6807 30.3436C52.1807 30.3736 53.7307 30.2936 55.2607 30.2336C56.0207 30.2036 56.7807 30.1836 57.5207 30.1836C57.8907 30.1836 58.2607 30.1836 58.6207 30.2036H58.8607C58.8607 30.2036 58.9307 30.2236 58.9507 30.2436C59.0107 30.2636 59.0607 30.3036 59.0907 30.3636C59.0707 30.4036 59.0507 30.4436 59.0207 30.4736C58.9607 30.5336 59.0207 30.5036 59.1007 30.5336C59.1807 30.5736 59.2407 30.6036 59.1607 30.6936L59.2407 31.0136C59.2107 31.1036 59.1807 31.2936 59.1407 31.1336C59.1407 31.4336 59.1607 31.4436 59.2107 31.6536L59.1007 31.9736C59.0207 33.1536 59.2207 34.1636 59.1807 35.4036C58.9607 36.8936 59.1607 39.7136 59.2807 41.3336C59.4107 42.4736 59.3007 43.7036 59.2007 44.9436C59.1207 46.1136 58.7507 47.1036 58.4107 48.1036C58.3707 48.1536 58.3207 48.3336 58.3407 48.3436C58.0307 48.9036 57.6007 49.3936 57.1407 49.8236C57.1407 49.8236 56.7307 50.2336 56.0807 50.6436C55.4407 51.0636 54.5607 51.4236 53.8507 51.6136C53.1407 51.8236 52.6107 51.9036 52.7307 52.1136C52.8507 52.2436 53.6907 52.7336 55.8207 52.2836L55.7807 52.3436C56.9807 51.9036 57.6707 51.3936 58.1607 50.6536C58.4307 50.7236 58.8907 49.9036 59.1007 49.7036V49.7336C59.3907 49.0136 60.0907 48.4336 60.1707 47.6436C60.1707 47.6736 60.2307 47.7136 60.1707 47.8736C60.3507 47.3436 60.4507 46.6036 60.5807 46.5836C60.6907 45.9336 60.7107 45.0936 60.6907 44.4636C60.6707 43.8036 60.6407 43.1936 60.5307 42.8136L60.5707 42.8636C60.4307 42.4236 60.5507 42.3036 60.4807 41.8136C60.5007 41.7836 60.5107 41.7536 60.5107 41.7536C60.3707 41.2736 60.4907 40.3636 60.4307 39.9836L60.5207 39.9636L60.5007 39.0136L60.4807 39.3636C60.2407 39.2436 60.6307 38.6436 60.4807 37.9636C60.5107 37.3236 59.9707 36.6636 60.0907 35.9936C59.9807 35.6736 60.2807 36.2736 60.1907 35.7936C60.3207 35.7736 60.2707 36.0136 60.3707 35.8936C60.3107 35.4236 60.5007 35.1236 60.4107 34.5536L60.5107 34.5336C60.3307 33.7836 60.6407 33.1136 60.4707 32.6136C60.3907 31.8436 60.7707 32.0936 60.5707 31.2836L60.7007 30.9736C60.7007 30.6136 60.5707 30.7936 60.5707 30.1636C60.6207 30.1636 60.6007 29.9736 60.5407 29.8136C60.4907 29.6636 60.4407 29.5436 60.5707 29.6936C60.4407 29.3436 60.1607 29.0436 59.8007 28.8636C59.6207 28.7736 59.4307 28.7236 59.2307 28.6936C59.0407 28.6736 58.7807 28.6936 58.7007 28.6936C58.2307 28.7336 57.7207 28.7536 57.1507 28.6436C56.9007 28.8036 56.3307 28.7136 56.1407 28.8336C56.1107 28.7636 54.9907 28.8236 55.6307 28.6636C55.6907 28.6536 55.7807 28.6536 55.7807 28.6836L55.8607 28.5836C55.2107 28.4036 54.6807 28.6836 54.0307 28.6536C54.2207 28.6836 54.4807 28.6736 54.3107 28.7436H53.7107L53.8307 28.6436L52.9407 28.5936L53.0607 28.6936C52.6207 28.6436 52.4707 28.4636 51.9807 28.6136C51.7607 28.6936 52.3907 28.7536 51.9307 28.7836C51.3507 28.7136 50.4707 28.6136 49.7307 28.5836C49.8007 28.6936 49.6007 28.6936 49.3907 28.7136L49.3707 28.6136C48.5807 28.7536 49.0807 28.3936 48.3007 28.5036L48.3707 28.4336L48.1607 28.6436C47.4507 28.8436 47.7807 28.4336 46.9907 28.7036C47.3007 28.6836 47.1407 28.9236 46.7507 28.8836L46.8507 28.7836C46.6407 28.8036 46.5707 28.8436 46.4307 28.8236C46.5607 28.7736 46.5007 28.6836 46.1907 28.7036L46.4007 28.5836L45.8107 28.7636C45.3607 28.6636 44.6307 28.7936 44.4507 28.6536C44.4507 28.6536 44.2107 28.6336 43.9307 28.6436H43.7207L43.4507 28.6636C43.2307 28.6836 43.0607 28.7436 42.9907 28.8136C43.1407 28.7236 42.9907 28.7236 42.8207 28.7536C42.6607 28.7736 42.4807 28.8436 42.5807 28.7236C42.3907 28.8736 42.0407 29.1836 41.8607 29.6036C41.7607 29.8136 41.7007 30.0336 41.6707 30.2336C41.6407 30.4436 41.6407 30.6436 41.6107 30.6836V30.6236C41.4807 31.7336 41.7507 32.5136 41.6107 33.5136C41.7307 33.4636 41.6607 33.9936 41.8107 33.8636C41.9607 34.8936 41.5107 35.7336 41.9707 36.1136C41.9907 36.5836 41.8607 36.6636 41.8407 36.9136L41.8207 36.8036C41.8607 37.6836 41.8607 37.9336 41.8507 38.5836C41.8907 38.9136 42.1107 38.9636 42.0607 39.5436C41.9807 39.3536 41.9907 39.5936 41.9907 39.8136C41.9807 39.6736 41.9507 39.6336 41.8907 39.9136C41.9207 39.9536 41.9307 40.0136 41.9507 40.0736C41.9507 40.0736 41.9407 40.0836 41.9307 40.0736C41.9607 40.4336 41.9907 40.3736 42.0007 40.2036C42.0107 40.2036 42.0307 40.2036 42.0507 40.1436C41.9407 40.5236 42.0507 41.1936 41.9107 41.2436C41.9407 42.3336 42.0907 43.1236 42.1507 44.0236C42.0807 44.1236 42.0107 43.9136 41.9807 43.6536L42.0107 44.3036C41.9007 44.3036 41.9507 43.9336 41.9307 43.7336C41.7507 44.4836 42.1007 45.3836 42.1607 46.3336L42.2907 46.5036V46.5636C42.2907 46.5636 42.4507 46.7436 42.4907 46.8736C42.4407 47.0336 42.2807 46.9236 42.4507 47.3836C42.4907 47.7836 42.9107 48.3736 43.2107 48.7536C43.0907 48.5136 43.1807 48.5636 43.2607 48.6436C43.3907 48.8436 43.3707 49.0136 43.5107 49.1436L43.4207 49.2336C43.4607 49.0936 43.9007 49.6536 43.9907 49.6936C43.9907 49.8636 43.7107 49.4536 43.6107 49.4436C44.2107 50.1936 43.9107 49.8236 44.5707 50.5136C45.0107 50.7836 44.5807 50.3636 44.8407 50.4436C45.1807 50.7336 45.5707 50.9136 45.9407 51.2536L45.8707 51.0736C46.6007 51.4336 47.0107 51.6536 47.4907 51.9536C49.0007 52.2636 49.8207 52.0236 50.1907 51.8936C50.5707 51.7536 50.5507 51.6136 50.3307 51.5136C50.1407 51.3936 49.7907 51.3336 49.4907 51.2436C49.2007 51.1536 48.9507 51.0936 48.9507 51.0936C48.0007 50.7536 47.3107 50.4636 46.6107 50.0636C45.9207 49.6636 45.1507 49.1636 44.4607 48.1436L44.4807 48.2136Z" fill="#8E8E8E"/>
<path d="M30.9135 44.5129L30.8535 44.4629C30.8535 44.4629 30.8735 44.5029 30.9135 44.5129Z" fill="#8E8E8E"/>
<path d="M16.1135 44.5332C16.1135 44.5332 16.1035 44.5332 16.1035 44.5432C16.1035 44.5432 16.1135 44.5432 16.1135 44.5332Z" fill="#8E8E8E"/>
<path d="M28.6426 42.9436C28.6426 42.9436 28.6526 42.9436 28.6626 42.9336H28.6426V42.9436Z" fill="#8E8E8E"/>
<path d="M31.6226 43.0736C30.8426 43.0136 30.6326 42.8036 29.8226 42.8836C29.4326 42.8636 29.0226 42.9136 28.6426 42.9436C28.4626 43.1136 28.1426 42.9436 27.9326 43.0836L27.8526 42.9836C27.7826 43.0336 27.6926 43.0636 27.6226 43.0136V42.9836C27.5226 43.0536 27.3926 43.0136 27.3426 43.0536V43.0236L27.2126 43.0336L27.2326 42.9936C27.0426 43.0736 26.8426 43.0736 26.6726 43.0436V43.1636C26.3126 43.0336 26.1826 43.2736 25.8426 43.1236V43.0936C25.4226 43.4036 25.1826 42.8836 24.7426 43.1736C24.7926 43.1336 24.7226 43.1136 24.7226 43.0836C24.5226 43.1136 24.3126 43.1336 24.3026 43.3636C24.1526 43.3636 24.1826 43.2936 24.1626 43.2036C24.1626 43.3036 24.0326 43.3436 23.9226 43.3536L23.9726 43.3136L23.6426 43.3436L23.7026 43.5336C23.5326 43.4836 23.6626 43.3036 23.4926 43.3536V43.5136C23.2526 43.4836 23.1126 43.2436 22.8826 43.1336C21.9226 43.0636 20.8826 43.4636 19.9826 43.1936L19.9426 43.0736C19.9226 42.9036 19.6926 43.3236 19.6626 43.1736L19.5626 43.2536C19.5626 43.2536 19.4726 43.1936 19.5226 43.1536C19.4226 43.1536 19.4226 43.1736 19.3526 43.2236L19.2526 43.1136C18.8726 43.0336 18.5426 43.2336 18.1426 43.1936C17.6626 42.9736 16.7526 43.1736 16.2326 43.2936C15.5026 43.5536 14.6426 42.8636 13.8926 43.1636C13.8726 43.1436 13.8026 43.1936 13.8026 43.2136L13.1126 43.1936C13.1126 43.1936 9.7726 43.1236 12.3126 44.5536L12.2926 44.5936C12.6726 44.6836 12.9026 44.7036 13.1626 44.5136C13.2026 44.7436 13.4726 44.5336 13.5626 44.6136V44.6336C13.7826 44.4536 14.0226 44.7836 14.2526 44.6236C14.2526 44.6436 14.2426 44.7036 14.1926 44.7036C14.3526 44.6736 14.5726 44.6236 14.5826 44.7536C14.9726 44.7136 15.5026 44.7836 15.7526 44.5636L15.7326 44.6036C15.8726 44.4636 15.9126 44.5836 16.0726 44.5136C16.0726 44.5336 16.0926 44.5436 16.0926 44.5436C16.2426 44.4036 16.5426 44.5236 16.6626 44.4636V44.5536L16.9726 44.5336L16.8626 44.5136C16.9026 44.2636 17.0926 44.6636 17.3126 44.5136C17.5226 44.5436 17.7326 44.0036 17.9526 44.1236C18.0526 44.0136 17.8626 44.3136 18.0126 44.2236C18.0126 44.3536 17.9426 44.3036 17.9826 44.4036C18.1326 44.3436 18.2326 44.5336 18.4126 44.4436V44.5436C18.6626 44.3636 18.8726 44.6736 19.0426 44.5036C19.2926 44.4236 19.2126 44.7936 19.4726 44.6036L19.5726 44.7336C19.6826 44.7536 19.6526 44.5736 19.7726 44.6336C19.7726 44.7136 19.9326 44.7036 19.8526 44.7836C20.1326 44.9136 20.4226 44.5936 20.7926 44.8236C20.8726 44.6536 21.0626 44.7536 21.1126 44.6336C21.1126 44.7036 21.4826 44.6436 21.2726 44.8036C21.2526 44.8136 21.2226 44.8136 21.2226 44.7836L21.2026 44.8836C21.4126 45.0636 21.5826 44.7836 21.7926 44.8136C21.7326 44.7836 21.6526 44.7936 21.7026 44.7236H21.8926L21.8526 44.8236L22.1426 44.8736L22.1026 44.7736C22.2426 44.8236 22.2926 45.0036 22.4526 44.8536C22.5226 44.7736 22.3226 44.7136 22.4726 44.6836C22.6626 44.7536 22.9426 44.8536 23.1826 44.8836C23.1626 44.7636 23.2226 44.7736 23.2926 44.7536V44.8536C23.5526 44.7136 23.3926 45.0736 23.6426 44.9636L23.6226 45.0336L23.6926 44.8236C23.9226 44.6236 23.8126 45.0336 24.0726 44.7636C23.9726 44.7836 24.0226 44.5436 24.1526 44.5836L24.1226 44.6836C24.1926 44.6636 24.2126 44.6236 24.2626 44.6436C24.2226 44.6936 24.2426 44.7836 24.3426 44.7636L24.2726 44.8836L24.4626 44.7036C24.6126 44.8036 24.8426 44.6736 24.9026 44.8136C24.9026 44.8136 25.2126 44.8836 25.2926 44.7336C25.2326 44.8236 25.4026 44.8636 25.3526 44.9736C25.4326 44.8736 25.6726 44.7836 25.7726 44.8936H25.7526C26.1126 45.0236 26.3626 44.7536 26.6826 44.8936C26.6726 44.7736 26.8326 44.8436 26.7926 44.6936C27.1226 44.5436 27.3926 44.9936 27.5126 44.5336C27.6626 44.5136 27.6926 44.6436 27.7726 44.6636L27.7326 44.6836C28.0126 44.6436 28.0926 44.6436 28.3026 44.6536C28.4026 44.6136 28.4226 44.3936 28.6126 44.4436C28.5526 44.5236 28.6326 44.5136 28.7026 44.5136C28.6626 44.5236 28.6426 44.5536 28.7326 44.6136C28.7426 44.5836 28.7626 44.5736 28.7826 44.5536C28.7826 44.5536 28.7826 44.5636 28.7826 44.5736C28.9026 44.5436 28.8826 44.5136 28.8226 44.5036C28.8226 44.4936 28.8226 44.4736 28.8026 44.4536C28.9226 44.5636 29.1426 44.4536 29.1526 44.5936C29.5026 44.5636 29.7526 44.4136 30.0526 44.3536C30.0826 44.4236 30.0126 44.4936 29.9326 44.5236L30.1426 44.4936C30.1426 44.6036 30.0226 44.5536 29.9626 44.5736C30.2126 44.7436 30.4726 44.4036 30.7626 44.5636L30.8226 44.4836H30.8426C30.8426 44.4836 30.9026 44.3936 30.9526 44.3736C30.9926 44.4636 30.9526 44.5936 31.0926 44.5836C31.2026 44.6736 31.4126 44.5336 31.5626 44.4836C31.4826 44.4636 31.5126 44.4136 31.5426 44.3836C31.6126 44.3836 31.6526 44.4736 31.7126 44.4336V44.5636C31.6926 44.4436 31.9026 44.4336 31.9326 44.3836C31.9726 44.4736 31.8226 44.4636 31.8026 44.5336C32.0926 44.5236 31.9426 44.5336 32.2326 44.5136C32.3826 44.4236 32.2026 44.3936 32.2826 44.2836C32.4226 44.2636 32.5526 44.1736 32.7026 44.2436L32.6526 44.1336C32.9126 44.0436 33.0626 44.0636 33.2326 44.1736C35.1326 43.2636 33.6326 42.9336 33.6326 42.9336C32.8826 42.6836 32.5026 43.0136 31.6026 43.1036L31.6226 43.0736Z" fill="#8E8E8E"/>
<path d="M34.7433 52.6855L34.6934 52.8456C34.6934 52.8456 34.7333 52.8055 34.7433 52.6855Z" fill="#8E8E8E"/>
<path d="M10.7932 56.665C10.7932 56.665 10.7932 56.645 10.7832 56.625C10.7832 56.655 10.7932 56.665 10.7932 56.665Z" fill="#8E8E8E"/>
<path d="M33.303 50.7748C33.243 52.8848 33.033 53.4448 33.113 55.6348C33.093 56.6648 33.153 57.8148 33.163 58.7848C33.323 59.2248 33.083 59.9648 33.063 60.4748L32.923 60.6448C32.923 60.8248 32.8729 61.0348 32.7729 61.1748L32.753 61.1548C32.753 61.4348 32.563 61.6748 32.543 61.8148L32.5229 61.7948L32.3929 62.0848V62.0148C32.3029 62.2248 32.1929 62.4348 32.0829 62.6348C31.9529 62.8248 31.813 62.9948 31.673 63.1548L31.783 63.1948C31.103 63.7748 31.0329 64.2048 30.2729 64.5648V64.5348C29.9329 64.9548 29.5429 65.1248 29.1429 65.2348C28.9329 65.2948 28.733 65.3648 28.543 65.4248C28.343 65.5048 28.123 65.5948 27.883 65.7248C28.003 65.6548 27.813 65.6848 27.813 65.6548C27.353 65.8148 26.833 65.8748 26.853 66.1148C26.483 66.1348 26.553 66.0548 26.493 65.9748C26.493 66.0748 26.203 66.1448 25.883 66.1448L26.0229 66.1047L25.1429 66.1348L25.313 66.3248C24.843 66.2748 25.193 66.0948 24.743 66.1448V66.3048C24.103 66.2748 23.723 66.0348 23.093 65.9248C21.803 65.8848 20.4129 65.9948 19.1429 66.0148C17.9329 66.0148 16.713 65.7048 15.823 65.0148L15.803 64.8648C15.863 64.7048 15.153 64.7748 15.183 64.5748L14.933 64.4848C14.893 64.4148 14.793 64.3048 14.923 64.3448C14.733 64.2048 14.723 64.2048 14.563 64.1348L14.4529 63.8848C13.8629 63.1948 13.223 62.6748 12.823 61.7648C12.663 61.1948 12.383 60.4048 12.253 59.5548C12.123 58.7448 12.0829 57.7448 12.0129 57.0448C11.7529 55.0648 12.4429 52.7648 12.1429 50.7348C12.1629 50.6648 12.113 50.4948 12.093 50.4948L12.113 48.6448C12.113 48.6448 12.183 39.6548 10.753 46.4848L10.713 46.4348C10.623 47.4448 10.603 48.0848 10.793 48.7848C10.563 48.8948 10.773 49.6147 10.693 49.8547L10.673 49.8348C10.853 50.4548 10.523 51.1048 10.683 51.7048C10.663 51.6848 10.603 51.6648 10.593 51.5348C10.623 51.9648 10.673 52.5648 10.543 52.5948C10.583 53.6348 10.513 55.0848 10.733 55.7448L10.693 55.6948C10.833 56.0748 10.713 56.1847 10.783 56.6047C10.763 56.6248 10.753 56.6548 10.753 56.6548C10.893 57.0648 10.7729 57.8648 10.8329 58.1948L10.743 58.2148C10.743 58.4848 10.763 58.7648 10.783 59.0648V58.7348C11.043 58.8348 10.633 59.4148 10.913 60.0248C10.973 60.6348 11.6629 61.0648 11.7629 61.6448C11.9629 61.8648 11.503 61.4748 11.733 61.8448C11.623 61.9048 11.593 61.6848 11.533 61.8248C11.763 62.1848 11.693 62.5348 12.043 62.9448L11.973 63.0148C12.223 63.2748 12.383 63.5548 12.543 63.8148C12.693 64.0848 12.843 64.3048 13.073 64.4248C13.613 64.8948 13.2129 64.9847 13.8929 65.3547L14.043 65.6348C14.293 65.8448 14.3229 65.6448 14.5829 65.9048C14.5129 65.9648 14.943 66.2048 14.713 66.1548C15.363 66.7248 16.263 66.7948 17.253 67.2748C17.523 67.1948 18.033 67.3748 18.233 67.2748C18.253 67.3748 19.313 67.3848 18.693 67.4948C18.643 67.4948 18.543 67.4948 18.553 67.4648L18.473 67.5548C18.773 67.6748 19.073 67.6548 19.353 67.6248C19.633 67.5848 19.873 67.5148 20.153 67.5348C19.983 67.5048 19.763 67.5148 19.913 67.4448H20.433L20.323 67.5448L21.093 67.5948L20.983 67.4948C21.363 67.5448 21.493 67.7248 21.923 67.5748C22.113 67.4948 21.563 67.4348 21.963 67.4048C22.473 67.4748 23.233 67.5747 23.873 67.6047C23.813 67.4947 23.983 67.4948 24.163 67.4748L24.183 67.5748C24.873 67.4348 24.433 67.7948 25.113 67.6848L25.053 67.7548L25.233 67.5448C25.853 67.3448 25.5429 67.7648 26.2729 67.4748C25.9729 67.5048 26.133 67.2648 26.493 67.2848L26.403 67.3848C26.603 67.3548 26.663 67.3148 26.803 67.3248C26.693 67.3748 26.753 67.4748 27.043 67.4248C26.983 67.4748 26.923 67.5248 26.853 67.5648C27.033 67.4948 27.2129 67.3948 27.3929 67.3148C27.8429 67.3748 28.473 67.0448 28.683 67.1348C28.683 67.1348 28.913 67.0748 29.153 66.9748C29.403 66.8948 29.663 66.7548 29.723 66.6348C29.593 66.8048 30.073 66.6048 29.993 66.7648C30.183 66.5848 30.743 66.1348 31.053 66.0748L31.0129 66.1148C31.9729 65.5948 32.343 64.8648 33.053 64.2248C32.933 64.1848 33.293 63.8248 33.093 63.8348C33.553 62.9948 34.273 62.4448 34.003 61.9348C34.133 61.5148 34.283 61.4848 34.383 61.2848V61.3948C34.583 60.5948 34.623 60.3548 34.713 59.7548C34.713 59.4448 34.5029 59.3748 34.5829 58.8547C34.6629 59.0347 34.653 58.8147 34.663 58.6047C34.663 58.7347 34.7029 58.7648 34.7629 58.5148C34.7329 58.4748 34.7229 58.4248 34.7029 58.3748C34.7029 58.3748 34.713 58.3648 34.723 58.3748C34.693 58.0548 34.663 58.1148 34.653 58.2648C34.643 58.2648 34.623 58.2648 34.603 58.3148C34.713 57.9848 34.603 57.4048 34.743 57.3648C34.713 56.4148 34.563 55.7348 34.503 54.9448C34.573 54.8548 34.643 55.0448 34.673 55.2748L34.6429 54.7148C34.7529 54.7148 34.703 55.0348 34.723 55.2048C34.893 54.5348 34.553 53.8248 34.713 53.0448L34.633 52.8848V52.8348C34.633 52.8348 34.5429 52.6648 34.5229 52.5448C34.6129 52.4348 34.743 52.5448 34.733 52.1648C34.823 51.8548 34.683 51.2948 34.633 50.8948C34.613 51.1148 34.563 51.0448 34.533 50.9448C34.533 50.7548 34.6229 50.6348 34.5829 50.4948L34.713 50.4748C34.593 50.5548 34.583 49.9648 34.533 49.8948C34.623 49.7848 34.613 50.1948 34.683 50.2448C34.673 49.4648 34.683 49.8548 34.663 49.0748C34.573 48.6648 34.543 49.1548 34.433 48.9548C34.413 48.5848 34.3229 48.2348 34.3929 47.8148L34.283 47.9448C34.193 47.2548 34.213 46.8448 34.323 46.3848C33.413 41.2648 33.0829 45.3048 33.0829 45.3048C32.8329 47.3248 33.163 48.3648 33.253 50.7648L33.303 50.7748Z" fill="#8E8E8E"/>
<path d="M34.7414 34.1641L34.6914 34.1941C34.6914 34.1941 34.7314 34.1941 34.7414 34.1641Z" fill="#8E8E8E"/>
<path d="M33.3021 33.8136C33.2421 34.2036 33.0321 34.3136 33.1121 34.7136C33.0921 34.9036 33.1421 35.1136 33.1721 35.3036C33.3421 35.3936 33.1722 35.5536 33.3122 35.6536L33.2121 35.6936C33.2121 35.6936 33.2922 35.7736 33.2422 35.8136H33.2121C33.2821 35.8636 33.2421 35.9235 33.2821 35.9535H33.2522L33.2621 36.0135H33.2221C33.3021 36.0935 33.3021 36.1936 33.2721 36.2836H33.3921C33.2621 36.4636 33.5021 36.5336 33.3521 36.6936H33.3222C33.6322 36.9036 33.1121 37.0236 33.4021 37.2436C33.3621 37.2136 33.3422 37.2536 33.3122 37.2436C33.3422 37.3436 33.3621 37.4535 33.5921 37.4535C33.5921 37.5235 33.5222 37.5136 33.4322 37.5236C33.5322 37.5236 33.5721 37.5836 33.5821 37.6436L33.5421 37.6136L33.5722 37.7736L33.7621 37.7436C33.7121 37.8336 33.5321 37.7636 33.5821 37.8436H33.7422C33.7122 37.9636 33.4721 38.0336 33.3621 38.1536C33.2921 38.6336 33.6921 39.1535 33.4221 39.6035L33.3021 39.6236C33.1321 39.6236 33.5521 39.7435 33.4021 39.7635L33.4821 39.8136C33.4821 39.8136 33.4222 39.8636 33.3822 39.8336C33.3822 39.8836 33.4021 39.8836 33.4521 39.9136L33.3421 39.9636C33.2621 40.1536 33.4621 40.3135 33.4221 40.5135C33.2021 40.7535 33.4021 41.2036 33.5221 41.4736C33.7821 41.8436 33.0921 42.2636 33.3921 42.6436C33.3721 42.6536 33.4222 42.6836 33.4422 42.6836L33.4221 43.0236C33.4221 43.0236 33.3521 44.6936 34.7821 43.4236H34.8222C34.9122 43.2436 34.9322 43.1236 34.7422 42.9936C34.9722 42.9736 34.7621 42.8435 34.8421 42.7935H34.8621C34.6821 42.6835 35.0121 42.5635 34.8521 42.4535C34.8721 42.4535 34.9322 42.4535 34.9422 42.4835C34.9122 42.4035 34.8622 42.2936 34.9922 42.2836C34.9522 42.0936 35.0221 41.8235 34.8021 41.7035H34.8421C34.7021 41.6435 34.8222 41.6235 34.7522 41.5435C34.7722 41.5435 34.7821 41.5435 34.7821 41.5435C34.6421 41.4635 34.7621 41.3236 34.7021 41.2536H34.7921L34.7721 41.0936L34.7522 41.1536C34.5022 41.1336 34.9022 41.0336 34.7522 40.9236C34.7822 40.8236 34.2421 40.7135 34.3621 40.6035C34.2521 40.5535 34.5521 40.6435 34.4621 40.5735C34.5921 40.5735 34.5421 40.6136 34.6421 40.5936C34.5821 40.5136 34.7722 40.4736 34.6822 40.3736H34.7821C34.6021 40.2536 34.9122 40.1436 34.7422 40.0636C34.6622 39.9436 35.0421 39.9835 34.8421 39.8535L34.9721 39.8036C34.9921 39.7436 34.8122 39.7635 34.8722 39.7035C34.9522 39.7035 34.9421 39.6236 35.0221 39.6636C35.1521 39.5236 34.8322 39.3836 35.0622 39.1936C34.8922 39.1536 34.9922 39.0636 34.8722 39.0336C34.9422 39.0336 34.8821 38.8435 35.0421 38.9535C35.0521 38.9535 35.0521 38.9736 35.0221 38.9736H35.1222C35.3022 38.8836 35.0221 38.7936 35.0521 38.6936C35.0221 38.7236 35.0321 38.7635 34.9621 38.7335V38.6336L35.0622 38.6536L35.1121 38.5135L35.0121 38.5336C35.0621 38.4636 35.2421 38.4336 35.0921 38.3636C35.0121 38.3236 34.9521 38.4336 34.9221 38.3636C34.9921 38.2736 35.0922 38.1335 35.1222 38.0135C35.0122 38.0235 35.0122 37.9936 34.9922 37.9636H35.0921C34.9521 37.8336 35.3121 37.9136 35.2021 37.7836H35.2721L35.0622 37.7635C34.8622 37.6535 35.2722 37.7035 35.0022 37.5735C35.0222 37.6235 34.7822 37.5936 34.8222 37.5336L34.9221 37.5536C34.9221 37.5536 34.8622 37.5035 34.8822 37.4835C34.9322 37.5035 35.0222 37.4936 35.0022 37.4436L35.1222 37.4736L34.9422 37.3836C35.0422 37.3136 34.9121 37.1936 35.0521 37.1636C35.0521 37.1636 35.1221 37.0036 34.9721 36.9736C35.0621 37.0036 35.1021 36.9136 35.2121 36.9436C35.1121 36.9036 35.0222 36.7835 35.1322 36.7335H35.1421C35.2521 36.5635 34.9822 36.4336 35.1222 36.2736C35.0022 36.2736 35.0721 36.1936 34.9221 36.2136C34.7721 36.0436 35.2221 35.9135 34.7621 35.8535C34.7421 35.7735 34.8721 35.7636 34.8921 35.7236L34.9121 35.7436C34.8721 35.6036 34.8722 35.5635 34.8822 35.4535C34.8422 35.4035 34.6221 35.3936 34.6721 35.3036C34.7521 35.3336 34.7422 35.3035 34.7422 35.2635C34.7522 35.2835 34.7821 35.2936 34.8421 35.2436C34.8121 35.2436 34.8021 35.2236 34.7821 35.2136C34.7821 35.2136 34.7921 35.2136 34.8021 35.2136C34.7721 35.1536 34.7421 35.1636 34.7321 35.1936C34.7221 35.1936 34.7022 35.1936 34.6822 35.1936C34.7922 35.1336 34.6822 35.0235 34.8222 35.0135C34.7922 34.8335 34.6421 34.7136 34.5821 34.5636C34.6521 34.5436 34.7222 34.5836 34.7522 34.6236L34.7221 34.5236C34.8321 34.5236 34.7821 34.5836 34.8021 34.6136C34.9721 34.4936 34.6321 34.3636 34.7921 34.2136L34.7121 34.1836H34.7221C34.7221 34.1836 34.6121 34.1436 34.6021 34.1236C34.6921 34.1036 34.8222 34.1236 34.8122 34.0536C34.9022 33.9936 34.7621 33.8936 34.7121 33.8136C34.6921 33.8536 34.6421 33.8436 34.6121 33.8136C34.6121 33.7736 34.7021 33.7535 34.6621 33.7335H34.7921C34.6721 33.7435 34.6621 33.6336 34.6121 33.6236C34.7021 33.6036 34.6921 33.6836 34.7621 33.6836C34.7521 33.5436 34.7622 33.6136 34.7422 33.4636C34.6522 33.3836 34.6221 33.4736 34.5121 33.4436C34.4921 33.3736 34.4021 33.3135 34.4721 33.2335L34.3621 33.2536C34.2721 33.1236 34.2921 33.0536 34.4021 32.9636C33.4921 32.0136 33.1621 32.7635 33.1621 32.7635C32.9121 33.1335 33.2421 33.3336 33.3321 33.7736L33.3021 33.8136Z" fill="#8E8E8E"/>
<path d="M11.9719 34.1641L11.9219 34.1941C11.9219 34.1941 11.9619 34.1941 11.9719 34.1641Z" fill="#8E8E8E"/>
<path d="M10.5326 33.8136C10.4726 34.2036 10.2626 34.3136 10.3426 34.7136C10.3226 34.9036 10.3726 35.1136 10.4026 35.3036C10.5726 35.3936 10.4026 35.5536 10.5426 35.6536L10.4426 35.6936C10.4426 35.6936 10.5226 35.7736 10.4726 35.8136H10.4426C10.5126 35.8636 10.4726 35.9235 10.5126 35.9535H10.4826L10.4926 36.0135H10.4526C10.5326 36.0935 10.5326 36.1936 10.5026 36.2836H10.6226C10.4926 36.4636 10.7326 36.5336 10.5826 36.6936H10.5526C10.8626 36.9036 10.3426 37.0236 10.6326 37.2436C10.5926 37.2136 10.5726 37.2536 10.5426 37.2436C10.5726 37.3436 10.5926 37.4535 10.8226 37.4535C10.8226 37.5235 10.7526 37.5136 10.6626 37.5236C10.7626 37.5236 10.8026 37.5836 10.8126 37.6436L10.7726 37.6136L10.8026 37.7736L10.9926 37.7436C10.9426 37.8336 10.7626 37.7636 10.8126 37.8436H10.9726C10.9426 37.9636 10.7026 38.0336 10.5926 38.1536C10.5226 38.6336 10.9226 39.1535 10.6526 39.6035L10.5326 39.6236C10.3626 39.6236 10.7826 39.7435 10.6326 39.7635L10.7126 39.8136C10.7126 39.8136 10.6526 39.8636 10.6126 39.8336C10.6126 39.8836 10.6326 39.8836 10.6826 39.9136L10.5726 39.9636C10.4926 40.1536 10.6926 40.3135 10.6526 40.5135C10.4326 40.7535 10.6326 41.2036 10.7526 41.4736C11.0126 41.8436 10.3226 42.2636 10.6226 42.6436C10.6026 42.6536 10.6526 42.6836 10.6726 42.6836L10.6526 43.0236C10.6526 43.0236 10.5826 44.6936 12.0126 43.4236H12.0526C12.1426 43.2436 12.1626 43.1236 11.9726 42.9936C12.2026 42.9736 11.9926 42.8435 12.0726 42.7935H12.0926C11.9126 42.6835 12.2426 42.5635 12.0826 42.4535C12.1026 42.4535 12.1626 42.4535 12.1726 42.4835C12.1426 42.4035 12.0926 42.2936 12.2226 42.2836C12.1826 42.0936 12.2526 41.8235 12.0326 41.7035H12.0726C11.9326 41.6435 12.0526 41.6235 11.9826 41.5435C12.0026 41.5435 12.0126 41.5435 12.0126 41.5435C11.8726 41.4635 11.9926 41.3236 11.9326 41.2536H12.0226L12.0026 41.0936L11.9826 41.1536C11.7426 41.1336 12.1326 41.0336 11.9826 40.9236C12.0126 40.8236 11.4726 40.7135 11.5926 40.6035C11.4826 40.5535 11.7826 40.6435 11.6926 40.5735C11.8226 40.5735 11.7726 40.6136 11.8726 40.5936C11.8126 40.5136 12.0026 40.4736 11.9126 40.3736H12.0126C11.8326 40.2536 12.1426 40.1436 11.9726 40.0636C11.8926 39.9436 12.2726 39.9835 12.0726 39.8535L12.2026 39.8036C12.2226 39.7436 12.0326 39.7635 12.1026 39.7035C12.1826 39.7035 12.1726 39.6236 12.2526 39.6636C12.3826 39.5236 12.0626 39.3836 12.2926 39.1936C12.1326 39.1536 12.2226 39.0636 12.1026 39.0336C12.1726 39.0336 12.1126 38.8435 12.2726 38.9535C12.2826 38.9535 12.2826 38.9736 12.2526 38.9736H12.3526C12.5326 38.8836 12.2526 38.7936 12.2826 38.6936C12.2526 38.7236 12.2626 38.7635 12.1926 38.7335V38.6336L12.2926 38.6536L12.3426 38.5135L12.2426 38.5336C12.2926 38.4636 12.4726 38.4336 12.3226 38.3636C12.2426 38.3236 12.1826 38.4336 12.1526 38.3636C12.2226 38.2736 12.3226 38.1335 12.3526 38.0135C12.2426 38.0235 12.2426 37.9936 12.2226 37.9636H12.3226C12.1826 37.8336 12.5426 37.9136 12.4326 37.7836H12.5026L12.2926 37.7635C12.0926 37.6535 12.5026 37.7035 12.2326 37.5735C12.2526 37.6235 12.0126 37.5936 12.0526 37.5336L12.1526 37.5536C12.1526 37.5536 12.0926 37.5035 12.1126 37.4835C12.1626 37.5035 12.2526 37.4936 12.2326 37.4436L12.3526 37.4736L12.1726 37.3836C12.2726 37.3136 12.1426 37.1936 12.2826 37.1636C12.2826 37.1636 12.3526 37.0036 12.2026 36.9736C12.2926 37.0036 12.3326 36.9136 12.4426 36.9436C12.3426 36.9036 12.2526 36.7835 12.3626 36.7335H12.3726C12.4826 36.5635 12.2126 36.4336 12.3526 36.2736C12.2326 36.2736 12.3026 36.1936 12.1526 36.2136C12.0026 36.0436 12.4526 35.9135 11.9926 35.8535C11.9726 35.7735 12.1026 35.7636 12.1226 35.7236L12.1426 35.7436C12.1026 35.6036 12.1026 35.5635 12.1126 35.4535C12.0726 35.4035 11.8526 35.3936 11.9026 35.3036C11.9826 35.3336 11.9726 35.3035 11.9726 35.2635C11.9826 35.2835 12.0126 35.2936 12.0726 35.2436C12.0426 35.2436 12.0326 35.2236 12.0126 35.2136C12.0126 35.2136 12.0226 35.2136 12.0326 35.2136C12.0026 35.1536 11.9726 35.1636 11.9626 35.1936C11.9526 35.1936 11.9326 35.1936 11.9126 35.1936C12.0226 35.1336 11.9126 35.0235 12.0526 35.0135C12.0226 34.8335 11.8726 34.7136 11.8126 34.5636C11.8826 34.5436 11.9526 34.5836 11.9826 34.6236L11.9526 34.5236C12.0626 34.5236 12.0126 34.5836 12.0326 34.6136C12.2026 34.4936 11.8626 34.3636 12.0226 34.2136L11.9426 34.1836H11.9526C11.9526 34.1836 11.8426 34.1436 11.8326 34.1236C11.9226 34.1036 12.0526 34.1236 12.0426 34.0536C12.1326 33.9936 11.9926 33.8936 11.9426 33.8136C11.9226 33.8536 11.8726 33.8436 11.8426 33.8136C11.8426 33.7736 11.9326 33.7535 11.8926 33.7335H12.0226C11.9026 33.7435 11.8926 33.6336 11.8426 33.6236C11.9326 33.6036 11.9226 33.6836 11.9926 33.6836C11.9826 33.5436 11.9926 33.6136 11.9726 33.4636C11.8826 33.3836 11.8526 33.4736 11.7426 33.4436C11.7226 33.3736 11.6326 33.3135 11.7026 33.2335L11.5926 33.2536C11.5026 33.1236 11.5226 33.0536 11.6326 32.9636C10.7226 32.0136 10.3926 32.7635 10.3926 32.7635C10.1426 33.1335 10.4726 33.3336 10.5626 33.7736L10.5326 33.8136Z" fill="#8E8E8E"/>
<path d="M14.6328 31.9629L14.6928 32.0129C14.6928 32.0129 14.6728 31.9729 14.6328 31.9629Z" fill="#8E8E8E"/>
<path d="M29.4414 31.9436C29.4414 31.9436 29.4414 31.9436 29.4514 31.9336C29.4514 31.9336 29.4414 31.9336 29.4414 31.9436Z" fill="#8E8E8E"/>
<path d="M16.9126 33.5332C16.9126 33.5332 16.9026 33.5332 16.8926 33.5432H16.9126V33.5332Z" fill="#8E8E8E"/>
<path d="M13.9219 33.4034C14.7019 33.4634 14.9119 33.6734 15.7219 33.5934C16.1119 33.6134 16.5218 33.5634 16.9018 33.5334C17.0818 33.3634 17.4019 33.5333 17.6119 33.3933L17.6919 33.4933C17.7619 33.4433 17.8519 33.4133 17.9219 33.4633V33.4933C18.0219 33.4233 18.1518 33.4633 18.2018 33.4233V33.4533L18.3318 33.4434L18.3119 33.4833C18.5019 33.4033 18.7019 33.4033 18.8719 33.4333V33.3134C19.2319 33.4434 19.3618 33.2033 19.7018 33.3533V33.3834C20.1218 33.0734 20.3619 33.5933 20.8019 33.3033C20.7519 33.3433 20.8219 33.3633 20.8219 33.3933C21.0219 33.3633 21.2319 33.3433 21.2419 33.1133C21.3919 33.1133 21.3619 33.1833 21.3819 33.2733C21.3819 33.1733 21.5119 33.1334 21.6219 33.1234L21.5719 33.1634L21.9018 33.1334L21.8419 32.9434C22.0119 32.9934 21.8819 33.1734 22.0519 33.1234V32.9633C22.2919 32.9933 22.4319 33.2334 22.6619 33.3434C23.6319 33.4134 24.6619 33.0134 25.5619 33.2834L25.6019 33.4034C25.6219 33.5734 25.8519 33.1533 25.8819 33.3033L25.9819 33.2234C25.9819 33.2234 26.0718 33.2833 26.0218 33.3233C26.1218 33.3233 26.1219 33.3034 26.1919 33.2534L26.2919 33.3633C26.6719 33.4433 27.0019 33.2434 27.4018 33.2834C27.8818 33.5034 28.7919 33.3033 29.3119 33.1833C30.0419 32.9233 30.9018 33.6134 31.6518 33.3134C31.6719 33.3334 31.7419 33.2833 31.7419 33.2633L32.4319 33.2834C32.4319 33.2834 35.7719 33.3533 33.2319 31.9233L33.2519 31.8834C32.8719 31.7934 32.6419 31.7733 32.3819 31.9633C32.3419 31.7333 32.0719 31.9433 31.9819 31.8633V31.8434C31.7619 32.0234 31.5219 31.6933 31.2919 31.8533C31.2919 31.8333 31.3019 31.7733 31.3519 31.7633C31.1919 31.7933 30.9718 31.8433 30.9618 31.7133C30.5718 31.7533 30.0419 31.6834 29.7919 31.9034L29.8119 31.8633C29.6719 32.0033 29.6319 31.8833 29.4719 31.9633C29.4719 31.9433 29.4518 31.9333 29.4518 31.9333C29.3018 32.0733 29.0019 31.9533 28.8819 32.0133V31.9233L28.5719 31.9434L28.6819 31.9633C28.6419 32.2033 28.4519 31.8133 28.2319 31.9633C28.0219 31.9333 27.8119 32.4733 27.5919 32.3533C27.4919 32.4633 27.6819 32.1634 27.5319 32.2534C27.5319 32.1234 27.6019 32.1733 27.5619 32.0733C27.4119 32.1333 27.3119 31.9434 27.1319 32.0334V31.9333C26.8819 32.1133 26.6719 31.8034 26.5019 31.9734C26.2519 32.0534 26.3319 31.6734 26.0719 31.8734L25.9719 31.7433C25.8619 31.7233 25.8918 31.9134 25.7718 31.8434C25.7718 31.7634 25.6119 31.7734 25.6919 31.6934C25.4119 31.5634 25.1219 31.8834 24.7519 31.6534C24.6719 31.8134 24.4819 31.7234 24.4319 31.8434C24.4219 31.7734 24.0618 31.8333 24.2718 31.6733C24.2918 31.6633 24.3219 31.6634 24.3219 31.6934L24.3419 31.5934C24.1319 31.4134 23.9619 31.6934 23.7519 31.6634C23.8119 31.6934 23.8919 31.6834 23.8419 31.7534H23.6518L23.6919 31.6534L23.4018 31.6033L23.4419 31.7033C23.3019 31.6533 23.2519 31.4734 23.0919 31.6234C23.0219 31.7034 23.2219 31.7633 23.0719 31.7933C22.8819 31.7233 22.6019 31.6234 22.3619 31.5934C22.3819 31.7034 22.3219 31.7034 22.2519 31.7234V31.6234C21.9919 31.7634 22.1518 31.4033 21.9018 31.5133L21.9219 31.4434L21.8519 31.6534C21.6219 31.8534 21.7319 31.4433 21.4719 31.7133C21.5719 31.6933 21.5218 31.9333 21.3918 31.8933L21.4219 31.7933C21.3519 31.8133 21.3319 31.8533 21.2819 31.8333C21.3219 31.7833 21.3018 31.6933 21.2018 31.7133L21.2718 31.5934L21.0818 31.7733C20.9318 31.6733 20.7018 31.8034 20.6418 31.6634C20.6418 31.6634 20.3319 31.5933 20.2519 31.7433C20.3119 31.6533 20.1419 31.6134 20.1919 31.5034C20.1119 31.6034 19.8718 31.6933 19.7718 31.5833H19.7919C19.4319 31.4533 19.1819 31.7233 18.8619 31.5833C18.8719 31.7033 18.7119 31.6334 18.7519 31.7834C18.4219 31.9334 18.1519 31.4834 18.0319 31.9434C17.8819 31.9634 17.8518 31.8334 17.7718 31.8134L17.8119 31.7933C17.5319 31.8333 17.4519 31.8333 17.2419 31.8233C17.1419 31.8633 17.1219 32.0834 16.9319 32.0334C16.9919 31.9534 16.9119 31.9633 16.8419 31.9633C16.8819 31.9533 16.9019 31.9233 16.8119 31.8633C16.8019 31.8933 16.7818 31.9033 16.7618 31.9233C16.7618 31.9233 16.7618 31.9134 16.7618 31.9034C16.6418 31.9334 16.6619 31.9634 16.7219 31.9734C16.7219 31.9834 16.7219 32.0033 16.7419 32.0233C16.6219 31.9133 16.4018 32.0234 16.3918 31.8834C16.0418 31.9134 15.7919 32.0634 15.4919 32.1234C15.4619 32.0534 15.5319 31.9833 15.6119 31.9533L15.4018 31.9833C15.4018 31.8733 15.5218 31.9234 15.5818 31.9034C15.3318 31.7334 15.0719 32.0734 14.7819 31.9134L14.7219 31.9933H14.7018C14.7018 31.9933 14.6419 32.0833 14.5919 32.1033C14.5519 32.0133 14.5918 31.8833 14.4518 31.8933C14.3418 31.8033 14.1319 31.9333 13.9819 31.9933C14.0619 32.0133 14.0319 32.0634 14.0019 32.0934C13.9319 32.0934 13.8918 32.0033 13.8318 32.0433V31.9134C13.8518 32.0334 13.6419 32.0434 13.6119 32.0934C13.5719 32.0034 13.7219 32.0134 13.7419 31.9434C13.4519 31.9534 13.6019 31.9433 13.3119 31.9633C13.1619 32.0533 13.3418 32.0834 13.2618 32.1934C13.1218 32.2134 12.9919 32.3033 12.8419 32.2333L12.8918 32.3434C12.6318 32.4334 12.4819 32.4133 12.3119 32.3033C10.4119 33.2133 11.9119 33.5533 11.9119 33.5533C12.6619 33.8033 13.0419 33.4734 13.9319 33.3834L13.9219 33.4034Z" fill="#8E8E8E"/>
<path d="M29.2812 17.5137L29.3113 17.5737C29.3113 17.5737 29.3112 17.5337 29.2812 17.5137Z" fill="#8E8E8E"/>
<path d="M28.272 18.6946C28.822 18.9246 28.882 19.1746 29.452 19.3646C29.702 19.5046 29.982 19.6346 30.232 19.7646C30.442 19.7046 30.5321 19.9846 30.7421 19.9646V20.0746C30.8021 20.0746 30.8721 20.0946 30.8821 20.1746L30.862 20.1946C30.972 20.1946 31.0121 20.2946 31.0621 20.2946L31.042 20.3146L31.1221 20.3746L31.082 20.3946C31.242 20.4346 31.352 20.5446 31.412 20.6646L31.4921 20.5746C31.5821 20.8746 31.8521 20.7846 31.8821 21.0946H31.862C32.312 21.1846 32.002 21.6346 32.402 21.7646C32.352 21.7446 32.362 21.8146 32.332 21.8246C32.442 21.9346 32.5421 22.0646 32.7421 21.9646C32.7921 22.0746 32.722 22.0846 32.652 22.1346C32.742 22.0846 32.822 22.1546 32.862 22.2346L32.8121 22.2146L32.952 22.4346L33.102 22.3146C33.112 22.4646 32.9121 22.4446 33.0021 22.5446L33.142 22.4846C33.192 22.6746 33.002 22.8746 32.952 23.0746C33.122 23.7646 33.672 24.5246 33.402 25.2446L33.282 25.2746C33.112 25.2746 33.5421 25.4646 33.3821 25.5046L33.462 25.5946C33.462 25.5946 33.402 25.6746 33.362 25.6246C33.362 25.7046 33.3821 25.7046 33.4321 25.7646L33.3221 25.8546C33.2421 26.1746 33.442 26.4546 33.402 26.7946C33.182 27.2046 33.3821 27.9746 33.5021 28.4246C33.7621 29.0546 33.0721 29.7746 33.3721 30.4246C33.3521 30.4446 33.402 30.4946 33.422 30.4946L33.402 31.0846C33.402 31.0846 33.332 33.9346 34.762 31.7646H34.8021C34.8921 31.4546 34.912 31.2546 34.722 31.0346C34.952 30.9946 34.7421 30.7746 34.8221 30.6946H34.842C34.662 30.5046 34.992 30.2946 34.832 30.1046C34.852 30.1046 34.912 30.1146 34.922 30.1646C34.892 30.0246 34.842 29.8346 34.972 29.8246C34.932 29.4946 35.002 29.0346 34.782 28.8246H34.8221C34.6821 28.7146 34.802 28.6846 34.732 28.5546C34.752 28.5546 34.762 28.5346 34.762 28.5346C34.622 28.4046 34.7421 28.1546 34.6821 28.0446H34.772L34.7521 27.7746L34.732 27.8746C34.482 27.8446 34.882 27.6746 34.732 27.4846C34.762 27.3046 34.222 27.1246 34.342 26.9446C34.232 26.8546 34.5321 27.0246 34.4421 26.8946C34.5721 26.8946 34.5221 26.9546 34.6221 26.9246C34.5621 26.7946 34.752 26.7146 34.662 26.5546H34.762C34.582 26.3446 34.892 26.1546 34.722 26.0246C34.642 25.8146 35.0221 25.8846 34.8221 25.6646L34.952 25.5746C34.972 25.4846 34.792 25.5046 34.852 25.4046C34.942 25.4146 34.9121 25.2646 35.0021 25.3246C35.1221 25.0546 34.7921 24.8046 34.9921 24.4446C34.8121 24.3846 34.892 24.2046 34.762 24.1646C34.832 24.1446 34.722 23.8246 34.902 23.9846C34.922 23.9946 34.922 24.0246 34.892 24.0346H34.9921C35.1421 23.8146 34.8521 23.6946 34.8221 23.5046C34.8021 23.5646 34.8321 23.6446 34.7521 23.6046L34.722 23.4246L34.8121 23.4446L34.792 23.1646L34.702 23.2246C34.722 23.0846 34.872 22.9846 34.702 22.8846C34.612 22.8446 34.602 23.0446 34.532 22.9146C34.552 22.7246 34.5521 22.4446 34.5021 22.2146C34.4021 22.2746 34.382 22.2146 34.342 22.1646L34.4321 22.1246C34.2221 21.9546 34.602 21.9546 34.402 21.7746H34.472L34.2521 21.7946C33.9821 21.6846 34.392 21.5946 34.042 21.5046C34.102 21.5846 33.862 21.6446 33.852 21.5246L33.952 21.5046C33.952 21.5046 33.862 21.4546 33.862 21.4046C33.922 21.4046 33.9921 21.3546 33.9421 21.2846H34.0721C33.9921 21.2546 33.912 21.2346 33.832 21.2146C33.852 21.0446 33.622 20.9246 33.712 20.8046C33.712 20.8046 33.612 20.5146 33.452 20.5446C33.562 20.5446 33.492 20.3846 33.612 20.3646C33.482 20.3646 33.2721 20.2346 33.3121 20.0846H33.332C33.222 19.7346 32.8421 19.7446 32.7421 19.4246C32.6621 19.5146 32.602 19.3546 32.522 19.4846C32.222 19.3646 32.3121 18.8746 31.9321 19.1346C31.8121 19.0646 31.882 18.9446 31.842 18.8746H31.8821C31.6621 18.7346 31.5921 18.7046 31.4421 18.5746C31.3421 18.5546 31.202 18.7146 31.092 18.5746C31.182 18.5346 31.1221 18.5146 31.0721 18.4746C31.1121 18.4846 31.142 18.4746 31.102 18.3746C31.082 18.3946 31.052 18.3946 31.032 18.3946C31.032 18.3946 31.032 18.3846 31.032 18.3746C30.922 18.3446 30.922 18.3746 30.962 18.4146C30.962 18.4146 30.952 18.4446 30.952 18.4646C30.912 18.3146 30.6821 18.3146 30.7521 18.1846C30.4621 18.0346 30.182 18.0646 29.922 18.0046C29.922 17.9246 30.012 17.8946 30.092 17.9046L29.912 17.8446C29.962 17.7446 30.042 17.8446 30.102 17.8446C29.962 17.5946 29.612 17.7846 29.422 17.5646L29.342 17.6246V17.6046C29.342 17.6046 29.242 17.6846 29.202 17.6846C29.202 17.5846 29.282 17.4846 29.152 17.4446C29.082 17.3246 28.862 17.3846 28.712 17.4046C28.782 17.4346 28.742 17.4846 28.702 17.5046C28.642 17.4946 28.6321 17.3946 28.5721 17.4146L28.602 17.2946C28.602 17.4146 28.4021 17.3746 28.3721 17.4246C28.3621 17.3246 28.492 17.3746 28.522 17.3046C28.262 17.2546 28.3921 17.2746 28.1321 17.2246C27.9721 17.2846 28.132 17.3446 28.042 17.4346C27.922 17.4346 27.792 17.5046 27.662 17.4146L27.6921 17.5346C27.4621 17.5846 27.3321 17.5546 27.1921 17.4246C26.3321 17.8346 26.292 18.1546 26.392 18.3446C26.502 18.5446 26.772 18.6446 26.772 18.6446C27.042 18.7746 27.242 18.7846 27.472 18.7646C27.702 18.7246 27.952 18.6846 28.292 18.7346L28.272 18.6946Z" fill="#8E8E8E"/>
<path d="M20.2031 16.9746L20.2231 17.0246C20.2231 17.0246 20.2231 16.9846 20.2031 16.9746Z" fill="#8E8E8E"/>
<path d="M19.9828 18.4248C20.2328 18.4848 20.2929 18.6948 20.5529 18.6148C20.6729 18.6348 20.8028 18.5848 20.9228 18.5548C20.9828 18.3848 21.0828 18.5549 21.1428 18.4149L21.1728 18.5148C21.1728 18.5148 21.2229 18.4348 21.2429 18.4848V18.5148C21.2729 18.4448 21.3128 18.4849 21.3328 18.4449V18.4749L21.3729 18.4648V18.5049C21.4229 18.4249 21.4828 18.4248 21.5428 18.4548V18.3348C21.6528 18.4648 21.7029 18.2248 21.8029 18.3748V18.4048C21.9329 18.0948 22.0128 18.6148 22.1528 18.3248C22.1328 18.3648 22.1528 18.3849 22.1528 18.4149C22.2128 18.3849 22.2828 18.3649 22.2828 18.1349C22.3328 18.1349 22.3229 18.2048 22.3229 18.2948C22.3229 18.1948 22.3628 18.1548 22.4028 18.1448L22.3829 18.1848L22.4828 18.1548L22.4628 17.9648C22.5128 18.0148 22.4728 18.1948 22.5328 18.1448V17.9848C22.6028 18.0148 22.6528 18.2548 22.7228 18.3648C23.0228 18.4348 23.3528 18.0348 23.6428 18.3048V18.4248C23.6628 18.5948 23.7329 18.1748 23.7429 18.3248L23.7728 18.2448C23.7728 18.2448 23.8028 18.3048 23.7828 18.3448C23.8128 18.3448 23.8128 18.3248 23.8328 18.2748L23.8629 18.3849C23.9829 18.4649 24.0828 18.2648 24.2128 18.3048C24.3628 18.5248 24.6529 18.3248 24.8129 18.2048C25.0429 17.9448 25.3129 18.6348 25.5529 18.3348C25.5529 18.3548 25.5828 18.3049 25.5828 18.2849L25.8029 18.3048C25.8029 18.3048 26.8529 18.3749 26.0529 16.9449V16.9048C25.9429 16.8148 25.8628 16.7948 25.7828 16.9848C25.7728 16.7548 25.6828 16.9649 25.6528 16.8849V16.8648C25.5828 17.0448 25.5029 16.7148 25.4329 16.8748C25.4329 16.8548 25.4328 16.7949 25.4528 16.7849C25.4028 16.8149 25.3328 16.8648 25.3328 16.7348C25.2128 16.7748 25.0428 16.7048 24.9628 16.9248V16.8849C24.9228 17.0349 24.9129 16.9048 24.8629 16.9848C24.8629 16.9648 24.8629 16.9548 24.8629 16.9548C24.8129 17.0948 24.7229 16.9749 24.6829 17.0349V16.9449L24.5828 16.9648L24.6229 16.9848C24.6129 17.2348 24.5528 16.8348 24.4828 16.9848C24.4128 16.9548 24.3528 17.4948 24.2828 17.3748C24.2528 17.4848 24.3128 17.1848 24.2628 17.2748C24.2628 17.1448 24.2828 17.1948 24.2728 17.0948C24.2228 17.1548 24.1929 16.9648 24.1329 17.0548V16.9548C24.0529 17.1348 23.9829 16.8248 23.9329 16.9948C23.8529 17.0748 23.8828 16.6948 23.7928 16.8948L23.7628 16.7648C23.7628 16.7648 23.7328 16.9348 23.7028 16.8648C23.7028 16.7848 23.6528 16.7948 23.6728 16.7148C23.5828 16.5848 23.4929 16.9048 23.3729 16.6748C23.3429 16.8448 23.2928 16.7448 23.2728 16.8648C23.2728 16.7948 23.1528 16.8549 23.2228 16.6949C23.2228 16.6849 23.2428 16.6848 23.2328 16.7148V16.6148C23.1728 16.4348 23.1229 16.7148 23.0529 16.6848C23.0729 16.7148 23.1028 16.7048 23.0828 16.7748H23.0228L23.0328 16.6748L22.9429 16.6248V16.7249C22.9129 16.6749 22.8928 16.4948 22.8428 16.6448C22.8228 16.7248 22.8828 16.7848 22.8428 16.8148C22.7828 16.7448 22.6929 16.6448 22.6229 16.6148C22.6229 16.7248 22.6128 16.7248 22.5928 16.7448V16.6448C22.5128 16.7848 22.5628 16.4249 22.4828 16.5349V16.4648L22.4728 16.6748C22.4028 16.8748 22.4328 16.4648 22.3528 16.7348C22.3828 16.7148 22.3728 16.9549 22.3328 16.9149V16.8148C22.3328 16.8148 22.3129 16.8748 22.3029 16.8548C22.3129 16.8048 22.3028 16.7148 22.2828 16.7348L22.3029 16.6148L22.2429 16.7948C22.1929 16.6948 22.1228 16.8248 22.1028 16.6848C22.1028 16.6848 22.0028 16.6148 21.9828 16.7648C22.0028 16.6748 21.9528 16.6348 21.9628 16.5248C21.9328 16.6248 21.8628 16.7148 21.8328 16.6048C21.7228 16.4748 21.6428 16.7448 21.5428 16.6048C21.5428 16.7248 21.4929 16.6548 21.5029 16.8048C21.4029 16.9548 21.3128 16.5048 21.2728 16.9648C21.2228 16.9848 21.2129 16.8548 21.1929 16.8348V16.8148C21.1129 16.8548 21.0928 16.8548 21.0228 16.8448C20.9928 16.8848 20.9828 17.1048 20.9228 17.0548C20.9428 16.9748 20.9228 16.9848 20.8928 16.9848C20.9028 16.9748 20.9129 16.9449 20.8829 16.8849C20.8829 16.9149 20.8729 16.9249 20.8629 16.9449C20.8629 16.9449 20.8629 16.9348 20.8629 16.9248C20.8229 16.9548 20.8328 16.9848 20.8528 16.9948C20.8528 17.0048 20.8528 17.0248 20.8528 17.0448C20.8128 16.9348 20.7429 17.0448 20.7429 16.9048C20.6329 16.9348 20.5528 17.0848 20.4628 17.1448C20.4528 17.0748 20.4729 17.0049 20.5029 16.9749L20.4329 17.0049C20.4329 16.8949 20.4729 16.9448 20.4929 16.9248C20.4129 16.7548 20.3329 17.0948 20.2429 16.9348L20.2228 17.0148C20.2228 17.0148 20.2029 17.1048 20.1929 17.1248C20.1829 17.0348 20.1928 16.9049 20.1528 16.9149C20.1128 16.8249 20.0529 16.9548 20.0029 17.0148C20.0329 17.0348 20.0229 17.0848 20.0029 17.1148C19.9829 17.1148 19.9628 17.0248 19.9528 17.0648V16.9348C19.9528 17.0548 19.8929 17.0648 19.8829 17.1148C19.8729 17.0248 19.9228 17.0348 19.9228 16.9648C19.8328 16.9748 19.8728 16.9648 19.7828 16.9848C19.7328 17.0748 19.7828 17.1048 19.7728 17.2148C19.7328 17.2348 19.6928 17.3249 19.6428 17.2549L19.6628 17.3648C19.5828 17.4548 19.5328 17.4348 19.4828 17.3248C18.8828 18.2348 19.3528 18.5748 19.3528 18.5748C19.5928 18.8248 19.7129 18.4948 19.9929 18.4048L19.9828 18.4248Z" fill="#8E8E8E"/>
<path d="M18.6016 12.1137L18.6516 12.0137C18.6516 12.0137 18.6116 12.0437 18.6016 12.1137Z" fill="#8E8E8E"/>
<path d="M20.0422 13.3041C20.1022 11.9941 20.3122 11.6441 20.2322 10.2841V10.0042C20.2322 9.82415 20.1922 9.64415 20.1422 9.47415C20.0322 9.13415 19.8222 8.82415 19.5422 8.59415C19.2622 8.36415 18.9222 8.22413 18.5822 8.17413C18.4922 8.16413 18.4122 8.15414 18.3222 8.15414H18.2922V8.24414V8.26413C18.2922 8.26413 18.2922 8.25413 18.2922 8.26413C18.2922 8.26413 18.2822 8.26413 18.2922 8.26413C18.2922 8.26413 18.2922 8.26413 18.2822 8.26413C18.2722 8.25413 18.2622 8.17413 18.2422 8.14413L18.3422 8.00415C18.2922 7.88415 18.2622 7.73414 18.3122 7.61414H18.3422C18.2722 7.43414 18.3122 7.23413 18.2722 7.14413H18.3022L18.2922 6.92413L18.3322 6.96414C18.2522 6.64414 18.2522 6.31414 18.2822 6.02414L18.1622 6.04413C18.1922 5.88413 18.2021 5.75413 18.2021 5.64413C18.2021 5.50413 18.1922 5.54413 18.1822 5.48413C18.1822 5.41413 18.1822 5.31413 18.3122 5.29413L18.3322 5.31415C18.3122 5.11415 18.4922 5.09414 18.5822 5.15414C18.8022 5.20414 19.1322 5.26414 19.4822 5.11414C19.3922 5.15414 19.5221 5.17413 19.5121 5.20413C19.8521 5.17413 20.2122 5.15413 20.2122 4.92413C20.4622 4.92413 20.4122 4.99414 20.4422 5.08414C20.4422 4.98414 20.6522 4.94414 20.8422 4.93414L20.7522 4.97415L21.3022 4.94415L21.1922 4.75415C21.4822 4.80415 21.2622 4.98414 21.5422 4.93414V4.77414C21.9422 4.80414 22.1722 5.04414 22.5622 5.15414C23.3722 5.18414 24.2122 5.10413 25.0322 5.04413C25.4422 5.01413 25.8522 4.99414 26.2522 4.99414C26.4522 4.99414 26.6522 4.99413 26.8422 5.01413C26.9622 5.01413 27.0022 5.03414 27.0322 5.05414C27.0722 5.07414 27.1022 5.09415 27.1322 5.12415C27.1322 5.16415 27.1122 5.20414 27.1022 5.24414C27.0122 5.37414 27.3522 5.10415 27.2822 5.25415C27.3222 5.25415 27.3522 5.25415 27.3922 5.25415C27.3822 5.29415 27.3722 5.33414 27.3222 5.33414C27.3422 5.38414 27.3622 5.37413 27.4322 5.39413C27.4022 5.42413 27.3722 5.45415 27.3422 5.47415C27.3422 5.51415 27.3322 5.49413 27.3322 5.57413C27.3322 5.65413 27.3322 5.72414 27.3322 5.80414C27.3322 5.95414 27.3522 6.10415 27.3722 6.25415C27.4122 6.55415 27.4522 6.85415 27.4322 7.19415C27.3822 7.39415 27.3522 7.64415 27.3422 7.91415C27.3422 8.02415 27.3422 8.12414 27.3422 8.24414V8.28415C27.3422 8.28415 27.3422 8.36414 27.2822 8.40414C26.7722 8.43414 26.3522 8.71413 26.1322 9.01413C25.9822 9.23413 25.8722 9.47413 25.8222 9.73413C25.7722 10.0341 25.8022 10.1741 25.7822 10.3341C25.7622 10.6641 25.7022 10.9941 25.6522 11.3341C25.5522 12.0041 25.4522 12.6741 25.6022 13.3041C25.5822 13.3441 25.6322 13.4541 25.6522 13.4541L25.6322 14.6041C25.6322 14.6041 25.5622 20.1942 26.9922 15.9442L27.0322 15.9742C27.1222 15.3442 27.1421 14.9441 26.9521 14.5141C27.1821 14.4441 26.9722 13.9941 27.0522 13.8441H27.0722C26.8922 13.4741 27.2222 13.0642 27.0622 12.6942C27.0822 12.7042 27.1422 12.7141 27.1522 12.8041C27.1222 12.5341 27.0721 12.1641 27.2021 12.1441C27.1621 11.4941 27.2321 10.5941 27.0121 10.1841L27.0522 10.2141C26.9122 9.93414 27.0222 10.0341 26.9922 9.90414C27.0122 9.90414 27.0222 9.90414 27.0222 9.90414C26.9422 9.72414 27.2122 9.69414 27.2822 9.65414V9.74414C27.5322 9.74414 27.8522 9.65414 28.0722 9.49414C27.9822 9.54414 27.8822 9.58414 27.7822 9.61414C27.7922 9.48414 27.9422 9.47416 28.1422 9.38416C28.3422 9.30416 28.6022 9.10415 28.6422 8.78415C28.7722 8.52415 28.6422 8.18414 28.5222 8.05414C28.4022 7.87414 28.3022 7.69413 28.3622 7.51413C28.2522 7.34413 28.5522 7.66414 28.4622 7.40414C28.5922 7.40414 28.5422 7.52413 28.6422 7.45413C28.5822 7.20413 28.7722 7.04415 28.6822 6.72415H28.7822C28.6022 6.30415 28.9122 5.94413 28.7422 5.67413C28.7022 5.48413 28.7722 5.32414 28.8122 5.21414C28.8522 5.10414 28.8822 4.94413 28.6422 4.67413C28.6422 4.57413 28.6422 4.47415 28.6222 4.37415C28.4422 4.11415 28.3722 4.30413 28.1722 4.04413C28.2522 3.98413 27.8622 3.75413 28.0722 3.79413C27.7822 3.52413 27.2722 3.44415 26.9322 3.50415C26.6722 3.54415 26.4022 3.56413 26.0922 3.45413C25.9622 3.61413 25.6522 3.52413 25.5522 3.64413C25.5322 3.57413 24.9322 3.63415 25.2822 3.47415C25.3122 3.46415 25.3622 3.46414 25.3622 3.49414L25.4022 3.39413C25.0522 3.21413 24.7622 3.49414 24.4122 3.46414C24.5122 3.49414 24.6522 3.48414 24.5622 3.55414H24.2422L24.3122 3.45413L23.8322 3.40414L23.9022 3.50415C23.6622 3.45415 23.5822 3.27413 23.3222 3.42413C23.2022 3.50413 23.5422 3.56415 23.2922 3.59415C22.9722 3.52415 22.5022 3.42413 22.1022 3.39413C22.1422 3.50413 22.0322 3.50414 21.9222 3.52414V3.42413C21.4822 3.56413 21.7522 3.20415 21.3322 3.31415L21.3722 3.24414L21.2621 3.45413C20.8821 3.65413 21.0522 3.24413 20.6322 3.51413C20.8022 3.49413 20.7122 3.73415 20.5022 3.69415L20.5522 3.59415C20.4422 3.61415 20.4022 3.65416 20.3222 3.63416C20.3922 3.58416 20.3622 3.49413 20.1922 3.51413L20.3022 3.39413L19.9822 3.57413C19.7322 3.47413 19.3422 3.60414 19.2422 3.46414C19.2422 3.46414 18.7322 3.39413 18.5722 3.54413C18.7522 3.44413 18.2522 3.43413 18.3822 3.32413C18.1222 3.42413 17.5221 3.75416 17.2621 3.88416L17.2922 3.84415C16.8322 4.13415 16.6122 4.60415 16.5522 5.03415C16.5322 5.14415 16.5322 5.25414 16.5222 5.36414C16.5222 5.42414 16.5222 5.47414 16.5222 5.52414V5.61414C16.5222 5.73414 16.5222 5.86415 16.4922 6.00415C16.6122 5.98415 16.5422 6.26415 16.6922 6.19415C16.8422 6.75415 16.3922 7.20414 16.8522 7.40414C16.8722 7.65414 16.7422 7.70414 16.7222 7.83414L16.7021 7.77414C16.7221 8.04414 16.7322 8.21414 16.7422 8.36414C16.7722 8.60414 16.8322 8.82414 16.9922 9.08414C17.2222 9.30414 17.3721 9.21413 17.7621 9.48413C17.5821 9.48413 17.7621 9.57415 17.9521 9.62415C17.8321 9.60415 17.7722 9.62414 18.0222 9.74414C18.0622 9.72414 18.1222 9.71414 18.1722 9.71414C18.1722 9.71414 18.1822 9.72413 18.1722 9.73413C18.3722 9.73413 18.3222 9.71413 18.3422 9.70413C18.3422 9.69413 18.3522 9.68413 18.2922 9.67413C18.2922 9.66413 18.2922 9.64414 18.2422 9.61414C18.3922 9.67414 18.3722 9.67415 18.4322 9.69415C18.4722 9.71415 18.5022 9.74414 18.4622 9.80414C18.5422 9.84414 18.6322 9.89413 18.6822 9.98413C18.7322 10.1341 18.7822 10.4241 18.8122 10.6541C18.7422 10.7141 18.6722 10.5941 18.6422 10.4541L18.6722 10.8041C18.5622 10.8041 18.6122 10.6041 18.5922 10.4941C18.4222 10.9141 18.7622 11.3541 18.6022 11.8341L18.6822 11.9341V11.9641C18.6822 11.9641 18.7722 12.0741 18.7922 12.1441C18.7022 12.2141 18.5722 12.1442 18.5822 12.3842C18.4922 12.5742 18.6322 12.9241 18.6822 13.1741C18.7022 13.0441 18.7522 13.0841 18.7822 13.1441C18.7822 13.2641 18.6922 13.3341 18.7322 13.4241H18.6022C18.7222 13.3841 18.7322 13.7541 18.7822 13.7941C18.6922 13.8641 18.7022 13.6041 18.6322 13.5741L18.6522 14.3041C18.7422 14.5641 18.7722 14.2542 18.8822 14.3842C18.9022 14.6142 18.9922 14.8341 18.9222 15.0941L19.0322 15.0141C19.1222 15.4441 19.1022 15.6941 18.9922 15.9841C19.9022 19.1741 20.2322 16.6541 20.2322 16.6541C20.4822 15.4041 20.1522 14.7542 20.0622 13.2542L20.0422 13.3041Z" fill="#8E8E8E"/>
<path d="M16.6713 18.6042L16.6113 18.5742C16.6113 18.5742 16.6413 18.6042 16.6713 18.6042Z" fill="#8E8E8E"/>
<path d="M14.1914 18.1333L14.2014 18.1133L14.1914 18.1333Z" fill="#8E8E8E"/>
<path d="M16.8121 17.0335C16.0921 17.2035 15.8121 17.0635 15.1421 17.4935C14.8021 17.6435 14.4821 17.9035 14.2021 18.1235C14.1621 18.3635 13.8221 18.4135 13.7521 18.6435L13.6321 18.6135C13.6121 18.6935 13.5721 18.7735 13.4821 18.7835L13.4621 18.7634C13.4321 18.8834 13.3221 18.9335 13.3021 18.9935L13.2821 18.9735L13.2021 19.0635V19.0235C13.1021 19.1935 12.9821 19.3335 12.8521 19.4335L12.9421 19.5035C12.6121 19.6735 12.7021 19.9134 12.4021 20.0734L12.3821 20.0535C12.3821 20.5435 11.8321 20.4435 11.8621 20.9535C11.8621 20.8935 11.8021 20.9435 11.7821 20.9235C11.7121 21.1035 11.6221 21.2835 11.8221 21.3935C11.7621 21.5135 11.7121 21.4535 11.6221 21.4335C11.7121 21.4835 11.6921 21.6035 11.6621 21.7035V21.6435L11.5521 21.9335L11.7521 21.9635C11.6321 22.0835 11.5221 21.9035 11.5021 22.0635L11.6421 22.1235C11.5321 22.3135 11.2721 22.3434 11.0921 22.5134C10.7221 23.3734 10.9421 24.3735 10.6621 25.1835L10.5421 25.2235C10.3721 25.2435 10.7821 25.4535 10.6321 25.4735L10.7121 25.5635C10.7121 25.5635 10.6521 25.6435 10.6121 25.5935C10.6121 25.6735 10.6321 25.6735 10.6821 25.7335L10.5721 25.8234C10.4921 26.1434 10.6921 26.4234 10.6521 26.7634C10.4321 27.1734 10.6321 27.9435 10.7521 28.3935C11.0121 29.0235 10.3221 29.7435 10.6221 30.3935C10.6021 30.4135 10.6521 30.4635 10.6721 30.4635L10.6521 31.0535C10.6521 31.0535 10.582 33.9035 12.012 31.7335H12.0521C12.1421 31.4235 12.1621 31.2235 11.9721 31.0035C12.2021 30.9635 11.9921 30.7435 12.0721 30.6635H12.0921C11.9121 30.4735 12.2421 30.2634 12.0821 30.0734C12.1021 30.0734 12.1621 30.0835 12.1721 30.1335C12.1421 29.9935 12.0921 29.8034 12.2221 29.7934C12.1821 29.4634 12.2521 29.0034 12.0321 28.7934H12.0721C11.9321 28.6834 12.0521 28.6535 11.9821 28.5235C12.0021 28.5235 12.012 28.5035 12.012 28.5035C11.872 28.3735 11.9921 28.1234 11.9321 28.0134H12.0221L12.0021 27.7435L11.9821 27.8435C11.7421 27.8135 12.1321 27.6435 11.9821 27.4535C12.0121 27.2735 11.4721 27.0935 11.5921 26.9135C11.4821 26.8235 11.7821 26.9935 11.6921 26.8635C11.8221 26.8635 11.7721 26.9235 11.8721 26.8935C11.8121 26.7635 12.0021 26.6835 11.9121 26.5235H12.012C11.832 26.3135 12.1421 26.1235 11.9721 25.9935C11.8921 25.7835 12.2721 25.8535 12.0721 25.6335L12.2021 25.5434C12.2221 25.4534 12.0321 25.4735 12.1021 25.3735C12.1821 25.3735 12.1721 25.2535 12.2521 25.3035C12.4021 25.0935 12.0821 24.8535 12.3321 24.5935C12.1821 24.5135 12.2921 24.3834 12.1821 24.3234C12.2521 24.3234 12.2321 24.0435 12.3621 24.2235C12.3721 24.2435 12.3621 24.2635 12.3421 24.2535L12.4321 24.2835C12.6421 24.1635 12.3621 23.9835 12.4321 23.8335C12.3921 23.8735 12.3821 23.9335 12.3221 23.8835L12.3721 23.7435L12.4421 23.7934L12.5421 23.5935H12.4321C12.5121 23.5035 12.6821 23.5135 12.5721 23.3635C12.5121 23.2835 12.4121 23.4235 12.4121 23.3035C12.5121 23.1835 12.7021 23.0235 12.7821 22.8635C12.6721 22.8335 12.6921 22.7935 12.6821 22.7335L12.7721 22.7634C12.7121 22.5334 12.9921 22.7835 12.9721 22.5635L13.0321 22.6034L12.8621 22.4735C12.7621 22.2335 13.0921 22.4735 12.9321 22.1835C12.9121 22.2635 12.7221 22.1235 12.8021 22.0535L12.8721 22.1235C12.8721 22.0635 12.8521 22.0334 12.8721 22.0134C12.9021 22.0634 12.992 22.0934 13.012 22.0134L13.0921 22.1135C13.0621 22.0435 13.0321 21.9735 13.0021 21.9035C13.1521 21.8635 13.1321 21.6435 13.2721 21.6735C13.2721 21.6735 13.4421 21.5035 13.3621 21.3735C13.4121 21.4635 13.5221 21.3735 13.5821 21.4735C13.5321 21.3635 13.5821 21.1635 13.7021 21.1735V21.1935C13.9421 21.0435 13.8721 20.7335 14.1421 20.6435C14.0521 20.5735 14.1821 20.5235 14.0521 20.4435C14.1221 20.1435 14.5921 20.3435 14.3521 19.9435C14.4221 19.8435 14.5221 19.9335 14.5821 19.9035V19.9435C14.7121 19.7735 14.7721 19.7335 14.9121 19.6435C14.9521 19.5635 14.8321 19.3835 14.9821 19.3335C14.9821 19.4335 15.0321 19.3834 15.0721 19.3534C15.0521 19.3834 15.0621 19.4135 15.1521 19.4235C15.1521 19.3935 15.1521 19.3734 15.1521 19.3534C15.1521 19.3534 15.1521 19.3535 15.1621 19.3735C15.2221 19.3035 15.1921 19.2835 15.1621 19.3035C15.1621 19.2935 15.1421 19.2834 15.1221 19.2634C15.2621 19.3034 15.3521 19.1135 15.4321 19.2335C15.6421 19.0535 15.7521 18.8335 15.9421 18.6835C16.0021 18.7435 15.9821 18.8235 15.9321 18.8735L16.0721 18.7735C16.1121 18.8735 16.0121 18.8735 15.9821 18.9135C16.2321 18.9935 16.2721 18.5735 16.5521 18.6435V18.5434H16.5821C16.5621 18.5034 16.5921 18.4235 16.6221 18.4035C16.6821 18.4835 16.6921 18.6035 16.8021 18.5635C16.9121 18.6235 17.0221 18.4234 17.1221 18.3534C17.0521 18.3534 17.0621 18.3034 17.0821 18.2634C17.1421 18.2434 17.1921 18.3235 17.2321 18.2735L17.2721 18.3935C17.2221 18.2835 17.3821 18.2335 17.3921 18.1735C17.4421 18.2535 17.3221 18.2735 17.3321 18.3435C17.5521 18.2735 17.4421 18.3135 17.6621 18.2435C17.7621 18.1235 17.6121 18.1334 17.6521 18.0134C17.7521 17.9734 17.8521 17.8735 17.9921 17.9235L17.9321 17.8234C18.1321 17.7034 18.2621 17.6934 18.4121 17.7934C19.1721 17.2934 19.3021 16.9834 19.1721 16.7934C19.0421 16.6034 18.6821 16.5335 18.6821 16.5335C18.3121 16.4135 18.0321 16.4835 17.7521 16.5935C17.4721 16.6835 17.1921 16.8634 16.8021 17.0134L16.8121 17.0335Z" fill="#8E8E8E"/>
</svg>
