<svg width="71" height="71" viewBox="0 0 71 71" fill="none" xmlns="http://www.w3.org/2000/svg">
<path d="M35.7754 20.5876L35.8254 20.5176C35.8254 20.5176 35.7854 20.5376 35.7754 20.5876Z" fill="#8E8E8E"/>
<path d="M37.4863 18.1875L37.4963 18.2075L37.4863 18.1875Z" fill="#8E8E8E"/>
<path d="M37.2258 21.3672C37.2658 20.5172 37.4958 20.3072 37.4358 19.4372C37.4858 19.0272 37.4558 18.5872 37.4858 18.1872C37.3358 17.9772 37.5458 17.6672 37.4458 17.4272L37.5558 17.3572C37.5158 17.2772 37.5058 17.1772 37.5558 17.1072H37.5858C37.5358 16.9872 37.6058 16.8772 37.5858 16.8172H37.6158L37.6358 16.6872L37.6658 16.7172C37.6358 16.5072 37.6658 16.2972 37.7558 16.1472L37.6358 16.1272C37.8758 15.7972 37.6658 15.5872 37.9358 15.3172H37.9558C37.8158 14.8072 38.3958 14.7972 38.3258 14.2872C38.3258 14.3572 38.3858 14.2872 38.4058 14.3172C38.4858 14.1272 38.5658 13.9772 38.3658 13.8572C38.4058 13.7972 38.4558 13.8572 38.5158 13.9072C38.4458 13.8372 38.4458 13.7472 38.4858 13.6972V13.7572L38.5858 13.5972C38.5558 13.5372 38.5158 13.4772 38.4858 13.4172C38.5858 13.3872 38.5958 13.6572 38.6358 13.5372L38.5858 13.3472C38.6358 13.2672 38.7158 13.4372 38.7558 13.5472C38.8058 13.6672 38.8258 13.7972 38.8458 13.8772C38.8758 13.9072 38.9058 13.9272 38.9458 13.9472C39.0758 14.0172 39.2158 14.0972 39.3558 14.1772C39.5158 14.2472 39.5958 14.2472 39.7458 14.3172C39.7158 14.4872 39.6858 14.5772 39.3858 15.0172H39.2558C39.0858 14.9672 39.3858 15.3672 39.2258 15.3372L39.2558 15.4772C39.2558 15.4772 39.1558 15.5472 39.1458 15.4772C39.0958 15.5772 39.1258 15.5872 39.1458 15.6772L39.0058 15.7472C38.7758 16.1072 38.8258 16.5172 38.6258 16.9172C38.2258 17.3372 38.0358 18.3372 37.9258 18.9272C37.8658 19.7772 36.8758 20.4072 36.8358 21.2872C36.8058 21.3072 36.8358 21.3872 36.8458 21.3972L36.5358 22.0972C36.5358 22.0972 35.0958 25.5072 37.4658 23.4272L37.4958 23.4572C37.7358 23.1072 37.8558 22.8672 37.7858 22.5272C38.0158 22.5672 37.9358 22.2172 38.0458 22.1572V22.1772C37.9858 21.8772 38.3958 21.7472 38.3358 21.4572C38.3458 21.4772 38.4058 21.4972 38.3858 21.5572C38.4258 21.3772 38.4658 21.1372 38.5958 21.1672C38.7258 20.7572 39.0058 20.2272 38.9058 19.8872L38.9358 19.9172C38.8558 19.7172 38.9958 19.7172 38.9858 19.5272C39.0058 19.5272 39.0158 19.5172 39.0258 19.5272C38.9558 19.3172 39.1858 19.0572 39.1858 18.9072L39.2758 18.9272L39.3858 18.6072L39.3258 18.7172C39.1158 18.5872 39.5658 18.5372 39.5058 18.2472C39.6158 18.0472 39.2058 17.6272 39.4058 17.4472C39.3458 17.2972 39.5458 17.6072 39.5258 17.4172C39.6458 17.4572 39.5658 17.5172 39.6858 17.5172C39.6858 17.3372 39.9058 17.3072 39.9058 17.0872L40.0058 17.1172C39.9358 16.7972 40.3158 16.6972 40.2258 16.4672C40.2558 16.1772 40.5658 16.4072 40.4958 16.0672L40.6658 16.0172C40.7358 15.9072 40.5458 15.8772 40.6658 15.7672C40.7458 15.8072 40.7958 15.6272 40.8358 15.7372C40.9558 15.6172 40.9658 15.4572 40.9958 15.2872C40.9958 15.2272 41.0458 15.0772 41.1058 14.9172C41.1658 14.7672 41.2558 14.6172 41.3758 14.4472C41.2558 14.3072 41.4958 13.9772 41.3858 13.9072C41.4058 13.8972 41.4458 13.8472 41.4758 13.7872C41.3558 13.6872 41.1058 13.5172 41.4758 13.6272C41.5158 13.6372 41.5658 13.6772 41.5358 13.6872H41.6958C41.5358 13.3472 40.9258 13.2872 40.6358 13.0572C40.7158 13.1472 40.8558 13.2272 40.7058 13.2172L40.4158 13.0072L40.5358 12.9872L40.3258 12.8172L40.2058 12.7072L40.1858 12.8172C40.0858 12.6872 40.1358 12.5172 39.9058 12.5372C39.7858 12.5572 39.9558 12.7372 39.7958 12.6672C39.5558 12.4272 39.1158 11.9972 38.7058 11.7172C38.7458 11.8772 38.6458 11.8072 38.5358 11.7772L38.5058 11.6472C38.5058 11.6472 38.4158 11.6172 38.3858 11.6172C38.3558 11.6572 38.3358 11.6772 38.3258 11.6872C38.2958 11.7072 38.2658 11.6872 38.2458 11.6772C38.2058 11.6372 38.1458 11.6072 37.9958 11.8672V11.7572V12.0872C37.8058 12.6072 37.7258 12.0872 37.5558 12.6872C37.6658 12.5372 37.7458 12.7972 37.5958 12.9272L37.5658 12.8172C37.5058 12.9272 37.5158 12.9972 37.4558 13.0472C37.4558 12.9472 37.3758 12.9172 37.2758 13.0972L37.2558 12.9072C37.2258 13.0572 37.2058 13.1972 37.2258 13.2772C37.0258 13.3772 37.0058 13.6972 36.8558 13.6972C36.8558 13.6972 36.6258 14.0172 36.7158 14.1572C36.6658 14.0472 36.5358 14.2272 36.4658 14.1272C36.5158 14.2672 36.4958 14.5672 36.3558 14.6372V14.6072C36.0758 14.9772 36.2658 15.3572 36.0258 15.6872C36.1458 15.6972 36.0258 15.8772 36.1858 15.8672C36.2458 16.2772 35.7358 16.4972 36.1558 16.7272C36.1558 16.8972 36.0158 16.9072 35.9758 16.9972L35.9558 16.9572C35.9458 17.2872 35.9258 17.3772 35.8858 17.6172C35.9158 17.7472 36.1258 17.7872 36.0458 17.9972C35.9658 17.9172 35.9758 18.0072 35.9658 18.0872C35.9658 18.0372 35.9258 18.0172 35.8658 18.1172C35.8858 18.1372 35.9058 18.1572 35.9158 18.1772C35.9158 18.1772 35.9058 18.1772 35.8958 18.1772C35.9158 18.3172 35.9358 18.2972 35.9558 18.2372C35.9658 18.2372 35.9858 18.2372 36.0058 18.2172C35.8758 18.3472 35.9758 18.5972 35.8258 18.6072C35.8258 19.0072 35.9558 19.3072 36.0058 19.6372C35.9258 19.6672 35.8658 19.5872 35.8458 19.4972L35.8658 19.7372C35.7558 19.7372 35.8058 19.5972 35.7858 19.5272C35.6058 19.8072 35.9358 20.1072 35.7858 20.4372L35.8658 20.5072V20.5272C35.8658 20.5272 35.9558 20.5972 35.9758 20.6472C35.8858 20.6972 35.7558 20.6472 35.7658 20.8072C35.6758 20.9372 35.8158 21.1772 35.8658 21.3372C35.8758 21.2472 35.9358 21.2772 35.9658 21.3172C35.9658 21.3972 35.8758 21.4472 35.9158 21.5072H35.7858C35.9058 21.4872 35.9158 21.7272 35.9658 21.7572C35.8758 21.8072 35.8858 21.6372 35.8158 21.6172C35.8358 21.9372 35.8258 21.7772 35.8558 22.1072C35.9558 22.2772 35.9758 22.0672 36.0858 22.1472C36.1158 22.2972 36.2058 22.4372 36.1458 22.6172L36.2558 22.5572C36.3558 22.8372 36.3558 23.0072 36.2558 23.2072C36.7858 24.2272 37.1158 24.2972 37.2958 24.1372C37.4758 23.9672 37.5258 23.5572 37.5258 23.5572C37.7058 22.7272 37.3558 22.3372 37.2458 21.3772L37.2258 21.3672Z" fill="#8E8E8E"/>
<path d="M23.7671 21.6875L23.5371 21.7375C23.5371 21.7375 23.6071 21.7475 23.7671 21.6875Z" fill="#8E8E8E"/>
<path d="M43.5957 23.3464L43.6457 23.3164L43.5957 23.3464Z" fill="#8E8E8E"/>
<path d="M28.5363 24.3169C28.5363 24.3169 28.5063 24.2969 28.4863 24.2969C28.5063 24.2969 28.5363 24.3169 28.5363 24.3169Z" fill="#8E8E8E"/>
<path d="M26.4862 19.6568C25.8462 19.6368 25.2962 19.7768 24.7862 19.8168C24.2862 19.9368 23.8362 20.0368 23.4162 20.1568C23.0062 20.3168 22.6062 20.4668 22.2162 20.6368C21.8462 20.8468 21.4662 21.0668 21.0662 21.3268L18.0762 23.1868L21.6962 23.2168C22.3962 23.2168 23.1962 23.2268 24.2462 23.2368C25.8562 23.3068 27.4562 23.5168 28.5362 24.3068C28.6662 24.2668 28.8162 24.4268 28.7962 24.4868C28.7462 24.5068 28.7062 24.5268 28.6862 24.5868C28.6362 24.5768 28.5962 24.5568 28.5662 24.5368C28.6262 24.5168 28.4662 24.6168 28.4062 24.6568C28.3162 24.7168 28.2362 24.7668 28.1562 24.8168C27.9862 24.9368 27.8062 25.0268 27.6462 25.1268V25.0868C27.2262 25.4668 26.7762 25.8968 26.6262 26.1268V26.0868C26.4762 26.2568 26.3562 26.4368 26.2262 26.6168L26.2562 26.5068C26.0062 26.9068 25.7962 27.3168 25.5962 27.7168C25.4862 27.9468 25.3862 28.1668 25.2862 28.3868C25.1562 28.7068 25.0262 29.0268 24.8962 29.3368L25.0662 29.2168C24.6462 30.2068 24.4362 30.9668 24.2562 31.5968C24.1662 31.9168 24.0862 32.2268 24.0062 32.5268C23.9362 32.8168 23.7862 33.2268 23.7962 33.3968C24.1262 33.1768 24.4862 32.9568 24.9062 32.7068L24.8362 32.7868C25.6462 32.1468 26.2462 31.7068 26.7962 31.3568C27.0762 31.1768 27.3462 31.0168 27.6162 30.8668L28.0162 30.6468L28.2862 30.5068C28.9362 30.1968 29.5862 29.8968 30.3362 29.3568C30.1462 29.4968 30.4462 29.3568 30.4462 29.3968C31.1862 28.9868 31.9962 28.6168 31.9262 28.4068C32.4962 28.1768 32.4162 28.2868 32.5162 28.3368C32.4762 28.2468 32.9562 28.0068 33.4062 27.8668L33.2162 27.9668C33.6362 27.8168 34.0662 27.6868 34.4962 27.5868C34.3962 27.5368 34.2962 27.5068 34.1962 27.4568C34.5562 27.3968 34.6062 27.4568 34.6562 27.4968C34.6862 27.5368 34.8062 27.5468 34.9562 27.4968V27.3368C35.0462 27.3368 35.1162 27.3368 35.1862 27.3368C35.2162 27.3368 35.2562 27.3368 35.2762 27.3468L35.3162 27.4468C35.3662 27.5768 35.3762 27.6968 35.3862 27.8068C35.4162 28.0068 35.4462 28.2068 35.4762 28.4168C35.5362 28.7668 35.5862 29.1768 35.6362 29.6868C35.7162 30.4968 35.7162 31.6368 35.7462 32.6668C36.2062 32.4968 37.1062 31.4968 37.8162 30.4468C38.1762 29.8768 38.5162 29.1968 38.7762 28.4968C38.8562 28.2868 38.8762 28.2268 38.8762 28.1968L38.9062 28.0768L38.9562 27.8268C39.0162 27.8068 39.1162 27.8668 39.2062 27.8968L39.3462 27.9568C39.3962 27.9768 39.4262 27.9868 39.5562 28.0568C39.9862 28.2768 40.3962 28.5168 40.7862 28.7768C41.5762 29.2968 42.2862 29.8968 42.8762 30.5568L42.9062 30.7568C42.8762 30.8668 43.0362 30.8868 43.4662 31.2968C43.8262 31.6468 44.1362 31.9268 44.2062 32.1468C44.3862 32.3868 44.5662 32.6968 44.7362 32.9368C44.8862 33.2568 45.2262 33.9368 44.9662 33.5468C45.0262 33.6668 45.0862 33.7668 45.1362 33.8568C45.1962 33.9768 45.2462 34.0768 45.2962 34.1668C45.3862 34.3368 45.4562 34.4668 45.5262 34.6068C45.6362 34.7868 45.7462 34.9868 45.9362 35.3168L45.9662 35.3968C46.0762 35.3468 46.1562 35.4368 46.2262 35.4768C46.2562 35.4368 46.2962 35.3868 46.3262 35.3268C46.3562 35.2668 46.3862 35.2068 46.3962 35.2168C46.4262 35.2168 46.4562 35.1868 46.4862 35.1668C46.4862 35.1868 46.5062 35.1068 46.5162 35.0368L46.5562 34.8368L46.6162 34.4368L46.7262 33.6868C46.8462 32.7268 46.9162 31.7568 46.6662 30.4568C46.3462 28.5468 45.6062 27.3468 44.4762 26.0968C44.1962 25.8168 43.8962 25.4968 43.6162 25.2768C43.5162 25.2068 43.4262 25.1468 43.3062 25.0668C43.2762 25.0368 43.1362 24.9868 43.1862 24.9568C43.2162 24.9168 43.2562 24.8868 43.3062 24.8568C43.3862 24.7868 43.4862 24.7268 43.5862 24.6668C43.6062 24.6468 43.6262 24.6368 43.6662 24.6168L43.8462 24.5268C43.9662 24.4668 44.0862 24.4168 44.2062 24.3668C44.4562 24.2668 44.7062 24.1768 44.9662 24.1068C45.4862 23.9468 46.0362 23.8468 46.5962 23.7668C47.7162 23.6168 48.8662 23.6068 49.9962 23.6468L50.4362 22.1268C49.2662 21.4268 48.1562 21.2468 47.0662 21.1968C46.9562 21.1568 46.6662 21.1868 46.6662 21.1968C45.6362 21.0968 44.5962 21.0968 43.5662 21.1668C43.5662 21.1668 42.6262 21.2368 41.4262 21.4968C40.2262 21.7468 38.7762 22.2668 37.7662 22.8368C36.7462 23.3968 36.1462 23.9368 36.4062 23.9968C36.6862 24.1268 37.7662 23.5568 40.4062 23.1368L40.3462 23.1968C41.8762 22.8468 42.8362 22.7468 43.9062 22.4668C44.0862 22.6768 45.1962 22.4268 45.5562 22.5268L45.5262 22.5468C46.4962 22.3968 47.4562 22.8368 48.3462 22.8968C48.3062 22.9068 48.2762 22.9668 48.0762 22.9268C48.7262 23.0268 49.5162 23.3068 49.4562 23.4568C49.4962 23.4768 49.5362 23.4968 49.5762 23.5168L50.0062 22.0268C48.3062 22.0268 46.0062 22.3368 45.0262 22.8468L45.0862 22.7868C44.5162 23.0968 44.3062 23.0268 43.6662 23.3368C43.6262 23.3368 43.5762 23.3368 43.5762 23.3368C43.3562 23.4968 42.6362 23.7968 42.0762 24.1268C41.8062 24.2968 41.5362 24.4668 41.2962 24.6268C41.2362 24.6668 41.1762 24.7068 41.1262 24.7468C41.0862 24.7868 41.1962 24.8368 41.2262 24.8668C41.3162 24.9468 41.3962 25.0168 41.4762 25.0768L41.3862 25.1168C41.6262 25.3268 41.8362 25.5368 42.0962 25.7468C42.2262 25.8568 42.3762 25.9668 42.4962 26.0768L42.8062 26.3568C42.7262 26.2768 42.4962 26.0568 42.3262 25.8968C42.8262 26.0068 43.0762 26.7468 43.7662 27.3568C44.0262 27.6868 44.3662 27.9668 44.6962 28.2768C45.0162 28.5768 45.3362 28.9868 45.4262 29.3768C45.6762 29.7068 45.1262 29.1168 45.4062 29.5968C45.2762 29.5968 45.2462 29.3968 45.1762 29.5168C45.2862 29.7168 45.2862 29.8568 45.2962 29.9968C45.2962 30.1368 45.2962 30.2468 45.3762 30.5168L45.2362 30.3768C45.3862 30.7668 45.3462 31.0068 45.2762 31.1168C45.1962 31.1968 45.1462 31.4068 45.1562 31.4168C45.0262 31.2168 44.8262 30.6168 44.7462 30.4868C44.7162 30.4468 44.6962 30.4368 44.6562 30.4468C44.6062 30.3168 44.5662 30.1968 44.5362 30.0968C44.4662 29.9668 44.4462 30.2368 44.3362 30.0068C44.3762 29.9268 44.2262 29.7968 44.3462 29.7968C44.0262 29.3668 43.4562 28.8968 42.9162 28.5068C42.3462 28.1068 41.7362 27.6868 41.0862 27.1668C40.6862 27.1168 40.0662 26.6568 39.5162 26.5468C39.4862 26.4168 37.1162 25.5768 38.4262 25.9068C38.5462 25.9368 38.7662 26.0368 38.7562 26.0568L38.9162 26.0168C38.5762 25.8268 38.2062 25.6568 37.8762 25.5368C37.7062 26.1368 37.5862 26.8068 37.4362 27.3668L37.3362 27.7468C37.3062 27.8468 37.3262 27.8168 37.3262 27.8468C37.3262 27.8868 37.3162 27.9268 37.2962 27.9568C37.3462 27.9368 37.3762 27.8368 37.4062 27.9368C37.3662 28.0068 37.3362 28.0768 37.2962 28.1468C37.2962 28.0968 37.2762 28.0468 37.2662 28.0068C37.2162 28.0668 37.1762 28.1068 37.1362 28.1268C37.1362 28.1868 37.1562 28.2568 37.1662 28.3068C37.0662 28.3168 37.1062 27.9468 37.0162 28.2768C36.9662 28.3968 36.9462 28.8168 36.9162 28.7068C36.9162 28.6268 36.9262 28.5268 36.9362 28.4268C36.9362 28.2868 36.9462 28.1268 36.9562 27.9668V27.8168C36.9562 27.8168 36.9262 27.6868 36.8862 27.5768C36.8462 27.4568 36.8062 27.3468 36.7662 27.2268C36.7162 27.4268 36.5562 26.9668 36.2762 26.5768L36.3162 26.4568C36.1662 26.2868 36.0762 26.0968 35.9562 26.0368C35.8062 26.0368 35.6862 26.0368 35.5962 26.0368C35.4162 26.0368 35.3362 26.0068 35.2462 25.9768C35.1562 25.9568 35.0762 25.9168 34.8762 25.9168C34.7862 25.9168 34.6262 25.9368 34.5362 25.9568C34.4362 25.9768 34.3162 25.9968 34.1662 26.0368L34.2562 25.9468C34.1562 26.0268 34.0662 26.1268 33.9862 26.2168C33.0062 26.6668 33.3562 26.1568 32.3462 26.7768C32.7662 26.6068 32.6162 26.9068 32.0862 27.0568L32.1862 26.9168C31.9062 27.0368 31.8262 27.1268 31.6362 27.1768C31.7862 27.0568 31.6762 27.0068 31.2662 27.1968L31.4962 26.9668C31.2562 27.1268 31.0162 27.2968 30.7862 27.4668C30.1462 27.6368 29.2962 28.2168 28.9962 28.2168C28.9962 28.2168 27.7462 28.8168 27.5462 29.1068C27.7362 28.8868 27.0662 29.2368 27.1962 29.0368C27.2362 29.1268 26.9662 29.3968 26.9962 29.2568L27.0162 29.2268C27.0162 29.2268 26.9762 29.2168 26.9162 29.2668C26.8262 29.3568 26.7662 29.1868 26.9462 28.9968C26.8062 29.0268 26.9462 28.8668 26.7762 28.8668C26.7762 28.8368 26.8562 28.6268 26.9162 28.4968C26.9762 28.3468 27.0662 28.2268 27.1362 28.0968C27.2862 27.8468 27.4662 27.6368 27.6162 27.4568C27.9262 27.0868 28.1762 26.8568 28.1962 26.5368C28.6262 26.1468 28.8062 26.2168 29.0662 26.0968C29.0262 26.1268 28.9962 26.1468 28.9562 26.1868C29.1562 26.0268 29.8462 25.7568 30.2662 25.6268C30.7362 25.4868 31.1362 25.3768 31.5762 25.2468C31.5962 25.1168 31.2862 24.8168 31.0562 24.5068C30.5262 23.9668 30.3062 23.9468 29.4762 23.1768C29.8462 23.3568 29.4062 23.0268 29.1662 22.8768C29.3462 22.9868 29.4262 22.9968 29.0862 22.7068C29.0162 22.7068 28.9262 22.6668 28.8462 22.6268C28.8462 22.6268 28.8362 22.6068 28.8462 22.6068C28.3462 22.3668 28.4162 22.4468 28.6362 22.5668C28.6162 22.5668 28.6362 22.5968 28.6862 22.6568C28.2362 22.2668 27.2162 22.0668 27.1962 21.9268C25.5862 21.5668 24.4662 21.7368 23.1962 21.7568C23.0562 21.6768 23.3562 21.6168 23.7262 21.5968H22.8162C22.8162 21.5068 23.3362 21.5568 23.6162 21.5368C22.9862 21.4168 22.3462 21.4968 21.6762 21.5368L22.0362 22.6168C22.4062 22.3668 22.7662 22.0268 23.2562 21.8968L23.4462 21.7268L23.5162 21.7068C23.5162 21.7068 23.7162 21.5068 23.8662 21.4168C24.0562 21.4368 23.9262 21.6168 24.4762 21.4468C24.9262 21.3768 25.7262 21.1068 26.3362 21.0168C26.0062 21.0168 26.1062 20.9568 26.2462 20.9168C26.5462 20.9068 26.7162 20.9868 26.9462 20.9368L26.9762 21.0568C26.8562 20.9168 27.7462 20.9368 27.8662 20.9068C28.0262 21.0068 27.3962 20.9568 27.3262 21.0268C28.5062 21.1068 27.9162 21.0268 29.0962 21.1968C29.7462 21.1968 29.0062 21.0668 29.3262 20.9968C29.8862 21.0968 30.4662 21.1168 31.0762 21.3968L30.9062 21.2268C31.9762 21.4468 32.5862 21.7368 33.1962 22.1468C35.1262 22.8068 36.1162 23.4168 36.6462 23.7668C37.1662 24.1268 37.1962 24.0068 37.1062 23.7068C36.9462 23.3468 36.5062 22.8268 36.1062 22.4868C35.7062 22.1368 35.3462 21.8968 35.3462 21.8968C33.9262 20.8868 32.6862 20.4168 31.3462 20.0568C29.9962 19.7368 28.5262 19.4868 26.4562 19.6068L26.4862 19.6568Z" fill="#8E8E8E"/>
<path d="M15.9757 34.1367L15.8457 34.3667C15.8457 34.3667 15.9057 34.3167 15.9757 34.1367Z" fill="#8E8E8E"/>
<path d="M13.7468 44.4765C13.7468 44.4765 13.7268 44.4165 13.7168 44.3965L13.7468 44.4765Z" fill="#8E8E8E"/>
<path d="M16.1562 30.5371C15.1362 32.1571 14.6462 33.2671 14.1962 34.4071C13.7962 35.5571 13.4162 36.7771 13.3062 38.7571C13.1362 40.6371 13.3262 42.6671 13.7462 44.4671C14.0962 45.2771 14.3762 46.8071 14.9262 47.6971L15.0062 48.0971C15.2062 48.3971 15.3762 48.7771 15.5262 49.1071H15.4862C15.8162 49.5271 16.0662 50.0671 16.2362 50.2871H16.2062L16.5862 50.8071L16.4862 50.7371C16.7862 51.1171 17.0762 51.4771 17.3562 51.8271C17.6562 52.1771 17.9462 52.5171 18.2062 52.8471L18.2462 52.7171C18.8062 53.4171 19.2962 53.7971 19.7262 54.1971C20.2062 54.5371 20.6462 54.8871 21.2562 55.4171H21.2262C22.1762 55.8471 22.8062 56.3371 23.5162 56.7271C23.8662 56.9271 24.2062 57.1571 24.6162 57.3271C25.0162 57.4871 25.4662 57.6371 25.9762 57.7671C25.7262 57.7071 26.0562 57.8671 26.0262 57.8871C26.9462 58.1871 27.9462 58.4071 28.0062 58.2071C28.6662 58.4071 28.5362 58.4171 28.5962 58.5271C28.6162 58.4271 29.2162 58.5071 29.7462 58.6071H29.4962C30.0062 58.6771 30.5062 58.8071 31.0262 58.8371L30.7562 58.6171C31.5562 58.7671 30.9262 58.8671 31.7162 58.9171V58.7571C32.2862 58.8271 32.7162 58.9671 33.1562 59.0671C33.5962 59.1571 34.0262 59.2671 34.5762 59.3471C35.7162 59.4471 36.8762 59.3171 38.0462 59.2771C38.6262 59.2271 39.2062 59.1271 39.7862 59.0471L40.6562 58.9271L41.5162 58.7371C43.8062 58.2871 45.9762 57.5171 47.9562 56.6671L48.1762 56.6871C48.2562 56.7471 48.4962 56.5571 48.7362 56.3571C48.9762 56.1571 49.1962 55.9171 49.3162 55.9371L49.6962 55.5971C49.8362 55.5471 50.0962 55.4171 49.9062 55.5771C50.2962 55.3271 50.3062 55.3171 50.5362 55.0671L50.9962 54.8471C52.5262 53.7971 53.4662 52.4871 54.6262 50.9571C55.4262 50.0971 56.2262 48.5871 56.8062 46.9871C57.3762 45.3771 57.6062 43.6571 57.7062 42.4171C57.7562 40.6671 57.8262 38.7771 57.5862 36.8671C57.3562 34.9671 56.8062 33.0471 55.8162 31.5071C55.7762 31.3871 55.5762 31.1471 55.5662 31.1571C55.0462 30.1771 54.3662 29.2771 53.6262 28.4371C53.6262 28.4371 53.4562 28.2471 53.1462 27.9571C52.8462 27.6571 52.4062 27.2571 51.8462 26.8771C50.7562 26.0871 49.2062 25.3671 47.9262 25.2171C47.3062 25.0671 46.7562 25.1371 46.4162 25.1371C46.0662 25.1571 45.9062 25.2271 46.0062 25.3371C46.1062 25.4471 46.4662 25.5971 47.1262 25.8071C47.7762 26.0571 48.7462 26.4271 49.8862 27.2271H49.8062C51.2062 28.0671 51.9162 28.8071 52.8362 29.5071C52.8062 29.6571 53.0262 29.9171 53.2762 30.1771C53.5162 30.4571 53.7462 30.7671 53.8362 30.9471L53.7962 30.9271C54.5362 31.6671 54.7262 32.7971 55.2562 33.6171C55.2262 33.5871 55.1562 33.5971 55.0562 33.3871C55.3862 34.0171 55.7062 34.9471 55.6162 35.0271C56.1862 36.6371 56.3962 39.0271 56.5662 40.1171L56.5262 40.0371C56.6862 40.6671 56.5562 40.8471 56.5762 41.5571C56.5562 41.5971 56.5462 41.6471 56.5362 41.6371C56.5962 41.9871 56.5462 42.4871 56.4562 42.9671C56.3862 43.4471 56.2962 43.9071 56.2462 44.1771L56.1462 44.1971C56.0362 44.6371 55.9762 45.0971 55.8162 45.5171C55.8762 45.3571 55.9462 45.1971 55.9862 45.0371C56.1762 45.2771 55.5462 45.9871 55.3362 46.9471C55.1262 47.3571 55.0862 47.8571 54.9562 48.3271C54.8262 48.7971 54.6862 49.2871 54.3762 49.6771C54.2062 50.1271 54.4562 49.2371 54.1262 49.8571C54.0062 49.8071 54.2462 49.5471 54.0562 49.6371C53.7062 50.2171 53.3662 50.5071 52.8762 51.1771L52.7762 51.1371C52.2362 52.1171 51.2862 52.5271 50.8862 53.1471C50.0462 53.8971 50.1362 53.4071 49.3062 54.2171L48.8562 54.3471C48.4262 54.5971 48.6462 54.6771 48.1462 54.9171C48.1462 54.8371 47.4962 55.1771 47.7462 54.9571C46.6062 55.4071 45.5562 56.2471 43.9062 56.5071C43.6062 56.7571 42.7862 56.9071 42.5562 57.0871C42.4962 57.0271 40.9162 57.3971 41.7962 57.0671C41.8762 57.0371 42.0162 57.0171 42.0062 57.0471L42.0962 56.9271C41.1462 56.9271 40.4562 57.3871 39.5062 57.4271C39.7862 57.4271 40.1462 57.3771 39.9162 57.4771L39.0462 57.5571L39.2162 57.4571C38.7862 57.4871 38.3562 57.5371 37.9262 57.5471L38.1162 57.6371C37.4762 57.6171 37.2462 57.4471 36.5362 57.6171C36.2162 57.7071 37.1462 57.7371 36.4762 57.7871C35.6262 57.7871 34.3562 57.5971 33.2862 57.5371C33.3762 57.6571 33.0862 57.6471 32.7862 57.6271L32.7562 57.5271C31.6062 57.5271 32.3662 57.2571 31.2262 57.2471L31.3362 57.1871L31.0062 57.3571C29.9662 57.3771 30.5062 57.0471 29.3362 57.0971C29.7762 57.1671 29.4962 57.3571 28.9562 57.2071L29.1162 57.1371C28.8062 57.0971 28.6962 57.1171 28.5062 57.0371C28.6962 57.0371 28.6362 56.9271 28.1962 56.8171L28.5162 56.7871L27.6562 56.7171C27.0462 56.4671 26.0462 56.1971 25.8462 55.9771C25.8462 55.9771 25.5262 55.8371 25.1662 55.6971C24.8162 55.5371 24.4262 55.3471 24.2462 55.3471C24.5362 55.3871 23.8662 55.0171 24.1162 55.0171C23.7362 54.9771 22.7962 54.4771 22.4962 54.1471L22.5662 54.1771C21.9162 53.7371 21.4262 53.2971 20.8762 52.9371C20.3762 52.5271 19.8862 52.1271 19.4662 51.5571C19.4262 51.6871 18.9862 51.0771 18.9962 51.3171C17.9062 50.2971 17.6762 49.0071 17.0262 48.7771C16.6662 48.2071 16.7262 48.0371 16.6162 47.7071L16.7062 47.8371C16.1362 46.7171 16.0262 46.3671 15.7362 45.4871C15.5462 45.0571 15.3462 45.0371 15.1862 44.2071C15.3362 44.4471 15.2262 44.1271 15.1662 43.8171C15.2262 44.0071 15.2562 44.0671 15.2462 43.6471C15.2162 43.5971 15.1862 43.5071 15.1562 43.4271C15.1562 43.4271 15.1562 43.4071 15.1762 43.4071C15.0662 42.8971 15.0562 42.9871 15.0762 43.2271C15.0662 43.2171 15.0462 43.2371 15.0362 43.3171C15.0462 43.0371 14.9862 42.6671 14.9362 42.3471C14.9162 42.0271 14.9062 41.7671 14.9762 41.7271C14.8062 40.1671 14.7462 39.0271 14.8462 37.6971C14.9462 37.5671 14.9462 37.8771 14.9462 38.2571C14.9462 37.9471 15.0062 37.6371 15.0562 37.3271C15.1662 37.3571 15.0062 37.8571 15.0162 38.1471C15.1662 37.6071 15.2362 37.0471 15.2962 36.4571C15.4162 35.8771 15.4762 35.2471 15.7862 34.6671V34.3871L15.8362 34.3171C15.7962 34.3071 15.8362 34.0071 15.8862 33.8171C16.0362 33.6771 16.0662 33.8971 16.3262 33.3171C16.4762 33.1071 16.6062 32.7771 16.7462 32.4171C16.8962 32.0771 17.0762 31.6971 17.2062 31.4071C17.0162 31.7071 17.0262 31.5871 17.0762 31.4271C17.2262 31.1371 17.4162 31.0471 17.5262 30.8171L17.6462 30.8671C17.4762 30.9071 18.0262 30.1071 18.0562 29.9771C18.2362 29.8871 17.8262 30.4271 17.8362 30.5371C18.5762 29.4971 18.2262 30.0371 19.0362 29.0471C19.4662 28.5171 18.8562 29.0471 19.0262 28.7471C19.4562 28.3171 19.8262 27.8171 20.4562 27.4771L20.2062 27.5171C20.6462 27.1271 21.0062 26.8371 21.3862 26.6471C21.7562 26.4571 22.0762 26.2571 22.4662 26.1671C23.3862 25.5871 24.1862 25.2771 24.7862 24.9971C25.4062 24.7771 25.8462 24.6171 26.1262 24.4771C26.6962 24.2171 26.6362 24.1171 26.3062 24.0571C25.9662 24.0171 25.3362 24.0571 24.7762 24.1171C24.2362 24.1971 23.7762 24.3271 23.7762 24.3271C21.9562 24.7671 20.6662 25.4971 19.5162 26.4671C18.3662 27.4371 17.2562 28.6071 16.1262 30.4671L16.1562 30.5371Z" fill="#8E8E8E"/>
</svg>
