<svg width="24" height="24" viewBox="0 0 24 24" fill="none" xmlns="http://www.w3.org/2000/svg">
<path d="M0 5.52C0 2.47139 2.47139 0 5.52 0H18.48C21.5286 0 24 2.47139 24 5.52V18.48C24 21.5286 21.5286 24 18.48 24H5.52C2.47139 24 0 21.5286 0 18.48V5.52Z" fill="white"/>
<path d="M8.19836 10.7852C8.18703 10.7852 8.17785 10.7758 8.17785 10.7643V9.68889C8.17785 9.59134 8.10011 9.51225 8.00422 9.51225V9.51225C7.90833 9.51225 7.8306 9.59134 7.8306 9.68889V10.7643C7.8306 10.7758 7.82141 10.7852 7.81008 10.7852H4.68466C4.59562 10.7852 4.52344 10.8586 4.52344 10.9492V10.9492C4.52344 11.0398 4.59562 11.1132 4.68466 11.1132H11.3403C11.4294 11.1132 11.5015 11.0398 11.5015 10.9492V10.9492C11.5015 10.8586 11.4294 10.7852 11.3403 10.7852H8.19836Z" fill="black"/>
<path d="M13.4024 4.56922C13.4024 4.47166 13.3247 4.39258 13.2288 4.39258V4.39258C13.1329 4.39258 13.0552 4.47166 13.0552 4.56922V6.45788C13.0552 6.55293 13.1309 6.62999 13.2244 6.62999H18.8221C18.9111 6.62999 18.9833 6.55656 18.9833 6.46597V6.46597C18.9833 6.37538 18.9111 6.30195 18.8221 6.30195H13.463C13.4296 6.30195 13.4024 6.27437 13.4024 6.24036V4.56922ZM19.4545 7.66038C19.4545 7.56979 19.3824 7.49636 19.2933 7.49636H12.6377C12.5486 7.49636 12.4764 7.56979 12.4764 7.66038V7.66038C12.4764 7.75096 12.5486 7.8244 12.6377 7.8244H19.2933C19.3824 7.8244 19.4545 7.75096 19.4545 7.66038V7.66038ZM18.9171 8.98556C18.9171 8.8274 18.7911 8.69918 18.6356 8.69918H13.1627C13.0759 8.69918 13.0056 8.77073 13.0056 8.85899V8.85899C13.0056 8.94725 13.0759 9.01881 13.1627 9.01881H18.4868C18.5372 9.01881 18.5781 9.06042 18.5781 9.11174V9.71975C18.5781 9.79717 18.5165 9.85994 18.4404 9.85994H13.4355C13.2072 9.85994 13.0221 10.0482 13.0221 10.2805V11.0808C13.0221 11.2427 13.1512 11.374 13.3103 11.374H18.9171C19.0039 11.374 19.0742 11.3024 19.0742 11.2142V11.2142C19.0742 11.1259 19.0039 11.0543 18.9171 11.0543H13.4548C13.403 11.0543 13.3611 11.0117 13.3611 10.9591V10.3113C13.3611 10.2339 13.4228 10.1712 13.4989 10.1712H18.5037C18.732 10.1712 18.9171 9.98286 18.9171 9.75059V8.98556Z" fill="black"/>
<path d="M10.8153 12.7618C10.7194 12.7618 10.6417 12.8409 10.6417 12.9385V18.374C10.6417 18.3962 10.624 18.4143 10.6021 18.4143H8.38868C8.29964 18.4143 8.22745 18.4877 8.22745 18.5783V18.5783C8.22745 18.6689 8.29964 18.7423 8.38868 18.7423H10.6223C10.633 18.7423 10.6417 18.7511 10.6417 18.762V19.7685C10.6417 19.866 10.7194 19.9451 10.8153 19.9451V19.9451C10.9112 19.9451 10.9889 19.866 10.9889 19.7685V12.9385C10.9889 12.8409 10.9112 12.7618 10.8153 12.7618V12.7618ZM8.9633 13.3787C8.9633 13.2238 8.83991 13.0983 8.6877 13.0983H5.41913C5.26692 13.0983 5.14353 13.2238 5.14353 13.3787V15.7955C5.14353 15.9504 5.26692 16.0759 5.41913 16.0759H8.6877C8.83991 16.0759 8.9633 15.9504 8.9633 15.7955V13.3787ZM8.62431 15.6077C8.62431 15.6851 8.56262 15.7479 8.48652 15.7479H5.62031C5.54421 15.7479 5.48251 15.6851 5.48251 15.6077V13.5665C5.48251 13.4891 5.54421 13.4263 5.62031 13.4263H8.48652C8.56262 13.4263 8.62431 13.4891 8.62431 13.5665V15.6077ZM9.78598 17.161C9.84821 17.1421 9.8893 17.0829 9.8893 17.0169V17.0169C9.8893 16.9081 9.78156 16.8322 9.67875 16.862C9.1066 17.0281 8.23001 17.0937 7.1857 17.0937H4.69293C4.60389 17.0937 4.53171 17.1671 4.53171 17.2577V17.2577C4.53171 17.3483 4.60389 17.4217 4.69293 17.4217H6.70304C6.72303 17.4217 6.73923 17.4382 6.73923 17.4585V19.7685C6.73923 19.866 6.81697 19.9451 6.91286 19.9451V19.9451C7.00875 19.9451 7.08649 19.866 7.08649 19.7685V17.4631C7.08649 17.4402 7.10469 17.4217 7.12715 17.4217H7.2105C8.32996 17.4217 9.22281 17.3325 9.78598 17.161Z" fill="black"/>
<path d="M18.8841 12.9385C18.8841 12.8409 18.8063 12.7618 18.7104 12.7618V12.7618C18.6145 12.7618 18.5368 12.8409 18.5368 12.9385V16.5551C18.5368 16.6249 18.5925 16.6815 18.6611 16.6815H18.7598C18.8284 16.6815 18.8841 16.6249 18.8841 16.5551V12.9385ZM18.8841 17.4666C18.8841 17.3117 18.7607 17.1862 18.6085 17.1862H13.5127C13.3605 17.1862 13.2371 17.3117 13.2371 17.4666V19.4965C13.2371 19.6514 13.3605 19.7769 13.5127 19.7769H18.6085C18.7607 19.7769 18.8841 19.6514 18.8841 19.4965V17.4666ZM13.7221 19.4488C13.646 19.4488 13.5843 19.3861 13.5843 19.3087V17.6544C13.5843 17.577 13.646 17.5142 13.7221 17.5142H18.399C18.4751 17.5142 18.5368 17.577 18.5368 17.6544V19.3087C18.5368 19.3861 18.4751 19.4488 18.399 19.4488H13.7221Z" fill="black"/>
<path fill-rule="evenodd" clip-rule="evenodd" d="M14.5055 16.3809C15.4707 16.3809 16.2531 15.5925 16.2531 14.62C16.2531 13.6474 15.4707 12.859 14.5055 12.859C13.5404 12.859 12.758 13.6474 12.758 14.62C12.758 15.5925 13.5404 16.3809 14.5055 16.3809ZM14.5055 16.7331C15.6637 16.7331 16.6026 15.787 16.6026 14.62C16.6026 13.4529 15.6637 12.5068 14.5055 12.5068C13.3473 12.5068 12.4084 13.4529 12.4084 14.62C12.4084 15.787 13.3473 16.7331 14.5055 16.7331Z" fill="black"/>
<path fill-rule="evenodd" clip-rule="evenodd" d="M14.4218 13.6904C14.5145 13.6904 14.5896 13.7662 14.5896 13.8596V14.7053H15.0932C15.1859 14.7053 15.2611 14.7811 15.2611 14.8745C15.2611 14.9679 15.1859 15.0436 15.0932 15.0436H14.5561C14.3892 15.0436 14.2539 14.9073 14.2539 14.7392V13.8596C14.2539 13.7662 14.3291 13.6904 14.4218 13.6904Z" fill="black"/>
<path fill-rule="evenodd" clip-rule="evenodd" d="M4.86836 6.29688C4.82038 6.10094 4.96553 5.91113 5.16335 5.91113H10.8485C11.0463 5.91113 11.1915 6.10094 11.1435 6.29689C10.8693 7.41664 10.0368 8.30319 8.95714 8.63209V8.88023C8.95714 9.03439 8.83474 9.15935 8.68376 9.15935H7.32808C7.1771 9.15935 7.0547 9.03439 7.0547 8.88023V8.63209C5.97502 8.30319 5.14254 7.41664 4.86836 6.29688ZM7.35845 8.66967V8.84922H8.65339V8.66967H7.35845ZM8.78492 8.35954L8.80412 8.35419C9.81325 8.07319 10.5951 7.25774 10.8488 6.22167L5.16335 6.22126C5.41703 7.25734 6.19859 8.07319 7.20772 8.35419L7.22692 8.35954H8.78492Z" fill="black"/>
<path fill-rule="evenodd" clip-rule="evenodd" d="M7.90473 4.36199C7.60167 4.39005 7.32948 4.58303 7.19351 4.85733L7.14378 4.95767L7.03407 4.93922C6.6079 4.86757 6.27602 5.01032 6.05946 5.21894C5.83551 5.43469 5.74773 5.70548 5.78029 5.88043C5.79563 5.96287 5.74181 6.04224 5.66007 6.05771C5.57834 6.07319 5.49964 6.0189 5.4843 5.93647C5.4276 5.6318 5.57758 5.26313 5.85145 4.99929C6.11353 4.74682 6.50127 4.57595 6.97755 4.6252C7.17095 4.31134 7.50405 4.09406 7.8772 4.05952C8.27219 4.02296 8.69261 4.1921 9.02796 4.62587C9.48773 4.56577 9.86568 4.65055 10.1325 4.89725C10.4142 5.1577 10.538 5.56764 10.538 6.06829C10.538 6.15217 10.4706 6.22017 10.3874 6.22017C10.3042 6.22017 10.2368 6.15217 10.2368 6.0683C10.2368 5.60977 10.1228 5.30032 9.92902 5.12115C9.7379 4.94446 9.43526 4.86362 8.98563 4.93922L8.8925 4.95488L8.83796 4.87715C8.54767 4.46343 8.20076 4.33459 7.90473 4.36199Z" fill="black"/>
</svg>
