<svg width="109" height="73" viewBox="0 0 109 73" fill="none" xmlns="http://www.w3.org/2000/svg">
<g clip-path="url(#clip0_3307_76945)">
<path d="M23.3145 34.9395L23.5365 35.0684C23.5365 35.0067 23.4754 34.9563 23.3145 34.9395Z" fill="#2E2E2E"/>
<path d="M80.0312 34.8898C80.0312 34.8898 80.0707 34.8727 80.0876 34.8613C80.0481 34.8727 80.0369 34.8784 80.0312 34.8898Z" fill="#2E2E2E"/>
<path d="M32.0246 39.334H32.0133C32.0133 39.334 31.9739 39.3567 31.957 39.3681L32.0302 39.334H32.0246Z" fill="#2E2E2E"/>
<path d="M20.5931 38.9816C23.5906 39.1386 24.39 39.7497 27.4985 39.503C28.9807 39.5534 30.5627 39.4133 32.0115 39.3404C32.6999 38.8639 33.9155 39.3348 34.7315 38.9368L35.0479 39.2059C35.331 39.0713 35.6586 38.976 35.9417 39.1218L35.925 39.2003C36.3469 38.9984 36.8187 39.1162 37.0241 39.0153L37.0075 39.0937L37.5181 39.0601L37.4293 39.1722C38.1621 38.9592 38.9115 38.9424 39.5776 39.0433L39.5221 38.7181C40.9431 39.0825 41.4594 38.4098 42.7417 38.8415L42.725 38.92C44.3459 38.0622 45.284 39.503 46.9549 38.6901C46.7495 38.791 47.0437 38.8583 47.0271 38.9368C47.7931 38.8415 48.6147 38.7966 48.6258 38.1575C49.1864 38.1688 49.0809 38.3594 49.1531 38.606C49.1531 38.3257 49.636 38.208 50.0746 38.1912L49.8747 38.2977L51.1293 38.2024L50.885 37.6754C51.5511 37.8268 51.0516 38.3201 51.6899 38.1912V37.7539C52.6003 37.838 53.1387 38.5051 54.0269 38.8247C57.7239 39.0097 61.6984 37.8941 65.1345 38.6677L65.2844 38.9984C65.351 39.4806 66.2336 38.2865 66.3668 38.7294L66.7665 38.5107C66.8775 38.5948 67.1162 38.6901 66.9164 38.7966C67.2883 38.8134 67.2939 38.735 67.5603 38.5892L67.96 38.8863C69.4199 39.1162 70.6633 38.5388 72.1954 38.6565C74.0384 39.2675 77.5133 38.7069 79.5172 38.3818C82.3316 37.6642 85.6012 39.5759 88.4821 38.7574C88.5765 38.8247 88.8208 38.6733 88.8152 38.6172L91.4519 38.6845C91.4519 38.6845 104.23 38.8695 94.5217 34.8836L94.5883 34.7771C93.145 34.5249 92.2346 34.4688 91.241 34.9958C91.0856 34.3511 90.0531 34.9285 89.72 34.7211L89.7533 34.6706C88.8707 35.1695 87.9381 34.2558 87.0944 34.7042C87.1277 34.6538 87.1443 34.4744 87.3386 34.4632C86.7225 34.5473 85.8732 34.6874 85.8287 34.3118C84.3522 34.4127 82.2927 34.2389 81.3435 34.8388L81.4101 34.7323C80.8717 35.1359 80.7107 34.7939 80.1112 34.9958C80.0779 34.9453 80.0335 34.9229 80.0446 34.9005C79.4562 35.2985 78.3293 34.9621 77.8575 35.1359L77.8242 34.8836L76.6529 34.9397L77.0914 34.9958C76.9416 35.6797 76.2088 34.5641 75.3595 35.0126C74.5657 34.9285 73.7497 36.4421 72.9282 36.1057C72.534 36.4253 73.2723 35.5844 72.6895 35.8311C72.6728 35.4723 72.9615 35.6068 72.8116 35.3209C72.2343 35.4891 71.8679 34.9565 71.1518 35.1976L71.1241 34.9173C70.1971 35.4274 69.37 34.5529 68.7538 35.035C67.799 35.2648 68.1099 34.2053 67.1162 34.7547L66.7277 34.3791C66.3002 34.3174 66.4224 34.8388 65.9505 34.6594C65.9783 34.4239 65.351 34.4688 65.6286 34.2446C64.5572 33.8746 63.4581 34.7715 62.0481 34.1436C61.7428 34.6033 61.0323 34.3286 60.8047 34.6762C60.7659 34.4744 59.3837 34.6426 60.1774 34.2053C60.2441 34.1717 60.3662 34.1773 60.3606 34.2558L60.455 33.9811C59.6501 33.4653 58.9951 34.267 58.1957 34.1885C58.4289 34.2782 58.7453 34.2558 58.5343 34.4464L57.7961 34.4071L57.9515 34.1773L56.8524 34.0427L57.0023 34.3286C56.4638 34.1829 56.2751 33.6952 55.6645 34.1044C55.3869 34.3286 56.1752 34.4912 55.6034 34.5809C54.8818 34.3847 53.8049 34.0932 52.8834 34.0091C52.9667 34.3286 52.7224 34.3174 52.4671 34.3847L52.4393 34.1044C51.4623 34.4912 52.084 33.4877 51.1126 33.8017L51.1959 33.6055L50.9405 34.1885C50.069 34.7435 50.4687 33.6111 49.4973 34.3623C49.8803 34.3174 49.6805 34.9789 49.2031 34.8556L49.3252 34.5865C49.0643 34.6426 48.9755 34.7547 48.8034 34.6986C48.9588 34.5529 48.8867 34.3062 48.5036 34.3511L48.759 34.0147L48.0318 34.508C47.4711 34.2165 46.583 34.5809 46.3498 34.1997C46.3498 34.1997 45.1453 34.0147 44.8677 34.4296C45.112 34.1717 44.4458 34.0708 44.6346 33.768C44.3237 34.0596 43.3967 34.3006 43.0303 33.9867L43.1025 33.953C41.7369 33.6335 40.7655 34.3903 39.5387 34.0035C39.5942 34.3286 38.9448 34.1493 39.1057 34.5641C37.8346 34.9733 36.791 33.7232 36.3302 35.0014C35.7529 35.0686 35.6475 34.6986 35.3477 34.637L35.4865 34.5697C34.404 34.6762 34.0876 34.6874 33.2883 34.6594C32.8886 34.7827 32.822 35.377 32.1059 35.2368C32.339 35.0014 32.0448 35.0462 31.7728 35.0462C31.9449 35.007 32.0004 34.9229 31.6452 34.7659C31.5952 34.8388 31.5175 34.8836 31.4453 34.9229C31.4453 34.9061 31.4287 34.8892 31.4342 34.8668C30.9846 34.9509 31.0623 35.0238 31.2732 35.0574C31.2621 35.0911 31.2788 35.1415 31.3454 35.2032C30.8791 34.9005 30.0465 35.2256 29.991 34.8164C28.6421 34.9117 27.6762 35.3321 26.5549 35.4891C26.4272 35.2817 26.6936 35.0967 27.0156 35.0126L26.2163 35.0911C26.2218 34.7883 26.6714 34.9173 26.9212 34.8556C25.972 34.3679 24.9673 35.3377 23.8515 34.8948L23.6184 35.1303L23.5518 35.0911C23.5518 35.2144 23.3075 35.3882 23.141 35.4274C22.9856 35.1639 23.1521 34.822 22.6025 34.8388C22.1696 34.5865 21.3647 34.9677 20.7929 35.1079C21.0982 35.1527 21.0038 35.2985 20.8706 35.3882C20.5931 35.3994 20.4376 35.1359 20.2211 35.248L20.1934 34.8948C20.3044 35.2256 19.4718 35.2536 19.3718 35.3994C19.2164 35.1359 19.7993 35.1752 19.8659 34.9789C18.7612 35.0126 19.3163 34.9958 18.2117 35.0294C17.6233 35.2929 18.3171 35.3658 18.0396 35.6741C17.5178 35.7414 17.0126 35.988 16.4131 35.775L16.6019 36.0889C15.6249 36.33 15.042 36.2964 14.3815 35.9768C7.09851 38.5331 12.8494 39.4637 12.8494 39.4637C15.7137 40.1589 17.1958 39.2451 20.6097 38.9984L20.5931 38.9816Z" fill="#2E2E2E"/>
<path d="M14.8477 19.0487L15.1696 18.8749C15.1197 18.8413 15.0253 18.8749 14.8477 19.0487Z" fill="#2E2E2E"/>
<path d="M86.9121 14.0815C86.9403 14.0815 86.9684 14.0929 86.9966 14.0929C86.9403 14.0758 86.9177 14.0758 86.9121 14.0815Z" fill="#2E2E2E"/>
<path d="M27.0515 16.3455C27.0515 16.3455 27.0402 16.3455 27.0346 16.3455C27.0177 16.3683 26.9895 16.3796 26.9727 16.3967L27.0515 16.3398V16.3455Z" fill="#2E2E2E"/>
<path d="M16.0241 24.441C17.0066 22.8321 17.9003 22.0472 18.7663 21.2848C19.66 20.5392 20.5315 19.8104 22.0359 18.7061C23.5624 17.8035 25.2888 16.9121 27.0318 16.3571C27.3815 15.9983 27.9866 15.8806 28.5916 15.7349C29.2189 15.634 29.8573 15.5218 30.3569 15.2584L30.8009 15.477C31.1451 15.3032 31.5614 15.1406 31.9444 15.264L31.9278 15.3424C32.4551 15.1014 33.088 15.1799 33.3544 15.0565L33.3378 15.135C33.3711 15.1294 33.4932 15.1238 33.5931 15.1182L33.8984 15.1014L34.509 15.0678L34.3203 15.1855C34.7588 15.1238 35.1863 15.0678 35.6137 15.0285L36.252 14.9781L36.5685 14.9556C36.6351 14.9724 36.6462 14.8996 36.6739 14.8491L36.7516 14.6921C37.1735 13.8793 37.5954 13.0776 38.0506 12.4049L37.7397 12.2928C38.0561 11.9844 38.256 11.6873 38.4447 11.4238C38.639 11.166 38.7889 10.9193 38.9332 10.6726C39.0775 10.426 39.2607 10.2129 39.4661 9.9831C39.6659 9.75326 39.9435 9.55144 40.3043 9.37205L40.3432 9.44493C40.5485 8.94039 40.8761 8.61524 41.2091 8.35736C41.5366 8.08267 41.9307 7.95373 42.2971 7.79116C43.0576 7.48843 43.8125 7.26419 44.6063 6.46253C44.4121 6.66995 44.7729 6.56905 44.784 6.65314C45.217 6.44571 45.661 6.21026 45.9941 5.99723C46.3272 5.78421 46.5326 5.53754 46.4493 5.22921C47.1487 5.01618 47.0766 5.26845 47.2264 5.47027C47.1487 5.20679 47.7316 4.92088 48.2922 4.79194L48.0535 4.94891C48.5864 4.82558 49.1082 4.66861 49.6522 4.57331L49.2526 4.09119C50.1574 4.13043 49.5634 4.70225 50.3794 4.46679L50.3239 4.03513C50.9401 4.0071 51.4452 4.18089 51.9226 4.36028C52.4055 4.57891 52.8718 4.79755 53.438 4.97694C54.6259 5.04421 55.825 5.14512 57.0351 5.27406C58.2397 5.44224 59.4554 5.63845 60.6266 5.97481C62.9581 6.63632 65.1785 7.79676 66.5329 9.52341L66.4607 9.89341C66.3331 10.1008 66.6717 10.1457 66.9992 10.2354C67.3323 10.3195 67.6931 10.4148 67.5876 10.6278C67.7597 10.6895 67.9151 10.7736 68.0761 10.852C68.1039 11.0146 68.2204 11.3005 67.9817 11.1828C68.2537 11.5472 68.337 11.4911 68.6423 11.6705L68.6812 12.2423C68.7311 12.3432 68.7866 12.4385 68.8421 12.5282L68.992 12.7805L69.1697 13.0944C69.3861 13.4813 69.6137 13.8569 69.8358 14.2269L70.1744 14.765C70.2077 14.8043 70.2243 14.8715 70.2688 14.8828H70.4297L70.7517 14.8659C71.1736 14.8491 71.5955 14.8323 72.0173 14.8099C72.639 14.7875 73.2663 14.7594 73.9047 14.737C74.3765 14.737 74.8706 14.7538 75.3757 14.8379C76.5692 15.264 78.29 15.5162 80.033 15.8358C81.7705 16.1497 83.5302 16.5365 84.7847 16.9346C86.6221 17.3494 88.243 18.6724 89.5308 20.1468C90.8575 21.6212 91.7957 23.2301 93.0668 24.5531C93.0668 24.6877 93.361 24.8727 93.4054 24.8446C93.9106 25.8425 94.3824 26.8572 94.7044 27.9447C94.7044 27.9447 94.7877 28.1858 94.9264 28.5894C95.0319 29.0043 95.2262 29.5649 95.3927 30.2264C95.7535 31.5438 96.0533 33.2256 96.3697 34.543C96.6528 35.8604 97.0081 36.8078 97.541 36.578C97.8074 36.4603 98.1127 36.0454 98.4624 35.1989C98.6456 34.7729 98.8066 34.2459 98.9676 33.5844C99.0453 33.2536 99.1397 32.8892 99.2007 32.4968C99.2618 32.0988 99.3228 31.6671 99.3784 31.1962L99.4949 31.2747C99.4949 30.7253 99.4228 30.232 99.3673 29.7667C99.3062 29.307 99.234 28.8866 99.1064 28.4941C98.9898 28.1017 98.851 27.7373 98.69 27.3954C98.5068 27.0534 98.2959 26.7339 98.0461 26.4199C98.5901 25.9546 97.441 24.7045 97.4022 24.1607L97.4744 24.1831C96.9415 23.6898 96.7361 23.0171 96.453 22.3724C96.2032 21.7109 95.8812 21.0718 95.3206 20.6682C95.3927 20.6794 95.5481 20.5953 95.7313 20.8419C95.4316 20.4607 95.0208 20.0515 94.7321 19.6983C94.449 19.3339 94.2548 19.0424 94.3658 18.891C93.5553 18.0501 92.545 17.0915 91.5181 16.3347C90.4801 15.5947 89.442 15.0453 88.6704 14.9556L88.8092 14.9164C87.9044 14.8603 87.86 14.4399 86.9551 14.2212C86.9329 14.154 86.8885 14.1035 86.9052 14.0867C85.9504 14.0587 84.5405 13.1113 83.8077 13.0664L83.8466 12.8141C83.2915 12.6347 82.7308 12.4946 82.1757 12.3488L82.7808 12.5843C82.3811 13.1785 81.6428 11.7826 80.3106 11.9452C79.1671 11.5976 77.7626 12.887 76.6635 12.4161C76.0696 12.6628 77.2186 11.962 76.3527 12.0966C76.3638 11.7378 76.769 11.9228 76.5858 11.6145C75.7421 11.6873 75.2536 11.0987 74.2044 11.2725L74.1767 10.9922C74.0046 11.0482 73.8325 11.0819 73.6715 11.0987C73.5883 11.1099 73.505 11.1099 73.4273 11.1099H73.2719C73.0998 11.1043 72.9166 11.0482 72.8056 10.9978C72.7501 10.9754 72.6946 10.9529 72.639 10.9305C72.5891 10.9081 72.5225 10.9193 72.5114 10.8464C72.4559 10.7455 72.3837 10.6895 72.2449 10.6895C72.1839 10.639 72.1395 10.5829 72.1117 10.5269C72.095 10.4933 72.095 10.482 72.1117 10.482C72.1173 10.482 72.0784 10.3979 72.0673 10.3587C72.0062 10.1737 72.0118 10.0167 72.0062 9.85977C71.984 9.56265 71.9563 9.22069 71.2346 8.80024L71.1236 8.08267C70.7239 7.51646 70.4575 8.03782 70.0745 7.37631C70.2743 7.24177 69.536 6.56905 70.0023 6.7148C69.4916 6.00284 68.7422 5.52072 67.9318 5.06664C67.1213 4.60134 66.2776 4.13604 65.4505 3.33999C64.8288 3.49695 63.9461 2.81863 63.4909 2.9756C63.5187 2.76817 61.4815 2.1403 62.7749 2.18515C62.8859 2.19076 63.058 2.26924 63.0191 2.33651L63.2578 2.1347C62.7693 1.65258 62.1976 1.51243 61.6202 1.46197C61.0429 1.3947 60.4545 1.41713 59.8717 1.22652C60.1992 1.40591 60.671 1.51243 60.3102 1.60773L59.2278 1.28258C59.3221 1.22092 59.4165 1.17046 59.5109 1.1144C58.9724 0.93501 58.4229 0.789254 57.8789 0.62668L58.0565 0.957434C57.2793 0.671528 57.0407 0.138957 56.0637 0.430469C55.6251 0.615468 56.7909 0.884556 55.9249 0.895768C54.8647 0.57062 53.2215 0.211835 51.7949 0.178199C51.9393 0.492136 51.5618 0.497742 51.1788 0.593044L51.1177 0.318349C49.6522 0.817284 50.5071 -0.264675 49.0361 0.223047L49.1415 0.015625L48.8307 0.643498C48.209 1.03031 48.0147 0.923798 47.7926 0.845314C47.5761 0.772436 47.3263 0.699558 46.6824 1.25455C47.2486 1.06395 47.0877 1.78712 46.3716 1.84318L46.4826 1.54046C46.1107 1.69743 46.0108 1.82637 45.7388 1.8544C45.9275 1.64137 45.7554 1.43955 45.2003 1.66379L45.489 1.22092L44.5564 2.03379C44.1012 2.03379 43.5794 2.26924 43.1187 2.45424C42.6579 2.65605 42.2694 2.84666 42.0196 2.75136C42.0196 2.75136 41.5644 2.89711 41.1036 3.17181C40.6374 3.43529 40.1489 3.77165 40.0823 4.07998C40.271 3.64832 39.3273 4.14725 39.4161 3.7268C39.1275 4.23134 38.1005 5.3077 37.4511 5.47588L37.5121 5.36936C37.0514 5.6889 36.6406 6.01966 36.3076 6.39526C35.98 6.77647 35.6914 7.15768 35.4194 7.53889C35.1696 7.93691 34.9253 8.32933 34.6478 8.71054C34.3869 9.10296 34.1205 9.48978 33.7596 9.87098C33.7985 9.8822 33.8262 9.90462 33.8373 9.93265V9.95507L33.8485 9.96629L33.8818 9.92704C33.9206 9.89341 33.904 9.92704 33.9151 9.92704C33.9373 9.96068 33.9428 9.99432 33.9484 10.028C33.965 10.0952 33.9872 10.1849 34.1538 10.3026C34.1538 10.4092 34.1371 10.4989 34.1038 10.5773C34.0871 10.6166 34.0705 10.6502 34.0483 10.6726C33.9983 10.6726 33.9484 10.6614 33.904 10.6558C33.7097 10.6222 33.5265 10.5493 33.3877 10.4989C33.3156 10.4764 33.2545 10.4596 33.199 10.454C33.0658 10.454 32.8992 10.482 32.7716 10.5269C32.5051 10.6166 32.2942 10.7904 32.1498 11.1211C31.3116 11.2445 31.1229 10.9025 30.6733 10.8913L30.8675 10.8016C29.28 11.0875 28.8248 11.2052 27.6368 11.3958C27.0762 11.6593 27.1151 12.2423 26.0604 12.3713C26.3324 12.0461 25.9216 12.2087 25.5386 12.3264C25.7717 12.2199 25.8272 12.1078 25.2777 12.1078C25.2277 12.1975 25.1278 12.276 25.039 12.3432C25.0279 12.3264 25.0057 12.3208 25.0057 12.2928C24.3839 12.5675 24.5283 12.6123 24.828 12.545C24.828 12.5843 24.8613 12.6179 24.9724 12.6572C24.2174 12.5843 23.1572 13.3243 22.9351 12.9991C21.0755 13.8905 19.9986 15.0005 18.7496 16.1105C18.4721 16.0488 18.6886 15.6732 19.0494 15.32C18.733 15.5779 18.4055 15.8134 18.1113 16.0937C17.9336 15.8414 18.5665 15.5274 18.844 15.2696C18.1002 15.477 17.5728 16.06 17.0566 16.6599C16.8068 16.9738 16.5514 17.2821 16.2739 17.5848C16.0074 17.8932 15.6966 18.1735 15.3247 18.4089L15.2692 18.835L15.1748 18.8854C15.2692 18.9639 15.1581 19.362 15.0305 19.575C14.6807 19.5918 14.5753 19.177 14.0757 19.8665C13.454 20.2477 13.0932 21.5147 12.7934 22.3331C13.0654 21.9519 13.1154 22.1594 13.0932 22.3724C12.8878 22.7312 12.5658 22.8265 12.5103 23.1628L12.1828 23.0339C12.3715 23.0339 12.316 23.3198 12.2438 23.6281C12.1717 23.9365 12.0662 24.2728 12.0995 24.3737C11.7665 24.4802 12.1606 23.6954 12.0329 23.516C11.3723 25.0577 11.6832 24.284 11.1114 25.8481C11.067 26.7731 11.4778 25.8089 11.6277 26.3134C11.4334 27.059 11.4556 27.8326 11.0393 28.6231L11.4112 28.4381C11.2891 29.8676 11.1114 30.6637 10.6562 31.5606C10.906 34.2571 11.4667 35.6698 11.8941 36.3425C12.3327 37.0153 12.6879 36.976 12.9599 36.6004C13.2375 36.2472 13.4429 35.6082 13.5927 35.0588C13.7537 34.5094 13.8425 34.0553 13.8425 34.0553C14.3421 32.239 14.5309 30.8991 14.7307 29.4416C14.9361 27.9952 15.1415 26.4143 16.0463 24.4634L16.0241 24.441Z" fill="#2E2E2E"/>
<path d="M1.04394 43.0502C1.04394 43.0502 1.02116 43.0213 1.00977 43.0098C1.02685 43.0386 1.03825 43.0502 1.04394 43.0502Z" fill="#2E2E2E"/>
<path d="M30.7612 76.023C29.7787 75.4848 29.1958 75.0644 28.6352 74.6047C28.069 74.1506 27.4584 73.7862 26.4203 73.3153C25.4933 72.7547 24.4553 72.239 23.5227 71.7176C22.8455 71.8129 22.3681 70.9272 21.6631 70.8823L21.6409 70.5235C21.3966 70.5067 21.1469 70.4282 21.0747 70.1872L21.1302 70.1311C20.7638 70.1031 20.564 69.7891 20.3753 69.7779L20.4363 69.7275L20.131 69.5088L20.2476 69.464C19.7036 69.279 19.2706 68.9202 18.9597 68.5278L18.7766 68.7969C18.2603 67.8046 17.4998 68.0457 17.1279 67.0478L17.1945 67.003C16.4784 66.8684 16.2397 66.4255 16.0233 65.9658C15.8123 65.5005 15.618 65.0353 14.8964 64.839C15.074 64.8895 14.9797 64.6821 15.0463 64.6372C14.6133 64.256 14.197 63.8075 13.6974 64.2C13.4365 63.8636 13.6363 63.8075 13.7917 63.6113C13.5752 63.7907 13.2533 63.5721 13.0479 63.3142L13.2255 63.3703L12.5872 62.6639L12.2763 63.1292C12.0931 62.6303 12.7148 62.6415 12.3263 62.3332L11.9766 62.5966C11.6379 61.9688 11.9599 61.2456 11.8489 60.5224C11.1772 59.3115 10.2446 58.2071 9.45083 57.0131C8.63483 55.8358 7.97981 54.5744 7.81883 53.229L8.07418 52.9992C8.49051 52.7749 7.15826 52.6067 7.53018 52.3489L7.21932 52.147C7.26928 52.0349 7.28593 51.8387 7.44136 51.9396C7.3581 51.6761 7.28038 51.6986 7.07499 51.5584L7.25263 51.1716C7.0972 50.0672 6.25899 49.3665 6.03695 48.2116C6.20348 46.7148 5.07662 44.3379 4.51597 42.8803C4.20511 42.2973 4.11629 41.6414 4.14405 40.9631C4.14405 40.6267 4.19401 40.2791 4.23842 39.9372C4.26062 39.7241 4.29948 39.6905 4.33278 39.6288C4.37164 39.5728 4.40495 39.5223 4.44381 39.4775C4.63254 39.2252 4.75466 39.2028 4.76021 38.7823C4.82127 38.844 4.78242 38.6814 4.75466 38.6254C4.87679 38.6254 4.99336 38.6422 5.10438 38.6478L5.27091 38.6646H5.30977L5.33197 38.6702H5.39303L5.64838 38.6814C5.64838 38.6814 15.6291 38.8664 8.04642 34.8805L8.09638 34.774C6.96952 34.5218 6.25899 34.4657 5.48185 34.9927C5.43744 34.8301 5.40413 34.746 5.25426 34.7068C5.09883 34.6675 4.89899 34.6731 4.7047 34.6899C4.30503 34.7236 3.91091 34.8189 3.67776 34.7404L3.69997 34.6843C3.25033 34.9814 2.75074 34.9646 2.20674 35.1272C1.67939 35.2674 1.16315 35.5701 1.02992 36.1195C1.01882 36.0578 0.885595 35.9233 1.03547 35.7327C0.80788 36.0466 0.613594 36.4558 0.485921 36.7866C0.347145 37.1117 0.252778 37.3472 0.0640425 37.2967C0.0140833 37.706 0.0251853 38.1769 -0.0136719 38.6422C0.0251853 39.0794 0.0529405 39.5335 0.1029 39.9596C0.130655 40.2119 0.147308 40.2791 0.169512 40.4249C0.191716 40.5538 0.21392 40.6828 0.241675 40.8061C0.352696 41.2994 0.53588 41.7255 0.802329 41.9946L0.691309 41.9553C1.14094 42.3365 0.830085 42.5103 1.10764 42.97C1.06323 43.0036 1.04657 43.0429 1.02437 43.0429C1.48511 43.4521 1.32968 44.4051 1.56837 44.7527L1.32968 44.8256C1.40739 45.1339 1.49621 45.4423 1.58502 45.745L1.55727 45.3862C2.25115 45.3582 1.29082 46.1823 1.87923 46.7597C1.96249 47.4156 3.55564 47.6622 3.42242 48.3742C3.81654 48.5872 2.85066 48.2509 3.21148 48.6377C2.87286 48.7498 2.93948 48.4863 2.70078 48.6825C2.99499 49.0806 2.55645 49.5234 2.96723 50.0055L2.71188 50.1121C3.41686 50.6727 2.8007 51.5864 3.43352 51.9004C3.91091 52.5507 2.82846 52.6852 3.6278 53.2514L3.39466 53.6831C3.46682 54.0307 3.91091 53.7448 3.88315 54.1708C3.65556 54.2381 3.8887 54.6978 3.60005 54.5744C3.61115 55.5387 4.76576 56.0096 4.71025 57.3158C5.23205 57.3438 5.23205 57.9941 5.63173 57.9997C5.46519 58.1174 6.14242 59.048 5.45409 58.6724C5.39858 58.6388 5.35417 58.5491 5.42634 58.5155L5.14879 58.5715C5.01001 59.4012 5.94813 59.5189 6.20903 60.1244C6.19238 59.9114 6.0425 59.6983 6.2923 59.7544L6.55875 60.3038H6.29785L6.63091 61.1671L6.81409 60.9148C6.90291 61.3745 6.5865 61.7613 7.19156 61.98C7.50242 62.0529 7.29148 61.4194 7.61344 61.7726C7.68561 62.0753 7.77997 62.4565 7.89655 62.8489C8.02422 63.2357 8.17965 63.6281 8.35728 63.9701C8.57932 63.7291 8.68479 63.9028 8.85687 64.043L8.64593 64.2224C9.41198 64.6653 8.31842 64.8222 9.04006 65.2987L8.84022 65.3548L9.43418 65.181C10.3001 65.4277 9.20659 65.8481 10.2835 66.0331C10.0559 65.8089 10.6721 65.5454 10.8164 65.9154L10.5444 66.0051C10.722 66.1396 10.8552 66.1228 10.8997 66.2686C10.7054 66.2574 10.5555 66.4592 10.7886 66.6778L10.3945 66.7227L11.155 66.8796C11.2161 67.429 11.971 67.7542 11.8156 68.141C11.8156 68.141 12.3429 69.0155 12.7926 68.909C12.4706 68.937 12.7648 69.4135 12.4428 69.5032C12.837 69.492 13.5364 69.8788 13.5308 70.3161L13.4642 70.2993C13.7418 70.8263 14.1692 71.0897 14.5855 71.3364C14.9963 71.5887 15.3849 71.8353 15.6347 72.3231C15.8123 72.054 16.101 72.5361 16.273 72.1381C17.3166 72.5024 17.189 74.0385 18.2825 73.2593C18.6933 73.4947 18.5379 73.8367 18.6933 74.0441L18.5656 74.0273C19.3261 74.4982 19.5426 74.6271 20.0644 75.0308C20.403 75.1205 20.7805 74.6608 21.1746 75.1092C20.8915 75.1989 21.108 75.2998 21.2856 75.4232C21.1524 75.3727 21.0636 75.4232 21.219 75.7147C21.2912 75.6754 21.3689 75.6698 21.4411 75.6698C21.4355 75.6867 21.4355 75.7035 21.4133 75.7203C21.7686 75.8436 21.7519 75.7483 21.6298 75.6306C21.6575 75.6026 21.6686 75.5577 21.6631 75.4736C21.8185 75.9333 22.5624 76.0174 22.3847 76.3874C23.3562 76.9144 24.2665 76.8976 25.1103 77.2115C25.0992 77.4469 24.8327 77.503 24.5607 77.4469L25.1602 77.6992C25.0159 77.9627 24.755 77.6712 24.5552 77.6207C24.9937 78.4504 26.1816 77.9235 26.7811 78.7307L27.0476 78.6018L27.0809 78.6635C27.1309 78.5457 27.3807 78.4897 27.5194 78.5009C27.525 78.7868 27.2585 79.0447 27.6749 79.2128C27.8969 79.5884 28.6463 79.5044 29.1181 79.5604C28.9072 79.4203 29.0404 79.3194 29.1681 79.2745C29.3735 79.353 29.3901 79.6501 29.59 79.6109L29.4789 79.9472C29.5234 79.6053 30.1506 79.8239 30.2783 79.7174C30.3005 80.0089 29.8786 79.8015 29.7509 79.964C30.5947 80.2556 30.1728 80.1098 31.0166 80.4013C31.5495 80.3228 31.0499 80.0593 31.3663 79.8463C31.7771 79.936 32.2323 79.8407 32.6153 80.1827L32.5709 79.8407C33.3813 79.8519 33.7976 80.0313 34.2029 80.4966C35.7683 80.2892 36.6509 79.964 37.1172 79.6333C37.5835 79.2969 37.6501 78.9438 37.5113 78.6242C37.2615 77.9795 36.3012 77.4694 36.3012 77.4694C34.4638 76.2248 33.187 76.7462 30.7224 76.023H30.7612Z" fill="#2E2E2E"/>
<path d="M104.684 42.5085C104.684 42.5085 104.672 42.4728 104.66 42.4609C104.666 42.4906 104.672 42.5025 104.684 42.5085Z" fill="#2E2E2E"/>
<path d="M80.0747 80.468C81.2293 80.0307 82.0342 79.9242 82.8002 79.6775C83.5718 79.4365 84.3601 79.1842 85.4203 78.4162C86.5305 77.8668 87.5686 77.0203 88.5344 76.3027C88.7343 75.5796 89.8334 75.3946 90.1387 74.6602L90.5051 74.7162C90.6105 74.464 90.766 74.2229 91.038 74.1949L91.0713 74.2677C91.2211 73.8921 91.6042 73.7464 91.6763 73.5614L91.7152 73.6287L92.0149 73.3259L92.0316 73.4605C92.3535 72.8999 92.8143 72.485 93.2972 72.1991L93.0474 71.9861C94.141 71.4479 94.0078 70.6799 95.0458 70.237L95.0902 70.3043C95.2512 69.5195 95.7175 69.2504 96.1949 68.9645C96.6556 68.6673 97.133 68.3646 97.2829 67.5798C97.244 67.776 97.4549 67.6358 97.5105 67.6975C97.8435 67.1481 98.2265 66.5875 97.7436 66.1783C98.0378 65.8307 98.1322 66.0157 98.3598 66.1222C98.1433 65.9484 98.2987 65.5728 98.493 65.2701L98.4819 65.4663L99.0148 64.5862L98.4763 64.4348C98.9149 64.0928 99.0703 64.7095 99.2757 64.2162L98.9204 63.9639C99.4145 63.4089 100.192 63.4201 100.874 62.9941C101.779 61.7608 102.401 60.2808 102.967 58.84C103.561 57.4049 104.094 55.9978 104.999 54.8541L105.349 54.8654C105.815 54.9999 104.988 53.8675 105.432 53.9404L105.349 53.5536C105.46 53.4975 105.615 53.3517 105.659 53.5423C105.787 53.2677 105.72 53.2284 105.659 52.9761L106.048 52.7743C106.675 51.7204 106.459 50.5656 106.925 49.3939C107.963 48.1157 108.085 45.1558 108.019 43.4964C107.924 42.79 108.052 42.1005 108.241 41.3941C108.352 41.0409 108.463 40.6878 108.574 40.3234C108.629 40.1832 108.707 39.8637 108.768 39.5722L108.951 38.664C108.979 38.2548 109.001 37.8343 109.001 37.4139C108.962 37.0214 108.846 36.629 108.657 36.2815C108.291 35.5751 107.636 35.0313 106.886 34.8519C106.82 34.7398 106.464 34.7566 106.442 34.8127C105.965 34.6277 105.443 34.5324 104.866 34.5156L103.356 34.4819C103.356 34.4819 93.3749 34.2913 100.958 38.2772L100.908 38.3837C102.035 38.6416 102.745 38.6976 103.522 38.1707C103.539 38.3332 103.65 38.4173 103.694 38.4566C103.733 38.4958 103.772 38.4902 103.828 38.4734C103.922 38.4342 104.066 38.3445 104.083 38.4454L104.055 38.4958C104.272 38.2492 104.421 38.3445 104.466 38.5014C104.527 38.6584 104.494 38.8154 104.771 38.7425C104.716 38.7761 104.555 38.9051 104.51 38.877C104.699 38.9051 104.877 39.1069 104.483 39.2807C104.505 39.3367 104.505 39.4096 104.505 39.4825V39.6955C104.505 39.6955 104.505 39.8805 104.499 39.987C104.499 40.1047 104.499 40.2225 104.499 40.3346C104.51 40.7943 104.566 41.2091 104.76 41.5175L104.666 41.4558C105.015 41.9155 104.649 41.9884 104.777 42.4705C104.727 42.4873 104.693 42.5153 104.677 42.5041C105.004 43.0143 104.51 43.7991 104.61 44.1859L104.366 44.1579C104.333 44.455 104.283 44.7465 104.238 45.038L104.36 44.7241C104.999 44.982 103.8 45.2903 104.083 46.0135C103.85 46.5685 105.154 47.5776 104.649 48.1101C104.871 48.4913 104.227 47.7065 104.338 48.2166C103.994 48.1325 104.183 47.9532 103.877 47.9868C103.911 48.4633 103.339 48.581 103.4 49.1697L103.128 49.108C103.395 49.9433 102.379 50.2628 102.667 50.8571C102.629 51.6251 101.746 51.0365 101.979 51.9278L101.524 52.0624C101.352 52.3371 101.862 52.4492 101.568 52.7127C101.357 52.6005 101.23 53.0602 101.102 52.7799C100.447 53.363 100.947 54.5066 99.9196 55.1905C100.23 55.5997 99.7642 55.9641 99.9862 56.2669C99.7975 56.1996 99.4644 57.2031 99.3534 56.4687C99.3478 56.407 99.3923 56.3285 99.4589 56.3734L99.2479 56.1828C98.5152 56.4687 99.0092 57.2872 98.6318 57.7637C98.7983 57.6572 98.8927 57.4385 98.9759 57.6684L98.6706 58.1337L98.5263 57.9206L98.0045 58.5653L98.3043 58.6102C97.9823 58.8905 97.4883 58.7503 97.5993 59.3446C97.6825 59.6417 98.1266 59.2212 97.9767 59.6305C97.7547 59.8099 97.4716 60.0285 97.194 60.2752C96.9054 60.5106 96.6223 60.7629 96.3947 61.0208C96.6945 61.1497 96.5779 61.2955 96.5279 61.4917L96.2892 61.3515C96.1949 62.1756 95.6453 61.217 95.4732 61.9738L95.3567 61.8056L95.7119 62.3045C95.7619 63.1623 95.0514 62.2373 95.2123 63.2744C95.3456 63.0165 95.7841 63.5491 95.4621 63.7509L95.3067 63.5154C95.229 63.7004 95.2734 63.8238 95.1457 63.891C95.1069 63.7116 94.8793 63.5995 94.7349 63.8518L94.5962 63.493L94.6406 64.2274C94.1632 64.3731 94.0078 65.1131 93.6025 64.9898C93.6025 64.9898 92.8753 65.5336 93.0419 65.9709C92.9753 65.6625 92.5756 65.9653 92.4479 65.6513C92.5034 66.0157 92.1926 66.6772 91.7873 66.6548L91.7984 66.5931C91.3433 66.851 91.1157 67.2266 90.8714 67.5798C90.6383 67.9386 90.4051 68.2917 89.9444 68.4543C90.1886 68.6673 89.7113 68.8523 90.0721 69.0822C89.6113 70.0184 88.2402 69.5587 88.7565 70.7584C88.4567 71.0835 88.1681 70.8369 87.9516 70.9266L87.9904 70.8088C87.4187 71.3975 87.23 71.5376 86.7193 71.8572C86.5472 72.1319 86.8414 72.6476 86.314 72.8438C86.3251 72.5467 86.1697 72.7093 86.0032 72.827C86.0864 72.7205 86.0753 72.6308 85.77 72.642C85.7811 72.7205 85.7534 72.7934 85.7312 72.8494C85.7201 72.8326 85.7034 72.827 85.6923 72.8046C85.4536 73.0568 85.5424 73.0849 85.6923 73.0288C85.7034 73.0625 85.7423 73.0961 85.82 73.1241C85.3593 73.0569 84.9984 73.6679 84.7486 73.3484C83.9548 73.9874 83.4997 74.6714 82.8335 75.2488C82.6504 75.1143 82.7392 74.8508 82.9168 74.6602L82.4283 75.0246C82.2951 74.7555 82.6503 74.6994 82.778 74.5593C81.9454 74.4976 81.69 75.6693 80.7464 75.658L80.6908 75.9495L80.6298 75.9383C80.6853 76.0505 80.5909 76.2971 80.491 76.3812C80.2745 76.1906 80.2468 75.8318 79.8748 76.0112C79.4752 75.9159 79.0755 76.5045 78.7313 76.8073C78.9589 76.7512 78.9478 76.9194 78.8923 77.0427C78.7036 77.1324 78.4982 76.9474 78.3872 77.11L78.2373 76.7904C78.4371 77.0707 77.8598 77.3174 77.8432 77.48C77.6378 77.2782 78.0652 77.1548 78.043 76.953C77.277 77.2838 77.66 77.1212 76.8884 77.452C76.5609 77.8612 77.0771 77.7379 76.9827 78.1023C76.6386 78.3153 76.3499 78.6797 75.8392 78.618L76.0779 78.8703C75.4396 79.3356 74.9899 79.4477 74.4126 79.3019C73.2469 80.3054 72.6085 81.0286 72.3476 81.5668C72.0867 82.0993 72.1978 82.4357 72.4642 82.6543C73.0082 83.0804 74.2072 82.9851 74.2072 82.9851C76.6774 82.9963 77.5878 81.7181 80.0802 80.4568L80.0747 80.468Z" fill="#2E2E2E"/>
</g>
<defs>
<clipPath id="clip0_3307_76945">
<rect width="109" height="92.443" fill="white"/>
</clipPath>
</defs>
</svg>
