<svg width="32" height="32" viewBox="0 0 32 32" fill="none" xmlns="http://www.w3.org/2000/svg">
<path d="M6.25 13.75C6.25 8.36521 10.6152 4 16 4C21.3847 4 25.7499 8.36521 25.7499 13.75V16.2H23.7499V13.75C23.7499 9.46978 20.2802 6 16 6C11.7198 6 8.25 9.46978 8.25 13.75V16.2H6.25V13.75Z" fill="#1F1F1F"/>
<path d="M25.7516 15.3996V21.9999C25.7516 24.7613 23.5131 26.9999 20.7517 26.9999L19.252 27V24.9998H20.752C22.4088 24.9998 23.752 23.6566 23.752 21.9998V15.3998L25.7516 15.3996Z" fill="#1F1F1F"/>
<path d="M14.25 26C14.25 24.8954 15.1454 24 16.25 24H17.25C18.3546 24 19.25 24.8954 19.25 26V26C19.25 27.1046 18.3546 28 17.25 28H16.25C15.1454 28 14.25 27.1046 14.25 26V26Z" stroke="#1F1F1F" stroke-width="2"/>
<path d="M24.75 14H27.25C27.8023 14 28.25 14.4477 28.25 15V20C28.25 20.5523 27.8023 21 27.25 21H24.75V14Z" stroke="#1F1F1F" stroke-width="2"/>
<path d="M7.25 14H4.75C4.19772 14 3.75 14.4477 3.75 15V20C3.75 20.5523 4.19772 21 4.75 21H6.25C6.80228 21 7.25 20.5523 7.25 20V14Z" stroke="#1F1F1F" stroke-width="2"/>
</svg>
