<svg width="40" height="40" viewBox="0 0 40 40" fill="none" xmlns="http://www.w3.org/2000/svg">
<path d="M24.9995 30.5C32.1038 28.6779 34.4848 23.8872 34.9309 19.1998C34.9846 18.6355 34.5282 18.1642 33.9613 18.1639L32.5109 18.1632L19.9999 18.164L7.48886 18.1632L6.03842 18.1639C5.47155 18.1642 5.01509 18.6355 5.06867 19.1999C5.5137 23.8872 7.88631 28.6779 14.9906 30.5L14.9954 31.793C14.9954 32.6436 15.6676 33.3332 16.4967 33.3332H19.9999H23.503C24.3321 33.3332 25.0043 32.6436 25.0043 31.793L24.9995 30.5Z" fill="white"/>
<path d="M32.0566 14.585C31.2791 10.4353 26.8579 9.53462 24.8978 9.53456C23.9931 7.78139 22.0208 6.80712 19.9999 6.68066C17.9791 6.80712 16.0066 7.78139 15.1019 9.53456C13.1418 9.53462 8.72059 10.4353 7.94317 14.585C7.83883 15.142 8.30132 15.6173 8.86798 15.6173L19.9999 15.6174L31.1318 15.6173C31.6984 15.6173 32.1609 15.142 32.0566 14.585Z" fill="white"/>
</svg>
