<svg width="71" height="71" viewBox="0 0 71 71" fill="none" xmlns="http://www.w3.org/2000/svg">
<path d="M4.98047 35.1557C5.03047 35.0557 5.09046 34.9457 5.16046 34.8457C5.14046 34.8457 5.08047 34.9157 4.98047 35.1557Z" fill="#8E8E8E"/>
<path d="M36.4206 36.2051L36.3906 36.2751L36.4206 36.2051Z" fill="#8E8E8E"/>
<path d="M15.3615 28.0666H15.3415L15.2715 28.1066L15.3615 28.0566V28.0666Z" fill="#8E8E8E"/>
<path d="M5.75111 39.2458C5.70111 37.2158 6.24113 36.0058 6.83113 34.8958C7.49113 33.8058 8.27113 32.7358 9.89113 31.3258C11.4911 30.0358 13.4511 28.9058 15.3411 28.0658C16.1811 27.5058 17.8811 27.0558 18.9611 26.5658L19.4211 26.5158C19.7911 26.3458 20.2411 26.1858 20.6511 26.1258L20.6311 26.1558C21.1911 25.9158 21.8711 25.7958 22.1611 25.6958L22.1411 25.7258L22.8611 25.5458L22.7511 25.6158C23.5011 25.3858 24.2211 25.1958 25.0111 25.0158C25.5211 24.9158 25.9511 24.6058 26.2111 24.1958C26.1511 24.2158 26.0911 24.2358 26.0411 24.2458C26.1811 24.0758 26.2711 23.8758 26.3311 23.6758C26.3711 23.5658 26.4111 23.4558 26.4411 23.3458C26.5111 23.1458 26.5811 22.9558 26.6411 22.7758C26.7711 22.4258 26.8911 22.1158 27.0011 21.8058C27.2411 21.1958 27.5111 20.6158 28.0511 19.8958V19.9358C28.5411 18.8958 29.1511 18.2058 29.8111 17.5758C30.4711 16.9458 31.1611 16.3558 32.0111 15.5258C31.8011 15.7358 32.1511 15.4958 32.1511 15.5258C32.9911 14.8358 33.9911 14.2358 33.8911 14.0358C34.5911 13.6358 34.5011 13.7858 34.6311 13.8058C34.5811 13.7158 35.1711 13.3558 35.7411 13.0958L35.4911 13.2458C36.0311 12.9858 36.5811 12.7458 37.1311 12.5258L36.7311 12.4758C37.6511 12.1958 37.0311 12.5958 37.8911 12.2658L37.8311 12.1158C39.1111 11.7558 39.9311 11.8258 41.1811 11.7858C42.4711 11.6558 43.7911 11.6358 45.0611 11.8758C46.3111 12.1158 47.5311 12.6058 48.3211 13.4858C49.0811 14.4358 49.7111 15.6758 50.0011 16.8758C50.3011 18.0958 50.2911 19.3458 50.0011 20.4858L49.8411 20.6658C49.6811 20.7058 49.7611 21.9858 49.5211 22.1058C49.4811 22.2858 49.4411 22.4658 49.3911 22.6458C49.3011 22.7758 49.1311 23.0658 49.2111 22.7958C48.9911 23.2558 49.0011 23.2758 48.8811 23.6358L48.5211 24.0658C47.4111 25.7658 46.3911 27.2358 44.7411 28.7058C42.8911 30.1858 39.4411 32.7858 36.7711 33.8958C36.5011 34.0058 36.2811 34.1658 36.1111 34.3658C35.9211 34.5958 35.8811 34.7358 35.8011 34.8558C35.3011 35.7558 34.7411 36.6658 34.1311 37.5758C33.5111 38.4658 32.7911 39.3058 32.0411 40.1158C30.5311 41.7258 28.8611 43.1358 27.2511 44.4158C27.1311 44.4758 26.8711 44.7058 26.8811 44.7258C25.8311 45.4058 24.7211 45.9958 23.5611 46.4658C23.5611 46.4658 22.5211 46.9258 21.0911 47.3058C19.6611 47.7058 17.8311 47.9558 16.4211 48.0158C15.0111 48.0858 14.0011 48.0358 14.2211 48.2758C14.3311 48.3858 14.7511 48.5558 15.6011 48.7358C16.4511 48.9058 17.7511 49.0958 19.6111 48.9858L19.5211 49.0358C21.7111 48.7758 23.0611 48.3058 24.3811 47.5558C24.7011 47.6858 26.0211 46.8158 26.4911 46.6058L26.4611 46.6458C27.5311 45.8358 28.8711 45.2858 29.7711 44.3358C29.7411 44.3858 29.7711 44.4458 29.5311 44.6358C30.2511 44.0258 31.1511 43.1158 31.2911 43.1558C32.9011 41.5958 34.8911 39.1658 35.4311 37.8258L35.4111 37.9258C35.7211 37.1658 35.9511 37.0358 36.3611 36.2358C36.4011 36.2058 36.4411 36.1558 36.4411 36.1658C36.5311 35.9558 36.6611 35.7058 36.8211 35.4458L36.9411 35.2458C36.9411 35.2458 36.9811 35.1758 37.0111 35.1358C37.0711 35.0758 37.1411 35.0258 37.2211 35.0058C37.7811 34.7958 38.3111 34.5658 38.6111 34.3958L38.6911 34.4558C39.2211 34.1958 39.7311 33.9058 40.2411 33.6058L39.6611 33.9058C39.7411 33.5858 40.9111 33.3958 41.8911 32.5558C42.9111 31.9158 43.5611 30.7658 44.5611 30.0658C44.9311 29.6058 44.2911 30.5458 44.9011 29.9058C45.0111 29.9858 44.6411 30.2358 44.8811 30.1658C45.4911 29.5558 46.0411 29.3258 46.7311 28.4958L46.8311 28.5358C47.6711 27.4158 48.6911 26.6258 49.0811 25.7458C49.8011 24.4758 49.8911 25.0858 50.4311 23.6258C50.5611 23.4658 50.6811 23.2958 50.8011 23.1258C51.0711 22.5158 50.8311 22.6258 51.1211 21.9458C51.2011 22.0158 51.4411 21.0558 51.4011 21.4958C51.9511 19.8558 51.7711 18.0058 51.3111 15.8058C51.0211 15.3858 50.6611 14.3158 50.3611 14.0658C50.3811 14.0258 50.1111 13.5358 49.9111 13.1958C49.7111 12.8558 49.5811 12.6358 50.0111 13.1358C50.0811 13.2158 50.1811 13.3858 50.1511 13.3858L50.3111 13.4658C50.0911 12.8958 49.6711 12.3158 49.1611 11.9258C48.6611 11.5158 48.1011 11.2258 47.5111 10.9258C47.8511 11.1158 48.3011 11.4058 47.9711 11.2758C47.6211 11.0658 47.2511 10.8858 46.8811 10.7358L47.1411 10.7558C46.5911 10.4958 46.0111 10.3258 45.4411 10.1858L45.6611 10.3358C44.8311 10.1158 44.5411 9.89578 43.5711 9.97578C43.1411 10.0358 44.3611 10.1558 43.4711 10.1458C42.3511 10.0158 40.6611 10.0558 39.2611 10.3358C39.4111 10.4158 39.0411 10.4958 38.6711 10.6158L38.6011 10.5258C37.1911 11.0658 38.0011 10.4358 36.6111 11.0258L36.7111 10.9158L36.4111 11.2458C35.2411 11.9258 35.6411 11.3058 34.4111 12.1858C34.9311 11.9158 34.7511 12.2558 34.0911 12.5458L34.2111 12.3758C33.8711 12.5758 33.7711 12.6758 33.5311 12.7958C33.7111 12.6358 33.5711 12.6058 33.0711 12.9158L33.3511 12.6158C33.0511 12.8558 32.7711 13.0958 32.4911 13.3458C31.7011 13.7158 30.7011 14.6558 30.3511 14.7958C30.3511 14.7958 29.9811 15.0858 29.6011 15.4358C29.2211 15.7858 28.8411 16.2258 28.7511 16.4258C28.9411 16.0858 28.2211 16.8258 28.3311 16.5358C28.0711 16.9558 27.2611 18.1358 26.8611 18.5658L26.9111 18.4658C26.2711 19.3258 25.8611 20.1558 25.5311 20.9758C25.3611 21.3858 25.2211 21.7958 25.0711 22.2158C25.0011 22.4258 24.9311 22.6358 24.8511 22.8558C24.8211 22.9458 24.7611 23.1158 24.7511 23.1458C24.7411 23.1658 24.7311 23.1758 24.7111 23.1858C24.8311 23.2558 24.6011 23.3258 24.7111 23.4358L24.6711 23.4558C22.9711 23.9758 21.3611 23.9158 20.8411 24.5158C20.0211 24.7658 19.8311 24.6858 19.3911 24.7958L19.5811 24.7158C18.0411 25.2158 17.6011 25.3858 16.4711 25.7858C15.9211 26.0458 15.9111 26.2658 14.9011 26.6358C15.1911 26.4258 14.7911 26.6058 14.4211 26.7758C14.6511 26.6558 14.7111 26.5958 14.2011 26.7658C14.1411 26.8158 14.0411 26.8858 13.9511 26.9458C13.9511 26.9458 13.9211 26.9458 13.9311 26.9358C13.3311 27.2458 13.4511 27.2258 13.7411 27.0958C13.7411 27.1158 13.7611 27.1158 13.8611 27.0958C13.1811 27.2858 12.1211 27.9858 11.9811 27.9058C10.2211 28.9458 9.11111 29.9358 7.93111 31.1658C7.74111 31.2458 7.98113 30.9258 8.33113 30.5558C8.05113 30.8458 7.74112 31.1158 7.48112 31.4258C7.40112 31.3358 7.93112 30.8758 8.19112 30.6158C6.99112 31.4858 6.21112 32.8958 5.32112 34.3758L5.25111 34.7358L5.19112 34.8258C5.19112 34.8258 5.14112 35.2158 5.07112 35.4658C4.91112 35.6658 4.84111 35.3658 4.62111 36.2058C4.34111 36.8458 4.29113 38.1358 4.39113 39.0158C4.39113 38.5358 4.45113 38.6958 4.49113 38.8958C4.50113 39.3158 4.42111 39.5658 4.50111 39.8958L4.38112 39.9558C4.47112 39.7758 4.66113 41.0458 4.77113 41.1758C4.73113 41.4358 4.55111 40.5558 4.47111 40.4558C4.62111 41.3058 4.71111 41.4958 4.75111 41.7058C4.82111 41.9058 4.85111 42.1158 5.18111 42.9258C5.65111 43.7258 5.22111 42.7258 5.50111 43.0758C5.86111 43.7958 6.33113 44.4058 6.86113 45.1458C6.83113 45.0458 6.79112 44.9558 6.76112 44.8558C7.77112 45.9258 8.46112 46.4558 9.23112 47.0858C11.7211 48.3058 13.2911 48.0758 13.9911 48.0858C14.7111 48.0358 14.6811 47.8858 14.3011 47.7458C13.9511 47.5758 13.2611 47.4158 12.7111 47.2558C12.1611 47.0858 11.7211 46.9058 11.7211 46.9058C9.97111 46.1358 8.81113 45.2758 7.80113 44.1658C7.30113 43.6058 6.86111 42.9658 6.50111 42.1658C6.16111 41.3658 5.85113 40.3758 5.77113 39.2358L5.75111 39.2458Z" fill="#8E8E8E"/>
<path d="M21.2115 44.4972C21.5926 44.4972 21.9015 44.1883 21.9015 43.8072C21.9015 43.4261 21.5926 43.1172 21.2115 43.1172C20.8304 43.1172 20.5215 43.4261 20.5215 43.8072C20.5215 44.1883 20.8304 44.4972 21.2115 44.4972Z" fill="#8E8E8E"/>
<path d="M20.4121 42.8165L20.4521 42.8365C20.4521 42.8365 20.4221 42.8065 20.4121 42.8165Z" fill="#8E8E8E"/>
<path d="M21.2114 43.8067C21.2114 43.8267 21.2114 43.8067 21.2114 43.8067C21.2214 43.8067 21.2314 43.8067 21.3314 43.7567C21.3414 43.7567 21.2314 43.7967 21.2214 43.8067C21.2514 43.7967 21.3314 43.7667 21.3314 43.7667H21.2914H21.3214L21.5014 43.7167C21.5014 43.7167 21.2814 43.7767 21.3214 43.7667L21.4714 43.7367C21.4714 43.7367 21.3914 43.7667 21.3114 43.7767C21.2714 43.7767 21.2214 43.7867 21.1914 43.7867H21.2114C21.2714 43.8167 21.2314 43.8167 21.2114 43.7867C21.2114 43.7867 21.2114 43.7267 21.2014 43.8367C21.1514 43.9767 21.1814 43.8167 21.2114 43.7867C21.2114 43.7867 21.2314 43.7867 21.1314 43.7867C21.0514 43.7867 20.9214 43.7867 20.7314 43.7867C20.5414 43.7967 20.2614 43.8167 19.9614 44.1167H19.9214C19.8714 44.2767 19.9014 44.3867 20.1114 44.3867C19.9214 44.5067 20.1514 44.4967 20.1114 44.5567H20.0914C20.2814 44.5267 20.0914 44.8067 20.2714 44.7567C20.2614 44.7667 20.2114 44.8167 20.1914 44.7967C20.2614 44.8267 20.3514 44.8367 20.2714 44.9467C20.4114 45.0167 20.5914 45.1867 20.7514 45.0167L20.7314 45.0467C20.8314 44.9267 20.8014 45.0467 20.8814 44.9967C20.8814 45.0167 20.8814 45.0267 20.8814 45.0267C20.9714 44.9067 21.0414 45.0367 21.0914 44.9867V45.0767L21.1914 45.0667L21.1514 45.0467C21.1714 44.8067 21.2314 45.2067 21.3114 45.0467C21.4014 45.0667 21.3714 44.5267 21.4314 44.6367C21.4314 44.5167 21.4514 44.8267 21.4714 44.7267C21.5014 44.8467 21.4714 44.8067 21.5114 44.9067C21.5414 44.8367 21.6314 45.0067 21.6614 44.9067L21.7014 44.9967C21.7014 44.7967 21.9114 45.0467 21.8714 44.8667C21.8914 44.7567 22.0914 45.0767 22.0514 44.8667L22.1714 44.9467C22.1714 44.9467 22.0914 44.7967 22.1714 44.8167C22.2314 44.8767 22.2614 44.8167 22.3014 44.8967C22.4914 44.8967 22.3114 44.6067 22.5714 44.6067C22.4514 44.4967 22.5714 44.4767 22.4714 44.3967C22.5414 44.4267 22.5414 44.2667 22.6514 44.4067C22.6514 44.4167 22.6514 44.4267 22.6314 44.4167L22.7114 44.4667C22.9214 44.4467 22.6814 44.2667 22.7314 44.1967C22.6914 44.2167 22.6914 44.2467 22.6314 44.2067L22.6614 44.1367L22.7414 44.1767C22.7414 44.1767 22.7914 44.1067 22.8114 44.0667H22.7114C22.7714 44.0167 22.9514 44.0167 22.8114 43.9267C22.7314 43.8867 22.6714 43.9667 22.6414 43.9067C22.7214 43.8467 22.8214 43.7167 22.8414 43.6067C22.7314 43.6267 22.7314 43.6067 22.7014 43.5767L22.8014 43.5567C22.6514 43.4767 23.0114 43.4767 22.8814 43.3867H22.9514L22.7414 43.3967C22.5314 43.3667 22.9214 43.2767 22.6314 43.2667C22.6614 43.2967 22.4314 43.3567 22.4614 43.3067L22.5514 43.2867C22.5514 43.2867 22.4814 43.2867 22.4914 43.2567C22.5414 43.2567 22.6214 43.2067 22.5914 43.1767L22.7114 43.1567C22.6414 43.1567 22.5814 43.1567 22.5214 43.1567C22.5914 43.0567 22.4214 43.0367 22.5214 42.9467C22.5214 42.9467 22.4914 42.7967 22.3614 42.8667C22.4514 42.8267 22.4314 42.7467 22.5214 42.6967C22.4114 42.7367 22.2914 42.7267 22.3314 42.6167H22.3414C22.2914 42.4067 22.0414 42.5667 21.9914 42.3867C21.9414 42.4867 21.9114 42.4067 21.8614 42.5467C21.7014 42.6267 21.7314 42.1667 21.5614 42.5967C21.5014 42.6067 21.5214 42.4767 21.5014 42.4467L21.5214 42.4267C21.4114 42.4467 21.3814 42.4467 21.3014 42.4267C21.2614 42.4667 21.2514 42.6767 21.1914 42.6367C21.2114 42.5567 21.1914 42.5667 21.1614 42.5667C21.1714 42.5567 21.1814 42.5167 21.1414 42.4667C21.1414 42.4967 21.1414 42.5067 21.1314 42.5267C21.1314 42.5267 21.1314 42.5167 21.1314 42.5067C21.0914 42.5367 21.1014 42.5667 21.1314 42.5767C21.1314 42.5867 21.1314 42.6067 21.1414 42.6267C21.0914 42.5267 21.0314 42.6467 21.0014 42.5067C20.8814 42.5667 20.8414 42.7367 20.7914 42.8267C20.7514 42.7667 20.7414 42.6967 20.7614 42.6567L20.7114 42.7167C20.6614 42.6167 20.7214 42.6467 20.7314 42.6167C20.5614 42.5067 20.6514 42.8467 20.4914 42.7767L20.5214 42.8567H20.5114C20.5114 42.8567 20.5614 42.9467 20.5614 42.9667C20.4914 42.9067 20.4214 42.7967 20.3914 42.8367C20.3014 42.7967 20.3314 42.9467 20.3414 43.0167C20.3714 43.0167 20.4014 43.0467 20.4214 43.0767C20.4114 43.0967 20.3314 43.0467 20.3514 43.0767L20.2514 42.9967C20.3514 43.0667 20.3114 43.1267 20.3514 43.1567C20.2714 43.1167 20.3114 43.0767 20.2514 43.0367C20.2014 43.1267 20.2214 43.0767 20.1814 43.1667C20.2414 43.2567 20.2914 43.2167 20.3714 43.2967C20.3714 43.3467 20.4414 43.4067 20.3514 43.4167L20.4614 43.4467C20.5214 43.5367 20.5014 43.5567 20.3814 43.5667C20.5714 43.7367 20.7714 43.7767 20.9314 43.7867C21.0914 43.7967 21.2214 43.8067 21.3114 43.7867C21.2714 43.7867 21.2614 43.7867 21.2614 43.7867C21.2514 43.7867 21.2614 43.7867 21.2614 43.7867L21.2114 43.8067Z" fill="#8E8E8E"/>
<path d="M26.731 41.7374C27.1121 41.7374 27.421 41.4285 27.421 41.0474C27.421 40.6663 27.1121 40.3574 26.731 40.3574C26.3499 40.3574 26.041 40.6663 26.041 41.0474C26.041 41.4285 26.3499 41.7374 26.731 41.7374Z" fill="#8E8E8E"/>
<path d="M25.9414 40.0567L25.9814 40.0767C25.9814 40.0767 25.9514 40.0467 25.9414 40.0567Z" fill="#8E8E8E"/>
<path d="M26.731 41.0472C26.731 41.0672 26.731 41.0472 26.731 41.0472C26.731 41.0472 26.751 41.0372 26.851 40.9872C26.861 40.9872 26.751 41.0272 26.741 41.0372C26.771 41.0272 26.851 40.9972 26.851 40.9972H26.811H26.841L27.021 40.9472C27.021 40.9472 26.801 41.0072 26.841 40.9972L26.991 40.9672C26.991 40.9672 26.911 40.9972 26.831 41.0072C26.791 41.0072 26.741 41.0172 26.711 41.0172H26.731C26.791 41.0472 26.751 41.0472 26.731 41.0172C26.731 41.0172 26.731 40.9572 26.721 41.0672C26.671 41.2072 26.701 41.0472 26.731 41.0172C26.731 41.0172 26.751 41.0172 26.651 41.0172C26.571 41.0172 26.441 41.0172 26.251 41.0072C26.061 41.0172 25.781 41.0372 25.481 41.3372H25.441C25.391 41.4972 25.421 41.6072 25.631 41.6072C25.441 41.7272 25.671 41.7172 25.631 41.7772H25.611C25.801 41.7472 25.611 42.0272 25.791 41.9772C25.771 41.9872 25.731 42.0372 25.711 42.0172C25.781 42.0472 25.871 42.0572 25.791 42.1672C25.931 42.2372 26.111 42.4072 26.271 42.2372L26.251 42.2672C26.351 42.1472 26.321 42.2672 26.401 42.2172C26.401 42.2372 26.401 42.2472 26.401 42.2472C26.491 42.1272 26.561 42.2572 26.611 42.2072V42.2972L26.711 42.2872L26.671 42.2672C26.691 42.0272 26.751 42.4272 26.831 42.2672C26.921 42.2872 26.891 41.7472 26.951 41.8572C26.951 41.7372 26.971 42.0472 26.991 41.9472C27.021 42.0672 26.991 42.0272 27.031 42.1272C27.061 42.0572 27.1509 42.2272 27.1809 42.1272L27.221 42.2172C27.221 42.0172 27.431 42.2672 27.391 42.0872C27.411 41.9772 27.611 42.2972 27.571 42.0872L27.691 42.1672C27.691 42.1672 27.611 42.0172 27.691 42.0372C27.751 42.0972 27.781 42.0372 27.821 42.1172C28.011 42.1172 27.831 41.8372 28.091 41.8272C27.971 41.7172 28.091 41.6972 27.991 41.6172C28.061 41.6472 28.061 41.4872 28.171 41.6272C28.171 41.6372 28.171 41.6472 28.151 41.6372L28.231 41.6872C28.441 41.6672 28.201 41.4872 28.251 41.4172C28.211 41.4372 28.211 41.4672 28.151 41.4272L28.1809 41.3572L28.261 41.3972C28.261 41.3972 28.311 41.3272 28.331 41.2872H28.231C28.291 41.2372 28.471 41.2372 28.331 41.1472C28.251 41.1072 28.191 41.1872 28.161 41.1272C28.241 41.0672 28.341 40.9372 28.361 40.8272C28.251 40.8472 28.251 40.8272 28.221 40.7972L28.321 40.7772C28.171 40.6972 28.531 40.6972 28.401 40.6072H28.471L28.261 40.6272C28.051 40.5972 28.441 40.5072 28.151 40.4972C28.181 40.5272 27.951 40.5872 27.981 40.5372L28.071 40.5172C28.071 40.5172 28.001 40.5172 28.011 40.4872C28.061 40.4872 28.141 40.4372 28.111 40.4072L28.231 40.3872C28.161 40.3872 28.101 40.3872 28.041 40.3872C28.111 40.2872 27.941 40.2672 28.041 40.1772C28.041 40.1772 28.011 40.0272 27.881 40.0972C27.971 40.0572 27.951 39.9772 28.041 39.9272C27.931 39.9672 27.811 39.9572 27.851 39.8472H27.861C27.811 39.6372 27.561 39.7972 27.511 39.6172C27.461 39.7172 27.431 39.6372 27.381 39.7772C27.221 39.8572 27.251 39.3972 27.081 39.8272C27.021 39.8372 27.041 39.7072 27.021 39.6772L27.041 39.6572C26.921 39.6772 26.901 39.6772 26.821 39.6572C26.781 39.6972 26.771 39.9072 26.711 39.8672C26.731 39.7772 26.7109 39.7972 26.6809 39.7972C26.6909 39.7872 26.701 39.7472 26.661 39.6972C26.661 39.7272 26.661 39.7372 26.651 39.7572C26.651 39.7572 26.651 39.7472 26.651 39.7372C26.611 39.7672 26.621 39.7972 26.651 39.8072C26.651 39.8172 26.651 39.8372 26.661 39.8572C26.611 39.7572 26.551 39.8772 26.521 39.7372C26.401 39.7972 26.361 39.9672 26.311 40.0572C26.271 39.9972 26.261 39.9272 26.281 39.8872L26.231 39.9472C26.181 39.8472 26.241 39.8772 26.251 39.8472C26.081 39.7372 26.171 40.0772 26.011 40.0072L26.041 40.0872H26.031C26.031 40.0872 26.081 40.1772 26.081 40.1972C26.011 40.1372 25.941 40.0272 25.911 40.0672C25.821 40.0272 25.851 40.1872 25.861 40.2472C25.891 40.2472 25.921 40.2772 25.941 40.3072C25.931 40.3272 25.851 40.2772 25.871 40.3072L25.771 40.2272C25.871 40.2972 25.831 40.3572 25.871 40.3872C25.791 40.3472 25.831 40.3072 25.771 40.2672C25.721 40.3572 25.741 40.3072 25.701 40.3972C25.761 40.4872 25.811 40.4472 25.891 40.5272C25.891 40.5772 25.961 40.6372 25.871 40.6472L25.981 40.6772C26.041 40.7672 26.021 40.7872 25.901 40.7972C26.091 40.9672 26.291 41.0072 26.451 41.0172C26.611 41.0272 26.741 41.0372 26.831 41.0172C26.791 41.0172 26.781 41.0172 26.781 41.0172C26.771 41.0172 26.781 41.0172 26.781 41.0172L26.731 41.0472Z" fill="#8E8E8E"/>
<path d="M11.0904 41.7374C11.4715 41.7374 11.7804 41.4285 11.7804 41.0474C11.7804 40.6663 11.4715 40.3574 11.0904 40.3574C10.7093 40.3574 10.4004 40.6663 10.4004 41.0474C10.4004 41.4285 10.7093 41.7374 11.0904 41.7374Z" fill="#8E8E8E"/>
<path d="M10.291 40.0567L10.331 40.0767C10.331 40.0767 10.301 40.0467 10.291 40.0567Z" fill="#8E8E8E"/>
<path d="M11.0903 41.0472C11.0903 41.0672 11.0903 41.0472 11.0903 41.0472C11.0903 41.0472 11.1103 41.0372 11.2103 40.9872C11.2203 40.9872 11.1103 41.0272 11.1003 41.0372C11.1303 41.0272 11.2103 40.9972 11.2103 40.9972H11.1703H11.2003L11.3803 40.9472C11.3803 40.9472 11.1603 41.0072 11.2003 40.9972L11.3503 40.9672C11.3503 40.9672 11.2703 40.9972 11.1903 41.0072C11.1503 41.0072 11.1003 41.0172 11.0703 41.0172H11.0903C11.1503 41.0472 11.1103 41.0472 11.0903 41.0172C11.0903 41.0172 11.0903 40.9572 11.0803 41.0672C11.0303 41.2072 11.0603 41.0472 11.0903 41.0172C11.0903 41.0172 11.1103 41.0172 11.0103 41.0172C10.9303 41.0172 10.8003 41.0172 10.6103 41.0072C10.4203 41.0172 10.1403 41.0372 9.84031 41.3372H9.80033C9.75033 41.4972 9.78034 41.6072 9.99034 41.6072C9.80034 41.7272 10.0303 41.7172 9.99034 41.7772H9.97032C10.1603 41.7472 9.97031 42.0272 10.1503 41.9772C10.1403 41.9872 10.0903 42.0372 10.0703 42.0172C10.1403 42.0472 10.2303 42.0572 10.1503 42.1672C10.2903 42.2372 10.4703 42.4072 10.6303 42.2372L10.6103 42.2672C10.7103 42.1472 10.6803 42.2672 10.7603 42.2172C10.7603 42.2372 10.7603 42.2472 10.7603 42.2472C10.8503 42.1272 10.9203 42.2572 10.9703 42.2072V42.2972L11.0703 42.2872L11.0303 42.2672C11.0503 42.0272 11.1103 42.4272 11.1903 42.2672C11.2803 42.2872 11.2503 41.7472 11.3103 41.8572C11.3103 41.7372 11.3303 42.0472 11.3503 41.9472C11.3803 42.0672 11.3503 42.0272 11.3903 42.1272C11.4203 42.0572 11.5103 42.2272 11.5403 42.1272L11.5803 42.2172C11.5803 42.0172 11.7903 42.2672 11.7503 42.0872C11.7703 41.9772 11.9703 42.2972 11.9303 42.0872L12.0503 42.1672C12.0503 42.1672 11.9703 42.0172 12.0503 42.0372C12.1103 42.0972 12.1403 42.0372 12.1803 42.1172C12.3703 42.1172 12.1903 41.8372 12.4503 41.8272C12.3303 41.7172 12.4503 41.6972 12.3503 41.6172C12.4203 41.6472 12.4203 41.4872 12.5303 41.6272C12.5303 41.6372 12.5303 41.6472 12.5103 41.6372L12.5903 41.6872C12.8003 41.6672 12.5603 41.4872 12.6103 41.4172C12.5703 41.4372 12.5703 41.4672 12.5103 41.4272L12.5403 41.3572L12.6203 41.3972C12.6203 41.3972 12.6703 41.3272 12.6903 41.2872H12.5903C12.6503 41.2372 12.8303 41.2372 12.6903 41.1472C12.6103 41.1072 12.5503 41.1872 12.5203 41.1272C12.6003 41.0672 12.7003 40.9372 12.7203 40.8272C12.6103 40.8472 12.6103 40.8272 12.5803 40.7972L12.6803 40.7772C12.5303 40.6972 12.8903 40.6972 12.7603 40.6072H12.8303L12.6203 40.6272C12.4103 40.5972 12.8003 40.5072 12.5103 40.4972C12.5403 40.5272 12.3103 40.5872 12.3403 40.5372L12.4303 40.5172C12.4303 40.5172 12.3603 40.5172 12.3703 40.4872C12.4203 40.4872 12.5003 40.4372 12.4703 40.4072L12.5903 40.3872C12.5203 40.3872 12.4603 40.3872 12.4003 40.3872C12.4703 40.2872 12.3003 40.2672 12.4003 40.1772C12.4003 40.1772 12.3703 40.0272 12.2403 40.0972C12.3303 40.0572 12.3103 39.9772 12.4003 39.9272C12.2903 39.9672 12.1703 39.9572 12.2103 39.8472H12.2203C12.1703 39.6372 11.9203 39.7972 11.8703 39.6172C11.8203 39.7172 11.7903 39.6372 11.7403 39.7772C11.5803 39.8572 11.6103 39.3972 11.4403 39.8272C11.3803 39.8372 11.4003 39.7072 11.3803 39.6772L11.4003 39.6572C11.2903 39.6772 11.2603 39.6772 11.1803 39.6572C11.1403 39.6972 11.1303 39.9072 11.0703 39.8672C11.0903 39.7772 11.0703 39.7972 11.0403 39.7972C11.0503 39.7872 11.0603 39.7472 11.0203 39.6972C11.0203 39.7272 11.0203 39.7372 11.0103 39.7572C11.0103 39.7572 11.0103 39.7472 11.0103 39.7372C10.9703 39.7672 10.9803 39.7972 11.0103 39.8072C11.0103 39.8172 11.0103 39.8372 11.0203 39.8572C10.9703 39.7572 10.9103 39.8772 10.8803 39.7372C10.7603 39.7972 10.7203 39.9672 10.6703 40.0572C10.6303 39.9972 10.6203 39.9272 10.6403 39.8872L10.5903 39.9472C10.5403 39.8472 10.6003 39.8772 10.6103 39.8472C10.4403 39.7372 10.5303 40.0772 10.3703 40.0072L10.4003 40.0872H10.3903C10.3903 40.0872 10.4403 40.1772 10.4403 40.1972C10.3703 40.1372 10.3003 40.0272 10.2703 40.0672C10.1803 40.0272 10.2103 40.1872 10.2203 40.2472C10.2503 40.2472 10.2803 40.2772 10.3003 40.3072C10.2903 40.3272 10.2103 40.2772 10.2303 40.3072L10.1303 40.2272C10.2303 40.2972 10.1903 40.3572 10.2303 40.3872C10.1503 40.3472 10.1903 40.3072 10.1303 40.2672C10.0803 40.3572 10.1003 40.3072 10.0603 40.3972C10.1203 40.4872 10.1703 40.4472 10.2503 40.5272C10.2503 40.5772 10.3203 40.6372 10.2303 40.6472L10.3403 40.6772C10.4003 40.7672 10.3803 40.7872 10.2603 40.7972C10.4503 40.9672 10.6503 41.0072 10.8103 41.0172C10.9703 41.0272 11.1003 41.0372 11.1903 41.0172C11.1503 41.0172 11.1403 41.0172 11.1403 41.0172C11.1303 41.0172 11.1403 41.0172 11.1403 41.0172L11.0903 41.0472Z" fill="#8E8E8E"/>
<path d="M38.7017 30.6964C39.0828 30.6964 39.3917 30.3875 39.3917 30.0064C39.3917 29.6253 39.0828 29.3164 38.7017 29.3164C38.3206 29.3164 38.0117 29.6253 38.0117 30.0064C38.0117 30.3875 38.3206 30.6964 38.7017 30.6964Z" fill="#8E8E8E"/>
<path d="M37.9023 29.0059L37.9424 29.0259C37.9424 29.0259 37.9123 28.9959 37.9023 29.0059Z" fill="#8E8E8E"/>
<path d="M38.7017 30.0059C38.7017 30.0259 38.7017 30.0059 38.7017 30.0059C38.7117 30.0059 38.7217 30.0059 38.8217 29.9559C38.8317 29.9559 38.7217 29.9959 38.7117 30.0059C38.7417 29.9959 38.8217 29.9659 38.8217 29.9659H38.7817H38.8117L38.9917 29.9159C38.9917 29.9159 38.7717 29.9759 38.8117 29.9659L38.9617 29.9359C38.9617 29.9359 38.8817 29.9659 38.8017 29.9759C38.7617 29.9759 38.7117 29.9859 38.6817 29.9859H38.7017C38.7617 30.0159 38.7217 30.0159 38.7017 29.9859C38.7017 29.9859 38.7017 29.9259 38.6917 30.0359C38.6417 30.1759 38.6717 30.0159 38.7017 29.9859C38.7017 29.9859 38.7217 29.9859 38.6217 29.9859C38.5417 29.9859 38.4117 29.9859 38.2217 29.9759C38.0317 29.9859 37.7517 30.0059 37.4517 30.3059H37.4117C37.3617 30.4659 37.3917 30.5759 37.6017 30.5759C37.4117 30.6959 37.6417 30.6859 37.6017 30.7459H37.5817C37.7717 30.7159 37.5817 30.9959 37.7617 30.9459C37.7517 30.9559 37.7017 31.0059 37.6817 30.9859C37.7517 31.0159 37.8417 31.0259 37.7617 31.1359C37.9017 31.2059 38.0817 31.3759 38.2417 31.2059L38.2217 31.2359C38.3217 31.1159 38.2917 31.2359 38.3717 31.1859C38.3717 31.2059 38.3717 31.2159 38.3717 31.2159C38.4617 31.0959 38.5317 31.2259 38.5817 31.1759V31.2659L38.6817 31.2559L38.6417 31.2359C38.6617 30.9959 38.7217 31.3959 38.8017 31.2359C38.8917 31.2559 38.8617 30.7159 38.9217 30.8259C38.9217 30.7059 38.9417 31.0159 38.9617 30.9159C38.9917 31.0359 38.9617 30.9959 39.0017 31.0959C39.0317 31.0259 39.1217 31.1959 39.1517 31.0959L39.1917 31.1859C39.1917 30.9859 39.4017 31.2359 39.3617 31.0559C39.3817 30.9459 39.5817 31.2659 39.5417 31.0559L39.6617 31.1359C39.6617 31.1359 39.5817 30.9859 39.6617 31.0059C39.7117 31.0659 39.7517 31.0059 39.7917 31.0859C39.9817 31.0859 39.8017 30.7959 40.0617 30.7959C39.9417 30.6859 40.0617 30.6659 39.9617 30.5859C40.0317 30.6159 40.0317 30.4559 40.1417 30.5959C40.1417 30.6059 40.1417 30.6159 40.1217 30.6059L40.2017 30.6559C40.4117 30.6359 40.1717 30.4559 40.2217 30.3859C40.1817 30.4059 40.1817 30.4359 40.1217 30.3959L40.1517 30.3259L40.2317 30.3659C40.2317 30.3659 40.2817 30.2959 40.3017 30.2559H40.2017C40.2617 30.2059 40.4417 30.2059 40.3017 30.1159C40.2217 30.0759 40.1617 30.1559 40.1317 30.0959C40.2117 30.0359 40.3117 29.9059 40.3317 29.7959C40.2217 29.8159 40.2217 29.7959 40.1917 29.7659L40.2917 29.7459C40.1417 29.6659 40.5017 29.6659 40.3717 29.5759H40.4417L40.2317 29.5959C40.0217 29.5659 40.4117 29.4759 40.1217 29.4659C40.1517 29.4959 39.9217 29.5559 39.9517 29.5059L40.0417 29.4859C40.0417 29.4859 39.9717 29.4859 39.9817 29.4559C40.0317 29.4559 40.1117 29.4059 40.0817 29.3759L40.2017 29.3559C40.1317 29.3559 40.0717 29.3559 40.0117 29.3559C40.0817 29.2559 39.9117 29.2359 40.0117 29.1459C40.0117 29.1459 39.9817 28.9959 39.8517 29.0659C39.9417 29.0259 39.9217 28.9459 40.0117 28.8959C39.9017 28.9359 39.7817 28.9259 39.8217 28.8159H39.8317C39.7817 28.6059 39.5317 28.7659 39.4817 28.5859C39.4317 28.6859 39.4017 28.6059 39.3517 28.7459C39.1917 28.8259 39.2217 28.3659 39.0517 28.7959C38.9917 28.8059 39.0117 28.6759 38.9917 28.6459L39.0117 28.6259C38.9017 28.6459 38.8717 28.6459 38.7917 28.6259C38.7517 28.6659 38.7417 28.8759 38.6817 28.8359C38.7017 28.7459 38.6817 28.7659 38.6517 28.7659C38.6617 28.7559 38.6717 28.7259 38.6317 28.6659C38.6317 28.6959 38.6317 28.7059 38.6217 28.7259C38.6217 28.7259 38.6217 28.7159 38.6217 28.7059C38.5817 28.7359 38.5917 28.7659 38.6217 28.7759C38.6217 28.7859 38.6217 28.8059 38.6317 28.8259C38.5817 28.7259 38.5217 28.8459 38.4917 28.7059C38.3717 28.7659 38.3317 28.9359 38.2817 29.0259C38.2417 28.9659 38.2317 28.8959 38.2517 28.8559L38.2017 28.9159C38.1517 28.8159 38.2117 28.8459 38.2217 28.8159C38.0517 28.7059 38.1417 29.0459 37.9817 28.9759L38.0117 29.0559H38.0017C38.0017 29.0559 38.0517 29.1459 38.0517 29.1659C37.9817 29.1059 37.9117 28.9959 37.8817 29.0359C37.7917 28.9959 37.8217 29.1559 37.8317 29.2159C37.8617 29.2159 37.8917 29.2459 37.9117 29.2759C37.9017 29.2959 37.8217 29.2459 37.8417 29.2759L37.7417 29.1959C37.8417 29.2659 37.8017 29.3259 37.8417 29.3559C37.7617 29.3159 37.8017 29.2759 37.7417 29.2359C37.6917 29.3259 37.7117 29.2759 37.6717 29.3659C37.7317 29.4559 37.7817 29.4159 37.8617 29.4959C37.8617 29.5459 37.9317 29.6059 37.8417 29.6159L37.9517 29.6459C38.0117 29.7359 37.9917 29.7559 37.8717 29.7659C38.0617 29.9359 38.2617 29.9759 38.4217 29.9859C38.5817 29.9959 38.7117 30.0059 38.8017 29.9859C38.7617 29.9859 38.7517 29.9859 38.7517 29.9859C38.7417 29.9859 38.7517 29.9859 38.7517 29.9859L38.7017 30.0059Z" fill="#8E8E8E"/>
<path d="M34.0923 31.6163C34.4734 31.6163 34.7823 31.3074 34.7823 30.9263C34.7823 30.5453 34.4734 30.2363 34.0923 30.2363C33.7113 30.2363 33.4023 30.5453 33.4023 30.9263C33.4023 31.3074 33.7113 31.6163 34.0923 31.6163Z" fill="#8E8E8E"/>
<path d="M33.3027 29.9259L33.3427 29.9459C33.3427 29.9459 33.3127 29.9159 33.3027 29.9259Z" fill="#8E8E8E"/>
<path d="M34.1021 30.9259C34.1021 30.9459 34.1021 30.9259 34.1021 30.9259C34.1121 30.9259 34.1221 30.9259 34.2221 30.8759C34.2321 30.8759 34.1221 30.9159 34.1121 30.9259C34.1421 30.9159 34.2221 30.8859 34.2221 30.8859H34.182H34.2121L34.3921 30.8359C34.3921 30.8359 34.1721 30.8959 34.2121 30.8859L34.3621 30.8559C34.3621 30.8559 34.2821 30.8859 34.2021 30.8959C34.1621 30.8959 34.1121 30.9059 34.0821 30.9059H34.1021C34.1621 30.9359 34.1221 30.9359 34.1021 30.9059C34.1021 30.9059 34.1021 30.8459 34.0921 30.9559C34.0421 31.0959 34.0721 30.9359 34.1021 30.9059C34.1021 30.9059 34.1221 30.9059 34.0221 30.9059C33.9421 30.9059 33.8121 30.9059 33.6221 30.8959C33.4321 30.9059 33.1521 30.9259 32.8521 31.2259H32.8121C32.7621 31.3859 32.7921 31.4959 33.0021 31.4959C32.8121 31.6159 33.0421 31.6059 33.0021 31.6659H32.9821C33.1721 31.6359 32.9821 31.9159 33.1621 31.8659C33.1521 31.8759 33.1021 31.9259 33.0821 31.9059C33.1521 31.9359 33.2421 31.9459 33.1621 32.0559C33.3021 32.1259 33.4821 32.2959 33.6421 32.1259L33.6221 32.1559C33.7221 32.0359 33.6921 32.1559 33.7721 32.1059C33.7721 32.1259 33.7721 32.1359 33.7721 32.1359C33.8621 32.0159 33.9321 32.1459 33.9821 32.0959V32.1859L34.0821 32.1759L34.0421 32.1559C34.0621 31.9159 34.1221 32.3159 34.2021 32.1559C34.2921 32.1759 34.2621 31.6359 34.3221 31.7459C34.3221 31.6259 34.3421 31.9359 34.3621 31.8359C34.3921 31.9559 34.362 31.9159 34.402 32.0159C34.432 31.9459 34.5221 32.1159 34.5521 32.0159L34.5921 32.1059C34.5921 31.9059 34.8021 32.1559 34.7621 31.9759C34.7821 31.8659 34.9821 32.1859 34.9421 31.9759L35.0621 32.0559C35.0621 32.0559 34.9821 31.9059 35.0621 31.9259C35.1221 31.9859 35.1521 31.9259 35.1921 32.0059C35.3821 32.0059 35.2021 31.7259 35.4621 31.7159C35.3421 31.6059 35.4621 31.5859 35.3621 31.5059C35.4321 31.5359 35.4321 31.3759 35.5421 31.5159C35.5421 31.5259 35.5421 31.5359 35.5221 31.5259L35.6021 31.5759C35.8121 31.5559 35.5721 31.3759 35.6221 31.3059C35.5821 31.3259 35.5821 31.3559 35.5221 31.3159L35.5521 31.2459L35.6321 31.2859C35.6321 31.2859 35.6821 31.2159 35.7021 31.1759H35.6021C35.6621 31.1259 35.8421 31.1259 35.7021 31.0359C35.6221 30.9959 35.5621 31.0759 35.5321 31.0159C35.6121 30.9559 35.7121 30.8259 35.7321 30.7159C35.6221 30.7359 35.6221 30.7159 35.5921 30.6859L35.6921 30.6659C35.5421 30.5859 35.9021 30.5859 35.7721 30.4959H35.8421L35.6321 30.5159C35.4221 30.4859 35.8121 30.3959 35.5221 30.3859C35.5521 30.4159 35.3221 30.4759 35.3521 30.4259L35.4421 30.4059C35.4421 30.4059 35.3721 30.4059 35.3821 30.3759C35.4321 30.3759 35.5121 30.3259 35.4821 30.2959L35.6021 30.2759C35.5321 30.2759 35.4721 30.2759 35.4121 30.2759C35.4821 30.1759 35.3121 30.1559 35.4121 30.0659C35.4121 30.0659 35.3821 29.9159 35.2521 29.9859C35.3421 29.9459 35.3221 29.8659 35.4121 29.8159C35.3021 29.8559 35.1821 29.8459 35.2221 29.7359H35.2321C35.1821 29.5259 34.9321 29.6859 34.8821 29.5059C34.8321 29.6059 34.8021 29.5259 34.7521 29.6659C34.5921 29.7459 34.6221 29.2859 34.4521 29.7159C34.3921 29.7259 34.4121 29.5959 34.3921 29.5659L34.4121 29.5459C34.3021 29.5659 34.2721 29.5659 34.1921 29.5459C34.1521 29.5859 34.1421 29.7959 34.0821 29.7559C34.1021 29.6659 34.0821 29.6859 34.0521 29.6859C34.0621 29.6759 34.0721 29.6359 34.0321 29.5859C34.0321 29.6159 34.0321 29.6259 34.0221 29.6459C34.0221 29.6459 34.0221 29.6359 34.0221 29.6259C33.9821 29.6559 33.9921 29.6859 34.0221 29.6959C34.0221 29.7059 34.0221 29.7259 34.0321 29.7459C33.9821 29.6459 33.9221 29.7659 33.8921 29.6259C33.7721 29.6859 33.732 29.8559 33.682 29.9459C33.642 29.8859 33.632 29.8159 33.652 29.7759L33.6021 29.8359C33.5521 29.7359 33.6121 29.7659 33.6221 29.7359C33.4521 29.6259 33.5421 29.9659 33.3821 29.8959L33.4121 29.9759H33.402C33.402 29.9759 33.4521 30.0659 33.4521 30.0859C33.3821 30.0259 33.3121 29.9159 33.2821 29.9559C33.1921 29.9159 33.2221 30.0759 33.2321 30.1359C33.2621 30.1359 33.2921 30.1659 33.3121 30.1959C33.3021 30.2159 33.2221 30.1659 33.2421 30.1959L33.1421 30.1159C33.2421 30.1859 33.2021 30.2459 33.2421 30.2759C33.1621 30.2359 33.2021 30.1959 33.1421 30.1559C33.0921 30.2459 33.1121 30.1959 33.0721 30.2859C33.1321 30.3759 33.1821 30.3359 33.2621 30.4159C33.2621 30.4659 33.3321 30.5259 33.2421 30.5359L33.3521 30.5659C33.4121 30.6559 33.3921 30.6759 33.2721 30.6859C33.4621 30.8559 33.6621 30.8959 33.8221 30.9059C33.9821 30.9159 34.1121 30.9259 34.2021 30.9059C34.1621 30.9059 34.152 30.9059 34.152 30.9059C34.142 30.9059 34.152 30.9059 34.152 30.9059L34.1021 30.9259Z" fill="#8E8E8E"/>
<path d="M32.2505 36.2159C32.6316 36.2159 32.9406 35.907 32.9406 35.5259C32.9406 35.1449 32.6316 34.8359 32.2505 34.8359C31.8695 34.8359 31.5605 35.1449 31.5605 35.5259C31.5605 35.907 31.8695 36.2159 32.2505 36.2159Z" fill="#8E8E8E"/>
<path d="M31.4609 34.5352L31.5009 34.5552C31.5009 34.5552 31.4709 34.5252 31.4609 34.5352Z" fill="#8E8E8E"/>
<path d="M32.2603 35.5255C32.2603 35.5455 32.2603 35.5255 32.2603 35.5255C32.2603 35.5255 32.2803 35.5155 32.3803 35.4755C32.3903 35.4755 32.2803 35.5155 32.2703 35.5255C32.3003 35.5155 32.3803 35.4855 32.3803 35.4855H32.3403H32.3702L32.5503 35.4355C32.5503 35.4355 32.3302 35.4955 32.3702 35.4855L32.5203 35.4555C32.5203 35.4555 32.4403 35.4855 32.3603 35.4955C32.3203 35.4955 32.2703 35.5055 32.2403 35.5055H32.2603C32.3203 35.5355 32.2803 35.5355 32.2603 35.5055C32.2603 35.5055 32.2603 35.4455 32.2503 35.5555C32.2003 35.6955 32.2303 35.5355 32.2603 35.5055C32.2603 35.5055 32.2802 35.5055 32.1802 35.5055C32.1002 35.5055 31.9703 35.5055 31.7803 35.5055C31.5903 35.5155 31.3103 35.5355 31.0103 35.8355H30.9703C30.9203 35.9955 30.9503 36.1055 31.1603 36.1055C30.9703 36.2255 31.2003 36.2155 31.1603 36.2755H31.1403C31.3303 36.2455 31.1403 36.5255 31.3203 36.4755C31.3103 36.4855 31.2603 36.5355 31.2403 36.5155C31.3103 36.5455 31.4003 36.5555 31.3203 36.6655C31.4603 36.7355 31.6403 36.9055 31.8003 36.7355L31.7803 36.7655C31.8803 36.6455 31.8502 36.7655 31.9302 36.7155C31.9302 36.7355 31.9302 36.7455 31.9302 36.7455C32.0202 36.6255 32.0903 36.7555 32.1403 36.7055V36.7955L32.2403 36.7855L32.2003 36.7655C32.2203 36.5255 32.2803 36.9255 32.3603 36.7655C32.4503 36.7855 32.4203 36.2455 32.4803 36.3555C32.4803 36.2355 32.5003 36.5455 32.5203 36.4455C32.5503 36.5655 32.5203 36.5255 32.5603 36.6255C32.5903 36.5555 32.6803 36.7255 32.7103 36.6255L32.7503 36.7155C32.7503 36.5155 32.9603 36.7655 32.9203 36.5855C32.9403 36.4755 33.1403 36.7955 33.1003 36.5855L33.2203 36.6655C33.2203 36.6655 33.1403 36.5155 33.2203 36.5355C33.2803 36.5955 33.3103 36.5355 33.3503 36.6155C33.5403 36.6155 33.3602 36.3255 33.6202 36.3255C33.5002 36.2155 33.6203 36.1955 33.5203 36.1155C33.5903 36.1455 33.5903 35.9855 33.7003 36.1255C33.7003 36.1355 33.7002 36.1455 33.6802 36.1355L33.7603 36.1855C33.9703 36.1655 33.7303 35.9855 33.7803 35.9155C33.7403 35.9355 33.7402 35.9655 33.6802 35.9255L33.7103 35.8555L33.7903 35.8955C33.7903 35.8955 33.8403 35.8255 33.8603 35.7855H33.7603C33.8203 35.7355 34.0003 35.7355 33.8603 35.6455C33.7803 35.6055 33.7203 35.6855 33.6903 35.6255C33.7703 35.5655 33.8703 35.4355 33.8903 35.3255C33.7803 35.3455 33.7803 35.3255 33.7503 35.2955L33.8503 35.2755C33.7003 35.1955 34.0602 35.1955 33.9302 35.1055H34.0003L33.7903 35.1155C33.5803 35.0855 33.9702 34.9955 33.6802 34.9855C33.7102 35.0155 33.4803 35.0755 33.5103 35.0255L33.6003 35.0055C33.6003 35.0055 33.5303 35.0055 33.5403 34.9755C33.5903 34.9755 33.6703 34.9255 33.6403 34.8955L33.7603 34.8755C33.6903 34.8755 33.6303 34.8755 33.5703 34.8755C33.6403 34.7755 33.4703 34.7555 33.5703 34.6655C33.5703 34.6655 33.5403 34.5155 33.4103 34.5855C33.5003 34.5455 33.4803 34.4655 33.5703 34.4155C33.4603 34.4555 33.3403 34.4455 33.3803 34.3355H33.3903C33.3403 34.1255 33.0903 34.2855 33.0403 34.1055C32.9903 34.2055 32.9603 34.1255 32.9103 34.2655C32.7503 34.3455 32.7803 33.8855 32.6103 34.3155C32.5503 34.3255 32.5703 34.1955 32.5503 34.1655L32.5703 34.1455C32.4603 34.1655 32.4303 34.1655 32.3503 34.1455C32.3103 34.1855 32.3003 34.3955 32.2403 34.3555C32.2603 34.2755 32.2403 34.2855 32.2103 34.2855C32.2203 34.2755 32.2303 34.2355 32.1903 34.1855C32.1903 34.2155 32.1902 34.2255 32.1802 34.2455C32.1802 34.2455 32.1802 34.2355 32.1802 34.2255C32.1402 34.2555 32.1502 34.2855 32.1802 34.2955C32.1802 34.3055 32.1803 34.3255 32.1903 34.3455C32.1403 34.2455 32.0803 34.3655 32.0503 34.2255C31.9303 34.2855 31.8903 34.4555 31.8403 34.5455C31.8003 34.4855 31.7903 34.4155 31.8103 34.3755L31.7603 34.4355C31.7103 34.3355 31.7703 34.3655 31.7803 34.3355C31.6103 34.2255 31.7003 34.5655 31.5403 34.4955L31.5703 34.5755H31.5603C31.5603 34.5755 31.6103 34.6655 31.6103 34.6855C31.5403 34.6255 31.4703 34.5155 31.4403 34.5555C31.3503 34.5155 31.3803 34.6655 31.3903 34.7355C31.4203 34.7355 31.4503 34.7655 31.4703 34.7955C31.4603 34.8155 31.3802 34.7655 31.4002 34.7955L31.3003 34.7155C31.4003 34.7855 31.3602 34.8455 31.4002 34.8755C31.3202 34.8355 31.3603 34.7955 31.3003 34.7555C31.2503 34.8455 31.2703 34.7955 31.2303 34.8855C31.2903 34.9755 31.3403 34.9355 31.4203 35.0155C31.4203 35.0655 31.4902 35.1255 31.4002 35.1355L31.5103 35.1655C31.5703 35.2555 31.5502 35.2755 31.4302 35.2855C31.6202 35.4555 31.8203 35.4955 31.9803 35.5055C32.1403 35.5155 32.2703 35.5255 32.3603 35.5055C32.3203 35.5055 32.3103 35.5055 32.3103 35.5055C32.3003 35.5055 32.3103 35.5055 32.3103 35.5055L32.2603 35.5255Z" fill="#8E8E8E"/>
<path d="M17.5318 41.7374C17.9129 41.7374 18.2218 41.4285 18.2218 41.0474C18.2218 40.6663 17.9129 40.3574 17.5318 40.3574C17.1507 40.3574 16.8418 40.6663 16.8418 41.0474C16.8418 41.4285 17.1507 41.7374 17.5318 41.7374Z" fill="#8E8E8E"/>
<path d="M16.7324 40.0567L16.7724 40.0767C16.7724 40.0767 16.7424 40.0467 16.7324 40.0567Z" fill="#8E8E8E"/>
<path d="M17.5317 41.0472C17.5317 41.0672 17.5317 41.0472 17.5317 41.0472C17.5417 41.0472 17.5517 41.0472 17.6517 40.9972C17.6617 40.9972 17.5517 41.0372 17.5417 41.0472C17.5717 41.0372 17.6517 41.0072 17.6517 41.0072H17.6117H17.6417L17.8217 40.9572C17.8217 40.9572 17.6017 41.0172 17.6417 41.0072L17.7917 40.9772C17.7917 40.9772 17.7117 41.0072 17.6317 41.0172C17.5917 41.0172 17.5417 41.0272 17.5117 41.0272H17.5317C17.5917 41.0572 17.5517 41.0572 17.5317 41.0272C17.5317 41.0272 17.5317 40.9672 17.5217 41.0672C17.4717 41.2072 17.5017 41.0472 17.5317 41.0172C17.5317 41.0172 17.5517 41.0172 17.4517 41.0172C17.3717 41.0172 17.2417 41.0172 17.0517 41.0072C16.8617 41.0172 16.5817 41.0372 16.2817 41.3372H16.2417C16.1917 41.4972 16.2217 41.6072 16.4317 41.6072C16.2417 41.7272 16.4717 41.7172 16.4317 41.7772H16.4117C16.6017 41.7472 16.4117 42.0272 16.5917 41.9772C16.5817 41.9872 16.5317 42.0372 16.5117 42.0172C16.5817 42.0472 16.6717 42.0572 16.5917 42.1672C16.7317 42.2372 16.9117 42.4072 17.0717 42.2372L17.0517 42.2672C17.1517 42.1472 17.1217 42.2672 17.2017 42.2172C17.2017 42.2372 17.2017 42.2472 17.2017 42.2472C17.2917 42.1272 17.3617 42.2572 17.4117 42.2072V42.2972L17.5117 42.2872L17.4717 42.2672C17.4917 42.0272 17.5517 42.4272 17.6317 42.2672C17.7217 42.2872 17.6917 41.7472 17.7517 41.8572C17.7517 41.7372 17.7717 42.0472 17.7917 41.9472C17.8217 42.0672 17.7917 42.0272 17.8317 42.1272C17.8617 42.0572 17.9517 42.2272 17.9817 42.1272L18.0217 42.2172C18.0217 42.0172 18.2317 42.2672 18.1917 42.0872C18.2117 41.9772 18.4117 42.2972 18.3717 42.0872L18.4917 42.1672C18.4917 42.1672 18.4117 42.0172 18.4917 42.0372C18.5517 42.0972 18.5817 42.0372 18.6217 42.1172C18.8117 42.1172 18.6317 41.8372 18.8917 41.8272C18.7717 41.7172 18.8917 41.6972 18.7917 41.6172C18.8617 41.6472 18.8617 41.4872 18.9717 41.6272C18.9717 41.6372 18.9717 41.6472 18.9517 41.6372L19.0317 41.6872C19.2417 41.6672 19.0017 41.4872 19.0517 41.4172C19.0117 41.4372 19.0117 41.4672 18.9517 41.4272L18.9817 41.3572L19.0617 41.3972C19.0617 41.3972 19.1117 41.3272 19.1317 41.2872H19.0317C19.0917 41.2372 19.2717 41.2372 19.1317 41.1472C19.0517 41.1072 18.9917 41.1872 18.9617 41.1272C19.0417 41.0672 19.1417 40.9372 19.1617 40.8272C19.0517 40.8472 19.0517 40.8272 19.0217 40.7972L19.1217 40.7772C18.9717 40.6972 19.3317 40.6972 19.2017 40.6072H19.2717L19.0617 40.6272C18.8517 40.5972 19.2417 40.5072 18.9517 40.4972C18.9817 40.5272 18.7517 40.5872 18.7817 40.5372L18.8717 40.5172C18.8717 40.5172 18.8017 40.5172 18.8117 40.4872C18.8617 40.4872 18.9417 40.4372 18.9117 40.4072L19.0317 40.3872C18.9617 40.3872 18.9017 40.3872 18.8417 40.3872C18.9117 40.2872 18.7417 40.2672 18.8417 40.1772C18.8417 40.1772 18.8117 40.0272 18.6817 40.0972C18.7717 40.0572 18.7517 39.9772 18.8417 39.9272C18.7317 39.9672 18.6117 39.9572 18.6517 39.8472H18.6617C18.6117 39.6372 18.3617 39.7972 18.3117 39.6172C18.2617 39.7172 18.2317 39.6372 18.1817 39.7772C18.0217 39.8572 18.0517 39.3972 17.8817 39.8272C17.8217 39.8372 17.8417 39.7072 17.8217 39.6772L17.8417 39.6572C17.7317 39.6772 17.7017 39.6772 17.6217 39.6572C17.5817 39.6972 17.5717 39.9072 17.5117 39.8672C17.5317 39.7772 17.5117 39.7972 17.4817 39.7972C17.4917 39.7872 17.5017 39.7472 17.4617 39.6972C17.4617 39.7272 17.4617 39.7372 17.4517 39.7572C17.4517 39.7572 17.4517 39.7472 17.4517 39.7372C17.4117 39.7672 17.4217 39.7972 17.4517 39.8072C17.4517 39.8172 17.4517 39.8372 17.4617 39.8572C17.4117 39.7572 17.3517 39.8772 17.3217 39.7372C17.2017 39.7972 17.1617 39.9672 17.1117 40.0572C17.0717 39.9972 17.0617 39.9272 17.0817 39.8872L17.0317 39.9472C16.9817 39.8472 17.0417 39.8772 17.0517 39.8472C16.8817 39.7372 16.9717 40.0772 16.8117 40.0072L16.8417 40.0872H16.8317C16.8317 40.0872 16.8817 40.1772 16.8817 40.1972C16.8117 40.1372 16.7417 40.0272 16.7117 40.0672C16.6217 40.0272 16.6517 40.1872 16.6617 40.2472C16.6917 40.2472 16.7217 40.2772 16.7417 40.3072C16.7317 40.3272 16.6517 40.2772 16.6717 40.3072L16.5717 40.2272C16.6717 40.2972 16.6317 40.3572 16.6717 40.3872C16.5917 40.3472 16.6317 40.3072 16.5717 40.2672C16.5217 40.3572 16.5417 40.3072 16.5017 40.3972C16.5617 40.4872 16.6117 40.4472 16.6917 40.5272C16.6917 40.5772 16.7617 40.6372 16.6717 40.6472L16.7817 40.6772C16.8417 40.7672 16.8217 40.7872 16.7017 40.7972C16.8917 40.9672 17.0917 41.0072 17.2517 41.0172C17.4117 41.0272 17.5417 41.0372 17.6317 41.0172C17.5917 41.0172 17.5817 41.0172 17.5817 41.0172C17.5717 41.0172 17.5817 41.0172 17.5817 41.0172L17.5317 41.0472Z" fill="#8E8E8E"/>
<path d="M14.772 45.4152C15.1531 45.4152 15.462 45.1062 15.462 44.7252C15.462 44.3441 15.1531 44.0352 14.772 44.0352C14.391 44.0352 14.082 44.3441 14.082 44.7252C14.082 45.1062 14.391 45.4152 14.772 45.4152Z" fill="#8E8E8E"/>
<path d="M13.9727 43.7345L14.0127 43.7545C14.0127 43.7545 13.9827 43.7245 13.9727 43.7345Z" fill="#8E8E8E"/>
<path d="M14.772 44.7347C14.772 44.7547 14.772 44.7347 14.772 44.7347C14.772 44.7347 14.792 44.7247 14.892 44.6747C14.902 44.6747 14.792 44.7147 14.782 44.7247C14.812 44.7147 14.892 44.6847 14.892 44.6847H14.852H14.882L15.062 44.6347C15.062 44.6347 14.842 44.6947 14.882 44.6847L15.032 44.6547C15.032 44.6547 14.952 44.6847 14.872 44.6947C14.832 44.6947 14.782 44.7047 14.752 44.7047H14.772C14.832 44.7347 14.792 44.7347 14.772 44.7047C14.772 44.7047 14.772 44.6447 14.762 44.7547C14.712 44.8947 14.742 44.7347 14.772 44.7047C14.772 44.7047 14.792 44.7047 14.692 44.7047C14.612 44.7047 14.482 44.7047 14.292 44.7047C14.102 44.7147 13.822 44.7347 13.522 45.0347H13.482C13.432 45.1947 13.462 45.3047 13.672 45.3047C13.482 45.4247 13.712 45.4147 13.672 45.4747H13.652C13.842 45.4447 13.652 45.7247 13.832 45.6747C13.812 45.6847 13.772 45.7347 13.752 45.7147C13.822 45.7447 13.912 45.7547 13.832 45.8647C13.972 45.9347 14.152 46.1047 14.312 45.9347L14.292 45.9647C14.392 45.8447 14.362 45.9647 14.442 45.9147C14.442 45.9347 14.442 45.9447 14.442 45.9447C14.532 45.8247 14.602 45.9547 14.652 45.9047V45.9947L14.752 45.9847L14.712 45.9647C14.732 45.7247 14.792 46.1247 14.872 45.9647C14.962 45.9847 14.932 45.4447 14.992 45.5547C14.992 45.4347 15.012 45.7447 15.032 45.6447C15.062 45.7647 15.032 45.7247 15.072 45.8247C15.102 45.7547 15.192 45.9247 15.222 45.8247L15.262 45.9147C15.262 45.7147 15.472 45.9647 15.432 45.7847C15.452 45.6747 15.652 45.9947 15.612 45.7847L15.732 45.8647C15.732 45.8647 15.652 45.7147 15.732 45.7347C15.792 45.7947 15.822 45.7347 15.862 45.8147C16.052 45.8147 15.872 45.5247 16.132 45.5247C16.012 45.4147 16.132 45.3947 16.032 45.3147C16.102 45.3447 16.102 45.1847 16.212 45.3247C16.212 45.3347 16.212 45.3447 16.192 45.3347L16.272 45.3847C16.482 45.3647 16.242 45.1847 16.292 45.1147C16.252 45.1347 16.252 45.1647 16.192 45.1247L16.222 45.0547L16.302 45.0947C16.302 45.0947 16.352 45.0247 16.372 44.9847H16.272C16.332 44.9347 16.512 44.9347 16.372 44.8447C16.292 44.8047 16.232 44.8847 16.202 44.8247C16.282 44.7647 16.382 44.6347 16.402 44.5247C16.292 44.5447 16.292 44.5247 16.262 44.4947L16.362 44.4747C16.212 44.3947 16.572 44.3947 16.442 44.3047H16.512L16.302 44.3147C16.092 44.2847 16.482 44.1947 16.192 44.1847C16.222 44.2147 15.992 44.2747 16.022 44.2247L16.112 44.2047C16.112 44.2047 16.042 44.2047 16.052 44.1747C16.102 44.1747 16.182 44.1247 16.152 44.0947L16.272 44.0747C16.202 44.0747 16.142 44.0747 16.082 44.0747C16.152 43.9747 15.982 43.9547 16.082 43.8647C16.082 43.8647 16.052 43.7147 15.922 43.7847C16.012 43.7447 15.992 43.6647 16.082 43.6147C15.972 43.6547 15.852 43.6447 15.892 43.5347H15.902C15.852 43.3247 15.602 43.4847 15.552 43.3047C15.502 43.4047 15.472 43.3247 15.422 43.4647C15.262 43.5447 15.292 43.0847 15.122 43.5147C15.062 43.5247 15.082 43.3947 15.062 43.3647L15.082 43.3447C14.972 43.3647 14.942 43.3647 14.862 43.3447C14.822 43.3847 14.812 43.5947 14.752 43.5547C14.772 43.4747 14.752 43.4847 14.722 43.4847C14.732 43.4747 14.742 43.4347 14.702 43.3847C14.702 43.4147 14.702 43.4247 14.692 43.4447C14.692 43.4447 14.692 43.4347 14.692 43.4247C14.652 43.4547 14.662 43.4847 14.692 43.4947C14.692 43.5047 14.692 43.5247 14.702 43.5447C14.652 43.4447 14.592 43.5647 14.562 43.4247C14.442 43.4847 14.402 43.6547 14.352 43.7447C14.312 43.6847 14.302 43.6147 14.322 43.5747L14.272 43.6347C14.222 43.5347 14.282 43.5647 14.292 43.5347C14.122 43.4247 14.212 43.7647 14.052 43.6947L14.082 43.7747H14.072C14.072 43.7747 14.122 43.8647 14.122 43.8847C14.052 43.8247 13.982 43.7147 13.952 43.7547C13.862 43.7147 13.892 43.8747 13.902 43.9347C13.932 43.9347 13.962 43.9647 13.982 43.9947C13.972 44.0147 13.892 43.9647 13.912 43.9947L13.812 43.9147C13.912 43.9847 13.872 44.0447 13.912 44.0747C13.832 44.0347 13.872 43.9947 13.812 43.9547C13.762 44.0447 13.782 43.9947 13.742 44.0847C13.802 44.1747 13.852 44.1347 13.932 44.2147C13.932 44.2647 14.002 44.3247 13.912 44.3347L14.022 44.3647C14.082 44.4547 14.062 44.4747 13.942 44.4847C14.132 44.6547 14.332 44.6947 14.492 44.7047C14.652 44.7147 14.782 44.7247 14.872 44.7047C14.832 44.7047 14.822 44.7047 14.822 44.7047C14.812 44.7047 14.822 44.7047 14.822 44.7047L14.772 44.7347Z" fill="#8E8E8E"/>
<path d="M35.291 53.0373C35.311 52.9473 35.341 52.8673 35.371 52.7773C35.351 52.7773 35.311 52.8373 35.291 53.0373Z" fill="#8E8E8E"/>
<path d="M58.5723 47.7559C58.5723 47.7559 58.5723 47.7959 58.5723 47.8159C58.5723 47.7759 58.5823 47.7559 58.5723 47.7559Z" fill="#8E8E8E"/>
<path d="M41.7317 46.0862H41.7216L41.6816 46.1362L41.7317 46.0762V46.0862Z" fill="#8E8E8E"/>
<path d="M36.9918 55.8067C36.5818 54.3967 36.7518 53.4467 36.9718 52.5667C37.2418 51.6867 37.5918 50.7967 38.4618 49.4867C39.3518 48.2767 40.5218 47.0767 41.7218 46.1067C42.1918 45.5067 43.3518 44.8867 44.0118 44.2967L44.3518 44.1967C44.5818 43.9967 44.8718 43.7767 45.1618 43.6667V43.6967C45.5118 43.3967 45.9818 43.1867 46.1618 43.0467V43.0767L46.6418 42.8067L46.5818 42.8867C47.0318 42.5867 47.4618 42.3367 47.9718 42.0667C48.4018 41.8567 48.7118 41.4867 48.8818 41.0767L48.7318 41.1267C48.8018 40.9767 48.8518 40.8267 48.8818 40.6667C48.8918 40.5867 48.9018 40.5167 48.9118 40.4367V40.3067C48.9318 40.1467 48.9518 40.0067 48.9618 39.8667C48.9818 39.5967 49.0018 39.3467 49.0218 39.1067C49.0718 38.6267 49.1518 38.1567 49.4118 37.5467L49.4318 37.5767C49.5318 36.7267 49.8618 36.1267 50.2118 35.5567C50.5718 34.9867 50.9718 34.4467 51.3818 33.6667C51.2818 33.8567 51.4818 33.6267 51.5018 33.6667C51.9618 33.0067 52.5618 32.3867 52.4118 32.2167C52.8418 31.7967 52.8118 31.9367 52.9218 31.9367C52.8518 31.8667 53.2018 31.4867 53.5618 31.1867L53.4218 31.3567C53.7518 31.0667 54.1018 30.7867 54.4618 30.5167H54.1418C54.7618 30.1467 54.4218 30.5967 54.9618 30.1867L54.8718 30.0567C55.7318 29.5567 56.3618 29.5067 57.2518 29.2667C58.1418 28.9267 59.0818 28.6667 60.0118 28.5867C60.9418 28.5067 61.8818 28.6167 62.5718 29.0767C63.2718 29.5867 63.9818 30.3567 64.4018 31.1467C64.8418 31.9467 65.0618 32.8367 65.0518 33.6967L64.9418 33.8567C64.7918 33.9167 65.2018 34.7967 65.0118 34.9367L65.0418 35.3467C64.9918 35.4567 64.9218 35.6867 64.9218 35.4867C64.8518 35.8567 64.8718 35.8667 64.8618 36.1467L64.6618 36.5167C64.1718 37.9267 63.7718 39.1967 62.8618 40.5667C61.7918 41.9367 59.8818 44.4467 58.2218 45.7867C58.0318 45.9367 57.8818 46.1167 57.7718 46.3067C57.6618 46.4867 57.6018 46.7367 57.5818 46.8267C57.4118 47.5767 57.1818 48.3467 56.9118 49.1167C56.6318 49.8767 56.2618 50.6167 55.8618 51.3367C55.0618 52.7767 54.1118 54.0867 53.2418 55.3367C53.1618 55.3967 53.0318 55.6267 53.0518 55.6367C52.4318 56.3267 51.7418 56.9567 51.0118 57.5067C51.0118 57.5067 50.3518 58.0367 49.4018 58.5867C48.4618 59.1467 47.2018 59.6867 46.2018 60.0167C45.2118 60.3567 44.4818 60.5467 44.6918 60.7267C44.7918 60.8067 45.1318 60.8867 45.7918 60.8767C46.4518 60.8767 47.4418 60.7867 48.8018 60.3867L48.7518 60.4467C50.3118 59.8467 51.2218 59.2367 52.0018 58.3967C52.3018 58.4767 53.0618 57.5367 53.3718 57.3067V57.3467C53.9518 56.5167 54.8818 55.8967 55.3218 55.0067C55.3218 55.0467 55.3518 55.1067 55.2218 55.2867C55.6218 54.6967 56.0918 53.8467 56.2318 53.8667C57.0918 52.4067 58.0918 50.2467 58.1718 49.1467V49.2267C58.2318 48.6067 58.4018 48.4767 58.5318 47.8067C58.5618 47.7767 58.5818 47.7367 58.5918 47.7467C58.6118 47.5567 58.6618 47.3367 58.7218 47.0967C58.7618 46.9167 58.8218 46.8367 58.9418 46.7467C59.2818 46.5067 59.5918 46.2567 59.7618 46.0767L59.8418 46.1167C60.1718 45.8167 60.4918 45.5067 60.8018 45.1967L60.4317 45.5267C60.3818 45.2367 61.2718 44.9367 61.7918 44.1067C62.4218 43.4467 62.5618 42.3967 63.1718 41.7167C63.3318 41.2867 63.1018 42.1367 63.4018 41.5467C63.5218 41.5967 63.2918 41.8467 63.4718 41.7667C63.7818 41.1967 64.1818 40.9467 64.5018 40.1967L64.6018 40.2167C64.9618 39.2167 65.6118 38.4767 65.6918 37.7367C65.9518 36.6667 66.2218 37.1167 66.2918 35.9267L66.5018 35.4967C66.5818 34.9867 66.3918 35.1167 66.4818 34.5567C66.5718 34.5967 66.5518 33.8367 66.6418 34.1667C66.7518 32.8367 66.1918 31.5067 65.4518 29.9467C65.1218 29.7067 64.6618 28.9767 64.3718 28.8667C64.3818 28.8267 64.0918 28.5167 63.8818 28.3067C63.6718 28.0967 63.5318 27.9467 63.9618 28.2267C64.0318 28.2667 64.1318 28.3767 64.1118 28.3867H64.2618C64.0018 28.0067 63.5618 27.6467 63.0818 27.4567C62.6118 27.2567 62.1218 27.1567 61.6218 27.0467C61.9218 27.1267 62.3118 27.2567 62.0318 27.2367C61.7218 27.1467 61.4118 27.0867 61.1018 27.0467L61.3018 26.9867C60.8318 26.8967 60.3718 26.8867 59.9118 26.8867L60.1018 26.9767C59.4418 26.9667 59.1718 26.8167 58.4818 27.1067C58.1818 27.2567 59.1118 27.1167 58.4518 27.2867C57.6018 27.3967 56.3518 27.7267 55.3718 28.2067C55.5118 28.2667 55.2518 28.3867 55.0018 28.5567L54.9218 28.4867C54.0118 29.1867 54.4318 28.4867 53.5418 29.2167L53.5818 29.1067L53.4518 29.4467C52.7618 30.2167 52.8718 29.6067 52.1718 30.5467C52.5018 30.2367 52.4718 30.5667 52.0418 30.9067L52.0818 30.7467C51.8718 30.9667 51.8318 31.0667 51.6718 31.1867C51.7618 31.0267 51.6418 31.0167 51.3418 31.3467L51.4718 31.0467C51.3118 31.2867 51.1618 31.5367 51.0118 31.7767C50.4818 32.1867 49.9618 33.0967 49.7018 33.2367C49.7018 33.2367 49.4818 33.5167 49.2718 33.8567C49.0618 34.1867 48.8718 34.5867 48.8618 34.7667C48.9118 34.4667 48.5218 35.1467 48.5218 34.9067C48.4318 35.2867 48.0818 36.3167 47.8518 36.6967V36.6167C47.5518 37.3667 47.4218 38.0667 47.3518 38.7367C47.3218 39.0767 47.2918 39.4067 47.2718 39.7467C47.2618 39.9167 47.2518 40.0867 47.2318 40.2567C47.2318 40.3767 47.2218 40.3467 47.2118 40.3667C47.2118 40.3767 47.1918 40.3867 47.1818 40.3967C47.3118 40.4367 47.1518 40.5367 47.2718 40.6067C47.2518 40.6267 47.2318 40.6467 47.2118 40.6667C46.1418 41.3367 44.9718 41.5267 44.7818 42.1467C44.2318 42.4967 44.0718 42.4467 43.7718 42.6067L43.8918 42.5067C42.8718 43.1967 42.5818 43.3967 41.8418 43.8967C41.5018 44.1967 41.5618 44.4067 40.8918 44.8667C41.0418 44.6367 40.7918 44.8567 40.5618 45.0467C40.7018 44.9167 40.7318 44.8567 40.3818 45.0567C40.3518 45.1167 40.3018 45.1767 40.2418 45.2467H40.2218C39.8518 45.5967 39.9418 45.5667 40.1218 45.4167C40.1218 45.4367 40.1418 45.4367 40.2218 45.4067C39.7418 45.6567 39.1318 46.3967 38.9918 46.3367C37.9118 47.4467 37.3218 48.4167 36.7218 49.5467C36.5818 49.6367 36.6818 49.3467 36.8618 49.0067C36.7118 49.2767 36.5418 49.5367 36.4118 49.8167C36.3118 49.7567 36.6218 49.3167 36.7518 49.0667C36.0118 49.9267 35.7818 51.1467 35.3818 52.3967L35.4218 52.6867L35.3918 52.7667C35.3918 52.7667 35.4618 53.0667 35.4618 53.2667C35.3618 53.4467 35.2218 53.2367 35.2218 53.8967C35.1218 54.4267 35.3718 55.3967 35.6318 56.0167C35.5418 55.6667 35.6318 55.7667 35.7018 55.9067C35.7918 56.2167 35.7618 56.4267 35.9018 56.6367L35.7918 56.7167C35.8418 56.5567 36.2418 57.4467 36.3618 57.5167C36.3618 57.7267 36.0618 57.1067 35.9718 57.0567C36.5818 58.2167 36.2318 57.6467 36.9818 58.7367C37.5118 59.2167 36.9918 58.5667 37.2918 58.7567C37.7018 59.2067 38.1818 59.5467 38.7018 59.9967C38.6618 59.9267 38.6218 59.8567 38.5918 59.7767C39.5518 60.3467 40.1418 60.5967 40.8218 60.9267C42.8918 61.2767 43.9718 60.7467 44.4718 60.5867C44.9718 60.3767 44.9218 60.2367 44.6218 60.1867C44.3418 60.1067 43.8118 60.1067 43.3918 60.0867C42.9818 60.0567 42.6318 60.0067 42.6318 60.0067C41.2718 59.7667 40.3118 59.3867 39.3918 58.8267C38.9418 58.5367 38.5018 58.1867 38.1018 57.7067C37.7018 57.2167 37.2918 56.5867 37.0118 55.8067H36.9918Z" fill="#8E8E8E"/>
<path d="M48.3826 55.5255C47.9026 55.1055 48.3026 54.4055 48.9126 54.6055C48.9426 54.6155 48.9726 54.6355 48.9926 54.6555C49.4726 55.0755 49.0726 55.7755 48.4626 55.5755C48.4326 55.5655 48.4026 55.5455 48.3826 55.5255Z" fill="#8E8E8E"/>
<path d="M47.5918 55.1665L47.6418 55.1465C47.6418 55.1465 47.6018 55.1465 47.5918 55.1665Z" fill="#8E8E8E"/>
<path d="M48.7021 55.0857H48.6921C48.6921 55.1057 48.6921 55.0857 48.6921 55.1057C48.6921 55.1057 48.6921 55.1357 48.6921 55.1757C48.6921 55.1757 48.6921 55.1857 48.6921 55.2057C48.6921 55.1857 48.6821 55.2757 48.7021 55.1257C48.7021 55.1257 48.702 55.1757 48.682 55.2357C48.682 55.2357 48.7021 55.1257 48.7021 55.1457V55.1857V55.1557L48.7521 54.9757C48.7521 55.0257 48.6921 55.1957 48.7121 55.1557L48.7621 55.0057V55.0157L48.8321 54.8157L48.4721 55.2257C48.4721 55.2257 48.4721 55.2257 48.4921 55.2057C48.4921 55.2057 48.5121 55.1857 48.5321 55.1657C48.5721 55.1357 48.5721 55.1357 48.5921 55.1157C48.6321 55.0957 48.6521 55.0857 48.6621 55.0857C48.6621 55.0857 48.6621 55.0857 48.6521 55.0357V54.9657C48.6521 54.9657 48.6521 54.9657 48.6521 54.9057C48.6521 54.8757 48.6621 54.8657 48.6521 54.9057V54.9257C48.6021 55.0657 48.5521 55.2057 48.5021 55.3557C48.5021 55.3557 48.5021 55.3457 48.4821 55.3657C48.3521 55.4957 48.2021 55.7557 48.3021 56.1657V56.1957C48.3621 56.3057 48.4421 56.3457 48.5321 56.1657C48.5321 56.3957 48.6221 56.1957 48.6421 56.2657V56.2857C48.7021 56.1057 48.8021 56.4257 48.8621 56.2557C48.8621 56.2757 48.8721 56.3357 48.8621 56.3457C48.9121 56.3057 48.9721 56.2357 49.0121 56.3657C49.1321 56.3057 49.3521 56.2557 49.2921 56.0357L49.3121 56.0657C49.2621 55.9257 49.3521 56.0157 49.3421 55.9257C49.3521 55.9357 49.3621 55.9457 49.3721 55.9457C49.3121 55.8057 49.452 55.8357 49.432 55.7657L49.5021 55.8257C49.5021 55.8257 49.5321 55.7657 49.5421 55.7357L49.5021 55.7557C49.3121 55.5957 49.6721 55.7857 49.5721 55.6457C49.6421 55.5957 49.1721 55.3157 49.2921 55.3357C49.1921 55.2757 49.4621 55.4157 49.3921 55.3557C49.5121 55.3957 49.4621 55.3957 49.5621 55.4257C49.5221 55.3657 49.7021 55.4057 49.6421 55.3257L49.7421 55.3457C49.5821 55.2457 49.8921 55.2257 49.7321 55.1557C49.6521 55.0857 50.0321 55.1057 49.8321 55.0257L49.9621 54.9857C49.9621 54.9857 49.7921 54.9757 49.8521 54.9257C49.9321 54.9257 49.9121 54.8657 49.9921 54.8757C50.0921 54.7357 49.7721 54.7257 49.9221 54.5357C49.7621 54.5757 49.8221 54.4757 49.7021 54.5157C49.7621 54.4757 49.6521 54.4057 49.8221 54.3857C49.8321 54.3857 49.8421 54.3857 49.8221 54.4057L49.9121 54.3657C50.0321 54.2057 49.7521 54.3057 49.7321 54.2357C49.7221 54.2757 49.7321 54.2857 49.6721 54.3157L49.6421 54.2557L49.7121 54.2157L49.6921 54.1157L49.6221 54.1957C49.6321 54.1357 49.7421 53.9957 49.6021 54.0657C49.5321 54.1057 49.5321 54.1957 49.4821 54.1857C49.4821 54.1357 49.5021 54.0957 49.4821 54.0257C49.4421 53.9457 49.3921 53.8757 49.3221 53.8157C49.2821 53.9257 49.2521 53.9057 49.2021 53.9057L49.2321 53.8157C49.0321 53.8857 49.2521 53.5857 49.1221 53.6557L49.1521 53.5957L49.0721 53.7857C48.9521 53.9557 49.0721 53.5757 48.9421 53.8157C48.9721 53.8157 48.9121 54.0357 48.8921 53.9857L48.9221 53.8957C48.9221 53.8957 48.8821 53.9457 48.8721 53.9257C48.8921 53.8757 48.9021 53.7857 48.8721 53.8057L48.9121 53.6857L48.8221 53.8557C48.7821 53.7457 48.702 53.8757 48.682 53.7357C48.682 53.7357 48.5621 53.6757 48.5521 53.8257C48.5721 53.7357 48.5021 53.7057 48.5121 53.5957C48.4821 53.7057 48.4221 53.7957 48.3621 53.6957C48.1821 53.6057 48.1821 53.8857 48.0221 53.8157C48.0821 53.9157 47.9921 53.8857 48.0721 54.0157C48.0621 54.1857 47.7121 53.8957 47.9621 54.2757C47.9421 54.3257 47.8521 54.2357 47.8121 54.2357V54.2057C47.7621 54.3057 47.7421 54.3157 47.6921 54.3657C47.7021 54.4257 47.8721 54.5457 47.8021 54.5657C47.7421 54.5057 47.7421 54.5357 47.7321 54.5457C47.7321 54.5257 47.7021 54.5057 47.6421 54.5057C47.6621 54.5257 47.672 54.5357 47.682 54.5457C47.682 54.5457 47.6721 54.5457 47.6621 54.5457C47.6621 54.5957 47.7021 54.5957 47.7121 54.5857C47.7221 54.5857 47.7421 54.5957 47.7621 54.6057C47.6521 54.5857 47.7221 54.6957 47.5921 54.6357C47.5721 54.7557 47.7021 54.8757 47.7421 54.9457C47.6721 54.9457 47.6021 54.9157 47.5821 54.8857L47.6021 54.9557C47.4921 54.9357 47.5421 54.9057 47.5321 54.8857C47.3421 54.9457 47.6821 55.0557 47.5321 55.1357L47.6221 55.1557H47.6121C47.6121 55.1557 47.7221 55.1757 47.7321 55.1857C47.6421 55.2057 47.5121 55.2057 47.5221 55.2457C47.4321 55.2957 47.5821 55.3457 47.6421 55.3657C47.6421 55.3357 47.7021 55.3357 47.7421 55.3357C47.7421 55.3557 47.6621 55.3857 47.7021 55.3957L47.5821 55.4357C47.6921 55.3957 47.7221 55.4457 47.7721 55.4357C47.6921 55.4757 47.6921 55.4357 47.6221 55.4457C47.6621 55.5257 47.642 55.4857 47.682 55.5557C47.782 55.5557 47.7921 55.4957 47.8921 55.4757C47.9321 55.4957 48.0121 55.4757 47.9721 55.5457L48.0621 55.4757C48.1621 55.4757 48.1621 55.4957 48.0921 55.5857C48.5521 55.4157 48.7121 55.1257 48.8421 54.9857C48.8721 54.9557 48.8021 55.0257 48.8121 55.0157C48.7321 55.0857 48.7021 55.0957 48.6721 55.1057L48.7021 55.0857Z" fill="#8E8E8E"/>
<path d="M51.8513 52.4552C51.3713 52.0352 51.7713 51.3352 52.3813 51.5352C52.4113 51.5452 52.4413 51.5652 52.4613 51.5852C52.9413 52.0052 52.5413 52.7052 51.9313 52.5052C51.9013 52.4952 51.8713 52.4752 51.8513 52.4552Z" fill="#8E8E8E"/>
<path d="M51.0605 52.0845L51.1106 52.0645C51.1106 52.0645 51.0705 52.0645 51.0605 52.0845Z" fill="#8E8E8E"/>
<path d="M52.1704 52.0154H52.1604C52.1604 52.0354 52.1604 52.0154 52.1604 52.0354C52.1604 52.0554 52.1604 52.0654 52.1604 52.1054C52.1604 52.1054 52.1604 52.1154 52.1604 52.1354C52.1604 52.1154 52.1504 52.2054 52.1704 52.0554C52.1704 52.0554 52.1704 52.1054 52.1504 52.1654C52.1504 52.1654 52.1704 52.0554 52.1704 52.0754V52.1154V52.0854L52.2204 51.9054C52.2204 51.9554 52.1604 52.1254 52.1804 52.0854L52.2304 51.9354V51.9454L52.3004 51.7454L51.9404 52.1554C51.9404 52.1554 51.9404 52.1454 51.9604 52.1354C51.9604 52.1354 51.9804 52.1154 52.0004 52.0954C52.0404 52.0654 52.0404 52.0554 52.0704 52.0454C52.1104 52.0254 52.1304 52.0154 52.1404 52.0154C52.1404 52.0154 52.1404 52.0154 52.1304 51.9654V51.8954C52.1304 51.8954 52.1304 51.8954 52.1304 51.8354C52.1304 51.8054 52.1404 51.7954 52.1304 51.8354V51.8554C52.0804 51.9954 52.0304 52.1354 51.9804 52.2854C51.9804 52.2854 51.9804 52.2754 51.9604 52.2954C51.8304 52.4254 51.6804 52.6854 51.7804 53.0954V53.1254C51.8404 53.2354 51.9204 53.2754 52.0104 53.0954C52.0104 53.3254 52.1004 53.1254 52.1204 53.1954V53.2154C52.1804 53.0354 52.2804 53.3554 52.3404 53.1854C52.3404 53.2054 52.3504 53.2654 52.3404 53.2754C52.3904 53.2354 52.4504 53.1654 52.4904 53.2954C52.6104 53.2354 52.8304 53.1854 52.7704 52.9654L52.7904 52.9954C52.7404 52.8554 52.8304 52.9454 52.8204 52.8554C52.8304 52.8654 52.8404 52.8754 52.8504 52.8754C52.7904 52.7354 52.9304 52.7654 52.9104 52.6954L52.9804 52.7554C52.9804 52.7554 53.0104 52.6954 53.0204 52.6654L52.9804 52.6854C52.7904 52.5254 53.1504 52.7154 53.0504 52.5754C53.1204 52.5254 52.6504 52.2454 52.7704 52.2654C52.6704 52.2054 52.9404 52.3454 52.8704 52.2854C52.9904 52.3254 52.9404 52.3254 53.0404 52.3554C53.0004 52.2954 53.1804 52.3354 53.1204 52.2554L53.2204 52.2754C53.0604 52.1754 53.3704 52.1554 53.2104 52.0854C53.1304 52.0154 53.5104 52.0354 53.3104 51.9554L53.4404 51.9154C53.4404 51.9154 53.2704 51.9054 53.3304 51.8554C53.4104 51.8554 53.3904 51.7954 53.4704 51.8054C53.5704 51.6654 53.2504 51.6554 53.4004 51.4654C53.2404 51.5054 53.3004 51.4054 53.1804 51.4454C53.2404 51.4054 53.1304 51.3354 53.3004 51.3154C53.3104 51.3154 53.3204 51.3154 53.3004 51.3354L53.3904 51.2954C53.5104 51.1354 53.2304 51.2354 53.2104 51.1654C53.2004 51.2054 53.2104 51.2154 53.1504 51.2454L53.1204 51.1854L53.1904 51.1454L53.1704 51.0454L53.1004 51.1254C53.1104 51.0654 53.2204 50.9254 53.0804 50.9954C53.0104 51.0354 53.0104 51.1254 52.9604 51.1154C52.9604 51.0654 52.9804 51.0254 52.9604 50.9554C52.9204 50.8754 52.8704 50.8054 52.8004 50.7454C52.7604 50.8554 52.7304 50.8354 52.6804 50.8354L52.7104 50.7454C52.5104 50.8154 52.7304 50.5154 52.6004 50.5854L52.6304 50.5254L52.5504 50.7154C52.4304 50.8854 52.5504 50.5054 52.4204 50.7454C52.4504 50.7454 52.3904 50.9654 52.3704 50.9154L52.4004 50.8254C52.4004 50.8254 52.3604 50.8754 52.3504 50.8554C52.3704 50.8054 52.3804 50.7154 52.3504 50.7354L52.3904 50.6154L52.3004 50.7854C52.2604 50.6754 52.1804 50.8054 52.1604 50.6654C52.1604 50.6654 52.0404 50.6054 52.0304 50.7554C52.0504 50.6654 51.9804 50.6354 51.9904 50.5254C51.9604 50.6354 51.9004 50.7254 51.8404 50.6254C51.6604 50.5354 51.6604 50.8154 51.5004 50.7454C51.5604 50.8454 51.4704 50.8154 51.5504 50.9454C51.5404 51.1154 51.1904 50.8254 51.4404 51.2054C51.4204 51.2554 51.3304 51.1654 51.2904 51.1654V51.1354C51.2404 51.2354 51.2204 51.2454 51.1704 51.2954C51.1804 51.3554 51.3504 51.4754 51.2804 51.4954C51.2204 51.4354 51.2204 51.4654 51.2104 51.4754C51.2104 51.4554 51.1804 51.4354 51.1204 51.4354C51.1404 51.4554 51.1504 51.4654 51.1604 51.4754C51.1604 51.4754 51.1504 51.4754 51.1404 51.4754C51.1404 51.5254 51.1804 51.5254 51.1904 51.5154C51.2004 51.5154 51.2204 51.5254 51.2404 51.5354C51.1304 51.5154 51.2004 51.6254 51.0704 51.5654C51.0504 51.6854 51.1804 51.8054 51.2204 51.8754C51.1504 51.8754 51.0804 51.8454 51.0604 51.8154L51.0804 51.8854C50.9704 51.8654 51.0204 51.8354 51.0104 51.8154C50.8304 51.8754 51.1604 51.9854 51.0104 52.0654L51.1004 52.0854H51.0904C51.0904 52.0854 51.2004 52.1054 51.2104 52.1154C51.1204 52.1354 50.9904 52.1354 51.0004 52.1754C50.9104 52.2254 51.0604 52.2754 51.1204 52.2954C51.1204 52.2654 51.1804 52.2654 51.2204 52.2654C51.2204 52.2854 51.1404 52.3154 51.1804 52.3254L51.0604 52.3654C51.1704 52.3254 51.2004 52.3754 51.2504 52.3654C51.1704 52.4054 51.1704 52.3654 51.1004 52.3754C51.1404 52.4554 51.1204 52.4154 51.1604 52.4854C51.2604 52.4854 51.2704 52.4254 51.3704 52.4054C51.4104 52.4254 51.4904 52.4054 51.4504 52.4754L51.5404 52.4154C51.6404 52.4154 51.6404 52.4354 51.5704 52.5254C52.0304 52.3554 52.1904 52.0654 52.3204 51.9254C52.3504 51.8954 52.2804 51.9654 52.2904 51.9554C52.2104 52.0254 52.1804 52.0354 52.1504 52.0454L52.1704 52.0154Z" fill="#8E8E8E"/>
<path d="M40.5115 55.4962C40.0315 55.0762 40.4315 54.3762 41.0415 54.5762C41.0715 54.5862 41.1015 54.6062 41.1215 54.6262C41.6015 55.0462 41.2015 55.7462 40.5915 55.5462C40.5615 55.5362 40.5315 55.5162 40.5115 55.4962Z" fill="#8E8E8E"/>
<path d="M39.7207 55.1255L39.7707 55.1055C39.7707 55.1055 39.7307 55.1055 39.7207 55.1255Z" fill="#8E8E8E"/>
<path d="M40.8306 55.0562H40.8205C40.8205 55.0562 40.8205 55.0562 40.8205 55.0762C40.8205 55.0962 40.8205 55.1062 40.8205 55.1462C40.8205 55.1462 40.8205 55.1562 40.8205 55.1762C40.8205 55.1562 40.8106 55.2462 40.8306 55.0962C40.8306 55.0962 40.8305 55.1462 40.8105 55.2062C40.8105 55.2062 40.8306 55.0962 40.8306 55.1162V55.1562V55.1262L40.8805 54.9462C40.8805 54.9962 40.8205 55.1662 40.8405 55.1262L40.8906 54.9762V54.9862L40.9606 54.7862L40.6005 55.1962C40.6005 55.1962 40.6005 55.1862 40.6205 55.1762C40.6205 55.1762 40.6405 55.1562 40.6605 55.1362C40.7005 55.1062 40.7006 55.0962 40.7306 55.0862C40.7706 55.0662 40.7906 55.0562 40.8006 55.0562C40.8006 55.0562 40.8006 55.0562 40.7906 55.0062V54.9362C40.7906 54.9362 40.7906 54.9362 40.7906 54.8762C40.7906 54.8462 40.8006 54.8362 40.7906 54.8762V54.8962C40.7406 55.0362 40.6906 55.1762 40.6406 55.3262C40.6406 55.3262 40.6405 55.3162 40.6205 55.3362C40.4905 55.4662 40.3405 55.7262 40.4405 56.1362V56.1662C40.5005 56.2862 40.5806 56.3162 40.6706 56.1362C40.6706 56.3662 40.7605 56.1662 40.7805 56.2462V56.2662C40.8405 56.0862 40.9405 56.4062 41.0005 56.2362C41.0005 56.2562 41.0105 56.3162 41.0005 56.3262C41.0505 56.2862 41.1105 56.2162 41.1505 56.3462C41.2705 56.2862 41.4905 56.2362 41.4305 56.0162L41.4506 56.0462C41.4006 55.9062 41.4906 55.9962 41.4806 55.9062C41.4906 55.9162 41.5006 55.9262 41.5106 55.9262C41.4506 55.7862 41.5905 55.8162 41.5705 55.7462L41.6406 55.8062C41.6406 55.8062 41.6705 55.7462 41.6805 55.7162L41.6406 55.7362C41.4506 55.5762 41.8106 55.7662 41.7106 55.6262C41.7806 55.5762 41.3105 55.2962 41.4305 55.3162C41.3305 55.2562 41.6005 55.3962 41.5305 55.3362C41.6505 55.3762 41.6006 55.3762 41.7006 55.4062C41.6606 55.3462 41.8405 55.3862 41.7805 55.3062L41.8805 55.3262C41.7205 55.2262 42.0305 55.2062 41.8705 55.1362C41.7905 55.0662 42.1705 55.0862 41.9705 55.0062L42.1005 54.9662C42.1005 54.9662 41.9306 54.9562 41.9906 54.9062C42.0706 54.9062 42.0505 54.8462 42.1305 54.8562C42.2305 54.7162 41.9105 54.7062 42.0605 54.5162C41.9005 54.5562 41.9605 54.4562 41.8405 54.4962C41.9005 54.4562 41.7906 54.3862 41.9606 54.3662C41.9706 54.3662 41.9806 54.3662 41.9606 54.3862L42.0506 54.3462C42.1706 54.1862 41.8905 54.2862 41.8705 54.2162C41.8605 54.2562 41.8705 54.2662 41.8105 54.2962L41.7805 54.2362L41.8505 54.1962L41.8306 54.0962L41.7606 54.1762C41.7706 54.1162 41.8806 53.9762 41.7406 54.0462C41.6706 54.0862 41.6705 54.1762 41.6205 54.1662C41.6205 54.1162 41.6405 54.0762 41.6205 54.0062C41.5805 53.9262 41.5306 53.8562 41.4606 53.7962C41.4206 53.9062 41.3905 53.8862 41.3405 53.8862L41.3705 53.7962C41.1705 53.8662 41.3906 53.5662 41.2606 53.6362L41.2906 53.5762L41.2106 53.7662C41.0906 53.9362 41.2106 53.5562 41.0806 53.7962C41.1106 53.7962 41.0505 54.0162 41.0305 53.9662L41.0605 53.8762C41.0605 53.8762 41.0206 53.9262 41.0106 53.9062C41.0306 53.8562 41.0406 53.7662 41.0106 53.7862L41.0506 53.6662L40.9606 53.8362C40.9206 53.7262 40.8405 53.8562 40.8205 53.7162C40.8205 53.7162 40.7005 53.6562 40.6905 53.8062C40.7105 53.7162 40.6405 53.6862 40.6505 53.5762C40.6205 53.6862 40.5605 53.7762 40.5005 53.6762C40.3205 53.5862 40.3205 53.8662 40.1605 53.7962C40.2205 53.8962 40.1306 53.8662 40.2106 53.9962C40.2006 54.1662 39.8505 53.8762 40.1005 54.2562C40.0805 54.3062 39.9906 54.2162 39.9506 54.2162V54.1862C39.9006 54.2862 39.8806 54.2962 39.8306 54.3462C39.8406 54.4062 40.0105 54.5262 39.9405 54.5462C39.8805 54.4862 39.8805 54.5162 39.8705 54.5262C39.8705 54.5062 39.8405 54.4862 39.7805 54.4862C39.8005 54.5062 39.8105 54.5162 39.8205 54.5262C39.8205 54.5262 39.8106 54.5262 39.8006 54.5262C39.8006 54.5762 39.8405 54.5762 39.8505 54.5662C39.8605 54.5662 39.8805 54.5762 39.9005 54.5862C39.7905 54.5662 39.8606 54.6762 39.7306 54.6162C39.7106 54.7362 39.8405 54.8562 39.8805 54.9262C39.8105 54.9262 39.7405 54.8962 39.7205 54.8662L39.7406 54.9362C39.6306 54.9162 39.6806 54.8862 39.6706 54.8662C39.4906 54.9262 39.8206 55.0362 39.6706 55.1162L39.7606 55.1362H39.7505C39.7505 55.1362 39.8605 55.1562 39.8705 55.1662C39.7805 55.1862 39.6505 55.1862 39.6605 55.2262C39.5705 55.2762 39.7205 55.3262 39.7805 55.3462C39.7805 55.3162 39.8405 55.3162 39.8805 55.3162C39.8805 55.3362 39.8005 55.3662 39.8405 55.3762L39.7205 55.4162C39.8305 55.3762 39.8605 55.4262 39.9105 55.4162C39.8305 55.4562 39.8306 55.4162 39.7606 55.4262C39.8006 55.5062 39.7805 55.4662 39.8205 55.5362C39.9205 55.5362 39.9305 55.4762 40.0305 55.4562C40.0705 55.4762 40.1506 55.4562 40.1106 55.5262L40.2006 55.4562C40.3006 55.4562 40.3006 55.4762 40.2306 55.5662C40.6906 55.3962 40.8506 55.1062 40.9806 54.9662C41.0106 54.9362 40.9406 55.0062 40.9506 54.9962C40.8706 55.0662 40.8405 55.0762 40.8105 55.0862L40.8306 55.0562Z" fill="#8E8E8E"/>
<path d="M58.3826 42.127C57.9026 41.707 58.3026 41.007 58.9126 41.207C58.9426 41.217 58.9726 41.237 58.9926 41.257C59.4726 41.677 59.0726 42.377 58.4626 42.177C58.4326 42.167 58.4026 42.147 58.3826 42.127Z" fill="#8E8E8E"/>
<path d="M57.5918 41.7563L57.6418 41.7363C57.6418 41.7363 57.6018 41.7363 57.5918 41.7563Z" fill="#8E8E8E"/>
<path d="M58.7021 41.687H58.6921C58.6921 41.687 58.6921 41.687 58.6921 41.707C58.6921 41.727 58.6921 41.737 58.6921 41.777C58.6921 41.777 58.6921 41.787 58.6921 41.807C58.6921 41.787 58.6821 41.877 58.7021 41.727C58.7021 41.707 58.682 41.847 58.682 41.837C58.682 41.837 58.7021 41.727 58.7021 41.747V41.787V41.757L58.7521 41.577C58.7521 41.627 58.6921 41.797 58.7121 41.757L58.7621 41.607V41.617L58.8321 41.417L58.4721 41.827C58.4721 41.827 58.4721 41.827 58.4921 41.807C58.4921 41.807 58.5121 41.787 58.5321 41.767C58.5721 41.737 58.5721 41.737 58.5921 41.717C58.6321 41.697 58.6521 41.687 58.6621 41.687C58.6621 41.687 58.6621 41.687 58.6521 41.637V41.567C58.6521 41.567 58.6521 41.567 58.6521 41.507C58.6521 41.477 58.6621 41.467 58.6521 41.507V41.527C58.6021 41.667 58.5521 41.807 58.5021 41.957C58.5021 41.957 58.5021 41.947 58.4821 41.967C58.3521 42.097 58.2021 42.357 58.3021 42.767V42.797C58.3621 42.917 58.4421 42.947 58.5321 42.767C58.5321 42.997 58.6221 42.797 58.6421 42.877V42.897C58.7021 42.717 58.8021 43.037 58.8621 42.867C58.8621 42.887 58.8721 42.947 58.8621 42.957C58.9121 42.917 58.9721 42.847 59.0121 42.977C59.1321 42.917 59.3521 42.867 59.2921 42.647L59.3121 42.677C59.2621 42.537 59.3521 42.627 59.3421 42.537C59.3521 42.547 59.3621 42.557 59.3721 42.557C59.3121 42.417 59.452 42.447 59.432 42.377L59.5021 42.437C59.5021 42.437 59.5321 42.377 59.5421 42.347L59.5021 42.367C59.3121 42.207 59.6721 42.397 59.5721 42.257C59.6421 42.207 59.1721 41.927 59.2921 41.947C59.1921 41.887 59.4621 42.027 59.3921 41.967C59.5121 42.007 59.4621 42.007 59.5621 42.037C59.5221 41.977 59.7121 42.017 59.6421 41.937L59.7421 41.957C59.5821 41.857 59.8921 41.837 59.7321 41.767C59.6521 41.697 60.0321 41.717 59.8321 41.637L59.9621 41.597C59.9621 41.597 59.7921 41.587 59.8521 41.537C59.9321 41.537 59.9121 41.477 59.9921 41.487C60.0921 41.347 59.772 41.337 59.932 41.147C59.772 41.187 59.8321 41.087 59.7121 41.127C59.7721 41.087 59.6621 41.017 59.8321 40.997C59.8421 40.997 59.8521 40.997 59.8321 41.017L59.9221 40.977C60.0421 40.817 59.7621 40.917 59.7421 40.847C59.7321 40.887 59.742 40.897 59.682 40.927L59.6521 40.867L59.7221 40.827L59.7021 40.727L59.6321 40.807C59.6421 40.747 59.7521 40.607 59.6121 40.677C59.5421 40.717 59.5421 40.807 59.4921 40.797C59.4921 40.747 59.5121 40.707 59.4921 40.637C59.4521 40.557 59.4021 40.487 59.3321 40.427C59.2921 40.537 59.2621 40.517 59.2121 40.517L59.2421 40.427C59.0421 40.497 59.2621 40.197 59.1221 40.267L59.1521 40.207L59.0721 40.397C58.9521 40.567 59.0721 40.187 58.9421 40.427C58.9721 40.427 58.9121 40.647 58.8921 40.597L58.9221 40.507C58.9221 40.507 58.8821 40.557 58.8721 40.537C58.8921 40.487 58.9021 40.397 58.8721 40.417L58.9121 40.297L58.8221 40.467C58.7821 40.357 58.702 40.487 58.682 40.347C58.682 40.347 58.5621 40.287 58.5521 40.437C58.5721 40.347 58.5021 40.317 58.5121 40.207C58.4821 40.317 58.4221 40.407 58.3621 40.307C58.1821 40.217 58.1821 40.497 58.0221 40.427C58.0821 40.527 57.9921 40.497 58.0721 40.627C58.0621 40.797 57.7121 40.507 57.9621 40.887C57.9421 40.937 57.8521 40.847 57.8121 40.847V40.817C57.7621 40.917 57.7421 40.927 57.6921 40.977C57.7021 41.037 57.8721 41.157 57.8021 41.177C57.7421 41.117 57.7421 41.147 57.7321 41.157C57.7321 41.137 57.7021 41.117 57.6421 41.117C57.6621 41.137 57.672 41.147 57.682 41.157C57.682 41.157 57.6721 41.157 57.6621 41.157C57.6621 41.207 57.7021 41.207 57.7121 41.197C57.7221 41.197 57.7421 41.207 57.7621 41.217C57.6521 41.197 57.7221 41.307 57.5921 41.247C57.5721 41.367 57.7021 41.487 57.7421 41.557C57.6721 41.557 57.6021 41.527 57.5821 41.497L57.6021 41.567C57.4921 41.547 57.5421 41.517 57.5321 41.497C57.3421 41.557 57.6821 41.667 57.5321 41.747L57.6221 41.767H57.6121C57.6121 41.767 57.7221 41.787 57.7321 41.797C57.6421 41.817 57.5121 41.817 57.5221 41.857C57.4321 41.907 57.5821 41.957 57.6421 41.977C57.6421 41.947 57.7021 41.947 57.7421 41.947C57.7421 41.967 57.6621 41.997 57.7021 42.007L57.5821 42.047C57.6921 42.007 57.7221 42.057 57.7721 42.047C57.6921 42.087 57.6921 42.047 57.6221 42.057C57.6621 42.137 57.642 42.097 57.682 42.167C57.782 42.167 57.7921 42.107 57.8921 42.087C57.9321 42.107 58.0121 42.087 57.9721 42.157L58.0621 42.097C58.1621 42.097 58.1621 42.117 58.0921 42.207C58.5521 42.037 58.7121 41.747 58.8421 41.607C58.8721 41.577 58.8021 41.647 58.8121 41.637C58.7321 41.707 58.7021 41.717 58.6721 41.727L58.7021 41.687Z" fill="#8E8E8E"/>
<path d="M53.9197 43.0938C53.4397 42.6738 53.8397 41.9738 54.4497 42.1738C54.4797 42.1838 54.5097 42.2038 54.5297 42.2238C55.0097 42.6438 54.6097 43.3438 53.9997 43.1438C53.9697 43.1338 53.9397 43.1138 53.9197 43.0938Z" fill="#8E8E8E"/>
<path d="M53.1309 42.7348L53.1808 42.7148C53.1808 42.7148 53.1409 42.7148 53.1309 42.7348Z" fill="#8E8E8E"/>
<path d="M54.2407 42.6545H54.2307C54.2307 42.6545 54.2307 42.6545 54.2307 42.6745C54.2307 42.6945 54.2307 42.7045 54.2307 42.7445C54.2307 42.7445 54.2307 42.7545 54.2307 42.7745C54.2307 42.7545 54.2207 42.8445 54.2407 42.6945C54.2407 42.6945 54.2407 42.7445 54.2207 42.7945C54.2207 42.7945 54.2407 42.6845 54.2407 42.7045V42.7445V42.7145L54.2907 42.5345C54.2907 42.5845 54.2307 42.7545 54.2507 42.7145L54.3007 42.5645V42.5745L54.3706 42.3745L54.0107 42.7845C54.0107 42.7845 54.0107 42.7745 54.0307 42.7645C54.0307 42.7645 54.0507 42.7445 54.0707 42.7245C54.1107 42.6945 54.1107 42.6845 54.1307 42.6745C54.1707 42.6545 54.1907 42.6445 54.2007 42.6445C54.2007 42.6445 54.2007 42.6445 54.1907 42.5945V42.5245V42.4645C54.1907 42.4645 54.2107 42.4245 54.2007 42.4645V42.4845C54.1507 42.6245 54.1007 42.7645 54.0507 42.9145C54.0507 42.9145 54.0507 42.9045 54.0307 42.9245C53.9007 43.0545 53.7507 43.3145 53.8507 43.7245V43.7545C53.9107 43.8645 53.9907 43.9045 54.0807 43.7245C54.0807 43.9545 54.1707 43.7545 54.1907 43.8245V43.8445C54.2507 43.6645 54.3507 43.9845 54.4107 43.8145C54.4107 43.8345 54.4207 43.8945 54.4107 43.9045C54.4607 43.8645 54.5207 43.7945 54.5607 43.9245C54.6807 43.8645 54.9006 43.8145 54.8406 43.5945L54.8607 43.6245C54.8107 43.4845 54.9007 43.5745 54.8907 43.4845C54.9007 43.4945 54.9107 43.5045 54.9207 43.5045C54.8607 43.3645 55.0007 43.3945 54.9807 43.3245L55.0507 43.3845C55.0507 43.3845 55.0806 43.3245 55.0906 43.2945L55.0507 43.3145C54.8607 43.1545 55.2206 43.3445 55.1206 43.2045C55.1906 43.1545 54.7206 42.8745 54.8406 42.8945C54.7406 42.8345 55.0107 42.9745 54.9407 42.9145C55.0607 42.9545 55.0107 42.9545 55.1107 42.9845C55.0707 42.9245 55.2607 42.9645 55.1907 42.8845L55.2907 42.9045C55.1307 42.8045 55.4407 42.7845 55.2807 42.7145C55.2007 42.6445 55.5807 42.6645 55.3807 42.5845L55.5107 42.5445C55.5107 42.5445 55.3406 42.5345 55.4006 42.4845C55.4806 42.4845 55.4607 42.4245 55.5407 42.4345C55.6407 42.2945 55.3207 42.2845 55.4807 42.0945C55.3207 42.1345 55.3807 42.0345 55.2607 42.0745C55.3207 42.0345 55.2107 41.9645 55.3807 41.9445C55.3907 41.9445 55.4007 41.9445 55.3807 41.9645L55.4707 41.9245C55.5907 41.7645 55.3107 41.8645 55.2907 41.7945C55.2807 41.8345 55.2907 41.8445 55.2307 41.8745L55.2007 41.8145L55.2707 41.7745L55.2507 41.6745L55.1806 41.7545C55.1906 41.6945 55.3007 41.5545 55.1607 41.6245C55.0907 41.6645 55.0907 41.7545 55.0407 41.7445C55.0407 41.6945 55.0607 41.6545 55.0407 41.5745C55.0007 41.4945 54.9507 41.4245 54.8807 41.3645C54.8407 41.4745 54.8107 41.4545 54.7607 41.4545L54.7907 41.3645C54.6007 41.4345 54.8106 41.1345 54.6806 41.2045L54.7107 41.1445L54.6307 41.3345C54.5107 41.5045 54.6307 41.1245 54.5007 41.3645C54.5307 41.3645 54.4707 41.5845 54.4507 41.5345L54.4807 41.4445C54.4807 41.4445 54.4406 41.4945 54.4306 41.4745C54.4506 41.4245 54.4606 41.3345 54.4306 41.3545L54.4707 41.2345L54.3807 41.4045C54.3407 41.2945 54.2607 41.4245 54.2407 41.2845C54.2407 41.2845 54.1207 41.2245 54.1107 41.3745C54.1307 41.2845 54.0607 41.2545 54.0707 41.1445C54.0407 41.2545 53.9807 41.3445 53.9207 41.2445C53.7407 41.1545 53.7407 41.4345 53.5807 41.3645C53.6407 41.4645 53.5507 41.4345 53.6307 41.5645C53.6207 41.7345 53.2707 41.4445 53.5207 41.8245C53.5007 41.8745 53.4106 41.7845 53.3706 41.7845V41.7545C53.3206 41.8545 53.3007 41.8645 53.2507 41.9145C53.2607 41.9745 53.4307 42.0945 53.3607 42.1145C53.3007 42.0545 53.3007 42.0845 53.2907 42.0945C53.2907 42.0745 53.2607 42.0545 53.2007 42.0545C53.2207 42.0745 53.2307 42.0845 53.2407 42.0945C53.2407 42.0945 53.2307 42.0945 53.2207 42.0945C53.2207 42.1445 53.2607 42.1445 53.2707 42.1345C53.2807 42.1345 53.3007 42.1445 53.3207 42.1545C53.2107 42.1345 53.2806 42.2445 53.1506 42.1845C53.1306 42.3045 53.2607 42.4245 53.3007 42.4945C53.2307 42.4945 53.1607 42.4645 53.1407 42.4345L53.1607 42.5045C53.0507 42.4845 53.1006 42.4545 53.0906 42.4345C52.9006 42.4945 53.2406 42.6045 53.0906 42.6845L53.1806 42.7045H53.1707C53.1707 42.7045 53.2807 42.7245 53.2907 42.7345C53.2007 42.7545 53.0707 42.7545 53.0807 42.7945C52.9907 42.8445 53.1407 42.8945 53.2007 42.9145C53.2007 42.8845 53.2607 42.8845 53.3007 42.8845C53.3007 42.9045 53.2207 42.9345 53.2607 42.9445L53.1407 42.9845C53.2507 42.9445 53.2807 42.9945 53.3307 42.9845C53.2507 43.0245 53.2506 42.9845 53.1806 42.9945C53.2206 43.0745 53.2007 43.0345 53.2407 43.1045C53.3407 43.1045 53.3507 43.0445 53.4507 43.0245C53.4907 43.0445 53.5707 43.0245 53.5307 43.0945L53.6206 43.0345C53.7206 43.0345 53.7206 43.0545 53.6506 43.1445C54.1106 42.9745 54.2706 42.6845 54.4006 42.5445C54.4306 42.5145 54.3606 42.5845 54.3706 42.5745C54.2906 42.6445 54.2607 42.6545 54.2307 42.6645L54.2407 42.6545Z" fill="#8E8E8E"/>
<path d="M54.6311 47.1971C54.4111 46.7871 54.7811 46.2771 55.3011 46.4571C55.3311 46.4671 55.3611 46.4871 55.3811 46.5071C55.8011 46.8671 55.5511 47.4471 55.0811 47.4571C54.8911 47.4571 54.7111 47.3571 54.6211 47.1971H54.6311Z" fill="#8E8E8E"/>
<path d="M55.0803 46.9472C55.0803 46.9572 55.0803 46.9472 55.0803 46.9572C55.0803 46.9572 55.0803 46.9772 55.0803 46.9872C55.0803 46.9872 55.0803 47.0372 55.0803 47.0672C55.0603 47.1372 55.0703 47.1172 55.0603 47.1372V47.1572L55.2403 46.6372L54.9103 47.0172L54.9303 46.9872C54.9503 46.9572 54.9803 46.9272 55.0203 46.8872C55.0203 46.8872 54.9703 46.9472 54.9103 47.0072C54.9803 46.9372 55.0103 46.9072 55.0203 46.9072L54.9903 46.9372L55.0203 46.9172L55.1603 46.7872C55.1603 46.7872 54.9903 46.9372 55.0203 46.9072L55.1403 46.8072C55.1403 46.8072 55.0803 46.8672 55.0203 46.9072C54.9603 46.9472 55.0203 46.9072 55.0103 46.9072C55.0803 46.8672 55.0903 46.8872 55.0803 46.8772C55.0803 46.8772 55.0803 46.8772 55.0803 46.8672C55.0803 46.8472 55.0803 46.8472 55.0803 46.8472C55.0803 46.8472 55.0803 46.8472 55.0803 46.8272V46.9272V46.8872C55.0803 46.8872 55.0803 46.8972 55.0503 46.9072C55.0003 46.9372 54.9203 46.9772 54.8003 47.0472C54.6403 47.1472 54.3903 47.2872 54.2703 47.6772L54.2403 47.6972C54.2603 47.8472 54.3303 47.9272 54.5003 47.8072C54.3903 48.0072 54.5703 47.8772 54.5603 47.9572V47.9772C54.6803 47.8472 54.6403 48.1772 54.7703 48.0472C54.7703 48.0672 54.7403 48.1272 54.7303 48.1272C54.7903 48.1172 54.8803 48.0772 54.8603 48.2072C55.0103 48.2072 55.2203 48.2472 55.2603 48.0272V48.0672C55.2803 47.9172 55.3103 48.0372 55.3403 47.9572C55.3403 47.9772 55.3503 47.9772 55.3503 47.9872C55.3503 47.8372 55.4703 47.9272 55.4803 47.8572L55.5203 47.9372L55.6003 47.8772H55.5603C55.4603 47.6572 55.7003 47.9772 55.6703 47.8072C55.7503 47.7872 55.4503 47.3372 55.5503 47.4072C55.4903 47.3072 55.6603 47.5572 55.6303 47.4672C55.7203 47.5572 55.6703 47.5372 55.7503 47.6072C55.7303 47.5372 55.8903 47.6472 55.8603 47.5472L55.9403 47.6072C55.8403 47.4472 56.1303 47.5672 56.0103 47.4272C55.9703 47.3272 56.3003 47.5072 56.1603 47.3472L56.3003 47.3672C56.3003 47.3672 56.1503 47.2872 56.2303 47.2672C56.3103 47.2972 56.3103 47.2372 56.3803 47.2772C56.5403 47.1972 56.2403 47.0472 56.4703 46.9372C56.3103 46.9072 56.4003 46.8372 56.2803 46.8272C56.3503 46.8272 56.2803 46.6972 56.4403 46.7572C56.4503 46.7572 56.4503 46.7772 56.4203 46.7772H56.5203C56.6903 46.6672 56.4003 46.6372 56.4103 46.5672C56.3803 46.5972 56.4003 46.6272 56.3303 46.6172V46.5472H56.4103V46.4272L56.3303 46.4772C56.3603 46.4172 56.5203 46.3272 56.3603 46.3272C56.2803 46.3372 56.2503 46.4272 56.2003 46.3972C56.2403 46.3172 56.2803 46.1672 56.2603 46.0872C56.1703 46.1572 56.1603 46.1372 56.1303 46.1372L56.2103 46.0772C56.0503 46.0972 56.3603 45.9172 56.2103 45.9072L56.2703 45.8672L56.1003 45.9872C55.9103 46.0672 56.2203 45.8172 55.9703 45.9472C56.0003 45.9472 55.8203 46.1072 55.8303 46.0572L55.9003 45.9972C55.9003 45.9972 55.8403 46.0272 55.8403 45.9972C55.8803 45.9672 55.9403 45.8972 55.9103 45.8872L56.0103 45.8172C55.9603 45.8472 55.9003 45.8772 55.8303 45.8972C55.8203 45.7572 55.6303 45.8072 55.6503 45.6672C55.6503 45.6672 55.6003 45.6272 55.5703 45.6172C55.5403 45.6172 55.5103 45.6172 55.4803 45.6872C55.5203 45.6072 55.4803 45.5572 55.5203 45.4572C55.4603 45.5472 55.3803 45.6172 55.3603 45.4972C55.2403 45.3572 55.1403 45.6072 55.0203 45.4772C55.0203 45.5972 54.9703 45.5272 54.9903 45.6772C54.9103 45.8272 54.7303 45.4172 54.7903 45.8672C54.7503 45.8972 54.7103 45.7772 54.6803 45.7672V45.7372C54.6103 45.8072 54.5803 45.8172 54.5203 45.8372C54.5103 45.8972 54.6103 46.0772 54.5403 46.0572C54.5103 45.9772 54.5003 45.9972 54.4803 46.0172C54.4803 45.9972 54.4803 45.9672 54.4203 45.9372C54.4303 45.9572 54.4303 45.9772 54.4403 45.9972C54.4403 45.9972 54.4403 45.9972 54.4303 45.9772C54.4203 46.0272 54.4303 46.0372 54.4603 46.0372C54.4603 46.0472 54.4803 46.0572 54.4903 46.0772C54.4003 46.0072 54.4203 46.1372 54.3203 46.0372C54.2603 46.1372 54.3203 46.2972 54.3203 46.3872C54.2503 46.3472 54.2103 46.2972 54.2003 46.2572V46.3272C54.1003 46.2672 54.1603 46.2672 54.1503 46.2372C53.9503 46.2072 54.2103 46.4572 54.0303 46.4572L54.1003 46.5072H54.0903C54.0903 46.5072 54.1803 46.5672 54.1903 46.5772C54.1003 46.5572 53.9903 46.4972 53.9803 46.5472C53.8803 46.5472 53.9903 46.6572 54.0303 46.7072C54.0503 46.6872 54.1003 46.7072 54.1303 46.7272C54.1303 46.7472 54.0403 46.7372 54.0703 46.7672L53.9503 46.7472C54.0703 46.7572 54.0703 46.8172 54.1203 46.8272C54.0303 46.8272 54.0403 46.7872 53.9703 46.7772C53.9703 46.8672 53.9703 46.8172 53.9703 46.9072C54.0603 46.9472 54.0903 46.9072 54.2003 46.9172C54.2203 46.9472 54.3103 46.9672 54.2403 47.0072L54.3503 46.9872C54.4403 47.0272 54.4303 47.0472 54.3303 47.1072C54.8203 47.1372 55.0703 46.8972 55.2403 46.8172C55.1703 46.8572 55.1103 46.8872 55.0803 46.9072H55.0703L55.0403 46.9172L55.0803 46.9472Z" fill="#8E8E8E"/>
<path d="M45.1814 54.2462C44.7014 53.8262 45.1014 53.1262 45.7114 53.3262C45.7414 53.3362 45.7714 53.3562 45.7914 53.3762C46.2714 53.7962 45.8714 54.4962 45.2614 54.2962C45.2314 54.2862 45.2014 54.2662 45.1814 54.2462Z" fill="#8E8E8E"/>
<path d="M44.3906 53.8755L44.4406 53.8555C44.4406 53.8555 44.4006 53.8555 44.3906 53.8755Z" fill="#8E8E8E"/>
<path d="M45.5005 53.8064H45.4905C45.4905 53.8264 45.4905 53.8064 45.4905 53.8264C45.4905 53.8264 45.4905 53.8564 45.4905 53.8964C45.4905 53.8964 45.4905 53.9064 45.4905 53.9264C45.4905 53.9064 45.4805 53.9964 45.5005 53.8464C45.5005 53.8464 45.5005 53.8964 45.4805 53.9464C45.4805 53.9464 45.5005 53.8364 45.5005 53.8564V53.8964V53.8664L45.5505 53.6864C45.5505 53.7364 45.4905 53.9064 45.5105 53.8664L45.5605 53.7164V53.7264L45.6305 53.5264L45.2705 53.9364C45.2705 53.9364 45.2705 53.9164 45.2905 53.9164C45.2905 53.9164 45.3105 53.8964 45.3305 53.8764C45.3705 53.8464 45.3705 53.8464 45.4005 53.8264C45.4405 53.8064 45.4605 53.7964 45.4705 53.7964C45.4705 53.7964 45.4705 53.7964 45.4605 53.7464V53.6764C45.4605 53.6764 45.4605 53.6764 45.4605 53.6164C45.4605 53.5864 45.4705 53.5764 45.4605 53.6164V53.6364C45.4105 53.7764 45.3605 53.9164 45.3105 54.0664C45.3105 54.0664 45.3105 54.0564 45.2905 54.0764C45.1605 54.2064 45.0105 54.4664 45.1105 54.8764V54.9064C45.1705 55.0264 45.2505 55.0564 45.3405 54.8764C45.3405 55.1064 45.4305 54.9064 45.4505 54.9864V55.0064C45.5105 54.8264 45.6105 55.1464 45.6705 54.9764C45.6705 54.9964 45.6805 55.0564 45.6705 55.0664C45.7205 55.0264 45.7805 54.9564 45.8205 55.0864C45.9405 55.0264 46.1605 54.9764 46.1005 54.7564L46.1205 54.7864C46.0705 54.6464 46.1605 54.7364 46.1505 54.6464C46.1605 54.6564 46.1705 54.6664 46.1805 54.6664C46.1205 54.5264 46.2605 54.5564 46.2405 54.4864L46.3105 54.5464C46.3105 54.5464 46.3405 54.4864 46.3505 54.4564L46.3105 54.4764C46.1205 54.3164 46.4805 54.5064 46.3805 54.3664C46.4505 54.3164 45.9805 54.0364 46.1005 54.0564C46.0005 53.9964 46.2705 54.1364 46.2005 54.0764C46.3205 54.1164 46.2705 54.1164 46.3705 54.1464C46.3305 54.0864 46.5105 54.1264 46.4505 54.0464L46.5505 54.0664C46.3905 53.9664 46.7005 53.9464 46.5405 53.8764C46.4605 53.8064 46.8405 53.8264 46.6405 53.7464L46.7705 53.7064C46.7705 53.7064 46.6005 53.6964 46.6605 53.6464C46.7405 53.6464 46.7205 53.5864 46.8005 53.5964C46.9005 53.4564 46.5805 53.4464 46.7305 53.2564C46.5705 53.2964 46.6305 53.1964 46.5105 53.2364C46.5705 53.1964 46.4605 53.1264 46.6305 53.1064C46.6405 53.1064 46.6505 53.1064 46.6305 53.1264L46.7205 53.0864C46.8405 52.9264 46.5605 53.0264 46.5405 52.9564C46.5305 52.9964 46.5405 53.0064 46.4805 53.0364L46.4505 52.9764L46.5205 52.9364L46.5005 52.8364L46.4305 52.9164C46.4405 52.8564 46.5505 52.7164 46.4105 52.7864C46.3405 52.8264 46.3405 52.9164 46.2905 52.9064C46.2905 52.8564 46.3105 52.8164 46.2905 52.7464C46.2505 52.6664 46.2005 52.5964 46.1305 52.5364C46.0905 52.6464 46.0605 52.6264 46.0105 52.6264L46.0405 52.5364C45.8405 52.6064 46.0605 52.3064 45.9305 52.3764L45.9605 52.3164L45.8805 52.5064C45.7605 52.6764 45.8805 52.2964 45.7505 52.5364C45.7805 52.5364 45.7205 52.7564 45.7005 52.7064L45.7305 52.6164C45.7305 52.6164 45.6905 52.6664 45.6805 52.6464C45.7005 52.5964 45.7105 52.5064 45.6805 52.5264L45.7205 52.4064L45.6305 52.5764C45.5905 52.4664 45.5105 52.5964 45.4905 52.4564C45.4905 52.4564 45.3705 52.3964 45.3605 52.5464C45.3805 52.4564 45.3105 52.4264 45.3205 52.3164C45.2905 52.4264 45.2305 52.5164 45.1705 52.4164C44.9905 52.3264 44.9905 52.6064 44.8305 52.5364C44.8905 52.6364 44.8005 52.6064 44.8805 52.7364C44.8705 52.9064 44.5205 52.6164 44.7705 52.9964C44.7505 53.0464 44.6605 52.9564 44.6205 52.9564V52.9264C44.5705 53.0264 44.5505 53.0364 44.5005 53.0864C44.5105 53.1464 44.6805 53.2664 44.6105 53.2864C44.5505 53.2264 44.5505 53.2564 44.5405 53.2664C44.5405 53.2464 44.5105 53.2264 44.4505 53.2264C44.4705 53.2464 44.4805 53.2564 44.4905 53.2664C44.4905 53.2664 44.4805 53.2664 44.4705 53.2664C44.4705 53.3164 44.5105 53.3164 44.5205 53.3064C44.5305 53.3064 44.5505 53.3164 44.5705 53.3264C44.4605 53.3064 44.5305 53.4164 44.4005 53.3564C44.3805 53.4764 44.5105 53.5964 44.5505 53.6664C44.4805 53.6664 44.4105 53.6364 44.3905 53.6064L44.4105 53.6764C44.3005 53.6564 44.3505 53.6264 44.3405 53.6064C44.1605 53.6664 44.4905 53.7764 44.3405 53.8564L44.4305 53.8764H44.4205C44.4205 53.8764 44.5305 53.8964 44.5405 53.9064C44.4505 53.9264 44.3205 53.9264 44.3305 53.9664C44.2405 54.0164 44.3905 54.0664 44.4505 54.0864C44.4505 54.0564 44.5105 54.0564 44.5505 54.0564C44.5505 54.0764 44.4705 54.1064 44.5105 54.1164L44.3905 54.1564C44.5005 54.1164 44.5305 54.1664 44.5805 54.1564C44.5005 54.1964 44.5005 54.1564 44.4305 54.1664C44.4705 54.2464 44.4505 54.2064 44.4905 54.2764C44.5905 54.2764 44.6005 54.2164 44.7005 54.1964C44.7405 54.2164 44.8205 54.1964 44.7805 54.2664L44.8705 54.1964C44.9705 54.1964 44.9705 54.2164 44.9005 54.3064C45.3605 54.1364 45.5205 53.8464 45.6505 53.7064C45.6805 53.6764 45.6105 53.7464 45.6205 53.7364C45.5405 53.8064 45.5105 53.8164 45.4805 53.8264L45.5005 53.8064Z" fill="#8E8E8E"/>
</svg>
