<svg width="71" height="71" viewBox="0 0 71 71" fill="none" xmlns="http://www.w3.org/2000/svg">
<path d="M21.652 34.8535L21.582 34.8735C21.582 34.8735 21.622 34.8835 21.652 34.8535Z" fill="#8E8E8E"/>
<path d="M20.6924 33.6342C20.3824 34.0942 20.1124 34.0742 19.8324 34.5742C19.6424 34.7642 19.4924 35.0242 19.3024 35.2142C19.3224 35.4242 19.0424 35.4542 19.0124 35.6642L18.9024 35.6242C18.8924 35.6942 18.8624 35.7542 18.7824 35.7442V35.7242C18.7524 35.8242 18.6524 35.8442 18.6324 35.9042V35.8842L18.5424 35.9542V35.9142C18.4624 36.0542 18.3524 36.1542 18.2224 36.1942L18.2924 36.2842C17.9824 36.3142 18.0224 36.5742 17.7224 36.5642V36.5342C17.5824 36.9742 17.1824 36.5942 17.0024 36.9842C17.0224 36.9342 16.9624 36.9342 16.9524 36.9142C16.8324 37.0042 16.6824 37.0942 16.7724 37.3042C16.6724 37.3442 16.6624 37.2742 16.6124 37.2042C16.6524 37.2942 16.5824 37.3742 16.5024 37.4142L16.5224 37.3642C16.4524 37.4142 16.3724 37.4442 16.2924 37.4842L16.4124 37.6442C16.2624 37.6442 16.3024 37.4442 16.1924 37.5242L16.2524 37.6742C16.0624 37.7042 15.8824 37.5242 15.6724 37.4642C15.3224 37.5642 14.9724 37.7442 14.6024 37.8842C14.2424 38.0342 13.8824 38.1642 13.5124 38.0742L13.4624 37.9642C13.4224 37.7942 13.3124 38.2442 13.2624 38.0942L13.1924 38.1842C13.1924 38.1842 13.1124 38.1342 13.1424 38.0842C13.0624 38.0842 13.0724 38.1142 13.0224 38.1742L12.9224 38.0842C12.6224 38.0442 12.4024 38.3042 12.0724 38.2842C11.6724 38.0942 10.9924 38.3642 10.5824 38.5142C10.0024 38.7842 9.31242 38.1142 8.72242 38.4142C8.70242 38.3942 8.65241 38.4442 8.65241 38.4642L8.10242 38.4142C8.10242 38.4142 7.4424 38.3742 7.0224 38.5142C6.6024 38.6542 6.40241 38.9842 7.40241 39.7442L7.38239 39.7842C7.69239 39.8842 7.88242 39.9142 8.10242 39.7342C8.13242 39.9642 8.35244 39.7642 8.43244 39.8442V39.8642C8.62244 39.6942 8.81238 40.0342 9.00238 39.8642C9.00238 39.8842 8.9924 39.9442 8.9524 39.9542C9.0824 39.9242 9.27241 39.8642 9.28241 40.0042C9.60241 39.9642 10.0524 40.0142 10.2524 39.7942V39.8342C10.3524 39.6842 10.3924 39.8142 10.5124 39.7342C10.5124 39.7542 10.5324 39.7642 10.5324 39.7642C10.6524 39.6242 10.9024 39.7242 11.0024 39.6542V39.7442L11.2624 39.7042H11.1624C11.1724 39.4442 11.3624 39.8342 11.5324 39.6542C11.7124 39.6742 11.8324 39.1142 12.0124 39.2242C12.0824 39.1042 11.9624 39.4142 12.0724 39.3142C12.0924 39.4442 12.0224 39.3942 12.0724 39.4942C12.1924 39.4242 12.2924 39.6042 12.4324 39.5042L12.4524 39.6042C12.6324 39.4042 12.8424 39.6742 12.9524 39.4842C13.1424 39.3742 13.1324 39.7542 13.3224 39.5242L13.4324 39.6442C13.5324 39.6442 13.4724 39.4742 13.5824 39.5142C13.5824 39.5942 13.7224 39.5542 13.6824 39.6442C13.9424 39.7342 14.1224 39.3942 14.4624 39.5242C14.4924 39.3442 14.6624 39.4042 14.6824 39.2742C14.7024 39.3442 14.9924 39.2142 14.8524 39.4042C14.8424 39.4242 14.8124 39.4242 14.8124 39.4042V39.5042C15.0324 39.6442 15.1024 39.3242 15.2824 39.3142C15.2224 39.2942 15.1624 39.3142 15.1824 39.2442L15.3424 39.2142V39.3042L15.5824 39.2942L15.5224 39.2042C15.6524 39.2242 15.7424 39.3742 15.8324 39.2042C15.8624 39.1042 15.6824 39.1142 15.7924 39.0342C15.9624 39.0442 16.2224 39.0742 16.4324 39.0342C16.3724 38.9342 16.4324 38.9142 16.4724 38.8742L16.5124 38.9642C16.6724 38.7642 16.6624 39.1442 16.8324 38.9642V39.0342L16.8224 38.8242C16.9324 38.5742 17.0024 38.9842 17.1024 38.6442C17.0324 38.6942 16.9824 38.4542 17.1024 38.4542V38.5542C17.1624 38.5142 17.1624 38.4642 17.2024 38.4642C17.1924 38.5242 17.2424 38.6042 17.3124 38.5542V38.6842L17.3824 38.4542C17.5424 38.4942 17.6724 38.2942 17.7724 38.3942C17.7724 38.3942 18.0524 38.3442 18.0424 38.1842C18.0424 38.2842 18.1924 38.2542 18.2024 38.3742C18.2224 38.2442 18.3624 38.0642 18.4824 38.1242V38.1442C18.8024 38.0842 18.8624 37.7442 19.1724 37.7142C19.1024 37.6242 19.2524 37.5942 19.1424 37.4942C19.2924 37.2042 19.7524 37.4242 19.5624 36.9942C19.6524 36.8942 19.7524 36.9942 19.8224 36.9642V37.0042C19.9924 36.8342 20.0324 36.7642 20.1724 36.6542C20.2124 36.5542 20.0824 36.3942 20.2324 36.3242C20.2524 36.4242 20.2924 36.3642 20.3324 36.3242C20.3124 36.3642 20.3324 36.3942 20.4224 36.3742C20.4224 36.3442 20.4224 36.3242 20.4224 36.3042C20.4224 36.3042 20.4324 36.3042 20.4424 36.3142C20.4924 36.2242 20.4624 36.2142 20.4224 36.2442C20.4224 36.2342 20.4024 36.2242 20.3724 36.2142C20.5324 36.2142 20.5824 36.0142 20.6924 36.0942C20.8724 35.8342 20.9024 35.5742 21.0324 35.3542C21.1124 35.3842 21.1224 35.4642 21.0924 35.5342C21.1224 35.4842 21.1624 35.4342 21.1824 35.3742C21.2724 35.4442 21.1624 35.4942 21.1424 35.5542C21.4224 35.4942 21.2724 35.0842 21.5524 34.9742L21.5124 34.8842H21.5324C21.5324 34.8842 21.4724 34.7742 21.4824 34.7342C21.5824 34.7542 21.6624 34.8542 21.7324 34.7342C21.8624 34.6942 21.8324 34.4542 21.8524 34.3242C21.8024 34.3742 21.7724 34.3242 21.7524 34.2942C21.7824 34.2342 21.8824 34.2542 21.8624 34.1842L21.9824 34.2342C21.8624 34.2042 21.9424 34.0342 21.9124 33.9842C22.0124 33.9842 21.9424 34.1042 21.9924 34.1542C22.1024 33.9242 22.0424 34.0342 22.1324 33.7942C22.0924 33.6342 22.0124 33.7742 21.9324 33.6642C21.9524 33.5442 21.9124 33.4142 22.0324 33.3142H21.9124C21.9124 33.0842 21.9324 32.9742 22.0924 32.8542C21.8124 31.9742 21.4624 31.9442 21.2624 32.0142C21.0524 32.0942 20.9324 32.3042 20.9324 32.3042C20.5924 32.6942 20.8424 33.0142 20.6324 33.6242L20.6924 33.6342Z" fill="#8E8E8E"/>
<path d="M18.8212 31.7436L18.7813 31.6836C18.7813 31.6836 18.7812 31.7236 18.8212 31.7436Z" fill="#8E8E8E"/>
<path d="M16.9512 29.7131L16.9712 29.7031L16.9512 29.7131Z" fill="#8E8E8E"/>
<path d="M19.8712 30.5338C19.1212 30.2638 18.9611 30.0237 18.1411 29.9037C17.7611 29.8037 17.3311 29.7637 16.9511 29.7137C16.7411 29.8337 16.4511 29.6238 16.2111 29.7238L16.1411 29.6138C16.0611 29.6538 15.9711 29.6637 15.9011 29.6037V29.5737C15.7911 29.6237 15.6712 29.5637 15.6112 29.5938V29.5638L15.4811 29.5537L15.5111 29.5137C15.3111 29.5637 15.1012 29.5437 14.9312 29.4837V29.6037C14.5712 29.4337 14.4111 29.6437 14.0811 29.4637V29.4337C13.6311 29.7037 13.4111 29.1737 12.9511 29.4337C13.0111 29.4037 12.9312 29.3737 12.9312 29.3438C12.7212 29.3737 12.4912 29.3937 12.4912 29.6237C12.3412 29.6237 12.3711 29.5537 12.3511 29.4637C12.3511 29.5637 12.2211 29.6038 12.1011 29.6138L12.1511 29.5737L11.8112 29.6037L11.8811 29.7937C11.7011 29.7437 11.8311 29.5638 11.6611 29.6138V29.7737C11.4211 29.7637 11.2611 29.5337 11.0011 29.4337C9.94111 29.4737 8.96116 30.0637 7.93116 30.3737L7.83112 30.3037C7.71112 30.1737 7.73114 30.6938 7.60114 30.5938L7.55115 30.7337C7.55115 30.7337 7.42112 30.7537 7.45112 30.6837C7.35112 30.7537 7.37113 30.7738 7.34113 30.8638C7.28113 30.8638 7.23116 30.8737 7.18116 30.8837C6.99116 31.0437 6.86111 31.2538 6.75111 31.4538C6.65111 31.6638 6.61116 31.9037 6.49116 32.1237C6.23116 32.3637 6.22115 32.8138 6.17115 33.2538C6.19115 33.6138 6.25115 33.9638 6.29115 34.2238C6.51115 34.9638 5.78115 35.7738 6.04115 36.5338C6.01115 36.5538 6.07113 36.6237 6.09113 36.6237L6.03114 37.3037C6.03114 37.3037 5.79113 40.6038 7.34113 38.1738L7.38111 38.1938C7.49111 37.8238 7.52114 37.5937 7.35114 37.3237C7.58114 37.2937 7.39114 37.0137 7.47114 36.9337H7.49116C7.32116 36.7037 7.66112 36.4838 7.51112 36.2538C7.53112 36.2538 7.59113 36.2737 7.59113 36.3237C7.57113 36.1637 7.53114 35.9437 7.66114 35.9337C7.64114 35.5537 7.73114 35.0137 7.53114 34.7637L7.57111 34.7838C7.43111 34.6338 7.56116 34.6038 7.49116 34.4438C7.51116 34.4438 7.52113 34.4238 7.52113 34.4238C7.39113 34.2638 7.52114 33.9737 7.47114 33.8537H7.56116V33.5437L7.54115 33.6537C7.30115 33.6137 7.69111 33.4038 7.57111 33.2238C7.63111 33.0738 7.12114 32.7837 7.28114 32.6037C7.21114 32.4837 7.42113 32.7338 7.40113 32.5838C7.52113 32.6238 7.45116 32.6637 7.56116 32.6637C7.56116 32.5237 7.77116 32.5338 7.74116 32.3638L7.83112 32.4037C7.73112 32.1237 8.13116 32.1937 8.06116 31.9837C8.14116 31.7737 8.32115 32.0738 8.36115 31.8138L8.51112 31.8737C8.59112 31.8437 8.46111 31.7038 8.57111 31.7038C8.62111 31.7738 8.70112 31.6838 8.70112 31.7838C8.91112 31.7638 9.02115 31.4138 9.36115 31.4738C9.36115 31.2938 9.56111 31.3437 9.57111 31.2137C9.60111 31.2837 9.88112 31.1338 9.76112 31.3338C9.75112 31.3538 9.72114 31.3538 9.72114 31.3338V31.4337C9.95114 31.5737 10.0011 31.2237 10.2011 31.2337C10.1411 31.2137 10.0711 31.2337 10.1011 31.1537L10.2811 31.1337L10.2611 31.2238H10.5211L10.4711 31.1337C10.6011 31.1637 10.6711 31.3237 10.7911 31.1637C10.8411 31.0737 10.6511 31.0437 10.7911 30.9937C10.9711 31.0337 11.2411 31.1338 11.4611 31.1438C11.4311 31.0338 11.4912 31.0338 11.5512 31.0038V31.1037C11.7912 30.9537 11.6611 31.3138 11.8811 31.1938L11.8612 31.2637L11.9212 31.0537C12.1312 30.8537 12.0411 31.2637 12.2711 30.9937C12.1811 31.0137 12.2211 30.7738 12.3411 30.8138L12.3112 30.9137C12.3712 30.8937 12.4011 30.8537 12.4411 30.8737C12.4011 30.9237 12.4211 31.0137 12.5111 30.9937L12.4511 31.1138L12.6311 30.9337C12.7711 31.0337 12.9911 30.9137 13.0411 31.0537C13.0411 31.0537 13.3311 31.1437 13.4111 30.9937C13.3411 31.0837 13.5111 31.1237 13.4511 31.2337C13.5311 31.1337 13.7711 31.0637 13.8511 31.1837H13.8311C14.1611 31.3337 14.4311 31.1037 14.7211 31.2737C14.7211 31.1537 14.8711 31.2438 14.8511 31.0838C15.1911 30.9738 15.3811 31.4638 15.5711 31.0338C15.7211 31.0338 15.7212 31.1638 15.8012 31.2038L15.7611 31.2238C16.0411 31.2238 16.1211 31.2438 16.3211 31.2838C16.4311 31.2538 16.4811 31.0537 16.6511 31.1337C16.5811 31.2037 16.6511 31.2037 16.7211 31.2137C16.6711 31.2137 16.6611 31.2437 16.7311 31.3237C16.7511 31.3037 16.7711 31.2938 16.7911 31.2838C16.7911 31.2838 16.7911 31.2937 16.7911 31.3037C16.9111 31.3037 16.8911 31.2637 16.8411 31.2437C16.8411 31.2337 16.8411 31.2137 16.8411 31.1837C16.9311 31.3137 17.1711 31.2438 17.1511 31.3938C17.4911 31.4338 17.7712 31.3338 18.0612 31.3438C18.0712 31.4237 17.9911 31.4737 17.9111 31.4837L18.1112 31.5038C18.0812 31.6038 17.9812 31.5337 17.9212 31.5437C18.1111 31.7737 18.4512 31.4937 18.6812 31.7137L18.7611 31.6438V31.6637C18.7611 31.6637 18.8611 31.5737 18.9111 31.5737C18.9311 31.6737 18.8512 31.7838 18.9912 31.8138C19.0812 31.9238 19.3111 31.8537 19.4611 31.8438C19.3911 31.8038 19.4311 31.7637 19.4611 31.7437C19.5311 31.7637 19.5412 31.8638 19.6112 31.8338L19.5811 31.9538C19.5811 31.8338 19.7911 31.8838 19.8311 31.8338C19.8411 31.9338 19.7011 31.8838 19.6712 31.9438C19.9511 32.0138 19.8111 31.9737 20.0811 32.0437C20.2511 31.9937 20.0811 31.9238 20.1911 31.8338C20.3311 31.8438 20.4811 31.7937 20.6011 31.9137V31.7937C20.8511 31.7937 20.9912 31.8438 21.1212 32.0038C22.1512 31.8538 22.3511 31.5938 22.2811 31.3638C22.2111 31.1338 21.8712 30.9438 21.8712 30.9438C21.2212 30.4738 20.7512 30.6737 19.8612 30.5137L19.8712 30.5338Z" fill="#8E8E8E"/>
<path d="M26.4004 32.6643L26.4104 32.6543L26.4004 32.6643Z" fill="#8E8E8E"/>
<path d="M26.9704 37.5039L26.9004 37.5439C26.9004 37.5439 26.9404 37.5439 26.9704 37.5039Z" fill="#8E8E8E"/>
<path d="M30.4316 34.633L30.4416 34.623L30.4316 34.633Z" fill="#8E8E8E"/>
<path d="M30.7321 40.4043L30.6621 40.4643C30.6621 40.4643 30.7021 40.4643 30.7321 40.4043Z" fill="#8E8E8E"/>
<path d="M28.1504 42.5942H28.1604V42.5742L28.1504 42.5942Z" fill="#8E8E8E"/>
<path d="M34.2228 43.4043L34.1328 43.5443C34.1328 43.5443 34.1828 43.5143 34.2228 43.4043Z" fill="#8E8E8E"/>
<path fill-rule="evenodd" clip-rule="evenodd" d="M25.9497 34.957C25.9142 35.1346 25.9126 35.3069 25.9109 35.4961C25.9086 35.7386 25.9062 36.0087 25.8316 36.3526L25.8816 36.3326C25.7341 36.6413 25.6037 36.829 25.4785 37.0091C25.332 37.22 25.1926 37.4205 25.0416 37.7926C24.9643 37.9381 24.8891 38.0898 24.814 38.2411C24.724 38.4226 24.6343 38.6036 24.5416 38.7726C24.5635 38.8984 24.4926 39.0063 24.4206 39.1158C24.361 39.2065 24.3007 39.2984 24.2916 39.4026H24.1616C24.1616 39.4926 24.1316 39.5726 24.0516 39.5926L24.0316 39.5726C24.0316 39.6429 23.9939 39.696 23.9626 39.7401C23.9405 39.7712 23.9216 39.7978 23.9216 39.8226L23.9016 39.8026L23.8316 39.9126L23.8116 39.8726C23.7616 40.0626 23.6516 40.2226 23.5116 40.3026L23.6116 40.3726C23.4441 40.4563 23.381 40.5595 23.3206 40.6581C23.2584 40.7598 23.1991 40.8566 23.0316 40.9226L23.0116 40.9026C22.9806 41.1759 22.8194 41.2391 22.6554 41.3035C22.5041 41.3628 22.3504 41.4231 22.2945 41.6501C22.2974 41.6257 22.2767 41.6226 22.2565 41.6194C22.2409 41.617 22.2256 41.6147 22.2216 41.6026C22.2092 41.6181 22.1964 41.6336 22.1837 41.6489C22.0736 41.7821 21.9661 41.9123 22.0916 42.0826C22.0031 42.155 21.9729 42.1239 21.928 42.0777C21.9171 42.0665 21.9053 42.0543 21.8916 42.0426C21.9516 42.1226 21.8816 42.2226 21.7916 42.2926L21.8116 42.2326L21.5716 42.4426L21.7316 42.5626C21.6483 42.5871 21.6058 42.5491 21.5711 42.5182C21.5351 42.486 21.5076 42.4614 21.4516 42.5226L21.5416 42.6526C21.4152 42.7188 21.2742 42.7017 21.1297 42.6841C21.0342 42.6725 20.9371 42.6607 20.8416 42.6726C20.566 42.8121 20.3008 42.9991 20.0342 43.187C19.5173 43.5514 18.9951 43.9196 18.3816 43.9526L18.3016 43.8526C18.262 43.7784 18.2298 43.8584 18.1964 43.9413C18.1623 44.0258 18.127 44.1133 18.0816 44.0426L18.0116 44.1526C18.0116 44.1526 17.9116 44.1226 17.9416 44.0726C17.873 44.0955 17.8625 44.1125 17.8393 44.1503C17.832 44.1621 17.8235 44.176 17.8116 44.1926L17.6816 44.1226C17.4768 44.1334 17.3127 44.2226 17.1454 44.3135C17.0023 44.3913 16.8568 44.4703 16.6816 44.5026C16.1916 44.4626 15.3616 44.7626 14.8816 44.9826C14.5424 45.1901 14.1393 45.1235 13.733 45.0564C13.3366 44.9909 12.9373 44.9249 12.5916 45.1126C12.5616 45.0926 12.5116 45.1526 12.5116 45.1726C12.3653 45.1859 12.2145 45.1815 12.0623 45.1771C11.9857 45.1748 11.9086 45.1726 11.8316 45.1726C11.8316 45.1726 11.0116 45.1626 10.5016 45.3226C9.99156 45.4926 9.7516 45.8326 11.0416 46.5326L11.0216 46.5726C11.4116 46.6626 11.6616 46.6826 11.9216 46.4926C11.9526 46.6352 12.0682 46.6087 12.173 46.5846C12.2372 46.5698 12.2974 46.556 12.3316 46.5826V46.6026C12.4416 46.5126 12.5641 46.5401 12.6866 46.5676C12.8091 46.5951 12.9316 46.6226 13.0416 46.5326C13.0416 46.5512 13.0416 46.6044 12.9933 46.6198C12.9894 46.6208 12.9855 46.6217 12.9816 46.6226C12.9858 46.6219 12.9897 46.621 12.9933 46.6198C13.0133 46.615 13.0338 46.6097 13.0546 46.6043C13.2088 46.5646 13.3744 46.522 13.3916 46.6426C13.4934 46.6248 13.6055 46.6121 13.72 46.5993C14.0552 46.5615 14.4101 46.5215 14.5816 46.3426V46.3826C14.6451 46.2844 14.692 46.2796 14.7492 46.2739C14.791 46.2696 14.8383 46.2648 14.9016 46.2226C14.9066 46.2326 14.9116 46.2376 14.9154 46.2414C14.9191 46.2451 14.9216 46.2476 14.9216 46.2526C15.0004 46.1496 15.1489 46.131 15.2805 46.1146C15.366 46.1039 15.4443 46.0941 15.4916 46.0626L15.5116 46.1526L15.8216 46.0726H15.7016C15.7016 45.9559 15.7654 45.9787 15.8529 46.0099C15.9453 46.0429 16.064 46.0853 16.1616 45.9826C16.2667 45.9826 16.3421 45.8526 16.4184 45.7211C16.5018 45.5773 16.5862 45.4317 16.7116 45.4526C16.7405 45.3947 16.7387 45.4206 16.7358 45.4617C16.7317 45.52 16.7254 45.6088 16.8016 45.5326C16.8213 45.5917 16.8095 45.6169 16.7996 45.6379C16.7893 45.6596 16.7812 45.6769 16.8116 45.7226C16.8725 45.6758 16.9377 45.6838 17.0063 45.6922C17.0842 45.7017 17.1665 45.7117 17.2516 45.6426L17.2816 45.7326C17.3798 45.6033 17.5101 45.6077 17.6283 45.6117C17.7387 45.6155 17.8385 45.6189 17.8916 45.5126C17.9941 45.4427 18.0576 45.4879 18.1163 45.5298C18.1836 45.5778 18.2448 45.6214 18.3516 45.4826L18.4916 45.5726C18.5485 45.5631 18.5559 45.5199 18.5629 45.4793C18.5707 45.4341 18.578 45.3921 18.6516 45.4026C18.6606 45.4388 18.6983 45.4422 18.7323 45.4454C18.7734 45.4491 18.809 45.4524 18.7816 45.5126C18.9285 45.5171 19.0397 45.4383 19.1576 45.3548C19.3046 45.2507 19.4619 45.1393 19.7116 45.1726C19.717 45.075 19.7842 45.0332 19.8461 44.9948C19.8984 44.9623 19.947 44.9321 19.9516 44.8726C19.9668 44.8954 20.0209 44.8764 20.0756 44.8571C20.165 44.8257 20.2561 44.7937 20.1816 44.9426C20.1716 44.9626 20.1416 44.9726 20.1316 44.9426L20.1516 45.0426C20.3205 45.0788 20.4021 44.9694 20.4842 44.8593C20.5381 44.787 20.5923 44.7143 20.6716 44.6826C20.6516 44.6826 20.6309 44.6867 20.6118 44.6904C20.5641 44.6997 20.5273 44.7069 20.5416 44.6426L20.7316 44.5526V44.6426L21.0316 44.5426L20.9416 44.4726C20.9946 44.4627 21.0443 44.4703 21.09 44.4773C21.1822 44.4914 21.2581 44.503 21.3116 44.3626C21.3261 44.3095 21.2823 44.296 21.2467 44.285C21.2085 44.2732 21.1795 44.2643 21.2416 44.2126C21.4616 44.1926 21.7516 44.0926 21.9916 43.9826C21.9253 43.9163 21.9551 43.8775 21.99 43.832C21.9973 43.8226 22.0047 43.8129 22.0116 43.8026L22.0716 43.8826C22.1478 43.7453 22.2008 43.7787 22.2555 43.8131C22.3084 43.8463 22.3629 43.8806 22.4416 43.7626L22.4616 43.8326L22.4016 43.6226C22.4397 43.4795 22.4938 43.4934 22.5465 43.5069C22.6042 43.5217 22.6602 43.5361 22.6916 43.3426C22.6116 43.4126 22.5216 43.1926 22.6516 43.1526L22.6816 43.2426C22.7024 43.2176 22.7128 43.1944 22.7215 43.1751C22.7337 43.1479 22.7424 43.1284 22.7716 43.1226C22.7716 43.1926 22.8416 43.2526 22.9116 43.1626L22.9316 43.3026L22.9816 43.0326C23.0655 43.0233 23.1341 42.9619 23.1977 42.905C23.2706 42.8398 23.3368 42.7806 23.4116 42.8126C23.4116 42.8126 23.6923 42.6535 23.6745 42.4983C23.6862 42.5389 23.727 42.5432 23.7698 42.5477C23.8171 42.5526 23.8666 42.5579 23.8816 42.6126C23.8816 42.4826 24.0116 42.2426 24.1516 42.2426V42.2626C24.3171 42.1653 24.4021 42.0252 24.4849 41.8887C24.5722 41.7447 24.6571 41.6047 24.8316 41.5226C24.7855 41.4903 24.7989 41.4538 24.812 41.418C24.8274 41.376 24.8424 41.3349 24.7616 41.3026C24.8071 41.1537 24.9244 41.0732 25.0266 41.0032C25.1715 40.9038 25.2858 40.8254 25.1216 40.6026C25.1727 40.5132 25.2401 40.5054 25.3004 40.4984C25.3345 40.4944 25.3663 40.4907 25.3916 40.4726V40.5126C25.5416 40.2526 25.5916 40.1826 25.7216 40.0026C25.7289 39.9585 25.712 39.9131 25.6946 39.8664C25.6645 39.7858 25.633 39.7012 25.7216 39.6126C25.7553 39.697 25.7819 39.6532 25.8135 39.6015C25.8193 39.5919 25.8253 39.582 25.8316 39.5726C25.8216 39.6226 25.8316 39.6526 25.9316 39.5926C25.9295 39.5863 25.9274 39.5805 25.9254 39.5749C25.9179 39.5538 25.9116 39.5363 25.9116 39.5126H25.9316C25.9716 39.3926 25.9316 39.3926 25.9016 39.4426C25.9016 39.4426 25.8716 39.4326 25.8416 39.4326C25.9151 39.4096 25.9612 39.3444 26.0021 39.2864C26.0503 39.2183 26.0913 39.1602 26.1616 39.1926C26.2594 38.9848 26.2899 38.7882 26.3194 38.5983C26.3382 38.4774 26.3566 38.3593 26.3916 38.2426C26.4716 38.2426 26.5016 38.3426 26.4816 38.4326L26.5616 38.2226C26.6308 38.2572 26.6042 38.311 26.578 38.364C26.5663 38.3876 26.5547 38.4111 26.5516 38.4326C26.6957 38.3503 26.7153 38.2071 26.7358 38.0575C26.7552 37.9163 26.7754 37.7694 26.9016 37.6626L26.8516 37.5726H26.8716C26.8716 37.5726 26.8016 37.4626 26.8016 37.4126C26.8293 37.4126 26.857 37.4187 26.8836 37.4246C26.906 37.4296 26.9276 37.4344 26.9478 37.4352C26.5619 36.6141 26.2308 35.7853 25.9497 34.957Z" fill="#8E8E8E"/>
<path fill-rule="evenodd" clip-rule="evenodd" d="M25.2578 32.5097C25.2261 32.5636 25.1956 32.5829 25.1716 32.5829L25.2015 32.5529H25.1116L25.0616 32.7329C25.0514 32.6974 25.0696 32.6413 25.0834 32.5986C25.0968 32.557 25.1062 32.5281 25.0815 32.5429L25.0215 32.6929C24.9979 32.6633 25.0057 32.5706 25.014 32.473C25.0197 32.4056 25.0256 32.3359 25.0215 32.2829C24.9396 32.2214 24.8273 32.2322 24.7158 32.2429C24.5554 32.2583 24.3965 32.2735 24.3315 32.0729L24.3616 31.9629C24.3903 31.8864 24.3572 31.9334 24.3203 31.9857C24.2801 32.0428 24.2354 32.1064 24.2615 32.0229L24.2115 32.0829C24.2115 32.0829 24.2116 32.0129 24.2416 31.9829C24.2245 31.9743 24.2147 31.9877 24.1934 32.0168C24.1898 32.0217 24.1859 32.0271 24.1816 32.0329V31.9229C24.1549 31.8643 24.1027 31.8823 24.0476 31.9014C23.9994 31.9181 23.9489 31.9356 23.9116 31.9029C23.8735 31.6652 23.6186 31.7619 23.4561 31.8236C23.4477 31.8268 23.4395 31.8299 23.4316 31.8329C23.3038 31.9214 23.246 31.7948 23.1883 31.6681C23.1286 31.5371 23.0688 31.4061 22.9316 31.5129C22.9316 31.4929 22.9015 31.5329 22.8915 31.5529L22.7416 31.4729C22.7416 31.4729 21.9816 31.1529 22.1216 32.6929L22.1016 32.7229C22.1616 32.8429 22.2015 32.8729 22.3315 32.7229C22.2941 32.8602 22.3268 32.8456 22.3566 32.8322C22.3746 32.8242 22.3915 32.8166 22.3915 32.8429V32.8629C22.4418 32.7875 22.4542 32.8333 22.4667 32.8798C22.4792 32.9258 22.4918 32.9725 22.5416 32.9029C22.5416 32.9229 22.5115 32.9829 22.5015 32.9829C22.5096 32.9813 22.5179 32.9789 22.526 32.9766C22.5683 32.9644 22.6051 32.9538 22.5715 33.0629C22.5973 33.0629 22.6231 33.0695 22.6494 33.0763C22.7251 33.0958 22.8051 33.1165 22.9016 32.9829L22.8819 33.0123C22.9268 32.9451 22.9369 32.9539 22.9479 32.9636C22.9564 32.971 22.9655 32.979 22.9916 32.9529V32.9829C23.0388 32.912 23.0686 32.9318 23.0954 32.9496C23.114 32.962 23.1311 32.9734 23.1516 32.9529L23.1216 33.0329H23.2015L23.1816 33.0129C23.2257 32.9001 23.2266 32.9364 23.2277 32.9874C23.229 33.0403 23.2306 33.1091 23.2816 33.0429C23.3003 33.0663 23.3607 32.9714 23.4206 32.8771C23.4887 32.77 23.5563 32.6637 23.5616 32.7329C23.5872 32.6902 23.5764 32.7149 23.5602 32.7517C23.5385 32.8013 23.5071 32.873 23.5416 32.8329C23.5213 32.8938 23.5113 32.9109 23.5024 32.926C23.4938 32.9408 23.4863 32.9536 23.4716 33.0029C23.5003 32.9838 23.5038 33.015 23.5073 33.0461C23.5112 33.0802 23.5151 33.1142 23.5516 33.0829L23.5215 33.1729C23.5835 33.0955 23.5975 33.1406 23.6103 33.1817C23.6223 33.2203 23.6332 33.2555 23.6816 33.1829C23.7251 33.1539 23.7125 33.2207 23.7015 33.2794C23.6896 33.3421 23.6796 33.3955 23.7416 33.3129L23.7216 33.4429C23.7216 33.4429 23.8016 33.2929 23.8016 33.3629C23.7874 33.4006 23.7888 33.4205 23.7901 33.4384C23.7915 33.4584 23.7927 33.4759 23.7715 33.5129C23.7805 33.5799 23.8194 33.5611 23.8605 33.5412C23.9115 33.5165 23.966 33.4901 23.9716 33.6229C24.0147 33.542 24.0346 33.5367 24.0531 33.5318C24.069 33.5276 24.0839 33.5236 24.1116 33.4729C24.104 33.4994 24.1136 33.5116 24.1231 33.5235C24.1386 33.5431 24.1537 33.5621 24.0916 33.6429C24.0916 33.6521 24.083 33.6443 24.0896 33.6273L24.0916 33.6229C24.0908 33.6244 24.0901 33.6259 24.0896 33.6273L24.0516 33.7129C24.0397 33.8262 24.0846 33.783 24.1313 33.7382C24.1629 33.7079 24.1954 33.6767 24.2115 33.6929C24.2115 33.6798 24.2094 33.672 24.2076 33.6654C24.2038 33.6519 24.2014 33.6432 24.2216 33.6029L24.2615 33.6329L24.2216 33.7029L24.2715 33.7729L24.3016 33.6729C24.3046 33.6912 24.3021 33.7198 24.2996 33.7473C24.2941 33.8097 24.2891 33.8662 24.3516 33.7829C24.3771 33.7471 24.3818 33.7113 24.3856 33.6822C24.3892 33.6544 24.392 33.6327 24.4116 33.6229C24.4156 33.639 24.4196 33.6568 24.4238 33.6753C24.4404 33.7485 24.4596 33.833 24.4916 33.8729C24.5264 33.7771 24.5385 33.7723 24.5542 33.7661C24.5566 33.7651 24.559 33.7642 24.5616 33.7629L24.5316 33.8529C24.5868 33.7976 24.5714 33.8508 24.5551 33.9074C24.5392 33.9624 24.5223 34.0207 24.5691 33.9848L24.5416 34.0429L24.5715 33.9829C24.5707 33.9836 24.5699 33.9842 24.5691 33.9848L24.6315 33.8529C24.6874 33.7784 24.6804 33.8166 24.6732 33.8565C24.6648 33.9023 24.656 33.9505 24.7416 33.8329C24.7116 33.8329 24.8115 33.6229 24.8215 33.6729L24.7816 33.7629C24.7816 33.7629 24.8215 33.7129 24.8315 33.7329C24.8015 33.7729 24.7716 33.8629 24.8016 33.8529L24.7416 33.9629L24.8516 33.8129C24.8516 33.8648 24.8716 33.8699 24.8896 33.8746C24.9098 33.8797 24.9274 33.8842 24.9116 33.9529C24.9116 33.9529 24.9572 34.0351 25.0224 33.9289C25.005 33.9622 25.0008 33.9906 24.9964 34.0201C24.9914 34.0536 24.9863 34.0883 24.9615 34.1329C25.0215 34.0429 25.1015 33.9829 25.0815 34.1029C25.1016 34.1781 25.1519 34.1578 25.1983 34.1389C25.2443 34.1203 25.2866 34.1031 25.2916 34.1829C25.3098 34.1327 25.3218 34.1221 25.3342 34.1111C25.349 34.098 25.3644 34.0844 25.3915 34.0029C25.4458 33.9611 25.4583 34.0118 25.4689 34.0551C25.4837 34.1155 25.4951 34.1617 25.6116 33.9229C25.6416 33.9229 25.6266 33.9904 25.6172 34.0326C25.6141 34.0466 25.6116 34.0579 25.6116 34.0629L25.5916 34.0829H25.5917C25.6284 34.0829 25.6525 34.0829 25.6716 34.0848C25.5209 33.5793 25.3882 33.0751 25.2726 32.574C25.2658 32.5889 25.2588 32.6051 25.2515 32.6229C25.2291 32.6079 25.2403 32.5705 25.2599 32.519C25.2592 32.5159 25.2585 32.5128 25.2578 32.5097Z" fill="#8E8E8E"/>
<path fill-rule="evenodd" clip-rule="evenodd" d="M28.8719 40.7715C28.8255 40.9037 28.7769 41.0518 28.7209 41.2232C28.6057 41.4484 28.5124 41.6956 28.4195 41.9417C28.3351 42.1655 28.2509 42.3884 28.1509 42.5932C28.1717 42.739 28.0869 42.8793 27.9993 43.0241C27.9186 43.1575 27.8357 43.2946 27.8309 43.4432L27.7009 43.4832C27.7009 43.5932 27.6709 43.7032 27.5809 43.7532L27.561 43.7332C27.5494 43.8196 27.5014 43.8894 27.4608 43.9484C27.431 43.9918 27.4052 44.0293 27.4009 44.0632L27.3809 44.0432L27.2909 44.1832L27.2709 44.1332C27.1909 44.3732 27.0509 44.5732 26.8909 44.7332L26.9909 44.7932C26.8253 44.932 26.7438 45.0627 26.6685 45.1837C26.5755 45.3329 26.4918 45.4672 26.2709 45.5832L26.2509 45.5632C26.1716 45.8804 25.9833 46.0047 25.7894 46.1328C25.6166 46.2469 25.4393 46.364 25.3309 46.6232C25.3489 46.5813 25.3238 46.5824 25.2965 46.5836C25.2782 46.5844 25.2589 46.5852 25.2509 46.5732C25.2409 46.5843 25.2309 46.5955 25.2209 46.6066C25.0598 46.7854 24.8991 46.9637 25.0309 47.1332C24.9177 47.2303 24.883 47.203 24.8315 47.1626C24.8193 47.153 24.8062 47.1427 24.7909 47.1332C24.8609 47.2132 24.7609 47.3532 24.6509 47.4532L24.681 47.3832C24.6477 47.4165 24.6155 47.4509 24.5833 47.4853C24.5188 47.5542 24.4543 47.6232 24.3809 47.6832L24.561 47.7832C24.4529 47.8225 24.4052 47.787 24.3668 47.7585C24.327 47.7289 24.2973 47.7069 24.2209 47.7832L24.3209 47.9032C24.1528 47.9933 23.981 47.9968 23.8057 48.0004C23.689 48.0028 23.5708 48.0052 23.4509 48.0332C23.3493 48.1009 23.2469 48.1695 23.1437 48.2385C22.7293 48.5159 22.3033 48.801 21.871 49.0732C21.351 49.4432 20.7709 49.6932 20.1709 49.7632L20.0809 49.6732C20.0414 49.599 19.9896 49.6838 19.9352 49.7727C19.8797 49.8636 19.8215 49.9589 19.7709 49.8932L19.6709 50.0132C19.6709 50.0132 19.5409 49.9932 19.5909 49.9332C19.5022 49.9627 19.4846 49.9868 19.4531 50.0297C19.442 50.0448 19.4292 50.0623 19.4109 50.0832L19.2509 50.0332C18.992 50.0596 18.7694 50.153 18.5418 50.2485C18.3386 50.3338 18.1315 50.4207 17.8909 50.4632C17.2509 50.4532 16.1309 50.7832 15.4609 50.9932C15.2309 51.0932 14.9809 51.1332 14.7309 51.1432C14.5197 51.1432 14.3085 51.1102 14.092 51.0764C14.0419 51.0685 13.9916 51.0607 13.9409 51.0532L13.9308 51.0516C13.4043 50.9722 12.8878 50.8942 12.4009 51.0532C12.3709 51.0332 12.2909 51.0932 12.2909 51.1032C12.081 51.1172 11.871 51.0969 11.661 51.0766C11.5709 51.0679 11.4809 51.0592 11.3909 51.0532C11.3909 51.0532 10.3009 50.9832 9.61094 51.1032C8.93094 51.2332 8.59091 51.5532 10.2609 52.3532L10.2309 52.3932C10.7409 52.5132 11.0709 52.5432 11.4209 52.3732C11.4518 52.5149 11.6041 52.501 11.7445 52.4881C11.832 52.4801 11.9149 52.4725 11.9609 52.5032V52.5232C12.1142 52.4312 12.2779 52.4645 12.4413 52.4978C12.5978 52.5296 12.7542 52.5614 12.9009 52.4832C12.8993 52.4864 12.8977 52.4907 12.8958 52.4956C12.8862 52.5212 12.8697 52.5648 12.811 52.5732C12.8192 52.5717 12.8275 52.5702 12.8359 52.5686C13.053 52.529 13.3317 52.4781 13.3509 52.6032C13.4945 52.5869 13.6542 52.5795 13.817 52.5719C14.255 52.5515 14.7149 52.53 14.9409 52.3332L14.9209 52.3732C15.0246 52.2753 15.0918 52.2702 15.1683 52.2645C15.2247 52.2602 15.2861 52.2556 15.371 52.2132C15.3764 52.224 15.3847 52.229 15.3913 52.2329C15.3967 52.2361 15.4009 52.2386 15.4009 52.2432C15.5158 52.1404 15.7149 52.1217 15.8896 52.1053C16.0039 52.0945 16.1077 52.0848 16.1709 52.0532L16.1909 52.1432L16.6009 52.0632H16.4409C16.4458 51.9411 16.527 51.9645 16.6402 51.9971C16.7589 52.0312 16.9128 52.0755 17.0509 51.9732C17.1892 51.9732 17.3002 51.8323 17.412 51.6902C17.5348 51.5343 17.6587 51.377 17.8209 51.4032C17.8666 51.3408 17.8605 51.3666 17.8507 51.408C17.8369 51.4661 17.8158 51.555 17.9209 51.4732C17.9402 51.5311 17.9223 51.5564 17.9075 51.5772C17.8917 51.5995 17.8795 51.6166 17.9209 51.6632C18.0103 51.6114 18.0953 51.6172 18.1842 51.6233C18.2842 51.6301 18.3891 51.6373 18.5109 51.5632L18.5509 51.6532C18.6966 51.5179 18.8667 51.5153 19.0202 51.5129C19.1618 51.5107 19.2894 51.5087 19.371 51.4032C19.5123 51.3302 19.5892 51.3696 19.6576 51.4045C19.7392 51.4463 19.8086 51.4818 19.9609 51.3132L20.1409 51.3932C20.2111 51.3791 20.2266 51.3367 20.2416 51.2954C20.2587 51.2485 20.2752 51.2032 20.371 51.2032C20.3801 51.2398 20.4291 51.2408 20.4729 51.2417C20.5246 51.2427 20.5689 51.2436 20.5309 51.3032C20.7175 51.2943 20.8705 51.2045 21.033 51.1092C21.2362 50.99 21.4541 50.8621 21.7709 50.8732C21.7871 50.7651 21.8735 50.7066 21.9542 50.652C22.0227 50.6057 22.0872 50.5621 22.1009 50.4932C22.116 50.5158 22.1862 50.4888 22.2579 50.4613C22.3767 50.4157 22.4994 50.3686 22.3809 50.5432C22.3609 50.5632 22.321 50.5832 22.311 50.5532V50.6532C22.5282 50.6713 22.6471 50.5437 22.7666 50.4155C22.8451 50.3313 22.9239 50.2468 23.0309 50.2032C23.0043 50.2061 22.9768 50.2135 22.9523 50.22C22.894 50.2355 22.8527 50.2466 22.8809 50.1832L23.1309 50.0732V50.1732L23.5009 50.0232L23.4009 49.9632C23.4602 49.9513 23.5159 49.9526 23.5676 49.9539C23.6905 49.9568 23.7906 49.9591 23.8609 49.7832C23.8798 49.7218 23.8296 49.7162 23.7881 49.7115C23.7418 49.7063 23.7065 49.7023 23.7909 49.6232L23.7964 49.6212C24.0466 49.5311 24.4331 49.392 24.7309 49.2332C24.6602 49.1703 24.6945 49.1321 24.7416 49.0798C24.7544 49.0656 24.7681 49.0503 24.7809 49.0332L24.8509 49.1032C24.962 48.9467 25.0221 48.9737 25.0839 49.0015C25.1446 49.0288 25.207 49.0568 25.3209 48.9132L25.3409 48.9832L25.2909 48.7632C25.3476 48.5931 25.4088 48.5949 25.4681 48.5967C25.5343 48.5986 25.5982 48.6005 25.6509 48.3632C25.5509 48.4732 25.461 48.2332 25.621 48.1532L25.6509 48.2532C25.6738 48.2226 25.688 48.1964 25.7001 48.1741C25.7197 48.1379 25.7338 48.1117 25.7709 48.0932C25.7709 48.1732 25.841 48.2232 25.931 48.1132V48.2632L26.0209 47.9532C26.1234 47.9252 26.2128 47.8431 26.2953 47.7673C26.39 47.6803 26.4755 47.6018 26.561 47.6232C26.561 47.6232 26.8997 47.3851 26.8939 47.2069C26.9052 47.2457 26.9478 47.2397 26.9934 47.2334C27.0475 47.2258 27.1058 47.2177 27.121 47.2832C27.121 47.1232 27.2909 46.8132 27.4709 46.7832V46.8132C27.6931 46.6492 27.8117 46.4545 27.9275 46.2645C28.0306 46.0953 28.1314 45.9298 28.3009 45.7932C28.2559 45.7707 28.2697 45.7259 28.2838 45.6798C28.3011 45.6235 28.3189 45.5652 28.2309 45.5432C28.2936 45.3511 28.4347 45.2287 28.5568 45.123C28.7269 44.9755 28.8598 44.8603 28.6909 44.6332C28.7542 44.5193 28.8255 44.4895 28.8896 44.4627C28.9268 44.4471 28.9616 44.4326 28.9909 44.4032V44.4632C29.1509 44.1032 29.2009 44.0032 29.3609 43.7532C29.3719 43.6985 29.3562 43.6478 29.3402 43.5957C29.3122 43.505 29.2829 43.4103 29.3909 43.2832C29.4161 43.3754 29.4482 43.32 29.4874 43.2526C29.495 43.2396 29.5028 43.2261 29.5109 43.2132C29.4909 43.2732 29.511 43.3032 29.621 43.2132C29.611 43.1832 29.6109 43.1532 29.6109 43.1232H29.6309C29.6709 42.9632 29.6309 42.9732 29.6009 43.0432C29.5983 43.0432 29.595 43.0425 29.5909 43.0417C29.5797 43.0393 29.563 43.0358 29.5409 43.0432C29.6199 42.9921 29.6644 42.8957 29.7034 42.811C29.7483 42.7136 29.786 42.6318 29.8609 42.6532C29.9145 42.5052 29.9531 42.3672 29.9834 42.2354C29.5876 41.7564 29.2175 41.2677 28.8719 40.7715Z" fill="#8E8E8E"/>
<path fill-rule="evenodd" clip-rule="evenodd" d="M32.1944 44.5503C32.08 44.8583 31.9636 45.2027 31.8319 45.6242C31.7005 45.9286 31.5643 46.2329 31.4267 46.5405C31.3653 46.6777 31.3036 46.8155 31.242 46.9542C31.0999 47.2519 30.9395 47.5405 30.7824 47.823C30.7074 47.958 30.6331 48.0916 30.562 48.2242C30.5187 48.4838 30.3146 48.7522 30.1062 49.0262C29.9292 49.2588 29.7492 49.4954 29.6619 49.7342C29.6219 49.7609 29.573 49.7787 29.5241 49.7965C29.4997 49.8054 29.4752 49.8142 29.4519 49.8242C29.3719 49.9842 29.2519 50.1642 29.0819 50.2642V50.2342C29.005 50.3716 28.8978 50.4909 28.8069 50.5921C28.7325 50.675 28.6689 50.7457 28.6419 50.8042V50.7742C28.5902 50.8202 28.5484 50.8695 28.507 50.9182C28.4764 50.9544 28.446 50.9902 28.4119 51.0242V50.9542C28.1219 51.3142 27.7619 51.6442 27.4119 51.9042L27.5119 51.9742C27.1626 52.1865 26.9326 52.3733 26.7189 52.5468C26.4494 52.7657 26.2059 52.9634 25.7819 53.1642V53.1342C25.4375 53.4968 25.0684 53.6458 24.7119 53.7896C24.6751 53.8045 24.6384 53.8193 24.6019 53.8342C24.5619 53.8502 24.5219 53.8658 24.4819 53.8814C24.3219 53.9438 24.1619 54.0062 24.0019 54.0942C23.7919 54.1742 23.5719 54.2942 23.3419 54.4642C23.41 54.4147 23.3631 54.415 23.3175 54.4153C23.2895 54.4155 23.2619 54.4157 23.2619 54.4042C23.2256 54.422 23.189 54.4397 23.1524 54.4575C22.735 54.6597 22.3175 54.862 22.3819 55.0642C22.1035 55.1756 22.0719 55.1288 22.0353 55.0748C22.0259 55.0609 22.0162 55.0465 22.0019 55.0342C22.0319 55.1242 21.7419 55.2542 21.4619 55.3442L21.5819 55.2742L20.7919 55.5442L21.0019 55.6842C20.7873 55.7184 20.7416 55.674 20.7047 55.6382C20.6659 55.6005 20.6368 55.5723 20.432 55.6542L20.4719 55.8042C20.0932 55.9052 19.7862 55.8628 19.4604 55.8178C19.27 55.7914 19.0732 55.7642 18.8519 55.7642C17.6997 55.9947 16.4829 56.1698 15.2813 56.3427C15.2315 56.3499 15.1817 56.3571 15.1319 56.3642C13.8719 56.4842 12.6219 56.5342 11.4619 56.3642L11.3619 56.2442C11.3423 56.1607 11.185 56.2124 11.0206 56.2664C10.8504 56.3223 10.6726 56.3807 10.6319 56.2942L10.3619 56.3542C10.3443 56.3442 10.3209 56.3341 10.2979 56.3241C10.2297 56.2947 10.1647 56.2667 10.2619 56.2442C10.0504 56.2273 10.0107 56.239 9.89447 56.2733C9.87332 56.2796 9.84963 56.2865 9.82191 56.2942L9.56196 56.1742C9.26911 56.1306 8.95684 56.1219 8.68322 56.1143C8.5177 56.1097 8.36633 56.1055 8.24195 56.0942C7.88195 56.0542 7.50195 55.9442 7.18195 55.6842C6.84195 55.3142 6.41194 54.7642 6.17194 54.0642C6.05194 53.7142 5.99194 53.3342 5.98194 52.9742C5.9661 52.8317 5.97536 52.6954 5.98486 52.5555C5.98736 52.5187 5.98987 52.4817 5.99195 52.4442C5.99417 52.4221 5.99638 52.4001 5.99858 52.3782C6.01626 52.2024 6.03305 52.0354 6.04194 51.8842C6.0775 51.0131 6.28098 50.1024 6.48642 49.1829C6.74318 48.0337 7.00301 46.8708 6.9419 45.7542C6.9719 45.6942 6.94193 45.5242 6.91193 45.5242L7.09193 43.7242C7.09193 43.7242 7.28191 41.5342 7.20191 40.1642C7.12191 38.7942 6.82192 38.2642 5.90192 41.5242L5.87196 41.4742C5.71196 42.4542 5.64193 43.0642 5.78193 43.7542C5.63328 43.81 5.63425 44.1036 5.63513 44.3736C5.63568 44.5396 5.63619 44.6967 5.60194 44.7842L5.58192 44.7642C5.64342 45.0769 5.57358 45.3895 5.50435 45.6995C5.4385 45.9943 5.3732 46.2866 5.42194 46.5742C5.41894 46.5712 5.41503 46.5682 5.41059 46.5648C5.3886 46.5479 5.35362 46.521 5.35098 46.4347C5.35104 46.432 5.35111 46.4293 5.35117 46.4266C5.35143 46.4157 5.35168 46.4049 5.35194 46.3942C5.35088 46.409 5.3506 46.4224 5.35098 46.4347C5.34117 46.8505 5.32746 47.3949 5.1919 47.4142C5.16996 47.7277 5.13132 48.0784 5.0923 48.4327C5.00682 49.2086 4.91951 50.0011 5.0019 50.4542L4.97193 50.4042C5.0236 50.6224 4.99947 50.745 4.97144 50.8874C4.95064 50.993 4.92769 51.1096 4.93195 51.2842C4.92432 51.2919 4.91814 51.301 4.91286 51.3087C4.9043 51.3213 4.8981 51.3304 4.89191 51.3242C4.93402 51.5401 4.8764 51.8445 4.81966 52.1443C4.76861 52.4141 4.71827 52.68 4.74195 52.8742L4.65192 52.8942C4.64192 53.1942 4.65191 53.5042 4.70191 53.8042C4.69191 53.6942 4.6919 53.5742 4.6919 53.4642C4.7964 53.5034 4.78905 53.6431 4.77881 53.8378C4.76552 54.0903 4.74737 54.4355 4.96192 54.7742C5.07899 55.143 5.39477 55.3747 5.69869 55.5977C5.914 55.7557 6.12335 55.9094 6.2519 56.1042C6.37154 56.1496 6.33801 56.1508 6.28401 56.1526C6.20711 56.1552 6.08873 56.1591 6.31196 56.2942C6.27741 56.3485 6.22582 56.3297 6.18482 56.3148C6.14274 56.2995 6.11183 56.2882 6.12196 56.3642C6.24751 56.4514 6.3463 56.5483 6.44463 56.6448C6.62825 56.8249 6.81026 57.0035 7.16193 57.1142L7.14191 57.2142C7.39858 57.2606 7.64381 57.3349 7.87216 57.4041C8.2844 57.529 8.64165 57.6372 8.91193 57.5342C9.22507 57.5155 9.33725 57.5842 9.4404 57.6474C9.55795 57.7193 9.66377 57.7841 10.0419 57.7042L10.3019 57.8542C10.4429 57.873 10.5 57.8411 10.5551 57.8102C10.6173 57.7753 10.677 57.7418 10.8519 57.7842C10.8428 57.8209 10.9281 57.8429 11.005 57.8626C11.0959 57.886 11.1748 57.9063 11.0719 57.9442C11.4282 58.0405 11.7938 58.0047 12.1865 57.9662C12.6094 57.9247 13.0638 57.8802 13.5719 57.9942C13.6837 57.9037 13.8778 57.8869 14.0575 57.8714C14.2152 57.8577 14.3618 57.845 14.432 57.7842C14.444 57.8205 14.6068 57.8227 14.7618 57.8248C14.9918 57.8279 15.2045 57.8307 14.8819 57.9442C14.8319 57.9542 14.7519 57.9542 14.7519 57.9242L14.6919 58.0242C15.0418 58.1208 15.3408 58.0317 15.6437 57.9414C15.8429 57.882 16.0437 57.8222 16.2619 57.8142C16.2109 57.8082 16.1554 57.8067 16.1064 57.8054C15.9923 57.8023 15.9139 57.8002 16.0119 57.7442L16.5319 57.7042L16.432 57.7942L17.2119 57.7642L17.0919 57.6742C17.2189 57.6742 17.3212 57.6954 17.4162 57.7151C17.6056 57.7543 17.7655 57.7874 18.0319 57.6342C18.1188 57.5764 18.0357 57.558 17.9691 57.5433C17.8977 57.5276 17.8453 57.516 18.0419 57.4642C18.5519 57.4442 19.3219 57.4042 19.9619 57.3042C19.8952 57.2208 20.0024 57.1861 20.1385 57.1421C20.1655 57.1333 20.1937 57.1242 20.2219 57.1142L20.2619 57.2042C20.5794 57.0429 20.6531 57.0798 20.7287 57.1176C20.803 57.1548 20.8791 57.1929 21.1898 57.0452L21.1519 57.1242L21.1919 57.0442C21.1912 57.0446 21.1905 57.0449 21.1898 57.0452L21.2719 56.8742C21.5286 56.7031 21.6271 56.7173 21.7221 56.7309C21.827 56.7459 21.9276 56.7604 22.2319 56.5242C21.9719 56.6142 22.042 56.3542 22.372 56.3042L22.3219 56.4142C22.3947 56.3843 22.4455 56.358 22.4892 56.3353C22.5476 56.3051 22.5933 56.2814 22.6619 56.2642C22.5819 56.3542 22.6619 56.4142 22.9019 56.3042L22.7719 56.4842L23.1919 56.1242C23.3874 56.1004 23.6101 56.0061 23.8124 55.9205C24.0345 55.8264 24.232 55.7428 24.3419 55.7742C24.3419 55.7742 24.5519 55.7142 24.7619 55.6042C24.9564 55.4931 25.168 55.3648 25.2379 55.2591C25.2167 55.3121 25.2888 55.3059 25.3654 55.2993C25.4534 55.2918 25.5471 55.2838 25.5119 55.3642C25.6619 55.1642 26.202 54.7742 26.492 54.7442L26.4519 54.7842C26.9481 54.5333 27.3045 54.2358 27.6544 53.9436C27.9321 53.7118 28.2057 53.4833 28.5419 53.2842C28.4964 53.2569 28.5525 53.188 28.6101 53.1174C28.679 53.033 28.7499 52.946 28.6519 52.9242C28.9031 52.621 29.2068 52.4154 29.4721 52.2358C29.5131 52.2081 29.5531 52.181 29.5919 52.1542C29.8519 51.9342 30.0319 51.7242 29.9719 51.4542C30.1386 51.2491 30.26 51.1878 30.3679 51.1333C30.4283 51.1028 30.4845 51.0745 30.5419 51.0242L30.492 51.1142C30.7801 50.7742 30.9288 50.5571 31.0719 50.348C31.1772 50.1943 31.2794 50.0449 31.432 49.8542C31.4809 49.7564 31.493 49.6755 31.5056 49.5914C31.5264 49.452 31.5486 49.3037 31.742 49.0542C31.7338 49.2098 31.7926 49.1106 31.8691 48.9818C31.886 48.9533 31.9038 48.9232 31.9219 48.8942C31.8719 49.0042 31.8819 49.0542 32.0519 48.8642V48.864C32.0519 48.824 32.0519 48.7641 32.0719 48.7142H32.0919C32.2319 48.4242 32.1719 48.4542 32.0919 48.5842C32.0919 48.5742 32.0619 48.5742 32.0219 48.6042C32.1432 48.4969 32.2515 48.3177 32.3467 48.1602C32.4555 47.9801 32.5473 47.8282 32.622 47.8442C32.9908 46.9571 33.1708 46.2885 33.3502 45.5315C32.9485 45.2127 32.5635 44.8853 32.1944 44.5503ZM33.433 45.5969C33.4397 45.6669 33.4272 45.773 33.4019 45.8842L33.4769 45.6314C33.4622 45.6199 33.4476 45.6084 33.433 45.5969ZM33.5273 45.6707C33.5271 45.6711 33.527 45.6716 33.5268 45.672C33.5051 45.7335 33.4837 45.7941 33.4719 45.8442C33.5037 45.7958 33.5323 45.746 33.5584 45.6949C33.548 45.6868 33.5376 45.6788 33.5273 45.6707Z" fill="#8E8E8E"/>
<path d="M43.7126 51.0519L43.3926 50.9219C43.3926 50.9219 43.4726 50.9819 43.7126 51.0519Z" fill="white"/>
<path d="M33.0527 43.9631L33.0627 43.9731L33.1327 44.0132L33.0527 43.9531V43.9631Z" fill="white"/>
<path d="M43.3125 19.7949V19.8749C43.3125 19.8749 43.3325 19.8349 43.3125 19.7949Z" fill="#8E8E8E"/>
<path d="M43.8425 22.7932L43.8125 22.7832L43.8425 22.7932Z" fill="#8E8E8E"/>
<path d="M41.6519 19.814C41.8519 20.264 41.9619 20.564 42.1119 20.844C42.2619 21.124 42.3919 21.434 42.7819 21.774C43.0919 22.154 43.4619 22.514 43.8419 22.784C44.1219 22.804 44.3019 23.194 44.5819 23.254L44.6019 23.384C44.7019 23.394 44.8119 23.434 44.8519 23.524L44.8319 23.544C44.9819 23.564 45.0819 23.684 45.1519 23.694L45.1319 23.714L45.2719 23.794L45.2219 23.814C45.4519 23.884 45.6519 24.024 45.8019 24.164L45.8519 24.054C46.1719 24.384 46.4319 24.264 46.7019 24.594L46.6819 24.614C47.2619 24.614 47.2919 25.184 47.9019 25.134C47.8319 25.134 47.9019 25.204 47.8819 25.224C48.1119 25.294 48.3519 25.384 48.4519 25.174C48.6119 25.244 48.5519 25.294 48.5419 25.384C48.5819 25.294 48.7319 25.314 48.8519 25.364H48.7819C48.9019 25.424 49.0319 25.444 49.1519 25.474V25.274C49.3219 25.394 49.1119 25.504 49.3119 25.524L49.3619 25.374C49.6119 25.494 49.6919 25.774 49.9119 25.964C50.4419 26.204 51.0419 26.264 51.6119 26.344C52.1919 26.424 52.7419 26.544 53.2319 26.744L53.2518 26.864C53.2518 27.034 53.5819 26.664 53.5919 26.824L53.7219 26.764C53.7219 26.764 53.8118 26.844 53.7518 26.874C53.8618 26.894 53.8719 26.874 53.9619 26.834L54.0619 26.954C54.4919 27.104 54.8919 26.984 55.3519 27.054C55.8919 27.314 56.9719 27.224 57.5719 27.144C58.4219 26.904 59.4119 27.614 60.2819 27.324C60.3119 27.344 60.3819 27.294 60.3819 27.274H61.1819C61.1819 27.274 62.1519 27.244 62.7419 27.054C63.3319 26.864 63.5219 26.524 62.0519 25.874L62.0719 25.834C61.6419 25.764 61.3819 25.754 61.0919 25.954C61.0419 25.724 60.7419 25.954 60.6419 25.874V25.854C60.3919 26.044 60.1119 25.734 59.8719 25.884C59.8719 25.864 59.8819 25.804 59.9419 25.804C59.7619 25.834 59.5118 25.874 59.5018 25.744C59.0718 25.774 58.4719 25.694 58.1819 25.904L58.2019 25.864C58.0419 26.004 57.9919 25.884 57.8119 25.954C57.8119 25.934 57.7919 25.924 57.7919 25.924C57.6119 26.074 57.2919 25.924 57.1419 25.974V25.884H56.7919L56.9219 25.914C56.8619 26.154 56.6719 25.734 56.4119 25.874C56.1819 25.824 55.8919 26.344 55.6619 26.194C55.5319 26.294 55.7819 26.014 55.6019 26.094C55.6019 25.964 55.6919 26.024 55.6619 25.914C55.4819 25.954 55.4019 25.764 55.1819 25.824V25.724C54.8919 25.874 54.7019 25.514 54.4919 25.664C54.2019 25.704 54.3519 25.344 54.0319 25.484L53.9419 25.334C53.8219 25.294 53.8219 25.484 53.7019 25.394C53.7219 25.314 53.5419 25.304 53.6319 25.234C53.3519 25.044 52.9719 25.334 52.6219 25.004C52.5019 25.144 52.3219 25.004 52.2319 25.104C52.2319 25.034 51.8319 24.994 52.0919 24.894C52.1119 24.894 52.1519 24.894 52.1419 24.924L52.1919 24.834C52.0119 24.604 51.7619 24.834 51.5419 24.754C51.6019 24.804 51.6919 24.814 51.6119 24.864L51.4119 24.804L51.4719 24.734L51.1819 24.614V24.724C51.0619 24.644 51.0619 24.454 50.8519 24.534C50.7519 24.584 50.9519 24.714 50.7819 24.694C50.6019 24.564 50.3419 24.364 50.1119 24.244C50.1019 24.364 50.0319 24.334 49.9519 24.334L49.9819 24.234C49.6719 24.274 49.9619 23.994 49.6619 24.014L49.7119 23.954L49.5719 24.124C49.2619 24.224 49.5219 23.894 49.1619 24.034C49.2719 24.064 49.1219 24.264 49.0219 24.164L49.0919 24.094C49.0119 24.084 48.9819 24.104 48.9419 24.074C49.0019 24.044 49.0219 23.954 48.9119 23.924L49.0219 23.844L48.7619 23.924C48.6619 23.764 48.3719 23.774 48.3719 23.624C48.3719 23.624 48.0919 23.424 47.9519 23.524C48.0519 23.474 47.9018 23.364 48.0018 23.284C47.8818 23.334 47.6119 23.284 47.5719 23.134H47.5919C47.3219 22.844 46.9419 22.944 46.7219 22.654C46.6719 22.764 46.5519 22.604 46.5119 22.754C46.1319 22.664 46.1619 22.134 45.7819 22.424C45.6319 22.344 45.6919 22.224 45.6319 22.154H45.6819C45.4019 22.014 45.3519 21.944 45.1819 21.784C45.0719 21.744 44.9119 21.884 44.7919 21.714C44.9019 21.694 44.8219 21.654 44.7719 21.604C44.8219 21.624 44.8519 21.614 44.8119 21.504C44.7819 21.504 44.7519 21.504 44.7319 21.504C44.7319 21.504 44.7319 21.494 44.7419 21.484C44.6319 21.424 44.6219 21.454 44.6619 21.504C44.6519 21.504 44.6419 21.524 44.6419 21.554C44.6219 21.384 44.3619 21.314 44.4619 21.194C44.1919 20.934 43.8919 20.834 43.6319 20.624C43.6619 20.554 43.7719 20.564 43.8519 20.624C43.7919 20.574 43.7319 20.524 43.6819 20.474C43.7619 20.414 43.8119 20.534 43.8719 20.574C43.8219 20.274 43.4119 20.234 43.3519 19.894H43.2419V19.864C43.2019 19.894 43.1119 19.864 43.0719 19.834C43.1219 19.744 43.2519 19.724 43.1619 19.594C43.1819 19.444 42.9619 19.314 42.8419 19.204C42.8719 19.284 42.8119 19.284 42.7619 19.274C42.7219 19.204 42.7819 19.124 42.7219 19.094L42.8319 19.034C42.7419 19.114 42.6219 18.914 42.5619 18.914C42.6219 18.834 42.6919 18.984 42.7619 18.974C42.6019 18.714 42.6919 18.844 42.5519 18.564C42.4019 18.444 42.4519 18.634 42.3219 18.604C42.2419 18.474 42.1019 18.374 42.1119 18.184L42.0319 18.274C41.8519 18.034 41.8319 17.854 41.8819 17.644C41.2119 16.714 40.9419 16.534 40.7419 16.724C40.5719 16.914 40.5619 17.424 40.5619 17.424C40.5319 18.454 41.0019 18.874 41.5919 19.814H41.6519Z" fill="#8E8E8E"/>
<path d="M45.7617 14.8341L45.8517 14.8541C45.8517 14.8541 45.8217 14.8241 45.7617 14.8341Z" fill="#8E8E8E"/>
<path d="M49.1918 15.6641H49.1819L49.1719 15.6841L49.1918 15.6641Z" fill="#8E8E8E"/>
<path d="M45.1721 16.4736C46.2321 16.2436 46.5621 16.3936 47.6221 16.0536C48.1421 15.9536 48.6821 15.7836 49.1921 15.6636C49.4021 15.4436 49.8621 15.5436 50.1221 15.3436L50.2521 15.4136C50.3421 15.3436 50.4521 15.3036 50.5621 15.3336V15.3636C50.6921 15.2736 50.8721 15.2836 50.9421 15.2336V15.2636L51.1221 15.2236L51.0921 15.2636C51.3421 15.1436 51.6021 15.1136 51.8421 15.1136L51.8121 15.0036C52.3321 15.0636 52.4921 14.8136 52.9621 14.9136V14.9436C53.5121 14.5836 53.8721 15.0736 54.4521 14.7536C54.3821 14.7936 54.4821 14.8136 54.4821 14.8436C54.7521 14.8036 55.0421 14.7836 55.0421 14.5536C55.2421 14.5536 55.2021 14.6236 55.2321 14.7036C55.2321 14.6036 55.4021 14.5636 55.5621 14.5536L55.4921 14.5936L55.9321 14.5636L55.8521 14.3736C56.0921 14.4336 55.9021 14.6036 56.1321 14.5636V14.4036C56.4621 14.4536 56.6421 14.6936 56.9321 14.8336C57.5721 14.9136 58.2221 14.9336 58.8521 15.0436C59.4821 15.1436 60.0921 15.3536 60.4821 15.7536L60.4621 15.8836C60.3821 16.0336 60.8421 15.8336 60.7921 15.9836C60.8421 15.9836 60.8821 15.9836 60.9321 15.9936C60.9321 16.0436 60.9721 16.1136 60.9021 16.1036C60.9821 16.1836 61.0021 16.1636 61.1021 16.1736C61.1021 16.2236 61.1121 16.2736 61.1121 16.3336C61.3421 16.6736 61.7021 16.8536 61.8421 17.2936C61.8421 17.5736 61.9121 17.9436 61.9821 18.3536C62.0521 18.8236 62.1521 19.3336 62.2321 19.6936C62.5421 20.7036 61.9221 21.9336 62.2721 22.9736C62.2521 23.0136 62.3121 23.0936 62.3321 23.0936L62.3621 24.0536C62.3621 24.0536 62.5421 28.7136 63.7721 25.0936L63.8121 25.1136C63.8721 24.5836 63.8821 24.2536 63.6721 23.9036C63.9021 23.8336 63.6721 23.4736 63.7421 23.3436H63.7621C63.5721 23.0436 63.8721 22.6836 63.7021 22.3836C63.7221 22.3936 63.7821 22.3936 63.7921 22.4636C63.7521 22.2436 63.6821 21.9336 63.8221 21.9136C63.7621 21.3836 63.7821 20.6236 63.5521 20.2936L63.5921 20.3136C63.4421 20.1236 63.5621 20.0636 63.4721 19.8436C63.4921 19.8336 63.5021 19.8136 63.5021 19.8136C63.3521 19.6036 63.4521 19.1936 63.3821 19.0236L63.4721 19.0036L63.4321 18.5836V18.7436C63.1721 18.6836 63.5721 18.4436 63.3721 18.0936C63.3721 17.7536 62.7821 17.5436 62.8121 17.2236C62.6521 17.1136 63.0321 17.2936 62.8721 17.1036C62.9921 17.0536 62.9821 17.1836 63.0621 17.0936C62.9221 16.8936 63.0621 16.6736 62.8421 16.4436L62.9221 16.3836C62.6021 16.1236 62.6321 15.6736 62.3221 15.5836C61.9921 15.3536 62.3521 15.1636 61.9021 15.0336L61.8621 14.8236C61.7321 14.6836 61.6621 14.8736 61.5321 14.7136C61.5921 14.6536 61.3621 14.5136 61.5021 14.5136C61.1821 14.1336 60.6321 14.2236 60.1821 13.8136C60.0121 13.9336 59.7721 13.7436 59.6521 13.8336C59.6521 13.7536 59.1121 13.6736 59.4621 13.6036C59.4921 13.6036 59.5421 13.6036 59.5221 13.6436L59.5821 13.5636C59.3221 13.3036 58.9921 13.5036 58.6921 13.4236C58.7721 13.4736 58.9021 13.4836 58.8021 13.5336L58.5221 13.4636L58.5921 13.3936C58.4521 13.3536 58.3121 13.3036 58.1721 13.2736L58.2121 13.3836C58.0121 13.3036 57.9621 13.1236 57.7121 13.2336C57.5921 13.3036 57.8921 13.3936 57.6721 13.4036C57.4121 13.3036 57.0021 13.1536 56.6521 13.1036C56.6821 13.2236 56.5821 13.2136 56.4821 13.2336V13.1336C56.1021 13.2536 56.3521 12.9036 55.9721 13.0036L56.0021 12.9336L55.9021 13.1436C55.5721 13.3336 55.7221 12.9336 55.3521 13.2036C55.5021 13.1836 55.4221 13.4236 55.2421 13.3836L55.2821 13.2836C55.1821 13.3036 55.1521 13.3436 55.0821 13.3236C55.1421 13.2736 55.1121 13.1836 54.9621 13.2036L55.0621 13.0836L54.7921 13.2636C54.5821 13.1636 54.2521 13.3036 54.1521 13.1736C54.1521 13.1736 53.6921 13.1336 53.6021 13.2836C53.6821 13.1836 53.4321 13.1736 53.5021 13.0536C53.3921 13.1636 53.0521 13.2836 52.9021 13.1836H52.9221C52.4021 13.1036 52.0621 13.4136 51.5921 13.3336C51.6321 13.4436 51.3821 13.4136 51.4621 13.5536C51.0121 13.7536 50.5621 13.3836 50.4721 13.8536C50.2621 13.9136 50.2021 13.7836 50.0921 13.7836L50.1421 13.7536C49.7521 13.8536 49.6421 13.8836 49.3421 13.9236C49.2021 13.9936 49.2221 14.2036 48.9521 14.2036C49.0221 14.1036 48.9121 14.1436 48.8221 14.1636C48.8821 14.1336 48.8921 14.1036 48.7521 14.0736C48.7421 14.1036 48.7121 14.1236 48.6921 14.1436C48.6921 14.1436 48.6921 14.1336 48.6921 14.1236C48.5321 14.1836 48.5721 14.2036 48.6421 14.2036C48.6421 14.2136 48.6421 14.2336 48.6821 14.2536C48.4921 14.1836 48.2121 14.3536 48.1621 14.2136C47.6821 14.3536 47.3621 14.5736 46.9821 14.7236C46.9221 14.6636 47.0021 14.5736 47.1121 14.5236L46.8321 14.6136C46.8121 14.5136 46.9821 14.5136 47.0621 14.4736C46.6821 14.3836 46.4021 14.8036 45.9621 14.7536L45.9021 14.8536H45.8721C45.8721 14.8536 45.8121 14.9736 45.7521 15.0036C45.6721 14.9236 45.7021 14.7936 45.5121 14.8536C45.3321 14.8036 45.0821 15.0136 44.8921 15.1136C45.0021 15.1036 44.9821 15.1636 44.9421 15.2036C44.8421 15.2336 44.7621 15.1536 44.7021 15.2136L44.6621 15.0936C44.7321 15.1936 44.4421 15.2836 44.4221 15.3436C44.3421 15.2736 44.5521 15.2236 44.5621 15.1536C44.1721 15.2736 44.3721 15.2136 43.9821 15.3336C43.8021 15.4836 44.0521 15.4336 43.9821 15.5736C43.8021 15.6536 43.6521 15.7836 43.4221 15.7736L43.5221 15.8636C43.2021 16.0536 43.0021 16.1036 42.7321 16.0636C41.6021 16.8936 41.5721 17.2436 41.8121 17.3636C42.0521 17.4936 42.5721 17.4136 42.5721 17.4136C43.6321 17.3436 44.0421 16.8736 45.2021 16.4636L45.1721 16.4736Z" fill="#8E8E8E"/>
<path d="M35.0215 18.5234L35.0615 18.5534C35.0615 18.5534 35.0415 18.5234 35.0215 18.5234Z" fill="#8E8E8E"/>
<path d="M35.3718 19.9439C35.6418 19.8839 35.7917 20.0639 36.0117 19.8739C36.1417 19.8339 36.2518 19.7339 36.3618 19.6639C36.3618 19.4839 36.5218 19.5939 36.5318 19.4339L36.5918 19.5139C36.5918 19.4639 36.6118 19.4139 36.6518 19.4539V19.4839C36.6718 19.4039 36.7218 19.4239 36.7218 19.3839V19.4139L36.7718 19.3839V19.4239C36.8118 19.3239 36.8717 19.2939 36.9417 19.3039L36.8917 19.1939C37.0617 19.2639 37.0118 19.0239 37.1718 19.1239V19.1539C37.2018 18.8139 37.4717 19.2639 37.5017 18.9339C37.5017 18.9739 37.5318 18.9839 37.5418 19.0139C37.5918 18.9539 37.6517 18.9139 37.5717 18.7039C37.6217 18.6839 37.6318 18.7539 37.6718 18.8339C37.6318 18.7439 37.6617 18.6839 37.6917 18.6639V18.7039L37.7818 18.6339L37.6917 18.4639C37.7717 18.4939 37.7917 18.6739 37.8217 18.6139L37.7617 18.4639C37.8517 18.4639 37.9818 18.6639 38.0918 18.7439C38.4218 18.6839 38.6118 18.1839 38.9918 18.3339L39.0418 18.4339C39.1118 18.5939 39.0418 18.1639 39.1018 18.3139V18.2239C39.1018 18.2239 39.1618 18.2739 39.1518 18.3139C39.1818 18.3139 39.1718 18.2839 39.1818 18.2239L39.2517 18.3139C39.4017 18.3439 39.4318 18.1139 39.5818 18.1039C39.8118 18.2539 40.0318 17.9639 40.1618 17.7939C40.3118 17.4639 40.8118 18.0139 40.9618 17.6539C40.9818 17.6739 40.9818 17.6139 40.9718 17.5939L41.2017 17.5439C41.2017 17.5439 42.3118 17.2439 41.0318 16.1739V16.1339C40.8718 16.0939 40.7917 16.0939 40.7617 16.3039C40.6717 16.0939 40.6518 16.3139 40.6018 16.2539V16.2339C40.5818 16.4239 40.3918 16.1439 40.3718 16.3239C40.3718 16.3039 40.3518 16.2439 40.3718 16.2339C40.3318 16.2839 40.2718 16.3539 40.2218 16.2339C40.1018 16.3139 39.9118 16.3139 39.9018 16.5439V16.5039C39.9018 16.6539 39.8418 16.5439 39.8118 16.6339C39.8118 16.6139 39.7918 16.6139 39.7918 16.6039C39.7918 16.7539 39.6517 16.6739 39.6317 16.7439L39.6018 16.6639L39.5117 16.7139H39.5518C39.6218 16.9539 39.4218 16.6039 39.4018 16.7739C39.3218 16.7739 39.4418 17.3039 39.3318 17.2139C39.3318 17.3339 39.3018 17.0239 39.2818 17.1339C39.2318 17.0139 39.2818 17.0539 39.2318 16.9639C39.2018 17.0339 39.1017 16.8739 39.0717 16.9639L39.0318 16.8739C39.0118 17.0739 38.8418 16.8039 38.8418 16.9839C38.7918 17.0939 38.6818 16.7239 38.6718 16.9439L38.5918 16.8339C38.5918 16.8339 38.6218 16.9939 38.5618 16.9539C38.5318 16.8739 38.4918 16.9139 38.4818 16.8239C38.3418 16.7339 38.3618 17.0739 38.1618 16.9039C38.1918 17.0639 38.1018 17.0039 38.1218 17.1239C38.0918 17.0539 37.9917 17.1539 38.0117 16.9839C38.0117 16.9739 38.0218 16.9639 38.0318 16.9939L38.0017 16.9039C37.8717 16.7539 37.9118 17.0439 37.8318 17.0439C37.8618 17.0639 37.8917 17.0439 37.8917 17.1139H37.8217L37.8018 17.0439H37.6917L37.7418 17.1239C37.6818 17.0939 37.6018 16.9339 37.6018 17.0939C37.6018 17.1739 37.6918 17.2039 37.6618 17.2539C37.5718 17.2139 37.4418 17.1539 37.3618 17.1539C37.4118 17.2539 37.3918 17.2639 37.3718 17.2939L37.3318 17.2039C37.3018 17.3639 37.2218 17.0139 37.1818 17.1439L37.1618 17.0739L37.2118 17.2739C37.2118 17.4839 37.0918 17.0939 37.1118 17.3839C37.1418 17.3539 37.2118 17.5839 37.1518 17.5539L37.1218 17.4639C37.1218 17.4639 37.1218 17.5339 37.0918 17.5139C37.0918 17.4639 37.0518 17.3839 37.0218 17.4139L37.0017 17.2939V17.4839C36.9217 17.4039 36.8917 17.5539 36.8217 17.4439C36.8217 17.4439 36.6918 17.4239 36.7318 17.5739C36.7218 17.4839 36.6518 17.4739 36.6218 17.3639C36.6318 17.4739 36.5917 17.5839 36.5117 17.4939C36.3517 17.4239 36.3718 17.7039 36.2218 17.6139C36.2718 17.7139 36.1917 17.6839 36.2617 17.8139C36.2117 17.9939 35.9518 17.6139 36.0918 18.0539C36.0518 18.0939 35.9918 17.9739 35.9618 17.9639V17.9339C35.8918 18.0039 35.8618 18.0239 35.7918 18.0439C35.7718 18.1039 35.8518 18.2939 35.7718 18.2739C35.7618 18.1839 35.7418 18.2139 35.7218 18.2239C35.7218 18.2039 35.7218 18.1739 35.6718 18.1339C35.6718 18.1639 35.6718 18.1739 35.6718 18.1939C35.6718 18.1939 35.6718 18.1839 35.6718 18.1739C35.6418 18.2139 35.6718 18.2339 35.6818 18.2439C35.6818 18.2539 35.6918 18.2739 35.7118 18.2939C35.6318 18.2139 35.6018 18.3439 35.5418 18.2139C35.4418 18.2939 35.4218 18.4639 35.3518 18.5539C35.3118 18.4939 35.3117 18.4239 35.3217 18.3839L35.2617 18.4339C35.2217 18.3339 35.2718 18.3639 35.2918 18.3339C35.1418 18.2139 35.2018 18.5639 35.0418 18.4539V18.5439V18.5339C35.0618 18.5739 35.0618 18.6439 35.0518 18.6639C35.0018 18.5839 34.9718 18.4639 34.9218 18.4939C34.8518 18.4239 34.8318 18.5839 34.8118 18.6439C34.8418 18.6439 34.8518 18.6939 34.8618 18.7339C34.8418 18.7439 34.7918 18.6639 34.7918 18.7139L34.7418 18.6039C34.8018 18.7039 34.7418 18.7439 34.7418 18.7939C34.6918 18.7139 34.7418 18.7039 34.7218 18.6339C34.6318 18.6839 34.6818 18.6639 34.5918 18.7139C34.5818 18.8239 34.6518 18.8139 34.6718 18.9339C34.6418 18.9739 34.6318 19.0739 34.5518 19.0239L34.6118 19.1239C34.5618 19.2439 34.5118 19.2439 34.4118 19.1739C34.1918 20.2739 34.7918 20.3639 34.7918 20.3639C35.1218 20.4839 35.1118 20.1339 35.3518 19.9339L35.3718 19.9439Z" fill="#8E8E8E"/>
<path d="M35.9219 23.7227V23.8127C35.9219 23.8127 35.9419 23.7727 35.9219 23.7227Z" fill="#8E8E8E"/>
<path d="M36.0727 27.3345V27.3244L36.0527 27.3145L36.0727 27.3345Z" fill="#8E8E8E"/>
<path d="M34.2119 23.2935C34.5819 24.3935 34.4719 24.7935 35.1319 25.8335C35.3719 26.3635 35.7419 26.8735 36.0819 27.3235C36.3719 27.4535 36.4719 27.9635 36.7919 28.1135V28.2635C36.8919 28.3235 37.0019 28.4035 37.0319 28.5235H37.0019C37.1619 28.6235 37.2419 28.7935 37.3219 28.8335H37.2919L37.4219 28.9935H37.3719C37.6119 29.1635 37.7819 29.3935 37.9419 29.5935L38.0119 29.5035C38.3019 29.9835 38.6119 29.9635 38.8419 30.4335L38.8219 30.4535C39.4519 30.6935 39.4219 31.2635 40.0919 31.4835C40.0119 31.4635 40.0819 31.5535 40.0619 31.5735C40.3119 31.7435 40.5619 31.9335 40.7019 31.7535C40.8619 31.8935 40.7919 31.9235 40.7619 32.0135C40.8219 31.9335 41.0019 32.0135 41.1419 32.0935H41.0519L41.4719 32.3235L41.5019 32.1135C41.6819 32.3035 41.4219 32.3335 41.6519 32.4335L41.7419 32.3035C42.0119 32.5235 42.0519 32.8335 42.2719 33.1235C42.8519 33.5335 43.5619 33.7835 44.2219 34.0735C44.8819 34.3635 45.5619 34.5535 46.1219 34.9435V35.0735C46.1019 35.2435 46.5619 34.9735 46.5519 35.1435L46.7219 35.1235C46.7219 35.1235 46.8219 35.2335 46.7419 35.2435C46.8719 35.2935 46.8919 35.2635 47.0019 35.2435L47.1119 35.3835C47.6219 35.6235 48.1419 35.5535 48.6919 35.7635C49.3019 36.2235 50.6719 36.1935 51.4319 36.2435C51.9719 36.2435 52.5219 36.3935 53.0919 36.5435C53.6519 36.7035 54.2319 36.8535 54.7919 36.7535C54.8219 36.7835 54.9219 36.7335 54.9219 36.7135C55.2519 36.7535 55.5819 36.7435 55.9119 36.7635C55.9119 36.7635 57.1219 36.7935 57.8619 36.6335C58.6119 36.4735 58.8519 36.1435 57.0719 35.4135L57.0919 35.3735C56.5619 35.2735 56.2419 35.2535 55.8719 35.4435C55.8219 35.2135 55.4419 35.4135 55.3219 35.3435V35.3235C55.0019 35.4935 54.6919 35.1235 54.3719 35.2535C54.3819 35.2335 54.3919 35.1735 54.4719 35.1735C54.2519 35.1735 53.9419 35.2035 53.9319 35.0735C53.3919 35.0535 52.6619 34.9235 52.2919 35.1035L52.3219 35.0735C52.1119 35.1935 52.0719 35.0535 51.8419 35.0835C51.8419 35.0635 51.8219 35.0535 51.8219 35.0435C51.5919 35.1435 51.2019 34.9535 51.0219 34.9735V34.8835L50.6019 34.8235L50.7519 34.8735C50.6519 35.1035 50.4719 34.6635 50.1319 34.7635C49.8619 34.6835 49.4419 35.1635 49.1719 34.9435C49.0019 35.0135 49.3419 34.7935 49.1119 34.8235C49.1419 34.6935 49.2319 34.7735 49.2019 34.6635C48.9819 34.6635 48.9019 34.4435 48.6319 34.4535L48.6519 34.3535C48.2819 34.4335 48.0819 34.0535 47.8119 34.1535C47.4519 34.1335 47.6819 33.8035 47.2719 33.8935C47.2419 33.8435 47.2119 33.7735 47.1819 33.7135C47.0519 33.6335 47.0219 33.8235 46.8919 33.7035C46.9319 33.6235 46.7219 33.5635 46.8419 33.5235C46.5419 33.2535 46.0519 33.4035 45.6719 33.0135C45.5019 33.1235 45.3119 32.9335 45.1819 33.0135C45.1919 32.9535 44.7419 32.7635 45.0519 32.7635C45.0819 32.7635 45.1119 32.7835 45.1019 32.8135L45.1719 32.7435C45.0019 32.4435 44.6719 32.5935 44.4319 32.4335C44.4919 32.5035 44.5919 32.5435 44.4919 32.5735L44.2619 32.4335L44.3519 32.3835L44.0319 32.1535V32.2635C43.8819 32.1235 43.9119 31.9435 43.6519 31.9735C43.5219 31.9935 43.7419 32.1735 43.5519 32.1135C43.3519 31.9435 43.0919 31.6335 42.8419 31.4235C42.8019 31.5335 42.7319 31.4835 42.6419 31.4535L42.6919 31.3635C42.3319 31.2835 42.7119 31.1135 42.3619 31.0135L42.4219 30.9735L42.2319 31.0935C41.8619 31.0835 42.2119 30.8335 41.7719 30.8535C41.8919 30.9135 41.6919 31.0635 41.5819 30.9335L41.6719 30.8835C41.5819 30.8535 41.5319 30.8535 41.5019 30.8035C41.5719 30.8035 41.6119 30.7135 41.5019 30.6335L41.6419 30.5935L41.3319 30.5635C41.2419 30.3535 40.9219 30.2535 40.9419 30.0935C40.9419 30.0935 40.6619 29.7735 40.4819 29.8135C40.6119 29.8035 40.4519 29.6235 40.5719 29.5835C40.4119 29.5935 40.1119 29.4335 40.1119 29.2535H40.1419C39.8919 28.8335 39.4619 28.7735 39.2619 28.3735C39.1919 28.4635 39.0819 28.2535 39.0019 28.3935C38.5919 28.1435 38.7219 27.5635 38.2619 27.7235C38.1119 27.5735 38.1919 27.4635 38.1519 27.3635L38.2019 27.3835C37.9319 27.1035 37.8519 27.0235 37.7119 26.7735C37.6019 26.6835 37.4119 26.7735 37.3119 26.5335C37.4319 26.5535 37.3619 26.4735 37.3119 26.3935C37.3519 26.4335 37.3919 26.4335 37.3719 26.3035C37.3419 26.3035 37.3119 26.2835 37.2819 26.2735C37.2819 26.2735 37.2819 26.2635 37.3019 26.2635C37.1919 26.1435 37.1819 26.1835 37.2119 26.2535C37.2019 26.2535 37.1919 26.2735 37.1819 26.3035C37.1819 26.1035 36.9219 25.9135 37.0319 25.8235C36.7519 25.4335 36.4819 25.1835 36.2319 24.8535C36.2819 24.7835 36.3819 24.8335 36.4619 24.9235L36.3019 24.6835C36.4019 24.6435 36.4319 24.8035 36.4919 24.8735C36.4919 24.5035 36.0119 24.3335 36.0119 23.8935L35.9019 23.8535V23.8235C35.9019 23.8235 35.7719 23.7835 35.7419 23.7335C35.8019 23.6435 35.9419 23.6535 35.8619 23.4735C35.8919 23.2935 35.6419 23.0835 35.5319 22.9035C35.5519 23.0135 35.4919 22.9935 35.4419 22.9635C35.4119 22.8735 35.4819 22.7835 35.4219 22.7235L35.5419 22.6735C35.4419 22.7535 35.3419 22.4635 35.2819 22.4535C35.3519 22.3735 35.4019 22.5735 35.4819 22.5735C35.3519 22.2035 35.4119 22.3835 35.2819 22.0135C35.1219 21.8335 35.1819 22.0835 35.0419 22.0135C34.9519 21.8435 34.8319 21.6835 34.8619 21.4535L34.7719 21.5435C34.6119 21.2135 34.5719 21.0035 34.6319 20.7435C33.9719 19.5035 33.6719 19.3435 33.4919 19.5635C33.3219 19.7835 33.3119 20.3635 33.3119 20.3635C33.2519 21.5435 33.7119 22.0535 34.2119 23.2835V23.2935Z" fill="#8E8E8E"/>
<path d="M29.6211 21.1836L29.6611 21.2136C29.6611 21.2136 29.6411 21.1836 29.6211 21.1836Z" fill="#8E8E8E"/>
<path d="M30.172 22.5242C30.372 22.4842 30.522 22.6542 30.652 22.4842C30.742 22.4542 30.812 22.3642 30.882 22.3042C30.842 22.1342 30.992 22.2442 30.972 22.0942L31.032 22.1742C31.032 22.1242 31.032 22.0842 31.072 22.1242V22.1542C31.072 22.0742 31.122 22.1042 31.112 22.0642V22.0942L31.152 22.0642V22.1042C31.172 22.0142 31.212 21.9842 31.262 22.0042L31.202 21.9042C31.342 21.9742 31.262 21.7542 31.402 21.8542V21.8842C31.362 21.5642 31.652 21.9942 31.622 21.6942C31.622 21.7342 31.652 21.7442 31.662 21.7742C31.692 21.7242 31.732 21.6842 31.622 21.4842C31.652 21.4742 31.682 21.5342 31.722 21.6142C31.672 21.5242 31.682 21.4742 31.702 21.4542V21.4942L31.762 21.4242L31.662 21.2642C31.722 21.2942 31.772 21.4642 31.792 21.4042L31.722 21.2642C31.792 21.2642 31.932 21.4642 32.032 21.5342C32.272 21.4842 32.322 21.0142 32.642 21.1642L32.702 21.2642C32.782 21.4142 32.642 21.0142 32.722 21.1442V21.0642C32.722 21.0642 32.762 21.1142 32.762 21.1542C32.782 21.1542 32.772 21.1242 32.762 21.0742L32.832 21.1542C32.952 21.1842 32.932 20.9642 33.042 20.9542C33.242 21.0942 33.352 20.8142 33.422 20.6542C33.472 20.3442 33.952 20.8642 33.992 20.5142C34.012 20.5342 33.992 20.4742 33.992 20.4542L34.152 20.4042C34.152 20.4042 34.912 20.0942 33.762 19.0842V19.0442C33.632 19.0042 33.562 19.0142 33.592 19.2142C33.482 19.0142 33.512 19.2242 33.462 19.1742V19.1542C33.482 19.3442 33.292 19.0742 33.302 19.2442C33.302 19.2242 33.272 19.1642 33.282 19.1642C33.262 19.2042 33.232 19.2842 33.172 19.1642C33.102 19.2442 32.952 19.2442 32.992 19.4642V19.4242C33.012 19.5742 32.952 19.4642 32.942 19.5442C32.942 19.5242 32.932 19.5242 32.922 19.5142C32.952 19.6642 32.832 19.5842 32.832 19.6542L32.792 19.5742L32.732 19.6242H32.762C32.862 19.8542 32.642 19.5142 32.662 19.6842C32.602 19.6842 32.792 20.1942 32.692 20.1042C32.722 20.2142 32.632 19.9242 32.632 20.0242C32.572 19.9142 32.612 19.9442 32.562 19.8542C32.562 19.9242 32.452 19.7642 32.442 19.8542L32.392 19.7642C32.422 19.9542 32.232 19.6942 32.272 19.8742C32.252 19.9742 32.102 19.6242 32.132 19.8342L32.052 19.7242C32.052 19.7242 32.112 19.8842 32.052 19.8342C32.012 19.7542 31.992 19.7942 31.972 19.7142C31.852 19.6242 31.932 19.9442 31.742 19.7842C31.802 19.9442 31.712 19.8742 31.752 19.9942C31.722 19.9342 31.662 20.0242 31.642 19.8642C31.642 19.8542 31.642 19.8442 31.662 19.8742L31.622 19.7842C31.492 19.6442 31.582 19.9142 31.522 19.9142C31.552 19.9342 31.562 19.9142 31.582 19.9842H31.532L31.502 19.9142H31.412L31.462 19.9942C31.402 19.9642 31.322 19.8142 31.352 19.9642C31.372 20.0442 31.442 20.0742 31.422 20.1142C31.352 20.0742 31.242 20.0142 31.172 20.0142C31.232 20.1142 31.212 20.1142 31.212 20.1442L31.162 20.0542C31.162 20.2042 31.042 19.8742 31.032 19.9942L31.002 19.9342L31.082 20.1242C31.122 20.3242 30.962 19.9542 31.022 20.2242C31.032 20.1942 31.132 20.4142 31.082 20.3942L31.042 20.3042C31.042 20.3042 31.042 20.3642 31.032 20.3542C31.022 20.3042 30.972 20.2242 30.962 20.2542L30.922 20.1442L30.962 20.3242C30.882 20.2442 30.892 20.3942 30.812 20.2742C30.812 20.2742 30.712 20.2542 30.762 20.3942C30.732 20.3042 30.682 20.2942 30.642 20.1942C30.672 20.2942 30.662 20.3942 30.582 20.3142C30.452 20.2442 30.522 20.5042 30.382 20.4242C30.442 20.5242 30.372 20.4842 30.452 20.6142C30.452 20.7842 30.172 20.4142 30.362 20.8342C30.342 20.8742 30.272 20.7642 30.242 20.7442V20.7142C30.192 20.7742 30.172 20.7942 30.122 20.8042C30.122 20.8542 30.212 21.0442 30.152 21.0242C30.122 20.9442 30.112 20.9642 30.102 20.9742C30.102 20.9542 30.102 20.9242 30.042 20.8942C30.042 20.9142 30.052 20.9342 30.052 20.9442C30.052 20.9442 30.052 20.9342 30.042 20.9242C30.032 20.9642 30.042 20.9842 30.062 20.9842C30.062 20.9942 30.072 21.0142 30.092 21.0242C30.012 20.9442 30.022 21.0642 29.952 20.9442C29.892 21.0142 29.902 21.1742 29.862 21.2542C29.822 21.1942 29.802 21.1242 29.812 21.0942L29.782 21.1442C29.732 21.0542 29.782 21.0742 29.782 21.0542C29.642 20.9342 29.752 21.2642 29.612 21.1542L29.642 21.2342H29.632C29.632 21.2342 29.672 21.3242 29.662 21.3442C29.612 21.2642 29.562 21.1542 29.532 21.1742C29.462 21.1042 29.482 21.2542 29.472 21.3142C29.502 21.3142 29.522 21.3642 29.522 21.4042C29.512 21.4142 29.452 21.3342 29.462 21.3842L29.402 21.2742C29.462 21.3742 29.422 21.4042 29.442 21.4542C29.392 21.3742 29.432 21.3742 29.402 21.3042C29.342 21.3442 29.372 21.3242 29.312 21.3642C29.322 21.4642 29.372 21.4642 29.412 21.5742C29.392 21.6142 29.412 21.7042 29.332 21.6542L29.402 21.7442C29.392 21.8442 29.352 21.8542 29.252 21.7742C29.282 22.7742 29.782 22.9042 29.782 22.9042C30.062 23.0342 29.992 22.7142 30.142 22.5342L30.172 22.5242Z" fill="#8E8E8E"/>
<path d="M30.6719 27.9238V28.0438C30.6719 28.0438 30.6919 28.0038 30.6719 27.9238Z" fill="#8E8E8E"/>
<path d="M30.8718 32.5144V32.5044L30.8418 32.4844L30.8718 32.5144Z" fill="#8E8E8E"/>
<path d="M28.9421 26.9944C29.0121 27.3744 29.0622 27.6844 29.1022 27.9644C29.1622 28.2344 29.2121 28.4844 29.2621 28.7244C29.3821 29.2044 29.4722 29.7144 29.8322 30.4344C30.1422 31.1344 30.4722 31.8844 30.8722 32.5144C31.1922 32.7444 31.3621 33.3644 31.6921 33.6544V33.8444C31.8021 33.9444 31.9121 34.0744 31.9421 34.2244H31.9122C32.1022 34.3644 32.2022 34.5844 32.3022 34.6544H32.2722L32.4322 34.8644H32.3722C32.6522 35.1144 32.8822 35.4144 33.0622 35.7144L33.1421 35.6244C33.4521 36.3044 33.8522 36.3144 34.1622 36.9044H34.1321C34.9221 37.3044 34.8321 38.0644 35.7021 38.3944C35.6021 38.3544 35.7022 38.4644 35.6722 38.4844C35.9922 38.7144 36.3222 38.9744 36.4722 38.8044C36.6822 38.9944 36.6021 39.0144 36.5721 39.1044C36.6321 39.0244 36.8522 39.1544 37.0222 39.2944L36.9222 39.2544C37.0922 39.3744 37.2422 39.5244 37.4322 39.6244V39.4044C37.6822 39.6344 37.3722 39.6344 37.6722 39.7844L37.7621 39.6544C38.1221 39.9344 38.2122 40.2844 38.5222 40.6344C39.2622 41.2344 40.1822 41.5844 41.0622 41.9744C41.5022 42.1544 41.9122 42.3944 42.3522 42.5444C42.7822 42.7044 43.1922 42.8944 43.5822 43.1044L43.6122 43.2444C43.5822 43.4144 44.1522 43.1744 44.1622 43.3444H44.3821C44.3821 43.3444 44.5322 43.4644 44.4222 43.4644C44.5922 43.5344 44.6121 43.5144 44.7521 43.5044L44.9122 43.6744C45.6022 43.9444 46.2721 43.8944 47.0121 44.1244C47.8621 44.6244 49.6422 44.6444 50.6522 44.6644C51.0122 44.6444 51.3722 44.6944 51.7422 44.7644C52.1122 44.8144 52.4922 44.8744 52.8722 44.9444C53.6322 45.0744 54.4021 45.2044 55.1321 45.0844C55.1821 45.1144 55.3022 45.0644 55.3022 45.0444C55.7422 45.0844 56.1822 45.0444 56.6222 45.0444C56.6222 45.0444 58.2221 44.9744 59.1921 44.7644C60.1721 44.5544 60.4821 44.1944 58.0721 43.6144L58.1022 43.5744C57.3922 43.5244 56.9622 43.5244 56.4822 43.7344C56.4022 43.5044 55.9022 43.7344 55.7422 43.6744L55.7621 43.6544C55.3321 43.8344 54.8822 43.4744 54.4722 43.6244C54.4922 43.6044 54.5022 43.5444 54.5922 43.5444C54.2922 43.5644 53.8822 43.5944 53.8622 43.4644C53.1522 43.4644 52.1622 43.3944 51.6822 43.5444L51.7122 43.5144C51.4422 43.6244 51.3722 43.4844 51.0822 43.5144C51.0722 43.4944 51.0522 43.4844 51.0522 43.4744C50.7522 43.5744 50.2322 43.3844 49.9922 43.4144V43.3244L49.4222 43.2644L49.6321 43.3144C49.5221 43.5444 49.2322 43.1044 48.8022 43.2044C48.4222 43.1444 47.9421 43.5444 47.5721 43.3344C47.3621 43.3944 47.7722 43.1944 47.4822 43.2144C47.5022 43.0844 47.6322 43.1644 47.5822 43.0544C47.2922 43.0544 47.1722 42.8144 46.8122 42.8144V42.7144C46.3422 42.7844 46.0421 42.3844 45.7021 42.4744C45.2321 42.4444 45.4922 42.1144 44.9822 42.1344L44.8522 41.9444C44.6722 41.8544 44.6622 42.0444 44.4722 41.9044C44.5122 41.8244 44.2321 41.7444 44.3821 41.7144C43.9521 41.4144 43.3422 41.5244 42.8022 41.0844C42.6022 41.1844 42.3421 40.9244 42.1921 40.9944C42.2021 40.9244 41.5921 40.6744 42.0021 40.7044C42.0321 40.7044 42.0821 40.7344 42.0721 40.7644L42.1522 40.6944C41.8922 40.3544 41.4922 40.4644 41.1722 40.2744C41.2522 40.3544 41.3922 40.4144 41.2722 40.4244L40.9622 40.2544L41.0622 40.2144L40.6222 39.9344V40.0544C40.4322 39.8944 40.4321 39.7144 40.1321 39.6644C39.9821 39.6644 40.2622 39.9144 40.0222 39.7944C39.7722 39.5444 39.4122 39.1644 39.0622 38.9044C39.0322 39.0244 38.9321 38.9544 38.8221 38.9044L38.8722 38.8144C38.4122 38.6644 38.8622 38.5444 38.4222 38.3744L38.5021 38.3444L38.2722 38.4444C37.8322 38.3444 38.2322 38.1444 37.7122 38.0544C37.8622 38.1644 37.6422 38.2844 37.4922 38.0944L37.5922 38.0544C37.4822 37.9844 37.4321 37.9944 37.3821 37.9244C37.4721 37.9244 37.5022 37.8444 37.3522 37.7344H37.5222L37.1421 37.6344C37.0121 37.3844 36.6022 37.2044 36.6122 37.0344C36.6122 37.0344 36.5121 36.9244 36.3921 36.8244C36.2821 36.7144 36.1522 36.5944 36.0522 36.6044C36.1922 36.6244 36.0121 36.3644 36.1421 36.3544C35.9721 36.3244 35.6121 36.0544 35.5721 35.8544L35.6022 35.8744C35.2622 35.3244 34.7121 35.1844 34.5021 34.6044C34.4221 34.6944 34.2922 34.4144 34.2222 34.5644C33.7422 34.1544 33.8222 33.5044 33.3122 33.5844C33.1222 33.3744 33.2222 33.2544 33.1722 33.1144L33.2222 33.1544C32.9322 32.7244 32.8522 32.5944 32.6722 32.2644C32.5422 32.1244 32.3322 32.1944 32.2122 31.8744C32.3422 31.9344 32.2621 31.8144 32.1921 31.7044C32.2421 31.7744 32.2821 31.7744 32.2521 31.6044C32.2121 31.6044 32.1822 31.5744 32.1522 31.5444C32.1522 31.5444 32.1522 31.5344 32.1722 31.5344C32.0522 31.3544 32.0521 31.3944 32.0721 31.4944C32.0621 31.4944 32.0422 31.5144 32.0422 31.5544C32.0422 31.3044 31.7822 30.9844 31.9022 30.9044C31.6122 30.3244 31.2622 29.9744 31.0222 29.4844C31.0722 29.3944 31.1721 29.4944 31.2621 29.6344C31.2021 29.5244 31.1622 29.4044 31.1122 29.2844C31.2122 29.2444 31.2422 29.4744 31.3022 29.5744C31.3122 29.0844 30.8421 28.7444 30.8221 28.1844L30.7021 28.1044V28.0744C30.7021 28.0744 30.5622 27.9944 30.5222 27.9244C30.5922 27.8244 30.7321 27.8644 30.6421 27.6244C30.6821 27.3944 30.4622 27.0644 30.3522 26.8044C30.3722 26.9544 30.3121 26.9144 30.2621 26.8644C30.2321 26.7344 30.3022 26.6444 30.2422 26.5544L30.3622 26.5144C30.2622 26.5944 30.1622 26.2044 30.0922 26.1644C30.1622 26.0744 30.2222 26.3444 30.2922 26.3644C30.1622 25.8544 30.2122 26.1144 30.1022 25.5944C29.9722 25.3344 29.9922 25.6644 29.8622 25.5544C29.8022 25.3144 29.6822 25.0744 29.7122 24.7844L29.6122 24.8944C29.4622 24.4344 29.4221 24.1444 29.5121 23.8144C28.9721 22.0744 28.6622 21.8444 28.4722 22.1144C28.2822 22.3844 28.2322 23.1344 28.2322 23.1344C28.1222 23.8844 28.2222 24.4544 28.3722 25.0344C28.4422 25.3144 28.5222 25.6244 28.6122 25.9544C28.7222 26.2844 28.8422 26.6344 28.9622 27.0544L28.9421 26.9944Z" fill="#8E8E8E"/>
<path d="M25.8223 32.334V32.554C25.8223 32.554 25.8523 32.494 25.8223 32.334Z" fill="#8E8E8E"/>
<path d="M64.313 44.0442C64.313 44.0442 64.303 44.0141 64.293 43.9941C64.303 44.0341 64.313 44.0442 64.313 44.0442Z" fill="#8E8E8E"/>
<path d="M27.6826 40.7553V40.7453L27.6426 40.6953L27.6826 40.7553Z" fill="#8E8E8E"/>
<path d="M23.9626 29.9243C24.0126 30.7543 24.1426 31.3043 24.2026 31.8643C24.2626 32.4143 24.3426 32.8843 24.4526 33.3643C24.5626 33.8343 24.6526 34.3243 24.8126 34.8643C24.9926 35.3943 25.2226 36.0043 25.5126 36.7343C25.7926 37.4243 26.1626 38.1243 26.4926 38.8143C26.8626 39.4943 27.3026 40.1243 27.6826 40.7543C28.1726 41.2643 28.8326 42.3043 29.4226 42.8743C29.4626 42.9843 29.5026 43.0843 29.5526 43.1843C29.7826 43.3543 30.0326 43.5743 30.1926 43.8143H30.1626C30.5026 44.0743 30.8026 44.4543 30.9726 44.5843H30.9426L31.3026 44.9543C31.2726 44.9543 31.2426 44.9343 31.2126 44.9243C31.8226 45.3543 32.4126 45.8243 32.8926 46.2843L32.9226 46.1543C33.4126 46.6843 33.8526 46.9043 34.2626 47.1443C34.6626 47.3843 35.0526 47.6143 35.5526 48.0243H35.5226C36.2826 48.3443 36.8526 48.6243 37.3926 48.9843C37.9426 49.3243 38.4926 49.7043 39.3426 49.8343C39.1326 49.7943 39.4026 49.9243 39.3726 49.9443C40.1026 50.1843 40.8726 50.4543 40.9626 50.2443C41.4826 50.4443 41.3626 50.4743 41.4026 50.5843C41.4226 50.5043 41.9026 50.6043 42.3226 50.6943H42.1226L43.3326 50.9643L43.1426 50.7243C43.7626 50.9443 43.2426 50.9844 43.8626 51.1044L43.8926 50.9543C44.3226 51.0843 44.6526 51.2443 44.9826 51.4043C45.3126 51.5443 45.6426 51.6843 46.0726 51.8143C46.9726 51.9743 47.8926 52.1243 48.8226 52.2343C49.7526 52.2743 50.6926 52.3144 51.6226 52.3544C52.0826 52.3744 52.5526 52.3943 53.0026 52.4143C53.4626 52.4143 53.9126 52.4043 54.3626 52.3943C55.2626 52.3943 56.1326 52.4143 56.9826 52.4743L57.1326 52.5943C57.2026 52.7843 58.0526 52.2843 58.1826 52.4343L58.5726 52.3244C58.6826 52.3444 58.9226 52.3643 58.7226 52.4143C59.0826 52.3943 59.0926 52.3644 59.3526 52.2944L59.7526 52.3743C60.4726 52.3543 61.1326 52.2743 61.7926 52.1843C62.1126 52.1443 62.4526 52.1043 62.8826 51.9943C63.2826 51.8743 63.6826 51.7444 64.0726 51.5144C64.5626 51.2944 65.1226 50.8743 65.5526 50.2743C65.9826 49.6843 66.2626 48.9043 66.3326 48.1243C66.4226 47.3443 66.1926 46.4943 66.0426 45.9743C65.8926 45.3843 65.7526 44.8343 65.6326 44.3643C64.9026 41.7343 65.2226 38.5143 64.6726 35.7743C64.6926 35.6843 64.6126 35.4543 64.5926 35.4543L64.4026 32.9143C64.4026 32.9143 64.1826 29.8343 63.9026 27.9243C63.6226 26.0243 63.2226 25.2843 62.8326 30.0443L62.7926 29.9843C62.7926 31.3943 62.8426 32.2743 63.1126 33.2243C62.8926 33.3943 63.1826 34.3743 63.1426 34.7043L63.1226 34.6743C63.3726 35.5143 63.1326 36.4443 63.3726 37.2543C63.3526 37.2243 63.2826 37.2143 63.2626 37.0243C63.3526 37.6243 63.4926 38.4343 63.3626 38.4943C63.5526 39.9243 63.7526 41.9343 64.1026 42.8143L64.0526 42.7543C64.2726 43.2543 64.1826 43.4243 64.3426 43.9943C64.3326 44.0243 64.3326 44.0743 64.3226 44.0643C64.5626 44.6043 64.6426 45.7143 64.8026 46.1543L64.7226 46.2043L64.8526 46.7644C64.8826 46.9344 64.9226 47.0843 64.9426 47.2543C64.9426 47.1343 64.9126 47.0143 64.9026 46.8943C65.1626 46.9943 64.9026 47.6443 64.9026 48.3343C64.8226 48.6543 64.8226 49.0043 64.7426 49.3743C64.6726 49.7443 64.4926 50.1243 64.1626 50.3343C63.9626 50.6543 64.2826 49.9843 63.9326 50.4043C63.8426 50.3143 64.0626 50.1843 63.9026 50.1943C63.5426 50.5443 63.1826 50.5343 62.6426 50.7743L62.5926 50.6843C62.2626 50.8543 61.8026 50.8443 61.4226 50.8443C61.0326 50.8443 60.6926 50.8443 60.4026 50.9443C59.4926 51.1043 59.7626 50.6943 58.8226 50.9743L58.4426 50.8743C58.0326 50.8843 58.1626 51.0643 57.7026 51.0343C57.7226 50.9543 57.1226 51.0143 57.3926 50.9143C56.3626 50.7943 55.3126 51.1143 53.9626 50.9143C53.6626 51.0743 52.9926 51.0044 52.7626 51.1044C52.7326 51.0344 51.4026 50.9943 52.1726 50.8943C52.2426 50.8943 52.3526 50.8943 52.3426 50.9243L52.4326 50.8343C51.6826 50.5943 51.0426 50.8343 50.2826 50.7543C50.5026 50.8043 50.8026 50.8143 50.6026 50.8643L49.9026 50.8043L50.0526 50.7343L49.0126 50.6143L49.1426 50.7243C48.6326 50.6243 48.4826 50.3943 47.8926 50.4543C47.6226 50.4943 48.3526 50.6643 47.8126 50.6143C47.1426 50.4343 46.1526 50.1743 45.2926 49.9943C45.3426 50.1243 45.1226 50.0643 44.8826 50.0243V49.9243C43.9526 49.8243 44.6026 49.6243 43.6926 49.4943L43.7926 49.4443L43.5026 49.5843C42.6426 49.5643 43.1326 49.2744 42.1626 49.2944C42.5226 49.3644 42.2626 49.5643 41.8426 49.3743L41.9826 49.3244C41.7426 49.2544 41.6526 49.2643 41.5026 49.1843C41.6526 49.1843 41.6226 49.0843 41.2726 48.9643L41.5426 48.9343L40.8426 48.8544C40.3826 48.5744 39.5526 48.3943 39.3926 48.1943C39.3726 48.2343 38.4026 47.6343 38.1026 47.6543C38.3426 47.6743 37.8026 47.3643 38.0126 47.3443C37.7126 47.3043 36.8826 46.9943 36.6326 46.7343C36.6526 46.7343 36.6726 46.7543 36.6926 46.7543C36.1826 46.3543 35.7126 46.0844 35.2526 45.8244C34.7926 45.5644 34.3226 45.3243 33.9526 44.8743C33.9226 44.9943 33.4926 44.5643 33.5126 44.7743C33.0126 44.4443 32.6326 44.0443 32.3226 43.7143C32.0426 43.3643 31.8026 43.1143 31.4826 43.1143C31.0926 42.7343 31.1126 42.5744 30.9426 42.3544L31.0526 42.4343C30.3226 41.7243 30.2026 41.4343 29.7326 40.8443C29.4826 40.5643 29.2326 40.6643 28.9126 40.0543C29.0926 40.1943 28.9426 39.9643 28.8126 39.7443C28.9126 39.8743 28.9626 39.9043 28.8326 39.5843C28.7826 39.5543 28.7326 39.5043 28.6926 39.4543C28.6926 39.4543 28.6926 39.4343 28.7026 39.4343C28.4626 39.0843 28.4726 39.1643 28.5626 39.3343C28.5426 39.3343 28.5426 39.3543 28.5526 39.4243C28.4226 38.9943 27.9026 38.3743 28.0126 38.2543C27.4426 37.1143 26.8726 36.3743 26.4926 35.3643C26.5226 35.2243 26.6726 35.4343 26.8026 35.7143L26.5226 35.0143C26.6226 34.9843 26.7326 35.4043 26.8326 35.6143C26.7626 35.1643 26.5626 34.7443 26.3526 34.3043C26.1826 33.8543 26.0126 33.3743 25.9526 32.8443L25.8126 32.6543V32.5943C25.8126 32.5943 25.6426 32.3943 25.5926 32.2443C25.6526 32.0743 25.8026 32.2043 25.7026 31.6943C25.7326 31.2743 25.4226 30.5443 25.3326 30.0343C25.3426 30.3143 25.2826 30.2343 25.2426 30.1143C25.2126 29.8643 25.2926 29.7143 25.2526 29.5243L25.3826 29.4943C25.2526 29.5943 25.2526 28.8443 25.2226 28.7443C25.3226 28.6143 25.2726 29.1343 25.3426 29.2043C25.4026 28.2143 25.3426 28.7043 25.5126 27.7243C25.5426 27.1843 25.3726 27.7943 25.3226 27.5143C25.4226 27.0443 25.4926 26.5543 25.8026 26.0843L25.6226 26.1943C25.9326 25.3143 26.2826 24.8443 26.7626 24.4343C27.6926 22.9643 28.5026 22.2843 28.8226 21.8943C29.1626 21.5043 29.0626 21.4243 28.7926 21.4643C28.5126 21.5243 28.0226 21.7343 27.6326 21.9743C27.2426 22.2143 26.9326 22.4543 26.9326 22.4543C25.7026 23.4043 25.0026 24.4443 24.5226 25.6143C24.0626 26.7843 23.7726 28.1443 23.9226 29.9843L23.9626 29.9243Z" fill="#8E8E8E"/>
</svg>
