<svg width="28" height="28" viewBox="0 0 28 28" fill="none" xmlns="http://www.w3.org/2000/svg">
<path d="M11.2687 4.55269C12.8061 3.11583 15.1939 3.11583 16.7313 4.55269L17.8219 5.57198C18.268 5.98897 18.8037 6.29826 19.3879 6.47616L20.816 6.91099C22.829 7.52398 24.0229 9.59185 23.5472 11.6417L23.2098 13.0958C23.0718 13.6907 23.0718 14.3093 23.2098 14.9042L23.5472 16.3583C24.0229 18.4081 22.829 20.476 20.816 21.089L19.3879 21.5238C18.8037 21.7017 18.268 22.011 17.8219 22.428L16.7313 23.4473C15.1939 24.8842 12.8061 24.8842 11.2687 23.4473L10.1781 22.428C9.73197 22.011 9.19626 21.7017 8.61205 21.5238L7.18403 21.089C5.17098 20.476 3.97709 18.4081 4.45275 16.3583L4.79018 14.9042C4.92823 14.3093 4.92823 13.6907 4.79018 13.0958L4.45275 11.6417C3.97709 9.59185 5.17098 7.52398 7.18403 6.91099L8.61205 6.47616C9.19626 6.29826 9.73197 5.98897 10.1781 5.57198L11.2687 4.55269Z" stroke="#8E8E8E" stroke-width="2"/>
<path d="M11 14C11 15.6569 12.3431 17 14 17C15.6569 17 17 15.6569 17 14C17 12.3431 15.6569 11 14 11C12.3431 11 11 12.3431 11 14Z" stroke="#8E8E8E" stroke-width="2" stroke-linecap="round"/>
</svg>
