<svg width="71" height="71" viewBox="0 0 71 71" fill="none" xmlns="http://www.w3.org/2000/svg">
<path d="M45.7331 47.0371L45.4531 47.2871C45.4531 47.2871 45.5531 47.2371 45.7331 47.0371Z" fill="#8E8E8E"/>
<path d="M34.123 55.3766L34.133 55.3666L34.203 55.3066L34.123 55.3766Z" fill="#8E8E8E"/>
<path d="M47.3531 42.6166C46.6331 43.6066 45.9931 44.3665 45.4131 45.0365C44.8431 45.7165 44.3231 46.2965 43.7831 46.8465C42.723 47.9865 41.6231 49.1266 39.8231 50.8666C39.3831 51.2666 38.9231 51.6765 38.4731 52.0765C38.0131 52.4865 37.5231 52.8465 37.0531 53.2365C36.1231 54.0365 35.1031 54.7066 34.1431 55.3666C33.7431 55.7666 33.0631 56.1265 32.3731 56.5065C31.6831 56.8865 30.9731 57.2866 30.3931 57.5866L29.8931 57.6965C29.5031 57.9165 29.0331 58.1665 28.6031 58.2965L28.6231 58.2565C28.0231 58.5465 27.2831 58.7165 26.9831 58.8565L27.0031 58.8165L26.2331 59.0765L26.3531 58.9966C25.2731 59.4366 24.0931 59.6166 23.0431 59.7066L23.1431 59.8165C20.9031 59.8765 20.0531 60.0865 18.0431 59.6965L18.0731 59.6766C16.7831 59.6366 15.7731 59.3766 14.8131 59.0266C13.8331 58.6966 12.8931 58.2865 11.6231 57.8765C11.9331 57.9865 11.5231 57.7566 11.5531 57.7466C10.4231 57.2766 9.31307 56.5966 9.17307 56.7766C8.41306 56.2866 8.59306 56.3265 8.54306 56.1865C8.49306 56.2665 7.82306 55.8565 7.27306 55.4365C7.36306 55.4965 7.45306 55.5565 7.54306 55.6065C7.01306 55.1965 6.49307 54.7865 6.00307 54.3265L6.16305 54.7365C5.43305 53.9565 6.10306 54.4065 5.37306 53.6965L5.27306 53.8165C4.29306 52.7165 3.95306 51.8666 3.37306 50.6166C1.98306 48.1166 1.46307 45.0365 2.39307 42.2365C3.29307 39.4366 5.31306 37.0965 7.57306 35.5665L7.84306 35.5165C8.02306 35.5965 8.91306 34.4166 9.20306 34.4566L9.70306 34.0465C9.87306 33.9765 10.2131 33.8065 9.96306 34.0065C10.4731 33.6965 10.4831 33.6866 10.8331 33.4266L11.4431 33.2165C13.5531 32.2165 15.3431 31.2666 17.7331 30.5266C19.1831 30.1666 21.2631 29.5966 23.4031 29.1766C25.5531 28.7266 27.7231 28.4665 29.3631 28.3465C33.9631 27.8765 39.4931 28.3165 44.1831 26.6965C44.3431 26.6765 44.7231 26.5065 44.7131 26.4865C46.1331 26.0465 47.563 25.4566 48.843 24.5566C48.843 24.5566 49.0731 24.4266 49.4631 24.2066C49.8631 24.0666 50.4331 23.9065 51.1131 24.0665C52.5131 24.3565 54.0031 25.8865 54.7731 27.1665C55.1631 27.8065 55.4331 28.3965 55.5231 28.7565C55.6231 29.0865 55.6531 29.3065 55.7731 29.1965C55.8631 29.1165 56.0831 28.6165 55.8231 27.6365C55.5631 26.6965 55.0331 25.2565 53.4431 23.7565L53.563 23.7965C52.573 22.9665 51.4431 22.5065 50.3731 22.5365C50.1131 22.5665 49.8431 22.5665 49.6031 22.6365C49.3631 22.7165 49.1331 22.7965 48.9031 22.8865C48.5031 23.1065 48.0631 23.4266 47.8031 23.6466C47.5031 23.6166 46.2031 24.5465 45.6531 24.6565L45.6931 24.6166C44.4631 25.3166 42.9131 25.3866 41.6131 25.8066C41.6631 25.7766 41.6731 25.7066 41.9831 25.6466C41.0131 25.8866 39.6631 26.1466 39.5731 26.0266C37.2131 26.4266 33.843 26.6165 32.313 26.9065L32.4131 26.8666C31.5331 27.0566 31.2731 26.9465 30.2831 27.0665C30.2331 27.0465 30.1631 27.0465 30.1731 27.0365C29.2231 27.2165 27.3331 27.1865 26.5531 27.3465L26.4931 27.2665C25.8431 27.3465 25.1931 27.4165 24.5531 27.5365L25.2731 27.4465C25.0631 27.7365 23.7831 27.4865 22.4231 27.9365C21.1131 28.1665 19.933 29.0166 18.593 29.2766C18.003 29.5666 19.0931 28.9365 18.1831 29.2965C18.1131 29.1765 18.6031 29.0965 18.3231 29.0665C17.4331 29.4165 16.7731 29.3966 15.6931 29.8966L15.6131 29.8165C14.9131 30.1565 14.2231 30.3965 13.6031 30.6365C12.9731 30.8565 12.4131 31.0865 11.9831 31.3865C10.5731 32.1465 10.8831 31.6165 9.50307 32.5765L8.87306 32.8066C8.25306 33.1766 8.52306 33.2165 7.81306 33.5965C7.81306 33.4965 6.95307 34.1365 7.28307 33.7965C5.71307 34.7565 4.45306 36.1965 2.82306 38.0365C2.65306 38.5665 1.91307 39.5565 1.86307 39.9865C1.71307 39.9865 0.873067 42.2565 1.25307 40.9065C1.28307 40.7865 1.36306 40.5966 1.38306 40.6166C1.38306 40.5566 1.36307 40.4866 1.36307 40.4266C0.623067 41.6766 0.553062 42.9065 0.373062 44.2965C0.443062 43.8865 0.55307 43.3365 0.55307 43.7165C0.46307 44.1465 0.443055 44.5765 0.413055 45.0165L0.343063 44.7365C0.263063 45.3865 0.303063 46.0465 0.343063 46.6965C0.363063 46.6065 0.383055 46.5065 0.413055 46.4165C0.473055 47.3665 0.353065 47.7465 0.783065 48.7565C0.983065 49.2065 0.693068 47.8466 0.973068 48.8066C1.26307 50.0366 2.00306 51.8065 2.95306 53.1065C2.95306 52.9165 3.21307 53.2666 3.50307 53.5866L3.45306 53.6865C4.03306 54.3065 4.13306 54.4266 4.18306 54.5866C4.25306 54.7266 4.28307 54.9165 4.94307 55.4465L4.78307 55.3966L5.25307 55.5465C5.86307 55.9965 6.00307 56.1265 6.14307 56.3165C6.29307 56.4865 6.45306 56.6866 7.21306 57.0566C6.67306 56.6866 7.09306 56.6966 7.71306 57.2066L7.49306 57.1665C7.86306 57.4165 8.02307 57.4465 8.25307 57.6265C8.00307 57.5265 8.06306 57.6665 8.62306 58.0065L8.18306 57.8666C8.56306 58.0466 8.94306 58.2065 9.34306 58.3565C10.1131 58.9465 11.5631 59.4366 11.8731 59.7066C11.8731 59.7066 12.3331 59.9366 12.8831 60.1166C13.4231 60.3166 14.0331 60.4865 14.2831 60.4665C13.8631 60.4365 14.9431 60.7866 14.6031 60.8066C15.1431 60.8666 16.7031 61.1166 17.3131 61.3066H17.1931C19.5031 61.7666 21.2031 61.5266 23.2931 61.4566C23.1831 61.3666 24.2931 61.2565 24.0031 61.1565C26.1231 60.7265 27.9031 60.4766 28.5031 59.8366C29.4231 59.5266 29.6031 59.5065 30.0831 59.3465L29.8831 59.4665C30.7131 59.0865 31.2531 58.8465 31.7331 58.6265C32.1931 58.3765 32.6131 58.1465 33.2031 57.8265C33.7631 57.4465 33.7831 57.2666 34.8031 56.6466C34.5231 56.9366 34.9231 56.6466 35.3031 56.3966C35.0731 56.5666 35.0131 56.6465 35.5331 56.3565C35.583 56.2865 35.6831 56.2065 35.7831 56.1265H35.813C36.423 55.6865 36.2931 55.7365 36.0031 55.9165C36.0031 55.8965 35.9731 55.8965 35.8731 55.9365C36.2231 55.7565 36.6831 55.4665 37.0531 55.1965C37.4131 54.9165 37.7131 54.6965 37.7931 54.7165C38.6731 54.0065 39.4131 53.3865 40.0431 52.7165C40.6831 52.0565 41.3331 51.4766 41.9431 50.7766C42.1431 50.6766 41.8831 51.0365 41.5131 51.4465L42.4331 50.4865C42.5031 50.5665 41.9431 51.0765 41.6731 51.3765C42.9131 50.3765 43.8531 48.9466 45.1731 47.6466L45.3631 47.3066L45.4431 47.2365C45.4431 47.2365 45.6431 46.8665 45.7931 46.6365C46.0331 46.4965 45.9431 46.7865 46.5131 46.0665C47.0431 45.5565 47.7731 44.4365 48.2831 43.6365C47.973 44.0365 48.0231 43.8766 48.1231 43.6766C48.3931 43.3066 48.6231 43.1465 48.8031 42.8465L48.9331 42.8865C48.7331 42.9665 49.5331 41.8465 49.5731 41.6665C49.7931 41.5065 49.2531 42.3065 49.2331 42.4365C50.2531 40.9065 49.7431 41.6766 50.7631 40.1466C51.2131 39.2766 50.5731 40.2366 50.7331 39.7766C51.1631 39.0266 51.5331 38.2765 52.1231 37.4665L51.8631 37.6766C52.5931 36.2366 53.1031 35.4166 53.7031 34.4966C54.9231 31.7366 55.3531 30.1166 55.5231 29.3366C55.6831 28.5466 55.543 28.5465 55.2831 28.9165C55.0231 29.2765 54.6431 29.9766 54.3331 30.5866C53.9931 31.2066 53.7231 31.7066 53.7231 31.7066C52.5831 33.7966 51.7631 35.2865 50.8631 36.9365C49.9331 38.5665 48.9731 40.3165 47.3631 42.5765L47.3531 42.6166Z" fill="#8E8E8E"/>
<path d="M12.0527 51.8066L12.0927 51.8766C12.0927 51.8766 12.0927 51.8366 12.0527 51.8066Z" fill="#8E8E8E"/>
<path d="M10.5527 52.6563C11.4827 53.1963 11.6427 53.5464 12.7227 53.8664C13.2027 54.1064 13.7827 54.1863 14.2827 54.3163C14.5627 54.2363 14.9427 54.4963 15.2627 54.4063L15.3527 54.5264C15.4627 54.4964 15.5827 54.4963 15.6727 54.5663V54.5963C15.8227 54.5563 15.9827 54.6364 16.0527 54.6164V54.6464L16.2227 54.6663L16.1827 54.6963C16.4527 54.6763 16.7227 54.6863 16.9427 54.7563V54.6363C17.4227 54.8263 17.6327 54.6064 18.0627 54.8064V54.8364C18.6427 54.5564 18.9527 55.0664 19.5527 54.7964C19.4827 54.8364 19.5827 54.8563 19.5827 54.8863C19.8527 54.8563 20.1427 54.8463 20.1427 54.6063C20.3327 54.5963 20.3027 54.6663 20.3327 54.7563C20.3327 54.6563 20.4927 54.6064 20.6427 54.5864L20.5727 54.6263L21.0027 54.5564L20.9027 54.3763C21.1327 54.4163 20.9827 54.6063 21.1927 54.5363L21.1727 54.3763C21.4927 54.3763 21.7027 54.6063 22.0327 54.6963C22.6827 54.6163 23.3327 54.4263 23.9727 54.2563C24.6027 54.0563 25.2127 53.8464 25.8327 53.8264L25.9127 53.9264C25.9827 54.0864 26.1627 53.5964 26.2527 53.7364C26.2927 53.6964 26.3227 53.6664 26.3627 53.6164C26.4127 53.6364 26.4927 53.6363 26.4427 53.6963C26.5627 53.6563 26.5627 53.6264 26.6327 53.5464L26.7927 53.5963C27.3027 53.4963 27.6327 53.1563 28.1527 53.0063C28.8527 53.0063 29.8527 52.2563 30.4327 51.8763C31.1927 51.2463 32.4827 51.2164 33.2127 50.4864C33.2527 50.4864 33.3027 50.4063 33.2827 50.3863C33.5527 50.2463 33.7927 50.0663 34.0527 49.9063C34.0527 49.9063 34.9727 49.2964 35.4427 48.7764C35.9127 48.2564 35.9027 47.8563 34.1527 48.1963V48.1563C33.7027 48.3563 33.4427 48.5063 33.2727 48.8563C33.1027 48.6963 32.9327 49.0563 32.8027 49.0663V49.0464C32.6527 49.3664 32.2027 49.2263 32.0427 49.5063C32.0427 49.4863 32.0127 49.4264 32.0727 49.3964C31.9127 49.5264 31.6927 49.7063 31.6127 49.5963C31.2027 49.8663 30.5827 50.1563 30.4127 50.5063V50.4663C30.3227 50.6863 30.2127 50.5864 30.0727 50.7464C30.0527 50.7364 30.0427 50.7363 30.0327 50.7263C29.9227 50.9363 29.5227 50.9863 29.4127 51.1063L29.3627 51.0264L29.0227 51.2064L29.1627 51.1663C29.2227 51.4063 28.8327 51.1563 28.6427 51.4163C28.3927 51.4963 28.3627 52.1263 28.0527 52.1063C27.9727 52.2563 28.0927 51.8964 27.9427 52.0464C27.8927 51.9264 28.0027 51.9364 27.9127 51.8664C27.7527 51.9864 27.5727 51.8564 27.3827 52.0164L27.3427 51.9264C27.1127 52.2064 26.7527 52.0064 26.6227 52.2364C26.3527 52.4264 26.3327 52.0264 26.0827 52.3264L25.9227 52.2464C25.7827 52.2664 25.8727 52.4363 25.7027 52.4163C25.6827 52.3363 25.4927 52.4064 25.5527 52.3064C25.1827 52.2664 24.9127 52.6764 24.4127 52.5764C24.3527 52.7664 24.1027 52.7264 24.0627 52.8664C24.0327 52.8064 23.6027 52.9663 23.8227 52.7563C23.8427 52.7363 23.8827 52.7263 23.8827 52.7563V52.6563C23.6027 52.5463 23.4427 52.8364 23.1827 52.8664C23.2627 52.8864 23.3627 52.8663 23.3127 52.9363L23.0727 52.9663L23.1027 52.8763H22.7427L22.8127 52.9763C22.6327 52.9563 22.5427 52.7963 22.3727 52.9763C22.2927 53.0763 22.5527 53.0864 22.3727 53.1464C22.1327 53.1164 21.7727 53.0764 21.4727 53.0564C21.5127 53.1664 21.4327 53.1663 21.3527 53.1963L21.3327 53.0963C21.0327 53.2563 21.2027 52.8864 20.8927 53.0164L20.9127 52.9463L20.8427 53.1563C20.5727 53.3763 20.6827 52.9563 20.3827 53.2563C20.5027 53.2263 20.4527 53.4663 20.2927 53.4363L20.3327 53.3364C20.2527 53.3664 20.2227 53.4063 20.1627 53.3863C20.2127 53.3263 20.1827 53.2464 20.0627 53.2664L20.1427 53.1363C20.0627 53.1963 19.9927 53.2664 19.9127 53.3264C19.7327 53.2164 19.4427 53.3464 19.3627 53.2064C19.3627 53.2064 18.9727 53.1364 18.8827 53.2764C18.9627 53.1864 18.7527 53.1463 18.8127 53.0363C18.7127 53.1363 18.4027 53.2163 18.2927 53.1063H18.3127C17.8827 52.9363 17.5527 53.1664 17.1727 52.9864C17.1727 53.1064 16.9727 53.0163 17.0027 53.1663C16.5627 53.2763 16.3127 52.7463 16.0827 53.1663C15.8927 53.1563 15.8827 53.0163 15.7927 52.9763H15.8427C15.4927 52.9263 15.3827 52.9063 15.1327 52.8463C14.9927 52.8563 14.9227 53.0563 14.7127 52.9363C14.8127 52.8763 14.7127 52.8664 14.6227 52.8364C14.6827 52.8364 14.7027 52.8163 14.6127 52.7263C14.5927 52.7463 14.5627 52.7563 14.5327 52.7563C14.5327 52.7563 14.5327 52.7464 14.5327 52.7364C14.3827 52.7264 14.4027 52.7563 14.4627 52.7863C14.4627 52.7963 14.4627 52.8163 14.4627 52.8463C14.3427 52.6963 14.0527 52.7264 14.0827 52.5864C13.6427 52.5064 13.3127 52.5064 12.9427 52.4264C12.9327 52.3464 13.0327 52.3164 13.1427 52.3264L12.8927 52.2563C12.9327 52.1563 13.0527 52.2563 13.1327 52.2563C12.9127 51.9763 12.4627 52.1963 12.2027 51.8763L12.1027 51.9163V51.8964C12.1027 51.8964 11.9727 51.9563 11.9127 51.9463C11.9127 51.8363 12.0127 51.7564 11.8527 51.6764C11.7727 51.5364 11.4727 51.5364 11.2827 51.4964C11.3627 51.5564 11.3127 51.5863 11.2527 51.5963C11.1727 51.5563 11.1727 51.4463 11.0927 51.4463L11.1527 51.3364C11.1227 51.4564 10.8927 51.3263 10.8327 51.3463C10.8327 51.2363 10.9927 51.3464 11.0527 51.3064C10.7427 51.1264 10.8927 51.2163 10.5827 51.0363C10.3627 51.0163 10.5527 51.1563 10.4127 51.1963C10.2527 51.1263 10.0527 51.1164 9.94273 50.9264V51.0564C9.61273 50.9264 9.46273 50.7964 9.36273 50.5764C8.14273 50.1364 7.81273 50.2064 7.80273 50.4864C7.80273 50.7564 8.14273 51.1764 8.14273 51.1764C8.80273 52.0664 9.46272 52.1163 10.5427 52.6663L10.5527 52.6563Z" fill="#8E8E8E"/>
<path d="M57.2441 18.1652L57.3741 18.1152C57.3741 18.1152 57.3241 18.1152 57.2441 18.1652Z" fill="#8E8E8E"/>
<path d="M60.6838 14.416V14.426C60.7038 14.446 60.7238 14.456 60.7438 14.466L60.6738 14.416H60.6838Z" fill="#8E8E8E"/>
<path d="M56.944 20.3361C58.354 19.1861 58.864 19.0361 60.234 17.7261C60.524 17.4761 60.814 17.2261 61.114 16.9661L62.284 15.9261C61.744 15.4161 61.204 14.9161 60.694 14.4361C60.254 14.2361 60.014 13.6761 59.774 13.4461C59.784 13.3961 59.7939 13.3461 59.8139 13.2961C59.7539 13.2261 59.674 13.1161 59.744 13.0461H59.774C59.724 12.9961 59.734 12.9361 59.744 12.8861C59.744 12.8361 59.764 12.7861 59.764 12.7561H59.784L59.834 12.6261C59.834 12.6461 59.844 12.6561 59.854 12.6661C59.924 12.4261 60.164 12.1461 60.464 11.9961L60.374 11.9161C61.034 11.6261 61.264 11.2461 61.854 11.2161V11.2461C62.164 11.0161 62.464 11.0661 62.634 11.2061C62.824 11.3461 62.964 11.4661 63.294 11.6961C63.204 11.6461 63.274 11.7661 63.244 11.7761C63.474 12.0261 63.654 12.4261 63.864 12.3461C63.984 12.6261 63.8839 12.6061 63.8139 12.6661C63.9039 12.6361 64.0439 12.8661 64.0939 13.1061L64.034 13.0061C64.094 13.2261 64.174 13.4561 64.214 13.6861L64.374 13.5161C64.384 13.9061 64.164 13.6461 64.274 14.0061L64.424 13.9761C64.434 14.2561 64.404 14.4361 64.334 14.6961C64.284 15.0261 64.194 15.4361 64.114 15.9761C64.104 16.3961 64.064 16.8361 64.074 17.2261C64.514 17.0361 64.954 16.8561 65.404 16.6661C65.634 16.5761 65.864 16.4561 66.074 16.4061L66.514 16.3061C66.934 16.2361 67.354 16.2361 67.744 16.3361C68.534 16.5161 69.084 17.2061 69.124 17.9561L69.034 18.0461C68.864 18.0961 69.354 18.4561 69.184 18.5561L69.264 18.7561C69.234 18.8161 69.204 18.9361 69.164 18.8261C69.164 19.0061 69.164 19.0161 69.214 19.1661L69.084 19.3561C68.894 20.0661 68.844 20.6361 68.3139 20.7661C67.9939 20.7761 67.394 20.7061 66.694 20.4661C66.354 20.3461 65.994 20.2161 65.654 20.0661C65.564 20.0261 65.504 20.0061 65.384 19.9461C65.264 19.8861 65.144 19.8261 65.034 19.7661C64.794 19.6461 64.574 19.5261 64.364 19.4161C64.324 19.4161 64.294 19.3661 64.254 19.3761L64.164 19.4661C64.104 19.5261 64.034 19.5861 63.974 19.6461C63.844 19.7661 63.7239 19.8861 63.5939 19.9961C63.3039 20.2561 63.184 20.3461 62.994 20.5061C62.634 20.7861 62.254 21.0461 61.864 21.3161C61.094 21.8461 60.324 22.3861 59.754 23.0661C59.694 23.0861 59.624 23.2261 59.634 23.2361L58.404 24.2661C58.404 24.2661 52.484 29.2861 57.874 26.5061V26.5561C58.594 26.0561 59.024 25.7061 59.354 25.1661C59.574 25.2761 59.914 24.7161 60.114 24.6361V24.6661C60.404 24.1861 61.044 24.0561 61.324 23.6061C61.324 23.6361 61.354 23.6861 61.264 23.7661C61.534 23.4961 61.884 23.1261 61.994 23.2061C62.654 22.5961 63.634 21.8261 63.934 21.2861V21.3361C64.114 20.9861 64.154 21.1061 64.264 20.9161C64.274 20.9261 64.284 20.9261 64.284 20.9361C64.304 20.8861 64.344 20.7661 64.394 20.8061C64.444 20.8261 64.504 20.8661 64.554 20.8961C64.694 20.9861 64.804 21.0661 64.984 21.1261L64.954 21.2161C65.174 21.3361 65.404 21.4361 65.634 21.5361L65.394 21.3961C65.584 21.2161 65.834 21.7961 66.434 21.8261C66.954 22.0261 67.574 21.6161 68.074 21.6961C68.324 21.5561 67.854 21.9061 68.244 21.7761C68.274 21.8961 68.064 21.8761 68.184 21.9661C68.574 21.8661 68.944 21.9461 69.364 21.5361L69.444 21.5961C69.884 20.9861 70.344 20.5261 70.294 20.0561C70.374 19.4061 70.674 19.6661 70.5639 18.9661L70.704 18.6961C70.714 18.3861 70.554 18.4861 70.584 18.1461C70.674 18.1561 70.584 17.7061 70.704 17.8961C70.684 17.0661 70.124 16.3461 69.424 15.4861C69.144 15.4461 68.724 15.0961 68.504 15.1361C68.504 15.0961 68.254 15.0061 68.084 14.9261C67.904 14.8661 67.804 14.8161 68.114 14.8161C68.164 14.8161 68.254 14.8561 68.244 14.8761L68.3439 14.8061C67.7839 14.4061 67.204 14.6261 66.644 14.6361C66.814 14.6561 67.044 14.6461 66.894 14.7161L66.354 14.7361L66.454 14.6461C66.314 14.6461 66.184 14.6661 66.054 14.6761C65.934 14.6861 65.984 14.6761 65.944 14.6761C65.944 14.7061 65.944 14.7461 65.954 14.7761C65.854 14.7561 65.9539 14.5461 65.8139 14.7361C65.7139 14.8561 65.804 14.8661 65.684 14.9461L65.644 14.9261C65.694 14.7361 65.784 14.5661 65.794 14.4861C65.734 14.4961 65.714 14.4961 65.694 14.4861C65.674 14.4461 65.664 14.3561 65.644 14.2761L65.744 14.2461C65.524 13.6261 65.954 13.9861 65.734 13.3561L65.8139 13.3961L65.584 13.2661C65.274 12.7461 65.734 12.9061 65.294 12.3361C65.394 12.5761 65.124 12.5161 65.0639 12.2061L65.184 12.2561C65.104 12.0961 65.064 12.0561 65.034 11.9361C65.124 12.0161 65.1839 11.9361 65.0639 11.6961L65.244 11.8161L64.874 11.4161C64.784 11.0061 64.284 10.5261 64.234 10.3161C64.234 10.3161 64.0639 10.1261 63.8439 9.95613C63.5839 9.80613 63.294 9.64613 63.144 9.70613C63.384 9.68613 62.824 9.47614 63.014 9.42614C62.694 9.39614 61.904 9.48613 61.614 9.45613L61.664 9.43611C61.374 9.44611 61.124 9.51614 60.924 9.61614C60.714 9.70614 60.504 9.79612 60.354 9.90612C60.034 10.1161 59.724 10.3161 59.324 10.5261C59.424 10.5961 59.014 10.8161 59.204 10.8661C59.054 11.0561 58.894 11.1961 58.734 11.3461C58.594 11.5161 58.434 11.6561 58.324 11.8261C58.224 12.0061 58.124 12.1761 58.104 12.3361C58.094 12.5061 58.124 12.6461 58.224 12.7561C58.224 13.2261 58.114 13.3361 58.154 13.5761L58.104 13.4761C58.374 14.3261 58.554 14.4761 58.864 14.9361C59.074 15.1261 59.254 15.0161 59.534 15.3861C59.374 15.3361 59.5339 15.4761 59.5639 15.5061C59.5139 15.4761 59.484 15.4961 59.504 15.5861C59.534 15.5861 59.5639 15.5861 59.5939 15.5861C59.5939 15.5861 59.594 15.5861 59.574 15.5961C59.694 15.6661 59.714 15.6461 59.674 15.5961C59.694 15.5961 59.704 15.5861 59.714 15.5561C59.714 15.6661 59.864 15.7561 59.894 15.8161C59.854 15.8361 59.814 15.8461 59.754 15.8461C59.644 15.9661 59.594 16.0761 59.474 16.2361C59.254 16.4961 59.0439 16.7361 58.8139 16.9861C58.7039 16.9861 58.784 16.8261 58.914 16.6761L58.5639 17.0161C58.4939 16.9361 58.734 16.7861 58.834 16.6761C58.284 16.9261 58.054 17.5861 57.434 17.9061L57.384 18.0661L57.3439 18.0861C57.3439 18.0861 57.304 18.2661 57.234 18.3361C57.104 18.3361 57.094 18.1661 56.854 18.3961C56.594 18.5061 56.314 18.9261 56.084 19.1861C56.234 19.0761 56.224 19.1561 56.184 19.2361C56.064 19.3461 55.924 19.3361 55.854 19.4561L55.764 19.3761C55.894 19.4261 55.514 19.7561 55.504 19.8361C55.374 19.8361 55.644 19.6061 55.634 19.5261C55.134 19.9761 55.384 19.7461 54.884 20.1961C54.674 20.5061 55.014 20.2461 54.954 20.4361C54.734 20.6661 54.554 20.9261 54.234 21.1061H54.394C54.004 21.5661 53.724 21.7961 53.354 21.9661C50.614 25.5561 53.464 23.5161 53.464 23.5161C54.944 22.5661 55.404 21.7261 56.914 20.3061L56.944 20.3361Z" fill="#8E8E8E"/>
</svg>
