<svg width="71" height="71" viewBox="0 0 71 71" fill="none" xmlns="http://www.w3.org/2000/svg">
<path d="M37.2461 16.5107L37.3361 16.4707C37.3361 16.4707 37.2861 16.4707 37.2461 16.5107Z" fill="#8E8E8E"/>
<path d="M42.8147 19.8398C42.8147 19.8398 42.8147 19.8499 42.8047 19.8599C42.8147 19.8499 42.8147 19.8398 42.8147 19.8398Z" fill="#8E8E8E"/>
<path d="M40.5862 15.4316L40.5762 15.4516L40.5862 15.4316Z" fill="#8E8E8E"/>
<path d="M37.8255 18.1608C38.4555 17.3408 38.8055 17.2908 39.4555 16.4608C39.8355 16.1408 40.1955 15.7308 40.5855 15.4308C40.6655 15.1408 41.1055 15.0508 41.2655 14.7908L41.4055 14.8108C41.4655 14.7208 41.5355 14.6308 41.6455 14.6208V14.6508C41.7355 14.5008 41.9055 14.4808 41.9555 14.4108V14.4408L42.1155 14.3508V14.4008C42.2955 14.2208 42.5255 14.1008 42.7455 14.0208L42.6855 13.9208C43.1955 13.8608 43.2755 13.5708 43.7455 13.5508V13.5808C44.1955 13.1208 44.6555 13.5208 45.1455 13.1008C45.0855 13.1508 45.1855 13.1508 45.1855 13.1808C45.4455 13.1008 45.7155 13.0308 45.6855 12.8108C45.8855 12.7808 45.8555 12.8508 45.8955 12.9308C45.8755 12.8308 46.0455 12.7608 46.1855 12.7308C46.1755 12.7508 46.1455 12.7608 46.1255 12.7808L46.3855 12.7108C46.3855 12.6508 46.3755 12.5808 46.3655 12.5208C46.5155 12.5608 46.3655 12.7508 46.4855 12.7008L46.5455 12.5408C46.7555 12.5508 46.6955 12.8008 46.6355 12.9208C46.6555 12.9208 46.6755 12.9208 46.6955 12.9208C46.6955 12.9308 46.6955 12.9608 46.6955 12.9808C46.6955 13.0208 46.6955 13.0608 46.6955 13.1008C46.6955 13.2008 46.7255 13.2408 46.6555 13.4708C46.5555 13.7808 46.4555 14.1008 46.3155 14.3908C46.1555 14.6708 45.9855 14.9308 45.7855 15.1508H45.6555C45.5055 15.0708 45.7055 15.5508 45.5355 15.5008V15.6608C45.4755 15.6808 45.3955 15.7208 45.4055 15.6508C45.3255 15.7508 45.3455 15.7708 45.3355 15.8708L45.1755 15.9208C44.8355 16.2808 44.6855 16.7108 44.3055 17.0808C43.7055 17.3708 42.9455 18.2708 42.3755 18.7008C41.6355 19.4408 40.3055 19.2808 39.4555 19.8508C39.4155 19.8408 39.3555 19.9108 39.3555 19.9308C39.0555 20.0208 38.7555 20.1008 38.4455 20.1608C38.4955 20.2008 33.8555 21.0908 37.6655 21.7408L37.6455 21.7808C38.1955 21.7508 38.5355 21.6908 38.8555 21.4108C38.9755 21.6208 39.2955 21.3208 39.4355 21.3508V21.3708C39.6955 21.1008 40.1355 21.3208 40.3955 21.0508C40.3955 21.0708 40.3955 21.1308 40.3355 21.1608C40.5555 21.0508 40.8355 20.8908 40.9055 21.0108C41.4255 20.7708 42.1855 20.4908 42.4055 20.1208V20.1608C42.5155 19.9308 42.6355 20.0208 42.7955 19.8408C42.8155 19.8408 42.8355 19.8408 42.8355 19.8608C42.9555 19.6208 43.3855 19.4908 43.5055 19.3408L43.5655 19.4108C43.6955 19.3308 43.8055 19.2208 43.9255 19.1308L43.7755 19.2208C43.6755 18.9908 44.1455 19.1408 44.3055 18.8108C44.5855 18.6508 44.4355 18.0108 44.7455 17.9008C44.7755 17.7208 44.7755 18.1208 44.8755 17.9008C44.9655 17.9908 44.8555 18.0308 44.9655 18.0608C45.0855 17.8708 45.3255 17.9108 45.4455 17.6408L45.5255 17.7008C45.6255 17.3108 46.0755 17.2708 46.0955 16.9708C46.2455 16.6208 46.4755 16.9408 46.5455 16.5108L46.7455 16.4608C46.8555 16.3308 46.6755 16.2708 46.8355 16.1508C46.9055 16.2108 47.0155 15.9908 47.0355 16.1208C47.3555 15.8108 47.2955 15.2808 47.7355 14.8908C47.6355 14.7108 47.8255 14.4908 47.7455 14.3608C47.8155 14.3808 47.9655 13.8508 47.9955 14.2008C47.9955 14.2308 47.9755 14.2708 47.9555 14.2608L48.0355 14.3308C48.1955 14.2008 48.1955 14.1208 48.2455 13.8808C48.2955 13.6608 48.2855 13.4108 48.3855 13.1708C48.3055 13.3208 48.2555 13.5108 48.2255 13.3808L48.3755 12.9408L48.4355 13.0208L48.6955 12.3108L48.5455 12.4508C48.7055 12.1108 48.9655 11.8508 48.8955 11.5708C48.8355 11.4708 48.6255 11.9908 48.6855 11.6808C48.7455 11.4808 49.1155 10.9808 48.6855 11.1008C48.4255 11.0808 48.1255 11.0808 47.8255 11.0908C47.7955 11.2108 47.6355 11.2208 47.4655 11.2608L47.5055 11.1608C46.8055 11.3608 47.3655 10.9508 46.6455 11.1308L46.7155 11.0508C46.6455 11.1308 46.5755 11.2008 46.5055 11.2808C46.2155 11.4008 46.1455 11.3608 46.0755 11.3308C45.9855 11.3008 45.9055 11.2808 45.7555 11.4508C45.8955 11.4108 45.8555 11.6508 45.6755 11.6408L45.7055 11.5408C45.6055 11.5808 45.5855 11.6208 45.5155 11.6208C45.5655 11.5608 45.5155 11.4808 45.3755 11.5208L45.4555 11.3808L45.2155 11.6108C44.9855 11.5508 44.6655 11.7308 44.5555 11.6408C44.5555 11.6408 44.0855 11.7008 44.0155 11.8808C44.0855 11.7708 43.8255 11.8008 43.8655 11.6808C43.7755 11.8108 43.4555 11.9908 43.2855 11.9308L43.3055 11.9108C42.7555 12.0008 42.5055 12.3908 42.0055 12.4408C42.0755 12.5408 41.8155 12.5908 41.9355 12.7008C41.5655 13.0508 40.9855 12.8408 41.0455 13.3208C40.8655 13.4608 40.7655 13.3708 40.6555 13.4108L40.6855 13.3608C40.3455 13.6208 40.2455 13.6808 39.9755 13.8408C39.8755 13.9708 39.9755 14.1608 39.7355 14.2808C39.7555 14.1608 39.6755 14.2408 39.5955 14.3008C39.6355 14.2508 39.6355 14.2108 39.4955 14.2508C39.4955 14.2808 39.4855 14.3108 39.4655 14.3408C39.4655 14.3408 39.4555 14.3408 39.4455 14.3308C39.3255 14.4608 39.3655 14.4608 39.4455 14.4208C39.4455 14.4308 39.4655 14.4408 39.4955 14.4408C39.2855 14.4608 39.1055 14.7508 38.9955 14.6608C38.6355 15.0408 38.4455 15.3808 38.2055 15.7408C38.1155 15.7208 38.1355 15.6008 38.2055 15.4908L38.0155 15.7308C37.9355 15.6508 38.0955 15.5608 38.1455 15.4708C37.7755 15.6308 37.7455 16.1308 37.3655 16.3708V16.4908L37.3455 16.5008C37.3855 16.5308 37.3655 16.6408 37.3455 16.7008C37.2355 16.6908 37.1755 16.5608 37.0455 16.7308C36.8655 16.8008 36.8055 17.1508 36.7255 17.3608C36.8055 17.2708 36.8255 17.3308 36.8255 17.3908C36.7655 17.4808 36.6555 17.4808 36.6455 17.5708L36.5355 17.5108C36.6555 17.5408 36.4955 17.8108 36.5255 17.8708C36.4155 17.8708 36.5355 17.6908 36.4955 17.6308C36.2855 18.0108 36.3955 17.8208 36.1855 18.1908C36.1555 18.4308 36.3055 18.2108 36.3555 18.3608C36.2755 18.5408 36.2755 18.7608 36.1055 18.9208L36.2355 18.9008C36.1455 19.2608 36.0555 19.4608 35.8555 19.6508C35.8155 20.3708 35.9355 20.7708 36.0555 20.9708C36.1755 21.1608 36.3055 21.1808 36.4155 21.1008C36.6455 20.9708 36.8355 20.5808 36.8455 20.5708C37.3855 19.8008 37.2855 19.2208 37.8455 18.1808L37.8255 18.1608Z" fill="#8E8E8E"/>
<path d="M35.8251 22.3705C35.8251 22.3705 35.9151 22.6305 35.9151 22.5405C35.9251 22.5505 35.9251 22.5005 35.9351 22.4805C35.8951 22.3105 35.9451 22.4805 35.9251 22.3405L35.9451 22.4305C35.9451 22.4305 35.9351 22.3505 35.9451 22.4005V22.4305C35.9451 22.3605 35.9451 22.4005 35.9451 22.3605V22.3905V22.3805V22.4205C35.9451 22.3405 35.9451 22.3405 35.9551 22.3705L35.9251 22.2605C35.9651 22.3805 35.9151 22.1505 35.9551 22.3005V22.3305C35.9051 22.0305 36.0251 22.5305 35.9751 22.2405C35.9751 22.2805 35.9851 22.3005 35.9951 22.3305C35.9951 22.3005 35.9951 22.2805 35.9451 22.0605C35.9451 22.0605 35.9651 22.1305 35.9851 22.2105C35.9651 22.1105 35.9551 22.0705 35.9551 22.0605V22.1005V22.0605L35.9051 21.8805C35.9251 21.9305 35.9551 22.1005 35.9551 22.0605L35.9151 21.9105C35.9151 21.9105 35.9851 22.1705 36.0251 22.2805C36.0651 22.3405 36.0051 21.9405 36.0951 22.2105L36.1251 22.3205C36.1651 22.4905 36.0751 22.0705 36.1151 22.2305V22.1505C36.1151 22.1505 36.1151 22.2105 36.1151 22.2505C36.1151 22.2505 36.1151 22.2305 36.1051 22.1805L36.1351 22.2805C36.1651 22.3605 36.1351 22.1605 36.1451 22.1905C36.2051 22.4005 36.1851 22.1905 36.1751 22.0805C36.1351 21.8305 36.3151 22.4905 36.2651 22.2005C36.2651 22.2205 36.2651 22.1705 36.2651 22.1505L36.2851 22.1705C36.2851 22.1705 36.3951 22.2105 36.0251 20.8405V20.8005C35.9851 20.7105 35.9751 20.7005 36.0051 20.8805C35.9551 20.6605 35.9951 20.8605 35.9751 20.7905V20.7705C36.0051 20.9405 35.9251 20.6305 35.9551 20.7905C35.9551 20.7705 35.9351 20.7105 35.9351 20.7105C35.9351 20.7405 35.9351 20.7905 35.9151 20.6605C35.9151 20.7005 35.8851 20.6405 35.9151 20.8505V20.8105C35.9351 20.9505 35.9151 20.8305 35.9151 20.9105C35.9151 20.8905 35.9151 20.8805 35.9151 20.8805C35.9451 21.0205 35.9151 20.9005 35.9151 20.9705L35.8951 20.8805V20.9005V20.9205C35.9451 21.1605 35.8551 20.7705 35.8851 20.9205C35.8751 20.8905 35.9851 21.4205 35.9551 21.3005C35.9751 21.4105 35.9151 21.1205 35.9351 21.2005C35.9051 21.0805 35.9151 21.1205 35.8951 21.0205C35.8951 21.0805 35.8551 20.8905 35.8751 20.9805L35.8551 20.8805C35.8851 21.0605 35.8151 20.7605 35.8551 20.9305C35.8651 21.0105 35.7851 20.6405 35.8151 20.8305L35.7851 20.7005C35.7851 20.7005 35.8151 20.8605 35.8051 20.8005C35.7851 20.7205 35.7851 20.7305 35.7651 20.6605C35.7251 20.5305 35.7851 20.8505 35.7251 20.6305C35.7551 20.7905 35.7351 20.7005 35.7551 20.8205C35.7351 20.7505 35.7451 20.8205 35.7151 20.6605C35.7151 20.6505 35.7151 20.6505 35.7151 20.6805L35.6951 20.5805C35.6451 20.4005 35.7051 20.6805 35.6951 20.6605C35.6951 20.6905 35.6951 20.6805 35.7151 20.7505L35.6951 20.6605L35.6751 20.6205L35.6951 20.7205C35.6951 20.7205 35.6351 20.5005 35.6651 20.6405C35.6851 20.7205 35.7051 20.7705 35.7051 20.8105C35.6851 20.7405 35.6551 20.6405 35.6351 20.6205C35.6651 20.7305 35.6551 20.7305 35.6651 20.7505L35.6451 20.6505C35.6651 20.7905 35.5951 20.4405 35.6051 20.5505L35.5851 20.4805L35.6351 20.6805C35.6751 20.8705 35.5851 20.4805 35.6351 20.7405C35.6351 20.7205 35.6851 20.9505 35.6751 20.9105L35.6551 20.8205C35.6551 20.8205 35.6651 20.8805 35.6551 20.8605C35.6451 20.8105 35.6251 20.7205 35.6251 20.7405L35.5951 20.6205L35.6351 20.7905C35.6051 20.6905 35.6351 20.8205 35.5951 20.6905C35.5951 20.6905 35.5651 20.6305 35.5951 20.7705C35.5751 20.6805 35.5651 20.6505 35.5351 20.5405C35.5551 20.6405 35.5651 20.7305 35.5351 20.6205C35.4951 20.5005 35.5551 20.7605 35.5151 20.6305C35.5451 20.7405 35.5251 20.6805 35.5551 20.8305C35.5751 20.9705 35.4651 20.5405 35.5751 20.9905C35.5751 21.0105 35.5451 20.8905 35.5351 20.8705V20.8505C35.5351 20.8505 35.5351 20.8905 35.5251 20.8805C35.5251 20.9205 35.5851 21.1305 35.5651 21.0805C35.5451 21.0005 35.5451 21.0105 35.5451 21.0105C35.5451 21.0005 35.5351 20.9705 35.5251 20.9105C35.5251 20.9405 35.5251 20.9505 35.5351 20.9605C35.5351 20.9605 35.5351 20.9505 35.5351 20.9405C35.5351 20.9705 35.5451 20.9905 35.5551 21.0105C35.5551 21.0205 35.5551 21.0405 35.5651 21.0605C35.5351 20.9605 35.5651 21.0605 35.5251 20.9305C35.5251 20.9705 35.5551 21.1105 35.5551 21.1705C35.5351 21.1005 35.5251 21.0305 35.5151 21.0005V21.0305C35.4851 20.9305 35.5051 20.9705 35.5051 20.9505C35.4551 20.7805 35.5351 21.1205 35.4851 20.9705L35.5051 21.0505C35.5051 21.0505 35.5251 21.1405 35.5351 21.1505C35.5151 21.0605 35.4851 20.9405 35.4851 20.9505C35.4551 20.8605 35.4851 21.0005 35.4851 21.0505C35.4851 21.0705 35.5051 21.1205 35.5051 21.1505C35.5051 21.1505 35.4851 21.0605 35.4851 21.1005L35.4551 20.9805C35.4751 21.1005 35.4851 21.1105 35.4951 21.1605C35.4751 21.0705 35.4751 21.0805 35.4651 21.0105C35.4651 21.0205 35.4651 21.0105 35.4651 21.0305C35.4851 21.1205 35.4951 21.1505 35.5151 21.2505C35.5151 21.2705 35.5351 21.3605 35.5151 21.2905L35.5451 21.4005C35.5551 21.4905 35.5451 21.4705 35.5151 21.3705C35.6851 22.2705 35.8051 22.5805 35.8051 22.5805C35.8851 22.8105 35.8151 22.5005 35.8251 22.4105V22.3705Z" fill="#8E8E8E"/>
<path d="M36.3945 21.6598C36.4545 21.6498 36.6644 21.6899 36.5844 21.6499C36.6044 21.6499 36.5545 21.6199 36.5345 21.6099C36.3645 21.5699 36.5345 21.5998 36.3945 21.5598L36.4845 21.5799C36.4845 21.5799 36.4045 21.5598 36.4545 21.5698H36.4845C36.4145 21.5598 36.4544 21.5699 36.4244 21.5499H36.4545H36.4445H36.4845C36.4145 21.5399 36.4045 21.5298 36.4445 21.5298L36.3344 21.5098C36.4644 21.5298 36.2245 21.4698 36.3845 21.4998H36.4145C36.1145 21.4298 36.6245 21.5299 36.3445 21.4599C36.3845 21.4599 36.4045 21.4698 36.4345 21.4798C36.4045 21.4698 36.3845 21.4598 36.1645 21.4098C36.1645 21.4098 36.2345 21.4198 36.3245 21.4398C36.2245 21.4198 36.1845 21.4099 36.1845 21.3999H36.2245H36.1945L36.0045 21.3599C36.0545 21.3599 36.2345 21.3999 36.1845 21.3899L36.0345 21.3599C36.0345 21.3599 36.2945 21.3999 36.4145 21.4199C36.4845 21.4099 36.1045 21.2999 36.3745 21.3299L36.4944 21.3498C36.6644 21.3798 36.2445 21.2898 36.4045 21.3198L36.3245 21.2999C36.3245 21.2999 36.3844 21.3098 36.4244 21.3198C36.4244 21.3198 36.4045 21.3199 36.3545 21.2999L36.4645 21.3198C36.5445 21.3198 36.3445 21.2799 36.3945 21.2699C36.6145 21.2999 36.4145 21.2399 36.3045 21.1999C36.0545 21.1299 36.7345 21.2398 36.4445 21.1598C36.4645 21.1598 36.4145 21.1599 36.3945 21.1499H36.4244C36.4244 21.1499 36.5045 21.0598 35.0945 20.8498H35.0545C34.9645 20.8298 34.9445 20.8398 35.1245 20.8798C34.8945 20.8398 35.1045 20.8798 35.0245 20.8798H35.0045C35.1745 20.9198 34.8545 20.8599 35.0045 20.8999C34.9845 20.8999 34.9244 20.8798 34.9244 20.8798C34.9544 20.8798 35.0045 20.9098 34.8645 20.8798C34.8945 20.8998 34.8345 20.8999 35.0445 20.9499H35.0045C35.1445 20.9699 35.0245 20.9498 35.0945 20.9698C35.0745 20.9698 35.0645 20.9698 35.0645 20.9698C35.2045 20.9998 35.0845 20.9898 35.1445 20.9998L35.0545 20.9798H35.0745L35.0945 20.9899C35.3345 21.0399 34.9445 20.9698 35.0945 20.9998C35.0645 20.9998 35.5945 21.1098 35.4745 21.0898C35.5845 21.1098 35.2945 21.0498 35.3745 21.0698C35.2545 21.0398 35.2945 21.0498 35.1945 21.0298C35.2545 21.0498 35.0645 21.0098 35.1445 21.0298L35.0445 21.0098C35.2245 21.0498 34.9144 20.9998 35.0844 21.0298C35.1644 21.0498 34.7945 20.9798 34.9845 21.0298L34.8545 21.0098C34.8545 21.0098 35.0145 21.0398 34.9545 21.0298C34.8745 21.0098 34.8845 21.0198 34.8045 20.9998C34.6745 20.9798 34.9845 21.0499 34.7645 21.0199C34.9245 21.0599 34.8245 21.0398 34.9545 21.0698C34.8845 21.0598 34.9445 21.0698 34.7845 21.0398C34.7745 21.0398 34.7845 21.0398 34.8045 21.0398L34.7045 21.0199C34.5245 20.9899 34.8045 21.0499 34.7745 21.0499C34.8045 21.0499 34.7945 21.0498 34.8645 21.0698H34.8545L34.7745 21.0598H34.7245L34.8245 21.0799C34.7745 21.0799 34.6044 21.0399 34.7444 21.0799C34.8244 21.0999 34.8745 21.1099 34.9145 21.1099C34.8445 21.1099 34.7445 21.0898 34.7145 21.0898C34.8245 21.1098 34.8245 21.1098 34.8445 21.1198L34.7444 21.0998C34.8744 21.1298 34.5245 21.0598 34.6345 21.0898H34.5645L34.7645 21.1198C34.9545 21.1598 34.5645 21.0799 34.8245 21.1399C34.8045 21.1399 35.0444 21.1799 34.9944 21.1799L34.9045 21.1598C34.9045 21.1598 34.9645 21.1699 34.9445 21.1699C34.8945 21.1599 34.8045 21.1399 34.8245 21.1499L34.7045 21.1198L34.8745 21.1598C34.7745 21.1398 34.8945 21.1798 34.7645 21.1598C34.7645 21.1598 34.6945 21.1598 34.8445 21.1898C34.7545 21.1698 34.7245 21.1699 34.6145 21.1499C34.7145 21.1699 34.7945 21.1999 34.6845 21.1799H34.6744C34.5644 21.1599 34.8245 21.2199 34.6845 21.2099C34.7945 21.2299 34.7345 21.2198 34.8845 21.2498C35.0245 21.2898 34.5845 21.2099 35.0345 21.2999C35.0545 21.2999 34.9245 21.2798 34.9045 21.2798H34.8845C34.8845 21.2798 34.9245 21.2899 34.9145 21.2999C34.9545 21.3099 35.1645 21.3498 35.1145 21.3498C35.0345 21.3298 35.0445 21.3398 35.0445 21.3398C35.0345 21.3398 35.0045 21.3398 34.9445 21.3198C34.9745 21.3198 34.9844 21.3199 34.9944 21.3299C34.9944 21.3299 34.9845 21.3299 34.9745 21.3299C35.0045 21.3299 35.0245 21.3398 35.0445 21.3398C35.0545 21.3398 35.0745 21.3398 35.0945 21.3398C34.9845 21.3198 35.0945 21.3498 34.9545 21.3198C34.9845 21.3398 35.1345 21.3699 35.1845 21.3899C35.1145 21.3699 35.0445 21.3598 35.0145 21.3498H35.0445C34.9345 21.3398 34.9845 21.3498 34.9645 21.3398C34.7945 21.3098 35.1345 21.3899 34.9645 21.3599L35.0445 21.3798H35.0345C35.0345 21.3798 35.1345 21.3999 35.1545 21.3999C35.0645 21.3799 34.9445 21.3599 34.9445 21.3599C34.8545 21.3499 34.9845 21.3799 35.0345 21.3899C35.0545 21.3899 35.1045 21.3998 35.1345 21.4098C35.1345 21.4098 35.0444 21.3998 35.0844 21.4098L34.9645 21.3899C35.0845 21.4199 35.0845 21.4199 35.1445 21.4299C35.0545 21.4099 35.0644 21.4099 34.9944 21.3999C35.0044 21.4099 34.9945 21.3999 35.0145 21.4199C35.1045 21.4399 35.1345 21.4398 35.2345 21.4698C35.2545 21.4698 35.3445 21.4999 35.2645 21.4899L35.3745 21.5098C35.4545 21.5298 35.4444 21.5398 35.3344 21.5098C36.2144 21.7398 36.5545 21.7699 36.5545 21.7699C36.8045 21.7999 36.4845 21.7199 36.4045 21.6799L36.3945 21.6598Z" fill="#8E8E8E"/>
<path d="M32.4434 19.2006L32.4734 19.1406C32.4734 19.1406 32.4434 19.1706 32.4434 19.2006Z" fill="#8E8E8E"/>
<path d="M33.4238 16.9512V16.9612L33.4338 16.9712L33.4238 16.9512Z" fill="#8E8E8E"/>
<path d="M33.9943 19.2806C33.8343 18.6606 33.9943 18.4306 33.7043 17.8406C33.6443 17.5406 33.5043 17.2406 33.4143 16.9606C33.2143 16.8606 33.3243 16.5806 33.1643 16.4506L33.2443 16.3706C33.1843 16.3206 33.1443 16.2606 33.1843 16.2006H33.2143C33.1343 16.1306 33.1643 16.0306 33.1243 16.0006H33.1543L33.1343 15.9006H33.1743C33.0743 15.7806 33.0643 15.6306 33.1043 15.5206H32.9843C33.1043 15.2706 32.8843 15.1706 33.0543 14.9706H33.0843C32.9443 14.8206 33.0443 14.7506 33.1043 14.6806C33.1843 14.6206 33.2643 14.6306 33.1743 14.4706C33.1843 14.5006 33.2243 14.5006 33.2443 14.5206C33.2643 14.4806 33.2743 14.4006 33.1643 14.2206C33.2343 14.2006 33.2543 14.2606 33.3043 14.3406C33.2543 14.2506 33.2843 14.1906 33.3343 14.1606V14.2106C33.3343 14.2106 33.4443 14.1406 33.5343 14.1006L33.4343 13.9306C33.5943 13.9406 33.5343 14.1406 33.6543 14.0606L33.6043 13.9106C33.8043 13.8806 33.9843 14.0806 34.1943 14.1406C34.5643 14.0706 34.9443 13.9006 35.1543 13.8606C35.3543 13.8006 35.5343 13.9006 35.4843 14.1306L35.3843 14.2006C35.2243 14.2706 35.6543 14.1806 35.5143 14.2706L35.6043 14.3106C35.6043 14.3106 35.5543 14.3806 35.5143 14.3606C35.5143 14.4206 35.5443 14.4106 35.6043 14.4506L35.5143 14.5306C35.4743 14.7806 35.6943 15.0106 35.6543 15.3206C35.4443 15.6906 35.5943 16.4106 35.6643 16.8506C35.8443 17.4906 35.0843 18.0906 35.2643 18.7406C35.2343 18.7606 35.2843 18.8206 35.3043 18.8206L35.1843 19.3806C35.1843 19.3806 34.6143 22.1206 36.3943 20.2806L36.4243 20.3006C36.5743 20.0006 36.6243 19.8106 36.4843 19.5606C36.7243 19.5606 36.5543 19.3006 36.6343 19.2406H36.6543C36.5143 19.0306 36.8643 18.8706 36.7343 18.6606C36.7543 18.6706 36.8143 18.6806 36.8143 18.7306C36.8143 18.5906 36.7843 18.4006 36.9243 18.4106C36.9443 18.0806 37.0543 17.6206 36.8743 17.3906L36.9143 17.4106C36.7843 17.2706 36.9143 17.2506 36.8543 17.1106C36.8743 17.1106 36.8843 17.1006 36.8943 17.1006C36.7743 16.9606 36.9043 16.7106 36.8543 16.6006H36.9443V16.3306L36.9143 16.4306C36.6743 16.3806 37.0843 16.2406 36.9443 16.0406C36.9843 15.8606 36.4443 15.6506 36.5643 15.4806C36.4543 15.3906 36.7543 15.5606 36.6643 15.4306C36.7943 15.4306 36.7443 15.4906 36.8443 15.4606C36.7843 15.3306 36.9843 15.2406 36.8843 15.0806H36.9843C36.7843 14.8606 37.0843 14.6306 36.8943 14.5006C36.7743 14.2806 37.1543 14.2806 36.9143 14.0606L37.0243 13.9206C37.0143 13.8006 36.8643 13.8906 36.8543 13.7306C36.9343 13.7106 36.8343 13.5206 36.9443 13.5806C36.9043 13.1706 36.4743 12.9606 36.1243 12.5506C35.9543 12.6206 35.7443 12.4606 35.6243 12.5606C35.6243 12.4706 35.1343 12.4706 35.4343 12.3506C35.4643 12.3506 35.5043 12.3506 35.5043 12.3806L35.5543 12.2906C35.2643 12.0506 35.0143 12.3506 34.7943 12.3406C34.8543 12.3606 34.9543 12.3406 34.8943 12.4206H34.6943L34.7243 12.3506H34.4143L34.4743 12.4406C34.3243 12.4106 34.2443 12.2606 34.1343 12.4406C34.0843 12.5306 34.2843 12.5406 34.1543 12.6106C33.9643 12.5806 33.7043 12.5506 33.4843 12.5806C33.5343 12.6806 33.4843 12.7006 33.4343 12.7306L33.4043 12.6406C33.2343 12.8306 33.2643 12.4506 33.0943 12.6206V12.5506V12.7706C32.9743 13.0106 32.9343 12.5906 32.7043 12.9906C32.8243 12.9206 32.8443 13.1706 32.6943 13.1906V13.0906C32.6143 13.1506 32.6043 13.2006 32.5443 13.2006C32.5643 13.1306 32.4943 13.0606 32.3843 13.1506C32.3843 13.1006 32.3843 13.0506 32.4043 13.0006C32.3543 13.0906 32.3243 13.2006 32.2943 13.3006C32.0643 13.3606 31.9443 13.6806 31.8143 13.6806C31.8143 13.6806 31.5343 14.0306 31.6543 14.1606C31.5943 14.0606 31.4943 14.2406 31.4143 14.1506C31.4843 14.2806 31.4843 14.5706 31.3543 14.6606V14.6406C31.1843 15.0206 31.4243 15.3106 31.3043 15.6106C31.4243 15.5906 31.3643 15.7606 31.5043 15.7106C31.6643 16.0106 31.2543 16.3106 31.7243 16.3606C31.7643 16.4906 31.6443 16.5306 31.6343 16.6106L31.6043 16.5806C31.6843 16.8306 31.7043 16.9006 31.7243 17.0806C31.7843 17.1606 31.9943 17.1306 31.9843 17.3006C31.8943 17.2706 31.9243 17.3306 31.9343 17.3906C31.9143 17.3506 31.8743 17.3506 31.8443 17.4406C31.8743 17.4406 31.8943 17.4606 31.9043 17.4706C31.9043 17.4706 31.8943 17.4706 31.8843 17.4706C31.9343 17.5606 31.9543 17.5406 31.9543 17.4906C31.9643 17.4906 31.9843 17.4906 32.0043 17.4606C31.9243 17.5906 32.0843 17.7506 31.9443 17.7906C32.0643 18.0806 32.2543 18.2506 32.3843 18.4706C32.3243 18.5206 32.2443 18.4806 32.1943 18.4206L32.2743 18.5806C32.1743 18.6106 32.1843 18.5006 32.1443 18.4506C32.0443 18.7106 32.4343 18.8206 32.3643 19.1106L32.4643 19.1306V19.1506C32.4643 19.1506 32.5743 19.1706 32.6043 19.2006C32.5243 19.2606 32.4043 19.2706 32.4443 19.3806C32.3943 19.5006 32.5743 19.6306 32.6743 19.7306C32.6743 19.6606 32.7243 19.6606 32.7643 19.6806C32.7843 19.7406 32.7143 19.8006 32.7643 19.8306L32.6443 19.8806C32.7443 19.8206 32.8243 19.9906 32.8743 19.9906C32.7943 20.0606 32.7643 19.9306 32.6943 19.9406C32.7943 20.1706 32.7443 20.0506 32.8443 20.2806C32.9843 20.3706 32.9443 20.2206 33.0743 20.2306C33.1343 20.3306 33.2643 20.4006 33.2443 20.5506L33.3343 20.4706C33.4943 20.6406 33.5343 20.7606 33.4843 20.9406C34.2143 21.5106 34.5343 21.4506 34.6743 21.2706C34.8143 21.0906 34.7643 20.7706 34.7643 20.7706C34.7643 20.1106 34.3343 19.9406 34.0043 19.2906L33.9943 19.2806Z" fill="#8E8E8E"/>
<path d="M18.3843 27.5898L18.1543 27.8098C18.1543 27.8098 18.2343 27.7698 18.3843 27.5898Z" fill="#8E8E8E"/>
<path d="M55.9948 33.6501L55.9648 33.5801C55.9648 33.5801 55.9848 33.6501 55.9948 33.6501Z" fill="#8E8E8E"/>
<path d="M13.0549 38.9792V38.9592C13.0549 38.9592 13.0549 38.8991 13.0449 38.8691V38.9792H13.0549Z" fill="#8E8E8E"/>
<path d="M20.1549 23.77C18.3649 25.2 17.4049 26.3 16.4949 27.46C15.6549 28.66 14.7849 29.92 14.0549 32.19C13.2949 34.33 12.9649 36.76 13.0449 38.97C13.1849 40.01 13.2749 41.87 13.6949 43.04C13.6949 43.2 13.6949 43.3699 13.7149 43.5299C13.8849 43.9299 14.0649 44.39 14.1449 44.82L14.1149 44.8C14.3549 45.39 14.6549 46.05 14.7949 46.33H14.7549C14.8649 46.55 14.9649 46.79 15.0749 47.02C15.0449 46.99 15.0149 46.95 14.9849 46.92C15.5749 47.87 16.1149 48.86 16.6949 49.69L16.7449 49.55C17.2749 50.49 17.8249 50.99 18.2849 51.51C18.7349 52.05 19.2849 52.45 19.9249 53.18H19.8849C21.9149 54.5 22.7849 55.75 25.1349 56.66C24.8449 56.55 25.2249 56.77 25.1949 56.79C26.2149 57.32 27.3549 57.75 27.4649 57.54C28.2249 57.86 28.0549 57.86 28.1249 57.98C28.1649 57.87 28.8249 58.15 29.4449 58.32L29.1549 58.27L30.9249 58.8L30.6349 58.51C31.5449 58.86 30.8049 58.81 31.7049 59.04L31.7349 58.89C32.3849 59.06 32.8849 59.25 33.3849 59.45C33.6349 59.55 33.8849 59.65 34.1449 59.75L34.3449 59.83L34.6649 59.93C34.8949 59.99 35.1949 59.87 35.3149 59.88C37.9849 59.35 40.6949 58.49 43.2349 57.35C45.7649 56.18 48.1149 54.77 50.2049 53.27L50.4549 53.21C50.6449 53.27 51.3549 52.08 51.6049 52.07C51.7449 51.93 51.8549 51.7499 51.9749 51.5899C52.1149 51.4899 52.3749 51.25 52.2049 51.5C52.5949 51.1 52.5749 51.07 52.8149 50.75L53.3049 50.38C54.7649 48.72 55.6049 47.01 56.5449 44.91C57.1749 43.66 57.7549 41.71 57.9249 39.66C58.0849 37.61 57.7749 35.55 57.4049 34.1C56.8449 32.07 56.0849 29.91 54.8649 27.93C53.6649 25.96 51.9949 24.2 50.0749 23.14C49.9749 23.04 49.6449 22.87 49.6249 22.9C49.0449 22.59 48.4749 22.23 47.8749 21.96C47.2549 21.72 46.6649 21.41 46.0249 21.22C46.0249 21.22 45.7349 21.14 45.2549 21C45.0149 20.94 44.7249 20.84 44.4049 20.77C44.0749 20.71 43.7049 20.6499 43.3249 20.5899C42.5549 20.4199 41.6649 20.43 40.8049 20.38C39.9349 20.37 39.0849 20.4699 38.3549 20.5299C36.9049 20.8099 35.9249 21.07 36.2049 21.22C36.3449 21.3 36.7949 21.3499 37.6349 21.3699C38.0549 21.3699 38.5749 21.37 39.2049 21.45C39.8349 21.5 40.5649 21.54 41.4149 21.72L41.3249 21.75C43.3449 21.94 44.5249 22.3499 45.9149 22.5599C46.0349 22.8699 47.4549 23.17 47.8249 23.49H47.7749C48.9549 23.9 49.8749 24.86 50.8449 25.51C50.7949 25.49 50.7349 25.53 50.5349 25.35C50.8649 25.62 51.2649 25.93 51.5649 26.2C51.8449 26.5 52.0349 26.7399 52.0149 26.8099C52.1949 26.9899 52.3749 27.19 52.5649 27.38C52.7449 27.59 52.9049 27.82 53.0849 28.05L53.6049 28.74C53.7549 28.99 53.9049 29.23 54.0549 29.47C54.3749 29.94 54.6249 30.42 54.8449 30.85C55.0849 31.27 55.2949 31.64 55.4449 31.94L55.3749 31.8699C55.7449 32.5299 55.7749 32.7599 56.0349 33.5599C56.0349 33.6099 56.0349 33.67 56.0349 33.66C56.4149 34.41 56.5449 36.01 56.6349 36.66L56.5449 36.71C56.5649 37.25 56.6549 37.7999 56.6049 38.3399C56.6149 38.1399 56.6449 37.93 56.6349 37.73C56.7749 37.83 56.7149 38.15 56.6449 38.58C56.5649 39.01 56.5249 39.56 56.4849 40.15C56.3249 41.23 56.5749 42.4999 56.0749 43.5899C55.9849 44.1599 56.0749 43.07 55.8649 43.88C55.7349 43.86 55.9249 43.49 55.7549 43.65C55.6449 44.04 55.4949 44.35 55.3449 44.67C55.1649 44.98 54.9749 45.3099 54.7949 45.7799H54.6849C54.5049 46.4099 54.1149 46.9 53.7949 47.36C53.4849 47.83 53.1549 48.21 52.9449 48.6C52.1849 49.72 52.1949 49.14 51.3749 50.29L50.9049 50.5899C50.4849 51.0099 50.7149 51.01 50.1749 51.4C50.1449 51.31 49.5049 51.8999 49.7349 51.5899C49.1049 52.0899 48.5549 52.53 47.9149 53.04C47.2949 53.58 46.5149 54.02 45.6149 54.44C45.3449 54.83 44.3749 55.16 44.1449 55.42C44.0649 55.38 42.3349 56.29 43.2749 55.65C43.3549 55.6 43.5149 55.52 43.5149 55.55L43.5949 55.4C43.3249 55.48 43.0749 55.58 42.8349 55.7C42.5949 55.8 42.3549 55.91 42.1249 56.02C41.6649 56.25 41.2049 56.5 40.6849 56.69C41.0049 56.6 41.4149 56.43 41.1649 56.6C40.8349 56.72 40.5149 56.86 40.1749 56.95L40.3549 56.8099L38.8449 57.22L39.0849 57.25C38.3349 57.41 38.0449 57.36 37.2449 57.7C36.8849 57.87 37.9849 57.67 37.2049 57.88C36.6949 57.96 36.0549 58.07 35.3949 58.18L34.8949 58.27C34.7549 58.29 34.7949 58.28 34.7149 58.26C34.3849 58.17 34.0649 58.08 33.7649 57.99C33.8549 58.13 33.5149 58.04 33.1649 57.99L33.1449 57.88C31.7649 57.68 32.6949 57.59 31.3649 57.2799L31.4949 57.25L31.0949 57.3399C29.8549 57.1399 30.5149 56.9599 29.1449 56.75C29.6549 56.9399 29.3049 57.0499 28.7049 56.75L28.8949 56.73C28.5449 56.61 28.4149 56.6 28.1949 56.49C28.4149 56.53 28.3549 56.41 27.8449 56.21L28.2249 56.24L27.2049 56.01C26.5349 55.58 25.3749 55.0999 25.1449 54.8399C25.1149 54.8799 23.7549 53.8899 23.3349 53.8099C23.6749 53.9199 22.9049 53.39 23.1949 53.44C22.7849 53.28 21.7149 52.54 21.3849 52.14L21.4649 52.19C20.1449 50.84 18.9949 50.06 18.1449 48.57C18.0949 48.7 17.6349 47.93 17.6349 48.19C17.0749 47.5 16.7849 46.73 16.5049 46.13C16.2749 45.5 16.0749 45.03 15.7349 44.82C15.4349 44.07 15.5449 43.87 15.4349 43.47L15.5149 43.65C15.2549 42.94 15.1749 42.4599 15.0749 42.0299C14.9849 41.5999 14.8949 41.22 14.8549 40.66C14.7749 40.11 14.4749 40.04 14.5349 39.02C14.6249 39.34 14.6049 38.93 14.6049 38.55C14.6249 38.79 14.6549 38.8599 14.7049 38.3699C14.6749 38.2999 14.6649 38.1899 14.6449 38.0899C14.6449 38.0899 14.6549 38.07 14.6649 38.08C14.6449 37.45 14.6449 37.56 14.5949 37.85C14.5849 37.83 14.5649 37.85 14.5449 37.95C14.6949 37.3 14.6849 36.13 14.8549 36.07C15.1049 34.2 15.3949 32.86 15.9249 31.36C16.0549 31.22 15.9849 31.5999 15.8549 32.0299C15.9749 31.6799 16.0949 31.32 16.2649 30.99C16.3449 31.04 16.0449 31.59 15.9549 31.93C16.2449 31.33 16.5549 30.7299 16.8149 30.0599C17.1449 29.4299 17.4549 28.74 17.9949 28.17L18.1249 27.86L18.1949 27.79C18.1949 27.79 18.3149 27.45 18.4449 27.25C18.6549 27.13 18.5849 27.38 19.1049 26.82C19.3449 26.63 19.6149 26.29 19.9249 25.96C20.2349 25.64 20.5849 25.28 20.8549 25C20.5249 25.27 20.5949 25.14 20.7149 25C20.9949 24.73 21.2549 24.7 21.4649 24.49L21.5649 24.57C21.3749 24.57 22.2949 23.85 22.4149 23.77C22.5349 23.76 22.4149 23.85 22.2549 23.95C22.1049 24.07 21.9349 24.2199 21.9149 24.2799C22.5249 23.8099 22.7349 23.78 22.8849 23.66C23.0549 23.58 23.2049 23.44 23.8949 23.11C24.6149 22.7 23.7049 23.06 24.0249 22.8C24.3549 22.64 24.6849 22.4699 25.0249 22.3099C25.3749 22.1799 25.7549 22.07 26.1749 21.98L25.8849 21.95C26.5349 21.68 27.0849 21.57 27.5849 21.49C28.0849 21.4 28.5249 21.36 29.0049 21.41C30.2949 21.16 31.3249 21.19 32.1149 21.13C32.9049 21.16 33.4549 21.16 33.8249 21.14C34.5649 21.11 34.5249 20.9899 34.1749 20.8099C33.8049 20.6499 33.0849 20.4599 32.4449 20.3099C32.1349 20.2199 31.8249 20.21 31.6149 20.18C31.3949 20.16 31.2549 20.14 31.2549 20.14C30.1649 19.97 29.1849 20.06 28.2649 20.11C27.3549 20.28 26.4849 20.38 25.6449 20.71C23.9449 21.25 22.2149 22.11 20.1849 23.74L20.1549 23.77Z" fill="#8E8E8E"/>
<path d="M34.7051 21.1797L34.7251 21.2197C34.7251 21.2197 34.7151 21.1797 34.7051 21.1797Z" fill="#8E8E8E"/>
<path d="M35.0848 22.5704C35.0848 22.5704 35.1948 22.8204 35.1948 22.7304C35.2148 22.7404 35.2148 22.6904 35.2148 22.6604C35.1748 22.5004 35.2348 22.6604 35.1948 22.5104L35.2248 22.6004C35.2248 22.6004 35.2048 22.5204 35.2248 22.5704V22.6004C35.2248 22.5304 35.2248 22.5704 35.2248 22.5304V22.5604V22.5504V22.5904C35.2248 22.5104 35.2248 22.5104 35.2448 22.5404L35.2148 22.4304C35.2648 22.5504 35.2048 22.3204 35.2548 22.4604V22.4904C35.1948 22.1904 35.3348 22.6904 35.2748 22.4004C35.2748 22.4404 35.2948 22.4604 35.2948 22.4804C35.2948 22.4504 35.2948 22.4304 35.2348 22.2104C35.2348 22.2104 35.2548 22.2804 35.2848 22.3604C35.2548 22.2604 35.2548 22.2204 35.2548 22.2204V22.2604L35.2648 22.2204L35.2148 22.0404C35.2348 22.0904 35.2748 22.2604 35.2748 22.2204L35.2348 22.0704C35.2348 22.0704 35.3148 22.3204 35.3548 22.4304C35.4048 22.4904 35.3348 22.0904 35.4348 22.3504L35.4648 22.4604C35.5048 22.6304 35.4048 22.2104 35.4448 22.3704L35.4248 22.2904C35.4248 22.2904 35.4448 22.3504 35.4548 22.3904C35.4548 22.3904 35.4548 22.3704 35.4448 22.3204L35.4748 22.4204C35.5048 22.5004 35.4748 22.3004 35.4948 22.3304C35.5648 22.5404 35.5448 22.3304 35.5348 22.2204C35.4948 21.9704 35.6948 22.6204 35.6448 22.3304C35.6448 22.3504 35.6448 22.3004 35.6448 22.2804L35.6748 22.3004C35.6748 22.3004 35.8048 22.3304 35.3648 20.9804V20.9404C35.3248 20.8604 35.3048 20.8404 35.3448 21.0204C35.2848 20.8004 35.3248 21.0004 35.3048 20.9304V20.9104C35.3348 21.0804 35.2448 20.7704 35.2748 20.9304C35.2748 20.9104 35.2548 20.8504 35.2548 20.8504C35.2548 20.8804 35.2548 20.9304 35.2248 20.8004C35.2248 20.8404 35.1848 20.7804 35.2248 20.9904V20.9504C35.2448 21.0904 35.2248 20.9704 35.2248 21.0504C35.2248 21.0304 35.2248 21.0204 35.2248 21.0204C35.2548 21.1604 35.2148 21.0504 35.2248 21.1104L35.2048 21.0204V21.0404V21.0604C35.2648 21.3004 35.1548 20.9104 35.1948 21.0604C35.1748 21.0304 35.3048 21.5604 35.2748 21.4404C35.3048 21.5504 35.2348 21.2604 35.2448 21.3504C35.2148 21.2304 35.2248 21.2704 35.1948 21.1704C35.2048 21.2304 35.1548 21.0504 35.1648 21.1304L35.1348 21.0304C35.1748 21.2104 35.0848 20.9104 35.1248 21.0804C35.1348 21.1604 35.0448 20.8004 35.0848 20.9904L35.0448 20.8604C35.0448 20.8604 35.0848 21.0204 35.0648 20.9604C35.0448 20.8804 35.0448 20.9004 35.0248 20.8204C34.9848 20.6904 35.0548 21.0104 34.9848 20.7904C35.0248 20.9504 34.9848 20.8604 35.0248 20.9804C35.0048 20.9104 35.0048 20.9804 34.9748 20.8204C34.9748 20.8104 34.9748 20.8104 34.9748 20.8404L34.9548 20.7504C34.8948 20.5704 34.9648 20.8504 34.9548 20.8304C34.9648 20.8604 34.9648 20.8504 34.9848 20.9204H34.9748L34.9548 20.8304L34.9348 20.7904L34.9648 20.8904C34.9648 20.8904 34.8948 20.6704 34.9348 20.8204C34.9548 20.9004 34.9748 20.9504 34.9748 20.9804C34.9548 20.9104 34.9148 20.8204 34.8948 20.7904C34.9248 20.9004 34.9248 20.9004 34.9248 20.9204L34.8948 20.8204C34.9248 20.9604 34.8348 20.6104 34.8548 20.7204L34.8348 20.6504L34.8848 20.8504C34.9248 21.0404 34.8248 20.6504 34.8848 20.9104C34.8848 20.8904 34.9448 21.1204 34.9248 21.0804L34.9048 20.9904C34.9048 20.9904 34.9148 21.0504 34.9048 21.0304C34.8948 20.9804 34.8648 20.9004 34.8648 20.9104L34.8348 20.7904L34.8748 20.9604C34.8448 20.8604 34.8748 20.9904 34.8348 20.8604C34.8348 20.8604 34.8048 20.8004 34.8348 20.9404C34.8048 20.8504 34.7948 20.8204 34.7648 20.7104C34.7848 20.8104 34.8048 20.9004 34.7648 20.7904C34.7248 20.6704 34.7848 20.9304 34.7348 20.8004C34.7648 20.9104 34.7448 20.8504 34.7848 20.9904C34.8148 21.1304 34.6848 20.7104 34.8048 21.1504C34.8048 21.1804 34.7648 21.0504 34.7648 21.0304V21.0104C34.7648 21.0104 34.7648 21.0504 34.7448 21.0504C34.7448 21.0904 34.8148 21.3004 34.7848 21.2504C34.7648 21.1704 34.7648 21.1804 34.7648 21.1804C34.7648 21.1704 34.7648 21.1404 34.7348 21.0804C34.7348 21.1104 34.7348 21.1204 34.7448 21.1304C34.7448 21.1304 34.7448 21.1204 34.7448 21.1104C34.7448 21.1404 34.7548 21.1704 34.7648 21.1804C34.7648 21.1904 34.7648 21.2104 34.7848 21.2304C34.7548 21.1304 34.7748 21.2404 34.7348 21.1004C34.7348 21.1404 34.7648 21.2804 34.7648 21.3404C34.7448 21.2704 34.7248 21.2004 34.7248 21.1804V21.2104C34.6948 21.1104 34.7148 21.1504 34.7048 21.1304C34.6448 20.9704 34.7348 21.3004 34.6848 21.1504L34.7048 21.2304C34.7048 21.2304 34.7348 21.3204 34.7348 21.3304C34.7048 21.2404 34.6748 21.1204 34.6748 21.1304C34.6448 21.0404 34.6748 21.1804 34.6748 21.2304C34.6748 21.2404 34.6948 21.2904 34.7048 21.3304C34.7048 21.3304 34.6748 21.2404 34.6848 21.2804L34.6448 21.1604C34.6748 21.2704 34.6748 21.2804 34.6848 21.3304C34.6648 21.2404 34.6648 21.2504 34.6448 21.1804C34.6448 21.1904 34.6448 21.1804 34.6348 21.2004C34.6648 21.2904 34.6648 21.3104 34.6948 21.4204C34.6948 21.4404 34.7148 21.5304 34.6948 21.4604L34.7248 21.5704C34.7448 21.6604 34.7248 21.6504 34.6948 21.5404C34.8848 22.4304 35.0348 22.7404 35.0348 22.7404C35.1248 22.9704 35.0448 22.6504 35.0548 22.5604L35.0848 22.5704Z" fill="#8E8E8E"/>
<path d="M34.9157 20.9208C34.9157 20.8608 34.9657 20.6508 34.9157 20.7308C34.9157 20.7108 34.8857 20.7508 34.8657 20.7808C34.8157 20.9408 34.8457 20.7808 34.8057 20.9108L34.8357 20.8208C34.8357 20.8208 34.8057 20.9008 34.8157 20.8508V20.8208C34.7957 20.8908 34.8157 20.8508 34.7957 20.8808V20.8508V20.8608V20.8208C34.7757 20.8908 34.7757 20.8908 34.7757 20.8608L34.7457 20.9708C34.7757 20.8408 34.6957 21.0708 34.7357 20.9208V20.8908C34.6357 21.1808 34.7857 20.6808 34.6857 20.9608C34.6957 20.9308 34.7057 20.9008 34.7157 20.8808C34.6957 20.9108 34.6857 20.9208 34.6157 21.1408C34.6157 21.1408 34.6357 21.0708 34.6557 20.9908C34.6257 21.0908 34.6057 21.1208 34.6057 21.1308V21.0908V21.1208L34.5557 21.3008C34.5657 21.2508 34.6257 21.0808 34.6057 21.1208L34.5557 21.2708C34.5557 21.2708 34.6257 21.0108 34.6457 20.9008C34.6257 20.8208 34.4757 21.1908 34.5157 20.9208L34.5457 20.8108C34.5857 20.6408 34.4657 21.0508 34.5057 20.9008L34.4857 20.9708C34.4857 20.9708 34.5057 20.9108 34.5157 20.8708C34.5157 20.8708 34.5157 20.8908 34.4857 20.9408L34.5057 20.8408C34.5057 20.7608 34.4457 20.9508 34.4357 20.9108C34.4657 20.6908 34.3857 20.8808 34.3357 20.9908C34.2457 21.2308 34.3757 20.5608 34.2757 20.8408C34.2757 20.8208 34.2657 20.8708 34.2657 20.8908L34.2457 20.8608C34.2457 20.8608 34.1457 20.7708 33.9257 22.1808V22.2208C33.9057 22.3108 33.9157 22.3308 33.9657 22.1508C33.9157 22.3808 33.9657 22.1808 33.9657 22.2508V22.2708C34.0057 22.1008 33.9457 22.4208 33.9857 22.2708C33.9857 22.2908 33.9657 22.3508 33.9657 22.3508C33.9757 22.3208 33.9957 22.2708 33.9657 22.4108C33.9857 22.3808 33.9857 22.4408 34.0457 22.2408V22.2808C34.0757 22.1408 34.0457 22.2608 34.0657 22.1908C34.0657 22.2108 34.0657 22.2208 34.0657 22.2208C34.1057 22.0808 34.0857 22.2008 34.1057 22.1408L34.0857 22.2308V22.2108L34.1057 22.1908C34.1657 21.9508 34.0757 22.3408 34.1157 22.1908C34.1157 22.2208 34.2557 21.7008 34.2357 21.8208C34.2657 21.7108 34.1857 22.0008 34.2157 21.9208C34.1857 22.0408 34.1957 22.0008 34.1657 22.1008C34.1857 22.0408 34.1357 22.2308 34.1657 22.1508L34.1357 22.2508C34.1857 22.0808 34.1157 22.3808 34.1657 22.2108C34.1957 22.1308 34.0957 22.5008 34.1557 22.3108L34.1257 22.4408C34.1257 22.4408 34.1757 22.2808 34.1557 22.3508C34.1357 22.4308 34.1357 22.4208 34.1157 22.4908C34.0857 22.6208 34.1857 22.3108 34.1257 22.5308C34.1757 22.3708 34.1457 22.4708 34.1857 22.3508C34.1657 22.4208 34.1857 22.3608 34.1457 22.5108C34.1457 22.5208 34.1457 22.5108 34.1457 22.4908L34.1157 22.5808C34.0657 22.7608 34.1557 22.4908 34.1557 22.5108C34.1557 22.4808 34.1557 22.4908 34.1757 22.4208L34.1557 22.5108V22.5608L34.1757 22.4608C34.1657 22.5108 34.1157 22.6808 34.1657 22.5408C34.1957 22.4608 34.2057 22.4108 34.2157 22.3808C34.2057 22.4508 34.1757 22.5508 34.1757 22.5808C34.2057 22.4708 34.2057 22.4708 34.2157 22.4508L34.1857 22.5508C34.2357 22.4208 34.1257 22.7608 34.1657 22.6608L34.1457 22.7308L34.2057 22.5308C34.2757 22.3408 34.1457 22.7308 34.2357 22.4708C34.2357 22.4908 34.2957 22.2608 34.2857 22.3008L34.2557 22.3908C34.2557 22.3908 34.2757 22.3308 34.2757 22.3508C34.2557 22.4008 34.2357 22.4808 34.2457 22.4708L34.2057 22.5808L34.2657 22.4108C34.2357 22.5108 34.2857 22.3908 34.2457 22.5208C34.2457 22.5208 34.2457 22.5908 34.2857 22.4508C34.2557 22.5408 34.2457 22.5708 34.2157 22.6808C34.2457 22.5808 34.2857 22.5008 34.2557 22.6108C34.2357 22.7308 34.3257 22.4808 34.2957 22.6108C34.3357 22.5008 34.3157 22.5608 34.3557 22.4208C34.4057 22.2808 34.2857 22.7108 34.4257 22.2808C34.4357 22.2608 34.4057 22.3808 34.3957 22.4108V22.4308C34.3957 22.4308 34.4157 22.3908 34.4157 22.4108C34.4357 22.3708 34.4957 22.1708 34.4857 22.2208C34.4557 22.3008 34.4657 22.2908 34.4657 22.2908C34.4657 22.3008 34.4457 22.3308 34.4357 22.3908C34.4357 22.3708 34.4457 22.3508 34.4557 22.3408C34.4557 22.3408 34.4557 22.3508 34.4557 22.3608C34.4657 22.3308 34.4757 22.3108 34.4757 22.3008C34.4757 22.2908 34.4757 22.2708 34.4857 22.2508C34.4557 22.3608 34.4957 22.2508 34.4557 22.3908C34.4757 22.3608 34.5257 22.2208 34.5557 22.1708C34.5357 22.2408 34.5157 22.3008 34.5057 22.3308L34.5257 22.3108C34.4957 22.4108 34.5057 22.3708 34.4957 22.3908C34.4557 22.5608 34.5657 22.2308 34.5257 22.3908L34.5557 22.3108C34.5557 22.3108 34.5857 22.2208 34.5957 22.2108C34.5757 22.3008 34.5357 22.4208 34.5457 22.4108C34.5257 22.5008 34.5657 22.3708 34.5857 22.3208C34.5857 22.3008 34.6057 22.2508 34.6157 22.2208C34.6157 22.2208 34.5957 22.3108 34.6157 22.2708L34.5857 22.3908C34.6157 22.2808 34.6257 22.2708 34.6457 22.2208C34.6157 22.3108 34.6257 22.3008 34.5957 22.3608C34.6057 22.3608 34.5957 22.3608 34.6157 22.3508C34.6457 22.2608 34.6457 22.2408 34.6757 22.1308C34.6857 22.1108 34.7157 22.0208 34.6957 22.1008L34.7257 21.9908C34.7557 21.9108 34.7557 21.9208 34.7257 22.0308C35.0357 21.1708 35.0757 20.8408 35.0757 20.8408C35.1157 20.6008 35.0157 20.9108 34.9657 20.9808L34.9157 20.9208Z" fill="#8E8E8E"/>
<path d="M33.445 26.0918L33.375 26.1518C33.375 26.1518 33.415 26.1518 33.445 26.0918Z" fill="#8E8E8E"/>
<path d="M31.0137 28.6921L31.0237 28.6821L31.0137 28.6621V28.6921Z" fill="#8E8E8E"/>
<path d="M32.4344 24.6517C31.9944 25.6817 31.6644 25.8917 31.4144 27.0417C31.2244 27.5717 31.1144 28.1517 31.0144 28.6917C31.1144 28.9817 30.8444 29.3817 30.9044 29.7117L30.7844 29.8017C30.8144 29.9117 30.8144 30.0417 30.7444 30.1317H30.7144C30.7544 30.2917 30.6744 30.4517 30.6944 30.5317H30.6644L30.6444 30.7117L30.6144 30.6717C30.6344 30.9517 30.5844 31.2317 30.5044 31.4617H30.6244C30.4044 31.9617 30.6244 32.1917 30.4044 32.6417H30.3744C30.5944 33.2717 30.0144 33.5517 30.2544 34.2017C30.2244 34.1217 30.1944 34.2317 30.1644 34.2217C30.1644 34.5117 30.1644 34.8117 30.3844 34.8417C30.3644 35.0517 30.2944 35.0017 30.2044 35.0217C30.3044 35.0217 30.3244 35.2117 30.3244 35.3717L30.2944 35.2917V35.7517L30.4844 35.6717C30.4144 35.9117 30.2444 35.7217 30.2844 35.9517H30.4444C30.4044 36.2917 30.1544 36.4817 30.0344 36.8117C29.9644 37.5017 30.0344 38.2117 30.1244 38.9117C30.2044 39.6117 30.2244 40.2917 30.1644 40.9417L30.0544 41.0017C29.8844 41.0417 30.3344 41.3317 30.1844 41.3917L30.2744 41.5317C30.2744 41.5317 30.2244 41.6617 30.1744 41.5917C30.1744 41.7317 30.2044 41.7317 30.2644 41.8217L30.1744 41.9817C30.1244 42.5317 30.3944 42.9717 30.4444 43.5317C30.3244 44.2417 30.7144 45.4917 31.0144 46.1917C31.2544 46.6717 31.2544 47.2517 31.2944 47.8217C31.3544 48.3917 31.4144 48.9717 31.7044 49.4417C31.6944 49.4817 31.7644 49.5517 31.7844 49.5417C31.8744 49.8517 31.9344 50.1817 32.0544 50.4817C32.0544 50.4817 32.4444 51.6017 32.8544 52.2317C33.2644 52.8717 33.6544 52.9717 33.7244 51.0817H33.7644C33.6744 50.5717 33.5844 50.2617 33.2744 49.9917C33.4644 49.8717 33.1644 49.5817 33.2044 49.4417H33.2244C32.9644 49.1917 33.1844 48.7817 32.9544 48.5317C32.9744 48.5317 33.0344 48.5317 33.0644 48.5917C32.9744 48.3917 32.8444 48.1117 32.9644 48.0617C32.7644 47.5717 32.6544 46.8417 32.3844 46.5517H32.4244C32.2444 46.4117 32.3544 46.3217 32.2344 46.1317C32.2544 46.1117 32.2544 46.1017 32.2644 46.1017C32.0844 45.9217 32.1144 45.5017 32.0144 45.3517L32.0944 45.3217L31.9844 44.9117V45.0717C31.7444 45.0717 32.0844 44.7317 31.8944 44.4617C31.8844 44.1717 31.3044 43.9717 31.3844 43.6517C31.2544 43.5317 31.5844 43.7517 31.4644 43.5517C31.5944 43.5317 31.5544 43.6417 31.6544 43.5717C31.5644 43.3717 31.7344 43.2217 31.6144 42.9717L31.7144 42.9517C31.4744 42.6417 31.7544 42.3117 31.5744 42.1117C31.4644 41.7817 31.8444 41.8517 31.6244 41.5117L31.7444 41.3617C31.7444 41.2117 31.5744 41.2617 31.6244 41.0917C31.7044 41.0917 31.6744 40.8717 31.7644 40.9617C31.8644 40.5717 31.4944 40.2017 31.7244 39.6917C31.5544 39.5917 31.6544 39.3317 31.5244 39.2517C31.5944 39.2317 31.5244 38.7417 31.6844 39.0217C31.6944 39.0417 31.6944 39.0917 31.6644 39.0817L31.7644 39.1117C31.9444 38.8217 31.6544 38.5917 31.6744 38.3117C31.6444 38.3917 31.6544 38.5117 31.5844 38.4317V38.1717L31.6744 38.2217C31.6944 38.0917 31.6944 37.9617 31.7244 37.8317L31.6244 37.8817C31.6844 37.6917 31.8644 37.6217 31.7244 37.4117C31.6444 37.3117 31.5844 37.5917 31.5544 37.3917C31.6344 37.1317 31.7544 36.7517 31.7944 36.4317C31.6744 36.4617 31.6844 36.3717 31.6644 36.2817H31.7644C31.6344 35.9217 31.9844 36.1617 31.8944 35.8117L31.9644 35.8417L31.7644 35.7417C31.5944 35.4217 31.9844 35.5917 31.7444 35.2217C31.7444 35.3617 31.5244 35.2717 31.5744 35.1017L31.6644 35.1517C31.6544 35.0617 31.6144 35.0217 31.6444 34.9617C31.6944 35.0217 31.7844 35.0017 31.7744 34.8617L31.8844 34.9617L31.7344 34.6917C31.8544 34.5017 31.7544 34.1717 31.8944 34.1017C31.8944 34.1017 31.9944 33.6817 31.8744 33.5617C31.9544 33.6617 32.0244 33.4317 32.1244 33.5117C32.0344 33.3917 32.0044 33.0517 32.1244 32.9417V32.9717C32.3144 32.5117 32.0944 32.1217 32.3044 31.7117C32.1844 31.7117 32.2944 31.4917 32.1344 31.5217C32.0844 31.0517 32.5944 30.7717 32.1744 30.5217C32.1944 30.3117 32.3244 30.3017 32.3744 30.2017V30.2517C32.4244 29.8617 32.4644 29.7517 32.5344 29.4817C32.5344 29.3317 32.3244 29.2617 32.4344 29.0217C32.4944 29.1217 32.5044 29.0217 32.5344 28.9217C32.5344 28.9817 32.5544 29.0117 32.6444 28.9017C32.6244 28.8817 32.6144 28.8517 32.6044 28.8217C32.6044 28.8217 32.6144 28.8217 32.6244 28.8217C32.6344 28.6617 32.6044 28.6817 32.5744 28.7517C32.5644 28.7517 32.5444 28.7517 32.5144 28.7617C32.6644 28.6317 32.6244 28.3117 32.7644 28.3217C32.8644 27.8517 32.8244 27.4817 32.8944 27.0717C32.9744 27.0517 33.0144 27.1617 33.0044 27.2817L33.0644 27.0017C33.1644 27.0417 33.0744 27.1817 33.0644 27.2717C33.3244 27.0017 33.1044 26.5517 33.3944 26.2217L33.3444 26.1117L33.3644 26.0917C33.3644 26.0917 33.2944 25.9717 33.3044 25.9117C33.4144 25.8917 33.5044 25.9917 33.5644 25.8017C33.7044 25.6917 33.6644 25.3717 33.6944 25.1617C33.6344 25.2617 33.6044 25.2017 33.5944 25.1517C33.6344 25.0617 33.7344 25.0417 33.7344 24.9517L33.8544 24.9917C33.7344 24.9917 33.8344 24.7017 33.8044 24.6517C33.9144 24.6317 33.8244 24.8217 33.8744 24.8717C34.0144 24.5017 33.9444 24.6917 34.0844 24.3217C34.0844 24.0917 33.9644 24.3117 33.8944 24.1717C33.9444 23.9917 33.9344 23.7817 34.1044 23.6217H33.9744C34.0444 23.2817 34.1544 23.0917 34.3544 22.9317C34.5644 21.5617 34.3944 21.2617 34.1244 21.3317C33.8544 21.4017 33.5144 21.8517 33.5144 21.8517C32.7744 22.7117 32.8344 23.3817 32.4344 24.5917V24.6517Z" fill="#8E8E8E"/>
</svg>
