<svg width="72" height="71" viewBox="0 0 72 71" fill="none" xmlns="http://www.w3.org/2000/svg">
<path d="M62.3984 42.5247L62.4349 42.498C62.4349 42.498 62.3984 42.5158 62.3984 42.5247Z" fill="#8E8E8E"/>
<path d="M63.6094 41.7511L63.6194 41.7422L63.6094 41.7511Z" fill="#8E8E8E"/>
<path d="M63.6273 42.0716C63.6364 41.9739 63.8093 41.885 63.7092 41.8406C63.7092 41.7962 63.6455 41.7784 63.6091 41.7518C63.4634 41.7962 63.5909 41.7074 63.4544 41.734L63.5363 41.6985C63.5363 41.6985 63.4634 41.7073 63.4999 41.6896H63.5272C63.4634 41.6896 63.4907 41.6718 63.4634 41.6718H63.4907L63.4725 41.6541H63.509C63.4361 41.6541 63.427 41.6363 63.4452 41.6008L63.3451 41.6363C63.4362 41.5563 63.2359 41.6185 63.3451 41.5386H63.3724C63.0994 41.583 63.5271 41.4053 63.2632 41.4497C63.2996 41.4497 63.3178 41.432 63.336 41.4231C63.2996 41.4142 63.2814 41.3964 63.0812 41.4675C63.0812 41.4497 63.1358 41.432 63.2086 41.4053C63.1267 41.432 63.0812 41.432 63.0721 41.4231H63.1085L63.063 41.3964L62.8991 41.4586C62.8991 41.4586 63.0994 41.3875 63.0539 41.3875L62.9174 41.432C62.9174 41.432 63.1358 41.3165 63.2268 41.2632C63.2541 41.1566 62.8718 41.1566 63.0903 40.9967L63.1904 40.9611C63.336 40.9167 62.9629 40.9967 63.0994 40.9611H63.0266C63.0266 40.9611 63.0812 40.9434 63.1176 40.9434C63.1176 40.9345 63.0994 40.9434 63.0448 40.9434L63.1358 40.9078C63.1995 40.8545 63.0084 40.8723 63.0357 40.819C63.2177 40.7302 63.0175 40.6858 62.9083 40.6591C62.6625 40.6236 63.2632 40.4459 62.9902 40.4281C63.0084 40.4281 62.9629 40.4281 62.9447 40.4281L62.9629 40.3659C62.9629 40.3659 62.9629 40.3038 62.8263 40.2682C62.6807 40.2416 62.3712 40.1705 61.725 40.3748H61.6886C61.6067 40.437 61.5976 40.4725 61.7705 40.4903C61.5612 40.517 61.7523 40.5347 61.6886 40.5525H61.6704C61.8342 40.5614 61.543 40.6324 61.6886 40.6413C61.6704 40.6413 61.6158 40.6502 61.6067 40.6413C61.634 40.6591 61.6886 40.6769 61.5703 40.7035C61.6067 40.7479 61.5703 40.8368 61.7614 40.8279H61.725C61.8615 40.8279 61.7523 40.8545 61.816 40.8545C61.7978 40.8545 61.7887 40.8545 61.7887 40.8545C61.9162 40.8545 61.8161 40.9078 61.8798 40.9078L61.7979 40.9256L61.8252 40.9611V40.9434C62.0527 40.8989 61.7068 41.0055 61.8525 40.9967C61.8343 41.0322 62.3166 40.9345 62.2165 40.9878C62.3166 40.97 62.0527 41.0144 62.1346 41.0144C62.0254 41.0411 62.0618 41.0233 61.9708 41.05C62.0254 41.05 61.8616 41.1033 61.9435 41.1122L61.8525 41.1388C62.0163 41.121 61.7523 41.2188 61.9071 41.201C61.989 41.2099 61.6522 41.2898 61.8343 41.2721L61.7159 41.3165C61.7159 41.3165 61.8616 41.2809 61.807 41.3165C61.7342 41.3343 61.7523 41.352 61.6795 41.3609C61.5703 41.432 61.8616 41.3787 61.6795 41.4764C61.8252 41.4408 61.7433 41.4941 61.8616 41.4675C61.7979 41.4853 61.8615 41.5119 61.725 41.5297C61.7159 41.5297 61.7159 41.5297 61.7341 41.5208L61.6522 41.5475C61.4975 41.6185 61.7523 41.5652 61.7341 41.6008C61.7614 41.583 61.7524 41.5741 61.807 41.5652V41.5919L61.7341 41.6096L61.7068 41.6541L61.7979 41.6185C61.7979 41.6185 61.6067 41.7074 61.7432 41.6807C61.8161 41.6629 61.8525 41.6274 61.8889 41.6363C61.8343 41.6807 61.7614 41.7429 61.7432 41.7784C61.8434 41.7429 61.8434 41.7518 61.8616 41.7518L61.7797 41.7784C61.9071 41.7695 61.5976 41.8495 61.6977 41.8495L61.634 41.8673L61.816 41.814C61.9981 41.7784 61.6431 41.8939 61.8889 41.8406C61.8707 41.8406 62.0709 41.7696 62.0436 41.7962L61.9617 41.8229C61.9617 41.8229 62.0163 41.8229 61.9981 41.8229C61.9526 41.8317 61.8798 41.8584 61.898 41.8673L61.7887 41.8939L61.9435 41.8584C61.8616 41.9028 61.9799 41.8939 61.8707 41.9383C61.8707 41.9383 61.8252 41.9916 61.9617 41.9561C61.8798 41.9739 61.8616 42.0094 61.7614 42.0361C61.8525 42.0094 61.9344 42.0094 61.8434 42.0627H61.8343C61.7524 42.1427 61.989 42.0805 61.8889 42.1604C61.989 42.1249 61.9435 42.1604 62.0618 42.1071C62.1983 42.0982 61.8343 42.2759 62.2256 42.1338C62.2529 42.1338 62.1437 42.1871 62.1255 42.2048H62.1073C62.1073 42.2048 62.1619 42.2315 62.1619 42.2581C62.2074 42.2581 62.3803 42.1871 62.353 42.2226C62.2802 42.2404 62.2984 42.2493 62.2984 42.2581C62.2893 42.2581 62.262 42.2582 62.2165 42.2937C62.2438 42.2937 62.2529 42.2848 62.262 42.2759C62.262 42.2759 62.2529 42.2759 62.2438 42.2759C62.2711 42.2759 62.2984 42.2759 62.2984 42.2581C62.3075 42.2581 62.3258 42.2493 62.344 42.2404C62.262 42.2937 62.3621 42.2759 62.2438 42.3292C62.2893 42.3559 62.4259 42.3292 62.4896 42.3381C62.4259 42.3647 62.3713 42.3825 62.344 42.3825H62.3803C62.2893 42.4358 62.3257 42.4003 62.2984 42.4003C62.1619 42.4891 62.4714 42.4003 62.344 42.4802L62.4168 42.4536H62.4076C62.4076 42.4536 62.4987 42.4269 62.5169 42.4269C62.4441 42.4625 62.3348 42.5069 62.353 42.5158C62.2802 42.5602 62.4077 42.5335 62.4532 42.5335C62.4623 42.5158 62.5078 42.5069 62.5351 42.498C62.5351 42.498 62.4623 42.5424 62.4987 42.5335L62.3986 42.5779C62.4987 42.5335 62.5169 42.5513 62.5624 42.5335C62.4896 42.5691 62.4896 42.5513 62.435 42.5779C62.4623 42.6046 62.4441 42.5868 62.4714 42.6135C62.5533 42.5957 62.5715 42.5691 62.6625 42.5335C62.6898 42.5335 62.7717 42.5158 62.7171 42.5602L62.8081 42.5158C62.89 42.5158 62.89 42.5335 62.8081 42.5868C63.6455 42.418 63.8457 42.1427 63.8457 42.1427C64.0186 41.9827 63.7365 42.0716 63.6182 42.0183L63.6273 42.0716Z" fill="#8E8E8E"/>
<path d="M68.5879 30.7793L68.6061 30.8237C68.6061 30.8237 68.6061 30.7882 68.5879 30.7793Z" fill="#8E8E8E"/>
<path d="M70.6096 31.5547H70.5996V31.5733L70.6096 31.5547Z" fill="#8E8E8E"/>
<path d="M67.5959 31.7491C67.8871 31.9179 68.0601 32.06 68.2967 32.1666C68.5151 32.2733 68.7882 32.3799 69.2979 32.2999C69.5345 32.2999 69.8076 32.1933 70.0533 32.0689C70.2718 31.9268 70.4902 31.7403 70.6085 31.5537C70.6267 31.2961 70.9362 31.0829 70.8725 30.843L70.9817 30.7986C70.9635 30.7186 70.9817 30.6298 71.0363 30.5765H71.0636C71.0181 30.4788 71.0818 30.3811 71.0636 30.3278H71.0909L71.1 30.2212L71.1273 30.2478C71.1 30.0701 71.1273 29.9102 71.1546 29.777H71.0454C71.1819 29.4927 70.9908 29.3683 71.1182 29.1285H71.1455C70.8543 28.8175 71.3367 28.6132 71.0454 28.3023C71.0818 28.3378 71.1 28.2845 71.1273 28.2845C71.0818 28.1335 71.0545 27.9736 70.8452 28.0003C70.8361 27.8936 70.8998 27.9025 70.9726 27.8759C70.8816 27.8848 70.8361 27.7959 70.8179 27.716L70.8543 27.7515C70.8361 27.6715 70.8179 27.5916 70.7815 27.5116L70.6267 27.5916C70.645 27.4494 70.827 27.5205 70.7542 27.405L70.6176 27.4317C70.6176 27.2451 70.7815 27.0852 70.8088 26.8365C70.7542 26.7032 70.7268 26.6055 70.5812 26.4278L70.4811 26.3212C70.4356 26.2768 70.3628 26.2235 70.29 26.188C70.1716 26.108 69.9714 26.0458 69.7439 26.0636C69.5437 26.0725 69.4162 26.1524 69.2706 26.2324C69.1887 26.3035 69.1159 26.3745 69.0522 26.4545C68.9702 26.5789 68.8974 26.7121 68.861 26.8187C68.6972 27.2629 68.6517 27.6182 68.4696 27.9558L68.3604 27.9736C68.1966 27.9736 68.5607 28.1957 68.415 28.2134L68.4788 28.3023C68.4788 28.3023 68.415 28.3734 68.3877 28.3289C68.3786 28.4089 68.3968 28.4089 68.4423 28.4622L68.3422 28.5421C68.2512 28.8442 68.4423 29.1018 68.4423 29.4127C68.2694 29.8214 68.6244 30.5232 68.8974 30.8608C69.1159 31.0917 69.1796 31.4027 69.2979 31.7314C69.4071 32.0512 69.5983 32.3799 69.935 32.4954C69.935 32.522 70.0078 32.522 70.0169 32.5131C70.1717 32.6286 70.3173 32.7619 70.4902 32.8685C70.4902 32.8685 70.645 32.9662 70.8543 33.055C71.0727 33.1261 71.3458 33.2149 71.5733 33.1972C71.8008 33.1883 71.9556 33.1172 71.9647 32.9395C71.9829 32.753 71.819 32.4953 71.5733 32.06L71.5915 32.0334C71.4095 31.8824 71.3185 31.7936 71.0818 31.8557C71.1728 31.6781 70.9453 31.7314 70.9362 31.6514H70.9544C70.736 31.6869 70.827 31.3671 70.6358 31.3849C70.654 31.3849 70.6904 31.3405 70.7177 31.3583C70.6267 31.3227 70.5175 31.2517 70.5994 31.1628C70.4265 31.0296 70.3173 30.7364 70.0806 30.7009H70.117C69.9623 30.6742 70.0442 30.612 69.9441 30.5498C69.9532 30.541 69.9623 30.5321 69.9714 30.5321C69.8167 30.4965 69.844 30.2833 69.7712 30.23L69.844 30.2034L69.7712 30.0257V30.0968C69.5528 30.1323 69.8713 29.9191 69.6984 29.8214C69.6984 29.697 69.1978 29.6348 69.2797 29.466C69.1705 29.4127 69.4526 29.5105 69.3616 29.4127C69.4799 29.395 69.4344 29.4483 69.5254 29.4127C69.4617 29.3239 69.6256 29.2439 69.5437 29.1285H69.6346C69.4617 28.9686 69.7439 28.8264 69.5891 28.7287C69.5254 28.5688 69.8622 28.631 69.6893 28.4622L69.8167 28.4089C69.844 28.3467 69.6711 28.3467 69.7348 28.2756C69.8076 28.2845 69.8076 28.1868 69.8713 28.2401C70.0169 28.1068 69.753 27.867 70.0169 27.7248C69.8804 27.636 69.9987 27.5738 69.9077 27.5116C69.9714 27.5116 69.9896 27.3517 70.0806 27.4939C70.0806 27.5028 70.0806 27.5205 70.0533 27.5116L70.1353 27.5561C70.2263 27.5383 70.2263 27.5205 70.199 27.4672C70.1899 27.4406 70.1717 27.4317 70.1626 27.4139C70.1261 27.3873 70.199 27.4228 70.0715 27.3251C70.0806 27.3251 70.1444 27.3784 70.1353 27.3784H70.1261C70.1261 27.3784 70.1079 27.3695 70.0806 27.3428C70.0715 27.334 70.1261 27.3428 70.0624 27.3162C70.0169 27.2807 69.9714 27.2451 69.935 27.1918L69.9896 27.2451C69.8531 27.0941 69.7985 26.9964 69.8076 26.952C69.8076 26.952 69.8076 26.9342 69.8076 26.952C69.8076 26.952 69.8076 26.9253 69.7985 26.9697C69.7712 27.0497 69.7621 27.0319 69.6438 27.1474C69.5345 27.2629 69.844 26.9342 69.6165 27.1741C69.58 27.2096 69.5346 27.2451 69.489 27.2718C69.4526 27.2984 69.4617 27.2718 69.4435 27.2807L69.4162 27.3517C69.4162 27.3517 69.3889 27.4672 69.3889 27.5205C69.489 27.485 69.489 27.5205 69.5254 27.5383L69.4344 27.5649C69.5891 27.6804 69.2524 27.6627 69.3798 27.7782H69.3161H69.5072C69.7075 27.8848 69.3343 27.8759 69.5983 28.0003C69.571 27.9381 69.7894 27.9469 69.7621 28.0269H69.6711C69.6711 28.0269 69.7348 28.0713 69.7166 28.098C69.662 28.0802 69.5891 28.098 69.6073 28.1601L69.489 28.1335C69.5528 28.169 69.6073 28.2046 69.662 28.2401C69.58 28.3467 69.7075 28.4888 69.5891 28.5332C69.5891 28.5332 69.5345 28.7376 69.6711 28.782C69.5891 28.7465 69.5527 28.8531 69.4617 28.8264C69.5618 28.8708 69.6347 29.0307 69.5345 29.0929H69.5254C69.4344 29.3061 69.6529 29.466 69.5163 29.6437C69.6256 29.6437 69.5527 29.7414 69.6893 29.7325C69.7985 29.9635 69.3525 30.0079 69.753 30.1767C69.753 30.2744 69.6347 30.2478 69.5983 30.2745L69.58 30.2478C69.5527 30.3811 69.5527 30.4344 69.4981 30.5143C69.5072 30.5676 69.662 30.6742 69.571 30.7275C69.5254 30.6564 69.5163 30.692 69.4981 30.7275C69.4981 30.7009 69.4799 30.6831 69.4253 30.6831C69.4435 30.7009 69.4435 30.7186 69.4435 30.7275H69.4253C69.4253 30.7275 69.4253 30.7719 69.4526 30.763C69.4526 30.763 69.4708 30.7808 69.489 30.7897C69.3798 30.7453 69.3889 30.8785 69.3161 30.7719C69.2433 30.8341 69.1705 30.994 68.9975 31.0473C68.9793 30.9763 69.0249 30.9318 69.0613 30.8963C69.034 30.9141 68.9975 30.9141 68.9611 30.9141C68.9611 30.8164 69.0249 30.8696 69.0522 30.843C68.9611 30.6831 68.7882 30.9763 68.6517 30.7897L68.5971 30.8519V30.8341C68.5971 30.8341 68.5242 30.9141 68.4969 30.9141C68.4969 30.8252 68.5607 30.7364 68.4879 30.7097C68.4606 30.6031 68.2967 30.6831 68.1875 30.6742C68.2239 30.7097 68.1875 30.7453 68.1602 30.763C68.1147 30.7453 68.1329 30.6564 68.0874 30.6742L68.1329 30.5765C68.0965 30.6742 67.9691 30.6209 67.9326 30.6564C67.9509 30.5765 68.0328 30.6298 68.0783 30.5765C67.9144 30.5054 67.9964 30.5409 67.8325 30.4521C67.696 30.4699 67.787 30.5498 67.696 30.612C67.605 30.5854 67.4867 30.6031 67.4321 30.4788L67.4048 30.5765C67.2136 30.5321 67.1317 30.4699 67.1044 30.31C66.3217 30.2034 66.0668 30.31 66.0213 30.5232C65.9758 30.7186 66.1487 30.9762 66.1487 30.9762C66.4764 31.527 66.9133 31.4915 67.5959 31.7669V31.7491Z" fill="#8E8E8E"/>
<path d="M66.9596 31.9453L66.9141 31.9809C66.9141 31.9809 66.9505 31.9808 66.9596 31.9453Z" fill="#8E8E8E"/>
<path d="M65.4388 33.1612H65.4479L65.4297 33.1523L65.4388 33.1612Z" fill="#8E8E8E"/>
<path d="M65.6754 31.4732C65.6026 31.9174 65.4114 32.024 65.4478 32.4859C65.4114 32.6992 65.4478 32.939 65.4478 33.1522C65.5935 33.2677 65.4205 33.4276 65.5297 33.5609L65.4387 33.5964C65.4751 33.6408 65.5024 33.6941 65.4478 33.7296H65.4205C65.4751 33.7918 65.4296 33.8629 65.466 33.8895H65.4387V33.9606L65.4023 33.9428C65.4569 34.0583 65.4478 34.1738 65.4023 34.2627H65.5115C65.3659 34.4581 65.5661 34.5647 65.4023 34.7335H65.375C65.6207 35.0089 65.1292 35.0711 65.3386 35.3554C65.3113 35.3198 65.284 35.3554 65.2567 35.3554C65.2567 35.4709 65.2567 35.5952 65.466 35.6308C65.4478 35.7107 65.3932 35.6841 65.3113 35.6841C65.4023 35.7018 65.4205 35.7818 65.4205 35.844L65.3932 35.8084V35.995H65.557C65.4842 36.0838 65.3477 35.9772 65.3659 36.0749L65.5024 36.1016C65.4478 36.2348 65.2203 36.2615 65.0837 36.3681C64.9017 36.8833 65.0837 37.5407 64.6924 37.9583H64.5832C64.4284 37.9138 64.7652 38.1537 64.6196 38.1271L64.6651 38.207C64.6651 38.207 64.5923 38.2337 64.5741 38.207C64.5467 38.2603 64.5741 38.2692 64.6014 38.3136L64.4921 38.3403C64.3465 38.5179 64.4648 38.7489 64.3465 38.9443C64.0644 39.122 64.0371 39.655 64.0006 39.9659C64.028 40.4457 63.2543 40.5878 63.2725 41.0675C63.2452 41.0675 63.2725 41.1208 63.2907 41.1297C63.2179 41.2363 63.1451 41.3429 63.0632 41.4406C63.0632 41.4406 62.7992 41.8226 62.7355 42.1336C62.69 42.4445 62.8448 42.7554 63.8277 42.4978L63.8459 42.5244C64.0462 42.3823 64.1372 42.2668 64.0826 42.0447C64.2737 42.1336 64.21 41.8937 64.2919 41.8848H64.301C64.2373 41.6983 64.565 41.716 64.5104 41.5295C64.5195 41.5384 64.5741 41.5739 64.5559 41.6006C64.5832 41.5028 64.6105 41.3607 64.7197 41.414C64.8107 41.1919 65.0109 40.9254 64.9017 40.7033L64.929 40.73C64.8562 40.5967 64.9563 40.6233 64.9381 40.5079C64.9563 40.5079 64.9654 40.5079 64.9745 40.5079C64.8926 40.3657 65.0746 40.2591 65.0564 40.1614L65.1293 40.188L65.193 40.0104L65.1475 40.0637C64.9563 39.9571 65.3386 39.9926 65.2567 39.8149C65.3295 39.7083 64.929 39.4063 65.0747 39.3352C65.0018 39.2464 65.2112 39.4418 65.1748 39.3352C65.284 39.3707 65.2294 39.3974 65.3204 39.4152C65.3022 39.3086 65.4933 39.3174 65.4569 39.1931L65.5388 39.2197C65.4296 39.0243 65.7482 38.9976 65.6298 38.8555C65.6116 38.6867 65.9211 38.8466 65.8028 38.6423L65.9393 38.6245C65.9848 38.5712 65.8119 38.5357 65.8938 38.4824C65.9666 38.509 65.9848 38.4113 66.0394 38.4824C66.2033 38.358 65.9757 38.1093 66.2397 37.9494C66.1122 37.8605 66.2306 37.7806 66.1305 37.7184C66.1942 37.7273 66.2033 37.5052 66.3034 37.6651C66.3034 37.6829 66.3034 37.7006 66.2761 37.6917L66.358 37.7273C66.5491 37.6473 66.3307 37.4785 66.3853 37.363C66.3489 37.3897 66.3398 37.443 66.2943 37.3986L66.3398 37.292L66.4035 37.3364L66.4945 37.1765H66.3944C66.4581 37.1054 66.6219 37.1143 66.5218 36.99C66.4581 36.9278 66.3853 37.0432 66.3762 36.9455C66.4672 36.8478 66.5946 36.7057 66.6492 36.5724C66.54 36.5724 66.5582 36.528 66.5491 36.4836L66.6401 36.5013C66.5491 36.3237 66.8495 36.4836 66.7858 36.3148L66.8404 36.3414L66.6674 36.2615C66.5218 36.0927 66.8677 36.2259 66.6583 36.0305C66.6583 36.0927 66.4581 36.0216 66.5127 35.9594L66.5946 35.995C66.5946 35.995 66.5491 35.9328 66.5764 35.9061C66.6219 35.9417 66.6947 35.9417 66.6947 35.8795L66.7949 35.9417L66.6583 35.7995C66.7676 35.7285 66.6765 35.5686 66.804 35.5597C66.804 35.5597 66.895 35.382 66.7767 35.3198C66.8495 35.3731 66.9041 35.2754 66.9951 35.3198C66.9132 35.2576 66.8586 35.0977 66.9678 35.0622H66.9769C67.1134 34.8756 66.895 34.6891 67.0406 34.5203C66.9314 34.5203 67.0042 34.4226 66.8677 34.4315C66.7676 34.2183 67.1862 34.1028 66.7767 33.9873C66.7676 33.8984 66.8859 33.8896 66.9132 33.8451L66.9314 33.8718C66.9132 33.703 66.9223 33.6497 66.9405 33.5253C66.9041 33.4631 66.7129 33.4276 66.7767 33.321C66.8495 33.3654 66.8404 33.321 66.8404 33.2766C66.8404 33.3032 66.8768 33.3121 66.9314 33.2677C66.9041 33.2588 66.895 33.2411 66.8859 33.2322C66.8859 33.2322 66.895 33.2322 66.9041 33.2322C66.8859 33.1611 66.8586 33.17 66.8404 33.2055C66.8313 33.2055 66.8131 33.2055 66.7949 33.2055C66.895 33.1433 66.804 33.0012 66.9405 33.0101C66.9223 32.7969 66.804 32.637 66.7675 32.4682C66.8404 32.4504 66.895 32.4948 66.9132 32.5481L66.895 32.4238C66.9951 32.4238 66.9496 32.4948 66.9587 32.5392C67.1316 32.406 66.8222 32.2283 66.9769 32.0684L66.9041 32.0329H66.9132C66.9132 32.0329 66.8222 31.9796 66.804 31.9529C66.8859 31.9352 66.9951 31.9618 66.9951 31.8819C67.077 31.8197 66.9587 31.6864 66.9223 31.5976C66.9041 31.642 66.8586 31.6242 66.8313 31.5976C66.8313 31.5532 66.9132 31.5354 66.8768 31.4998H66.9951C66.8859 31.5087 66.8859 31.3844 66.8404 31.3666C66.9223 31.3488 66.9132 31.4377 66.9769 31.4465C66.9769 31.2778 66.9769 31.3577 66.9769 31.1889C66.895 31.1001 66.8677 31.2067 66.7675 31.1534C66.7493 31.0734 66.6674 30.9935 66.7402 30.9047L66.6401 30.9313C66.5673 30.7803 66.5764 30.6914 66.6765 30.5937C65.8665 29.4833 65.5479 30.3539 65.5479 30.3539C65.3113 30.7803 65.6208 31.0024 65.6663 31.5087L65.6754 31.4732Z" fill="#8E8E8E"/>
<path d="M35.0098 20.3848L35.1281 20.4114C35.1281 20.4114 35.0917 20.3848 35.0098 20.3848Z" fill="#8E8E8E"/>
<path d="M39.3802 21.2031H39.3711L39.3438 21.212L39.3802 21.2031Z" fill="#8E8E8E"/>
<path d="M33.9551 21.8775C35.3749 21.6643 35.7754 21.7976 37.2317 21.5044C37.9325 21.4333 38.6788 21.2823 39.3705 21.2024C39.68 21.0247 40.2716 21.1047 40.6539 20.9536L40.8086 21.0247C40.936 20.9714 41.0907 20.927 41.2364 20.9625V20.9892C41.4275 20.9092 41.655 20.927 41.7461 20.8915V20.9181L41.9827 20.8915L41.9463 20.927C42.2922 20.8382 42.6471 20.8204 42.9657 20.8293L42.9384 20.7315C43.621 20.8026 43.8667 20.5983 44.4857 20.7138V20.7404C45.2502 20.4384 45.7053 20.9092 46.5062 20.6427C46.4061 20.6694 46.5517 20.696 46.5426 20.7227C46.9067 20.696 47.3071 20.696 47.3162 20.4917C47.5893 20.4917 47.5347 20.5628 47.5711 20.6427C47.5711 20.5539 47.8077 20.5183 48.0171 20.5183L47.917 20.5539H48.5177L48.4085 20.3762C48.727 20.4384 48.4812 20.5805 48.7907 20.5539V20.4117C49.2367 20.4651 49.4824 20.6782 49.9011 20.8115C51.6486 20.9892 53.5964 20.8648 55.1528 21.4245L55.1983 21.54C55.1983 21.691 55.6806 21.4156 55.7171 21.5666L55.9173 21.54C55.9628 21.5755 56.0629 21.6288 55.9628 21.6466C56.1357 21.691 56.1448 21.6643 56.2722 21.6466L56.4361 21.7798C57.0823 22.0286 57.7012 21.9842 58.3747 22.2507C59.1483 22.6682 60.6865 23.1212 61.5421 23.5032C62.1701 23.7164 62.7162 24.1873 63.1804 24.6937C63.417 24.9513 63.6537 25.1911 63.8539 25.4576C64.0723 25.7064 64.2999 25.9285 64.5274 26.1595C64.5274 26.2039 64.6366 26.2572 64.6548 26.2483C64.9006 26.5503 65.028 26.9057 65.2191 27.2344C65.2374 27.2344 65.3465 27.5542 65.5104 27.9717C65.6105 28.176 65.6469 28.4248 65.7197 28.6646C65.8016 28.9045 65.8654 29.1443 65.9018 29.3664C66.0019 29.7928 66.1384 30.1038 66.3113 30.0327C66.3932 29.9972 66.4934 29.855 66.5935 29.5708C66.7027 29.2865 66.821 28.8512 66.8301 28.2205L66.8665 28.2471C66.8483 27.874 66.7664 27.5808 66.6572 27.3232C66.548 27.0745 66.457 26.8435 66.2385 26.6569C66.3933 26.497 65.9655 26.115 65.9473 25.9285H65.9655C65.5741 25.6531 65.5468 25.0845 65.1372 24.8447C65.1645 24.8447 65.21 24.818 65.2828 24.8891C65.0462 24.6759 64.7094 24.3916 64.7823 24.285C64.5092 24.0096 64.1452 23.7431 63.8266 23.4766C63.4807 23.2367 63.144 23.0591 62.8891 22.9969H62.9346C62.6434 22.9347 62.6252 22.8103 62.3339 22.7215C62.3339 22.7037 62.3157 22.6859 62.3157 22.6771C61.9972 22.6415 61.5603 22.2684 61.3145 22.2329L61.3327 22.1529L60.7957 21.9219L60.9869 22.0286C60.823 22.1974 60.6501 21.7088 60.195 21.691C59.831 21.5311 59.294 21.8065 58.9481 21.5933C58.7297 21.6288 59.1666 21.4867 58.8662 21.4778C58.8935 21.3712 59.0209 21.4511 58.9754 21.3445C58.6842 21.309 58.5659 21.0869 58.2109 21.0514V20.9625C57.7376 20.9892 57.4191 20.625 57.0823 20.6871C56.609 20.6338 56.8366 20.3584 56.3178 20.4117L56.1539 20.2519C55.9537 20.1897 55.9719 20.3585 55.7626 20.2519C55.7899 20.1808 55.4895 20.1275 55.6351 20.0919C55.1346 19.8698 54.552 20.0564 53.8967 19.7455C53.7238 19.8698 53.387 19.7366 53.2596 19.8254C53.2505 19.7632 52.5679 19.7188 52.9775 19.6389C53.0139 19.6389 53.0685 19.6389 53.0594 19.6655L53.114 19.5856C52.7408 19.3635 52.3858 19.5856 52.0036 19.5145C52.1128 19.5589 52.2675 19.5678 52.1583 19.6122L51.7943 19.5589L51.8762 19.4967L51.3392 19.399L51.4029 19.4967C51.148 19.4257 51.0661 19.2569 50.7567 19.3635C50.611 19.4257 50.9933 19.5056 50.7112 19.5145C50.3653 19.4257 49.8374 19.2924 49.3914 19.2391C49.4278 19.3457 49.3095 19.3368 49.1821 19.3457V19.2569C48.6906 19.3546 49.0091 19.0526 48.5267 19.1325L48.5723 19.0703L48.4358 19.248C47.9989 19.4079 48.2082 19.0437 47.7258 19.2746C47.917 19.2658 47.8077 19.4701 47.5802 19.4257L47.6439 19.3457C47.5165 19.3635 47.471 19.399 47.389 19.3812C47.4619 19.3368 47.4346 19.2569 47.2434 19.2658L47.3709 19.1592L47.0068 19.3102C46.7337 19.2124 46.2969 19.319 46.1785 19.2036C46.1785 19.2036 45.5869 19.1503 45.4504 19.2835C45.5687 19.2036 45.2411 19.168 45.3321 19.0792C45.1774 19.168 44.7314 19.248 44.5403 19.1592H44.5766C43.9031 19.0703 43.4299 19.3102 42.8292 19.2302C42.8656 19.3279 42.5379 19.2924 42.6289 19.4168C42.0191 19.5767 41.4821 19.2125 41.2819 19.6389C40.9997 19.6833 40.9451 19.5678 40.7904 19.5589L40.8541 19.5323C40.3262 19.6033 40.1806 19.6211 39.7801 19.6477C39.589 19.7099 39.5799 19.8965 39.2249 19.8876C39.3341 19.7988 39.1885 19.8343 39.0611 19.8432C39.143 19.8254 39.1703 19.7899 38.9883 19.7632C38.9701 19.7899 38.9337 19.8077 38.8972 19.8254C38.8972 19.8254 38.8881 19.8166 38.8972 19.8077C38.6788 19.8521 38.7243 19.8787 38.8244 19.8787C38.8244 19.8876 38.8244 19.9054 38.8608 19.9231C38.6242 19.8432 38.2328 20.0031 38.1873 19.8787C37.532 19.9853 37.086 20.1719 36.549 20.3051C36.4762 20.2518 36.5945 20.1719 36.7493 20.1275L36.367 20.2074C36.3579 20.1097 36.5763 20.1186 36.6946 20.0831C36.2123 20.0031 35.7754 20.3673 35.2111 20.3229L35.111 20.4117H35.0746C35.0746 20.4117 34.9744 20.5183 34.8925 20.545C34.8015 20.4739 34.8652 20.3584 34.6013 20.4029C34.3737 20.3584 34.0097 20.545 33.7457 20.6427C33.9004 20.6249 33.8549 20.6783 33.8003 20.7227C33.6729 20.7493 33.5728 20.6871 33.4818 20.7404L33.4454 20.6338C33.5182 20.7227 33.1268 20.8115 33.0813 20.8648C32.9903 20.7937 33.2724 20.7582 33.2906 20.6871C32.7627 20.8026 33.0267 20.7404 32.4988 20.8648C32.2349 21.0069 32.5716 20.9537 32.4624 21.078C32.2166 21.158 31.9982 21.2823 31.6979 21.2823L31.8071 21.3623C31.3611 21.54 31.088 21.6022 30.7513 21.5844C29.1494 22.4283 29.0766 22.757 29.3678 22.8459C29.6591 22.9436 30.3326 22.837 30.3326 22.837C31.6979 22.7037 32.3077 22.2595 33.8914 21.8686L33.9551 21.8775Z" fill="#8E8E8E"/>
<path d="M49.1093 48.2532L49.0273 48.2266C49.0273 48.2266 49.0546 48.2621 49.1093 48.2532Z" fill="#8E8E8E"/>
<path d="M46.1855 47.2062H46.1946L46.2129 47.1973L46.1855 47.2062Z" fill="#8E8E8E"/>
<path d="M49.7272 46.8413C48.7989 46.9568 48.5258 46.788 47.5883 47.0101C47.1242 47.0456 46.6418 47.1345 46.1958 47.2055C45.9956 47.3832 45.6042 47.2588 45.3585 47.401L45.2492 47.321C45.1673 47.3654 45.0672 47.401 44.9762 47.3654V47.3388C44.8488 47.4099 44.7031 47.3832 44.6394 47.4187V47.3921L44.4847 47.4098L44.512 47.3743C44.2845 47.4543 44.0478 47.4809 43.8385 47.4543L43.8567 47.5609C43.4016 47.4543 43.2469 47.6764 42.8373 47.552V47.5253C42.3367 47.8096 42.0364 47.3654 41.5085 47.6142C41.5722 47.5786 41.4812 47.5609 41.4812 47.5342C41.2354 47.5609 40.9806 47.5786 40.9715 47.783C40.7985 47.783 40.8258 47.7208 40.8076 47.6408C40.8076 47.7297 40.6529 47.7652 40.5164 47.7741L40.5801 47.7385L40.1796 47.7652L40.2524 47.934C40.0431 47.8807 40.1978 47.7297 39.9976 47.7652V47.9073C39.7063 47.8718 39.5425 47.6586 39.2604 47.5431C38.0954 47.4632 36.8211 47.7474 35.7471 47.4365L35.7107 47.3299C35.7016 47.1789 35.3922 47.5342 35.3649 47.3921L35.2375 47.4543C35.2375 47.4543 35.1282 47.3921 35.201 47.3565C35.0827 47.3388 35.0827 47.3654 34.9917 47.4098L34.8734 47.3032C34.4183 47.1966 34.0087 47.3477 33.5355 47.2677C32.9712 47.0278 31.8608 47.0901 31.2236 47.1256C30.3044 47.25 29.3578 46.5215 28.4203 46.6548C28.393 46.6281 28.3111 46.6636 28.3111 46.6814L27.492 46.5393C27.492 46.5393 26.4999 46.3793 25.8537 46.406C25.2166 46.4415 24.898 46.6903 26.327 47.5786L26.2997 47.6053C26.7456 47.7563 27.0278 47.8185 27.3736 47.703C27.3918 47.9162 27.7468 47.783 27.8469 47.8629V47.8807C28.1382 47.7652 28.393 48.0939 28.6843 47.9873C28.6752 48.0051 28.657 48.0584 28.5933 48.0495C28.7935 48.0495 29.0666 48.0495 29.0666 48.165C29.5398 48.1916 30.1952 48.3249 30.5137 48.1739L30.4864 48.2005C30.6775 48.0939 30.714 48.2094 30.9142 48.165C30.9142 48.1827 30.9324 48.1916 30.9324 48.2005C31.1326 48.0939 31.4785 48.236 31.6332 48.2005V48.2804L32.0064 48.2982L31.8698 48.2627C31.9427 48.0495 32.1338 48.4315 32.4251 48.316C32.6799 48.3693 32.9802 47.9162 33.2351 48.0406C33.3716 47.9518 33.1077 48.1916 33.3079 48.1294C33.3079 48.2449 33.2169 48.1916 33.2533 48.2893C33.4444 48.2538 33.5446 48.4315 33.7812 48.3782V48.467C34.0906 48.3337 34.3273 48.6358 34.5457 48.4936C34.8552 48.4403 34.7278 48.7691 35.0645 48.618L35.1829 48.7424C35.3194 48.769 35.2921 48.6003 35.4377 48.6713C35.4195 48.7424 35.6288 48.7424 35.5287 48.8135C35.8654 48.9556 36.2386 48.698 36.6755 48.9201C36.7847 48.7779 37.0032 48.8756 37.0851 48.769C37.0851 48.8312 37.5402 48.8046 37.2762 48.929C37.258 48.9378 37.2125 48.9289 37.2216 48.9112L37.1852 49C37.4309 49.1777 37.6585 48.929 37.9133 48.9734C37.8405 48.9378 37.7404 48.9467 37.8041 48.8845L38.0407 48.9112L37.9861 48.9823L38.3411 49.0356L38.2956 48.9467C38.4685 49 38.5231 49.151 38.7234 49.0267C38.8144 48.9556 38.5595 48.9023 38.7507 48.8757C38.9782 48.9467 39.3241 49.0444 39.6244 49.08C39.5971 48.9734 39.6791 48.9822 39.761 48.9645V49.0533C40.0886 48.9378 39.8793 49.2488 40.1978 49.1599L40.1705 49.2221L40.2524 49.0356C40.5346 48.8579 40.4072 49.2221 40.7166 48.9823C40.5892 49 40.662 48.7868 40.8076 48.8223L40.7712 48.9112C40.8531 48.8934 40.8805 48.8579 40.9442 48.8757C40.8896 48.9201 40.9169 49 41.0443 48.9823L40.9624 49.0889L41.199 48.929C41.381 49.0178 41.6632 48.9023 41.7451 49.0267C41.7451 49.0267 42.1365 49.0889 42.2184 48.9556C42.1456 49.0356 42.3549 49.0622 42.3003 49.1599C42.4004 49.0622 42.7008 48.9823 42.8191 49.08H42.8009C43.2469 49.1777 43.5563 48.9289 43.9568 49.0444C43.9386 48.9467 44.1479 48.9911 44.0842 48.8668C44.4847 48.7158 44.8488 49.0889 44.9671 48.6713C45.1491 48.6358 45.1946 48.7513 45.2947 48.769L45.2492 48.7957C45.5951 48.7424 45.6952 48.7335 45.9592 48.7246C46.0866 48.6802 46.0866 48.4848 46.3232 48.5114C46.2595 48.5914 46.3505 48.5736 46.4324 48.5647C46.3778 48.5825 46.3596 48.6092 46.4779 48.6536C46.4961 48.6269 46.5144 48.6091 46.5326 48.6002C46.5326 48.6002 46.5326 48.6091 46.5326 48.618C46.6782 48.5736 46.6509 48.5558 46.5781 48.5558C46.5781 48.547 46.5781 48.5292 46.5508 48.5114C46.7055 48.5914 46.9694 48.4581 46.9967 48.5914C47.4245 48.5114 47.7249 48.3604 48.0707 48.2627C48.1162 48.3249 48.0434 48.3959 47.9433 48.4315L48.1982 48.3693C48.2073 48.467 48.0616 48.4492 47.9797 48.4759C48.3074 48.5825 48.5804 48.2272 48.9627 48.316L49.0264 48.2272H49.0537C49.0537 48.2272 49.1174 48.1294 49.1629 48.1117C49.2266 48.1827 49.1902 48.2982 49.3632 48.2716C49.5179 48.3249 49.7545 48.1738 49.9275 48.085C49.8273 48.085 49.8456 48.0406 49.882 48.0051C49.973 47.9873 50.0367 48.0584 50.0913 48.0051L50.1186 48.1117C50.064 48.0139 50.3279 47.9518 50.3461 47.8985C50.4098 47.9695 50.2278 47.9962 50.2187 48.0673C50.5646 47.9873 50.3917 48.0228 50.7375 47.9429C50.9013 47.8185 50.6829 47.8452 50.7466 47.7297C50.9104 47.6764 51.047 47.5609 51.2472 47.5875L51.1653 47.5076C51.4565 47.3743 51.6295 47.3121 51.8661 47.3565C53.8412 45.9529 51.9844 46.175 52.0117 46.1661C51.1198 46.2106 50.7557 46.5748 49.7363 46.868L49.7272 46.8413Z" fill="#8E8E8E"/>
<path d="M55.9531 48.7344V48.8143C55.9531 48.8143 55.9804 48.7788 55.9531 48.7344Z" fill="#8E8E8E"/>
<path d="M55.5354 51.2237V51.2144L55.5254 51.2051L55.5354 51.2237Z" fill="#8E8E8E"/>
<path d="M54.4696 49.0374C54.9611 49.6148 54.9338 49.8902 55.316 50.4232C55.3706 50.5565 55.4343 50.6898 55.4707 50.8141C55.5071 50.9563 55.5436 51.0007 55.5345 51.2139C55.671 51.3915 55.498 51.6936 55.6164 51.9068L55.5253 51.9779C55.5618 52.0489 55.5891 52.1378 55.5345 52.2089H55.5072C55.5345 52.2622 55.5436 52.2977 55.5345 52.3776C55.5345 52.4576 55.5254 52.5286 55.5345 52.5731H55.5072C55.5072 52.6352 55.5072 52.7063 55.5163 52.7774L55.4798 52.7419C55.5891 53.186 55.6164 53.3015 55.6892 53.5769L55.7802 53.5236C55.8894 54.0744 56.1898 54.1188 56.4446 54.5541L56.4264 54.5719C56.7632 54.6785 56.9543 54.8384 57.2183 54.9717C57.4458 55.1138 57.8645 55.176 58.0374 55.0338C57.9828 55.0694 58.0647 55.0871 58.0556 55.1138C58.274 55.0871 58.5016 55.0694 58.5107 54.8651C58.6745 54.8651 58.6836 54.9272 58.7018 54.9983C58.7018 54.9095 58.893 54.865 59.0568 54.8029L58.984 54.8562C59.1478 54.8029 59.3116 54.7318 59.4481 54.6341C59.3935 54.6074 59.3298 54.5719 59.2752 54.5364C59.5119 54.4564 59.4482 54.6874 59.6302 54.5008L59.5392 54.3942C59.794 54.2077 60.0216 54.2698 60.2946 54.1543C61.1138 53.417 61.5324 52.3155 62.2879 51.6225L62.3971 51.6403C62.5427 51.7025 62.3516 51.2849 62.4972 51.3294V51.1961C62.4972 51.1961 62.6064 51.1428 62.5973 51.205C62.661 51.1162 62.6428 51.1073 62.6428 51.0096L62.7793 50.9563C63.0615 50.6187 63.0706 50.2189 63.289 49.828C63.7168 49.4283 63.8988 48.38 63.9443 47.8026C63.917 46.9853 64.6452 46.0792 64.3539 45.1819C64.3721 45.1553 64.3175 45.0842 64.2993 45.0842L64.2356 44.2935C64.2356 44.2935 64.1901 44.0537 64.1082 43.7516C64.0354 43.4407 63.8806 43.0854 63.6986 42.8366C63.3345 42.3125 63.0342 42.3391 62.8431 43.7161H62.8066C62.8066 44.0892 62.8522 44.3024 63.0615 44.5245C62.8613 44.5956 63.0706 44.8266 63.016 44.9243H62.9978C63.198 45.1286 62.9068 45.3773 63.0433 45.5905C63.0251 45.5905 62.9705 45.5817 62.9705 45.5284C62.9978 45.6794 63.0433 45.9015 62.9159 45.9015C62.9159 46.2746 62.8158 46.7809 62.9432 47.0563L62.9159 47.0297C63.016 47.1896 62.8977 47.2074 62.925 47.3762C62.9068 47.3762 62.8977 47.3939 62.8886 47.385C62.9887 47.5627 62.7884 47.8203 62.8066 47.9536L62.7247 47.9358L62.6519 48.2379L62.7065 48.1312C62.9068 48.2379 62.5063 48.3089 62.5609 48.5577C62.4517 48.7353 62.8431 49.1262 62.6428 49.295C62.6883 49.4283 62.5245 49.144 62.5336 49.3217C62.4244 49.2773 62.4972 49.2239 62.3971 49.2239C62.3789 49.3839 62.1786 49.4016 62.1695 49.6059L62.0876 49.5704C62.1331 49.8725 61.76 49.9258 61.8237 50.1478C61.76 50.4055 61.5142 50.1656 61.5233 50.4854L61.3595 50.5121C61.2776 50.6009 61.4414 50.6542 61.3231 50.7342C61.2594 50.6898 61.1866 50.8319 61.1593 50.7342C60.9135 50.9118 60.9772 51.3027 60.595 51.4893C60.6678 51.6403 60.4766 51.738 60.5312 51.8535C60.4766 51.8268 60.2855 52.1467 60.3037 51.889C60.3037 51.8713 60.331 51.8446 60.3492 51.8624L60.2946 51.7913C60.0307 51.8535 60.1308 52.1467 59.9669 52.2888C60.0307 52.2622 60.0762 52.1911 60.0944 52.271L59.9579 52.4132L59.9306 52.3332L59.703 52.5287L59.8031 52.5553C59.6757 52.6353 59.521 52.5642 59.5119 52.7685C59.5119 52.8662 59.6939 52.7507 59.612 52.884C59.43 52.9817 59.166 53.1238 58.9749 53.266C59.0659 53.3193 59.0113 53.3637 58.9749 53.4259L58.9021 53.3637C58.8475 53.5059 58.811 53.4703 58.7746 53.4259C58.7382 53.3904 58.7018 53.346 58.7109 53.3993L58.6836 53.346C58.7109 53.3993 58.7382 53.4525 58.7655 53.5147C58.7473 53.7102 58.6836 53.3637 58.6472 53.6125C58.6836 53.5858 58.7109 53.799 58.629 53.7724V53.6835C58.629 53.6835 58.6017 53.7368 58.5562 53.7191C58.5926 53.6746 58.5835 53.5947 58.4743 53.6125L58.5471 53.5059L58.3378 53.6658C58.183 53.5769 57.9282 53.6924 57.8645 53.5681C57.8099 53.5681 57.7461 53.5059 57.6642 53.6125C57.7097 53.5414 57.6643 53.4881 57.7098 53.4081C57.6551 53.497 57.5004 53.497 57.5277 53.3815H57.5459C57.4913 53.2127 57.2001 53.2038 57.2274 52.9639C57.1364 53.0084 57.1545 52.884 57.0362 52.9551C56.9361 52.8574 56.9907 52.7419 57.0271 52.6619C57.0544 52.5731 57.0635 52.5553 56.8633 52.4487C56.8542 52.2799 56.9725 52.2622 56.9998 52.1733L57.018 52.2177C57.0089 51.8979 57.018 51.8091 57.0362 51.5692C56.9998 51.4537 56.8087 51.4271 56.8724 51.2228C56.9452 51.2938 56.9361 51.205 56.9452 51.1251C56.9452 51.1784 56.9816 51.1872 57.0362 51.0895C57.018 51.0717 56.9998 51.054 56.9907 51.0362C56.9907 51.0362 56.9998 51.0362 57.0089 51.0362C56.9725 50.8852 56.9543 50.9118 56.9452 50.9829C56.9361 50.9829 56.9179 50.9829 56.8997 51.0096C56.9907 50.8497 56.8633 50.5743 56.9725 50.5387C56.8542 50.0768 56.5721 49.8725 56.3718 49.5882C56.4173 49.5171 56.4992 49.5615 56.5721 49.6415C56.5265 49.5704 56.481 49.4993 56.4264 49.4371C56.5083 49.3927 56.5539 49.526 56.5994 49.5882C56.5994 49.2417 56.1534 49.1529 56.0624 48.8064H55.9531V48.7798C55.9258 48.8064 55.8348 48.7798 55.7893 48.7531C55.8257 48.6643 55.944 48.6376 55.8348 48.5133C55.8075 48.3622 55.5527 48.2645 55.407 48.1757C55.4617 48.2468 55.407 48.2556 55.3615 48.2556C55.3069 48.2023 55.3251 48.1135 55.2614 48.0957L55.3342 48.0069C55.2796 48.1046 55.1067 47.9358 55.043 47.9536C55.0703 47.8648 55.1886 47.9891 55.2432 47.9536C54.9975 47.7404 55.1158 47.847 54.87 47.6427C54.6789 47.5982 54.8245 47.7404 54.6971 47.767C54.5697 47.6871 54.4059 47.6515 54.3148 47.4916L54.2966 47.5983C54.0327 47.4828 53.9053 47.3761 53.8143 47.1896C52.7221 46.932 52.4945 47.163 52.5309 47.3762C52.5582 47.5983 52.8222 47.8559 52.8222 47.8559C53.2954 48.4511 53.7779 48.4511 54.4696 49.0019V49.0374Z" fill="#8E8E8E"/>
<path d="M51.8749 46.7074L51.8931 46.6719C51.8931 46.6719 51.8658 46.6985 51.8749 46.7074Z" fill="#8E8E8E"/>
<path d="M52.9406 45.9526C52.886 45.8104 53.0135 45.6772 52.8587 45.6061C52.8314 45.5439 52.7495 45.5173 52.6858 45.4551C52.5402 45.5084 52.6312 45.3751 52.4947 45.4018L52.5584 45.3485C52.5129 45.3574 52.4765 45.3574 52.5129 45.3218H52.5311C52.4583 45.3218 52.4856 45.2863 52.4492 45.2863H52.4674L52.4401 45.2596L52.4765 45.2419C52.3946 45.2419 52.3764 45.2063 52.3855 45.1619L52.2944 45.2152C52.3582 45.0908 52.1488 45.1708 52.2489 45.0464H52.2762C51.985 45.0731 52.3854 44.8332 52.1124 44.851C52.1488 44.851 52.1579 44.8243 52.1852 44.8155C52.1397 44.7888 52.1033 44.7533 51.9122 44.8332C51.9031 44.7977 51.9577 44.7799 52.0305 44.7533C51.9486 44.7888 51.9031 44.7799 51.8849 44.7533H51.9213L51.8667 44.6911L51.7119 44.7622C51.7392 44.7089 51.9031 44.6733 51.8485 44.6556L51.7119 44.7089C51.7119 44.6467 51.9031 44.5401 51.985 44.4601C51.9759 44.2469 51.5481 44.1403 51.7393 43.8827L51.8394 43.8471C51.985 43.8027 51.6027 43.8471 51.7393 43.8116H51.6664C51.6664 43.8116 51.721 43.7761 51.7574 43.7761C51.7574 43.7583 51.7301 43.7583 51.6846 43.7583L51.7756 43.7139C51.8303 43.6161 51.63 43.5895 51.6482 43.5007C51.8212 43.3585 51.6118 43.2164 51.4844 43.1098C51.2295 42.9677 51.8394 42.7544 51.5663 42.6301C51.5845 42.6301 51.539 42.6123 51.5208 42.6123C51.5208 42.5679 51.539 42.5235 51.5481 42.488C51.5481 42.488 51.5663 42.3458 51.448 42.2481C51.3115 42.1592 51.0475 41.9283 50.3376 42.1948H50.3012C50.2011 42.2925 50.1829 42.3636 50.3467 42.4435C50.1373 42.4435 50.3194 42.5323 50.2466 42.5501H50.2284C50.3922 42.6123 50.101 42.6834 50.2466 42.7367C50.2284 42.7367 50.1738 42.7367 50.1647 42.7189C50.192 42.7633 50.2375 42.8255 50.1191 42.8344C50.1555 42.941 50.1191 43.092 50.3194 43.1364H50.283C50.4195 43.1542 50.3103 43.1809 50.374 43.2164C50.3558 43.2164 50.3467 43.2164 50.3467 43.2164C50.4741 43.243 50.3831 43.3319 50.4468 43.3497L50.3649 43.3674L50.4013 43.4385V43.403C50.638 43.3763 50.283 43.4829 50.4377 43.5184C50.4195 43.5806 50.911 43.5362 50.8109 43.6073C50.9201 43.6073 50.6379 43.6162 50.729 43.6428C50.6197 43.6695 50.6562 43.6428 50.5651 43.6695C50.6289 43.6961 50.465 43.7583 50.5469 43.785L50.4559 43.8027C50.6289 43.8294 50.3649 43.9449 50.5287 43.9449C50.6197 43.9893 50.2739 44.0515 50.465 44.0692L50.3558 44.1225C50.3558 44.1225 50.5105 44.1048 50.4559 44.1492C50.3831 44.167 50.4104 44.2025 50.3285 44.2025C50.2284 44.3091 50.5378 44.3002 50.3649 44.4423C50.5105 44.4246 50.4377 44.4956 50.556 44.469C50.4923 44.4868 50.5742 44.5667 50.4195 44.5578C50.4104 44.5578 50.4104 44.549 50.4286 44.5401L50.3376 44.5578C50.192 44.6644 50.4559 44.6289 50.4468 44.6822C50.4741 44.6556 50.4468 44.6378 50.5196 44.6378V44.6911L50.4468 44.7089L50.4286 44.7977L50.5105 44.7622C50.4741 44.8155 50.3285 44.8776 50.4741 44.8688C50.5469 44.8688 50.5833 44.7977 50.6197 44.8243C50.5742 44.8954 50.5105 44.9931 50.5105 45.0642C50.6015 45.0198 50.6106 45.0375 50.6379 45.0464L50.556 45.082C50.7017 45.0997 50.3831 45.1797 50.5014 45.2063L50.4377 45.2241L50.6197 45.1708C50.8109 45.1619 50.4559 45.2685 50.7108 45.2419C50.6835 45.2241 50.8928 45.153 50.8655 45.1974L50.7836 45.2241C50.7836 45.2241 50.8473 45.2241 50.8291 45.2419C50.7836 45.2419 50.7108 45.2863 50.7381 45.304L50.6289 45.3307L50.8018 45.3129C50.7289 45.384 50.8655 45.3929 50.7563 45.4551C50.7563 45.4551 50.7381 45.5528 50.8655 45.5172C50.7836 45.535 50.7745 45.5883 50.6744 45.6239C50.7654 45.6061 50.8655 45.6239 50.7836 45.6949H50.7745C50.7198 45.8282 50.9747 45.7749 50.911 45.9081C51.002 45.8548 50.9747 45.9259 51.0839 45.8548C51.2387 45.8637 50.9201 46.1302 51.3024 45.9526C51.3388 45.9792 51.2478 46.0414 51.2387 46.0681H51.2113C51.2842 46.1214 51.2933 46.1302 51.3206 46.1835C51.3661 46.1835 51.539 46.0858 51.5208 46.1569C51.448 46.1835 51.4753 46.1924 51.4844 46.2102C51.4662 46.2102 51.4389 46.2102 51.4116 46.2635C51.4298 46.2546 51.448 46.2546 51.4571 46.2457C51.4571 46.2457 51.4571 46.2457 51.4389 46.2546C51.4753 46.2635 51.4935 46.2546 51.4935 46.228C51.5026 46.228 51.5117 46.2102 51.5299 46.2013C51.4662 46.2813 51.5845 46.2724 51.4844 46.3523C51.5663 46.4145 51.721 46.3878 51.8029 46.4145C51.7574 46.4589 51.6937 46.4856 51.6573 46.4856L51.7119 46.5122C51.6391 46.5744 51.6482 46.5122 51.6209 46.5122C51.539 46.6633 51.8303 46.53 51.7756 46.6721L51.8485 46.6366C51.8485 46.6366 51.9304 46.601 51.9486 46.601C51.894 46.6632 51.8029 46.7254 51.8303 46.7521C51.7938 46.832 51.9213 46.7965 51.985 46.7876C51.985 46.761 52.0214 46.7343 52.0487 46.7165C52.0669 46.7254 52.0123 46.7965 52.0487 46.7787L51.9668 46.8587C52.0396 46.7787 52.0851 46.8143 52.1306 46.7876C52.0851 46.8587 52.0578 46.8231 52.0032 46.8587C52.076 46.9031 52.0396 46.8853 52.1124 46.9298C52.2034 46.8942 52.1761 46.8409 52.258 46.7876C52.3035 46.7876 52.3763 46.761 52.3672 46.832L52.4219 46.7432C52.522 46.7254 52.5402 46.7521 52.522 46.8587C52.9589 46.6455 53.0499 46.379 53.1136 46.2102C53.1773 46.0414 53.1864 45.9614 53.1864 45.9614C53.2592 45.7571 53.0499 45.9614 52.886 45.917L52.9406 45.9526Z" fill="#8E8E8E"/>
<path d="M25.4922 26.0195L25.5377 26.0382C25.5377 26.0382 25.5104 26.0195 25.4922 26.0195Z" fill="#8E8E8E"/>
<path d="M26.3929 26.9613C26.5659 26.828 26.757 26.8991 26.8298 26.6859C26.9117 26.6148 26.939 26.4993 26.9845 26.4016C26.8935 26.2684 27.0665 26.295 27.0027 26.1706L27.0847 26.2062C27.0847 26.2062 27.0574 26.1262 27.1029 26.144L27.1211 26.1618C27.0847 26.0996 27.1393 26.0996 27.1211 26.064L27.1393 26.0818L27.1575 26.0463L27.1848 26.0729C27.1666 25.993 27.1848 25.9486 27.2485 25.9308L27.1666 25.8686C27.3213 25.8686 27.1666 25.6998 27.3395 25.7176L27.3577 25.7353C27.2121 25.4777 27.6216 25.7087 27.4851 25.46C27.5033 25.4955 27.5306 25.4866 27.5488 25.5044C27.5579 25.4422 27.5853 25.3889 27.4214 25.2645C27.4487 25.2379 27.4942 25.2823 27.558 25.3267C27.4851 25.2734 27.476 25.2201 27.4942 25.1935L27.5124 25.229L27.5397 25.1402L27.3941 25.0513C27.4578 25.0513 27.5671 25.1668 27.558 25.1046L27.4487 25.0158C27.5125 24.9802 27.7036 25.0868 27.831 25.0957C28.0403 24.9269 27.9311 24.4916 28.2861 24.4561L28.3771 24.5094C28.5045 24.5982 28.2406 24.314 28.3589 24.3939L28.3225 24.3317C28.3225 24.3317 28.3862 24.3495 28.4044 24.3762C28.4226 24.3584 28.4044 24.3406 28.3771 24.2962L28.4681 24.3317C28.5955 24.2962 28.5045 24.1185 28.5955 24.0564C28.8322 24.0741 28.8413 23.7721 28.8504 23.6033C28.7958 23.3101 29.4238 23.5056 29.3419 23.1858C29.3601 23.1858 29.3419 23.1502 29.3237 23.1413L29.4602 23.0081C29.4602 23.0081 30.0791 22.3418 28.6319 22.0931L28.6046 22.0664C28.4772 22.0931 28.4226 22.1375 28.5136 22.2974C28.3407 22.1819 28.4408 22.3507 28.3771 22.324H28.368C28.459 22.4573 28.186 22.324 28.2588 22.4662C28.2497 22.4573 28.2042 22.4218 28.2133 22.404C28.2133 22.4573 28.2133 22.5284 28.1041 22.4573C28.0677 22.555 27.9311 22.635 28.0403 22.8038L28.013 22.7771C28.0949 22.8837 27.9948 22.8304 28.0221 22.9015C28.0039 22.9015 28.0039 22.8926 27.9948 22.8837C28.0676 22.9903 27.9311 22.9903 27.9584 23.0525L27.8947 23.0081L27.8583 23.088L27.8947 23.0703C28.0585 23.2124 27.7491 23.0347 27.8219 23.168C27.7673 23.1946 28.1131 23.5411 27.9948 23.5144C28.0585 23.6033 27.8765 23.3901 27.9129 23.47C27.8219 23.399 27.8674 23.4079 27.7855 23.3634C27.8037 23.4256 27.649 23.3457 27.6763 23.4345L27.6035 23.3812C27.6945 23.5322 27.4305 23.4078 27.5307 23.5322C27.5489 23.6299 27.294 23.4078 27.385 23.5677L27.2758 23.5144C27.2758 23.5144 27.3759 23.6211 27.3122 23.6122C27.2485 23.5678 27.2394 23.6122 27.1939 23.55C27.0483 23.5322 27.2303 23.7721 27.0119 23.7276C27.112 23.8342 27.0118 23.8165 27.0938 23.9053C27.0392 23.8698 27.0209 23.9764 26.9481 23.8431C26.9481 23.8342 26.9482 23.8254 26.9664 23.8431L26.9026 23.781C26.7388 23.7277 26.9026 23.9142 26.8571 23.9497C26.8935 23.9497 26.9026 23.932 26.9391 23.9853L26.8935 24.0208L26.8389 23.9675L26.757 24.0031L26.8389 24.0475C26.7752 24.0475 26.6478 23.9675 26.7206 24.0741C26.7661 24.1363 26.8389 24.1185 26.8389 24.1718C26.757 24.1718 26.6387 24.1718 26.575 24.2074C26.6569 24.2695 26.6478 24.2784 26.6478 24.3051L26.575 24.2518C26.6296 24.3851 26.402 24.1541 26.4384 24.2607L26.3929 24.2163L26.5295 24.3406C26.6296 24.5005 26.3565 24.2518 26.5113 24.4561C26.5113 24.4295 26.6751 24.5627 26.6205 24.5716L26.5568 24.5094C26.5568 24.5094 26.5841 24.5627 26.5568 24.5627C26.5295 24.5272 26.4566 24.4828 26.4566 24.5094L26.3838 24.4295L26.4749 24.5627C26.3747 24.5361 26.4293 24.6604 26.3201 24.5982C26.3201 24.5982 26.22 24.6249 26.3201 24.7226C26.2655 24.6604 26.2109 24.6782 26.1381 24.6071C26.2018 24.6782 26.22 24.7759 26.1199 24.7404C25.9743 24.7404 26.1199 24.9447 25.9743 24.9358C26.0562 24.998 25.9834 24.998 26.1017 25.0691C26.1472 25.2201 25.7831 25.0335 26.0926 25.3089C26.0926 25.3533 25.9834 25.2912 25.9561 25.2912V25.2734C25.9197 25.3534 25.9105 25.3711 25.865 25.4156C25.8832 25.46 26.0289 25.5843 25.9561 25.5932C25.9106 25.531 25.9014 25.5577 25.8923 25.5754C25.8923 25.5577 25.8741 25.5399 25.8104 25.531C25.8286 25.5488 25.8377 25.5577 25.8377 25.5754C25.8377 25.5754 25.8286 25.5754 25.8195 25.5666C25.8195 25.611 25.8469 25.6199 25.856 25.611C25.856 25.611 25.8741 25.6288 25.8923 25.6376C25.7922 25.6021 25.8377 25.7176 25.7376 25.6376C25.7012 25.7265 25.7649 25.8686 25.7558 25.9574C25.7012 25.9219 25.6648 25.8686 25.6557 25.8419L25.6375 25.9041C25.5647 25.842 25.6102 25.8419 25.6102 25.8153C25.4464 25.7709 25.6466 26.0196 25.4828 25.993L25.5374 26.0552H25.5283C25.5283 26.0552 25.592 26.1262 25.592 26.144C25.5192 26.0996 25.4373 26.0285 25.4191 26.0552C25.3372 26.0285 25.3918 26.144 25.41 26.2062C25.4373 26.2062 25.4646 26.2328 25.4828 26.2595C25.4737 26.2772 25.4009 26.2328 25.4191 26.2595L25.328 26.1884C25.4191 26.2506 25.3918 26.295 25.4191 26.3306C25.3463 26.2861 25.3827 26.2595 25.3372 26.224C25.3007 26.295 25.3189 26.2595 25.2734 26.3217C25.3189 26.4105 25.3645 26.3839 25.4282 26.4549C25.4282 26.4993 25.4646 26.5704 25.3827 26.5615L25.4737 26.6148C25.4919 26.7125 25.4555 26.7392 25.3463 26.7126C25.6739 27.6187 26.1654 27.4854 26.1654 27.4854C26.4658 27.4677 26.3019 27.2012 26.3929 26.9702V26.9613Z" fill="#8E8E8E"/>
<path d="M23.1172 23.565L23.1627 23.5117C23.1627 23.5117 23.1263 23.5295 23.1172 23.565Z" fill="#8E8E8E"/>
<path d="M24.3711 21.4336V21.4429L24.3893 21.4522L24.3711 21.4336Z" fill="#8E8E8E"/>
<path d="M24.4272 24.2058C24.4909 23.4862 24.682 23.273 24.5546 22.5179C24.5364 22.1536 24.4545 21.7805 24.3817 21.443C24.1997 21.3008 24.318 20.9899 24.1541 20.8211L24.227 20.7323C24.1724 20.6701 24.1269 20.599 24.1633 20.528H24.1906C24.1086 20.448 24.136 20.3414 24.0905 20.297H24.1178L24.0905 20.1904L24.1268 20.2081C24.0358 20.0571 24.0085 19.8972 24.0176 19.7462L23.9175 19.7728C23.9994 19.453 23.7719 19.3553 23.8902 19.0621H23.9175C23.6172 18.7246 24.0813 18.5025 23.8174 18.156C23.8538 18.2004 23.872 18.1382 23.8993 18.1471C23.8629 17.9783 23.872 17.8184 23.6627 17.7918C23.6718 17.6763 23.7355 17.703 23.8174 17.6941C23.7264 17.6941 23.6991 17.5786 23.7082 17.4897L23.7355 17.5341V17.2765L23.5625 17.3032C23.6354 17.1699 23.7719 17.3032 23.7628 17.1699L23.6263 17.1433C23.69 16.9567 23.9357 16.9123 24.0813 16.8235C24.1269 16.7435 24.1633 16.6725 24.2088 16.5836C24.2452 16.5303 24.3089 16.4681 24.3908 16.4592C24.5364 16.4148 24.9824 16.5836 25.2009 16.8857L25.1644 16.9923C25.0825 17.1255 25.4648 16.9212 25.4011 17.0545H25.5103C25.5103 17.0545 25.5376 17.1433 25.483 17.1433C25.5467 17.1966 25.5558 17.1788 25.6377 17.1699V17.2943C25.8471 17.543 26.1747 17.5875 26.4114 17.8451C26.5843 18.2626 27.2578 18.6801 27.6492 18.9555C27.9587 19.1154 28.1225 19.4352 28.2772 19.7551C28.4319 20.0837 28.6322 20.4124 28.8051 20.4835C28.796 20.5013 28.8506 20.5191 28.8688 20.5102C28.9234 20.6345 28.9507 20.7589 28.9598 20.8922C28.9598 20.8922 28.978 21.0077 28.978 21.1676C28.978 21.3275 28.9507 21.5318 28.9325 21.7095C28.9143 21.8871 28.9143 22.0559 29.0781 22.1448C29.2147 22.2069 29.6151 22.2425 30.1339 21.6384L30.1612 21.6651C30.3433 21.2653 30.3524 20.9455 30.1339 20.679C30.3433 20.599 30.0793 20.3236 30.1066 20.217H30.1248C29.8882 20.0393 30.0065 19.6485 29.7153 19.5152C29.7335 19.5152 29.779 19.4797 29.8245 19.533C29.6697 19.3731 29.5332 19.302 29.606 19.1954C29.3512 18.9467 29.069 18.5469 28.7687 18.5114H28.8051C28.6231 18.4936 28.6777 18.387 28.5321 18.3337C28.5321 18.3159 28.532 18.307 28.5411 18.2982C28.35 18.2804 28.2499 18.0139 28.1316 17.9695L28.1862 17.9073L27.9768 17.7207L28.0406 17.8096C27.8585 17.9339 27.995 17.5608 27.7493 17.5164C27.631 17.3654 27.1486 17.5697 27.0849 17.3654C26.9483 17.3743 27.2578 17.3032 27.1031 17.2676C27.1759 17.1788 27.2032 17.2677 27.2396 17.1699C27.1031 17.1166 27.1577 16.9301 26.9666 16.8768L27.0212 16.8057C26.7481 16.7791 26.7754 16.4415 26.557 16.4592C26.3203 16.3704 26.6025 16.1572 26.293 16.1394V15.9884C26.2111 15.9085 26.1383 16.0595 26.0746 15.944C26.1292 15.8907 25.9836 15.8107 26.0746 15.793C25.8926 15.5353 25.5285 15.6331 25.2372 15.2866C25.0825 15.3843 24.9005 15.2244 24.8004 15.3132C24.8368 15.2333 24.2543 15.2422 24.6001 15.1356C24.6275 15.1356 24.682 15.1356 24.6729 15.1622L24.7276 15.0823C24.5637 14.9846 24.3908 14.9934 24.2361 15.0112C24.0814 15.0645 23.9448 15.1622 23.781 15.18C23.8902 15.18 24.0085 15.1533 23.9448 15.2333C23.8447 15.2511 23.7446 15.2511 23.6627 15.3044L23.69 15.2066C23.5535 15.2688 23.4078 15.3221 23.2622 15.3932C23.2986 15.3932 23.335 15.4198 23.3714 15.4287C23.1803 15.5176 22.9982 15.4909 22.9345 15.7574C22.9345 15.8818 23.1439 15.6864 23.0437 15.864C22.9527 15.944 22.8344 16.0683 22.7252 16.2016C22.6433 16.3171 22.5523 16.4592 22.4977 16.5836C22.6069 16.5836 22.5796 16.6547 22.5887 16.7258L22.4977 16.708C22.5614 17.0011 22.2792 16.7613 22.3156 17.0545L22.261 17.0189L22.434 17.1166C22.5796 17.3654 22.2337 17.2144 22.434 17.4986C22.434 17.4009 22.6342 17.472 22.5887 17.5875L22.5068 17.5519C22.5159 17.623 22.5523 17.6408 22.5341 17.6852C22.4886 17.6408 22.4067 17.6585 22.4158 17.7562L22.3156 17.6852L22.4613 17.8806C22.352 18.0228 22.4795 18.2449 22.352 18.2982C22.352 18.2982 22.2883 18.6002 22.434 18.6624C22.352 18.6002 22.3247 18.769 22.2246 18.7246C22.3247 18.8045 22.4066 19.0266 22.3156 19.1155V19.0977C22.2246 19.4441 22.4886 19.6574 22.3975 19.9683C22.4977 19.9416 22.4612 20.1015 22.5887 20.0482C22.7616 20.3325 22.3975 20.6434 22.8253 20.6879C22.8708 20.8211 22.7525 20.8655 22.7434 20.9366L22.7161 20.9099C22.7889 21.1409 22.8071 21.2031 22.8253 21.3897C22.8799 21.4696 23.0711 21.4607 23.0529 21.6295C22.9709 21.5851 22.9892 21.6473 22.9983 21.7095C22.98 21.6739 22.9527 21.665 22.9072 21.7539C22.9345 21.7539 22.9527 21.7805 22.9618 21.7894C22.9618 21.7894 22.9527 21.7894 22.9436 21.7894C22.9801 21.8871 23.0074 21.8694 23.0074 21.8161C23.0165 21.8161 23.0347 21.8161 23.0529 21.7983C22.9709 21.9138 23.0984 22.0915 22.9618 22.1181C23.0255 22.4113 23.1803 22.6156 23.244 22.8732C23.1803 22.9087 23.1166 22.8466 23.0802 22.7755L23.1166 22.9532C23.0165 22.9532 23.0529 22.8555 23.0347 22.8022C22.889 23.0242 23.2167 23.2286 23.0802 23.4862L23.1621 23.5395V23.5573C23.1621 23.5573 23.244 23.6106 23.2622 23.6461C23.1803 23.6816 23.062 23.6461 23.0711 23.7705C22.9892 23.8682 23.1075 24.0458 23.153 24.1702C23.1712 24.0991 23.2167 24.1258 23.244 24.1525C23.244 24.2146 23.1621 24.2502 23.1894 24.2946H23.0711C23.1803 24.2768 23.1803 24.4634 23.2258 24.49C23.1439 24.5256 23.153 24.3923 23.0893 24.3745C23.0893 24.6233 23.0893 24.4989 23.0893 24.7477C23.1712 24.8898 23.1985 24.7299 23.2986 24.801C23.3168 24.9253 23.3896 25.0408 23.3168 25.183L23.4169 25.1474C23.4806 25.3784 23.4715 25.5116 23.3714 25.6716C23.8265 26.5155 24.1724 26.48 24.318 26.3556C24.4727 26.2224 24.5182 25.9469 24.5182 25.9469C24.7003 25.4139 24.4636 25.0941 24.409 24.2591L24.4272 24.2058Z" fill="#8E8E8E"/>
<path d="M17.4661 50.0684L17.4023 50.1217C17.4023 50.1217 17.4388 50.1217 17.4661 50.0684Z" fill="#8E8E8E"/>
<path d="M16.4454 48.9036C16.136 49.7564 15.872 49.9252 15.6536 50.8402C15.5717 51.0534 15.508 51.2666 15.4443 51.4887C15.3988 51.6842 15.3168 51.9152 15.2531 52.1195C15.3259 52.3682 15.0438 52.6525 15.0802 52.9279L14.9619 52.9901C14.971 53.0878 14.9619 53.1855 14.889 53.2477L14.8709 53.2299C14.8982 53.3276 14.7616 53.6208 14.7889 53.7096L14.7616 53.6919C14.7434 53.7807 14.7434 53.8607 14.7434 53.9495L14.707 53.9051C14.7434 54.2871 14.8435 54.6424 14.971 54.9534L15.0529 54.8823C15.1621 55.211 15.3623 55.3798 15.5444 55.5041C15.7355 55.6285 15.9266 55.7262 16.2088 55.8772L16.1906 55.895C16.409 55.895 16.582 55.8861 16.7458 55.895C16.8732 55.895 16.9551 55.9217 17.0643 55.9483C17.1645 55.975 17.2646 55.9927 17.3738 56.0016C17.5103 56.0016 17.7652 56.0016 17.9381 55.895C17.8471 55.9483 18.0018 55.9394 18.0018 55.9661C18.4114 55.8595 18.648 55.4508 18.4933 55.3176C18.6571 55.1133 18.6662 55.2021 18.7482 55.2287C18.6753 55.1754 18.7299 55.0422 18.8118 54.9356V55.0067L19.0121 54.7046L18.8301 54.6513C18.9939 54.5269 19.0212 54.7401 19.1122 54.5802L19.003 54.4914C19.2032 54.3048 19.4763 54.3226 19.7311 54.2071C20.5321 53.4609 21.1965 52.4037 22.1613 51.8885L22.2705 51.9329C22.3888 52.0306 22.3342 51.5687 22.4616 51.6486L22.5071 51.5154C22.5071 51.5154 22.6254 51.4887 22.6072 51.5509C22.6982 51.4798 22.68 51.4621 22.7164 51.3733H22.8712C23.2626 51.1156 23.4264 50.7247 23.8087 50.4227C24.4003 50.174 25.0647 49.1346 25.2831 48.4949C25.4196 48.033 25.7018 47.6155 25.9293 47.1269C26.1569 46.6472 26.3025 46.0875 26.1477 45.59C26.1751 45.5545 26.1204 45.4745 26.0931 45.4745C26.084 45.1725 26.0476 44.8793 26.0021 44.5684C26.0021 44.5684 25.9384 44.2752 25.7928 43.9465C25.6472 43.6089 25.4105 43.2092 25.1284 42.9605C24.8462 42.7028 24.555 42.6317 24.4913 42.8005C24.4185 42.9693 24.5277 43.3424 24.5186 44.062H24.4822C24.5732 44.4351 24.6278 44.6661 24.8371 44.8704C24.6369 44.9504 24.8735 45.1902 24.8098 45.2968H24.7916C24.9736 45.5189 24.6915 45.7766 24.8189 45.9986C24.8007 45.9898 24.7461 45.9809 24.7461 45.9276C24.7643 46.0875 24.7916 46.3185 24.6642 46.3185C24.6551 46.7093 24.4275 47.1979 24.5004 47.5L24.4731 47.4733C24.5277 47.6599 24.4093 47.651 24.3911 47.8287C24.3729 47.8287 24.3638 47.8287 24.3547 47.8287C24.3911 48.033 24.1272 48.2551 24.0999 48.3883L24.0271 48.3528C23.9634 48.4416 23.9088 48.5394 23.845 48.6282L23.9361 48.5394C24.0908 48.7082 23.6721 48.6549 23.6266 48.9303C23.4628 49.0813 23.6539 49.5876 23.39 49.6853C23.3809 49.8364 23.3444 49.4988 23.2716 49.6765C23.1897 49.5965 23.2717 49.5699 23.1806 49.5343C23.0987 49.6942 22.8894 49.6409 22.7802 49.8453L22.7164 49.7831C22.6163 50.094 22.2432 50.0496 22.2068 50.2894C22.0338 50.5382 21.8791 50.2273 21.7699 50.5559H21.5969C21.4877 50.6181 21.6243 50.7158 21.4786 50.7691C21.4331 50.707 21.2966 50.8491 21.3148 50.7336C20.9871 50.858 20.9234 51.3022 20.4592 51.4443C20.4865 51.6131 20.259 51.7019 20.2863 51.8263C20.2317 51.7819 19.9496 52.1195 20.0406 51.8441C20.0406 51.8174 20.077 51.7997 20.0952 51.8174L20.0588 51.7375C19.7584 51.7908 19.7766 52.1106 19.5764 52.2616C19.6492 52.235 19.722 52.155 19.7129 52.2438L19.5309 52.3949L19.5127 52.306L19.2305 52.5192L19.3306 52.5548C19.1759 52.6436 19.0212 52.5725 18.9757 52.8035C18.9666 52.919 19.1759 52.7769 19.0758 52.919C18.8665 53.0345 18.557 53.221 18.3386 53.4165C18.4387 53.4609 18.375 53.5231 18.3386 53.5942L18.2657 53.5409C18.1474 53.8607 18.0382 53.4964 17.9017 53.7985L17.8744 53.7363L17.9654 53.914C17.9199 54.2427 17.7197 53.914 17.7106 54.3048C17.7743 54.1982 17.9017 54.3759 17.7834 54.4736L17.7379 54.3937C17.6924 54.4736 17.7106 54.518 17.6924 54.518C17.6651 54.4736 17.6013 54.4292 17.5922 54.4647C17.574 54.4292 17.5467 54.4025 17.5285 54.3759C17.5558 54.4203 17.5831 54.4736 17.6013 54.5358C17.5285 54.5092 17.4739 54.598 17.4375 54.4825C17.4375 54.4825 17.4375 54.4825 17.4193 54.4825C17.4193 54.4825 17.4011 54.4825 17.3374 54.4825C17.2282 54.4825 17.1189 54.5003 17.0734 54.5713C17.1462 54.4914 16.9369 54.4559 17.0006 54.3581C16.9551 54.4026 16.8459 54.447 16.764 54.4647C16.7276 54.4825 16.6912 54.4647 16.6821 54.4203C16.6366 54.3493 16.5911 54.367 16.5182 54.3581C16.4545 54.3581 16.3817 54.3137 16.409 54.2249C16.318 54.2782 16.3362 54.1894 16.2179 54.2515C16.1178 54.1805 16.1815 54.0739 16.2179 54.0206C16.2543 53.9584 16.2634 53.9317 16.0814 53.8162C16.1178 53.6563 16.2452 53.6563 16.2998 53.5853V53.6297C16.3908 53.3099 16.4272 53.221 16.5274 52.9901C16.5274 52.8568 16.3635 52.7769 16.4818 52.5903C16.5273 52.6791 16.5455 52.5903 16.5729 52.5192C16.5729 52.5725 16.5819 52.5992 16.673 52.5192C16.6548 52.5015 16.6548 52.4659 16.6457 52.4482C16.6457 52.4482 16.6548 52.4482 16.6639 52.4482C16.6912 52.3149 16.6639 52.3238 16.6275 52.3771C16.6184 52.3771 16.6002 52.3771 16.5729 52.3771C16.7185 52.2882 16.7185 51.9951 16.8459 52.0217C16.9551 51.622 16.9187 51.2933 16.9733 50.9557C17.0461 50.938 17.0825 51.0357 17.0734 51.1334L17.128 50.8935C17.2191 50.9202 17.1371 51.0446 17.128 51.1245C17.3738 50.8935 17.1645 50.5115 17.4102 50.2273L17.3556 50.1384L17.3738 50.1207C17.3738 50.1207 17.301 50.0229 17.3101 49.9696C17.4011 49.9519 17.5012 50.0318 17.5376 49.863C17.6559 49.7564 17.6104 49.4899 17.6195 49.3034C17.5831 49.3922 17.5467 49.3478 17.5285 49.3034C17.5467 49.2234 17.6468 49.1968 17.6286 49.1257L17.7379 49.1523C17.6286 49.1523 17.6924 48.9125 17.6559 48.8681C17.747 48.8414 17.6924 49.0102 17.747 49.0546C17.8289 48.7259 17.7925 48.8858 17.8744 48.5571C17.838 48.3617 17.7652 48.5571 17.6833 48.4505C17.7015 48.2906 17.665 48.1218 17.7834 47.9619L17.6741 47.9975C17.6741 47.6865 17.7288 47.5178 17.8744 47.349C17.7197 46.1674 17.392 46.052 17.21 46.1763C17.1099 46.2385 17.0279 46.3629 16.9642 46.4606C16.9005 46.5672 16.8641 46.6649 16.8641 46.6649C16.4727 47.4111 16.6366 47.9086 16.4272 48.9125L16.4454 48.9036Z" fill="#8E8E8E"/>
<path d="M18.7015 46.2389C18.7652 46.1945 18.9563 46.2211 18.8926 46.1501C18.9108 46.1323 18.8744 46.0879 18.8562 46.0612C18.7106 46.0168 18.8562 46.0257 18.7379 45.9902H18.8198C18.8198 45.9902 18.747 45.9813 18.7925 45.9902H18.8198C18.7561 45.9724 18.8016 45.9724 18.7652 45.9635H18.7925H18.7834H18.8198C18.7561 45.9457 18.7561 45.928 18.7834 45.928L18.6833 45.9102C18.8016 45.9102 18.5923 45.8569 18.7379 45.8658H18.7652C18.5013 45.7858 18.9564 45.8658 18.7106 45.7858C18.7379 45.7947 18.7652 45.7947 18.7925 45.8036C18.7652 45.7858 18.7561 45.7681 18.5468 45.7237C18.5468 45.7237 18.6105 45.7236 18.6924 45.7414C18.6014 45.7236 18.565 45.7059 18.565 45.697H18.6014L18.5741 45.6792L18.4012 45.6526C18.4558 45.6526 18.6105 45.6881 18.565 45.6704L18.4285 45.6437C18.4285 45.6437 18.6742 45.6704 18.7743 45.6704C18.8471 45.6171 18.5104 45.4749 18.7652 45.466L18.8744 45.4838C19.0292 45.5105 18.656 45.4216 18.7925 45.4483L18.7288 45.4305C18.7288 45.4305 18.7834 45.4305 18.8198 45.4483C18.8198 45.4483 18.8016 45.4394 18.7561 45.4216H18.8562C18.9382 45.4216 18.7561 45.3683 18.8016 45.3506C19.0019 45.3506 18.838 45.2617 18.7379 45.2084C18.5195 45.1107 19.1384 45.1817 18.8926 45.0751C18.9108 45.0751 18.8653 45.0663 18.8471 45.0574L18.8744 45.013C18.8744 45.013 18.9837 44.8087 17.6821 44.7109H17.6457C17.5638 44.7109 17.5365 44.7198 17.7003 44.7731C17.491 44.7376 17.673 44.7909 17.6093 44.7731H17.5911C17.7458 44.8175 17.4546 44.7731 17.5911 44.8175C17.5729 44.8175 17.5183 44.7998 17.5183 44.7998C17.5456 44.8175 17.582 44.8353 17.4637 44.8175C17.491 44.8531 17.4273 44.8708 17.6184 44.9241H17.582C17.7094 44.9508 17.6002 44.9241 17.6639 44.9597C17.6457 44.9597 17.6366 44.9597 17.6366 44.9597C17.7641 44.9952 17.6457 44.9952 17.7003 45.013L17.6184 44.9952L17.6366 45.0218H17.6548C17.8733 45.0663 17.5183 45.0041 17.6548 45.0485C17.6275 45.0485 18.1008 45.1729 17.9916 45.164C18.0917 45.1906 17.8277 45.1285 17.9006 45.1462C17.7913 45.1196 17.8278 45.1285 17.7367 45.1107C17.7913 45.1285 17.6184 45.1107 17.6912 45.1285L17.6002 45.1107C17.7549 45.164 17.4728 45.1107 17.6275 45.1551C17.7003 45.1907 17.3636 45.1107 17.5365 45.164L17.4182 45.1462C17.4182 45.1462 17.5638 45.1818 17.5001 45.1818C17.4273 45.164 17.4364 45.1818 17.3636 45.164C17.2452 45.164 17.5274 45.2351 17.3181 45.2173C17.4637 45.2528 17.3727 45.2439 17.4819 45.2706C17.4182 45.2617 17.4637 45.2972 17.3271 45.2528C17.318 45.2528 17.3272 45.2528 17.3454 45.2528L17.2543 45.2351C17.0905 45.2173 17.3363 45.2795 17.309 45.2884C17.3363 45.2884 17.3363 45.2883 17.3909 45.2972H17.3727H17.2998H17.2543L17.3454 45.3239C17.2999 45.3239 17.1451 45.2973 17.2725 45.3239C17.3454 45.3417 17.4 45.3417 17.4273 45.3594C17.3636 45.3594 17.2635 45.3594 17.2362 45.3683C17.3363 45.3861 17.3363 45.395 17.3545 45.4039L17.2635 45.3861C17.3818 45.4305 17.0632 45.3505 17.1633 45.3861L17.0996 45.3683L17.2817 45.4127C17.4546 45.466 17.0996 45.3861 17.3363 45.4483C17.3181 45.4394 17.5365 45.4838 17.491 45.4838L17.4091 45.466C17.4091 45.466 17.4637 45.4838 17.4455 45.4838C17.4 45.4749 17.3181 45.4571 17.3363 45.466L17.227 45.4394L17.3818 45.4838C17.2908 45.4749 17.4 45.5105 17.2817 45.4838C17.2817 45.4838 17.2179 45.4838 17.3454 45.5282C17.2635 45.5104 17.227 45.5104 17.136 45.4927C17.227 45.5193 17.2999 45.546 17.1997 45.5371H17.1906C17.0814 45.5371 17.3181 45.5993 17.1906 45.5993C17.2907 45.6171 17.2361 45.6171 17.3636 45.6437C17.491 45.6881 17.0905 45.6259 17.491 45.7237C17.5092 45.7414 17.3909 45.7237 17.3727 45.7237H17.3545C17.3545 45.7237 17.3909 45.7503 17.3727 45.7592C17.4091 45.777 17.6002 45.8125 17.5547 45.8125C17.4819 45.7947 17.491 45.8036 17.491 45.8125C17.4819 45.8125 17.4546 45.8036 17.4 45.7947C17.4273 45.7947 17.4364 45.8036 17.4455 45.8125C17.4455 45.8125 17.4364 45.8125 17.4273 45.8125C17.4546 45.8214 17.4728 45.8303 17.491 45.8303C17.5001 45.8303 17.5183 45.8303 17.5365 45.8303C17.4364 45.8214 17.5365 45.8569 17.4091 45.8303C17.4364 45.8569 17.5638 45.9013 17.6093 45.9369C17.5456 45.928 17.4819 45.9102 17.4637 45.9013L17.4819 45.9191C17.3909 45.9013 17.4273 45.9013 17.4091 45.8924C17.2544 45.8747 17.5547 45.9546 17.4091 45.9457L17.4819 45.9635H17.4728C17.4728 45.9635 17.5638 45.9813 17.582 45.9902C17.5001 45.9724 17.3909 45.9546 17.3909 45.9635C17.309 45.9635 17.4273 45.9902 17.4728 46.0079C17.491 46.0079 17.5365 46.0079 17.5638 46.0257C17.5638 46.0257 17.4819 46.0257 17.5183 46.0257L17.4091 45.999C17.5183 46.0168 17.5183 46.0346 17.5638 46.0435C17.4819 46.0257 17.491 46.0257 17.4273 46.0079C17.4273 46.0257 17.4273 46.0168 17.4364 46.0435C17.5183 46.0701 17.5456 46.0612 17.6366 46.0879C17.6548 46.1057 17.7367 46.1234 17.6639 46.1234L17.764 46.1412C17.8369 46.1767 17.8278 46.1856 17.7185 46.1678C18.5013 46.461 18.8198 46.4255 18.8198 46.4255C19.0474 46.4255 18.7652 46.3366 18.7015 46.2656V46.2389Z" fill="#8E8E8E"/>
<path d="M11.037 45.4022L10.9277 45.3223C10.9277 45.3223 10.946 45.3667 11.037 45.4022Z" fill="#8E8E8E"/>
<path d="M14.6602 26.9505C14.6602 26.9505 14.6693 26.9327 14.6784 26.9238C14.6693 26.9416 14.6602 26.9505 14.6602 26.9505Z" fill="#8E8E8E"/>
<path d="M12.8575 44.6112C11.3284 44.1137 11.0007 43.785 9.42613 43.252C8.698 42.9411 7.90616 42.6302 7.20533 42.3103C6.80486 42.2837 6.29518 41.8573 5.8492 41.7596L5.73998 41.5997C5.58526 41.5641 5.42143 41.5019 5.31221 41.3953L5.3304 41.3776C5.10286 41.3243 4.90263 41.1644 4.79341 41.1377L4.8116 41.1199L4.57498 40.9956H4.62959C4.25642 40.8534 3.91966 40.6313 3.63751 40.4181L3.6011 40.5159C3.32805 40.2582 3.0914 40.1339 2.88206 40.0095C2.77284 39.9473 2.79105 39.974 2.74554 39.9295C2.70003 39.9118 2.71824 39.8496 2.74554 39.7963H2.77285C2.70003 39.8141 2.68182 39.5031 2.68182 39.3521C2.68182 39.1656 2.70915 38.9968 2.72735 38.8191C2.77286 38.4726 2.82746 38.1173 2.69094 37.6731C2.72734 37.7886 2.74554 37.6287 2.77285 37.6376C2.74554 37.2289 2.72734 36.7847 2.518 36.7758C2.518 36.4738 2.58172 36.5271 2.66363 36.4916C2.57262 36.4916 2.53621 36.234 2.52711 35.9941L2.5635 36.1007C2.5544 35.8786 2.5453 35.6121 2.5362 35.5588C2.48159 35.5588 2.4179 35.5766 2.36329 35.6032C2.4088 35.39 2.57262 35.6032 2.52711 35.4166L2.38148 35.3367C2.39969 35.2656 2.38147 35.1857 2.45428 35.1857C2.58171 35.2212 2.69094 35.2567 2.78196 35.3012C2.90028 35.3367 2.85477 35.3989 3.11871 35.39C5.3031 34.9458 7.10523 33.5955 8.87094 32.8049L8.99835 32.8493C9.11667 32.9559 9.32602 32.3785 9.46254 32.4584L9.60817 32.2807C9.67189 32.2718 9.79931 32.2185 9.7265 32.3074C9.89943 32.2008 9.89031 32.1741 9.99043 32.0498L10.2271 32.0053C10.9461 31.6056 11.3921 31.0459 12.0838 30.5573C13.0122 30.0865 14.3774 28.7362 15.1419 27.9544C16.1704 26.7995 17.8998 26.0622 18.9738 25.0583C19.0284 25.0583 19.1012 24.9429 19.092 24.9251C19.4834 24.6941 19.8748 24.4987 20.2844 24.3299C20.2844 24.3299 20.3754 24.2944 20.5301 24.2411C20.6848 24.1789 20.9033 24.0989 21.149 24.0367C21.6496 23.8768 22.3049 23.7702 22.8146 23.6636C23.3334 23.5748 23.7066 23.4593 23.6156 23.2816C23.5154 23.1395 22.9875 22.8285 21.5404 22.7308L21.5677 22.6953C20.7212 22.7486 20.1752 22.9351 19.7019 23.3083C19.538 23.1661 19.0556 23.5748 18.8645 23.6281V23.6014C18.5095 23.9834 17.8997 24.0367 17.5903 24.4365C17.5903 24.4098 17.5721 24.3654 17.654 24.2944C17.381 24.5253 17.0351 24.8451 16.9441 24.7652C16.307 25.2982 15.415 25.9911 15.1419 26.462V26.4175C15.0054 26.7018 14.8689 26.6752 14.6596 26.9417C14.6323 26.9417 14.6141 26.9417 14.6141 26.9417C14.4593 27.2437 13.9132 27.5546 13.7494 27.759L13.6857 27.7057L13.2124 28.1232L13.4035 27.9899C13.4854 28.212 12.9394 28.1854 12.6754 28.5851C12.3296 28.8339 12.284 29.4824 11.8654 29.6778C11.7652 29.891 11.9109 29.4291 11.7106 29.6956C11.6287 29.6156 11.7835 29.5446 11.656 29.5268C11.4467 29.7667 11.1737 29.7489 10.9188 30.0421L10.8551 29.9799C10.5638 30.4152 10.0268 30.4418 9.8448 30.7616C9.47163 31.1259 9.40793 30.7439 9.06207 31.1881L8.82542 31.2058C8.62518 31.3124 8.77082 31.419 8.52508 31.5079C8.49777 31.4368 8.22473 31.6234 8.30665 31.4901C7.76055 31.6944 7.40557 32.2452 6.64104 32.414C6.56822 32.6272 6.19506 32.716 6.13135 32.867C6.08584 32.8226 5.44873 33.1869 5.76729 32.8848C5.79459 32.8582 5.84921 32.8315 5.85831 32.8582V32.7604C5.41233 32.796 5.21207 33.1691 4.8116 33.3023C4.93902 33.2846 5.08465 33.2135 5.01184 33.3023L4.64778 33.4356L4.6933 33.3379C4.51127 33.4001 4.32012 33.4445 4.13809 33.5067L4.24731 33.56C3.96515 33.6133 3.81953 33.4978 3.56468 33.7199C3.44636 33.8354 3.85595 33.7554 3.5829 33.8709C3.39177 33.8887 3.15512 33.9242 2.91848 33.942L2.73643 33.9597C2.68182 33.9597 2.62721 33.9597 2.48159 33.9864C2.24495 34.013 1.98101 34.0131 1.72617 34.0219C1.88999 34.1108 1.62603 34.1285 1.39849 34.1552L1.28019 34.0752C1.28019 34.0752 1.20737 34.0841 1.18006 34.093C1.25288 34.9192 0.970721 34.2262 1.06174 35.2301L0.998047 35.1235C1.06176 35.2301 1.12546 35.3278 1.18917 35.4255C1.20738 35.5321 1.22557 35.621 1.23467 35.6832C1.23467 35.7276 1.23467 35.7542 1.23467 35.7809C1.23467 35.8342 1.20738 35.8697 1.18917 35.9053C1.15277 35.9763 1.11636 36.0563 1.24378 36.3139C1.22558 36.1096 1.44401 36.2162 1.4076 36.4738L1.31658 36.4116C1.33478 36.5537 1.3712 36.5982 1.353 36.6959C1.30749 36.6159 1.22558 36.6515 1.24378 36.8558L1.13457 36.7137L1.29839 37.1046C1.20737 37.4066 1.32568 37.8863 1.19826 38.0107C1.19826 38.0107 1.13456 38.6592 1.27108 38.8102C1.18917 38.6769 1.15277 39.0412 1.05265 38.9346C1.14367 39.1211 1.22557 39.5653 1.12546 39.8318V39.7608C1.10725 39.9562 1.09814 40.1072 1.08904 40.2582C1.08904 40.3382 1.08904 40.4181 1.08904 40.4981C1.09814 40.5691 1.05264 40.6669 1.15276 40.7024C1.3985 40.8801 1.68065 41.0666 1.88999 41.1999C2.17214 41.3687 2.4452 41.5108 2.70005 41.7596C2.72735 41.6618 3.0095 41.9017 3.0095 41.7418C3.67392 42.0172 3.97428 42.639 4.41116 42.4258C4.70241 42.568 4.6933 42.6924 4.82982 42.7901L4.74791 42.7723C5.29401 43.0388 5.44872 43.1099 5.84009 43.3231C6.05853 43.3853 6.17687 43.2431 6.51363 43.4563C6.3589 43.4652 6.51362 43.5274 6.65015 43.5896C6.55913 43.5629 6.52272 43.5718 6.67745 43.6962C6.71386 43.6962 6.75937 43.6962 6.79578 43.6962V43.7139C7.03242 43.7939 7.00511 43.7584 6.90499 43.6962C6.91409 43.6962 6.90497 43.6695 6.88677 43.634C7.0779 43.8383 7.54209 43.9361 7.51478 44.0604C8.21561 44.3447 8.76171 44.4246 9.36241 44.6112C9.39882 44.7 9.2441 44.7001 9.06207 44.6556L9.48074 44.7978C9.44433 44.8866 9.2259 44.7533 9.08937 44.7178C9.51715 45.0643 10.1634 44.9577 10.7004 45.3041L10.846 45.2686L10.8733 45.2952C10.8733 45.2952 11.0371 45.2508 11.1281 45.2686C11.1827 45.3752 11.0553 45.4463 11.3557 45.5351C11.5559 45.695 12.0292 45.7039 12.3477 45.7483C12.1839 45.6861 12.2567 45.6595 12.3296 45.6506C12.4752 45.6861 12.5389 45.7927 12.6663 45.7927L12.6481 45.9082C12.6208 45.7927 13.0668 45.9082 13.1305 45.8727C13.1942 45.9793 12.8757 45.8816 12.8302 45.9349C13.4309 46.077 13.1305 46.0059 13.7403 46.1392C14.0771 46.1392 13.7039 46.0237 13.8859 45.9615C14.1681 46.0148 14.4684 45.9882 14.7779 46.1125L14.696 45.997C15.2421 46.0237 15.5515 46.0948 15.9065 46.2369C17.9634 46.077 18.1455 45.7305 17.8815 45.5618C17.6085 45.3663 16.8713 45.2419 16.8713 45.2419C15.415 44.8511 14.605 44.9932 12.8119 44.5934L12.8575 44.6112Z" fill="#8E8E8E"/>
</svg>
