<svg width="23" height="18" viewBox="0 0 23 18" fill="none" xmlns="http://www.w3.org/2000/svg">
<path fill-rule="evenodd" clip-rule="evenodd" d="M13.0722 2.30131H9.92866C9.9866 1.48278 10.6682 0.825884 11.5004 0.825884C12.3327 0.825884 13.0142 1.48279 13.0722 2.30131ZM18 7.02859C18 4.66337 16.263 2.70386 13.995 2.35615C13.9641 1.04962 12.8953 0 11.5813 0H11.4273C10.1138 0 9.04522 1.04892 9.01359 2.35483C6.74142 2.6989 5 4.66038 5 7.02858V15.5377C5 16.8431 6.05824 17.9013 7.36364 17.9013H15.6364C16.9418 17.9013 18 16.8431 18 15.5377V7.02859ZM8.25 13.0259C8.25 13.2052 8.39538 13.3506 8.57471 13.3506H13.4505V13.6749C13.4505 13.8544 13.596 13.9999 13.7755 13.9999C13.955 13.9999 14.1005 13.8544 14.1005 13.6749V13.3506H14.4259C14.6053 13.3506 14.7506 13.2052 14.7506 13.0259C14.7506 12.8465 14.6053 12.7012 14.4259 12.7012H8.57471C8.39538 12.7012 8.25 12.8465 8.25 13.0259Z" fill="white"/>
</svg>
