<svg width="71" height="71" viewBox="0 0 71 71" fill="none" xmlns="http://www.w3.org/2000/svg">
<path d="M22.3301 37.5762C22.3301 37.5762 22.4001 37.6262 22.4301 37.6562C22.4301 37.6362 22.4101 37.6062 22.3301 37.5762Z" fill="#8E8E8E"/>
<path d="M12.02 46.5866C12.02 46.5866 12.01 46.5666 12 46.5566C12 46.5766 12.02 46.5866 12.02 46.5866Z" fill="#8E8E8E"/>
<path d="M25.0202 41.2756L24.9902 41.2656L25.0202 41.2756Z" fill="#8E8E8E"/>
<path d="M20.6294 38.6264C21.3094 38.7864 21.7094 38.9764 22.0994 39.1864C22.4894 39.3864 22.8694 39.6164 23.4794 39.9564C24.0294 40.3364 24.5894 40.7864 25.0194 41.2764C25.3494 41.4164 25.5294 41.9564 25.8094 42.2164L25.7894 42.3864C25.8894 42.4764 25.9794 42.5964 25.9794 42.7364H25.9494C26.0894 42.8864 26.1194 43.0964 26.1694 43.1764H26.1394L26.2094 43.3864L26.1594 43.3564C26.3194 43.6464 26.3694 43.9764 26.3494 44.2664L26.4594 44.2364C26.3494 44.8464 26.5694 45.1064 26.2794 45.6264H26.2494C26.2994 45.9964 26.1494 46.2564 25.9594 46.4764C25.7894 46.7164 25.5894 46.9064 25.4794 47.2964C25.5094 47.2064 25.4094 47.2964 25.3894 47.2664C25.1994 47.5564 24.9494 47.8364 25.0994 47.9964C24.9094 48.1764 24.8994 48.0964 24.8094 48.0564C24.8794 48.1364 24.7394 48.3164 24.5694 48.4464L24.6194 48.3564C24.4694 48.4864 24.3294 48.6264 24.1594 48.7564L24.3694 48.8364C24.0594 48.9764 24.1694 48.6964 23.9294 48.9164L24.0194 49.0464C23.6194 49.2764 23.2694 49.2464 22.8294 49.3564C22.0394 49.8064 21.2294 50.2364 20.3794 50.5464C19.5394 50.8664 18.6294 50.9564 17.8694 50.7264L17.8194 50.6064C17.8194 50.4464 17.3594 50.7864 17.3294 50.6064L17.1294 50.6464C17.1294 50.6464 16.9894 50.5464 17.0894 50.5364C16.9294 50.4864 16.9294 50.4964 16.7994 50.5064L16.6694 50.3464C16.1194 50.0264 15.5394 49.9164 15.0394 49.3964C14.8294 49.0164 14.4194 48.5864 14.0894 48.0564C13.7494 47.5364 13.4294 46.9764 13.2594 46.5264C12.9594 45.9164 12.9394 45.1464 13.0594 44.4264C13.1694 43.7064 13.3894 43.0364 13.4494 42.3664C13.4894 42.3364 13.4794 42.2064 13.4494 42.2064C13.5894 41.8264 13.7694 41.4564 13.9894 41.1164C13.9894 41.1164 14.1694 40.7964 14.4694 40.4164C14.7494 40.0264 15.1794 39.6164 15.4994 39.2664C15.8494 38.9564 16.0694 38.6664 15.9094 38.5364C15.7594 38.4464 15.1394 38.3564 13.8894 39.0464V38.9964C13.2394 39.5064 12.9294 39.9664 12.7994 40.5364C12.5394 40.4964 12.4794 41.1264 12.3194 41.2564V41.2364C12.2794 41.7564 11.8094 42.1564 11.8594 42.6664C11.8494 42.6464 11.7894 42.6164 11.8094 42.5164C11.7394 42.8664 11.7394 43.3464 11.5994 43.3564C11.4994 44.1864 11.5094 45.3764 11.8194 45.8664L11.7794 45.8364C11.9794 46.1064 11.8694 46.2164 12.0094 46.5264C11.9994 46.5464 11.9994 46.5764 11.9894 46.5664C12.1994 46.8464 12.2794 47.4764 12.4394 47.6964L12.3594 47.7464C12.4394 47.9464 12.5494 48.1364 12.6494 48.3264L12.5594 48.0964C12.8194 48.0564 12.6194 48.6164 13.0194 48.9464C13.2394 49.3464 13.9294 49.3864 14.1294 49.7664C14.3594 49.8464 13.8694 49.7664 14.1494 49.9264C14.0694 50.0264 13.9894 49.8764 13.9694 50.0064C14.2194 50.2064 14.2594 50.4664 14.6194 50.6664L14.5694 50.7564C15.0894 50.9264 15.3294 51.4364 15.7394 51.4364C16.2594 51.5964 15.9694 51.8564 16.5694 51.8764C16.6294 51.9464 16.6894 51.9964 16.7494 52.0664C16.9894 52.1464 16.9594 51.9464 17.2194 52.0664C17.1894 52.1564 17.5494 52.1964 17.3794 52.2564C17.9994 52.4664 18.6494 52.2064 19.4694 52.3164C19.6194 52.1264 20.0394 52.1864 20.1394 52.0164C20.1694 52.0864 20.9194 51.8364 20.5194 52.0964C20.4894 52.1164 20.4194 52.1364 20.4194 52.0964L20.3894 52.2064C20.8894 52.2864 21.1694 51.8964 21.5894 51.7664C21.4494 51.7764 21.2894 51.8464 21.3794 51.7464L21.7694 51.6164L21.7194 51.7264C21.9194 51.6764 22.1194 51.6064 22.3094 51.5364L22.1894 51.4764C22.4794 51.3964 22.6494 51.5064 22.8994 51.2364C22.9994 51.0964 22.5794 51.2364 22.8494 51.0764C23.2194 50.9564 23.7994 50.7564 24.2394 50.5064C24.1394 50.4364 24.2494 50.3664 24.3494 50.2664L24.4194 50.3364C24.7794 49.9264 24.6994 50.4064 25.0794 50.0164V50.0964V49.8464C25.3494 49.3864 25.4194 49.8464 25.6794 49.2864C25.5194 49.4364 25.4594 49.1964 25.6794 49.0464L25.6994 49.1664C25.7894 49.0464 25.7994 48.9864 25.8894 48.9264C25.8594 49.0264 25.9494 49.0564 26.0994 48.8964L26.0794 49.0864L26.2494 48.6664C26.5394 48.4864 26.7694 48.0164 26.9494 47.9664C26.9494 47.9664 27.0594 47.8264 27.1694 47.6564C27.2794 47.4864 27.3494 47.2764 27.3294 47.1664C27.3394 47.3364 27.5594 46.9964 27.6094 47.1464C27.6094 46.9364 27.7294 46.3864 27.8994 46.2064V46.2564C28.2594 45.4664 28.0294 44.8264 28.1394 44.1064C28.0294 44.1464 28.0594 43.7564 27.9194 43.8664C27.6994 43.1664 27.9294 42.4464 27.4094 42.3564C27.2694 42.0664 27.3694 41.9564 27.3194 41.7864L27.3794 41.8464C27.0794 41.3064 26.9794 41.1564 26.7394 40.7664C26.5694 40.6064 26.3794 40.7064 26.1794 40.3564C26.3194 40.4064 26.2194 40.2864 26.1094 40.1764C26.1794 40.2364 26.2294 40.2464 26.1394 40.0564C26.0994 40.0564 26.0594 40.0264 26.0194 40.0064C26.0194 40.0064 26.0194 39.9964 26.0294 39.9864C25.8394 39.8164 25.8494 39.8664 25.9194 39.9664C25.9094 39.9664 25.8994 39.9864 25.9094 40.0264C25.8294 39.7464 25.3994 39.5264 25.4794 39.3964C24.8994 38.9164 24.3794 38.7164 23.8294 38.4564C23.8094 38.3564 23.9694 38.3764 24.1394 38.4464L23.7494 38.2464C23.8094 38.1564 23.9994 38.3264 24.1294 38.3764C23.7594 37.9464 23.1094 37.9964 22.5994 37.6364L22.4494 37.6664L22.4194 37.6364C22.4194 37.6364 22.2594 37.6964 22.1694 37.6764C22.1194 37.5664 22.2394 37.4764 21.9494 37.3864C21.7494 37.2164 21.2694 37.2564 20.9594 37.2464C21.1194 37.2864 21.0594 37.3364 20.9794 37.3464C20.8294 37.3264 20.7594 37.2264 20.6394 37.2464V37.1164C20.6794 37.2464 20.2394 37.1764 20.1794 37.2364C20.0994 37.1364 20.4194 37.1764 20.4694 37.1164C19.8594 37.0664 20.1694 37.0964 19.5594 37.0664C19.2394 37.1664 19.6194 37.1864 19.4594 37.2964C19.1794 37.3364 18.9094 37.4064 18.5894 37.3664L18.6994 37.4664C18.1894 37.5964 17.8994 37.6364 17.5294 37.5964C16.6294 38.0264 16.2394 38.4164 16.0694 38.6364C15.8994 38.8664 15.9694 38.9864 16.1294 39.0264C16.2894 39.0764 16.5294 39.0564 16.7294 39.0264C16.9494 38.9964 17.0994 38.9764 17.0994 38.9764C17.7694 38.9064 18.2394 38.8164 18.7594 38.7064C19.2694 38.6164 19.8394 38.4864 20.6394 38.5764L20.6294 38.6264Z" fill="#8E8E8E"/>
<path d="M34.3984 27.3965C34.3984 27.3965 34.4785 27.4365 34.5085 27.4565C34.5085 27.4365 34.4784 27.4065 34.3984 27.3965Z" fill="#8E8E8E"/>
<path d="M25.9185 38.145C25.9185 38.145 25.9084 38.135 25.8984 38.125C25.9084 38.145 25.9185 38.145 25.9185 38.145Z" fill="#8E8E8E"/>
<path d="M37.7294 30.5452H37.7194L37.6895 30.5352L37.7294 30.5452Z" fill="#8E8E8E"/>
<path d="M32.9192 28.7459C33.6192 28.7759 34.0492 28.8959 34.4692 29.0259C34.8892 29.1459 35.2992 29.3059 35.9692 29.5259C36.5792 29.8059 37.2092 30.1359 37.7292 30.5459C38.0792 30.6259 38.3592 31.1259 38.6792 31.3259V31.4959C38.8092 31.5659 38.9192 31.6659 38.9392 31.8059H38.9092C39.0692 31.9259 39.1392 32.1359 39.2092 32.1959H39.1792L39.2892 32.3959L39.2392 32.3759C39.4492 32.6259 39.5592 32.9459 39.5892 33.2359L39.6992 33.1859C39.6992 33.8059 39.9692 34.0259 39.7692 34.5859H39.7392C39.8592 34.9359 39.7592 35.2259 39.6192 35.4859C39.4892 35.7459 39.3292 35.9759 39.2992 36.3859C39.3092 36.2859 39.2292 36.3859 39.2092 36.3759C39.0792 36.6959 38.8792 37.0159 39.0592 37.1459C38.8992 37.3659 38.8792 37.2759 38.7892 37.2559C38.8792 37.3159 38.7692 37.5259 38.6292 37.6859L38.6592 37.5859C38.5292 37.7459 38.4292 37.9059 38.2792 38.0659L38.4992 38.1059C38.2192 38.3059 38.2692 38.0059 38.0792 38.2659L38.1892 38.3759C37.8292 38.6759 37.4892 38.7159 37.0792 38.8959C36.3892 39.4859 35.6592 40.0459 34.8892 40.5159C34.1192 40.9859 33.2392 41.2359 32.4492 41.1459L32.3792 41.0359C32.3492 40.8859 31.9592 41.2959 31.8992 41.1259L31.7092 41.1959C31.7092 41.1959 31.5592 41.1259 31.6492 41.0959C31.4892 41.0759 31.4792 41.0959 31.3592 41.1259L31.1992 40.9959C30.5992 40.7859 30.0092 40.7859 29.4292 40.3659C29.1492 40.0359 28.6792 39.6859 28.2592 39.2259C27.8292 38.7859 27.4092 38.2859 27.1692 37.8759C26.7592 37.3259 26.5992 36.5759 26.5892 35.8559C26.5692 35.1259 26.6592 34.4359 26.5892 33.7659C26.6192 33.7259 26.5892 33.6059 26.5692 33.6059C26.6392 33.2059 26.7492 32.8159 26.8992 32.4359C26.8992 32.4359 27.0092 32.0859 27.2392 31.6659C27.4392 31.2259 27.7892 30.7459 28.0392 30.3459C28.3292 29.9759 28.4892 29.6559 28.3092 29.5559C28.1492 29.4859 27.5192 29.5259 26.4192 30.4259V30.3759C25.8592 30.9959 25.6392 31.5059 25.6192 32.0859C25.3492 32.0859 25.4092 32.7259 25.2792 32.8859V32.8659C25.3392 33.3759 24.9492 33.8659 25.0892 34.3559C25.0692 34.3359 25.0092 34.3259 25.0092 34.2159C25.0092 34.5659 25.0992 35.0459 24.9492 35.0759C25.0092 35.9159 25.2392 37.0859 25.6192 37.5059L25.5692 37.4859C25.8192 37.7159 25.7292 37.8459 25.9192 38.1259C25.9192 38.1459 25.9192 38.1759 25.9092 38.1759C26.1692 38.4159 26.3592 39.0159 26.5592 39.1959L26.4892 39.2559C26.5992 39.4459 26.7492 39.6059 26.8792 39.7759L26.7492 39.5659C26.9992 39.4859 26.9092 40.0659 27.3592 40.3159C27.6492 40.6759 28.3292 40.5759 28.5992 40.9159C28.8392 40.9459 28.3392 40.9559 28.6492 41.0759C28.5792 41.1859 28.4792 41.0559 28.4892 41.1859C28.7692 41.3359 28.8592 41.5859 29.2492 41.7159L29.2192 41.8159C29.7592 41.8859 30.0892 42.3459 30.4892 42.2659C31.0292 42.3259 30.7892 42.6359 31.3892 42.5459C31.4592 42.6059 31.5292 42.6459 31.5992 42.6959C31.8492 42.7259 31.7892 42.5359 32.0592 42.6159C32.0392 42.7059 32.4092 42.6859 32.2492 42.7659C32.8992 42.8559 33.4892 42.4759 34.3092 42.4459C34.4192 42.2259 34.8492 42.2059 34.9092 42.0259C34.9592 42.0859 35.6392 41.7059 35.2992 42.0259C35.2692 42.0559 35.2092 42.0759 35.1992 42.0559V42.1659C35.6992 42.1559 35.8992 41.7259 36.2892 41.5159C36.1592 41.5559 36.0092 41.6459 36.0792 41.5359L36.4392 41.3359L36.4092 41.4459C36.5992 41.3559 36.7792 41.2559 36.9492 41.1459L36.8192 41.1059C37.0892 40.9759 37.2792 41.0559 37.4692 40.7459C37.5392 40.5959 37.1592 40.7959 37.3892 40.5959C37.7292 40.4059 38.2592 40.1059 38.6492 39.7859C38.5392 39.7359 38.6392 39.6459 38.7192 39.5259L38.7992 39.5859C39.0792 39.1159 39.0892 39.6059 39.3892 39.1559L39.4092 39.2359L39.3592 38.9959C39.5392 38.4959 39.6892 38.9259 39.8492 38.3359C39.7192 38.5059 39.6192 38.2859 39.8092 38.0959L39.8492 38.2059C39.9192 38.0759 39.9192 38.0059 39.9892 37.9359C39.9892 38.0359 40.0792 38.0559 40.1892 37.8659V38.0559L40.2992 37.6159C40.5492 37.3859 40.6992 36.8759 40.8592 36.8059C40.8592 36.8059 40.9492 36.6459 41.0192 36.4659C41.0992 36.2859 41.1292 36.0559 41.0892 35.9559C41.1392 36.1259 41.2892 35.7459 41.3592 35.8859C41.3292 35.6759 41.3292 35.1159 41.4692 34.9059V34.9459C41.6792 34.1059 41.3392 33.5259 41.3192 32.7859C41.2192 32.8459 41.1792 32.4559 41.0592 32.5859C40.7192 31.9359 40.8092 31.1959 40.2792 31.1959C40.0792 30.9359 40.1692 30.8059 40.0892 30.6559L40.1592 30.7059C39.7592 30.2259 39.6392 30.1059 39.3292 29.7659C39.1392 29.6359 38.9592 29.7659 38.7092 29.4659C38.8592 29.4859 38.7292 29.3859 38.6092 29.2959C38.6892 29.3459 38.7392 29.3359 38.6092 29.1759C38.5692 29.1759 38.5292 29.1659 38.4892 29.1459V29.1259C38.2692 28.9959 38.2892 29.0459 38.3792 29.1259C38.3692 29.1259 38.3692 29.1559 38.3792 29.1959C38.2492 28.9359 37.7892 28.7959 37.8492 28.6459C37.1892 28.2759 36.6392 28.1759 36.0492 28.0259C36.0092 27.9359 36.1692 27.9159 36.3492 27.9559L35.9292 27.8259C35.9692 27.7259 36.1892 27.8559 36.3192 27.8859C35.8792 27.5259 35.2392 27.6959 34.6792 27.4359L34.5392 27.4959L34.5092 27.4759C34.5092 27.4759 34.3592 27.5659 34.2692 27.5659C34.1992 27.4659 34.3092 27.3559 33.9992 27.3259C33.7692 27.1959 33.3092 27.3259 32.9992 27.3659C33.1692 27.3759 33.1092 27.4359 33.0392 27.4659C32.8892 27.4659 32.7992 27.3859 32.6892 27.4259L32.6692 27.2959C32.7292 27.4159 32.2792 27.4359 32.2292 27.5059C32.1392 27.4159 32.4492 27.4059 32.4892 27.3359C31.8792 27.3959 32.1892 27.3659 31.5792 27.4559C31.2792 27.6159 31.6592 27.5659 31.5292 27.7059C31.2592 27.7959 31.0092 27.9059 30.6892 27.9359L30.8192 28.0159C30.3492 28.2359 30.0592 28.3259 29.6992 28.3559C28.8992 28.9359 28.5792 29.3959 28.4592 29.6459C28.3392 29.9059 28.4192 30.0059 28.5892 30.0159C28.7492 30.0359 28.9892 29.9759 29.1792 29.9159C29.3892 29.8459 29.5292 29.8059 29.5292 29.8059C30.1692 29.6059 30.6192 29.4359 31.1092 29.2359C31.5992 29.0459 32.1392 28.8159 32.9292 28.7659L32.9192 28.7459Z" fill="#8E8E8E"/>
<path d="M62.3398 47.1875L62.3998 47.2575C62.3998 47.2575 62.3998 47.2175 62.3398 47.1875Z" fill="#8E8E8E"/>
<path d="M63.5083 49.928V49.918H63.4883L63.5083 49.928Z" fill="#8E8E8E"/>
<path d="M61.2091 48.3872C61.9291 48.5772 62.0191 48.8472 62.6791 49.1872C62.8291 49.2972 62.9791 49.3972 63.1091 49.5372C63.2491 49.6572 63.4092 49.7772 63.5092 49.9172C63.7492 49.9572 63.7991 50.2972 63.9991 50.4172L63.9492 50.5272C64.0292 50.5672 64.0991 50.6272 64.0791 50.7172H64.0491C64.1491 50.7972 64.1391 50.9272 64.1891 50.9572H64.1591L64.2091 51.0772H64.1691C64.3191 51.2172 64.3391 51.4072 64.3291 51.5672L64.4391 51.5372C64.3791 51.8972 64.5691 52.0272 64.4191 52.3372H64.3892C64.5392 52.5472 64.4091 52.6972 64.3291 52.8372C64.2591 52.9872 64.1291 53.0872 64.1591 53.3372C64.1591 53.2772 64.0992 53.3372 64.0692 53.3172C64.0292 53.5072 63.9291 53.6872 64.1091 53.8172C64.0091 53.9372 63.9792 53.8772 63.8892 53.8372C63.9692 53.8972 63.9191 54.0272 63.8591 54.1172V54.0472C63.7991 54.1372 63.7491 54.2472 63.6791 54.3372L63.8691 54.4172C63.6891 54.5172 63.6692 54.2972 63.5692 54.4572L63.6791 54.5672C63.4591 54.7372 63.1891 54.6872 62.9191 54.7472C62.5091 55.0672 62.1191 55.4072 61.6891 55.6472C61.2591 55.8872 60.7692 55.9872 60.3792 55.7972L60.3591 55.6772C60.3791 55.5072 60.0991 55.8972 60.0991 55.7172L59.9891 55.7672C59.9891 55.7672 59.9291 55.6872 59.9891 55.6572C59.9091 55.6272 59.8992 55.6572 59.8192 55.6772L59.7791 55.5372C59.5291 55.3272 59.1591 55.3272 58.9091 54.9972C58.7291 54.5372 58.1291 53.8672 57.8491 53.3472C57.6091 53.0072 57.6191 52.5472 57.6791 52.1272C57.7391 51.6972 57.8591 51.3072 57.7691 50.9172C57.7991 50.8972 57.7591 50.8272 57.7391 50.8172C57.7891 50.5872 57.8591 50.3672 57.9391 50.1572C57.9391 50.1572 57.9991 49.9572 58.1191 49.7172C58.2191 49.4672 58.3992 49.1872 58.5092 48.9472C58.6392 48.7172 58.6991 48.4872 58.5491 48.3672C58.3991 48.2672 57.9591 48.1972 57.1691 48.7072L57.1491 48.6672C56.7791 49.0472 56.6291 49.3772 56.6791 49.7672C56.4291 49.7472 56.5391 50.1572 56.4291 50.2572L56.4091 50.2372C56.5091 50.5772 56.1391 50.8472 56.2791 51.1672C56.2591 51.1572 56.1992 51.1472 56.1992 51.0772C56.1992 51.2972 56.2591 51.5972 56.1191 51.6072C56.1391 52.1272 56.1791 52.8672 56.4691 53.1372H56.4291C56.6091 53.2672 56.5092 53.3572 56.6292 53.5272C56.6192 53.5472 56.6091 53.5572 56.5991 53.5572C56.7791 53.7072 56.8091 54.1072 56.9291 54.2272L56.8491 54.2672L57.0391 54.6272L56.9891 54.4872C57.2291 54.4272 56.9891 54.8272 57.2791 55.0072C57.4091 55.2672 57.9992 55.1772 58.0692 55.4372C58.2392 55.4572 57.8591 55.4672 58.0491 55.5572C57.9591 55.6472 57.9292 55.5372 57.8892 55.6472C58.0592 55.7572 58.0292 55.9772 58.2592 56.0872L58.1992 56.1672C58.5592 56.2372 58.6291 56.6672 58.9191 56.6272C59.2591 56.7072 59.0091 57.0072 59.4291 56.9772L59.5291 57.1472C59.6891 57.2172 59.6891 57.0272 59.8491 57.1372C59.8191 57.2172 60.0691 57.2472 59.9391 57.3072C60.3691 57.5272 60.7991 57.2072 61.3691 57.3472C61.4491 57.1572 61.7291 57.1872 61.7791 57.0472C61.8191 57.1272 62.2691 56.8772 62.0491 57.1272C62.0291 57.1472 61.9891 57.1672 61.9791 57.1272V57.2372C62.3291 57.2972 62.4691 56.9472 62.7191 56.8272C62.6291 56.8372 62.5292 56.8972 62.5692 56.8072L62.8091 56.6872V56.7872C62.9191 56.7372 63.0591 56.6872 63.1691 56.6272L63.0692 56.5672C63.2492 56.5072 63.4092 56.6072 63.5092 56.3672C63.5392 56.2472 63.2791 56.3672 63.4291 56.2172C63.6691 56.1272 64.0291 55.9672 64.2791 55.7772C64.1791 55.7172 64.2391 55.6572 64.2791 55.5772L64.3591 55.6372C64.4991 55.3072 64.5992 55.7072 64.7592 55.3972L64.7891 55.4672L64.6992 55.2572C64.7492 54.8772 64.9691 55.2572 64.9791 54.7972C64.9091 54.9172 64.7691 54.7172 64.8991 54.6072L64.9492 54.6972C64.9892 54.6072 64.9791 54.5572 65.0291 54.5272C65.0291 54.5972 65.1292 54.6272 65.1992 54.5072L65.2391 54.6472C65.2391 54.5372 65.2591 54.4372 65.2391 54.3272C65.4291 54.1872 65.4591 53.8372 65.6191 53.8072C65.6291 53.8072 65.8691 53.4072 65.7391 53.2572C65.7991 53.3772 65.8991 53.1372 65.9891 53.2372C65.9191 53.0872 65.9291 52.7372 66.0591 52.6072V52.6372C66.2091 52.1072 65.9891 51.7272 66.0391 51.2672C65.9291 51.3072 65.9592 51.0572 65.8192 51.1372C65.6292 50.7172 65.8691 50.2272 65.4091 50.2272C65.3291 50.0372 65.4092 49.9672 65.3892 49.8572L65.4291 49.8872C65.2091 49.5572 65.1791 49.4572 65.0291 49.2072C64.9091 49.1172 64.7191 49.2172 64.6191 48.9872C64.7291 48.9972 64.6591 48.9272 64.6091 48.8572C64.6591 48.8972 64.6891 48.8972 64.6591 48.7572C64.6291 48.7572 64.5991 48.7572 64.5791 48.7372C64.5791 48.7372 64.5791 48.7272 64.5891 48.7172C64.4691 48.6072 64.4691 48.6472 64.4991 48.7172C64.4891 48.7172 64.4791 48.7372 64.4691 48.7672C64.4491 48.5672 64.1491 48.4472 64.2491 48.3372C63.8991 48.0072 63.5091 47.9472 63.1791 47.7772C63.1791 47.6872 63.2891 47.6872 63.3991 47.7272C63.3191 47.6872 63.2391 47.6272 63.1591 47.5972C63.2191 47.4972 63.3291 47.6372 63.4091 47.6672C63.2291 47.3072 62.7192 47.4872 62.4492 47.1672L62.3391 47.2172L62.3192 47.1972C62.3192 47.1972 62.1992 47.2672 62.1392 47.2672C62.1192 47.1672 62.2091 47.0672 62.0191 47.0172C61.8891 46.8872 61.5791 46.9272 61.3691 46.9672C61.4791 46.9972 61.4292 47.0372 61.3792 47.0672C61.2892 47.0672 61.2391 46.9572 61.1591 46.9972V46.8672C61.1891 46.9872 60.8991 46.9672 60.8591 47.0172C60.8091 46.9172 61.0091 46.9472 61.0391 46.8872C60.6491 46.8672 60.8392 46.8572 60.4492 46.8972C60.2492 47.0072 60.4891 47.0172 60.3991 47.1272C60.2191 47.1672 60.0691 47.2672 59.8591 47.2172L59.9391 47.3172C59.6491 47.4772 59.4791 47.5272 59.2291 47.4772C58.3291 48.3772 58.5191 48.7072 58.7291 48.7872C58.9691 48.8872 59.3091 48.7972 59.3091 48.7972C60.0191 48.7572 60.2291 48.3272 61.0891 48.3272L61.2091 48.3872Z" fill="#8E8E8E"/>
<path d="M41.6914 18.2364L41.8014 18.2564C41.8014 18.2564 41.7714 18.2264 41.6914 18.2364Z" fill="#8E8E8E"/>
<path d="M41.1507 19.936C42.1307 19.596 42.4407 19.786 43.4507 19.656C43.6907 19.696 43.9507 19.676 44.2007 19.716C44.4407 19.766 44.7007 19.786 44.9307 19.846C45.1907 19.796 45.5307 20.046 45.8107 20.086L45.8507 20.226C45.9507 20.226 46.0607 20.266 46.1107 20.356L46.0907 20.376C46.2607 20.376 46.3407 20.526 46.4107 20.546L46.3907 20.566L46.5207 20.666H46.4707C46.5807 20.726 46.6907 20.796 46.7807 20.866C46.8607 20.946 46.9107 21.056 46.9607 21.146L47.0407 21.066C47.2307 21.486 47.4707 21.556 47.5007 21.996H47.4707C47.7207 22.186 47.6707 22.436 47.6707 22.646C47.6807 22.856 47.5807 23.066 47.7307 23.346C47.7007 23.276 47.6707 23.376 47.6407 23.366C47.6907 23.616 47.6407 23.896 47.8607 23.946C47.8107 24.146 47.7507 24.096 47.6607 24.096C47.7607 24.116 47.7607 24.296 47.7307 24.446L47.7107 24.366C47.6807 24.516 47.6807 24.666 47.6307 24.816L47.8407 24.786C47.7007 25.006 47.6007 24.776 47.5607 25.016L47.7107 25.066C47.5507 25.386 47.2707 25.496 47.0207 25.746C46.7207 26.366 46.4307 26.986 46.0507 27.546C45.6807 28.106 45.1607 28.566 44.5807 28.686L44.4907 28.606C44.4107 28.466 44.3007 28.946 44.2007 28.826L44.1007 28.946C44.1007 28.946 43.9707 28.906 44.0207 28.856C43.9007 28.876 43.9107 28.906 43.8307 28.976L43.6807 28.906C43.2207 28.906 42.8207 29.106 42.3007 28.966C42.0207 28.796 41.6107 28.666 41.1807 28.486C40.7607 28.296 40.3107 28.096 40.0107 27.896C39.5407 27.656 39.2307 27.156 39.0207 26.646C38.8107 26.126 38.6807 25.626 38.4007 25.196C38.4207 25.156 38.3407 25.096 38.3207 25.096C38.2407 24.796 38.2007 24.496 38.1807 24.196C38.1807 24.196 38.1507 23.926 38.1607 23.566C38.1607 23.206 38.2307 22.776 38.2507 22.416C38.3107 22.076 38.2907 21.776 38.0907 21.756C37.9207 21.746 37.4307 21.936 36.8807 22.936L36.8507 22.896C36.6507 23.516 36.6507 23.966 36.8707 24.386C36.6307 24.486 36.9207 24.906 36.8707 25.066H36.8507C37.1007 25.396 36.9107 25.886 37.2107 26.186C37.1907 26.186 37.1307 26.186 37.0907 26.116C37.2007 26.376 37.4307 26.676 37.3207 26.756C37.6407 27.336 38.1507 28.116 38.6007 28.276H38.5507C38.8207 28.346 38.7807 28.486 39.0207 28.616C39.0207 28.636 39.0207 28.656 39.0207 28.666C39.3007 28.726 39.6007 29.136 39.8107 29.196L39.7707 29.276C39.9107 29.376 40.0607 29.456 40.2107 29.536L40.0607 29.426C40.2507 29.236 40.3007 29.776 40.7307 29.786C41.0407 29.976 41.5507 29.586 41.8307 29.786C42.0207 29.716 41.6407 29.936 41.9007 29.906C41.8807 30.036 41.7707 29.956 41.8007 30.066C42.0507 30.066 42.1807 30.296 42.5107 30.236V30.336C42.9307 30.196 43.3107 30.506 43.5807 30.296C43.9907 30.166 43.9207 30.546 44.3307 30.256L44.5407 30.336C44.7407 30.286 44.6207 30.126 44.8507 30.116C44.8707 30.196 45.1407 30.076 45.0507 30.196C45.5907 30.096 45.8607 29.566 46.4807 29.316C46.4807 29.096 46.7807 28.956 46.7607 28.796C46.8207 28.836 47.1907 28.326 47.0707 28.696C47.0607 28.726 47.0207 28.766 47.0007 28.746L47.0407 28.846C47.4307 28.686 47.4007 28.276 47.6207 28.006C47.5307 28.076 47.4607 28.196 47.4607 28.076L47.6607 27.816L47.6907 27.916C47.8007 27.796 47.9007 27.666 47.9907 27.536H47.8707C48.0307 27.366 48.2207 27.376 48.2307 27.076C48.2207 26.936 48.0007 27.206 48.0907 26.976C48.2907 26.736 48.5907 26.356 48.7607 26.006C48.6407 26.006 48.6807 25.896 48.7007 25.786L48.8007 25.806C48.8207 25.366 49.0607 25.736 49.1007 25.316L49.1507 25.376L48.9907 25.206C48.9007 24.776 49.2407 25.056 49.0907 24.556C49.0707 24.726 48.8607 24.586 48.9507 24.386L49.0307 24.456C49.0307 24.336 49.0107 24.296 49.0407 24.216C49.0807 24.296 49.1707 24.276 49.1907 24.106L49.2807 24.246L49.1807 23.896C49.3007 23.646 49.1807 23.226 49.3207 23.126C49.3207 23.126 49.3407 22.986 49.3407 22.826C49.3607 22.666 49.2707 22.496 49.2007 22.436C49.3107 22.536 49.2907 22.216 49.4107 22.286C49.2807 22.146 49.1207 21.736 49.1707 21.536L49.2007 21.566C49.0407 20.896 48.6307 20.576 48.3707 20.046C48.2907 20.136 48.1607 19.846 48.0907 20.006C47.6307 19.666 47.5107 19.026 47.0807 19.246C46.8507 19.126 46.8807 18.996 46.7807 18.906H46.8507C46.4107 18.686 46.3007 18.616 45.9607 18.476C45.7707 18.446 45.6707 18.636 45.4007 18.476C45.5207 18.436 45.4007 18.396 45.2907 18.356C45.3607 18.366 45.4007 18.336 45.2707 18.246C45.2407 18.266 45.2007 18.276 45.1707 18.276C45.1707 18.276 45.1707 18.266 45.1707 18.256C44.9707 18.236 45.0007 18.276 45.0807 18.306C45.0807 18.316 45.0807 18.336 45.1007 18.366C44.9307 18.216 44.5507 18.246 44.5507 18.096C44.2607 18.026 44.0007 18.096 43.7607 18.116C43.5207 18.156 43.3007 18.166 43.0607 18.226C43.0007 18.156 43.1107 18.076 43.2507 18.036L42.9107 18.096C42.9107 17.986 43.1107 18.016 43.2107 17.986C42.7807 17.866 42.3707 18.186 41.8807 18.166L41.8007 18.276H41.7707C41.7707 18.276 41.6907 18.396 41.6307 18.426C41.5407 18.356 41.5807 18.216 41.3507 18.286C41.1307 18.226 40.8507 18.506 40.6507 18.646C40.7807 18.606 40.7607 18.676 40.7207 18.726C40.6107 18.776 40.5107 18.726 40.4507 18.786L40.3907 18.676C40.4807 18.766 40.1607 18.916 40.1507 18.986C40.0407 18.936 40.2807 18.836 40.2707 18.766C39.8407 18.986 40.0607 18.886 39.6607 19.146C39.5007 19.366 39.7607 19.216 39.7207 19.376C39.5607 19.526 39.4107 19.686 39.1907 19.796L39.3207 19.826C39.0807 20.166 38.9107 20.316 38.6307 20.426C38.0307 21.866 38.3007 22.126 38.5607 22.066C38.8407 22.016 39.2007 21.686 39.2007 21.686C39.9907 21.116 40.1207 20.546 41.1507 19.946V19.936Z" fill="#8E8E8E"/>
<path d="M46.7695 47.836L46.8696 47.856C46.8696 47.856 46.8395 47.826 46.7695 47.836Z" fill="#8E8E8E"/>
<path d="M49.6489 49.4355L49.6289 49.4455L49.6489 49.4355Z" fill="#8E8E8E"/>
<path d="M46.3391 49.5062C47.1991 49.2062 47.4691 49.4062 48.3491 49.2762C48.7791 49.3062 49.2292 49.3362 49.6392 49.4362C49.8692 49.3762 50.1591 49.6062 50.4091 49.6362L50.4392 49.7662C50.5292 49.7662 50.6291 49.7862 50.6691 49.8762L50.6491 49.8962C50.7991 49.8962 50.8691 50.0262 50.9291 50.0362L50.9091 50.0562L51.0191 50.1462H50.9791C51.1891 50.2362 51.3491 50.3862 51.4091 50.5662L51.4891 50.4862C51.6391 50.8662 51.8692 50.9062 51.8892 51.2962H51.8591C52.0991 51.4562 52.0391 51.6762 52.0391 51.8562C52.0391 52.0362 51.9491 52.2262 52.0991 52.4662C52.0691 52.4062 52.0392 52.4862 52.0092 52.4862C52.0592 52.7062 52.0191 52.9462 52.2391 52.9962C52.1991 53.1662 52.1391 53.1262 52.0391 53.1262C52.1391 53.1462 52.1391 53.3062 52.1191 53.4462L52.0991 53.3762C52.0791 53.5062 52.0791 53.6362 52.0291 53.7762L52.2391 53.7562C52.1091 53.9562 51.9991 53.7362 51.9691 53.9562L52.1191 54.0062C51.9791 54.2962 51.6991 54.3862 51.4691 54.5962C51.2091 55.1462 50.9491 55.6962 50.6191 56.1962C50.2991 56.6962 49.8391 57.0962 49.3291 57.1862L49.2391 57.1062C49.1591 56.9662 49.0892 57.4362 48.9992 57.3062L48.9191 57.4262C48.9191 57.4262 48.7991 57.3862 48.8491 57.3362C48.7491 57.3562 48.7492 57.3762 48.6892 57.4462L48.5592 57.3662C48.1592 57.3462 47.8091 57.5562 47.3591 57.4262C47.1191 57.2662 46.7592 57.1462 46.3792 56.9962C46.0092 56.8362 45.6091 56.6662 45.3391 56.4862C44.9191 56.2862 44.6491 55.8362 44.4791 55.3762C44.2991 54.9162 44.2092 54.4662 43.9392 54.1062C43.9592 54.0762 43.8891 54.0162 43.8691 54.0262C43.7991 53.7662 43.7692 53.4962 43.7492 53.2362C43.7492 53.2362 43.7191 52.9962 43.7391 52.6862C43.7391 52.3762 43.7892 51.9962 43.8092 51.6762C43.8492 51.3662 43.8192 51.1062 43.6292 51.0662C43.4592 51.0462 42.9991 51.1962 42.4591 52.1062L42.4291 52.0762C42.2391 52.6362 42.2392 53.0462 42.4492 53.4262C42.2092 53.5162 42.4992 53.8962 42.4492 54.0462H42.4291C42.6791 54.3362 42.4792 54.7862 42.7492 55.0562C42.7292 55.0562 42.6692 55.0662 42.6392 54.9962C42.7492 55.2262 42.9591 55.4962 42.8391 55.5762C43.1291 56.0962 43.5892 56.8162 44.0092 56.9462H43.9691C44.2191 57.0062 44.1791 57.1362 44.3991 57.2462C44.3991 57.2662 44.3991 57.2862 44.3991 57.2862C44.6691 57.3362 44.9191 57.7062 45.1191 57.7562L45.0791 57.8362C45.2091 57.9262 45.3391 57.9962 45.4791 58.0662L45.3391 57.9662C45.5191 57.7762 45.5492 58.2962 45.9392 58.2862C46.2192 58.4562 46.6992 58.0562 46.9492 58.2462C47.1192 58.1662 46.7792 58.3962 47.0092 58.3662C46.9892 58.4962 46.8891 58.4162 46.9191 58.5362C47.1491 58.5362 47.2592 58.7562 47.5592 58.6962V58.7962C47.9392 58.6562 48.2791 58.9662 48.5291 58.7562C48.8991 58.6362 48.8491 59.0162 49.2191 58.7262L49.4191 58.8162C49.5991 58.7762 49.4892 58.6162 49.6992 58.6062C49.7192 58.6862 49.9592 58.5762 49.8892 58.6962C50.3892 58.6162 50.6192 58.1062 51.1992 57.9062C51.1792 57.6962 51.4692 57.5762 51.4392 57.4162C51.4992 57.4562 51.8291 56.9962 51.7291 57.3362C51.7291 57.3662 51.6891 57.4062 51.6691 57.3762L51.7191 57.4762C52.0891 57.3462 52.0391 56.9562 52.2391 56.7062C52.1591 56.7662 52.0891 56.8762 52.0891 56.7662L52.2691 56.5362L52.2991 56.6362C52.3991 56.5262 52.4991 56.4062 52.5791 56.2862H52.4591C52.6091 56.1262 52.7991 56.1462 52.7891 55.8662C52.7691 55.7362 52.5691 55.9762 52.6491 55.7662C52.8391 55.5562 53.1091 55.2162 53.2791 54.8962C53.1591 54.8862 53.1991 54.7962 53.2091 54.6962L53.3092 54.7262C53.3092 54.3262 53.5591 54.6762 53.5891 54.2862L53.6392 54.3362L53.4791 54.1762C53.3791 53.7762 53.7292 54.0462 53.5592 53.5862C53.5392 53.7462 53.3291 53.6062 53.4091 53.4362L53.4891 53.5062C53.4891 53.3962 53.4591 53.3562 53.4891 53.2962C53.5291 53.3662 53.6192 53.3562 53.6392 53.1962L53.7391 53.3162L53.6292 52.9962C53.7492 52.7762 53.6292 52.3862 53.7592 52.2962C53.7592 52.2962 53.7791 52.1662 53.7791 52.0262C53.7891 51.8862 53.7192 51.7262 53.6392 51.6762C53.7492 51.7662 53.7291 51.4762 53.8491 51.5362C53.7191 51.4062 53.5692 51.0362 53.6292 50.8562L53.6491 50.8762C53.5191 50.2562 53.1192 49.9762 52.8892 49.4862C52.8092 49.5762 52.6891 49.3062 52.6191 49.4562C52.1891 49.1562 52.1092 48.5462 51.6992 48.7762C51.4892 48.6762 51.5292 48.5462 51.4392 48.4562H51.4992C51.0992 48.2562 50.9992 48.1962 50.6892 48.0662C50.5192 48.0462 50.4191 48.2362 50.1791 48.0762C50.2891 48.0362 50.1791 47.9962 50.0791 47.9662C50.1491 47.9762 50.1792 47.9462 50.0592 47.8562C50.0292 47.8762 49.9991 47.8862 49.9691 47.8862C49.9691 47.8862 49.9691 47.8762 49.9691 47.8662C49.7891 47.8562 49.8092 47.8862 49.8892 47.9162C49.8892 47.9262 49.8891 47.9462 49.8991 47.9762C49.7491 47.8262 49.3991 47.8662 49.4091 47.7262C48.8691 47.6662 48.4792 47.7962 48.0592 47.8662C48.0092 47.7962 48.1091 47.7162 48.2291 47.6862L47.9191 47.7362C47.9191 47.6262 48.0992 47.6562 48.1892 47.6262C47.7992 47.4962 47.4291 47.8262 46.9891 47.7862L46.9191 47.8862H46.8892C46.8892 47.8862 46.8192 48.0062 46.7592 48.0362C46.6792 47.9562 46.7092 47.8262 46.4992 47.8862C46.2992 47.8262 46.0491 48.0862 45.8691 48.2262C45.9891 48.1962 45.9692 48.2562 45.9392 48.3062C45.8392 48.3462 45.7492 48.2862 45.6892 48.3562L45.6292 48.2462C45.7192 48.3362 45.4291 48.4762 45.4191 48.5362C45.3191 48.4762 45.5291 48.3962 45.5191 48.3262C45.1291 48.5262 45.3291 48.4362 44.9691 48.6762C44.8291 48.8862 45.0691 48.7562 45.0391 48.9062C44.8891 49.0462 44.7692 49.1962 44.5592 49.2862L44.6791 49.3262C44.4691 49.6362 44.3192 49.7662 44.0592 49.8562C43.5492 51.1762 43.8391 51.4162 44.0791 51.3762C44.3491 51.3462 44.6691 51.0562 44.6691 51.0562C45.3891 50.5762 45.4591 50.0562 46.3691 49.5162L46.3391 49.5062Z" fill="#8E8E8E"/>
<path d="M13.9791 55.2763L13.6191 55.2363C13.6191 55.2363 13.7191 55.2763 13.9791 55.2763Z" fill="#8E8E8E"/>
<path d="M51.0202 26.9258L50.9902 27.0058C51.0202 26.9558 51.0202 26.9358 51.0202 26.9258Z" fill="#8E8E8E"/>
<path d="M7.93039 48.6758L7.92038 48.6858L7.90039 48.7758L7.93039 48.6758Z" fill="#8E8E8E"/>
<path d="M18.0601 53.3664C15.8001 53.7564 14.3401 53.7364 12.8801 53.7064C11.4301 53.5964 9.94007 53.5364 7.68007 52.9964C7.20007 52.8464 6.41006 52.6364 6.57006 52.6464C6.55006 52.6264 6.51006 52.5664 6.51006 52.4964C6.51006 52.4564 6.51007 52.4264 6.52007 52.3864V52.3564L6.57006 52.2464L6.65007 52.0364C7.10007 50.9064 7.52005 49.7664 7.91005 48.6864C8.14005 47.6064 8.95007 45.8564 9.30007 44.6464L9.57006 44.2264C9.70006 43.8164 9.88006 43.3364 10.1001 42.9664V43.0064C10.3401 42.4064 10.6901 41.7864 10.8301 41.5064V41.5464L11.2301 40.8964L11.1901 41.0264C11.4201 40.5264 11.7801 40.1164 12.0901 39.6864C12.4501 39.3064 12.8001 38.9164 13.1801 38.6264L13.0401 38.5864C14.7201 37.3764 15.3501 36.8464 17.2101 36.2964L17.1901 36.3364C18.0201 35.8864 18.8201 35.7164 19.5601 35.5464C19.9301 35.4564 20.3201 35.4264 20.7001 35.3664L21.28 35.2864C21.51 35.2464 21.7401 35.2064 21.9801 35.1664C22.2001 35.1164 22.4201 35.0364 22.6001 34.8964C22.7801 34.7464 22.9301 34.5564 23.0401 34.3364C23.1701 34.0964 23.2101 33.9464 23.2601 33.7864C23.3101 33.6264 23.3501 33.4764 23.3801 33.3264C23.3001 33.6564 23.4901 33.2064 23.5001 33.2464C23.8401 32.0864 24.3701 31.0664 24.2001 30.9264C24.6301 30.2164 24.6201 30.3964 24.7501 30.3564C24.6601 30.3064 25.0401 29.6864 25.5001 29.2264C25.4401 29.3064 25.38 29.3864 25.33 29.4664C25.74 29.0064 26.2001 28.5864 26.6901 28.2064L26.28 28.2864C27.12 27.7264 26.6101 28.3064 27.3801 27.7364L27.2901 27.6064C28.5101 26.9064 29.3801 26.8064 30.6901 26.4864C31.3601 26.2864 32.0501 26.0964 32.7501 25.9364L33.28 25.8164C33.55 25.7564 33.8401 25.6464 34.0701 25.4864C34.3101 25.3264 34.5201 25.1164 34.6801 24.8664C34.7601 24.7464 34.8301 24.6064 34.8801 24.4764C34.9301 24.3464 34.9701 24.1764 34.9901 24.1064C35.3001 22.6964 35.8101 21.4164 36.6901 20.3764C38.4501 18.2664 41.3501 17.3264 43.9301 17.0064L44.1801 17.0864C44.2501 17.1664 44.58 17.0364 44.96 16.9064C45.36 16.7864 45.77 16.6264 45.9 16.6764C46.12 16.5964 46.3301 16.5164 46.5401 16.4164C46.7301 16.3964 47.1201 16.2764 46.8201 16.4364C47.4201 16.2264 47.4201 16.1864 47.8101 15.9564C48.0301 15.8964 48.24 15.8164 48.46 15.7464C49.02 15.4664 49.5201 15.1264 49.9701 14.7664C50.2001 14.5864 50.4101 14.3864 50.6301 14.1964L51.1701 13.6664C51.3401 13.5064 51.49 13.4864 51.65 13.5964C51.72 13.5964 51.9301 14.2764 51.9901 14.7864C52.0401 15.4564 52.0601 16.3064 52.0601 17.2564C52.0401 17.7264 52.0201 18.2064 52.0101 18.7064C51.9701 19.1964 51.9101 19.7064 51.8501 20.2064C51.5501 22.2264 50.8901 24.2164 50.2501 25.6164C49.4201 27.6064 47.98 29.5464 46.27 31.1064C45.85 31.4964 45.4001 31.8664 44.9401 32.1864C44.7201 32.3664 44.4801 32.4864 44.2501 32.6264C43.9501 32.7864 43.5401 33.1064 43.3101 33.4964C43.2501 33.5864 43.19 33.7064 43.15 33.7964L43.0601 33.9864L42.8801 34.3664C42.7501 34.6164 42.65 34.8864 42.52 35.1264C42.25 35.6164 42.0201 36.1264 41.7401 36.5864C41.6401 36.6864 41.4901 37.0264 41.5001 37.0364C40.7301 38.1264 39.8501 39.1364 38.8701 40.0364C38.8701 40.0364 38.64 40.2364 38.27 40.5664C37.88 40.8864 37.3301 41.3164 36.6801 41.7664C35.3701 42.6664 33.6001 43.5564 32.1701 44.0664C31.8001 44.2164 31.5101 44.2964 31.1601 44.4264C30.7501 44.5864 30.4801 44.8464 30.3201 45.0764C30.0001 45.5564 30.0601 45.8164 30.1901 45.7164C30.3401 45.6564 30.6601 45.0964 31.5501 45.0164C32.4701 44.9064 33.8601 44.6464 35.7001 43.8964L35.6201 43.9764C37.7401 42.9464 38.9601 42.0064 40.0101 40.7664C40.1801 40.7664 40.5301 40.4164 40.8901 40.0364C41.2201 39.6364 41.57 39.1964 41.77 39.0064L41.7501 39.0564C42.5201 37.8364 43.59 36.7064 44.08 35.3864C44.08 35.4464 44.1201 35.4964 43.9801 35.7864C44.1901 35.3264 44.4301 34.7864 44.6201 34.3564C44.7201 34.1464 44.9301 34.0364 44.9801 34.0764C47.0901 32.8064 49.3101 30.1164 49.9301 28.7064L49.9 28.8164C50.26 28.0064 50.5001 27.8564 50.9101 26.9664C50.9501 26.9264 50.9901 26.8764 50.9901 26.8864C51.3101 25.9864 52.18 24.3764 52.34 23.6064L52.4401 23.5864C52.6601 22.9964 52.79 22.3664 52.96 21.7564L52.7501 22.4364C52.5801 22.1464 53.3001 21.0864 53.3101 19.6764C53.5201 18.3764 52.98 17.0564 53.03 15.7564C52.87 15.1364 53.2601 16.2964 53.1001 15.3664C53.2301 15.3264 53.2201 15.8064 53.3001 15.5464C53.2301 15.0764 53.2201 14.6964 53.1701 14.2664C53.1401 14.0564 53.1101 13.8364 53.0401 13.5964C53.0101 13.4664 52.9701 13.3664 52.9101 13.2064C52.8401 13.0364 52.7601 12.8564 52.6201 12.7064L52.65 12.5864C52.25 12.1964 51.6701 12.0964 51.1801 12.1964C50.9401 12.2464 50.6801 12.3464 50.5001 12.4664C50.3101 12.5864 50.1301 12.7464 50.0401 12.8264C49.5801 13.2264 49.1401 13.5264 48.8201 13.8664C48.2601 14.3164 48.0001 14.3564 47.7601 14.4264C47.5101 14.4864 47.2901 14.5764 46.6401 14.9364C46.4501 14.9564 46.2501 14.9764 46.0601 14.9964C45.4601 15.1464 45.6801 15.2864 44.9801 15.3564C45.0301 15.2564 44.0401 15.4464 44.4701 15.2864C42.7201 15.4264 41.0201 16.0764 38.8001 16.8964C38.4001 17.2364 37.3301 17.7964 37.1001 18.1464C36.9501 18.0464 35.2901 19.7864 36.1701 18.7064C36.2501 18.6164 36.4101 18.4764 36.4201 18.5064L36.4801 18.3264C35.2801 19.1264 34.7601 20.2864 34.1801 21.5064C34.3801 21.1464 34.63 20.6664 34.52 21.0164C34.31 21.3864 34.1401 21.7764 33.9901 22.1664C33.9901 22.0764 33.9901 21.9864 34.0101 21.8964C33.7701 22.4764 33.56 23.0764 33.4 23.6464L33.5601 23.4264C33.5201 23.5264 33.49 23.6264 33.46 23.7164C33.42 23.8164 33.4201 23.7964 33.3901 23.8364C33.3501 23.8764 33.3001 23.9064 33.2601 23.9364C33.2101 23.9664 33.1701 23.9864 33.1201 24.0164C33.0901 24.0364 33.0701 24.0464 33.0401 24.0664C33.0201 24.0764 33.0201 24.0864 32.9801 24.0964C32.9301 24.1164 32.8701 24.1364 32.8101 24.1564C32.6001 24.2464 32.81 24.2364 32.96 24.2264C33.05 24.2264 33.0501 24.2264 33.0501 24.2464C33.0601 24.2464 32.9701 24.2864 32.7501 24.3464C31.5901 24.5064 29.8501 24.8764 28.4301 25.4764C28.6101 25.5264 28.2301 25.6864 27.8601 25.8964L27.77 25.8264C27.07 26.2664 26.92 26.3064 26.77 26.3364C26.61 26.3664 26.4401 26.3764 25.7901 26.9064L25.8701 26.7664C25.7901 26.9064 25.7201 27.0564 25.6401 27.1964C25.1201 27.7364 24.9501 27.8464 24.7501 27.9664C24.5701 28.0964 24.3401 28.2364 23.9201 28.9664C24.3301 28.4464 24.2701 28.8564 23.7601 29.4664L23.8001 29.2464C23.5501 29.6164 23.51 29.7664 23.33 30.0064C23.43 29.7564 23.2801 29.8064 22.9701 30.3864L23.09 29.9464C22.92 30.3364 22.7801 30.7364 22.6701 31.1264C22.4201 31.5364 22.2101 32.1064 22.0501 32.5964C21.8901 33.0664 21.7101 33.4864 21.6701 33.3964C21.6701 33.3964 21.6301 33.4664 21.5401 33.4664C21.4301 33.4864 21.3001 33.5064 21.1801 33.5364C21.0201 33.5664 20.87 33.6064 20.71 33.6364C20.41 33.7064 20.1601 33.7764 20.0401 33.8464C20.4101 33.6864 19.3401 33.8464 19.6201 33.6864C19.1501 33.9264 17.7101 34.3364 17.1001 34.4664L17.2101 34.4164C15.0201 35.0164 13.6401 36.0264 11.9701 37.2664C12.1001 37.2664 11.2801 38.0064 11.5801 37.9164C10.1901 39.5164 9.00006 40.8564 9.07006 41.7364C8.65006 42.5764 8.51007 42.6864 8.27007 43.1164L8.34008 42.9064C7.67008 44.5164 7.52008 44.9964 7.06008 46.1864C6.88008 46.7964 7.04006 46.9664 6.60006 48.0064C6.65006 47.6364 6.50006 48.0764 6.35006 48.4664C6.43006 48.2064 6.43007 48.1164 6.18007 48.6164C6.18007 48.6964 6.15008 48.8164 6.12008 48.9264C6.12008 48.9264 6.10006 48.9464 6.10006 48.9264C5.88006 49.5964 5.94006 49.4964 6.07006 49.1864C6.07006 49.2064 6.10005 49.1864 6.16005 49.0964C5.80005 49.7464 5.42008 50.9964 5.25008 51.0264C5.15008 51.2864 5.06005 51.5464 4.97005 51.7964C4.87005 52.1364 4.86005 52.5064 4.94005 52.8364C5.07005 53.4964 5.70007 54.0364 6.24007 54.1364C6.68007 54.2364 7.10008 54.3364 7.53008 54.4364C7.96008 54.5264 8.39008 54.5764 8.84008 54.6564C9.03008 54.7664 8.60006 54.7564 8.07006 54.6764L9.34008 54.8964C9.31008 55.0164 8.60006 54.8164 8.20006 54.7564C9.69006 55.2764 11.3601 55.0664 13.1401 55.2464L13.5101 55.1564H13.6201C13.6201 55.1564 14.0101 55.0564 14.2801 55.0364C14.5401 55.1164 14.2801 55.2664 15.1601 55.1864C15.5101 55.1864 16.0201 55.1564 16.5301 55.0564C17.0401 54.9464 17.5901 54.8164 18.0401 54.7264C17.5501 54.7864 17.7001 54.7064 17.9001 54.6464C18.3401 54.5764 18.6001 54.5864 18.9301 54.4764L19.0001 54.5864C18.8001 54.5064 20.1101 54.2164 20.2401 54.0964C20.5101 54.1164 19.6001 54.3664 19.5101 54.4464C20.3801 54.2464 20.5801 54.1264 20.8001 54.0764C21.0101 53.9964 21.2401 53.9664 22.0701 53.6364C22.9201 53.1964 21.8701 53.5864 22.2501 53.3164C22.6301 53.1464 23.0101 52.9764 23.3901 52.7864C23.7601 52.5764 24.1601 52.3764 24.6001 52.1864L24.28 52.2264C25.61 51.4164 26.3601 50.8764 27.2401 50.2864C29.3301 48.1964 29.7301 46.5564 29.9501 45.8664C30.1401 45.1364 29.9801 45.1064 29.7301 45.4564C29.4501 45.7564 29.0801 46.3764 28.7201 46.8664C28.3201 47.3564 28.0001 47.7464 28.0001 47.7464C26.5801 49.2664 25.2601 50.1764 23.8001 51.0664C22.3301 51.9464 20.6101 52.7164 18.0701 53.2964L18.0601 53.3664Z" fill="#8E8E8E"/>
</svg>
