<svg width="71" height="71" viewBox="0 0 71 71" fill="none" xmlns="http://www.w3.org/2000/svg">
<path d="M45.3008 30.7578L45.4169 30.7769C45.4169 30.7769 45.3812 30.7483 45.3008 30.7578Z" fill="#8E8E8E"/>
<path d="M49.9643 30.2461H49.9554L49.9375 30.2736L49.9643 30.2461Z" fill="#8E8E8E"/>
<path d="M44.14 32.3059C44.9439 32.2327 45.4619 32.1777 45.9799 32.0861C46.498 31.9945 47.025 31.8663 47.802 31.5C48.5612 31.1886 49.3115 30.7398 49.9546 30.2543C50.1868 29.9246 50.8031 29.6224 51.0621 29.2286L51.2408 29.1736C51.3212 29.0362 51.4373 28.8897 51.5802 28.8164V28.8439C51.7142 28.6424 51.9107 28.4684 51.9732 28.3585V28.3859L52.1697 28.1661V28.2302C52.393 27.8822 52.6163 27.5708 52.8664 27.3235L52.7681 27.2777C53.3308 26.774 53.3219 26.4168 53.8399 25.968L53.8578 25.9955C54.1436 25.1437 54.8046 25.0155 55.0904 24.1271C55.0547 24.237 55.1618 24.1271 55.1797 24.1454C55.3762 23.7882 55.5995 23.4035 55.4298 23.2845C55.5906 23.0372 55.6084 23.1104 55.6978 23.1288C55.6263 23.083 55.7156 22.8357 55.8317 22.6342L55.8049 22.7441L56.1086 22.1488L55.8943 22.1762C56.1086 21.8923 56.1265 22.2037 56.2426 21.8832L56.1175 21.8191C56.3587 21.3977 56.6892 21.242 56.975 20.8299C57.4037 19.914 57.6985 18.8516 57.6985 17.7342C57.6985 17.4503 57.6538 17.1663 57.6359 16.8916C57.5823 16.6077 57.502 16.3329 57.4216 16.0581C57.2965 15.8017 57.1894 15.5269 57.0375 15.2888C56.8678 15.069 56.716 14.8217 56.5373 14.6293V14.492C56.582 14.3363 55.921 14.3271 55.9389 14.1623C55.8585 14.1348 55.7871 14.1348 55.7156 14.1165C55.6799 14.0615 55.5727 13.9791 55.6888 13.9974C55.5191 13.8966 55.5012 13.915 55.3494 13.8966L55.2065 13.7043C54.5277 13.2738 53.8399 13.1914 53.0807 12.9075C52.2054 12.3854 50.3476 12.1748 49.3026 12.1748C47.8378 12.2297 46.1407 11.552 44.6402 11.9092C44.5866 11.8908 44.4705 11.9458 44.4705 11.9641C44.0149 11.9824 43.5594 12.0099 43.1039 12.0465C43.1039 12.0465 42.693 12.0832 42.1482 12.1656C41.6123 12.248 40.9424 12.3946 40.4511 12.5686C39.9599 12.7518 39.6384 12.9441 39.7634 13.0998C39.8885 13.2555 40.4511 13.3471 41.7016 13.4753L41.6748 13.512C42.3983 13.4845 42.8449 13.4479 43.3272 13.228C43.4254 13.4295 43.9167 13.1914 44.0953 13.2555L44.0775 13.2738C44.5062 13.0815 44.9885 13.3471 45.4083 13.2006C45.3905 13.2189 45.3815 13.2738 45.2833 13.283C45.5869 13.2464 46.0157 13.1914 46.0335 13.3196C46.7659 13.283 47.7842 13.3837 48.2665 13.2372L48.2307 13.2647C48.5076 13.1548 48.5791 13.2738 48.8828 13.2372C48.9006 13.2555 48.9185 13.2647 48.9096 13.2738C49.2133 13.1639 49.7581 13.3746 49.9993 13.3471V13.4295C50.1958 13.4479 50.3833 13.4845 50.5798 13.512L50.3655 13.4479C50.4816 13.2464 50.7674 13.6768 51.214 13.6127C51.5891 13.7318 52.1072 13.3654 52.4823 13.5761C52.6967 13.5394 52.2679 13.686 52.5716 13.7043C52.5448 13.8234 52.4198 13.7318 52.4644 13.8417C52.7503 13.8783 52.8753 14.1073 53.2326 14.1439L53.2147 14.2355C53.706 14.2355 53.965 14.6751 54.3044 14.6477C54.7599 14.7942 54.4652 15.0323 54.9743 15.1056L55.0815 15.2979C55.2601 15.4078 55.278 15.243 55.4119 15.4079C55.3583 15.4628 55.5727 15.6093 55.4387 15.6002C55.7067 15.9116 56.189 16.1039 56.1801 16.7084C56.3498 16.7817 56.3498 17.0839 56.4391 17.1755C56.3766 17.203 56.4659 17.7983 56.3051 17.4503C56.2962 17.4228 56.2873 17.3678 56.314 17.377L56.2247 17.3404C56.0997 17.6518 56.2872 17.9632 56.2247 18.3204C56.2872 18.2196 56.2783 18.0731 56.3319 18.183C56.3319 18.2929 56.2783 18.412 56.2515 18.5219L56.1979 18.4394L56.0372 18.9249L56.1443 18.8791C56.0372 19.1172 55.8496 19.1447 55.8764 19.4652C55.9032 19.6209 56.0729 19.2729 56.0104 19.5476C55.8496 19.859 55.537 20.3078 55.3226 20.7017C55.4298 20.7017 55.3762 20.8207 55.3405 20.9398L55.2512 20.9123C55.144 21.4069 55.0011 20.9764 54.8671 21.4527L54.8314 21.3886L54.9296 21.5901C54.8671 22.0663 54.6527 21.7 54.617 22.2495C54.6974 22.0755 54.8314 22.277 54.6795 22.4602L54.6349 22.3594C54.5813 22.4785 54.5902 22.5426 54.5277 22.6067C54.5277 22.5151 54.4473 22.506 54.349 22.68L54.3312 22.5151L54.2687 22.9089C54.0454 23.1013 53.8935 23.5409 53.7238 23.5684C53.7238 23.5684 53.3308 24.0355 53.3576 24.237C53.3576 24.0904 53.1432 24.3377 53.1164 24.2095C53.0986 24.3927 52.8842 24.8232 52.6966 24.9056V24.8689C52.2143 25.3544 52.0982 25.9039 51.607 26.3069C51.7052 26.3527 51.4551 26.5725 51.607 26.5908C51.2944 27.2044 50.6602 27.2594 50.8031 27.7265C50.6155 27.9372 50.4905 27.8914 50.3744 27.9738L50.4101 27.9097C50.0618 28.3035 49.9189 28.3859 49.6152 28.6332C49.4901 28.7889 49.5705 28.963 49.249 29.1278C49.3026 28.9996 49.1865 29.0912 49.0793 29.1644C49.1418 29.1095 49.1507 29.0637 48.981 29.1187C48.981 29.1553 48.9542 29.1828 48.9274 29.2194C48.9274 29.2194 48.9185 29.2194 48.9096 29.2102C48.7399 29.3568 48.7845 29.3476 48.8738 29.311C48.8738 29.3201 48.8917 29.3293 48.9274 29.3293C48.6773 29.3659 48.3826 29.659 48.2933 29.5583C47.7306 29.9063 47.3554 30.2269 46.8463 30.4742C46.7659 30.4375 46.8642 30.3276 47.0071 30.2452L46.6498 30.4192C46.623 30.3276 46.8374 30.2818 46.9446 30.2177C46.4712 30.2452 46.096 30.7031 45.5244 30.694L45.4351 30.7947H45.3994C45.3994 30.7947 45.3011 30.9138 45.2297 30.9504C45.1314 30.8772 45.1939 30.7672 44.9349 30.8222C44.7116 30.7764 44.3543 30.9871 44.0775 31.0512C44.2293 31.0512 44.1847 31.097 44.1221 31.1428C43.9882 31.1611 43.8988 31.0878 43.8006 31.1428L43.7738 31.0329C43.8363 31.1336 43.4344 31.1977 43.3897 31.2435C43.3093 31.1702 43.5952 31.1519 43.622 31.0787C43.086 31.1428 43.354 31.1061 42.8092 31.1519C42.5233 31.2527 42.8628 31.2618 42.7288 31.3626C42.4698 31.3992 42.2107 31.4633 41.916 31.3901L42.0053 31.4908C41.514 31.5641 41.2103 31.5091 40.8888 31.3901C39.0131 31.5549 38.7273 31.6923 38.9596 31.9579C39.0757 32.077 39.3258 32.1869 39.5401 32.2785C39.7545 32.37 39.951 32.4158 39.951 32.4158C41.4694 32.8463 42.3268 32.6082 44.131 32.3426L44.14 32.3059Z" fill="#8E8E8E"/>
<path d="M39.4648 28.6402L39.5184 28.6035C39.5184 28.6035 39.4827 28.6035 39.4648 28.6402Z" fill="#8E8E8E"/>
<path d="M41.2598 27.1934V27.2025L41.2687 27.2117L41.2598 27.1934Z" fill="#8E8E8E"/>
<path d="M40.5376 29.5646C40.7788 28.9602 41.0021 28.8411 41.0914 28.1633C41.1807 27.8519 41.2164 27.5039 41.2611 27.1925C41.145 27.0185 41.3415 26.7895 41.2521 26.588L41.3504 26.5422C41.3236 26.4781 41.3057 26.3957 41.3593 26.3499H41.3861C41.3415 26.2583 41.3951 26.1667 41.3683 26.1117H41.3951V26.011L41.4308 26.0385C41.3861 25.8736 41.4129 25.7088 41.4576 25.5714H41.3504C41.5112 25.2783 41.3236 25.1409 41.4933 24.8845H41.5201C41.2879 24.5089 41.7702 24.3624 41.5558 23.9777C41.5826 24.0235 41.6094 23.9686 41.6362 23.9777C41.6362 23.8129 41.6273 23.6297 41.4219 23.6114C41.4308 23.4923 41.4933 23.5198 41.5737 23.5106C41.4844 23.5106 41.4576 23.3916 41.4576 23.3L41.4844 23.3458V23.071L41.3057 23.1076C41.3683 22.9703 41.5112 23.0893 41.4844 22.9519H41.3415C41.3861 22.7504 41.6094 22.6497 41.7166 22.4665C41.7613 22.0635 41.6988 21.6514 41.663 21.2392C41.6094 20.8271 41.5737 20.4333 41.6898 20.0577L41.797 20.0211C41.9488 20.0028 41.5648 19.8196 41.7077 19.7921L41.6362 19.7097C41.6362 19.7097 41.6898 19.6273 41.7255 19.6731C41.7255 19.5906 41.6988 19.5906 41.6541 19.5357L41.7434 19.4441C41.797 19.1235 41.6005 18.8671 41.6094 18.5282C41.7524 18.1069 41.5023 17.3742 41.3236 16.9712C40.9931 16.4217 41.4755 15.5882 41.0467 15.0387C41.0646 15.0112 41.0021 14.9746 40.9842 14.9837L40.8681 14.4251C40.8681 14.4251 40.6716 13.7565 40.4036 13.3993C40.1357 13.0329 39.8141 13.0146 39.5105 14.1778H39.4747C39.4837 14.48 39.5283 14.654 39.7427 14.8097C39.5551 14.9013 39.7784 15.0479 39.7338 15.1394H39.7159C39.9124 15.2677 39.6802 15.5333 39.8588 15.6615C39.8409 15.6615 39.7873 15.6615 39.7695 15.634C39.8231 15.7531 39.9124 15.9088 39.7963 15.9454C39.9034 16.2294 39.9034 16.6598 40.1357 16.8064H40.1C40.2429 16.8888 40.1446 16.9346 40.2339 17.0445C40.2161 17.0536 40.2161 17.0628 40.2071 17.0628C40.3501 17.1636 40.2875 17.4017 40.3501 17.4933L40.2697 17.5116L40.3143 17.7497V17.6581C40.5376 17.6581 40.2071 17.8596 40.3679 18.0153C40.3679 18.1802 40.8592 18.2901 40.7699 18.4733C40.877 18.5465 40.5912 18.4183 40.6894 18.5282C40.5733 18.5465 40.6091 18.4824 40.5287 18.5282C40.6001 18.6381 40.4304 18.7297 40.5198 18.8763L40.4304 18.8946C40.6091 19.0686 40.3411 19.2609 40.5019 19.38C40.5912 19.5723 40.2429 19.5265 40.4304 19.7189L40.3143 19.8013C40.2965 19.8929 40.4661 19.8563 40.4126 19.957C40.3411 19.957 40.35 20.0852 40.2786 20.0303C40.1625 20.2501 40.4483 20.4699 40.2607 20.763C40.4126 20.8271 40.3233 20.9736 40.4304 21.0194C40.3679 21.0194 40.4304 21.3125 40.2786 21.1476C40.2697 21.1293 40.2697 21.111 40.2965 21.111L40.2071 21.0927C40.0464 21.2576 40.2965 21.3949 40.2607 21.5506C40.2875 21.5048 40.2875 21.4407 40.3411 21.4865L40.3233 21.6422L40.2518 21.6056L40.1982 21.8254L40.2875 21.7979C40.2339 21.9078 40.0821 21.9353 40.2071 22.0727C40.2786 22.1277 40.3322 21.9719 40.359 22.091C40.2875 22.2376 40.1982 22.4574 40.1536 22.6405C40.2607 22.6314 40.2518 22.6772 40.2697 22.7321H40.1803C40.2875 22.9428 39.9838 22.7871 40.0642 22.9977L40.0017 22.9794L40.1803 23.0435C40.3411 23.2359 39.9928 23.126 40.2161 23.3458C40.2071 23.2634 40.4126 23.3275 40.3679 23.4191L40.2875 23.3824C40.3054 23.4374 40.3322 23.4557 40.3143 23.4923C40.2697 23.4557 40.1893 23.4648 40.1982 23.5473L40.091 23.4832L40.2339 23.648C40.1357 23.7488 40.225 23.9503 40.1 23.9777C40.1 23.9777 40.0106 24.2159 40.1357 24.2891C40.0642 24.225 40.0106 24.3624 39.9213 24.3075C40.0017 24.3807 40.0553 24.5822 39.9481 24.6463V24.628C39.8052 24.8936 40.0017 25.1226 39.8499 25.3516C39.9571 25.3516 39.8767 25.4798 40.0106 25.4706C40.1 25.7546 39.6712 25.8919 40.0553 26.0568C40.0553 26.1759 39.9303 26.1759 39.9035 26.2308L39.8856 26.1942C39.8767 26.4232 39.8677 26.4873 39.8231 26.643C39.8499 26.7345 40.0285 26.7895 39.9571 26.9177C39.8945 26.8536 39.8945 26.9177 39.8856 26.9727C39.8856 26.936 39.8588 26.9177 39.7963 26.9727C39.8141 26.991 39.8231 27.0093 39.832 27.0276C39.832 27.0276 39.8231 27.0276 39.8141 27.0276C39.8141 27.1192 39.8499 27.1101 39.8677 27.0734C39.8767 27.0734 39.8945 27.0734 39.9213 27.0734C39.8052 27.1467 39.8677 27.339 39.7338 27.3207C39.698 27.5955 39.7873 27.8245 39.7784 28.0626C39.707 28.0626 39.6623 28.0076 39.6534 27.9344L39.6355 28.0992C39.5462 28.0718 39.6087 27.9985 39.5998 27.9435C39.4033 28.0901 39.6444 28.374 39.4479 28.5572L39.5105 28.6213H39.4926C39.4926 28.6213 39.573 28.7037 39.573 28.7403C39.4836 28.7403 39.3854 28.6854 39.3676 28.7953C39.2693 28.8594 39.3318 29.0517 39.3408 29.18C39.3765 29.125 39.4122 29.1616 39.4301 29.1891C39.4122 29.2441 39.3229 29.2532 39.3497 29.299L39.2425 29.2716C39.3497 29.2807 39.305 29.4456 39.3497 29.4822C39.2604 29.4822 39.305 29.3723 39.2514 29.3448C39.1978 29.5646 39.2246 29.4547 39.1621 29.6745C39.2068 29.8211 39.2693 29.6929 39.3497 29.7753C39.3318 29.8852 39.3765 30.0134 39.2693 30.105H39.3765C39.3765 30.3248 39.3318 30.4347 39.1889 30.5263C39.3765 32.2665 40.091 31.2682 40.1089 31.2499C40.5465 30.737 40.3858 30.3248 40.5198 29.5921L40.5376 29.5646Z" fill="#8E8E8E"/>
<path d="M31.1594 30.876L31.0254 30.8027C31.0254 30.8027 31.0522 30.8485 31.1594 30.876Z" fill="#8E8E8E"/>
<path d="M28.8984 11.78C28.8984 11.78 28.9163 11.78 28.9342 11.7617C28.9074 11.7617 28.8984 11.78 28.8984 11.78Z" fill="#8E8E8E"/>
<path d="M33.1066 29.9329C32.1955 29.7405 31.6328 29.5299 31.0612 29.365C30.4985 29.1635 29.9179 28.9804 28.989 28.7422C28.1227 28.44 27.1759 28.1561 26.3363 27.8263C25.8718 27.8263 25.2555 27.3501 24.7375 27.2585L24.5946 27.0936C24.4159 27.0662 24.2194 26.9929 24.0855 26.8738L24.1033 26.8555C23.8443 26.7914 23.5942 26.6265 23.4692 26.5899L23.487 26.5716L23.2012 26.4342H23.2638C22.8261 26.2877 22.4241 26.0312 22.0758 25.8022L22.058 25.9121C21.3523 25.3626 20.9772 25.3535 20.3788 24.7948L20.4056 24.7764C19.4231 24.4192 19.2176 23.6957 18.2619 23.2377C18.378 23.2927 18.2619 23.1553 18.2798 23.1462C17.8957 22.8622 17.5117 22.5325 17.3688 22.6699C17.1187 22.4226 17.208 22.4226 17.2258 22.331C17.1722 22.3951 16.9132 22.2211 16.7346 22.0196L16.8418 22.0837L16.5649 21.809C16.4756 21.7082 16.3684 21.635 16.3416 21.5708C16.3148 21.6441 16.2791 21.6899 16.2701 21.7632C16.1362 21.4609 16.4041 21.58 16.2076 21.3144L16.0826 21.3877C15.9486 21.1587 15.9754 20.9297 15.9932 20.7282C15.9932 20.5267 16.0736 20.3344 16.1362 20.1146C16.1719 19.1895 16.6989 18.1912 17.467 17.3761C17.8243 16.9456 18.2977 16.6159 18.7353 16.277C19.1998 15.9656 19.7089 15.7366 20.1823 15.526L20.3162 15.5809C20.4145 15.7092 20.7539 15.1322 20.8879 15.2329L21.0844 15.0681C21.1558 15.0681 21.3077 15.0314 21.2094 15.1138C21.4148 15.0223 21.4149 15.0039 21.5488 14.8849H21.8079C22.6921 14.6742 23.3352 14.1705 24.282 13.9873C25.4342 13.8499 27.5063 13.2271 28.7479 12.9432C30.4717 12.4303 32.5886 12.8608 34.366 12.4761C34.4285 12.4944 34.5804 12.4395 34.5714 12.4211L36.2327 12.3753C36.2327 12.3753 36.7329 12.3479 37.3939 12.3204C37.903 12.2838 38.5193 12.4944 38.9033 12.815C39.2874 13.1264 39.4928 13.4744 39.6268 13.3279C39.6804 13.2546 39.7429 13.0348 39.6179 12.641C39.4928 12.2563 39.1624 11.6426 38.296 11.2122L38.3496 11.1939C37.8315 10.9832 37.3135 10.9924 37.0098 11.0107C36.6704 11.029 36.3667 11.084 36.0541 11.1847C35.9469 10.9741 35.2949 11.1847 35.0805 11.1297L35.0984 11.1114C34.5446 11.3038 33.9283 11.0107 33.3924 11.2122C33.4103 11.1939 33.4192 11.1389 33.5442 11.1206C33.1512 11.1847 32.6153 11.2763 32.5707 11.1572C31.6239 11.2671 30.302 11.3312 29.7214 11.6335L29.7572 11.5969C29.4267 11.78 29.3195 11.6793 28.9444 11.7983C28.9176 11.7892 28.8908 11.78 28.8997 11.7709C28.5424 11.9541 27.81 11.9357 27.5242 12.0639L27.4885 11.9907L26.7561 12.1555L27.033 12.1189C26.9794 12.357 26.4435 12.0914 25.9433 12.3387C25.4342 12.3937 25.0412 13.0348 24.5053 13.0623C24.2909 13.2271 24.675 12.8425 24.3356 13.0165C24.2909 12.9066 24.4874 12.8974 24.3713 12.8333C24.0229 12.9798 23.7461 12.8791 23.3263 13.0714L23.2816 12.989C22.7636 13.337 22.1651 13.2546 21.8347 13.5294C21.272 13.8041 21.3434 13.4011 20.8075 13.8408H20.5306C20.2627 13.9324 20.4056 14.0514 20.1019 14.1247C20.084 14.0423 19.7178 14.2346 19.8518 14.0881C19.4945 14.1613 19.2087 14.4178 18.8782 14.6284C18.5567 14.8574 18.1905 15.0589 17.7528 15.2879C17.6724 15.5352 17.2258 15.755 17.1723 15.9381C17.1008 15.8832 16.4488 16.6159 16.7525 16.1122C16.7792 16.0664 16.8418 16.0114 16.8507 16.0389V15.929C16.3327 16.2221 16.1272 16.68 15.7878 17.1563C15.9129 17.0372 16.0468 16.8449 16.0022 17.0097L15.6717 17.431V17.2937C15.5109 17.5043 15.3234 17.6967 15.1983 17.9531L15.3323 17.8981C15.1179 18.237 14.8947 18.3011 14.8411 18.7957C14.85 19.0247 15.0644 18.4568 14.975 18.8873C14.8946 19.1529 14.7339 19.4735 14.6714 19.849C14.6446 20.2336 14.5642 20.6458 14.6714 21.0213C14.7517 20.9297 14.7964 21.1312 14.8679 21.3236L14.7874 21.3785C14.9393 21.7449 14.9839 21.7998 14.9572 21.9006C14.9482 21.9922 14.9214 22.0746 15.1715 22.4318L15.0822 22.3951C15.1805 22.4226 15.2519 22.4776 15.3769 22.505C15.9486 22.8531 15.4663 22.8897 16.1094 23.2011C15.9129 23.0363 16.163 22.9721 16.3595 23.2194H16.2433C16.3773 23.3385 16.4488 23.3477 16.5202 23.4392C16.413 23.4026 16.3952 23.4942 16.5917 23.6591L16.3952 23.6224C16.547 23.6957 16.6989 23.769 16.8596 23.8331C17.0829 24.1445 17.601 24.4467 17.6456 24.6391C17.6456 24.6391 18.2351 25.1794 18.4584 25.1886C18.2798 25.1611 18.6103 25.4542 18.4584 25.4542C18.6817 25.5 19.2176 25.7839 19.3606 26.0129L19.3159 25.9946C20.0036 26.5899 20.6646 26.7364 21.2987 27.2493C21.3166 27.1394 21.656 27.405 21.6292 27.231C22.3973 27.5424 22.835 28.2019 23.2816 27.9729C23.621 28.1286 23.63 28.266 23.7997 28.3759L23.7103 28.3576C24.3624 28.6232 24.5499 28.7056 25.0233 28.9346C25.2734 29.0078 25.3895 28.843 25.8004 29.0628C25.6307 29.0811 25.8183 29.1361 25.979 29.2002C25.8718 29.1727 25.8272 29.1818 26.0237 29.3192C26.0594 29.3101 26.113 29.3192 26.1576 29.3192V29.3375C26.4345 29.42 26.3988 29.3742 26.2738 29.3192C26.2827 29.3192 26.2738 29.2918 26.247 29.2551C26.4881 29.4566 27.033 29.5574 27.0151 29.6947C27.8547 29.942 28.4799 30.0336 29.1945 30.1802C29.257 30.2717 29.0783 30.2809 28.864 30.2443L29.3642 30.3633C29.3374 30.4549 29.0605 30.3359 28.9087 30.3176C29.4624 30.629 30.168 30.5099 30.829 30.8304L30.9898 30.7846L31.0255 30.803C31.0255 30.803 31.2041 30.7389 31.3113 30.748C31.3917 30.8488 31.2667 30.9403 31.615 31.0136C31.874 31.151 32.401 31.151 32.7761 31.1693C32.5796 31.1235 32.6511 31.0869 32.7404 31.0686C32.919 31.096 32.9994 31.1968 33.1423 31.1785V31.2975C33.0887 31.1785 33.6157 31.2517 33.6872 31.2151C33.7765 31.3159 33.4014 31.2426 33.3478 31.2975C34.0534 31.3983 33.705 31.3433 34.4106 31.4441C34.7947 31.4166 34.3571 31.325 34.5446 31.2517C34.8751 31.2792 35.2145 31.2151 35.5807 31.325L35.4735 31.2151C36.0987 31.1968 36.4739 31.2426 36.8848 31.3891C39.2249 31.0503 39.4482 30.7572 39.1177 30.574C38.7872 30.3817 37.903 30.2809 37.903 30.2809C37.0187 30.1618 36.3578 30.0977 35.6343 30.0886C34.9108 30.0977 34.1516 30.0519 33.0977 29.9329H33.1066Z" fill="#8E8E8E"/>
<path d="M49.9785 34.0527L50.0589 34.1168C50.0589 34.1168 50.041 34.0711 49.9785 34.0527Z" fill="#8E8E8E"/>
<path d="M64.0717 21.7991C64.0717 21.7991 64.0539 21.7991 64.0449 21.7891C64.0628 21.7991 64.0717 21.7991 64.0717 21.7991Z" fill="#8E8E8E"/>
<path d="M53.8998 35.9863C53.8998 35.9863 53.882 35.9863 53.873 36.0046L53.9088 35.9863H53.8998Z" fill="#8E8E8E"/>
<path d="M48.326 34.8217C48.9959 35.1422 49.4336 35.362 49.8891 35.5361C50.3446 35.7192 50.818 35.8749 51.604 35.939C52.3453 36.0764 53.1581 36.0398 53.8906 35.9757C54.23 35.7925 54.8552 35.8841 55.2392 35.6643L55.4089 35.7192C55.5429 35.6551 55.6948 35.5819 55.8466 35.591V35.6185C56.0342 35.4994 56.2753 35.4811 56.3647 35.417V35.4445C56.445 35.417 56.5254 35.3804 56.6058 35.3529L56.579 35.3987C56.9006 35.2063 57.2668 35.0781 57.5615 34.9865L57.499 34.8949C58.1689 34.7484 58.3118 34.4461 58.9281 34.3271V34.3546C59.5265 33.7867 60.116 34.0157 60.7234 33.4204C60.6519 33.4936 60.7859 33.4478 60.7859 33.4753C61.0985 33.2738 61.4468 33.0815 61.3575 32.8983C61.5987 32.7792 61.5808 32.8525 61.6434 32.9075C61.5987 32.825 61.7862 32.6785 61.9649 32.5686L61.8934 32.651L62.4026 32.3305L62.215 32.2389C62.5097 32.129 62.3847 32.3854 62.6348 32.1931L62.5633 32.074C62.9474 31.8634 63.2779 31.9183 63.6977 31.7718C64.4569 31.2863 65.1893 30.691 65.8413 29.9949C66.4933 29.308 67.1096 28.612 67.6187 27.7968L67.7527 27.7694C67.9313 27.8151 67.7259 27.1649 67.8867 27.1557V26.9176C67.9403 26.8626 67.9849 26.7344 68.0028 26.8535C68.0385 26.6337 68.0028 26.6245 67.9849 26.4596L68.101 26.2307C68.2082 25.3331 67.6813 24.5454 67.3151 23.9501C67.0292 23.0342 65.8056 21.752 65.0285 21.1475C63.9209 20.3507 62.9742 18.8578 61.5719 18.409C61.5451 18.3724 61.4111 18.354 61.4022 18.3724C61.027 18.1617 60.643 17.9694 60.2589 17.7862C60.2589 17.7862 59.9016 17.6213 59.4283 17.4473C58.9549 17.2733 58.3564 17.0993 57.883 17.026C56.9273 16.8886 56.5522 17.0535 58.4725 18.3998L58.4368 18.4182C59.0353 18.7204 59.4015 18.9036 59.8838 18.9219C59.8659 19.1417 60.3661 19.1783 60.4733 19.3066H60.4554C60.8841 19.3615 61.1253 19.8195 61.5183 19.8927C61.5004 19.8927 61.4647 19.9477 61.3843 19.9019C61.6433 20.0118 61.9827 20.1858 61.9381 20.3049C62.5276 20.6254 63.1975 21.2666 63.6441 21.3948H63.5994C63.8674 21.4681 63.8406 21.6054 64.0907 21.7428C64.0907 21.7611 64.0907 21.7886 64.0907 21.7886C64.3854 21.8711 64.6444 22.3382 64.832 22.4572L64.7784 22.5213C64.9034 22.6404 65.0196 22.7869 65.1357 22.9152L65.0196 22.7503C65.225 22.6587 65.1714 23.1533 65.5198 23.3639C65.6984 23.6753 66.3326 23.6937 66.4487 24.0875C66.6273 24.1882 66.2254 24.0417 66.4308 24.234C66.3415 24.3073 66.3057 24.1608 66.2611 24.2798C66.4487 24.4813 66.3951 24.7194 66.6273 24.9576L66.5558 25.0125C66.6988 25.1408 66.7434 25.3239 66.7791 25.4705C66.7881 25.6262 66.7613 25.7636 66.8685 25.8735C66.9935 26.249 66.6005 26.1116 66.7613 26.4963C66.7255 26.5329 66.672 26.5787 66.6094 26.6153C66.538 26.7619 66.7166 26.771 66.6094 26.9267C66.538 26.8901 66.4844 27.1191 66.4487 26.9908C66.3147 27.1557 66.2343 27.3572 66.1539 27.5862C66.0289 27.7968 65.8949 28.035 65.6359 28.1998C65.6537 28.4013 65.3768 28.5662 65.3947 28.7127C65.35 28.6852 64.9303 29.1432 65.1 28.7951C65.1178 28.7677 65.1535 28.731 65.1714 28.7493L65.1357 28.6578C64.7606 28.7677 64.7248 29.1615 64.439 29.3722C64.5462 29.3355 64.6355 29.2256 64.6087 29.3355C64.5283 29.4088 64.4301 29.4637 64.3407 29.537V29.4363L63.9299 29.7019L64.0371 29.7385C63.8138 29.8484 63.6619 29.7751 63.5101 30.0407C63.4476 30.169 63.7691 30.0133 63.5726 30.1873C63.2689 30.3247 62.8134 30.5262 62.4383 30.7185C62.5276 30.7918 62.4293 30.8467 62.34 30.92L62.2864 30.8467C61.9649 31.1856 62.0542 30.7643 61.7148 31.0757V31.0024V31.2222C61.4468 31.5794 61.4379 31.1673 61.161 31.5977C61.3039 31.497 61.3307 31.7351 61.1164 31.8084V31.7077C61.0271 31.7809 61.0092 31.8359 60.9288 31.8542C60.9734 31.7809 60.902 31.726 60.7502 31.8176L60.8038 31.6619L60.5805 31.9641C60.3125 32.0007 59.9999 32.303 59.8481 32.2297C59.8481 32.2297 59.3211 32.4129 59.2585 32.5961C59.3211 32.4678 59.0353 32.5778 59.071 32.4495C58.9817 32.6052 58.6244 32.8525 58.4279 32.825L58.4547 32.7976C57.8384 32.9624 57.5168 33.3654 56.9452 33.4662C57.0077 33.5578 56.713 33.6127 56.8291 33.7134C56.3378 34.0432 55.793 33.7959 55.7037 34.2355C55.4625 34.3271 55.3822 34.2172 55.2571 34.2355L55.3107 34.1989C54.8463 34.3179 54.7123 34.3546 54.3639 34.3912C54.1942 34.4462 54.1853 34.6476 53.8548 34.6293C53.9531 34.5377 53.828 34.5744 53.703 34.5744C53.7833 34.5561 53.8012 34.5286 53.6404 34.4828C53.6226 34.5103 53.5869 34.5194 53.5511 34.5377C53.5511 34.5377 53.5511 34.5286 53.5511 34.5194C53.3546 34.5469 53.3903 34.5744 53.4797 34.5835C53.4797 34.5927 53.4797 34.611 53.5154 34.6293C53.301 34.5286 52.9348 34.6477 52.908 34.5103C52.3096 34.5103 51.863 34.6019 51.3539 34.5652C51.3092 34.4828 51.4343 34.4553 51.5861 34.4462C51.47 34.4462 51.345 34.4187 51.2289 34.4095C51.2467 34.3088 51.4343 34.4095 51.5504 34.3912C51.1663 34.1622 50.6572 34.382 50.2106 34.089L50.0856 34.1348L50.0588 34.1164C50.0588 34.1164 49.9248 34.1805 49.8534 34.1622C49.8087 34.0523 49.9159 33.979 49.6836 33.8966C49.5229 33.7501 49.1477 33.7501 48.8976 33.6768C49.0227 33.7501 48.9602 33.7684 48.8976 33.7776C48.7815 33.7318 48.7458 33.6219 48.6476 33.6127L48.6833 33.5028C48.6833 33.6219 48.3349 33.4753 48.2813 33.4936C48.2546 33.3837 48.4868 33.5211 48.5404 33.4662C48.0938 33.2463 48.3171 33.3563 47.8705 33.1364C47.5936 33.0906 47.8705 33.2555 47.7008 33.283C47.4864 33.1822 47.2453 33.1273 47.0398 32.9258L47.0666 33.054C46.6379 32.88 46.4235 32.6968 46.227 32.4404C44.6461 31.7168 44.3335 31.7168 44.396 32.0465C44.4675 32.3488 44.9677 32.8891 44.9677 32.8891C45.968 33.9607 46.7719 34.1714 48.335 34.8033L48.326 34.8217Z" fill="#8E8E8E"/>
<path d="M56.0801 38.2305L56.1069 38.3129C56.1069 38.3129 56.1158 38.2763 56.0801 38.2305Z" fill="#8E8E8E"/>
<path d="M54.4989 38.4684C54.8562 38.9172 55.0795 39.2194 55.3385 39.4942C55.6064 39.769 55.8922 40.0346 56.455 40.291C56.9641 40.5933 57.5803 40.7581 58.143 40.8497C58.4289 40.7581 58.8844 40.9596 59.2059 40.8497L59.331 40.9321C59.4382 40.8864 59.5632 40.8497 59.6793 40.8955V40.923C59.8401 40.8589 59.9919 40.8772 60.0723 40.8406V40.868L60.242 40.8406L60.2152 40.8772C60.4653 40.7856 60.7243 40.7581 60.9566 40.7581L60.9298 40.6574C61.4299 40.7123 61.5818 40.4834 62.0462 40.5383V40.5658C62.5554 40.1994 62.9573 40.6024 63.4753 40.2178C63.4128 40.2635 63.52 40.2636 63.52 40.291C63.779 40.1994 64.047 40.117 64.0113 39.9155C64.1988 39.8697 64.1809 39.943 64.2256 40.0163C64.1988 39.9247 64.3596 39.8514 64.5025 39.8056L64.44 39.8606L64.8508 39.714L64.7258 39.5675C64.958 39.5492 64.833 39.7507 65.0384 39.6499L64.9938 39.5125C65.3064 39.4576 65.5475 39.5949 65.878 39.5949C67.1463 39.2194 68.2717 38.3219 69.4061 37.6716L69.5222 37.7174C69.6472 37.8181 69.6472 37.3052 69.7723 37.3694L69.8259 37.2045C69.8795 37.1953 69.9598 37.1404 69.933 37.2228C70.0402 37.1129 70.0223 37.0946 70.0581 36.9847C70.1206 36.9664 70.1742 36.948 70.2367 36.9206C70.4332 36.6824 70.594 36.4443 70.6655 36.1421C70.7101 35.9955 70.7548 35.8398 70.7905 35.7024C70.8084 35.5467 70.8351 35.3819 70.8709 35.217C71.1567 34.4843 70.9155 33.2112 70.6565 32.4968C70.46 32.0114 70.3886 31.4527 70.2814 30.8849C70.1563 30.3262 69.9777 29.7492 69.5847 29.3554C69.5847 29.3096 69.4954 29.2638 69.4865 29.2729C69.3167 28.9982 69.147 28.7234 68.9595 28.4578C68.9595 28.4578 68.7898 28.2197 68.5307 27.9357C68.2717 27.6518 67.9413 27.3404 67.6465 27.1389C67.0391 26.7451 66.7087 26.8 67.3607 28.4303H67.3249C67.584 28.8516 67.7447 29.0806 68.0752 29.2363C67.9412 29.4011 68.2896 29.5568 68.2896 29.6942H68.2717C68.5665 29.8408 68.4682 30.2621 68.7183 30.4269C68.7004 30.4269 68.6469 30.4453 68.6111 30.3995C68.7272 30.5552 68.888 30.7841 68.7808 30.8483C69.0041 31.2604 69.1738 31.8832 69.4239 32.1305H69.3882C69.5579 32.2587 69.4775 32.332 69.5668 32.506C69.5579 32.5243 69.549 32.5335 69.54 32.5335C69.7008 32.6983 69.6651 33.0738 69.7276 33.2295L69.6472 33.2479L69.7097 33.6234C69.7097 33.5776 69.7097 33.5318 69.7097 33.4768C69.942 33.5043 69.5936 33.7791 69.7455 34.0447C69.7455 34.3011 70.1921 34.5851 70.0849 34.869C70.1831 35.0064 69.9241 34.7408 69.9956 34.9422C69.8795 34.9422 69.9241 34.8415 69.8348 34.8873C69.8705 35.0796 69.674 35.1346 69.7187 35.3544L69.6294 35.3361C69.683 35.6383 69.3614 35.7299 69.3793 35.9497C69.281 36.2245 69.0934 35.9497 69.022 36.2703H68.8612C68.763 36.3436 68.9059 36.4443 68.7719 36.4993C68.7272 36.4352 68.5933 36.5725 68.6111 36.4626C68.4504 36.5176 68.3611 36.655 68.236 36.7923C68.102 36.9206 67.9502 37.0488 67.7269 37.0854C67.7269 37.2594 67.4768 37.2961 67.4679 37.4335C67.4232 37.3785 67.0659 37.6441 67.2267 37.3968C67.2446 37.3785 67.2714 37.3602 67.2803 37.3785L67.2624 37.2869C66.9766 37.2686 66.8873 37.5708 66.6551 37.6624C66.7354 37.6624 66.8248 37.6075 66.789 37.6899L66.5657 37.7815L66.5836 37.6899C66.4764 37.7265 66.3603 37.7632 66.2442 37.7907L66.3246 37.8548C66.146 37.8731 66.0298 37.7449 65.8959 37.9464C65.8423 38.0471 66.0924 38.0013 65.9316 38.1021C65.6994 38.1387 65.3242 38.1479 65.0384 38.212C65.092 38.3036 65.0205 38.3219 64.9491 38.3768L64.9134 38.2944C64.6454 38.505 64.7437 38.1387 64.4757 38.3219V38.2486L64.4578 38.4593C64.2256 38.7065 64.2614 38.3219 64.0202 38.6424C64.1363 38.5966 64.1274 38.8256 63.9666 38.8256L63.9845 38.734C63.9041 38.7707 63.8862 38.8164 63.8237 38.8073C63.8594 38.7523 63.8237 38.6791 63.6986 38.7249L63.7522 38.5966L63.5557 38.8073C63.3592 38.7615 63.0913 38.9355 62.993 38.8256C62.993 38.8256 62.5911 38.8439 62.5286 38.9996C62.5911 38.8989 62.3678 38.908 62.4125 38.8073C62.3321 38.9172 62.0373 39.0454 61.9033 38.963L61.9212 38.9447C61.4657 38.9172 61.1799 39.2011 60.769 39.1278C60.7958 39.2286 60.5814 39.2011 60.644 39.3293C60.2331 39.5034 59.858 39.1279 59.7418 39.5583C59.5632 39.5858 59.5275 39.4667 59.4382 39.4484L59.4828 39.4209C59.1613 39.4759 59.063 39.4393 58.8219 39.4209C58.6968 39.4484 58.6522 39.6316 58.4378 39.5492C58.5182 39.4851 58.4378 39.485 58.3485 39.4667C58.4021 39.4667 58.4199 39.4392 58.3306 39.366C58.3127 39.3843 58.286 39.3935 58.2592 39.4026C58.2592 39.4026 58.2592 39.3935 58.2592 39.3843C58.1252 39.3751 58.1341 39.4026 58.1966 39.4301C58.1966 39.4393 58.1966 39.4576 58.2056 39.485C58.0895 39.3477 57.8215 39.3751 57.8394 39.2469C57.4464 39.1279 57.1248 39.1278 56.7854 38.9813C56.7854 38.8989 56.8837 38.8989 56.9819 38.9264C56.9015 38.8989 56.8301 38.8531 56.7586 38.8165C56.8122 38.734 56.9015 38.8439 56.9819 38.8714C56.8212 38.5875 56.3924 38.6699 56.2049 38.331H56.1066V38.3219C56.0798 38.3493 55.9905 38.3402 55.9369 38.3219C55.9548 38.2211 56.0709 38.1753 55.9369 38.0654C55.8922 37.9189 55.6422 37.809 55.4814 37.7082C55.535 37.7907 55.4814 37.7998 55.4278 37.7907C55.3652 37.7265 55.401 37.6258 55.3295 37.5983L55.4099 37.5159C55.3474 37.6166 55.1777 37.406 55.1241 37.406C55.1598 37.3144 55.267 37.4701 55.3295 37.4518C55.1062 37.177 55.2134 37.3236 55.008 37.0305C54.8294 36.9206 54.9365 37.1221 54.8026 37.1037C54.6864 36.9755 54.5346 36.8656 54.4989 36.655L54.4453 36.7649C54.2131 36.5176 54.1505 36.3161 54.1416 36.0779C53.302 35.0888 53.0519 34.9606 52.9179 35.2079C52.8643 35.3269 52.8554 35.5193 52.8643 35.6933C52.8643 35.8673 52.909 35.9955 52.909 35.9955C53.1145 37.1129 53.6414 37.5342 54.4989 38.4959V38.4684Z" fill="#8E8E8E"/>
<path d="M60.1722 43.002L60.1543 43.066C60.1543 43.066 60.1811 43.0386 60.1722 43.002Z" fill="#8E8E8E"/>
<path d="M58.7236 42.893C58.9827 43.6898 58.9202 44.0286 59.5543 44.7247C59.8223 45.0819 60.2153 45.375 60.5725 45.604C60.8226 45.5857 61.0549 45.9062 61.3228 45.8879L61.3675 46.007C61.4568 46.007 61.555 46.007 61.6176 46.0802L61.5997 46.0986C61.7337 46.0802 61.8587 46.1718 61.9123 46.1444V46.1718L62.0284 46.1993L61.9927 46.2268C62.1892 46.2085 62.3768 46.2634 62.5286 46.3459L62.5465 46.236C62.868 46.4466 63.0377 46.2726 63.3235 46.4741V46.5015C63.7612 46.3184 63.913 46.8221 64.3775 46.6298C64.3239 46.6573 64.3954 46.6847 64.3775 46.7122C64.574 46.7122 64.7884 46.7214 64.8151 46.5199C64.9581 46.5474 64.9223 46.6023 64.9313 46.6847C64.9402 46.5931 65.0652 46.5657 65.1814 46.5748L65.1278 46.6023H65.4493L65.4046 46.4283C65.5654 46.4924 65.4314 46.6481 65.5922 46.6115V46.4649C65.8244 46.5016 65.9495 46.7305 66.1817 46.8313C67.1731 46.8771 68.1556 46.4374 69.1471 46.0161L69.2453 46.0711C69.3614 46.1718 69.3436 45.6956 69.4597 45.7688L69.4954 45.6131C69.4954 45.6131 69.6115 45.5582 69.5937 45.6315C69.683 45.5399 69.6651 45.5124 69.683 45.4208C69.7366 45.4025 69.7902 45.3842 69.8348 45.3567C69.9956 45.146 70.076 44.8987 70.0849 44.7247C70.1117 44.5324 70.1385 44.3401 70.1921 44.1294C70.5226 43.6623 70.3975 42.6457 70.2368 42.1328C69.9599 41.4275 70.3618 40.4476 69.8706 39.7881C69.8795 39.7606 69.817 39.7148 69.7991 39.7148C69.7277 39.495 69.6651 39.2752 69.5847 39.0646C69.6026 39.0188 68.3611 36.1154 68.1825 38.8356H68.1467C68.2092 39.1836 68.2718 39.3943 68.5129 39.55C68.3343 39.6599 68.5933 39.8247 68.5576 39.9163H68.5397C68.763 40.0629 68.5397 40.3651 68.7451 40.5025C68.7273 40.5025 68.6737 40.5117 68.6558 40.4659C68.7184 40.5941 68.8166 40.7773 68.7005 40.8139C68.8255 41.1345 68.8523 41.6016 69.0667 41.7847H69.031C69.1739 41.8763 69.0667 41.9313 69.1471 42.0595C69.1292 42.0687 69.1292 42.0778 69.1203 42.0778C69.2721 42.2061 69.1649 42.4717 69.2185 42.5724H69.1381C69.1471 42.6732 69.1471 42.7556 69.156 42.8472L69.1739 42.7464C69.3882 42.7831 69.031 42.9388 69.1649 43.1403C69.1113 43.3051 69.5847 43.5707 69.4329 43.7539C69.5133 43.8638 69.29 43.644 69.3346 43.7905C69.2185 43.7722 69.2811 43.7173 69.1828 43.7264C69.2096 43.8638 69.031 43.9096 69.0578 44.0836L68.9684 44.0653C69.0577 44.3034 68.7451 44.4225 68.8345 44.5507C68.8166 44.7339 68.5844 44.5141 68.6201 44.7339L68.495 44.6972C68.4415 44.7339 68.5844 44.8438 68.4772 44.853C68.4325 44.7888 68.3611 44.8621 68.3521 44.7797C68.1824 44.7797 68.1467 45.1369 67.8073 45.0453C67.8073 45.2101 67.6465 45.1644 67.6287 45.2834C67.6019 45.2193 67.3428 45.3475 67.4679 45.1644C67.4768 45.146 67.5036 45.146 67.5036 45.1644V45.0728C67.325 44.9537 67.2357 45.2193 67.066 45.2285C67.1196 45.2468 67.1821 45.2285 67.1464 45.3017H66.9945L67.0213 45.2376C66.9409 45.2376 66.8605 45.2193 66.7802 45.2193L66.8248 45.3109C66.6998 45.2743 66.6551 45.1186 66.5301 45.256C66.4765 45.3292 66.6462 45.375 66.5301 45.4116C66.3604 45.3475 66.1281 45.2651 65.9227 45.2193C65.9405 45.3292 65.887 45.3201 65.8244 45.3384V45.2468C65.6011 45.3658 65.753 45.0453 65.5297 45.1277L65.5565 45.0636L65.485 45.2468C65.2707 45.4116 65.3957 45.0453 65.1546 45.2743C65.2439 45.2743 65.1724 45.4758 65.0742 45.43L65.1099 45.3475C65.0474 45.3567 65.0206 45.3933 64.9849 45.375C65.0295 45.3292 65.0206 45.2468 64.9313 45.256L65.0027 45.1552L64.8151 45.2926C64.699 45.1827 64.4847 45.2743 64.4489 45.1369C64.4489 45.1369 64.1899 45.027 64.1006 45.146C64.1721 45.0728 64.0291 45.0178 64.0917 44.9262C64.0024 45.0086 63.7791 45.0361 63.7166 44.9262H63.7344C63.4486 44.7522 63.1806 44.9262 62.9395 44.7339C62.9216 44.8438 62.7965 44.7431 62.7965 44.8804C62.4839 44.9171 62.35 44.4683 62.1445 44.8255C62.0195 44.798 62.0463 44.6789 61.9927 44.6423H62.0284C61.8141 44.5782 61.7515 44.5416 61.6176 44.4591C61.5283 44.4591 61.4211 44.6057 61.3139 44.4866C61.3943 44.45 61.3318 44.4317 61.2871 44.395C61.3228 44.4042 61.3496 44.395 61.3228 44.3034C61.3049 44.3126 61.2782 44.3218 61.2603 44.3218C61.2603 44.3218 61.2603 44.3126 61.2692 44.3034C61.1799 44.2668 61.1799 44.3034 61.2067 44.3309C61.2067 44.3309 61.1888 44.3492 61.1888 44.3767C61.171 44.2393 60.9655 44.2119 61.0459 44.0928C60.8226 43.9279 60.5815 43.8638 60.3939 43.6806C60.4296 43.6165 60.51 43.6257 60.5725 43.6715L60.4475 43.5433C60.5279 43.4883 60.5457 43.589 60.5993 43.6165C60.5993 43.3692 60.2331 43.3601 60.2331 43.067H60.1438V43.0395C60.1081 43.0578 60.0366 43.0395 60.0098 43.0029C60.0724 42.9296 60.1795 42.9204 60.1259 42.8105C60.1617 42.6915 59.983 42.5816 59.8937 42.4717C59.9026 42.5449 59.858 42.5358 59.8133 42.5175C59.7865 42.4625 59.858 42.3984 59.8133 42.3618L59.9205 42.316C59.8312 42.3709 59.7598 42.1969 59.7151 42.1877C59.7865 42.1328 59.8133 42.261 59.8759 42.2518C59.7865 42.0229 59.8312 42.1328 59.7597 41.8947C59.6436 41.7847 59.6615 41.9404 59.5543 41.9038C59.5007 41.7939 59.4114 41.684 59.4471 41.5375L59.3578 41.6016C59.2328 41.3818 59.2417 41.2352 59.3221 41.0703C58.8755 40.2094 58.6433 40.0446 58.4468 40.1819C58.2681 40.3193 58.1878 40.7223 58.1878 40.7223C58.0091 41.5558 58.3485 41.9771 58.7147 42.8472L58.7236 42.893Z" fill="#8E8E8E"/>
<path d="M67.1914 49.0488L67.1289 49.0679C67.1289 49.0679 67.1646 49.0774 67.1914 49.0488Z" fill="#8E8E8E"/>
<path d="M66.4416 47.8391C66.1469 48.233 65.9325 48.178 65.5574 48.5901C65.3341 48.7641 65.0929 48.9382 64.8696 49.1122C64.825 49.3137 64.5302 49.2862 64.4409 49.4785L64.3427 49.4328C64.3069 49.4969 64.2623 49.561 64.1908 49.5427V49.5152C64.1283 49.6159 64.0211 49.6159 63.9943 49.6617V49.6343L63.8961 49.6892V49.6526C63.7889 49.7716 63.637 49.8449 63.5031 49.8632L63.5477 49.9548C63.2351 49.9548 63.1994 50.1929 62.8957 50.1563V50.1288C62.6456 50.5044 62.3241 50.1288 62.0561 50.486C62.0918 50.4402 62.0204 50.4402 62.0204 50.4128C61.8685 50.486 61.7078 50.5501 61.7614 50.7516C61.6453 50.7791 61.6452 50.715 61.6095 50.6417C61.6363 50.7333 61.547 50.7974 61.4577 50.8249L61.4934 50.7791L61.2433 50.889L61.3416 51.0447C61.1897 51.0447 61.2522 50.8524 61.1361 50.9348L61.1719 51.0722C60.9664 51.0905 60.8057 50.9073 60.5913 50.8524C60.3948 50.889 60.1983 50.944 60.0018 51.0172C59.9125 51.0539 59.8142 51.0905 59.716 51.1271C59.6177 51.1638 59.5909 51.1821 59.5195 51.2004C59.2783 51.2737 58.9746 51.1729 58.8942 50.9257L58.9478 50.8341C59.055 50.7242 58.7067 50.9073 58.8049 50.7974H58.7156C58.7156 50.7974 58.7424 50.7242 58.7781 50.7333C58.7603 50.6875 58.7424 50.7058 58.6799 50.6967C58.6978 50.6692 58.7246 50.6326 58.7424 50.6051C58.7424 50.4402 58.5459 50.312 58.6084 50.1105C58.671 50.0647 58.7067 50.0098 58.7424 49.9456C58.7871 49.8541 58.8317 49.7716 58.8853 49.6617C59.0193 49.387 59.1265 49.0939 59.1979 48.8741C59.3408 48.2146 60.243 47.9398 60.368 47.2438C60.3948 47.2438 60.3859 47.1614 60.368 47.1522L60.6985 46.6668C60.6985 46.6668 62.2705 44.2855 60.0465 45.412L60.0286 45.3845C59.7874 45.6135 59.6624 45.7692 59.6892 46.0531C59.5016 45.9707 59.5284 46.2638 59.4302 46.2913V46.2729C59.448 46.5294 59.0908 46.5385 59.1086 46.7858C59.0997 46.7675 59.055 46.7401 59.0729 46.6943C59.0193 46.8225 58.9568 47.0148 58.8496 46.9507C58.6978 47.2438 58.4119 47.6102 58.4566 47.8941L58.4387 47.8666C58.4834 48.0406 58.3673 48.0131 58.3584 48.1597C58.3405 48.1597 58.3316 48.1597 58.3226 48.1597C58.3583 48.3428 58.1351 48.4985 58.1261 48.6176L58.0547 48.581L57.9296 48.81L57.9921 48.7367C58.1619 48.8832 57.7688 48.8283 57.7867 49.0664C57.7331 49.1214 57.7599 49.3045 57.8046 49.4419C57.8492 49.5885 57.9028 49.7075 57.8314 49.79C57.9028 49.909 57.6974 49.6617 57.7331 49.8266C57.617 49.7991 57.6884 49.735 57.5813 49.7533C57.5991 49.9182 57.4116 50.0006 57.4741 50.2204H57.3848C57.5366 50.486 57.3133 50.7791 57.5277 50.9165C57.6885 51.1455 57.3491 51.2187 57.6527 51.4019C57.6349 51.4569 57.6259 51.5118 57.617 51.5759C57.6885 51.7041 57.7867 51.5759 57.8403 51.7133C57.7778 51.7591 57.9207 51.8965 57.8135 51.8782C58.0011 52.2354 58.4298 52.2079 58.796 52.5285C58.93 52.4185 59.1354 52.5468 59.2158 52.4369C59.2158 52.5101 59.6624 52.4643 59.4034 52.6017C59.3766 52.6109 59.3408 52.6017 59.3408 52.5834L59.3051 52.675C59.5641 52.8673 59.8321 52.5651 60.0197 52.5376C59.975 52.5193 59.8768 52.5468 59.9214 52.4735L60.0911 52.446L60.0732 52.5285L60.3233 52.5101L60.2697 52.4277C60.3948 52.446 60.4752 52.5926 60.5734 52.4277C60.6181 52.3453 60.4305 52.3361 60.5466 52.272C60.7163 52.2995 60.9754 52.327 61.1808 52.3086C61.1361 52.2079 61.1897 52.1987 61.2433 52.1712L61.2701 52.2537C61.4487 52.0797 61.3952 52.4277 61.5827 52.272V52.3361V52.1346C61.7256 51.9057 61.7346 52.2903 61.8775 51.9881C61.7971 52.0247 61.7882 51.8049 61.8953 51.8141V51.9057C61.94 51.869 61.9489 51.8324 61.9936 51.8324C61.9757 51.8873 62.0115 51.9606 62.0918 51.924L62.0651 52.043L62.1812 51.8415C62.333 51.8965 62.4848 51.7225 62.5741 51.8324C62.5741 51.8324 62.851 51.8141 62.8689 51.6584C62.8421 51.7591 62.994 51.7408 62.985 51.8507C63.0208 51.7408 63.1994 51.5942 63.3066 51.6584V51.6767C63.6281 51.6675 63.7531 51.3744 64.0568 51.3744C64.0032 51.2828 64.164 51.2737 64.0836 51.1638C64.298 50.9257 64.6821 51.2096 64.6106 50.7883C64.7267 50.715 64.7893 50.8066 64.8607 50.7974L64.8428 50.8341C65.0572 50.6875 65.1197 50.6509 65.2894 50.5776C65.3519 50.4952 65.2805 50.3212 65.4502 50.2845C65.4413 50.3761 65.4949 50.3303 65.5485 50.3029C65.5217 50.3303 65.5216 50.3669 65.6199 50.3669C65.6199 50.3395 65.6199 50.3212 65.6378 50.2937C65.6378 50.2937 65.6378 50.2937 65.6467 50.312C65.7271 50.2296 65.6913 50.2204 65.6467 50.2387C65.6467 50.2296 65.6288 50.2204 65.611 50.2021C65.7539 50.2296 65.87 50.0372 65.9504 50.138C66.2094 49.9548 66.3076 49.6709 66.4863 49.4785C66.5488 49.5152 66.5399 49.5976 66.4952 49.6709L66.6292 49.5335C66.6917 49.6068 66.5756 49.6434 66.5399 49.6984C66.8346 49.6892 66.79 49.2496 67.0937 49.158L67.0758 49.0664H67.0937C67.0937 49.0664 67.0579 48.9473 67.0758 48.9107C67.1651 48.929 67.2276 49.0389 67.308 48.9107C67.442 48.8649 67.4688 48.6176 67.4956 48.4619C67.442 48.526 67.4152 48.4802 67.4063 48.4344C67.4331 48.3703 67.5313 48.3703 67.5224 48.3062L67.6295 48.352C67.5224 48.3337 67.6117 48.1322 67.567 48.0864C67.6564 48.0772 67.6028 48.2238 67.6474 48.2604C67.7457 47.9765 67.6921 48.1139 67.7814 47.83C67.7367 47.6559 67.6742 47.83 67.5938 47.7292C67.5938 47.5918 67.5402 47.4636 67.6295 47.3262L67.5224 47.3628C67.4598 47.1247 67.4866 46.9965 67.576 46.8408C66.6113 45.2563 66.4416 46.6301 66.4416 46.5935C66.2541 47.1522 66.5667 47.2896 66.4148 47.8391H66.4416Z" fill="#8E8E8E"/>
<path d="M57.5009 50.623L57.4473 50.6963C57.4473 50.6963 57.483 50.678 57.5009 50.623Z" fill="#8E8E8E"/>
<path d="M55.25 50.842L55.2679 50.832L55.25 50.842Z" fill="#8E8E8E"/>
<path d="M56.1782 50.2194C56.2139 50.3476 56.1424 50.4576 56.0799 50.5125C56.0174 50.5766 55.9727 50.5858 55.9459 50.6591C55.9102 50.6774 55.8923 50.6865 55.803 50.7232C55.6155 50.7598 55.4279 50.8056 55.2493 50.8422C55.1063 51.0163 54.8027 50.8972 54.624 51.0437L54.5436 50.9613C54.4811 51.0163 54.4007 51.0437 54.3382 50.9979V50.9705C54.2489 51.0437 54.1328 51.0071 54.0792 51.0437V51.0163L53.9631 51.0346L53.9809 50.9979C53.8112 51.0712 53.6326 51.0804 53.4718 51.0437V51.1536C53.1503 51.0346 53.0163 51.2452 52.7126 51.0804V51.0529C52.3018 51.3002 52.1321 50.8056 51.7033 51.0071C51.7569 50.9796 51.6944 50.9521 51.7033 50.9247C51.5158 50.9247 51.3193 50.9063 51.2835 51.1078C51.1496 51.0804 51.1853 51.0254 51.1853 50.943C51.1674 51.0346 51.0424 51.0529 50.9441 51.0254L50.9977 50.9979L50.694 50.9613L50.7119 51.1445C50.56 51.062 50.7119 50.9338 50.5601 50.9338L50.5333 51.0712C50.3189 50.9888 50.2474 50.7415 50.0688 50.5766C49.649 50.4209 49.1935 50.3385 48.7558 50.2103C48.6487 50.1828 48.5325 50.1462 48.4253 50.1004C48.3092 50.0637 48.1931 50.0088 48.1753 49.9996C48.0949 49.9538 48.0502 49.8439 48.086 49.7615L48.1842 49.7157C48.336 49.6882 47.943 49.6974 48.086 49.6607C48.0681 49.6516 48.0413 49.6424 48.0145 49.6241C48.0413 49.6149 48.077 49.5966 48.1038 49.6241C48.1127 49.5966 48.0859 49.5966 48.0502 49.56C48.0859 49.56 48.1127 49.56 48.1485 49.56C48.202 49.5325 48.1931 49.4959 48.211 49.4409C48.2467 49.386 48.211 49.3402 48.4432 49.3035C48.9166 49.3768 49.6758 49.0471 50.1492 48.9006C50.8191 48.5983 51.6051 49.212 52.2928 49.0196C52.3107 49.0471 52.3732 49.0013 52.3732 48.983C52.5786 49.0105 52.7841 49.0471 52.9984 49.0837C52.9984 49.0837 53.7398 49.2303 54.24 49.2211C54.7223 49.2211 55.0706 48.9647 53.9899 48.0122L54.0167 47.9847C53.6594 47.8198 53.4182 47.7557 53.1324 47.8839C53.1235 47.6733 52.8287 47.8198 52.7483 47.7374V47.7191C52.5072 47.8565 52.2928 47.5359 52.0517 47.6641C52.0606 47.6458 52.0695 47.5908 52.1231 47.5908C51.9534 47.6 51.7301 47.6458 51.7212 47.5176C51.3282 47.5267 50.7655 47.4901 50.5333 47.7007L50.5511 47.6641C50.4171 47.8107 50.3635 47.7008 50.2117 47.774C50.2028 47.7557 50.1938 47.7557 50.1938 47.7465C50.0509 47.8931 49.7473 47.8107 49.6311 47.8839L49.6133 47.8015L49.3096 47.8656H49.4257C49.4257 48.0946 49.1756 47.7649 48.9791 47.948C48.7648 47.9572 48.6665 48.4884 48.4343 48.4335C48.3628 48.5617 48.4789 48.2411 48.3539 48.3602C48.3182 48.2503 48.4075 48.2686 48.3539 48.1862C48.2021 48.2869 48.1217 48.1129 47.8895 48.2778L47.8448 48.1953C47.6036 48.4609 47.1927 48.4884 47.166 48.7998C47.0677 49.1478 46.7819 48.9189 46.8534 49.3768C46.8087 49.4226 46.7551 49.4776 46.7105 49.5325C46.6926 49.7248 46.8444 49.6607 46.8176 49.8622C46.7372 49.8622 46.7998 50.1278 46.7105 50.0271C46.7105 50.2835 46.8444 50.5125 47.032 50.7049C47.2196 50.8972 47.425 51.0529 47.6751 51.2819C47.8358 51.1903 47.943 51.3368 48.0502 51.2544C48.0324 51.3185 48.3896 51.4101 48.1395 51.4559C48.1217 51.4559 48.0949 51.4467 48.1038 51.4193L48.0502 51.4925C48.1842 51.7306 48.4432 51.5566 48.6308 51.6574C48.5772 51.6116 48.5057 51.5841 48.5772 51.5475L48.7558 51.6299L48.6933 51.6848L48.9523 51.8314V51.7307C49.0595 51.8222 49.0685 51.9871 49.256 51.9138C49.3453 51.868 49.1667 51.749 49.3185 51.7673C49.4793 51.8955 49.7294 52.0604 49.9616 52.1611C49.9616 52.0512 50.0331 52.0787 50.0956 52.0695L50.0777 52.1611C50.3635 52.1062 50.1224 52.3809 50.3993 52.3443L50.3636 52.3992L50.4707 52.2252C50.7387 52.097 50.5511 52.4359 50.8548 52.2527C50.7476 52.2527 50.8548 52.0512 50.962 52.1062L50.9173 52.1886C50.9888 52.1886 51.0156 52.152 51.0602 52.1794C51.0156 52.2161 51.0156 52.2985 51.1228 52.3077L51.0334 52.3992L51.2478 52.2802C51.3818 52.3992 51.6319 52.3168 51.6765 52.4542C51.6765 52.4542 51.9891 52.5549 52.0784 52.4267C52.007 52.5 52.1767 52.555 52.1142 52.6465C52.2124 52.5641 52.4625 52.5 52.5519 52.6191H52.534C52.8913 52.7656 53.1681 52.5275 53.4897 52.6557C53.4718 52.5458 53.6505 52.6099 53.6058 52.4725C53.9363 52.3351 54.231 52.7381 54.3293 52.3077C54.4811 52.2802 54.5168 52.3993 54.5972 52.4176L54.5615 52.445C54.8473 52.3901 54.9277 52.3809 55.1421 52.3626C55.2403 52.3077 55.2403 52.1153 55.4279 52.1428C55.3743 52.2252 55.4547 52.2069 55.5172 52.1977C55.4725 52.2161 55.4636 52.2435 55.5619 52.2893C55.5708 52.2619 55.5887 52.2435 55.6065 52.2344C55.6065 52.2344 55.6065 52.2435 55.6065 52.2527C55.7137 52.2069 55.6958 52.1886 55.6423 52.1886C55.6423 52.1794 55.6423 52.1611 55.6155 52.1428C55.7405 52.2252 55.937 52.0878 55.9727 52.2252C56.3925 52.1428 56.723 51.8405 56.9284 51.5383C57.0088 51.5566 56.982 51.6574 56.9106 51.7673C56.9731 51.694 57.0446 51.6207 57.0981 51.5383C57.1785 51.6116 57.0177 51.7032 56.9641 51.7764C57.1517 51.7123 57.25 51.5291 57.3214 51.346C57.384 51.1536 57.4108 50.9705 57.5179 50.7873L57.4554 50.6865L57.4733 50.6682C57.4733 50.6682 57.3929 50.5675 57.3839 50.5125C57.4643 50.4667 57.5805 50.5308 57.5715 50.3202C57.6519 50.1462 57.4733 49.8531 57.3482 49.6974C57.375 49.8073 57.3214 49.789 57.2768 49.7615C57.2321 49.6791 57.2768 49.5875 57.2142 49.5417L57.3036 49.4776C57.241 49.56 57.0624 49.331 56.9999 49.331C57.0267 49.2303 57.1428 49.4043 57.2142 49.386C56.9552 49.0746 57.0892 49.212 56.7766 48.9647C56.5533 48.928 56.7498 49.0746 56.6158 49.1112C56.4729 49.0379 56.2853 49.0563 56.1603 48.9464L56.1782 49.0563C55.9191 49.0563 55.7851 49.0013 55.6512 48.8548C53.6504 49.0929 54.9545 49.8256 54.9545 49.8256C55.2671 50.0454 55.5351 50.1095 55.8298 50.1462C55.9995 50.1462 56.0799 50.0729 56.196 50.2011L56.1782 50.2194Z" fill="#8E8E8E"/>
<path d="M58.9297 51.6465L58.9475 51.7381C58.9475 51.7381 58.9654 51.7014 58.9297 51.6465Z" fill="#8E8E8E"/>
<path d="M57.7411 52.3514C57.8573 52.4155 57.8662 52.5437 57.8572 52.6078C57.8483 52.6902 57.8215 52.6902 57.8483 52.7635C57.8483 52.7818 57.8215 52.8001 57.8304 52.8276C57.7947 52.91 57.759 53.0016 57.7233 53.0841C57.6518 53.2489 57.5804 53.4138 57.5178 53.5695C57.5714 53.7893 57.3035 53.9633 57.3124 54.1923L57.2052 54.2106C57.2052 54.293 57.1963 54.3755 57.1159 54.4029L57.0981 54.3846C57.0981 54.5037 57.0087 54.577 56.9998 54.6319L56.9819 54.6136L56.9283 54.7235L56.9105 54.6869C56.8658 54.87 56.7676 55.0166 56.6515 55.1265L56.7408 55.1814C56.446 55.3738 56.5353 55.6119 56.2406 55.7493L56.2227 55.731C56.1781 56.2164 55.6868 56.0515 55.6064 56.5186C55.6154 56.4637 55.5528 56.4912 55.5439 56.4728C55.4367 56.6194 55.3028 56.7659 55.4457 56.9216C55.3474 57.0132 55.3206 56.9491 55.2581 56.9033C55.3206 56.9674 55.2581 57.0773 55.1866 57.1506V57.0956L54.9991 57.3154L55.1509 57.407C54.9991 57.4711 54.9901 57.2697 54.9008 57.407L54.9901 57.5169C54.8026 57.636 54.5703 57.5444 54.347 57.5902C53.9808 57.8284 53.6593 58.1489 53.302 58.4145C53.2127 58.4786 53.1234 58.5519 53.0251 58.616C52.9537 58.6618 52.9269 58.671 52.8822 58.6893C52.7929 58.7076 52.6947 58.6618 52.6589 58.5702L52.6946 58.4695C52.784 58.3412 52.5071 58.6252 52.5786 58.4878L52.4981 58.5153C52.4981 58.5153 52.525 58.4512 52.5607 58.442C52.5517 58.4145 52.525 58.442 52.4803 58.442C52.5071 58.4145 52.525 58.3962 52.5518 58.3687C52.5696 58.3138 52.5428 58.2954 52.516 58.2405C52.4982 58.213 52.4982 58.1855 52.4892 58.1489C52.5071 58.0848 52.5428 57.9932 52.5786 57.9108C52.918 57.5902 53.1234 56.7842 53.2931 56.3171C53.4628 55.6027 54.4096 55.3555 54.6597 54.6869C54.6865 54.6869 54.6954 54.6136 54.6775 54.5953C54.8204 54.4487 54.9723 54.3022 55.1241 54.1648C55.1241 54.1648 55.669 53.6519 55.9548 53.2581C56.2317 52.8734 56.2406 52.443 54.874 52.7269V52.6902C54.5257 52.8734 54.3381 53.0291 54.2756 53.3314C54.1059 53.2123 54.0434 53.5329 53.9362 53.5512V53.5329C53.8915 53.8168 53.5075 53.7893 53.4717 54.0641C53.4717 54.0457 53.4271 54.0091 53.4539 53.9633C53.3645 54.1007 53.2574 54.3022 53.1591 54.2381C52.9358 54.5586 52.5785 54.9799 52.5964 55.2913L52.5786 55.2547C52.6054 55.447 52.4982 55.4196 52.4624 55.5936C52.4446 55.5936 52.4356 55.5936 52.4267 55.5936C52.4535 55.7951 52.2123 55.9874 52.1945 56.1248L52.123 56.0882L51.9891 56.3629L52.0605 56.2713C52.2302 56.4179 51.8283 56.4087 51.8551 56.6743C51.73 56.8484 52.0873 57.2605 51.8997 57.3979C51.9533 57.5353 51.7836 57.2422 51.7926 57.4162C51.6854 57.3704 51.7568 57.3246 51.6586 57.3154C51.6586 57.4803 51.4531 57.4986 51.4531 57.7001L51.3638 57.6727C51.3906 58.0207 51.1227 58.3413 51.3281 58.5702C51.4978 58.8816 51.1405 58.9274 51.4978 59.193C51.4978 59.2571 51.4978 59.3304 51.4978 59.3945C51.6139 59.5411 51.6854 59.3945 51.7836 59.5502C51.7211 59.6052 51.9444 59.7517 51.8104 59.7426C51.9712 59.9166 52.2213 59.999 52.4803 59.999C52.7393 59.999 52.9894 59.999 53.3109 59.9898C53.4003 59.8067 53.6861 59.7517 53.6504 59.6418C53.6861 59.6968 53.9719 59.4678 53.8647 59.6967C53.8558 59.7151 53.829 59.7334 53.8201 59.7059L53.8469 59.7975C54.1059 59.8341 54.1327 59.5228 54.3202 59.4312C54.2577 59.4403 54.1863 59.4861 54.2041 59.4128L54.3738 59.3212V59.4037L54.6418 59.2846L54.5614 59.2297C54.7043 59.193 54.8294 59.2938 54.8919 59.0923C54.9098 58.9915 54.7132 59.0648 54.8204 58.9549C55.008 58.8999 55.2938 58.8084 55.4992 58.6801C55.4189 58.6069 55.4725 58.5702 55.5082 58.5153L55.5707 58.5794C55.6957 58.3138 55.7672 58.671 55.9012 58.4328L55.919 58.4969L55.8565 58.3046C55.919 58.0115 56.0709 58.3687 56.1066 58.0115C56.0441 58.094 55.9458 57.8925 56.062 57.8375L56.0977 57.9199C56.1334 57.865 56.1334 57.8192 56.1781 57.8009C56.1781 57.865 56.2495 57.9108 56.312 57.8284L56.3388 57.9566L56.3656 57.7001C56.5353 57.6635 56.6247 57.4162 56.7497 57.462C56.7497 57.462 57.0176 57.2788 56.9641 57.1231C56.9819 57.233 57.1248 57.1231 57.1606 57.2239C57.1516 57.0957 57.2588 56.8667 57.3928 56.8575V56.8758C57.7054 56.6652 57.6786 56.308 57.9734 56.1248C57.884 56.0698 58.027 55.9691 57.9019 55.9233C57.9912 55.5753 58.4735 55.5753 58.1966 55.2456C58.2592 55.1082 58.3753 55.154 58.4378 55.0898V55.1357C58.5539 54.8701 58.5986 54.8059 58.7147 54.6228C58.7326 54.5129 58.5718 54.4029 58.7147 54.2564C58.7504 54.348 58.7772 54.2747 58.8129 54.2106C58.804 54.2564 58.813 54.2839 58.9112 54.2289C58.8933 54.2014 58.8933 54.1831 58.8933 54.1557C58.8933 54.1557 58.9023 54.1557 58.9112 54.1557C58.938 54.0366 58.9112 54.0457 58.8755 54.0915C58.8665 54.0915 58.8487 54.0824 58.8219 54.0915C58.9648 54.0274 58.9737 53.7893 59.0898 53.8351C59.197 53.5603 59.2595 53.1299 59.2059 52.7635C59.2685 52.7177 59.331 52.8093 59.3489 52.9375C59.3489 52.8368 59.3489 52.7452 59.331 52.6445C59.4293 52.6445 59.3846 52.8184 59.4024 52.91C59.5007 52.736 59.4471 52.5254 59.3667 52.3514C59.2774 52.1682 59.1702 52.0216 59.1256 51.811L59.0184 51.7927V51.7652C59.0184 51.7652 58.8933 51.756 58.8487 51.7286C58.8755 51.637 59.0005 51.6003 58.8487 51.463C58.7862 51.2889 58.4646 51.2157 58.2592 51.1973C58.3574 51.2431 58.3038 51.2798 58.2592 51.2889C58.1788 51.2615 58.1431 51.1607 58.0716 51.179L58.0895 51.0691C58.0984 51.179 57.8215 51.1332 57.7858 51.1882C57.7322 51.0966 57.9376 51.1241 57.9734 51.0691C57.5804 51.0508 57.7679 51.0325 57.3749 51.1057C57.1963 51.234 57.4374 51.2065 57.366 51.3256C57.2142 51.3988 57.1159 51.527 56.9283 51.5637L57.0266 51.6187C56.8479 51.8293 56.7497 51.9026 56.5532 51.9209C55.5707 53.6794 56.9016 53.0749 56.9016 53.0749C57.232 52.965 57.5 52.7452 57.6161 52.5986C57.6429 52.5254 57.6697 52.388 57.8215 52.388L57.7411 52.3514Z" fill="#8E8E8E"/>
<path d="M28.8836 19.1884C30.0231 19.1884 30.9468 18.2412 30.9468 17.0727C30.9468 15.9043 30.0231 14.957 28.8836 14.957C27.7441 14.957 26.8203 15.9043 26.8203 17.0727C26.8203 18.2412 27.7441 19.1884 28.8836 19.1884Z" fill="#8E8E8E"/>
<path d="M30.9023 15.4258V15.4899C30.9023 15.4899 30.9223 15.4624 30.9023 15.4258Z" fill="#8E8E8E"/>
<path d="M30.0636 17.0198L30.0547 17.0098L30.0636 17.0198Z" fill="#8E8E8E"/>
<path d="M29.7142 16.0573C29.8839 16.3046 29.7589 16.4603 29.9286 16.6526C29.9643 16.7717 30.0268 16.8907 30.0536 17.019C30.2144 17.0739 30.0536 17.1838 30.1697 17.2754L30.0804 17.2937C30.0804 17.2937 30.1429 17.367 30.0893 17.3761H30.0626C30.1161 17.4219 30.0626 17.4586 30.0893 17.4861H30.0626V17.5227L30.0358 17.5044C30.0804 17.596 30.0536 17.6601 30.0001 17.7059L30.0893 17.7517C29.9196 17.8066 30.0715 17.9806 29.875 17.9898L29.8571 17.9715C29.9375 18.3012 29.5713 17.9989 29.5892 18.3012C29.5892 18.2646 29.5535 18.2554 29.5445 18.2371C29.4999 18.3104 29.4284 18.347 29.5177 18.5393C29.4641 18.5668 29.4463 18.5027 29.4105 18.4294C29.4463 18.5118 29.4105 18.5668 29.3659 18.5943V18.5485C29.3659 18.5485 29.2944 18.5943 29.2498 18.6218L29.3212 18.7775C29.2319 18.75 29.2498 18.576 29.1962 18.6401L29.223 18.7775C29.1068 18.7683 29.0175 18.5668 28.9282 18.4569C28.7496 18.4294 28.562 18.4752 28.3566 18.4569C28.1601 18.4386 27.9546 18.3287 27.91 18.1089L27.9725 18.0173C28.0797 17.9074 27.7492 18.1089 27.8385 17.9989L27.7582 18.0173C27.7582 18.0173 27.785 17.9532 27.8207 17.944C27.8028 17.9074 27.785 17.9257 27.7314 17.9348L27.785 17.8432C27.776 17.6875 27.5527 17.6692 27.5438 17.4952C27.6778 17.2754 27.4723 16.9823 27.4366 16.7259C27.3562 16.5427 27.517 16.3961 27.6778 16.3137C27.8385 16.2221 27.9815 16.1855 28.0082 15.9932C28.0261 16.0023 28.0172 15.9474 28.0082 15.9382C28.0797 15.8832 28.1601 15.8466 28.2405 15.81C28.2405 15.81 28.5174 15.6818 28.7228 15.5261C28.821 15.4436 28.9104 15.3246 28.8925 15.1506C28.8657 14.9857 28.7406 14.7109 28.2226 14.5003V14.4636C27.9368 14.4545 27.7492 14.5277 27.6688 14.7659C27.5438 14.601 27.4634 14.8666 27.383 14.8483V14.83C27.3384 15.059 27.0168 14.9491 26.999 15.178C26.999 15.1597 26.9543 15.1139 26.9811 15.0864C26.9096 15.1963 26.8382 15.352 26.7399 15.2788C26.5702 15.5261 26.3291 15.8924 26.4541 16.1397L26.4273 16.1122C26.5166 16.2588 26.3916 16.2496 26.4273 16.3778C26.4095 16.3778 26.4005 16.3778 26.3916 16.3778C26.4809 16.5152 26.3469 16.6984 26.3916 16.7991H26.3112V17.019L26.3291 16.9365C26.5434 16.9732 26.1772 17.1014 26.3291 17.2662C26.3112 17.4311 26.8114 17.4952 26.7399 17.6326C26.856 17.6692 26.5613 17.6143 26.6685 17.6967C26.5613 17.7333 26.5881 17.6692 26.5077 17.715C26.5792 17.7975 26.4452 17.9165 26.5613 18.0173L26.4809 18.0539C26.6953 18.1455 26.5077 18.4111 26.7131 18.4386C26.865 18.5485 26.5613 18.695 26.8114 18.75L26.7667 18.8874C26.8114 18.9698 26.9186 18.8324 26.9364 18.9423C26.8739 18.9881 26.9722 19.0705 26.8828 19.0797C26.9632 19.327 27.3026 19.2537 27.4277 19.5651C27.5527 19.4735 27.6331 19.6201 27.7224 19.5285C27.6956 19.5926 27.9725 19.6567 27.776 19.7208C27.7581 19.7208 27.7403 19.7208 27.7492 19.6933L27.6956 19.7666C27.7849 19.9956 28.0083 19.8032 28.1512 19.8674C28.1154 19.8307 28.0529 19.8216 28.1065 19.7666L28.2494 19.8124L28.2047 19.8765C28.2762 19.9131 28.3477 19.9406 28.4191 19.9681L28.4013 19.8674C28.4995 19.9315 28.5263 20.0963 28.6603 19.9773C28.7228 19.904 28.571 19.849 28.6871 19.8216C28.8211 19.8948 29.0443 19.9956 29.2319 19.9956C29.2051 19.8948 29.2498 19.8948 29.3033 19.8582L29.3212 19.9498C29.4999 19.7941 29.4284 20.1421 29.616 19.9956V20.0597V19.8582C29.7321 19.6384 29.7678 20.0139 29.875 19.7117C29.8125 19.7575 29.7767 19.5376 29.875 19.5376V19.6292C29.9286 19.5926 29.9286 19.556 29.9643 19.556C29.9643 19.6109 30 19.6842 30.0626 19.6292V19.7483L30.1251 19.5376C30.268 19.5743 30.3573 19.3728 30.4645 19.4552C30.4645 19.4552 30.7057 19.3545 30.661 19.2171C30.6789 19.3178 30.795 19.2445 30.8307 19.3453C30.8218 19.2262 30.9022 19.0431 31.0272 19.0522V19.0705C31.3041 18.9148 31.2148 18.6034 31.447 18.4477C31.3488 18.4111 31.4559 18.3104 31.3219 18.2829C31.313 18.0173 31.7507 17.9348 31.3755 17.7242C31.3755 17.6143 31.5006 17.6234 31.5363 17.5685L31.5542 17.596C31.5542 17.3762 31.5542 17.3212 31.572 17.1563C31.5363 17.0739 31.3487 17.0647 31.3845 16.9274C31.4649 16.964 31.447 16.909 31.447 16.8633C31.4559 16.8907 31.4916 16.8999 31.5363 16.8358C31.5095 16.8358 31.5006 16.8175 31.4827 16.7991C31.4827 16.7991 31.4917 16.7991 31.5006 16.7991C31.4649 16.7167 31.4381 16.735 31.4381 16.7717C31.4291 16.7717 31.4113 16.7717 31.3934 16.79C31.4827 16.6892 31.3487 16.5518 31.4738 16.5152C31.3845 16.2588 31.2058 16.1305 31.0719 15.9748C31.1254 15.9291 31.1969 15.9382 31.2416 15.984L31.1522 15.8558C31.2416 15.81 31.2416 15.9107 31.2773 15.9474C31.3398 15.7001 30.9825 15.6909 30.9736 15.4436H30.8843C30.8486 15.4711 30.786 15.4711 30.7592 15.4436C30.8039 15.3704 30.9111 15.3154 30.8396 15.2421C30.8396 15.1231 30.6521 15.0956 30.5449 15.059C30.5806 15.1048 30.536 15.1322 30.5002 15.1414C30.4645 15.1139 30.5002 15.0223 30.4377 15.0315L30.5002 14.9399C30.4466 15.0406 30.3216 14.9491 30.2858 14.9765C30.3126 14.8849 30.393 14.9674 30.4377 14.9216C30.268 14.8025 30.3573 14.8575 30.1787 14.7567C30.0447 14.775 30.143 14.8575 30.0536 14.9216C29.9643 14.8941 29.8571 14.9307 29.7946 14.83V14.9399C29.607 14.949 29.5356 14.9124 29.4552 14.7842C29.1158 14.9124 28.9818 15.1048 28.9193 15.2421C28.8568 15.3887 28.8568 15.5077 28.8925 15.5902C28.9461 15.7734 29.0533 15.8649 29.0533 15.8649C29.223 16.1306 29.4016 15.8649 29.7231 16.0115L29.7142 16.0573Z" fill="#8E8E8E"/>
<path d="M12.9928 21.4892L12.957 21.4434C12.957 21.4434 12.957 21.48 12.9928 21.4892Z" fill="#8E8E8E"/>
<path d="M11.6074 19.7971L11.6164 19.7871L11.6074 19.7971Z" fill="#8E8E8E"/>
<path d="M13.6618 20.2532C13.1259 20.125 13.0098 19.9235 12.4381 19.9052C12.1702 19.8502 11.8843 19.8319 11.6164 19.8044C11.4646 19.9326 11.2681 19.7403 11.0984 19.8319L11.0626 19.7312C11.0001 19.7586 10.9376 19.7769 10.8929 19.722V19.6945C10.8125 19.7403 10.7321 19.6854 10.6875 19.7037V19.6762L10.5982 19.667L10.625 19.6396C10.4821 19.6762 10.3392 19.6487 10.232 19.5938L10.2141 19.7037C9.9908 19.5205 9.83895 19.7037 9.65139 19.5113V19.4839C9.30305 19.6762 9.24947 19.1816 8.88326 19.3465C8.92792 19.3282 8.88327 19.2915 8.89221 19.2641C8.7493 19.2549 8.59743 19.2274 8.53491 19.4198C8.43666 19.3831 8.47239 19.3282 8.48132 19.2549C8.45453 19.3465 8.35629 19.3556 8.27591 19.3373L8.32056 19.319L8.08832 19.2824V19.4655C7.98114 19.3831 8.11513 19.2549 7.99008 19.2549L7.94544 19.3923C7.7936 19.3098 7.75784 19.0717 7.64173 18.916C7.0165 18.6412 6.19478 18.7145 5.6946 18.2291L5.71248 18.1192C5.75714 17.9727 5.46237 18.2657 5.4981 18.1192L5.39987 18.1558C5.39987 18.1558 5.36412 18.0734 5.40878 18.0551C5.34626 18.0185 5.33733 18.0459 5.27481 18.0734L5.24801 17.9543C5.02472 17.7803 4.74783 17.8628 4.49774 17.6979C4.26552 17.3682 3.61349 17.2674 3.23836 17.1758C2.65779 17.1484 2.42555 16.2966 1.83606 16.2508C1.83606 16.2233 1.7646 16.2508 1.75567 16.2508C1.6217 16.1592 1.47879 16.0768 1.34482 15.976C1.34482 15.976 0.853558 15.6372 0.46949 15.5639C0.0854224 15.4906 -0.22719 15.6555 0.219401 16.7179L0.192606 16.7362C0.380174 16.956 0.523105 17.0751 0.773196 17.0293C0.692809 17.2308 0.960746 17.1667 0.97861 17.2583H0.960756C1.18405 17.2125 1.20191 17.5605 1.40735 17.5239C1.38948 17.533 1.36269 17.588 1.32696 17.5697C1.44308 17.6063 1.60383 17.6521 1.55917 17.762C1.81819 17.8811 2.14867 18.1284 2.39876 18.0368L2.37197 18.0642C2.52381 18.0001 2.49702 18.11 2.631 18.1009C2.631 18.1192 2.631 18.1284 2.631 18.1375C2.79177 18.0734 2.93467 18.2749 3.04186 18.2657L3.01506 18.339L3.2205 18.4306L3.14903 18.3756C3.27408 18.1925 3.23837 18.5771 3.45274 18.513C3.57778 18.6046 3.92611 18.2199 4.02436 18.394C4.13154 18.3299 3.89931 18.5222 4.02436 18.4947C3.9797 18.6046 3.94397 18.5405 3.93504 18.6321C4.06008 18.6321 4.05117 18.8153 4.20301 18.8061L4.16727 18.8885C4.39057 18.8153 4.4263 19.1358 4.59601 19.0442C4.79251 19.0442 4.60492 19.3465 4.85501 19.2549L4.88181 19.4014C4.95326 19.4564 4.98899 19.2824 5.05151 19.374C5.01578 19.4472 5.1319 19.4747 5.05151 19.5205C5.20335 19.7128 5.49812 19.5205 5.68569 19.8136C5.79287 19.6945 5.8911 19.8227 5.97149 19.7403C5.95362 19.8044 6.22158 19.8502 6.03402 19.9235C6.01615 19.9235 5.99829 19.9235 6.00722 19.896L5.96257 19.9693C6.05189 20.1799 6.25731 19.9876 6.39128 20.0609C6.35556 20.0151 6.30198 20.0059 6.35558 19.9601L6.48955 20.0242L6.43596 20.0884L6.62352 20.2074V20.1067C6.71284 20.1891 6.69497 20.3448 6.84681 20.2624C6.91827 20.2074 6.79323 20.1158 6.90934 20.1158C7.01652 20.2166 7.18622 20.3814 7.34699 20.4639C7.36486 20.3631 7.40952 20.3814 7.46311 20.3723L7.44526 20.4639C7.65962 20.4089 7.44525 20.6745 7.65961 20.647L7.62388 20.702L7.73105 20.5371C7.94542 20.4181 7.76679 20.7478 8.01688 20.5646C7.94542 20.5646 8.04369 20.3631 8.11514 20.4272L8.07047 20.5005C8.12406 20.5005 8.15085 20.4639 8.17764 20.5005C8.13299 20.5371 8.12405 20.6196 8.20444 20.6287L8.12406 20.7203L8.3027 20.6104C8.38309 20.7295 8.5796 20.6654 8.58853 20.8027C8.58853 20.8027 8.79395 20.931 8.88326 20.8119C8.81181 20.8852 8.92791 20.9493 8.87432 21.0317C8.95471 20.9584 9.15122 20.9218 9.19588 21.0409H9.178C9.41023 21.2149 9.65139 21.0317 9.84789 21.2149C9.86575 21.105 9.97295 21.1966 9.97295 21.0592C10.2409 20.9859 10.3481 21.4255 10.5267 21.0409C10.6428 21.0409 10.6339 21.1691 10.6875 21.1966L10.6607 21.2149C10.875 21.2332 10.9286 21.2424 11.0805 21.279C11.1609 21.2515 11.2145 21.0683 11.3395 21.1416C11.277 21.2057 11.3395 21.2057 11.3931 21.2149C11.3574 21.2149 11.3395 21.2424 11.3931 21.3065C11.411 21.2882 11.4199 21.2698 11.4377 21.2607C11.4377 21.2607 11.4377 21.2698 11.4377 21.279C11.5271 21.2698 11.5182 21.2424 11.4824 21.224C11.4824 21.2149 11.4824 21.1966 11.4824 21.1782C11.5539 21.2973 11.7325 21.224 11.7147 21.3523C11.9737 21.3706 12.1791 21.2607 12.4024 21.2515C12.4113 21.3248 12.3577 21.3706 12.2863 21.3889H12.4381C12.4203 21.4897 12.3399 21.4347 12.2952 21.4439C12.456 21.627 12.6882 21.3523 12.8847 21.5263L12.9383 21.453V21.4713C12.9383 21.4713 13.0098 21.3798 13.0455 21.3706C13.0634 21.4622 13.0187 21.5629 13.1259 21.5721C13.1973 21.6637 13.367 21.5721 13.4831 21.5354C13.4295 21.5171 13.4474 21.4713 13.4831 21.4439C13.5367 21.4439 13.5546 21.5355 13.5993 21.4988V21.6179C13.5814 21.508 13.7422 21.5171 13.769 21.4713C13.7868 21.5629 13.6797 21.5355 13.6618 21.5996C13.8762 21.6087 13.769 21.5996 13.9833 21.6179C14.1084 21.5446 13.9744 21.508 14.0369 21.4164C14.1352 21.4072 14.2423 21.334 14.3495 21.4164L14.3227 21.3156C14.5192 21.2515 14.6264 21.2698 14.7425 21.3797C16.1359 20.5921 15.0462 20.2532 15.073 20.2532C14.5818 20.0059 14.3049 20.2807 13.6707 20.299L13.6618 20.2532Z" fill="#8E8E8E"/>
<path d="M13.1194 20.4091L13.1016 20.3633C13.1016 20.3633 13.1016 20.3999 13.1194 20.4091Z" fill="#8E8E8E"/>
<path d="M13.7265 19.1901C13.3603 19.0619 13.3157 18.8513 12.9137 18.8329C12.7351 18.7688 12.5386 18.7505 12.351 18.723C12.2171 18.8513 12.1188 18.6498 11.9848 18.7414V18.6406C11.9223 18.6681 11.8776 18.6864 11.8598 18.6314V18.604C11.7972 18.6498 11.7526 18.5948 11.7169 18.6131V18.5857L11.6633 18.5765L11.6901 18.549C11.574 18.5856 11.4846 18.549 11.4221 18.4941L11.3953 18.5948C11.2703 18.4116 11.1274 18.5948 11.0202 18.4025V18.375C10.7344 18.5582 10.8058 18.0636 10.5021 18.2193C10.5379 18.201 10.5111 18.1643 10.5289 18.146C10.4218 18.1369 10.3235 18.1002 10.2342 18.2926C10.1717 18.2559 10.2074 18.2101 10.2342 18.1277C10.1985 18.2101 10.127 18.2193 10.0734 18.1918L10.1091 18.1735L9.94838 18.1277L9.90373 18.3017C9.85014 18.2193 9.97517 18.1002 9.88585 18.1002L9.82332 18.2284C9.72507 18.146 9.76082 17.917 9.70723 17.7705C9.31423 17.4866 8.68005 17.5415 8.42996 17.0744L8.4657 16.9737C8.53715 16.8363 8.24241 17.1019 8.30493 16.9737L8.22455 17.0103C8.22455 17.0103 8.22453 16.9371 8.26025 16.9187C8.22453 16.8913 8.20667 16.9096 8.15308 16.9279V16.818C8.04589 16.644 7.81369 16.7081 7.67078 16.5615C7.58146 16.2685 7.11699 16.1402 6.84904 16.0487C6.40245 16.0029 6.47391 15.2335 6.01839 15.1877C6.01839 15.1602 5.96479 15.1877 5.95586 15.1877C5.87547 15.1053 5.7951 15.0229 5.71471 14.9313C5.71471 14.9313 5.41994 14.629 5.13412 14.5466C4.8483 14.4733 4.54464 14.6015 4.58929 15.5449L4.5625 15.5632C4.65182 15.7647 4.7322 15.8655 4.94656 15.838C4.82152 16.012 5.05376 15.9754 5.04483 16.0487H5.02694C5.22344 16.0212 5.13413 16.3326 5.31277 16.2959C5.2949 16.3051 5.25919 16.3509 5.24133 16.3326C5.32171 16.3692 5.44674 16.415 5.36636 16.5066C5.54499 16.6165 5.72363 16.8546 5.95586 16.7814L5.92907 16.7997C6.07197 16.7447 6.01838 16.8455 6.12557 16.8455C6.12557 16.8638 6.12556 16.8729 6.11663 16.8729C6.25953 16.818 6.31313 17.0103 6.40245 17.0012L6.3578 17.0653L6.50069 17.1477L6.46498 17.0928C6.61682 16.9279 6.48284 17.2851 6.66148 17.2393C6.73293 17.3309 7.10807 16.992 7.13486 17.1477C7.24205 17.0928 7.00089 17.2576 7.10807 17.2393C7.04555 17.3401 7.03662 17.2759 7.00089 17.3675C7.09914 17.3675 7.04555 17.5415 7.16166 17.5324L7.11698 17.6057C7.31348 17.5415 7.25098 17.8438 7.41175 17.7614C7.56359 17.7797 7.3403 18.0361 7.55466 17.9628L7.53678 18.1002C7.57251 18.146 7.6529 17.9995 7.67969 18.0819C7.63503 18.146 7.71541 18.1827 7.64396 18.2193C7.70648 18.4025 7.99232 18.2376 8.05484 18.5215C8.16202 18.4208 8.20667 18.5398 8.29599 18.4574C8.26919 18.5124 8.46569 18.5673 8.29599 18.6314C8.27813 18.6314 8.2692 18.6314 8.27813 18.604L8.22455 18.6772C8.24241 18.8787 8.44782 18.6956 8.53714 18.778C8.51927 18.7322 8.48355 18.723 8.53714 18.6772L8.61755 18.7414L8.56396 18.7963L8.68005 18.9154L8.70684 18.8238C8.7515 18.9062 8.70686 19.0528 8.8319 18.9795C8.90336 18.9337 8.8319 18.8329 8.91229 18.8513C8.97481 18.9612 9.06413 19.1077 9.17132 19.1993C9.20704 19.0986 9.23383 19.1169 9.27849 19.1169L9.24276 19.1993C9.42139 19.1535 9.19811 19.4008 9.36782 19.3733L9.33208 19.4283L9.4482 19.2726C9.63577 19.1627 9.43032 19.4741 9.65361 19.3184C9.60002 19.3092 9.71616 19.126 9.76082 19.1901L9.70723 19.2634C9.70723 19.2634 9.77868 19.2359 9.78761 19.2634C9.75188 19.3 9.72509 19.3733 9.78761 19.3825L9.70723 19.4649L9.868 19.3642C9.90372 19.4832 10.0645 19.4283 10.0466 19.5565C10.0466 19.5565 10.1806 19.6847 10.2699 19.5748C10.2074 19.6389 10.2788 19.703 10.2163 19.7855C10.2967 19.7122 10.4396 19.703 10.4486 19.8129H10.4307C10.5736 19.987 10.788 19.8129 10.9041 19.9961C10.9309 19.8954 11.0023 19.9778 11.0202 19.8496C11.2256 19.7946 11.2346 20.2251 11.4311 19.8496C11.5114 19.8496 11.4936 19.9778 11.5204 20.0053L11.4936 20.0236C11.6454 20.0419 11.6901 20.0511 11.7973 20.0969C11.8598 20.0785 11.9312 19.8954 12.0116 19.9686C11.958 20.0328 12.0027 20.0328 12.0384 20.0419C12.0116 20.0419 11.9938 20.0694 12.0295 20.1335C12.0384 20.1152 12.0563 20.106 12.0742 20.0969C12.0742 20.0969 12.0742 20.106 12.0742 20.1152C12.1456 20.1152 12.1367 20.0785 12.1099 20.0602C12.1099 20.0511 12.1099 20.0328 12.1099 20.0144C12.1456 20.1243 12.2885 20.0602 12.2528 20.1885C12.4403 20.2159 12.6101 20.1152 12.7708 20.106C12.7708 20.1793 12.7262 20.2251 12.6726 20.2434H12.7887C12.7619 20.3442 12.7172 20.2892 12.6726 20.2984C12.7619 20.4815 12.9763 20.2159 13.0924 20.3899L13.137 20.3167V20.335C13.137 20.335 13.1995 20.2434 13.2263 20.2434C13.2263 20.335 13.1817 20.4357 13.2621 20.4449C13.3067 20.5365 13.4407 20.4449 13.53 20.4083C13.4943 20.3899 13.5122 20.3442 13.53 20.3167C13.5658 20.3167 13.5747 20.4083 13.6104 20.3808L13.5925 20.4907C13.5925 20.3808 13.7087 20.3899 13.7355 20.3442C13.7355 20.4357 13.664 20.4083 13.6461 20.4724C13.8069 20.4815 13.7265 20.4724 13.8784 20.4907C13.9766 20.4174 13.8784 20.3808 13.932 20.2892C14.0034 20.28 14.0838 20.2068 14.1642 20.2892L14.1463 20.1885C14.2892 20.1243 14.3696 20.1427 14.45 20.2526C14.977 19.8679 14.9948 19.5748 14.9413 19.3916C14.8787 19.2084 14.718 19.126 14.718 19.126C14.4053 18.8787 14.2088 19.1535 13.7712 19.1627L13.7265 19.1901Z" fill="#8E8E8E"/>
</svg>
