<svg width="71" height="71" viewBox="0 0 71 71" fill="none" xmlns="http://www.w3.org/2000/svg">
<path d="M47.625 52.7812L47.655 52.8595C47.655 52.8595 47.655 52.8247 47.625 52.7812Z" fill="#8E8E8E"/>
<path d="M48.9948 55.6867H48.9849L48.9648 55.6777L48.9948 55.6867Z" fill="#8E8E8E"/>
<path d="M45.9257 53.1562C46.7157 53.8084 46.7857 54.1214 47.6957 54.7388C48.0957 55.0693 48.5557 55.3823 48.9857 55.6867C49.2857 55.7301 49.5257 56.1041 49.8457 56.1823L49.8757 56.3127C49.9857 56.3388 50.1057 56.391 50.1457 56.4867L50.1257 56.504C50.2957 56.5475 50.4057 56.678 50.4857 56.6954L50.4657 56.7127L50.6257 56.8171H50.5757C50.8457 56.9301 51.0657 57.0867 51.2457 57.2432L51.3057 57.1562C51.6557 57.5388 51.9657 57.478 52.2857 57.8345L52.2657 57.8519C52.9657 57.9301 53.0257 58.5041 53.8357 58.5215C53.7357 58.5215 53.8557 58.5823 53.8357 58.5997C54.1757 58.6867 54.5757 58.7388 54.6057 58.5301C54.8257 58.5562 54.7757 58.6084 54.7857 58.6867C54.7957 58.5997 54.8857 58.5649 54.9757 58.5475L54.9257 58.591L55.1457 58.5041C55.1857 58.4432 55.2157 58.391 55.2457 58.3388C55.3457 58.3475 55.0857 58.5475 55.2457 58.4867L55.3957 58.3302C55.5857 58.3302 55.3857 58.6432 55.2057 58.7997C55.1957 58.9649 55.2057 59.0954 55.0257 59.2693C54.9957 59.3041 54.9057 59.3562 54.8257 59.391C54.7157 59.4345 54.5757 59.4867 54.4357 59.5128C54.1557 59.5736 53.8757 59.5823 53.5957 59.5302L53.5457 59.4258C53.5257 59.278 53.2457 59.6606 53.2057 59.5041L53.0657 59.5649C53.0657 59.5649 52.9557 59.5041 53.0257 59.4693C52.9057 59.4519 52.9057 59.478 52.8057 59.5215L52.6857 59.4171C52.2357 59.278 51.7757 59.3736 51.2857 59.1823C50.7557 58.8345 49.5857 58.5562 48.9157 58.3041C47.8957 58.0432 47.3157 56.9649 46.3357 56.5997C46.3257 56.5649 46.2257 56.5562 46.2057 56.5649C45.9557 56.391 45.7157 56.2084 45.4857 56.0171C45.4757 56.0606 42.0657 53.2084 43.7357 56.2519H43.6957C44.0357 56.6432 44.2957 56.8432 44.6957 56.9388C44.5957 57.1214 45.0157 57.2084 45.0757 57.3302H45.0557C45.4257 57.3997 45.5057 57.8084 45.8557 57.878C45.8357 57.878 45.7957 57.9214 45.7257 57.878C45.9257 57.991 46.2257 58.1128 46.1557 58.2171C46.6257 58.4867 47.2557 58.9215 47.6757 58.9302L47.6357 58.9475C47.8857 58.9475 47.8657 59.0606 48.1057 59.1041C48.1057 59.1214 48.1157 59.1388 48.1057 59.1388C48.3757 59.1302 48.6857 59.4084 48.8757 59.4432L48.8457 59.5128L49.2557 59.678L49.1157 59.5997C49.2757 59.4345 49.3457 59.8519 49.7157 59.8519C49.9957 59.9823 50.4857 59.6606 50.7257 59.8519C50.9057 59.7997 50.5357 59.9649 50.7757 59.9562C50.7357 60.0606 50.6457 59.991 50.6657 60.0954C50.8957 60.1128 50.9657 60.3128 51.2657 60.3128L51.2457 60.3997C51.6457 60.3302 51.8857 60.6693 52.1757 60.5563C52.5657 60.5389 52.3857 60.8606 52.8157 60.7215L52.9657 60.8519C53.1457 60.878 53.0957 60.7215 53.2957 60.7824C53.2857 60.8606 53.5457 60.8432 53.4357 60.9128C53.9157 61.0345 54.3457 60.7128 55.0057 60.7476C55.0857 60.5736 55.4157 60.565 55.4957 60.3997C55.5257 60.4258 55.6957 60.3475 55.8357 60.3041C55.9657 60.2345 56.0657 60.1997 55.9057 60.3823C55.8757 60.4084 55.8157 60.4345 55.7957 60.4084V60.5041C56.0757 60.4867 56.2757 60.2954 56.4357 60.1563C56.5757 59.991 56.6757 59.8258 56.8357 59.678C56.7357 59.7649 56.5857 59.878 56.6157 59.7823C56.7357 59.6954 56.7957 59.591 56.8857 59.4954L56.9157 59.5736C57.0657 59.4258 57.1657 59.2693 57.2757 59.1041L57.1257 59.1649C57.2957 58.9475 57.5157 58.8345 57.4057 58.5736C57.3457 58.4693 57.2257 58.8171 57.2357 58.5736C57.3857 58.278 57.3357 57.704 56.9757 57.4171C56.9157 57.504 56.8257 57.4258 56.7057 57.3997L56.7757 57.3302C56.5357 57.278 56.5357 57.2519 56.5457 57.191C56.5457 57.1475 56.5757 57.0519 56.3157 57.078L56.4057 57.0258L56.1457 57.1997C55.9057 57.2693 55.8457 57.2432 55.7957 57.1997C55.7457 57.1649 55.6957 57.1128 55.2757 57.3302C55.5557 57.2606 55.3057 57.5214 55.0357 57.5301L55.1357 57.4258C54.9357 57.4867 54.9657 57.4954 54.8857 57.4867C54.9457 57.4432 54.9357 57.3649 54.8057 57.3823L54.9157 57.278C54.8257 57.3302 54.7257 57.3823 54.6657 57.4084C54.5557 57.3041 54.2657 57.3127 54.2457 57.1823C54.2457 57.1823 53.9357 56.991 53.7857 57.0519C53.8957 57.0171 53.7257 56.8954 53.8357 56.8432C53.6957 56.8867 53.3857 56.791 53.3357 56.6519H53.3657C53.0457 56.3475 52.6057 56.3562 52.3457 56.0258C52.2857 56.1128 52.1457 55.9475 52.0957 56.078C51.6457 55.9214 51.6357 55.4171 51.2157 55.6258C51.0357 55.5214 51.0957 55.4171 51.0257 55.3388L51.0757 55.3562C50.7557 55.1562 50.6657 55.0867 50.4457 54.9127C50.3057 54.8519 50.1457 54.9823 49.9857 54.791C50.1057 54.791 50.0157 54.7301 49.9357 54.6779C49.9957 54.704 50.0257 54.6953 49.9657 54.5823C49.9357 54.5823 49.9057 54.5823 49.8757 54.5823C49.8757 54.5823 49.8757 54.5736 49.8857 54.5649C49.7457 54.4866 49.7457 54.5214 49.7957 54.5736C49.7857 54.5736 49.7757 54.591 49.7757 54.6258C49.7157 54.4519 49.4157 54.3475 49.4957 54.2432C49.1057 53.9736 48.7357 53.8606 48.3857 53.6519C48.4057 53.5736 48.5157 53.591 48.6257 53.6519L48.3857 53.4953C48.4557 53.4258 48.5557 53.5562 48.6357 53.591C48.4857 53.2692 47.9757 53.278 47.7757 52.9301H47.6557V52.9127C47.6257 52.9388 47.5157 52.9301 47.4657 52.904C47.4857 52.8084 47.6157 52.7649 47.4557 52.6519C47.3957 52.4953 47.0757 52.4171 46.8757 52.3301C46.9557 52.4084 46.8957 52.4171 46.8357 52.4171C46.7557 52.3649 46.7657 52.2692 46.6857 52.2432L46.7557 52.1562C46.7157 52.2605 46.4657 52.0866 46.3957 52.104C46.4057 52.0084 46.5757 52.1388 46.6357 52.104C46.2957 51.8866 46.4657 51.991 46.1357 51.7736C45.8957 51.7214 46.0957 51.8779 45.9457 51.8953C45.7757 51.8084 45.5657 51.7649 45.4257 51.5997V51.7127C45.0657 51.591 44.8957 51.4779 44.7357 51.2779C44.0157 51.1301 43.5757 51.2431 43.4857 51.3997C43.3657 51.5301 43.3557 51.6519 43.4757 51.7301C43.4757 51.8866 43.7157 52.0344 43.7357 52.0431C44.3057 52.5214 44.9457 52.5997 45.9357 53.2171L45.9257 53.1562Z" fill="#8E8E8E"/>
<path d="M24.0471 53.5391L23.957 53.5564C23.957 53.5564 23.9971 53.5738 24.0471 53.5391Z" fill="#8E8E8E"/>
<path d="M20.5957 54.4089L20.6057 54.3828L20.5957 54.4089Z" fill="#8E8E8E"/>
<path d="M23.8661 52.0175C22.9661 52.6261 22.5961 52.6609 21.7961 53.4001C21.3761 53.7131 20.9761 54.087 20.5961 54.4175C20.5161 54.6783 20.0761 54.8262 19.9461 55.087H19.7961C19.7461 55.1827 19.6861 55.2696 19.5661 55.2957V55.2696C19.4861 55.4001 19.3261 55.4697 19.2861 55.5392V55.5131L19.1361 55.6262V55.5827C18.9761 55.7827 18.7761 55.9392 18.5661 56.0349L18.6561 56.1044C18.1761 56.2871 18.1661 56.5479 17.7161 56.6697V56.6436C17.3961 57.1392 16.8661 56.9044 16.5261 57.2958C16.5661 57.2436 16.4761 57.2523 16.4761 57.2349C16.2861 57.3392 16.0861 57.374 16.0961 57.5653C15.8961 57.5653 15.9261 57.5044 15.8861 57.4262C15.9061 57.5218 15.5861 57.487 15.3661 57.4697L15.4561 57.4436C15.2361 57.4262 15.0361 57.4262 14.8861 57.4436L15.1161 57.6175C14.8161 57.5479 14.8761 57.3914 14.6661 57.461L14.7861 57.5827C14.4261 57.5827 13.9761 57.5566 13.6861 57.8871C13.2961 58.6523 13.8861 59.6001 14.8561 60.1219C15.0961 60.2697 15.3261 60.3479 15.5561 60.4349C15.7661 60.5045 15.9461 60.5566 16.1461 60.6001C16.5261 60.6871 16.9061 60.7566 17.2661 60.8262L17.3261 60.9306C17.3561 61.0784 17.7361 60.7219 17.7861 60.8436L17.9461 60.7653C17.9461 60.7653 18.0961 60.8088 18.0161 60.8523C18.1761 60.8523 18.1761 60.8262 18.2761 60.7653L18.4561 60.8349C19.0761 60.8175 19.5261 60.548 20.1061 60.4001C20.8861 60.3827 22.0661 59.7045 22.6461 59.261C23.4361 58.6001 24.8561 58.461 25.5361 57.6523C25.5761 57.6523 25.6161 57.5653 25.6061 57.5479C25.8761 57.374 26.1361 57.2001 26.3961 57.0088C26.4461 57.0262 29.9761 54.2262 26.3661 55.4696V55.4349C25.9061 55.687 25.6361 55.8523 25.4861 56.1914C25.2961 56.0697 25.1461 56.4262 24.9961 56.4349V56.4175C24.8561 56.7131 24.3861 56.6697 24.2461 56.9479C24.2461 56.9305 24.2061 56.8784 24.2661 56.8436C24.1161 56.9914 23.8861 57.174 23.7961 57.0957C23.3861 57.4001 22.7461 57.7131 22.5761 58.0262V57.9914C22.4861 58.1914 22.3761 58.1305 22.2261 58.2784C22.2061 58.2784 22.1861 58.2784 22.1861 58.261C22.0761 58.461 21.6661 58.5479 21.5461 58.6697L21.4961 58.6088L21.1361 58.7914L21.2861 58.7479C21.3461 58.9566 20.9361 58.7479 20.7361 58.9914C20.4661 59.061 20.4061 59.6001 20.0761 59.6001C19.9761 59.7305 20.1261 59.4088 19.9561 59.5479C19.9061 59.4436 20.0261 59.4523 19.9361 59.3827C19.7561 59.4871 19.5761 59.374 19.3661 59.5131L19.3261 59.4349C19.0561 59.6523 18.7061 59.4697 18.5361 59.6349C18.2261 59.7479 18.2761 59.4262 17.9761 59.6175L17.8361 59.5131C17.6961 59.5045 17.7461 59.6697 17.5861 59.6088C17.5861 59.5393 17.3961 59.548 17.4861 59.4784C17.1661 59.374 16.7761 59.6088 16.4261 59.3218C16.2861 59.4349 16.1261 59.2958 16.0561 59.3827C16.0661 59.3566 16.0161 59.3305 15.9761 59.2958C15.9561 59.2697 15.9761 59.2523 16.0461 59.2175C16.0661 59.2175 16.0761 59.2175 16.0561 59.2436L16.1261 59.174C16.1261 59.0871 16.1361 59.1132 16.0761 59.1219C16.0261 59.1392 15.9361 59.1479 15.9261 59.1219C15.8961 59.1479 15.9361 59.1566 15.8461 59.174C15.8261 59.1566 15.8161 59.1392 15.8061 59.1219L15.9161 59.1044C15.9161 59.1044 15.9161 59.061 15.9361 59.0436L15.7961 59.061C15.8361 59.0088 16.1161 59.0436 15.8661 58.9827C15.7261 58.9392 15.6661 58.9914 15.5861 58.9306C15.6661 58.8697 15.8661 58.8523 15.9561 58.8697C15.7861 58.7566 15.8161 58.7566 15.8061 58.7305L15.9361 58.8349C15.8561 58.6871 16.1961 59.061 16.1161 58.9479L16.1761 59.0175C16.1161 58.9479 16.0661 58.8784 16.0161 58.8175C15.9761 58.6523 16.1461 59.0175 16.1061 58.7827C16.0761 58.7914 16.0061 58.5914 16.1061 58.6349V58.7132C16.1061 58.7132 16.2061 58.6523 16.2661 58.661C16.2161 58.7132 16.2661 58.7827 16.4161 58.7566L16.3361 58.8697C16.4261 58.8088 16.5161 58.7479 16.6161 58.6697C16.9161 58.7044 17.2361 58.461 17.3761 58.5392C17.3761 58.5392 17.8761 58.3914 17.8961 58.2262C17.8561 58.3392 18.1061 58.2436 18.0961 58.3653C18.1661 58.2349 18.4261 57.9914 18.6161 58.0088L18.5961 58.0349C19.1161 57.8436 19.2661 57.461 19.7161 57.3045C19.6261 57.2349 19.8661 57.1479 19.7161 57.0784C19.9961 56.7131 20.5861 56.7914 20.4261 56.3914C20.5761 56.2523 20.6961 56.3131 20.7961 56.2697L20.7761 56.3131C21.0561 56.0523 21.1461 55.9827 21.3761 55.8175C21.4561 55.7044 21.3361 55.5479 21.5661 55.4262C21.5661 55.5305 21.6261 55.461 21.7061 55.4001C21.6661 55.4436 21.6761 55.4783 21.8061 55.4349C21.8061 55.4088 21.8061 55.3827 21.8261 55.3566C21.8261 55.3566 21.8361 55.3566 21.8461 55.3653C21.9461 55.2523 21.9161 55.2523 21.8461 55.287C21.8461 55.2784 21.8261 55.2696 21.7861 55.2696C21.9861 55.2349 22.1361 54.9827 22.2561 55.0609C22.6061 54.7479 22.7661 54.4349 23.0461 54.1566C23.1261 54.174 23.1061 54.2783 23.0361 54.3653L23.2361 54.174C23.3061 54.2436 23.1561 54.3131 23.0961 54.3827C23.4761 54.287 23.5161 53.8436 23.9261 53.7131V53.6088H23.9661C23.9361 53.5827 23.9661 53.487 23.9961 53.4436C24.1061 53.4696 24.1361 53.5827 24.2861 53.4696C24.4661 53.4349 24.5961 53.1827 24.7261 53.0349C24.6261 53.087 24.6261 53.0349 24.6361 52.9827C24.7161 52.9218 24.8161 52.9566 24.8461 52.887L24.9361 52.9653C24.8261 52.9044 25.0561 52.7305 25.0561 52.6783C25.1561 52.7131 24.9861 52.8174 25.0161 52.8783C25.3161 52.6522 25.1661 52.7653 25.4761 52.5392C25.5861 52.3566 25.3761 52.4783 25.3861 52.3479C25.5161 52.2262 25.6161 52.0696 25.8361 52.0175L25.7161 51.974C25.9561 51.7305 26.1461 51.6348 26.4061 51.6175C26.8461 51.1566 27.1761 50.9131 27.4461 50.7827C27.6861 50.6435 27.6461 50.5392 27.5661 50.4435C27.4061 50.3479 27.0561 50.3131 26.8161 50.3305C26.5661 50.3479 26.4061 50.3914 26.4061 50.3914C25.7061 50.5392 25.3561 50.7913 25.0061 51.0609C24.6561 51.3392 24.3561 51.6696 23.8861 52.0609L23.8661 52.0175Z" fill="#8E8E8E"/>
<path d="M44.7676 56.4336V56.5119C44.7676 56.5119 44.7876 56.4771 44.7676 56.4336Z" fill="#8E8E8E"/>
<path d="M45.0161 59.4354V59.4266L44.9961 59.418L45.0161 59.4354Z" fill="#8E8E8E"/>
<path d="M43.0471 56.3473C43.5171 57.1386 43.4471 57.4516 44.0871 58.2516C44.3471 58.6603 44.6871 59.0603 45.0171 59.4342C45.2971 59.5299 45.4371 59.9386 45.7371 60.069V60.1995C45.8471 60.2429 45.9471 60.3038 45.9871 60.4081H45.957C46.117 60.4864 46.2171 60.6255 46.2971 60.6516H46.2771L46.427 60.7821H46.3771C46.6371 60.9125 46.8571 61.0864 47.0571 61.2516L47.1071 61.1647C47.4971 61.556 47.7971 61.4777 48.2171 61.7908L48.1971 61.8082C48.5671 61.8082 48.8071 61.9125 49.0671 62.0082C49.3771 62.1125 49.5171 62.1647 49.6971 62.0429C49.6671 62.069 49.687 62.0951 49.677 62.1212C49.757 62.0864 49.8371 62.1038 50.0371 61.9386C50.1171 61.9821 50.0371 62.0256 49.9471 62.0864C50.0471 62.0169 50.1471 62.0342 50.1871 62.0951H50.1271C50.1271 62.0951 50.1871 62.1908 50.1971 62.243C50.2771 62.2256 50.347 62.1995 50.427 62.1647C50.357 62.3038 50.1471 62.2343 50.1871 62.3212H50.3671C50.2671 62.4951 49.9471 62.5038 49.8071 62.4864C49.7571 62.5212 49.5271 62.669 49.3271 62.756C49.1171 62.8516 48.8771 62.9299 48.6071 62.9734C48.0871 63.0603 47.4871 62.9734 47.0471 62.7038V62.5995C47.0871 62.4603 46.677 62.7125 46.707 62.5647L46.5571 62.5821C46.5571 62.5821 46.4871 62.4951 46.5571 62.4864C46.4571 62.443 46.4371 62.4603 46.3371 62.469L46.2771 62.3299C45.9171 62.0777 45.4771 62.0342 45.0971 61.7473C44.7371 61.3038 43.7871 60.7386 43.2371 60.3821C42.3971 59.9038 42.217 58.7908 41.427 58.2516C41.427 58.2168 41.3371 58.1908 41.3171 58.1995C41.1471 57.9908 40.9871 57.7647 40.8271 57.5386C40.7971 57.582 38.5471 54.2429 39.1071 57.3994H39.0671C39.2571 57.8255 39.4371 58.0603 39.7871 58.2255C39.6271 58.3821 39.9971 58.5386 40.0071 58.669H39.9871C40.3171 58.7994 40.2471 59.1994 40.5571 59.3299C40.5371 59.3299 40.4771 59.356 40.4371 59.3125C40.5871 59.4516 40.8071 59.6429 40.7171 59.7212C41.0771 60.0603 41.4871 60.6081 41.8871 60.7038H41.8471C42.0871 60.756 42.0271 60.8603 42.2271 60.956C42.2271 60.9734 42.2271 60.9908 42.2271 60.9908C42.4671 61.0516 42.6671 61.3647 42.8271 61.4343L42.7671 61.4951L43.0771 61.7473L42.9771 61.6342C43.1771 61.5212 43.0971 61.9212 43.4371 61.9995C43.6271 62.1908 44.1971 61.9995 44.3571 62.2342C44.5371 62.2342 44.1471 62.2951 44.3571 62.3473C44.2871 62.4343 44.227 62.3473 44.207 62.4516C44.407 62.5212 44.3871 62.7299 44.6671 62.7995L44.6171 62.8777C44.9971 62.9125 45.0771 63.2951 45.3771 63.2603C45.7271 63.3473 45.4371 63.5995 45.8671 63.5908L45.9471 63.7473C46.0871 63.8256 46.1171 63.6603 46.2571 63.7734C46.2071 63.8429 46.4471 63.9038 46.3171 63.9299C46.6771 64.1734 47.177 64.0343 47.707 64.2864C47.857 64.1647 48.1371 64.2777 48.2371 64.1647C48.2471 64.2343 48.8271 64.1734 48.4971 64.3125C48.4671 64.3212 48.4171 64.3125 48.4171 64.2951L48.3771 64.3821C48.7371 64.5473 49.0171 64.2691 49.3571 64.2256C49.2471 64.2256 49.1171 64.2517 49.1871 64.1734L49.5071 64.1212L49.4671 64.1995C49.6271 64.1821 49.797 64.1386 49.957 64.1038L49.8571 64.043C50.0971 64.0169 50.2671 64.1038 50.4471 63.869C50.5071 63.7473 50.1771 63.869 50.3771 63.7299C50.6471 63.6777 51.2771 63.3299 51.5571 62.8864C51.4171 62.8864 51.4971 62.7821 51.5371 62.6603H51.6371C51.6471 62.1821 51.9371 62.4951 51.8671 61.9908L51.9371 62.0256L51.7171 61.9212C51.6071 61.7299 51.6071 61.669 51.6371 61.5908C51.6671 61.5212 51.6571 61.4255 51.3971 61.2864C51.5071 61.4429 51.2771 61.4343 51.1471 61.269H51.2671C51.1571 61.1821 51.1071 61.1647 51.0471 61.1125C51.1471 61.1212 51.1871 61.0516 51.0071 60.956H51.207C51.057 60.9212 50.9071 60.8864 50.7471 60.8864C50.6471 60.7821 50.4471 60.7386 50.2571 60.7212C50.0671 60.6864 49.9571 60.6864 49.9071 60.6255C49.9071 60.6255 49.7671 60.5994 49.6171 60.5994C49.4671 60.5994 49.4171 60.5908 49.3571 60.6516C49.4371 60.5821 49.2771 60.5299 49.3471 60.4429C49.2571 60.5212 48.9871 60.5299 48.9371 60.3995H48.957C48.687 60.1995 48.3171 60.2603 48.1071 59.9821C48.0471 60.069 47.9371 59.9212 47.8771 60.0429C47.4671 59.9212 47.5671 59.4342 47.1371 59.6082C46.9871 59.5038 47.0671 59.3994 47.0271 59.3212L47.0771 59.3386C46.8171 59.1299 46.7571 59.0516 46.6071 58.8603C46.4971 58.7907 46.307 58.8864 46.207 58.6864C46.317 58.7038 46.257 58.6342 46.207 58.5734C46.247 58.6081 46.2871 58.6081 46.2671 58.4951C46.2371 58.4951 46.2071 58.4864 46.1871 58.4777C46.1871 58.4777 46.187 58.469 46.207 58.469C46.097 58.3734 46.0871 58.4081 46.1171 58.469C46.1071 58.469 46.0971 58.4864 46.0871 58.5125C46.0871 58.3473 45.837 58.1907 45.957 58.1125C45.687 57.7907 45.3871 57.6081 45.1471 57.3386C45.1871 57.269 45.2971 57.3125 45.3771 57.3821L45.2171 57.182C45.3071 57.1386 45.3471 57.2777 45.4071 57.3299C45.3971 57.0081 44.9171 56.8951 44.8671 56.5299L44.7571 56.5038V56.4777C44.7571 56.4777 44.6271 56.4603 44.5871 56.4168C44.6371 56.3386 44.777 56.3299 44.677 56.182C44.677 56.0255 44.4171 55.869 44.2771 55.7385C44.3171 55.8255 44.257 55.8255 44.207 55.7994C44.157 55.7299 44.2071 55.6429 44.1371 55.6081L44.2371 55.5472C44.1571 55.6255 43.997 55.4168 43.927 55.4081C43.977 55.3212 44.0771 55.4864 44.1471 55.469C43.9271 55.182 44.0371 55.3212 43.8171 55.0342C43.6171 54.9212 43.7371 55.1212 43.5871 55.0951C43.4571 54.9733 43.2871 54.8864 43.2171 54.6951L43.1671 54.7994C42.8871 54.5994 42.7671 54.469 42.6671 54.2429C41.9871 53.9646 41.5871 54.1212 41.5171 54.2777C41.4171 54.4168 41.4071 54.5386 41.5171 54.6081C41.5471 54.7038 41.5571 54.7559 41.5571 54.7994C41.5671 54.8516 41.5871 54.8777 41.5871 54.8777C41.7971 55.269 42.3871 55.4951 43.0371 56.2951L43.0471 56.3473Z" fill="#8E8E8E"/>
<path d="M27.1464 56.9277L27.0664 56.9625C27.0664 56.9625 27.1064 56.9625 27.1464 56.9277Z" fill="#8E8E8E"/>
<path d="M24.2559 58.4588L24.2659 58.4414L24.2559 58.4588Z" fill="#8E8E8E"/>
<path d="M26.3762 55.5811C25.7862 56.3637 25.4762 56.4854 25.0162 57.3202C24.7462 57.6854 24.5162 58.1028 24.2662 58.4593C24.2762 58.7115 23.9062 58.8941 23.8562 59.1463L23.7162 59.1637C23.6962 59.2507 23.6562 59.3376 23.5562 59.3637L23.5362 59.3463C23.5062 59.4767 23.3662 59.5376 23.3562 59.6072L23.3362 59.5898C23.3362 59.5898 23.2762 59.6594 23.2362 59.6941V59.6507C23.1262 59.8333 22.9562 59.9724 22.7762 60.0506L22.8562 60.1202C22.4462 60.242 22.4462 60.4941 22.0462 60.5028V60.4768C21.8962 60.6768 21.6962 60.6855 21.5162 60.6681C21.3862 60.6594 21.0662 60.6072 20.6762 60.7811C20.7762 60.7289 20.6062 60.7376 20.6062 60.7115C20.1462 60.7724 19.8062 61.042 19.9662 61.1811C19.7362 61.3115 19.7462 61.2681 19.6462 61.242C19.7262 61.2942 19.5962 61.4681 19.5162 61.642V61.555C19.4362 61.7202 19.4162 61.9029 19.4262 62.0855C19.4962 62.0594 19.5562 62.0333 19.6162 62.0159C19.5462 62.2681 19.3762 62.0507 19.4562 62.3289H19.6162C19.6762 62.6681 19.5762 62.9376 19.8262 63.3637C20.5562 64.0594 21.3762 64.1724 22.1862 64.1898C22.9862 64.1898 23.6862 64.0246 24.3562 63.929L24.4562 64.0072C24.5462 64.1463 24.7062 63.6855 24.8162 63.7898L24.9262 63.6681C24.9762 63.6681 25.0762 63.6681 25.0262 63.7289C25.1562 63.6855 25.1462 63.6594 25.2162 63.5811L25.3962 63.5985C25.9362 63.4246 26.2162 63.0507 26.6962 62.7811C27.3962 62.5811 28.1962 61.6681 28.6062 61.1463C29.0862 60.355 30.3662 59.9376 30.7362 59.042C30.7762 59.0333 30.7862 58.9463 30.7662 58.9289C30.9662 58.7115 31.1362 58.4854 31.3162 58.268C31.3662 58.268 33.7562 54.9724 30.7662 56.842L30.7462 56.8072C30.4162 57.1376 30.2162 57.3376 30.1862 57.6767C29.9662 57.6072 29.9362 57.9637 29.8162 58.0072V57.9898C29.7762 58.2941 29.3262 58.3463 29.2862 58.6333C29.2862 58.6159 29.2262 58.5811 29.2662 58.5289C29.1662 58.6941 29.0362 58.9202 28.9162 58.8593C28.6262 59.2159 28.1562 59.6594 28.0962 59.9811V59.9463C28.0662 60.1463 27.9462 60.1115 27.8662 60.2854C27.8462 60.2854 27.8262 60.2854 27.8262 60.2854C27.8062 60.5028 27.4362 60.6594 27.3762 60.7985L27.3062 60.7463L27.0462 61.0072L27.1662 60.9289C27.3062 61.1202 26.8462 61.0159 26.7462 61.2767C26.5362 61.4159 26.6762 61.9289 26.3662 61.9985C26.3262 62.1463 26.3462 61.8072 26.2362 61.9724C26.1562 61.8855 26.2562 61.8681 26.1562 61.8246C26.0362 61.9724 25.8362 61.9116 25.6862 62.0855L25.6162 62.0159C25.4662 62.2941 25.0762 62.2072 24.9862 62.4159C24.7462 62.6072 24.6662 62.2941 24.4762 62.555L24.3062 62.4942C24.1762 62.5289 24.2862 62.6594 24.1262 62.6594C24.1062 62.5898 23.9262 62.6594 23.9762 62.5724C23.6362 62.555 23.4062 62.9289 22.9562 62.7811C22.8962 62.9376 22.6762 62.8768 22.6262 62.9724C22.6062 62.9115 22.2262 62.9724 22.4462 62.8333C22.4662 62.8246 22.4962 62.8246 22.4962 62.8507L22.5262 62.7637C22.3262 62.6072 22.1462 62.842 21.9462 62.7724C21.9962 62.8072 22.0762 62.8159 22.0162 62.8681L21.8262 62.8246L21.8862 62.7637C21.7962 62.7376 21.7262 62.6855 21.6462 62.6507V62.7463C21.5362 62.6681 21.5862 62.5115 21.3962 62.5637C21.2962 62.5898 21.4262 62.7289 21.2962 62.6854C21.1362 62.5202 21.1762 62.4159 21.1862 62.3724C21.0762 62.4072 21.0662 62.3985 21.0262 62.3811L21.1362 62.3637C20.9562 62.3202 21.3762 62.3376 21.2462 62.3115H21.3262C21.2462 62.3115 21.1562 62.2942 21.0762 62.2768C20.8562 62.1463 21.3062 62.3376 21.0362 62.155C21.0362 62.1898 20.7762 62.0507 20.8762 62.0246L20.9662 62.0941C20.9662 62.0941 20.9362 62.0246 20.9762 62.0333C21.0062 62.0767 21.0962 62.1376 21.1162 62.1116C21.1462 62.1463 21.1762 62.1811 21.2062 62.2072C21.1662 62.155 21.1362 62.1028 21.1162 62.0507C21.2362 62.1202 21.2462 62.0159 21.3762 62.1202C21.3762 62.1202 21.4462 62.1289 21.5262 62.1202C21.6162 62.1202 21.8162 62.0594 21.8462 61.9898C21.7562 62.0855 22.0562 62.0681 21.9962 62.1724C22.1162 62.0594 22.4662 61.8855 22.6562 61.9202L22.6362 61.9376C23.2562 61.8333 23.4562 61.4246 23.9262 61.2594C23.8362 61.1898 24.0762 61.0942 23.9262 61.0246C24.2062 60.6594 24.7962 60.6681 24.5862 60.2854C24.7162 60.1289 24.8362 60.1811 24.9262 60.1202V60.1724C25.1462 59.8854 25.2062 59.7985 25.3962 59.5985C25.4462 59.468 25.2862 59.3463 25.4762 59.1898C25.4962 59.2941 25.5462 59.2072 25.5962 59.1376C25.5762 59.1898 25.5962 59.2159 25.7062 59.155C25.6962 59.1289 25.7062 59.1028 25.7062 59.0767C25.7062 59.0767 25.7162 59.0767 25.7262 59.0767C25.7962 58.9463 25.7562 58.955 25.7062 58.9985C25.7062 58.9898 25.6762 58.9898 25.6462 58.9985C25.8362 58.9289 25.8962 58.6507 26.0262 58.7115C26.2562 58.3376 26.2962 58.0159 26.4462 57.6941C26.5362 57.6941 26.5462 57.7898 26.5062 57.8941L26.6262 57.668C26.7162 57.7202 26.5962 57.8159 26.5762 57.8941C26.8962 57.7202 26.7662 57.2941 27.0962 57.0767L27.0662 56.9811H27.0862C27.0862 56.9811 27.0362 56.8593 27.0562 56.8072C27.1662 56.8072 27.2462 56.9028 27.3262 56.755C27.4762 56.6767 27.4962 56.4159 27.5562 56.2419C27.4862 56.3115 27.4662 56.268 27.4562 56.2159C27.4962 56.1463 27.6062 56.1463 27.6162 56.068L27.7262 56.1202C27.6062 56.0941 27.7462 55.8767 27.7262 55.8332C27.8362 55.8332 27.7262 55.9811 27.7662 56.0246C27.9562 55.7463 27.8562 55.8854 28.0462 55.6072C28.0762 55.4245 27.9262 55.5724 27.8862 55.4593C27.9662 55.3202 27.9862 55.155 28.1762 55.0506L28.0462 55.0332C28.1762 54.755 28.3262 54.6245 28.5562 54.5637C28.8062 54.068 29.1762 53.8071 29.4362 53.6941C29.6762 53.5636 29.6362 53.4593 29.5662 53.3637C29.4162 53.268 29.0762 53.2071 28.7862 53.2506C28.5162 53.2854 28.3162 53.3637 28.3162 53.3637C27.5562 53.6506 27.2962 54.0158 27.0562 54.355C26.8262 54.7115 26.6662 55.0941 26.3962 55.5724L26.3762 55.5811Z" fill="#8E8E8E"/>
<path d="M40.5378 58.0938L40.5078 58.1633C40.5078 58.1633 40.5478 58.1372 40.5378 58.0938Z" fill="#8E8E8E"/>
<path d="M39.6079 60.7732L39.5879 60.7559L39.6079 60.7732Z" fill="#8E8E8E"/>
<path d="M38.9773 57.5468C39.0673 58.3816 38.8873 58.6338 39.1773 59.5033C39.2573 59.9294 39.4473 60.3729 39.6073 60.7729C39.8473 60.9207 39.8073 61.312 40.0573 61.5033L40.0173 61.6251C40.0973 61.686 40.1773 61.7642 40.1673 61.8686H40.1373C40.2673 61.9642 40.2873 62.112 40.3573 62.1555H40.3273L40.4273 62.2947H40.3773C40.5873 62.4599 40.7073 62.6599 40.8273 62.8512L40.9073 62.7816C41.1473 63.2077 41.3973 63.2251 41.6873 63.5903L41.6673 63.6077C41.8373 63.6512 41.9573 63.7034 42.0573 63.7816C42.1673 63.8686 42.1773 63.8686 42.2273 63.9295C42.2873 64.0077 42.3973 64.1208 42.5773 64.0599C42.5273 64.0686 42.5273 64.0947 42.4873 64.1033C42.5673 64.1033 42.6373 64.1555 42.9573 64.1121C42.9873 64.1816 42.8773 64.1816 42.7573 64.1903C42.8973 64.1816 42.9673 64.2425 42.9573 64.2947L42.9073 64.2686C42.9073 64.3207 42.8973 64.3729 42.8673 64.4164C42.9573 64.4338 43.0473 64.4425 43.1373 64.4512C42.9873 64.5208 42.8373 64.3903 42.8173 64.4686L42.9973 64.5381C42.8173 64.6338 42.5173 64.5121 42.3873 64.4425C42.3473 64.4425 42.3073 64.4512 42.2573 64.4686C42.1873 64.4686 42.0573 64.5034 41.9573 64.5034C41.7373 64.5208 41.4973 64.5207 41.2673 64.486C40.7873 64.4164 40.3173 64.199 40.0373 63.8425L40.0773 63.7381C40.1773 63.6164 39.7073 63.7642 39.7973 63.6338L39.6673 63.6164C39.6673 63.6164 39.6473 63.5207 39.7073 63.5294C39.6373 63.4599 39.6173 63.4773 39.5273 63.4599V63.3294C39.3273 63.0164 38.9473 62.8773 38.7373 62.5294C38.6173 62.0425 37.9973 61.3294 37.6573 60.8685C37.0973 60.2425 37.4273 59.2337 36.9473 58.5555C36.9673 58.5294 36.8873 58.4772 36.8773 58.4772C36.8073 58.2511 36.7673 58.0164 36.7173 57.7816C36.6773 57.8077 36.0673 54.3381 35.1973 57.1903H35.1573C35.1473 57.5903 35.2073 57.8511 35.4473 58.0859C35.2373 58.1729 35.5073 58.4164 35.4473 58.5207H35.4273C35.6673 58.7207 35.4273 59.0424 35.6573 59.2424C35.6373 59.2424 35.5773 59.2425 35.5573 59.1903C35.6373 59.3555 35.7573 59.5729 35.6373 59.6164C35.8173 60.0077 35.9573 60.5903 36.2773 60.7816H36.2373C36.4373 60.8773 36.3373 60.9555 36.4773 61.0946C36.4673 61.112 36.4573 61.1207 36.4573 61.1207C36.6573 61.2338 36.6973 61.5642 36.8173 61.6686L36.7373 61.712C36.7973 61.8077 36.8473 61.912 36.9173 62.0077C36.8973 61.9642 36.8873 61.9294 36.8673 61.886C37.1073 61.8338 36.8673 62.1729 37.1273 62.3294C37.2173 62.5555 37.8273 62.5207 37.8573 62.7642C38.0173 62.8077 37.6373 62.7642 37.8173 62.8686C37.7073 62.9294 37.7073 62.8425 37.6373 62.9207C37.7873 63.0338 37.6873 63.2164 37.8973 63.3468L37.8173 63.399C38.1373 63.5294 38.0573 63.886 38.3373 63.9295C38.6073 64.0947 38.2473 64.2512 38.6373 64.3555V64.5208C38.7373 64.6251 38.8273 64.486 38.9073 64.6251C38.8373 64.6773 39.0273 64.7903 38.9073 64.7903C39.1273 65.1034 39.6273 65.0947 39.9873 65.4773C40.1573 65.399 40.3573 65.5729 40.4973 65.5034C40.4773 65.5729 40.9973 65.6773 40.6573 65.7121C40.6273 65.7121 40.5873 65.6947 40.5973 65.6773L40.5273 65.7469C40.7773 65.999 41.1173 65.8251 41.4173 65.886C41.3273 65.8425 41.2073 65.8338 41.2973 65.7903L41.5873 65.8425L41.5173 65.9034C41.6573 65.9382 41.8173 65.9469 41.9673 65.9729L41.9073 65.886C42.1173 65.9382 42.2173 66.0773 42.4673 65.9382C42.5673 65.8599 42.2473 65.8338 42.4673 65.7903C42.8173 65.799 43.4673 65.7381 43.9073 65.486C43.7873 65.4425 43.8873 65.3729 43.9573 65.286L44.0573 65.3294C44.2773 64.9642 44.4073 65.3208 44.5873 64.9121L44.6373 64.9642L44.4973 64.8077C44.4573 64.4425 44.8173 64.6512 44.6073 64.2251C44.6073 64.3816 44.3973 64.2947 44.4273 64.1121L44.5273 64.1555C44.5073 64.0512 44.4473 64.0251 44.4473 63.9555C44.5173 64.0077 44.5973 63.9729 44.5373 63.8164L44.6873 63.9034C44.6073 63.8077 44.4973 63.7295 44.3873 63.6599C44.3773 63.4251 43.9273 63.2512 43.9573 63.1207C43.9573 63.1207 43.5273 62.8512 43.3173 62.8947C43.4773 62.8773 43.2373 62.7294 43.3773 62.6946C43.2973 62.6946 43.0873 62.6599 43.0373 62.6338C42.9673 62.6077 42.9173 62.5555 42.9173 62.4947H42.9373C42.7673 62.2686 42.4273 62.2338 42.3273 61.9468C42.2373 62.0164 42.1973 61.8599 42.0973 61.9642C41.7973 61.7555 42.0373 61.3642 41.5773 61.4251C41.4873 61.2946 41.5973 61.2251 41.5773 61.1468L41.6173 61.1729C41.4473 60.9381 41.4173 60.8599 41.3573 60.6599C41.2773 60.5729 41.0673 60.6164 41.0473 60.4251C41.1473 60.4599 41.1073 60.3903 41.0773 60.3294C41.1073 60.3642 41.1373 60.3729 41.1673 60.2685C41.1373 60.2685 41.1173 60.2425 41.0973 60.2338C41.0973 60.2338 41.1073 60.2338 41.1173 60.2338C41.0573 60.1294 41.0373 60.1555 41.0373 60.2077C41.0273 60.2077 41.0073 60.2164 40.9873 60.2425C41.0573 60.0946 40.8773 59.912 41.0173 59.8598C40.8673 59.5294 40.6873 59.2946 40.5473 59.0077C40.6073 58.9642 40.6973 59.0164 40.7473 59.1033L40.6673 58.8946C40.7673 58.8772 40.7573 59.0077 40.7973 59.0686C40.9073 58.7903 40.5173 58.5729 40.6073 58.2598L40.5073 58.2077V58.1903C40.5073 58.1903 40.3973 58.1381 40.3773 58.0946C40.4573 58.0424 40.5873 58.0685 40.5573 57.9207C40.6273 57.7903 40.4473 57.5903 40.3773 57.4424C40.3773 57.5294 40.3173 57.512 40.2773 57.4772C40.2573 57.399 40.3473 57.3468 40.2973 57.2946L40.4173 57.2685C40.3073 57.312 40.2573 57.0859 40.1973 57.0685C40.2773 57.0163 40.2973 57.1729 40.3673 57.1816C40.3073 56.8772 40.3373 57.0338 40.2673 56.7294C40.1473 56.5816 40.1573 56.7729 40.0273 56.712C39.9773 56.5729 39.8673 56.4424 39.9073 56.2685L39.8073 56.3381C39.6573 56.0859 39.6473 55.9207 39.7073 55.7207C39.3673 55.2511 38.9873 55.0772 38.8573 55.1642C38.7073 55.2076 38.5873 55.2946 38.6173 55.4076L38.8273 55.1642L38.8173 55.1902L38.7873 55.2337C38.7873 55.2337 38.7373 55.2859 38.7073 55.3207C38.6573 55.3729 38.5673 55.4337 38.5073 55.4685C38.4673 55.4685 38.4373 55.4511 38.4373 55.512C38.4173 55.5902 38.4273 55.6424 38.4273 55.6424C38.3773 56.2511 38.7473 56.6598 38.9973 57.5642L38.9773 57.5468Z" fill="#8E8E8E"/>
<path d="M31.5268 58.2598L31.4668 58.3119C31.4668 58.3119 31.5068 58.3032 31.5268 58.2598Z" fill="#8E8E8E"/>
<path d="M29.4163 60.2693L29.4062 60.252L29.4163 60.2693Z" fill="#8E8E8E"/>
<path d="M30.226 57.3216C30.026 58.1216 29.786 58.3042 29.676 59.1216C29.586 59.4955 29.496 59.8955 29.406 60.2694C29.496 60.4781 29.236 60.7303 29.286 60.9564L29.166 60.9999C29.176 61.0782 29.166 61.1651 29.096 61.2086L29.076 61.1912C29.096 61.3129 29.006 61.4086 29.006 61.4608L28.986 61.4434L28.926 61.5477L28.906 61.5129C28.876 61.6869 28.776 61.8608 28.646 61.9651L28.746 62.0173C28.406 62.1825 28.526 62.4608 28.156 62.5303L28.136 62.5129C28.156 62.939 27.186 62.7651 26.856 63.3303C26.896 63.2608 26.766 63.3303 26.746 63.3129C26.506 63.5477 26.386 63.8695 26.626 63.9043C26.556 64.1043 26.506 64.0608 26.416 64.0869C26.516 64.0869 26.536 64.2782 26.586 64.4434L26.536 64.3738C26.576 64.5303 26.656 64.6782 26.766 64.8086L26.896 64.6869C26.996 64.8869 26.686 64.8173 26.916 64.9825L27.056 64.9216C27.276 65.1651 27.276 65.4173 27.656 65.6782C27.876 65.7738 28.126 65.826 28.366 65.8695C28.596 65.8956 28.766 65.9043 28.956 65.8869C29.336 65.8608 29.706 65.7825 30.036 65.6695C30.716 65.4434 31.256 65.113 31.816 64.8695L31.936 64.9216C32.066 65.0173 32.036 64.5651 32.166 64.6347L32.216 64.4956C32.216 64.4956 32.346 64.4608 32.326 64.5304C32.426 64.4521 32.406 64.4347 32.436 64.3477L32.606 64.3216C33.016 64.026 33.106 63.6173 33.426 63.2608C33.966 62.8955 34.316 61.8869 34.456 61.3216C34.546 60.5042 35.546 59.7999 35.486 58.9216C35.516 58.9042 35.486 58.826 35.466 58.8173C35.556 58.5825 35.616 58.339 35.686 58.0955C35.736 58.0781 36.476 54.5912 34.556 57.026L34.526 56.9999C34.356 57.3738 34.266 57.5998 34.396 57.9042C34.156 57.9042 34.296 58.2172 34.196 58.2868H34.176C34.276 58.539 33.896 58.7129 33.976 58.9651C33.956 58.9564 33.906 58.9303 33.916 58.8781C33.896 59.0434 33.876 59.2781 33.746 59.2521C33.646 59.6347 33.406 60.139 33.496 60.4347L33.466 60.4086C33.546 60.5912 33.416 60.5912 33.416 60.7651C33.396 60.7651 33.386 60.7738 33.376 60.7651C33.446 60.9564 33.186 61.1912 33.186 61.3303L33.096 61.3042C33.056 61.3999 33.016 61.5042 32.966 61.5912C32.996 61.5564 33.016 61.5303 33.036 61.4955C33.246 61.626 32.776 61.6434 32.806 61.9042C32.676 62.0781 33.016 62.4955 32.776 62.6347C32.806 62.7825 32.676 62.4695 32.656 62.6434C32.546 62.5912 32.636 62.5477 32.516 62.5303C32.476 62.6868 32.256 62.6869 32.206 62.8695L32.116 62.826C32.116 63.1216 31.706 63.1216 31.726 63.3303C31.606 63.5651 31.396 63.2869 31.336 63.5738L31.166 63.5564C31.066 63.6173 31.216 63.7129 31.076 63.7564C31.026 63.6956 30.906 63.7999 30.906 63.7043C30.616 63.7738 30.556 64.1651 30.116 64.139C30.116 64.3043 29.916 64.2956 29.906 64.4086C29.866 64.3564 29.566 64.5129 29.696 64.3216C29.706 64.3042 29.736 64.2956 29.746 64.3216V64.2347C29.506 64.139 29.436 64.4173 29.246 64.4086C29.306 64.426 29.376 64.4086 29.336 64.4782H29.156L29.186 64.4173C29.096 64.4173 29.016 64.3999 28.936 64.3912L28.976 64.4782C28.846 64.4434 28.826 64.2782 28.686 64.3999C28.616 64.4695 28.786 64.5216 28.646 64.5477C28.546 64.4695 28.526 64.3738 28.526 64.3303C28.436 64.4086 28.426 64.3999 28.376 64.3999L28.466 64.339C28.266 64.3825 28.686 64.2173 28.546 64.2521L28.636 64.226C28.546 64.2521 28.456 64.2782 28.366 64.2956C28.066 64.2869 28.636 64.2434 28.246 64.2173C28.276 64.2434 27.926 64.2434 27.996 64.1825L28.136 64.1999C28.136 64.1999 28.056 64.1564 28.086 64.1477C28.156 64.1738 28.276 64.1738 28.266 64.1477C28.316 64.1651 28.376 64.1738 28.426 64.1912C28.346 64.1738 28.276 64.139 28.216 64.1042C28.376 64.1042 28.306 64.0173 28.456 64.0869C28.456 64.0869 28.696 64.0347 28.646 63.9216C28.666 63.9999 28.806 63.9738 28.836 64.0608C28.836 63.9999 28.816 63.9912 28.906 63.8956C28.986 63.8086 29.086 63.7477 29.186 63.739V63.7651C29.696 63.5303 29.696 63.1129 30.096 62.8695C29.996 62.826 30.176 62.6868 30.016 62.6608C30.116 62.2608 30.706 62.1564 30.346 61.8608C30.406 61.6955 30.536 61.7129 30.596 61.6434V61.6868C30.716 61.3738 30.746 61.2868 30.846 61.0695C30.846 60.9477 30.656 60.8694 30.776 60.6868C30.836 60.7738 30.846 60.6868 30.876 60.6173C30.876 60.6695 30.896 60.6868 30.986 60.6086C30.966 60.5912 30.956 60.5651 30.946 60.539C30.946 60.539 30.956 60.539 30.966 60.539C30.966 60.4086 30.946 60.426 30.916 60.4781C30.906 60.4781 30.886 60.4781 30.856 60.4781C30.996 60.3738 30.956 60.1216 31.106 60.1303C31.196 59.7477 31.096 59.452 31.126 59.1303C31.206 59.1042 31.256 59.1912 31.256 59.2868L31.286 59.0607C31.396 59.0781 31.316 59.1999 31.326 59.2694C31.566 59.0346 31.266 58.6955 31.496 58.4173L31.426 58.339L31.446 58.3216C31.446 58.3216 31.356 58.2347 31.346 58.1912C31.446 58.1651 31.556 58.2259 31.576 58.0694C31.686 57.9651 31.596 57.7216 31.576 57.5564C31.546 57.6346 31.496 57.6086 31.476 57.5564C31.476 57.4781 31.586 57.452 31.556 57.3825H31.686C31.566 57.4086 31.596 57.1825 31.546 57.1477C31.646 57.1129 31.606 57.2781 31.676 57.3042C31.716 56.9999 31.696 57.1564 31.736 56.852C31.666 56.6781 31.616 56.8694 31.516 56.7738C31.516 56.6259 31.456 56.4781 31.556 56.3303L31.436 56.3651C31.406 56.0955 31.446 55.9303 31.606 55.7825C31.506 55.2607 31.456 54.9477 31.546 54.6694C31.596 54.4259 31.496 54.3824 31.376 54.3477C31.286 54.365 31.166 54.4172 31.036 54.5042C30.906 54.5912 30.786 54.7129 30.746 54.7651C30.626 54.9042 30.546 55.0433 30.546 55.0433C29.976 55.9564 30.306 56.3738 30.206 57.3216H30.226Z" fill="#8E8E8E"/>
<path d="M21.0254 29.0695L21.1354 28.8086C21.1354 28.8086 21.0754 28.8782 21.0254 29.0695Z" fill="#8E8E8E"/>
<path d="M48.3969 40.5645L48.377 40.6253C48.397 40.5819 48.3969 40.5645 48.3969 40.5645Z" fill="#8E8E8E"/>
<path d="M27.3466 20.0605V20.0693L27.3066 20.1301L27.3567 20.0605H27.3466Z" fill="#8E8E8E"/>
<path d="M22.056 32.4692C22.086 32.0345 22.126 31.6344 22.146 31.2692C22.196 30.904 22.276 30.5736 22.336 30.2518C22.436 29.617 22.626 29.0866 22.786 28.5388C23.126 27.4518 23.536 26.3735 24.326 24.6866C25.146 23.104 26.186 21.4605 27.326 20.0692C27.436 19.8865 27.586 19.6778 27.756 19.4692C27.856 19.3474 27.956 19.2257 28.066 19.0952C28.226 18.8952 28.346 18.6604 28.416 18.4344C28.656 17.4691 28.226 16.7213 27.856 16.243C27.796 16.0952 27.726 15.9561 27.646 15.817C27.486 15.6604 27.316 15.5039 27.126 15.3387L26.986 15.217L26.936 15.1561C26.936 15.1561 26.866 15.0865 26.876 15.043H26.906C26.696 14.9039 26.766 14.5213 26.776 14.3387L26.796 14.3561C26.856 14.1995 26.866 14.0517 26.966 13.8952V13.9909C27.206 13.2865 27.786 12.5561 28.376 11.9821L28.236 11.9648C29.556 10.7647 29.936 10.1995 31.316 9.24299V9.27778C32.036 8.52125 32.746 8.06038 33.466 7.59081C33.826 7.35602 34.196 7.12993 34.576 6.86906C34.756 6.73863 34.966 6.58211 35.136 6.45167C35.206 6.3908 35.296 6.33862 35.436 6.29514C35.306 6.32992 35.496 6.33863 35.476 6.37341C35.586 6.37341 35.686 6.39079 35.776 6.44297C35.976 6.56471 36.156 6.68646 36.336 6.7908C36.686 6.9995 36.946 7.11254 37.026 7.04297C37.626 7.46906 37.476 7.44299 37.496 7.55603C37.556 7.48647 38.096 7.84298 38.566 8.18211L38.326 8.05168C38.776 8.36473 39.216 8.70386 39.646 9.0343L39.516 8.71255C40.166 9.28647 39.536 8.99081 40.216 9.48647L40.316 9.38212C41.206 10.1734 41.586 10.7734 42.276 11.6256C43.046 12.4517 43.876 13.3561 44.176 14.2343C44.326 14.6778 44.306 15.0169 44.056 15.2517L44.006 15.3039L43.906 15.3996C43.836 15.4604 43.776 15.5213 43.716 15.5909C43.596 15.7213 43.476 15.8517 43.376 15.9909C43.166 16.2691 42.986 16.5648 42.856 16.8865C42.726 17.2083 42.626 17.5648 42.646 17.9561C42.646 18.3387 42.836 18.7909 43.126 19.0865C43.506 19.53 43.926 19.9474 44.256 20.4083C44.606 20.8605 44.956 21.3039 45.246 21.7735C45.556 22.2257 45.826 22.6953 46.066 23.1648V23.3735C45.966 23.504 46.856 24.2866 46.776 24.4866L47.076 24.8953C47.116 25.0257 47.206 25.2953 47.076 25.0953C47.246 25.504 47.276 25.504 47.456 25.7822L47.546 26.2518C48.106 27.8953 48.716 29.2866 48.896 31.0953C48.896 31.6692 48.896 32.3127 48.896 33.0258C48.846 33.7475 48.846 34.5301 48.706 35.3127C48.536 36.8867 48.006 38.4432 47.576 39.5649C47.436 39.9649 47.216 40.3475 47.016 40.7389C46.806 41.1302 46.606 41.5389 46.306 41.9041C46.026 42.2693 45.746 42.6519 45.456 43.0258C45.386 43.1128 45.306 43.2345 45.246 43.2867C45.206 43.3302 45.156 43.365 45.096 43.3911C44.986 43.4519 44.856 43.478 44.736 43.4693C42.636 43.3824 40.456 43.2954 38.446 43.4258C38.316 43.4084 37.976 43.4519 37.976 43.4693L34.286 43.4519C34.286 43.4519 29.806 43.4345 27.036 43.5824C26.716 43.5998 26.416 43.6171 26.136 43.6345C25.966 43.6432 25.806 43.6084 25.686 43.565C25.456 43.4867 25.306 43.365 25.286 43.4954C25.276 43.5563 25.286 43.6693 25.426 43.8258C25.556 43.9737 25.826 44.1737 26.266 44.2258C27.076 44.3389 28.286 44.478 29.986 44.6345L29.896 44.6693C31.916 44.7476 33.186 44.765 34.586 44.5998C34.806 44.7998 36.246 44.6171 36.716 44.6867L36.676 44.7041C37.906 44.5476 39.216 44.8346 40.406 44.6954C40.356 44.7128 40.336 44.765 40.066 44.7737C40.936 44.7476 42.116 44.7041 42.176 44.8171C42.696 44.8171 43.266 44.8171 43.846 44.8084C44.136 44.8084 44.436 44.8084 44.726 44.8084C45.186 44.8084 45.656 44.6693 46.016 44.4258C46.196 44.3041 46.356 44.1563 46.476 43.991C46.546 43.8867 46.616 43.7737 46.686 43.6693C46.816 43.4606 46.946 43.2606 47.076 43.0606C47.316 42.678 47.516 42.3302 47.636 42.0606L47.616 42.1476C47.846 41.4954 48.036 41.3563 48.346 40.6519C48.386 40.6171 48.416 40.5736 48.416 40.5823C48.586 40.1476 48.766 39.7041 48.946 39.2432C49.136 38.7562 49.386 38.2954 49.416 37.9997L49.516 37.9823L49.896 36.5562L49.726 37.0867C49.626 36.9736 49.756 36.7128 49.886 36.3475C49.996 35.9736 50.136 35.4867 50.146 34.9562C50.266 34.4693 50.106 33.9475 50.036 33.4519C49.966 32.9475 49.826 32.4518 49.856 31.9388C49.716 31.4605 50.066 32.3562 49.936 31.6344C50.066 31.5997 50.036 31.9736 50.126 31.7736C50.046 31.0605 50.126 30.591 49.916 29.7214L50.006 29.6692C49.596 28.5649 49.626 27.504 49.176 26.8083C48.716 25.6866 49.156 25.9649 48.486 24.8518C48.466 24.6866 48.436 24.5214 48.396 24.3648C48.166 23.8692 48.066 24.0779 47.846 23.5127C47.946 23.5127 47.536 22.817 47.786 23.0953C47.196 21.8431 46.146 20.7822 45.156 19.2431C44.956 19.13 44.726 18.8865 44.506 18.6518C44.396 18.5387 44.296 18.4257 44.196 18.3213C44.156 18.2778 44.106 18.2431 44.066 18.2257C44.086 18.2083 44.016 17.9996 44.066 17.7909C44.126 17.5735 44.166 17.4778 44.176 17.7996C44.176 17.8518 44.176 17.93 44.146 17.93C44.176 17.9474 44.206 17.9735 44.246 17.9822C44.326 17.7561 44.396 17.4431 44.556 17.1213C44.626 16.9561 44.716 16.7996 44.836 16.643C44.896 16.5648 44.956 16.4952 45.026 16.417C45.126 16.3126 45.236 16.217 45.346 16.1126C45.266 16.1822 45.176 16.2604 45.096 16.33C45.046 16.3648 45.006 16.3996 44.966 16.4257C44.896 16.4778 44.866 16.4952 44.916 16.3909L45.066 16.2604L45.316 16.017C45.466 15.8517 45.606 15.643 45.686 15.443C45.686 15.5387 45.666 15.6343 45.636 15.73C46.026 15.1039 45.976 14.4169 45.826 13.8865C45.816 13.9735 45.816 14.043 45.796 14.13C45.716 13.73 45.666 13.4604 45.566 13.2082C45.476 12.9387 45.326 12.7039 45.026 12.3734C44.746 12.0952 45.296 13.0256 44.836 12.3821C44.326 11.5387 43.386 10.4343 42.476 9.59951C42.476 9.74734 42.236 9.51256 41.966 9.31255L42.006 9.22561C40.906 8.47777 41.796 8.76473 40.706 8.02559L40.846 8.05168L40.436 7.97342C39.386 7.37342 40.076 7.44298 38.856 6.84298C39.276 7.13863 38.906 7.12993 38.426 6.72993L38.616 6.76472C38.326 6.56472 38.196 6.52993 38.026 6.3821C38.226 6.46906 38.206 6.35602 37.776 6.06906L38.136 6.1908L37.226 5.74732C37.066 5.60819 36.966 5.51253 36.696 5.32992C36.396 5.13861 36.016 5.03427 35.666 5.00818C34.946 4.94731 34.376 5.24297 34.136 5.33862C34.136 5.33862 33.796 5.5734 33.416 5.83427C33.046 6.09514 32.656 6.39949 32.556 6.55602C32.756 6.30384 32.016 6.80819 32.156 6.5821C31.886 6.90384 30.946 7.69515 30.486 7.93863L30.556 7.86908C29.036 8.94735 28.226 9.94734 26.986 11.0778C27.126 11.0778 26.486 11.7039 26.756 11.6169C26.266 12.3126 25.736 12.9039 25.426 13.53C25.106 14.1387 25.086 14.8343 25.406 15.1561C25.536 15.6083 25.726 15.8604 25.866 16.043C25.976 16.1822 26.066 16.3126 26.166 16.4343L26.046 16.3474C26.486 16.7474 26.696 17.0865 26.826 17.3648C26.956 17.6431 27.006 17.9213 26.926 18.1648C26.906 18.3648 26.916 18.5996 26.276 19.2778C26.406 19.0083 26.166 19.3039 25.936 19.5735C26.066 19.3909 26.076 19.3213 25.746 19.6518C25.726 19.7126 25.676 19.7996 25.636 19.8865C25.636 19.8865 25.616 19.8952 25.606 19.8865C25.266 20.3648 25.356 20.2952 25.536 20.0865C25.536 20.1039 25.566 20.0866 25.636 20.0431C25.156 20.4605 24.646 21.3996 24.486 21.3996C23.536 22.8605 23.076 24.0083 22.556 25.3127C22.426 25.4344 22.496 25.1127 22.636 24.7214L22.256 25.6605C22.156 25.617 22.426 25.1127 22.536 24.817C21.876 25.8692 21.716 27.1475 21.236 28.4692V28.7649L21.216 28.8431C21.256 28.8431 21.246 29.1562 21.216 29.3649C21.076 29.5388 21.006 29.3127 20.896 29.9997C20.806 30.2605 20.756 30.6518 20.726 31.0605C20.726 31.4605 20.746 31.904 20.756 32.2605C20.796 31.8779 20.836 32.0084 20.866 32.1736C20.856 32.5127 20.736 32.7127 20.786 32.9736L20.666 33.0084C20.776 32.8692 20.836 33.904 20.896 34.0258C20.816 34.2258 20.786 33.4953 20.716 33.4171C20.816 34.7997 20.696 34.1127 20.936 35.478C21.146 36.191 21.036 35.3301 21.196 35.6606C21.296 36.304 21.566 36.8867 21.696 37.6171L21.736 37.3649C21.836 37.6606 21.926 37.9128 22.006 38.1475C22.106 38.3823 22.196 38.591 22.276 38.7997C22.436 39.2084 22.556 39.5736 22.656 39.9736C23.896 41.9563 24.876 42.8519 25.336 43.2867C25.826 43.7041 25.916 43.5997 25.786 43.2867C25.586 42.6519 24.626 41.1997 24.676 41.1736C23.936 39.6345 23.386 38.478 22.966 37.191C22.856 36.8693 22.746 36.5475 22.636 36.2084C22.556 35.8606 22.486 35.504 22.396 35.1214C22.356 34.9301 22.316 34.7388 22.266 34.5388C22.246 34.3388 22.226 34.1214 22.206 33.9127C22.186 33.4779 22.096 33.0171 22.126 32.5214L22.056 32.4692Z" fill="#8E8E8E"/>
<path d="M26.416 50.1656L26.446 50.1309C26.446 50.1309 26.416 50.1482 26.416 50.1656Z" fill="#8E8E8E"/>
<path d="M27.8154 49.782C27.7354 49.5385 27.8854 49.3994 27.6854 49.2168C27.6454 49.1037 27.5254 49.0081 27.4454 48.9124C27.2654 48.9211 27.3654 48.7733 27.2054 48.7646L27.2754 48.7037C27.2254 48.7037 27.1754 48.6863 27.2154 48.6516H27.2454C27.1654 48.6342 27.1854 48.5907 27.1454 48.582H27.1754L27.1454 48.5385H27.1854C27.0854 48.5037 27.0554 48.4516 27.0654 48.3907L26.9654 48.4342C27.0354 48.2863 26.7955 48.3298 26.8855 48.182H26.9154C26.5754 48.1472 27.0254 47.9124 26.6954 47.8863C26.7354 47.8863 26.7454 47.8602 26.7754 47.8515C26.7154 47.8081 26.6754 47.7472 26.4654 47.8168C26.4454 47.7733 26.5154 47.7646 26.5954 47.7298C26.5054 47.7646 26.4454 47.7298 26.4254 47.7037H26.4654L26.3954 47.6255L26.2254 47.695C26.2554 47.6255 26.4354 47.6168 26.3754 47.582L26.2254 47.6255C26.2254 47.5472 26.4355 47.4341 26.5155 47.3385C26.4755 47.0428 25.9854 46.8341 26.1854 46.5037L26.2955 46.4689C26.4655 46.4341 26.0254 46.4429 26.1754 46.4081L26.0954 46.3907C26.0954 46.3907 26.1454 46.3559 26.1954 46.3646C26.1954 46.3385 26.1654 46.3385 26.1154 46.3298L26.2154 46.2776C26.2754 46.1559 26.0555 46.095 26.0755 45.9733C26.2655 45.8081 26.0354 45.582 25.9154 45.4341C25.7854 45.3298 25.8954 45.2167 25.9954 45.1124C26.1154 45.008 26.2254 44.9298 26.0854 44.8167C26.1054 44.8167 26.0554 44.7907 26.0354 44.7907L26.1055 44.6341C26.1055 44.6341 26.1755 44.4515 26.1055 44.2863C26.0055 44.1385 25.7954 43.8167 24.9154 44.0254L24.8855 44.008C24.7155 44.1211 24.6954 44.2167 24.8454 44.3559C24.6154 44.3211 24.7854 44.4689 24.7054 44.4863H24.6854C24.8254 44.5993 24.5054 44.6428 24.6454 44.7472C24.6254 44.7472 24.5654 44.7298 24.5654 44.7124C24.5854 44.782 24.6254 44.8689 24.4954 44.8602C24.4954 45.0167 24.4454 45.2167 24.6554 45.3037H24.6154C24.7554 45.3472 24.6354 45.3646 24.7154 45.4167C24.6954 45.4167 24.6854 45.4167 24.6854 45.4167C24.8254 45.4689 24.7054 45.5733 24.7754 45.6168H24.6854L24.7154 45.7298V45.6863C24.9754 45.6863 24.5854 45.782 24.7554 45.8428C24.7354 45.9211 25.2754 45.9385 25.1654 46.0168C25.2854 46.0341 24.9755 46.0168 25.0755 46.0515C24.9455 46.0689 24.9954 46.0341 24.8954 46.0602C24.9654 46.1037 24.7855 46.1646 24.8855 46.2081L24.7854 46.2254C24.9854 46.2776 24.6854 46.3994 24.8654 46.4342C24.9654 46.5037 24.5855 46.5385 24.7955 46.5994L24.6754 46.6602C24.6754 46.6602 24.8455 46.6602 24.7955 46.7124C24.7155 46.7298 24.7454 46.782 24.6554 46.7646C24.5554 46.8863 24.8954 46.9211 24.7054 47.095C24.8754 47.0863 24.7954 47.1733 24.9254 47.1646C24.8554 47.182 24.9554 47.2863 24.7854 47.2602C24.7754 47.2602 24.7655 47.2429 24.7955 47.2429L24.6954 47.2602C24.5454 47.3733 24.8354 47.3646 24.8354 47.4428C24.8554 47.4167 24.8354 47.3907 24.9154 47.3907V47.4602H24.8454V47.5646L24.9254 47.5298C24.8954 47.5907 24.7355 47.6515 24.8855 47.6689C24.9655 47.6689 25.0055 47.5907 25.0455 47.6255C24.9955 47.7037 24.9354 47.8255 24.9354 47.9124C25.0454 47.8689 25.0455 47.895 25.0755 47.9124L24.9855 47.9385C25.1455 47.982 24.7854 48.0342 24.9254 48.0863H24.8555L25.0654 48.0602C25.2854 48.0776 24.8854 48.1646 25.1754 48.1646C25.1454 48.1385 25.3755 48.0863 25.3555 48.1385L25.2655 48.1559C25.2655 48.1559 25.3355 48.1646 25.3255 48.1907C25.2755 48.1907 25.1954 48.2255 25.2254 48.2516L25.1055 48.2689H25.2955C25.2155 48.3559 25.3754 48.3907 25.2554 48.4515C25.2554 48.4515 25.2355 48.5733 25.3855 48.5472C25.2955 48.5559 25.2854 48.6255 25.1754 48.6428C25.2854 48.6428 25.3954 48.6863 25.3054 48.7472H25.2955C25.2455 48.895 25.5354 48.8863 25.4554 49.0342C25.5554 48.9907 25.5254 49.0602 25.6554 48.9994C25.8354 49.0515 25.4754 49.295 25.9054 49.1646C25.9554 49.1994 25.8355 49.2603 25.8255 49.2863H25.7955C25.8755 49.3559 25.8954 49.382 25.9154 49.4516C25.9754 49.469 26.1654 49.3907 26.1554 49.469C26.0654 49.4863 26.0955 49.5037 26.1055 49.5211C26.0855 49.5211 26.0555 49.5211 26.0155 49.5646C26.0455 49.5646 26.0555 49.5646 26.0755 49.5646C26.0755 49.5646 26.0654 49.5646 26.0554 49.5733C26.1054 49.5994 26.1254 49.5733 26.1254 49.5646C26.1354 49.5646 26.1554 49.5559 26.1654 49.5385C26.0854 49.6168 26.2255 49.6342 26.1055 49.695C26.1955 49.7907 26.3754 49.8081 26.4754 49.8689C26.4154 49.9037 26.3454 49.9124 26.3054 49.9037L26.3654 49.9559C26.2654 49.9994 26.2854 49.9472 26.2554 49.9298C26.1454 50.069 26.4954 50.0168 26.4054 50.1646L26.4954 50.1472C26.4954 50.1472 26.6054 50.1298 26.6254 50.1472C26.5454 50.1994 26.4354 50.2342 26.4654 50.2776C26.4054 50.3472 26.5655 50.3559 26.6355 50.3733C26.6355 50.3472 26.6854 50.3298 26.7154 50.3298C26.7354 50.3472 26.6554 50.3994 26.7054 50.3994L26.5954 50.4516C26.6954 50.3907 26.7455 50.4516 26.7955 50.4342C26.7255 50.4863 26.7055 50.4342 26.6355 50.4602C26.6955 50.5385 26.6655 50.5037 26.7355 50.582C26.8455 50.582 26.8354 50.5211 26.9454 50.495C26.9954 50.5211 27.0954 50.5211 27.0554 50.5994L27.1454 50.5385C27.2654 50.5733 27.2854 50.6255 27.2254 50.7211C27.8054 50.782 28.0754 50.6603 28.2254 50.5385C28.3654 50.4081 28.3754 50.2776 28.3754 50.2776C28.4554 49.9733 28.1054 50.0168 27.8754 49.8081L27.8154 49.782Z" fill="#8E8E8E"/>
<path d="M43.5469 49.6978H43.5969C43.5969 49.6978 43.5569 49.6878 43.5469 49.6978Z" fill="#8E8E8E"/>
<path d="M44.6964 50.4963C44.8864 50.2876 45.1264 50.3137 45.1864 50.0268C45.2664 49.9137 45.2964 49.7746 45.3364 49.6442C45.2164 49.5224 45.4164 49.4876 45.3264 49.3746H45.4264C45.4264 49.3746 45.3764 49.305 45.4364 49.305H45.4564C45.4064 49.2529 45.4664 49.2355 45.4464 49.2007H45.4664V49.1659L45.4964 49.1833C45.4564 49.0963 45.4764 49.0355 45.5364 48.992L45.4264 48.9572C45.6064 48.8876 45.3964 48.7659 45.5964 48.7137H45.6264C45.4064 48.4963 45.9164 48.5833 45.7064 48.3485C45.7364 48.3746 45.7664 48.3572 45.7864 48.3659C45.7864 48.2963 45.7964 48.2181 45.5864 48.1485C45.6064 48.105 45.6664 48.1311 45.7564 48.1485C45.6664 48.1224 45.6364 48.0702 45.6464 48.0268L45.6764 48.0529V47.9398L45.4964 47.905C45.5664 47.8702 45.7164 47.9572 45.6964 47.8876L45.5464 47.8442C45.6064 47.7746 45.8464 47.8007 45.9864 47.7572C46.1664 47.4529 45.8964 47.0268 46.2464 46.7833H46.3664C46.5364 46.8181 46.1464 46.6616 46.2964 46.6789L46.2264 46.6268C46.2264 46.6268 46.2964 46.6094 46.3264 46.6268C46.3464 46.592 46.3164 46.592 46.2664 46.5572L46.3764 46.5398C46.4864 46.4181 46.3064 46.2702 46.3764 46.1398C46.6164 45.992 46.4664 45.6355 46.3564 45.4528C46.2264 45.3137 46.3364 45.1746 46.4364 45.0267C46.5164 44.8702 46.5964 44.6963 46.4364 44.5659C46.4564 44.5485 46.4064 44.5398 46.3864 44.5398L46.3364 44.2615C46.3364 44.2615 46.3164 44.1746 46.2664 44.0789C46.2064 43.9746 46.1064 43.8528 45.9864 43.792C45.7264 43.6354 45.4664 43.8354 44.9664 44.3746H44.9264C44.8964 44.4876 44.8664 44.5485 45.0764 44.5746C44.8564 44.6354 45.0764 44.6528 45.0064 44.6963H44.9864C45.1864 44.7224 44.8664 44.8354 45.0264 44.8789C45.0064 44.8789 44.9464 44.8789 44.9364 44.8789C44.9664 44.9137 45.0264 44.9746 44.8964 44.9833C44.9564 45.0789 44.8964 45.218 45.0964 45.2963H45.0564C45.1964 45.3311 45.0764 45.3398 45.1464 45.392C45.1264 45.392 45.1164 45.392 45.1164 45.392C45.2564 45.4441 45.1364 45.5224 45.1964 45.5572H45.1064L45.1164 45.6442L45.1364 45.6094C45.3764 45.6354 44.9764 45.6615 45.1264 45.7398C45.0864 45.792 45.6164 45.9224 45.4864 45.9746C45.5964 46.0181 45.3064 45.9224 45.3864 45.9746C45.2564 45.9572 45.3164 45.9398 45.2064 45.9398C45.2564 45.992 45.0664 46.0007 45.1364 46.0615H45.0364C45.1964 46.1485 44.8764 46.1659 45.0364 46.2442C45.0964 46.3311 44.7364 46.2441 44.9164 46.3572H44.7764C44.7764 46.3572 44.9264 46.4181 44.8564 46.4441C44.7764 46.4267 44.7764 46.4789 44.7064 46.4441C44.5564 46.4963 44.8464 46.6442 44.5964 46.705C44.7464 46.7659 44.6364 46.8007 44.7564 46.8442C44.6864 46.8268 44.7064 46.9485 44.5764 46.8528C44.5664 46.8528 44.5764 46.8355 44.5964 46.8442L44.5064 46.8181C44.3064 46.8354 44.5664 46.9485 44.5164 47.0094C44.5564 47.0007 44.5564 46.9746 44.6164 47.0094L44.5864 47.0616L44.5164 47.0268L44.4464 47.0963L44.5464 47.1137C44.4864 47.1398 44.3164 47.1137 44.4364 47.192C44.5064 47.2355 44.5764 47.192 44.5964 47.2442C44.5164 47.2789 44.3764 47.3311 44.3264 47.392C44.4364 47.4181 44.4264 47.4355 44.4364 47.4616L44.3364 47.4355C44.4364 47.5485 44.1164 47.4007 44.1964 47.505L44.1364 47.4789L44.3264 47.5572C44.4864 47.6789 44.1164 47.5311 44.3464 47.6876C44.3464 47.6528 44.5564 47.7398 44.5064 47.7659L44.4164 47.7311C44.4164 47.7311 44.4664 47.7746 44.4364 47.7833C44.3964 47.7572 44.3064 47.7311 44.3064 47.7659L44.2064 47.7137L44.3464 47.8181C44.2264 47.8268 44.3264 47.9311 44.1864 47.9137C44.1864 47.9137 44.0864 47.9833 44.2164 48.0529C44.1364 48.0094 44.0864 48.0442 43.9864 47.992C44.0764 48.0442 44.1264 48.1485 44.0064 48.1398C43.8564 48.192 44.0664 48.3572 43.8964 48.4007C44.0064 48.4355 43.9264 48.4615 44.0664 48.505C44.1564 48.6528 43.7064 48.5746 44.1064 48.7659C44.1064 48.8181 43.9864 48.7746 43.9464 48.792L43.9264 48.7746C43.9264 48.8702 43.9064 48.8963 43.8664 48.9485C43.8864 48.992 44.0764 49.0789 44.0064 49.1137C43.9364 49.0616 43.9464 49.0963 43.9264 49.1137C43.9264 49.0963 43.8964 49.0789 43.8264 49.0876C43.8464 49.105 43.8564 49.1137 43.8664 49.1224C43.8664 49.1224 43.8564 49.1224 43.8464 49.1224C43.8464 49.1659 43.8864 49.1746 43.8964 49.1572C43.9064 49.1572 43.9264 49.1659 43.9464 49.1746C43.8264 49.1746 43.8964 49.2703 43.7664 49.2268C43.7364 49.3398 43.8364 49.4703 43.8364 49.5746C43.7664 49.5572 43.7164 49.505 43.7064 49.4703V49.5398C43.6064 49.4963 43.6664 49.479 43.6564 49.4529C43.4664 49.4529 43.7264 49.6616 43.5364 49.6789L43.5964 49.7311H43.5764C43.5764 49.7311 43.6564 49.792 43.6664 49.8094C43.5764 49.7833 43.4764 49.7224 43.4564 49.7659C43.3564 49.7659 43.4464 49.8703 43.4564 49.9398C43.4864 49.9224 43.5264 49.9485 43.5464 49.9746C43.5464 49.992 43.4464 49.9746 43.4764 50.0007L43.3664 49.9485C43.4764 49.992 43.4464 50.0529 43.4864 50.0789C43.3964 50.0529 43.4364 50.0181 43.3764 49.9833C43.3364 50.0703 43.3564 50.0268 43.3164 50.1051C43.3764 50.1833 43.4264 50.1485 43.5064 50.2181C43.5064 50.2703 43.5564 50.3398 43.4664 50.3485L43.5764 50.3833C43.6064 50.4963 43.5664 50.5311 43.4364 50.5311C43.6464 50.992 43.8864 51.1746 44.0864 51.2181C44.2864 51.2703 44.4264 51.192 44.4264 51.192C44.7964 51.079 44.5864 50.8181 44.6764 50.5224L44.6964 50.4963Z" fill="#8E8E8E"/>
</svg>
