<svg width="32" height="32" viewBox="0 0 32 32" fill="none" xmlns="http://www.w3.org/2000/svg">
<path d="M6.09961 12.8789L25.8996 12.8789" stroke="black" stroke-width="2"/>
<path fill-rule="evenodd" clip-rule="evenodd" d="M9.40078 4.85742C10.0083 4.85742 10.5008 5.26372 10.5008 5.76492V7.37826H8.30078V5.76492C8.30078 5.26372 8.79327 4.85742 9.40078 4.85742Z" fill="black"/>
<path fill-rule="evenodd" clip-rule="evenodd" d="M22.6 4.82129C23.2075 4.82129 23.7 5.22759 23.7 5.72879V7.34212H21.5V5.72879C21.5 5.22759 21.9925 4.82129 22.6 4.82129Z" fill="black"/>
<path d="M21.6008 21.1285C21.6008 21.5205 21.5499 21.6685 21.5316 21.7093C21.4907 21.7276 21.3427 21.7785 20.9508 21.7785C20.5588 21.7785 20.4108 21.7276 20.37 21.7093C20.3517 21.6685 20.3008 21.5205 20.3008 21.1285C20.3008 20.7365 20.3517 20.5886 20.37 20.5477C20.4108 20.5294 20.5588 20.4785 20.9508 20.4785C21.3427 20.4785 21.4907 20.5294 21.5316 20.5477C21.5499 20.5886 21.6008 20.7365 21.6008 21.1285Z" fill="black" stroke="black" stroke-width="2"/>
<rect x="6" y="7.2793" width="20" height="18.9" rx="3" stroke="black" stroke-width="2"/>
</svg>
