<svg width="24" height="24" viewBox="0 0 24 24" fill="none" xmlns="http://www.w3.org/2000/svg">
<path d="M12 5.02777C8.6928 3.71508 5.28989 3.95778 3.79065 4.16216C3.32627 4.22547 3 4.6282 3 5.09687V15.0901C3 15.6916 3.52628 16.1648 4.1269 16.1334C5.75823 16.0482 8.92061 16.0451 12 16.9558M12 5.02777C15.3072 3.71508 18.7101 3.95778 20.2094 4.16216C20.6737 4.22547 21 4.6282 21 5.09687V15.0901C21 15.6916 20.4737 16.1648 19.8731 16.1334C18.2418 16.0482 15.0794 16.0451 12 16.9558M12 5.02777C12 10.1804 12 11.8031 12 16.9558M5 19.267C5 19.267 7.47405 18.7191 11.7146 19.9175C11.9003 19.9699 12.0997 19.9699 12.2854 19.9175C16.5259 18.7191 19 19.267 19 19.267" stroke="#1F1F1F" stroke-width="1.5" stroke-linecap="round" stroke-linejoin="round"/>
</svg>
